<svg width="147" height="51" viewBox="0 0 147 51" fill="none" xmlns="http://www.w3.org/2000/svg">
<rect x="0.5" y="0.5" width="146" height="50" rx="4.5" stroke="#D2D2D2" stroke-dasharray="5 5"/>
<path d="M43.5625 24.4165V30.9165C43.6261 31.4654 43.5648 32.0215 43.3831 32.5434C43.2014 33.0652 42.9041 33.5392 42.5134 33.9299C42.1227 34.3206 41.6487 34.618 41.1268 34.7996C40.605 34.9813 40.0488 35.0426 39.5 34.979H26.5C25.9511 35.0426 25.3949 34.9813 24.8731 34.7996C24.3512 34.618 23.8772 34.3206 23.4865 33.9299C23.0958 33.5392 22.7985 33.0652 22.6168 32.5434C22.4352 32.0215 22.3738 31.4654 22.4375 30.9165V20.0831C22.3738 19.5343 22.4352 18.9781 22.6168 18.4563C22.7985 17.9344 23.0958 17.4604 23.4865 17.0697C23.8772 16.679 24.3512 16.3817 24.8731 16.2C25.3949 16.0183 25.9511 15.957 26.5 16.0206H35.1666C35.3821 16.0206 35.5888 16.1063 35.7411 16.2586C35.8935 16.411 35.9791 16.6177 35.9791 16.8331C35.9791 17.0486 35.8935 17.2553 35.7411 17.4077C35.5888 17.56 35.3821 17.6456 35.1666 17.6456H26.5C24.7915 17.6456 24.0625 18.3747 24.0625 20.0831V30.104L26.8141 27.3523C27.0187 27.1494 27.2951 27.0355 27.5833 27.0355C27.8714 27.0355 28.1479 27.1494 28.3525 27.3523L29.3708 28.3706C29.472 28.4699 29.6082 28.5255 29.75 28.5255C29.8917 28.5255 30.0279 28.4699 30.1291 28.3706L35.4808 23.019C35.6853 22.816 35.9618 22.7021 36.25 22.7021C36.5381 22.7021 36.8146 22.816 37.0191 23.019L41.9375 27.9373V24.4165C41.9375 24.201 42.0231 23.9943 42.1754 23.842C42.3278 23.6896 42.5345 23.604 42.75 23.604C42.9654 23.604 43.1721 23.6896 43.3245 23.842C43.4769 23.9943 43.5625 24.201 43.5625 24.4165ZM28.659 20.8956C28.2994 20.8967 27.9548 21.0404 27.701 21.2952C27.4472 21.5501 27.3049 21.8953 27.3054 22.255C27.3059 22.6146 27.4492 22.9594 27.7037 23.2136C27.9582 23.4677 28.3032 23.6105 28.6628 23.6105C29.0225 23.6105 29.3675 23.4677 29.622 23.2136C29.8765 22.9594 30.0197 22.6146 30.0202 22.255C30.0208 21.8953 29.8785 21.5501 29.6247 21.2952C29.3709 21.0404 29.0263 20.8967 28.6666 20.8956H28.659ZM40.0741 17.949L40.3125 17.7117V20.0831C40.3125 20.2986 40.3981 20.5053 40.5504 20.6577C40.7028 20.81 40.9095 20.8956 41.125 20.8956C41.3404 20.8956 41.5471 20.81 41.6995 20.6577C41.8519 20.5053 41.9375 20.2986 41.9375 20.0831V17.7117L42.1758 17.949C42.3298 18.0925 42.5335 18.1706 42.744 18.1669C42.9545 18.1632 43.1554 18.0779 43.3042 17.9291C43.4531 17.7802 43.5384 17.5794 43.5421 17.3689C43.5458 17.1584 43.4676 16.9547 43.3241 16.8006L41.6991 15.1756C41.5466 15.0238 41.3402 14.9385 41.125 14.9385C40.9097 14.9385 40.7033 15.0238 40.5508 15.1756L38.9258 16.8006C38.7823 16.9547 38.7041 17.1584 38.7079 17.3689C38.7116 17.5794 38.7968 17.7802 38.9457 17.9291C39.0946 18.0779 39.2954 18.1632 39.5059 18.1669C39.7164 18.1706 39.9201 18.0925 40.0741 17.949Z" fill="#333333"/>
<path d="M64.802 29.21H59.33L58.322 32H56.594L61.13 19.526H63.02L67.538 32H65.81L64.802 29.21ZM64.334 27.878L62.066 21.542L59.798 27.878H64.334ZM68.9029 27.032C68.9029 26.024 69.1069 25.142 69.5149 24.386C69.9229 23.618 70.4809 23.024 71.1889 22.604C71.9089 22.184 72.7129 21.974 73.6009 21.974C74.3689 21.974 75.0829 22.154 75.7429 22.514C76.4029 22.862 76.9069 23.324 77.2549 23.9V18.68H78.9109V32H77.2549V30.146C76.9309 30.734 76.4509 31.22 75.8149 31.604C75.1789 31.976 74.4349 32.162 73.5829 32.162C72.7069 32.162 71.9089 31.946 71.1889 31.514C70.4809 31.082 69.9229 30.476 69.5149 29.696C69.1069 28.916 68.9029 28.028 68.9029 27.032ZM77.2549 27.05C77.2549 26.306 77.1049 25.658 76.8049 25.106C76.5049 24.554 76.0969 24.134 75.5809 23.846C75.0769 23.546 74.5189 23.396 73.9069 23.396C73.2949 23.396 72.7369 23.54 72.2329 23.828C71.7289 24.116 71.3269 24.536 71.0269 25.088C70.7269 25.64 70.5769 26.288 70.5769 27.032C70.5769 27.788 70.7269 28.448 71.0269 29.012C71.3269 29.564 71.7289 29.99 72.2329 30.29C72.7369 30.578 73.2949 30.722 73.9069 30.722C74.5189 30.722 75.0769 30.578 75.5809 30.29C76.0969 29.99 76.5049 29.564 76.8049 29.012C77.1049 28.448 77.2549 27.794 77.2549 27.05ZM81.067 27.032C81.067 26.024 81.271 25.142 81.679 24.386C82.087 23.618 82.645 23.024 83.353 22.604C84.073 22.184 84.877 21.974 85.765 21.974C86.533 21.974 87.247 22.154 87.907 22.514C88.567 22.862 89.071 23.324 89.419 23.9V18.68H91.075V32H89.419V30.146C89.095 30.734 88.615 31.22 87.979 31.604C87.343 31.976 86.599 32.162 85.747 32.162C84.871 32.162 84.073 31.946 83.353 31.514C82.645 31.082 82.087 30.476 81.679 29.696C81.271 28.916 81.067 28.028 81.067 27.032ZM89.419 27.05C89.419 26.306 89.269 25.658 88.969 25.106C88.669 24.554 88.261 24.134 87.745 23.846C87.241 23.546 86.683 23.396 86.071 23.396C85.459 23.396 84.901 23.54 84.397 23.828C83.893 24.116 83.491 24.536 83.191 25.088C82.891 25.64 82.741 26.288 82.741 27.032C82.741 27.788 82.891 28.448 83.191 29.012C83.491 29.564 83.893 29.99 84.397 30.29C84.901 30.578 85.459 30.722 86.071 30.722C86.683 30.722 87.241 30.578 87.745 30.29C88.261 29.99 88.669 29.564 88.969 29.012C89.269 28.448 89.419 27.794 89.419 27.05ZM105.734 19.454V20.786H100.28V25.016H104.708V26.348H100.28V32H98.6419V19.454H105.734ZM108.558 20.534C108.246 20.534 107.982 20.426 107.766 20.21C107.55 19.994 107.442 19.73 107.442 19.418C107.442 19.106 107.55 18.842 107.766 18.626C107.982 18.41 108.246 18.302 108.558 18.302C108.858 18.302 109.11 18.41 109.314 18.626C109.53 18.842 109.638 19.106 109.638 19.418C109.638 19.73 109.53 19.994 109.314 20.21C109.11 20.426 108.858 20.534 108.558 20.534ZM109.35 22.136V32H107.712V22.136H109.35ZM113.78 18.68V32H112.142V18.68H113.78ZM125.572 26.69C125.572 27.002 125.554 27.332 125.518 27.68H117.634C117.694 28.652 118.024 29.414 118.624 29.966C119.236 30.506 119.974 30.776 120.838 30.776C121.546 30.776 122.134 30.614 122.602 30.29C123.082 29.954 123.418 29.51 123.61 28.958H125.374C125.11 29.906 124.582 30.68 123.79 31.28C122.998 31.868 122.014 32.162 120.838 32.162C119.902 32.162 119.062 31.952 118.318 31.532C117.586 31.112 117.01 30.518 116.59 29.75C116.17 28.97 115.96 28.07 115.96 27.05C115.96 26.03 116.164 25.136 116.572 24.368C116.98 23.6 117.55 23.012 118.282 22.604C119.026 22.184 119.878 21.974 120.838 21.974C121.774 21.974 122.602 22.178 123.322 22.586C124.042 22.994 124.594 23.558 124.978 24.278C125.374 24.986 125.572 25.79 125.572 26.69ZM123.88 26.348C123.88 25.724 123.742 25.19 123.466 24.746C123.19 24.29 122.812 23.948 122.332 23.72C121.864 23.48 121.342 23.36 120.766 23.36C119.938 23.36 119.23 23.624 118.642 24.152C118.066 24.68 117.736 25.412 117.652 26.348H123.88Z" fill="#333333"/>
</svg>
