<svg width="34" height="34" viewBox="0 0 34 34" fill="none" xmlns="http://www.w3.org/2000/svg">
<path d="M8.5 20.7823L8.5 13.2173C8.5 8.51401 11.8292 6.60151 15.895 8.93901L17.7083 9.98734C18.1475 10.2423 18.4167 10.7098 18.4167 11.2198L18.4167 22.7798C18.4167 23.2898 18.1475 23.7573 17.7083 24.0123L15.895 25.0607C11.8292 27.3982 8.5 25.4857 8.5 20.7823Z" fill="#333333"/>
<path d="M19.8333 21.5473L19.8333 12.4381C19.8333 11.8856 20.4283 11.5456 20.8958 11.829L22.4541 12.7356C26.5199 15.0731 26.5199 18.9265 22.4541 21.264L20.8958 22.1706C20.4283 22.4398 19.8333 22.0998 19.8333 21.5473Z" fill="#333333"/>
</svg>
