<svg width="40" height="40" viewBox="0 0 40 40" fill="none" xmlns="http://www.w3.org/2000/svg">
<circle opacity="0.1" cx="20" cy="20" r="20" fill="#7F7F7F"/>
<path d="M24.6834 18.9587C24.3251 18.9587 24.0417 18.667 24.0417 18.317C24.0417 18.0087 23.7334 17.367 23.2167 16.8087C22.7084 16.267 22.1501 15.9503 21.6834 15.9503C21.3251 15.9503 21.0417 15.6587 21.0417 15.3087C21.0417 14.9587 21.3334 14.667 21.6834 14.667C22.5167 14.667 23.3917 15.117 24.1584 15.9253C24.8751 16.6837 25.3334 17.6253 25.3334 18.3087C25.3334 18.667 25.0417 18.9587 24.6834 18.9587Z" fill="white"/>
<path d="M27.6917 18.9587C27.3334 18.9587 27.05 18.667 27.05 18.317C27.05 15.3587 24.6417 12.9587 21.6917 12.9587C21.3334 12.9587 21.05 12.667 21.05 12.317C21.05 11.967 21.3334 11.667 21.6834 11.667C25.35 11.667 28.3334 14.6503 28.3334 18.317C28.3334 18.667 28.0417 18.9587 27.6917 18.9587Z" fill="white"/>
<path d="M19.2084 22.4587L17.6667 24.0003C17.3417 24.3253 16.8251 24.3253 16.4917 24.0087C16.4001 23.917 16.3084 23.8337 16.2167 23.742C15.3584 22.8753 14.5834 21.967 13.8917 21.017C13.2084 20.067 12.6584 19.117 12.2584 18.1753C11.8667 17.2253 11.6667 16.317 11.6667 15.4503C11.6667 14.8837 11.7667 14.342 11.9667 13.842C12.1667 13.3337 12.4834 12.867 12.9251 12.4503C13.4584 11.9253 14.0417 11.667 14.6584 11.667C14.8917 11.667 15.1251 11.717 15.3334 11.817C15.5501 11.917 15.7417 12.067 15.8917 12.2837L17.8251 15.0087C17.9751 15.217 18.0834 15.4087 18.1584 15.592C18.2334 15.767 18.2751 15.942 18.2751 16.1003C18.2751 16.3003 18.2167 16.5003 18.1001 16.692C17.9917 16.8837 17.8334 17.0837 17.6334 17.2837L17.0001 17.942C16.9084 18.0337 16.8667 18.142 16.8667 18.2753C16.8667 18.342 16.8751 18.4003 16.8917 18.467C16.9167 18.5337 16.9417 18.5837 16.9584 18.6337C17.1084 18.9087 17.3667 19.267 17.7334 19.7003C18.1084 20.1337 18.5084 20.5753 18.9417 21.017C19.0251 21.1003 19.1167 21.1837 19.2001 21.267C19.5334 21.592 19.5417 22.1253 19.2084 22.4587Z" fill="white"/>
<path d="M28.3083 25.2752C28.3083 25.5085 28.2667 25.7502 28.1833 25.9835C28.1583 26.0502 28.1333 26.1169 28.1 26.1835C27.9583 26.4835 27.775 26.7669 27.5333 27.0335C27.125 27.4835 26.675 27.8085 26.1667 28.0169C26.1583 28.0169 26.15 28.0252 26.1417 28.0252C25.65 28.2252 25.1167 28.3335 24.5417 28.3335C23.6917 28.3335 22.7833 28.1335 21.825 27.7252C20.8667 27.3169 19.9083 26.7669 18.9583 26.0752C18.6333 25.8335 18.3083 25.5919 18 25.3335L20.725 22.6085C20.9583 22.7835 21.1667 22.9169 21.3417 23.0085C21.3833 23.0252 21.4333 23.0502 21.4917 23.0752C21.5583 23.1002 21.625 23.1085 21.7 23.1085C21.8417 23.1085 21.95 23.0585 22.0417 22.9669L22.675 22.3419C22.8833 22.1335 23.0833 21.9752 23.275 21.8752C23.4667 21.7585 23.6583 21.7002 23.8667 21.7002C24.025 21.7002 24.1917 21.7335 24.375 21.8085C24.5583 21.8835 24.75 21.9919 24.9583 22.1335L27.7167 24.0919C27.9333 24.2419 28.0833 24.4169 28.175 24.6252C28.2583 24.8335 28.3083 25.0419 28.3083 25.2752Z" fill="white"/>
</svg>
