<svg width="156" height="134" viewBox="0 0 156 134" fill="none" xmlns="http://www.w3.org/2000/svg">
<path d="M70.9465 131.432C73.7505 131.432 76.5545 131.237 79.3584 130.848C81.773 130.537 84.1875 130.109 86.602 129.564C72.8159 112.403 64.5208 90.6891 64.5208 66.9906C64.5208 43.2921 72.8159 21.5782 86.4852 4.41724C80.5268 2.89961 74.101 2.3159 67.5584 2.66612C35.3129 4.3005 8.79206 30.1003 6.57226 62.3209C3.88513 100.028 33.794 131.432 70.9465 131.432Z" fill="#B3D5CB"/>
<path d="M108.624 66.778C108.624 42.6125 88.9961 23 64.8119 23C40.6277 23 21 42.6125 21 66.778C21 90.9434 40.6277 110.556 64.8119 110.556C88.9961 110.556 108.624 90.9434 108.624 66.778Z" fill="#529C86"/>
<path d="M74.368 50.8638H51.3418C50.6955 50.8642 50.0757 51.1211 49.6187 51.5782C49.1617 52.0352 48.9047 52.6549 48.9043 53.3013V87.3125C48.9062 87.9584 49.1637 88.5773 49.6204 89.034C50.0771 89.4907 50.6959 89.7481 51.3418 89.75H74.368C75.0139 89.7481 75.6328 89.4907 76.0895 89.034C76.5462 88.5773 76.8036 87.9584 76.8055 87.3125V53.3013C76.8051 52.6549 76.5482 52.0352 76.0911 51.5782C75.6341 51.1211 75.0144 50.8642 74.368 50.8638ZM52.9099 84.16V75.4338C52.9104 74.7874 53.1673 74.1677 53.6243 73.7107C54.0814 73.2536 54.7011 72.9967 55.3474 72.9963H70.5655C70.8858 72.9958 71.2029 73.0586 71.4988 73.1809C71.7948 73.3033 72.0636 73.4828 72.2901 73.7092C72.5165 73.9357 72.696 74.2045 72.8184 74.5005C72.9407 74.7964 73.0035 75.1136 73.003 75.4338V84.16C73.0035 84.4802 72.9407 84.7974 72.8184 85.0933C72.696 85.3892 72.5165 85.6581 72.2901 85.8845C72.0636 86.111 71.7948 86.2905 71.4988 86.4128C71.2029 86.5352 70.8858 86.5979 70.5655 86.5975H55.3474C54.7011 86.5971 54.0814 86.3401 53.6243 85.8831C53.1673 85.4261 52.9104 84.8064 52.9099 84.16ZM73.003 65.8706C73.0034 65.9774 72.9826 66.0832 72.9419 66.182C72.9011 66.2807 72.8413 66.3704 72.7658 66.4459C72.6903 66.5214 72.6006 66.5812 72.5019 66.622C72.4031 66.6627 72.2973 66.6835 72.1905 66.6831H53.568C53.3528 66.6825 53.1465 66.5967 52.9942 66.4445C52.842 66.2922 52.7562 66.0859 52.7555 65.8706V54.8775C52.7562 54.6622 52.842 54.4559 52.9942 54.3037C53.1465 54.1515 53.3528 54.0657 53.568 54.065H72.1905C72.2973 54.0647 72.4031 54.0855 72.5019 54.1262C72.6006 54.1669 72.6903 54.2268 72.7658 54.3023C72.8413 54.3778 72.9011 54.4675 72.9419 54.5662C72.9826 54.6649 73.0034 54.7707 73.003 54.8775V65.8706Z" fill="white"/>
<path d="M71.3781 84.16V82.535H66.8443V84.9725H70.5656C70.6724 84.9728 70.7782 84.952 70.8769 84.9113C70.9756 84.8706 71.0653 84.8108 71.1408 84.7352C71.2163 84.6597 71.2762 84.57 71.3169 84.4713C71.3576 84.3726 71.3784 84.2668 71.3781 84.16ZM66.8443 78.6756H71.3781V80.91H66.8443V78.6756ZM71.3781 75.4337C71.3774 75.2185 71.2916 75.0122 71.1394 74.8599C70.9872 74.7077 70.7809 74.6219 70.5656 74.6212H66.8443V77.0506H71.3781V75.4337ZM60.7181 74.6212H65.2193V77.0506H60.7181V74.6212ZM74.5143 49.2469V47.5C74.5144 47.0732 74.4305 46.6505 74.2672 46.2562C74.1039 45.8618 73.8645 45.5035 73.5627 45.2017C73.2609 44.8999 72.9025 44.6605 72.5082 44.4972C72.1138 44.3339 71.6912 44.2499 71.2643 44.25H54.6162C54.1894 44.2499 53.7667 44.3339 53.3724 44.4972C52.978 44.6605 52.6197 44.8999 52.3179 45.2017C52.0161 45.5035 51.7767 45.8618 51.6134 46.2562C51.4501 46.6505 51.3661 47.0732 51.3662 47.5V49.2387C51.3662 49.2387 74.4656 49.2387 74.5143 49.2469ZM78.9343 56.4131L78.4306 56.2344V84.3144L78.9343 84.1356C79.5665 83.9103 80.1136 83.495 80.5005 82.9467C80.8875 82.3983 81.0953 81.7436 81.0956 81.0725V59.4762C81.0953 58.8051 80.8875 58.1505 80.5005 57.6021C80.1136 57.0537 79.5665 56.6384 78.9343 56.4131ZM54.3806 55.69H71.3781V65.0581H54.3806V55.69ZM60.7181 78.6756H65.2193V80.91H60.7181V78.6756ZM60.7181 82.535H65.2193V84.9725H60.7181V82.535ZM59.0931 84.9725V82.535H54.535V84.16C54.5346 84.2668 54.5554 84.3726 54.5962 84.4713C54.6369 84.57 54.6967 84.6597 54.7722 84.7352C54.8477 84.8108 54.9374 84.8706 55.0362 84.9113C55.1349 84.952 55.2407 84.9728 55.3475 84.9725H59.0931ZM54.535 78.6756H59.0931V80.91H54.535V78.6756ZM59.0931 74.6212H55.3475C55.1322 74.6219 54.9259 74.7077 54.7736 74.8599C54.6214 75.0122 54.5356 75.2185 54.535 75.4337V77.0506H59.0931V74.6212Z" fill="white"/>
<path d="M121.067 27.5319C121.067 24.1464 119.665 20.9944 117.211 18.5429C109.734 11.4216 100.504 5.9348 90.5735 2.89952C89.4052 2.58821 88.2758 2.27691 87.1854 1.9656C80.7597 0.331222 74.1002 -0.252483 67.4408 0.0977415C33.6764 1.73212 6.3378 28.4659 4.00116 62.2041C2.71601 80.9995 9.02492 98.9776 21.8764 112.636C34.4942 126.178 52.3695 134 70.9458 134C73.7497 134 76.7874 133.767 79.5914 133.416C82.1616 133.105 84.693 132.638 87.1854 132.015C98.4013 129.214 108.682 123.493 117.094 115.555C119.898 112.87 121.3 109.134 120.95 105.282C120.716 101.546 118.73 98.2772 115.692 96.1758C114.057 95.0862 112.538 93.841 111.136 92.4401C110.084 91.5062 108.566 91.5062 107.514 92.5568C106.579 93.6075 106.579 95.2419 107.631 96.1758C109.267 97.7324 110.98 99.1333 112.772 100.378C114.641 101.546 115.692 103.531 115.926 105.749C116.043 107.967 115.225 110.185 113.589 111.819C105.878 119.174 96.2983 124.427 85.9003 126.996C83.6415 127.618 81.3438 128.085 79.0072 128.396C76.3201 128.747 73.6329 128.863 70.9458 128.863C53.7715 128.863 37.2982 121.742 25.615 109.134C13.815 96.526 7.85661 79.9488 9.14175 62.5543C11.2447 31.3844 36.4804 6.75199 67.6745 5.11761C73.8666 4.88413 79.9418 5.46783 85.9003 6.86873C86.9907 7.18004 88.0422 7.49135 89.0547 7.80266C98.2844 10.6045 106.696 15.6243 113.706 22.2786C115.342 23.7962 116.16 26.0143 115.926 28.2324C115.809 30.4505 114.641 32.4351 112.888 33.6025C111.019 34.8477 109.267 36.2486 107.631 37.8052C106.579 38.7391 106.579 40.3735 107.514 41.4242C108.566 42.4748 110.084 42.4748 111.136 41.5409C112.538 40.14 114.057 38.8948 115.692 37.8052C118.73 35.7038 120.716 32.4351 121.067 28.6994C121.067 28.3102 121.067 27.9211 121.067 27.5319Z" fill="#529C86"/>
<path d="M33.3263 114.154C33.3263 112.403 32.6253 110.768 31.3402 109.484C19.0729 98.0436 12.2966 81.9333 12.7639 65.2393C13.2313 49.8294 19.8907 35.3535 31.3402 24.6133C33.9105 22.1617 34.0273 18.1925 31.5739 15.6242C29.2372 13.0559 25.1481 12.8224 22.5778 15.274C8.55799 28.349 0.613442 45.977 0.0292842 64.889C-0.554874 85.202 7.62334 104.931 22.5778 118.824C25.1481 121.275 29.2372 121.042 31.6907 118.473C32.7422 117.306 33.3263 115.672 33.3263 114.154Z" fill="#529C86"/>
<path d="M143.966 79.0146C150.626 79.0146 156 73.6445 156 66.9903C156 60.336 150.626 54.9659 143.966 54.9659C137.307 54.9659 131.933 60.336 131.933 66.9903C131.933 73.6446 137.307 79.0146 143.966 79.0146Z" fill="#529C86"/>
</svg>
