<svg width="80" height="80" viewBox="0 0 80 80" fill="none" xmlns="http://www.w3.org/2000/svg">
<g clip-path="url(#clip0_629_2642)">
<path d="M47.7691 62.9816C45.6994 64.8186 42.9784 65.9374 40 65.9374C37.0216 65.9374 34.3006 64.8186 32.2309 62.9816C29.8416 64.6807 28.2812 67.4697 28.2812 70.6249V79.9999H51.7188V70.6249C51.7188 67.4697 50.1584 64.6807 47.7691 62.9816ZM61.0938 54.2186C61.0938 58.1019 64.2417 61.2499 68.125 61.2499C72.0083 61.2499 75.1562 58.1019 75.1562 54.2186C75.1562 51.1574 73.1994 48.5544 70.4688 47.5891V17.9686C70.4688 16.6743 69.4194 15.6249 68.125 15.6249H62.5356C62.6965 17.1832 62.6965 18.754 62.5356 20.3124H65.7812V47.5891C63.0506 48.5544 61.0938 51.1574 61.0938 54.2186ZM75.8941 62.9816C73.8244 64.8186 71.1034 65.9374 68.125 65.9374C65.1466 65.9374 62.4256 64.8186 60.3559 62.9816C57.9666 64.6807 56.4062 67.4697 56.4062 70.6249V79.9999H77.5C78.7944 79.9999 79.8438 78.9505 79.8438 77.6561V70.6249C79.8438 67.4697 78.2834 64.6807 75.8941 62.9816ZM11.875 61.2499C15.7583 61.2499 18.9062 58.1019 18.9062 54.2186C18.9062 51.1574 16.9494 48.5544 14.2188 47.5891V20.3124H17.4644C17.3035 18.754 17.3035 17.1832 17.4644 15.6249H11.875C10.5806 15.6249 9.53125 16.6743 9.53125 17.9686V47.5891C6.80062 48.5544 4.84375 51.1574 4.84375 54.2186C4.84375 58.1019 7.99172 61.2499 11.875 61.2499ZM19.6441 62.9816C17.5744 64.8186 14.8534 65.9374 11.875 65.9374C8.89656 65.9374 6.17562 64.8186 4.10594 62.9816C1.71656 64.6807 0.15625 67.4697 0.15625 70.6249V77.6561C0.15625 78.9505 1.20562 79.9999 2.5 79.9999H23.5938V70.6249C23.5938 67.4697 22.0334 64.6807 19.6441 62.9816ZM40 40.6249C39.2088 40.6249 38.4269 40.5838 37.6562 40.5043V47.5891C34.9256 48.5546 32.9688 51.1575 32.9688 54.2186C32.9688 58.1019 36.1167 61.2499 40 61.2499C43.8833 61.2499 47.0312 58.1019 47.0312 54.2186C47.0312 51.1574 45.0744 48.5544 42.3438 47.5891V40.5043C41.5731 40.5838 40.7912 40.6249 40 40.6249ZM38.4319 14.6982L38.4372 14.7021V12.8955C38.2616 13.1683 38.1919 13.4463 38.1681 13.5716C38.0778 14.0508 38.1838 14.5036 38.4319 14.6982ZM41.5622 19.5802V23.096C42.0533 22.6893 42.3516 22.1147 42.4441 21.5638C42.5161 21.1352 42.5492 20.1652 41.5622 19.5802Z" fill="#333333"/>
<path d="M40 0C30.092 0 22.0312 8.06078 22.0312 17.9688C22.0312 27.8767 30.092 35.9375 40 35.9375C49.908 35.9375 57.9688 27.8767 57.9688 17.9688C57.9688 8.06078 49.908 0 40 0ZM45.5259 22.082C45.2058 23.9862 43.7834 25.9159 41.5622 26.5547V27.3438C41.5622 28.2067 40.8627 28.9062 39.9997 28.9062C39.1367 28.9062 38.4372 28.2067 38.4372 27.3438V26.7102C37.3698 26.5883 36.4841 26.2642 35.2897 25.483C34.5675 25.0106 34.3652 24.0422 34.8375 23.32C35.3098 22.598 36.2784 22.3955 37.0005 22.8678C37.5803 23.2472 37.9798 23.4459 38.437 23.5484V18.3039C37.63 17.9256 37.0141 17.5577 36.5031 17.157C35.3258 16.2336 34.787 14.638 35.097 12.9928C35.4334 11.2073 36.6784 9.78625 38.3459 9.28375C38.3766 9.27453 38.4064 9.26688 38.4369 9.25813V8.59375C38.4369 7.73078 39.1364 7.03125 39.9994 7.03125C40.8623 7.03125 41.5619 7.73078 41.5619 8.59375V9.09656C42.8256 9.35953 43.7247 9.99734 44.1714 10.5098C44.7383 11.1605 44.6705 12.1475 44.0198 12.7144C43.3747 13.2764 42.3991 13.2145 41.8302 12.5795C41.808 12.5583 41.7184 12.478 41.562 12.3892V16.2103C41.7498 16.2792 41.937 16.3464 42.1216 16.4116C44.5819 17.2812 45.9498 19.56 45.5259 22.082Z" fill="#102694"/>
</g>
<defs>
<clipPath id="clip0_629_2642">
<rect width="80" height="80" fill="white"/>
</clipPath>
</defs>
</svg>
