<svg width="80" height="80" viewBox="0 0 80 80" fill="none" xmlns="http://www.w3.org/2000/svg">
<g clip-path="url(#clip0_629_2552)">
<path d="M23.438 19.8438H39.062C39.8067 19.8438 40.5028 19.4867 40.9492 18.8906C44.363 14.333 46.0938 9.29156 46.0938 3.90625V2.34375C46.0938 1.04937 45.0444 0 43.75 0C39.4094 0 33.7477 2.81125 31.25 4.17906C28.7523 2.81125 23.0906 0 18.75 0C17.4556 0 16.4062 1.04937 16.4062 2.34375V3.90625C16.4062 9.29156 18.137 14.333 21.5508 18.8906C21.9972 19.4867 22.6934 19.8438 23.438 19.8438ZM33.0644 54.2922V60.928C34.2617 60.2817 34.973 59.0886 35.1631 57.9575C35.2991 57.1495 35.3545 55.2102 33.0644 54.2922ZM27.9802 45.832C27.8158 46.7039 28.0272 47.5163 28.5184 47.9016C28.7106 48.0523 28.9267 48.1998 29.1581 48.3445V43.9331C28.4758 44.4103 28.1042 45.1741 27.9802 45.832Z" fill="#333333"/>
<path d="M44.0625 59.1145V47.4862C44.0625 44.2383 46.3988 41.5033 49.6177 40.983C51.2822 40.7139 52.7303 39.6755 53.5269 38.1941C50.1694 33.5505 46.2166 29.2261 42.2977 25.2334C42.0795 25.0111 41.8192 24.8345 41.532 24.7139C41.2448 24.5933 40.9365 24.5312 40.625 24.5313H21.875C21.5635 24.5313 21.2552 24.5933 20.968 24.7139C20.6808 24.8344 20.4205 25.011 20.2023 25.2333C10.2123 35.4114 0 47.7428 0 62.0312L0.00015625 62.1994C0.0220312 72.0147 8.13937 80 18.0955 80H44.4045C47.1881 80 49.8278 79.3753 52.1872 78.2614C47.1075 73.3555 44.0625 66.5047 44.0625 59.1145ZM39.0153 58.6052C38.7172 60.3783 37.8252 62.0236 36.5034 63.238C35.515 64.1461 34.3478 64.7677 33.0644 65.0819V66.5625C33.0644 67.6413 32.19 68.5156 31.1112 68.5156C30.0325 68.5156 29.1581 67.6413 29.1581 66.5625V65.2644C27.5219 65.1292 26.1755 64.6975 24.2603 63.4447C23.3577 62.8542 23.1045 61.6438 23.695 60.7411C24.2855 59.8383 25.4958 59.5852 26.3986 60.1758C27.5061 60.9002 28.213 61.2094 29.1581 61.3348V52.7547C27.8623 52.1631 26.8978 51.595 26.1077 50.9752C24.457 49.6805 23.7034 47.4325 24.1414 45.1086C24.6191 42.5742 26.3825 40.558 28.7438 39.8467C28.8811 39.8054 29.0193 39.7667 29.1581 39.7306V38.4375C29.1581 37.3588 30.0325 36.4844 31.1112 36.4844C32.19 36.4844 33.0644 37.3588 33.0644 38.4375V39.5142C35.0238 39.8417 36.4073 40.8027 37.0747 41.5683C37.7833 42.3816 37.6986 43.6153 36.8853 44.3239C36.0759 45.0291 34.85 44.9484 34.1398 44.1461C34.0934 44.0988 33.7425 43.7586 33.0644 43.5248V50.1344C33.4334 50.2717 33.8022 50.4047 34.1642 50.5327C37.7241 51.7908 39.6283 54.9595 39.0153 58.6052Z" fill="#333333"/>
<path d="M78.3844 45.6103C76.7995 45.3537 75.2986 44.7235 74.0056 43.7718C72.7126 42.8201 71.6648 41.5743 70.9487 40.1373C70.7494 39.7372 70.3345 39.49 69.8873 39.49H58.8627C58.4155 39.49 58.0006 39.7372 57.8013 40.1373C57.0852 41.5743 56.0374 42.8201 54.7444 43.7718C53.4514 44.7235 51.9505 45.3537 50.3656 45.6103C49.4386 45.7601 48.75 46.547 48.75 47.4861V59.1144C48.75 68.5361 54.7637 76.8722 63.6325 79.8776C64.1141 80.0406 64.636 80.0406 65.1177 79.8776C73.9862 76.8723 80 68.5361 80 59.1144V47.4861C80 46.547 79.3114 45.7601 78.3844 45.6103ZM72.6614 57.0401L63.8227 65.8789C63.365 66.3366 62.7652 66.5655 62.1655 66.5655C61.5658 66.5655 60.9658 66.3367 60.5083 65.8789L56.0889 61.4595C55.1736 60.5442 55.1736 59.0603 56.0889 58.145C57.0041 57.2297 58.4881 57.2297 59.4034 58.145L62.1656 60.907L69.3472 53.7256C70.2623 52.8103 71.7464 52.8103 72.6617 53.7256C73.5767 54.6411 73.5767 56.125 72.6614 57.0401Z" fill="#102694"/>
</g>
<defs>
<clipPath id="clip0_629_2552">
<rect width="80" height="80" fill="white"/>
</clipPath>
</defs>
</svg>
