<svg width="298" height="200" viewBox="0 0 298 200" fill="none" xmlns="http://www.w3.org/2000/svg">
<rect width="298" height="200" rx="15" fill="#FAFAFA"/>
<path fill-rule="evenodd" clip-rule="evenodd" d="M141.344 35.8001C141.002 35.5845 140.571 35.6025 140.23 35.8001C140.134 35.86 140.038 35.9138 139.942 35.9617C139.847 36.0216 139.751 36.0755 139.655 36.1234C139.296 36.2851 139.044 36.6264 139.044 37.0395L138.99 38.4048L134.535 38.2611L134.589 36.8958C134.589 36.5006 134.374 36.1234 134.032 35.9438C133.829 35.836 133.637 35.7163 133.458 35.5845C133.134 35.351 132.703 35.333 132.362 35.5127L131.158 36.1593L129.057 32.2434L130.26 31.5967C130.601 31.3991 130.817 31.0398 130.799 30.6267C130.799 30.4111 130.811 30.1895 130.835 29.962C130.853 29.5668 130.673 29.1896 130.332 28.974L129.182 28.2555L131.518 24.4652L132.685 25.1838C133.027 25.3993 133.458 25.3814 133.799 25.1838C133.895 25.1239 133.991 25.07 134.086 25.0221C134.182 24.9742 134.278 24.9263 134.374 24.8784C134.733 24.6988 134.985 24.3575 134.985 23.9443L135.038 22.5791L139.475 22.7228L139.439 24.088C139.421 24.4832 139.655 24.8604 139.996 25.0401C140.188 25.1479 140.379 25.2676 140.571 25.3993C140.894 25.6329 141.326 25.6508 141.667 25.4712L142.87 24.8245L144.972 28.7405L143.769 29.3872C143.427 29.5848 143.212 29.962 143.23 30.3572C143.23 30.5728 143.218 30.7943 143.194 31.0218C143.176 31.417 143.355 31.8122 143.697 32.0098L144.846 32.7284L142.511 36.5186L141.344 35.8001ZM140.23 28.7764C139.278 26.9981 137.05 26.3334 135.29 27.2855C133.512 28.2375 132.847 30.447 133.799 32.2254C134.751 33.9858 136.96 34.6684 138.721 33.7163C140.499 32.7643 141.182 30.5368 140.23 28.7764Z" fill="#EBEBEB"/>
<path fill-rule="evenodd" clip-rule="evenodd" d="M79.4603 84.4446C79.3166 84.2111 79.0651 84.0674 78.7777 84.0854C78.7058 84.0854 78.628 84.0854 78.5441 84.0854C78.4723 84.0854 78.3944 84.0854 78.3106 84.0854C78.0412 84.0674 77.7717 84.2111 77.628 84.4446L77.143 85.271L74.4485 83.7261L74.9335 82.8818C75.0772 82.6483 75.0593 82.3429 74.8976 82.1094C74.8138 81.9777 74.7359 81.8459 74.6641 81.7142C74.5383 81.4627 74.2868 81.3011 74.0174 81.3011H73.0474V78.1755H74.0174C74.2868 78.1755 74.5383 78.0138 74.6641 77.7623C74.7359 77.6306 74.8138 77.4988 74.8976 77.3671C75.0593 77.1336 75.0772 76.8282 74.9335 76.5947L74.4485 75.7684L77.143 74.2056L77.628 75.0319C77.7717 75.2834 78.0412 75.4091 78.3106 75.3911C78.3944 75.3911 78.4723 75.3911 78.5441 75.3911C78.628 75.3911 78.7058 75.3911 78.7777 75.3911C79.0651 75.4091 79.3166 75.2834 79.4603 75.0319L79.9453 74.2056L82.6398 75.7684L82.1727 76.5947C82.029 76.8282 82.047 77.1336 82.1907 77.3671C82.2745 77.4988 82.3523 77.6306 82.4242 77.7623C82.5499 78.0138 82.8014 78.1755 83.0888 78.1755H84.0409V81.3011H83.0888C82.8014 81.3011 82.5499 81.4627 82.4242 81.7142C82.3523 81.8459 82.2745 81.9777 82.1907 82.1094C82.047 82.3429 82.029 82.6483 82.1727 82.8998L82.6398 83.7261L79.9453 85.271L79.4603 84.4446ZM81.0949 79.7383C81.0949 78.3371 79.9453 77.1875 78.5441 77.1875C77.125 77.1875 75.9933 78.3371 75.9933 79.7383C75.9933 81.1574 77.125 82.289 78.5441 82.289C79.9453 82.289 81.0949 81.1574 81.0949 79.7383Z" fill="#EBEBEB"/>
<path fill-rule="evenodd" clip-rule="evenodd" d="M160.6 40.3448C160.349 40.4885 160.223 40.758 160.241 41.0274C160.241 41.1112 160.241 41.1891 160.241 41.2609C160.241 41.3328 160.241 41.4106 160.241 41.4944C160.223 41.7639 160.349 42.0333 160.6 42.1771L161.427 42.6621L159.864 45.3566L159.037 44.8715C158.786 44.7458 158.499 44.7458 158.265 44.9075C158.133 44.9913 157.996 45.0691 157.852 45.141C157.6 45.2667 157.439 45.5182 157.439 45.8056V46.7577H154.331V45.8056C154.331 45.5182 154.169 45.2667 153.918 45.141C153.774 45.0691 153.643 44.9913 153.523 44.9075C153.271 44.7458 152.984 44.7458 152.732 44.8715L151.906 45.3566L150.343 42.6621L151.188 42.1771C151.421 42.0333 151.565 41.7639 151.547 41.4944C151.535 41.4106 151.529 41.3328 151.529 41.2609C151.529 41.1891 151.535 41.1112 151.547 41.0274C151.565 40.758 151.421 40.4885 151.188 40.3448L150.343 39.8598L151.906 37.1653L152.732 37.6323C152.984 37.776 153.271 37.776 153.505 37.6144C153.637 37.5305 153.774 37.4527 153.918 37.3809C154.169 37.2551 154.331 37.0036 154.331 36.7162V35.7642H157.439V36.7162C157.439 37.0036 157.6 37.2551 157.852 37.3809C157.996 37.4527 158.133 37.5305 158.265 37.6144C158.499 37.776 158.786 37.776 159.037 37.6323L159.864 37.1653L161.427 39.8598L160.6 40.3448ZM155.894 38.7101C154.475 38.7101 153.325 39.8598 153.325 41.2609C153.325 42.68 154.475 43.8297 155.894 43.8297C157.295 43.8297 158.445 42.68 158.445 41.2609C158.445 39.8598 157.295 38.7101 155.894 38.7101Z" fill="#EBEBEB"/>
<path fill-rule="evenodd" clip-rule="evenodd" d="M221.047 126.64L221.101 128.634C221.119 129.299 221.137 129.981 221.137 130.664V130.754H221.047C219.466 130.772 217.867 130.826 216.287 130.826L211.526 130.844H211.347V130.664L211.365 126.64V126.479H211.526C212.335 126.496 213.143 126.479 213.933 126.496L216.323 126.55L221.047 126.64ZM221.047 126.64L216.251 126.73L213.897 126.766C213.161 126.784 212.424 126.784 211.706 126.784L211.724 130.466L216.305 130.502C217.849 130.502 219.412 130.538 220.957 130.556C220.957 129.927 220.993 129.299 221.011 128.67L221.047 126.64ZM211.688 126.802V126.64L211.526 126.802C211.574 126.802 211.628 126.802 211.688 126.802ZM211.706 130.484H211.526L211.706 130.664V130.484ZM220.939 130.556C220.939 130.592 220.939 130.622 220.939 130.646L221.047 130.556C221.011 130.556 220.975 130.556 220.939 130.556Z" fill="#EBEBEB"/>
<path d="M172.96 94.3423H163.457V98.3481H172.96V94.3423Z" fill="#EBEBEB"/>
<path fill-rule="evenodd" clip-rule="evenodd" d="M167.66 89.2769L167.714 91.2529C167.732 91.9355 167.75 92.6001 167.75 93.2827V93.3905H167.66C166.079 93.4085 164.481 93.4444 162.9 93.4444L158.14 93.4623H157.96V93.2827L157.978 89.2769V89.1152H158.14C158.948 89.1152 159.756 89.1152 160.547 89.1332L162.936 89.1691L167.66 89.2769ZM167.66 89.2769L162.864 89.3847L160.511 89.4206C159.774 89.4386 159.038 89.4386 158.319 89.4386L158.337 93.121L162.918 93.139C164.463 93.139 166.008 93.1749 167.57 93.1929C167.57 92.5642 167.606 91.9355 167.624 91.3068L167.66 89.2769ZM158.301 89.4386V89.2769L158.14 89.4386C158.187 89.4386 158.241 89.4386 158.301 89.4386ZM158.319 93.121H158.14L158.319 93.3007V93.121ZM167.552 93.1929C167.552 93.2288 167.552 93.2648 167.552 93.3007L167.66 93.1929C167.624 93.1929 167.588 93.1929 167.552 93.1929Z" fill="#EBEBEB"/>
<path fill-rule="evenodd" clip-rule="evenodd" d="M178.276 89.2769L178.33 91.2529C178.33 91.9355 178.366 92.6001 178.366 93.2827V93.3905H178.276C176.678 93.4085 175.097 93.4444 173.516 93.4444L168.756 93.4623H168.576V93.2827L168.594 89.2769V89.1152H168.756C169.564 89.1152 170.355 89.1152 171.163 89.1332L173.552 89.1691L178.276 89.2769ZM178.276 89.2769L173.48 89.3847L171.127 89.4206C170.39 89.4386 169.654 89.4386 168.935 89.4386L168.953 93.121L173.516 93.139C175.079 93.139 176.624 93.1749 178.187 93.1929C178.187 92.5642 178.222 91.9355 178.222 91.3068L178.276 89.2769ZM168.935 89.4386V89.2769L168.774 89.4386C168.822 89.4386 168.876 89.4386 168.935 89.4386ZM168.953 93.121H168.774L168.953 93.3007V93.121ZM178.187 93.1929C178.187 93.2288 178.187 93.2648 178.187 93.3007L178.276 93.1929C178.252 93.1929 178.222 93.1929 178.187 93.1929Z" fill="#EBEBEB"/>
<path fill-rule="evenodd" clip-rule="evenodd" d="M81.9037 30.5188L81.8498 28.5249C81.8318 27.8603 81.7959 27.1777 81.7959 26.4951V26.4052H81.9037C83.4844 26.3873 85.0652 26.3334 86.646 26.3334L91.4063 26.3154H91.5859V26.4951L91.5679 30.5188V30.6805H91.4063C90.6159 30.6625 89.8075 30.6805 88.9992 30.6625L86.6101 30.6087L81.9037 30.5188ZM81.9037 30.5188L86.6999 30.429L89.071 30.3931C89.7896 30.3751 90.5261 30.3751 91.2626 30.3751L91.2446 26.6927L86.6639 26.6567C85.1011 26.6567 83.5563 26.6208 81.9935 26.6028C81.9935 27.2316 81.9755 27.8603 81.9576 28.489L81.9037 30.5188ZM91.2626 30.3751V30.5188L91.4063 30.3572C91.3584 30.3572 91.3105 30.3632 91.2626 30.3751ZM91.2446 26.6927H91.4063L91.2266 26.513L91.2446 26.6927ZM82.0115 26.6028C82.0115 26.5669 82.0115 26.537 82.0115 26.513L81.9216 26.6028C81.9576 26.6028 81.9875 26.6028 82.0115 26.6028Z" fill="#EBEBEB"/>
<path d="M76.5864 35.5843H86.107V31.5605H76.5864V35.5843Z" fill="#EBEBEB"/>
<path fill-rule="evenodd" clip-rule="evenodd" d="M211.526 30.5188L211.472 28.5249C211.472 27.8603 211.437 27.1777 211.437 26.4951V26.4052H211.526C213.125 26.3873 214.706 26.3514 216.287 26.3514L221.047 26.3154H221.227V26.4951L221.209 30.5188V30.6805H221.047C220.239 30.6805 219.448 30.6805 218.64 30.6625L216.251 30.6266L211.526 30.5188ZM211.526 30.5188L216.323 30.4111L218.676 30.3751C219.412 30.3572 220.149 30.3572 220.867 30.3572L220.849 26.6747L216.287 26.6567C214.724 26.6567 213.179 26.6028 211.616 26.5849C211.616 27.2136 211.58 27.8423 211.58 28.489L211.526 30.5188ZM220.867 30.3572V30.5188L221.029 30.3572C220.981 30.3572 220.927 30.3572 220.867 30.3572ZM220.849 26.6747H221.029L220.849 26.4951V26.6747ZM211.616 26.5849C211.616 26.5609 211.616 26.531 211.616 26.4951L211.526 26.5849C211.55 26.5849 211.58 26.5849 211.616 26.5849Z" fill="#EBEBEB"/>
<path d="M147.595 148.538H138.075V152.561H147.595V148.538Z" fill="#EBEBEB"/>
<path fill-rule="evenodd" clip-rule="evenodd" d="M86.1069 128.149L86.1608 130.143C86.1608 130.808 86.1967 131.491 86.1967 132.173V132.263H86.1069C84.5082 132.281 82.9274 132.317 81.3466 132.317L76.5864 132.353H76.4067V132.173L76.4247 128.149V127.988H76.5864C77.3947 127.988 78.1851 127.988 78.9935 128.006L81.3826 128.042L86.1069 128.149ZM86.1069 128.149L81.3107 128.257L78.9575 128.293C78.221 128.311 77.4845 128.311 76.766 128.311L76.784 131.994L81.3466 132.012C82.9094 132.012 84.4543 132.047 86.0171 132.083C86.0171 131.455 86.053 130.826 86.053 130.179L86.1069 128.149ZM76.766 128.311V128.149L76.6043 128.311C76.6522 128.311 76.7061 128.311 76.766 128.311ZM76.784 131.994H76.6043L76.784 132.173V131.994ZM86.0171 132.083C86.0171 132.107 86.0171 132.137 86.0171 132.173L86.1069 132.083C86.083 132.083 86.053 132.083 86.0171 132.083Z" fill="#EBEBEB"/>
<path fill-rule="evenodd" clip-rule="evenodd" d="M142.278 143.472L142.332 145.466C142.35 146.131 142.368 146.813 142.386 147.496V147.586L142.278 147.604C140.697 147.622 139.116 147.658 137.518 147.658L132.775 147.676H132.596V147.496L132.614 143.472V143.311H132.775C133.566 143.329 134.374 143.329 135.164 143.329L137.572 143.382L142.278 143.472ZM142.278 143.472L137.482 143.562L135.111 143.616C134.374 143.616 133.656 143.616 132.919 143.634L132.937 147.316L137.518 147.334C139.062 147.334 140.625 147.37 142.17 147.388C142.188 146.76 142.206 146.131 142.224 145.502L142.278 143.472ZM132.919 143.634V143.472L132.757 143.634C132.817 143.634 132.871 143.634 132.919 143.634ZM132.937 147.316H132.757L132.937 147.496V147.316ZM142.17 147.388C142.17 147.424 142.17 147.454 142.17 147.478L142.278 147.388C142.242 147.388 142.206 147.388 142.17 147.388Z" fill="#EBEBEB"/>
<path fill-rule="evenodd" clip-rule="evenodd" d="M210.017 108.677V162.926H177.216V108.677H210.017ZM207.053 128.778H180.198V142.915H207.053V128.778ZM207.053 111.282H180.198V125.401H207.053V111.282Z" fill="#DBDBDB"/>
<path d="M224.855 162.926H210.017V108.677H224.855V162.926Z" fill="#EBEBEB"/>
<path d="M186.575 125.419H180.198V111.3H186.575V125.419Z" fill="#EBEBEB"/>
<path d="M207.035 159.531H180.36V146.059H207.035V159.531Z" stroke="#EBEBEB" stroke-miterlimit="10"/>
<path d="M196.347 151.789H191.048V149.849H196.347V151.789Z" fill="#EBEBEB"/>
<path d="M186.575 142.915H180.198V128.778H186.575V142.915Z" fill="#EBEBEB"/>
<path d="M198.88 142.915V129.892H203.371V142.915H198.88Z" fill="#A6A6A6"/>
<path d="M198.88 140.814V138.012H203.371V140.814H198.88Z" fill="#DBDBDB"/>
<path d="M198.88 135.748V134.078H203.371V135.748H198.88Z" fill="#DBDBDB"/>
<path d="M199.365 125.419H188.03V114.515H199.365V125.419Z" fill="#EBEBEB"/>
<path d="M203.676 125.419H199.365V114.515H203.676V125.419Z" fill="#C7C7C7"/>
<path d="M188.03 119.976H199.365L190.509 120.246L188.03 119.976Z" fill="#C7C7C7"/>
<path d="M199.365 124.107H188.03L196.886 124.377L199.365 124.107Z" fill="#C7C7C7"/>
<path d="M188.03 116.922H195.216L188.821 117.156L188.03 116.922Z" fill="#C7C7C7"/>
<path d="M199.365 122.491H192.18L198.575 122.724L199.365 122.491Z" fill="#C7C7C7"/>
<path d="M190.743 115.719H198.844L197.497 115.844L190.743 115.719Z" fill="#C7C7C7"/>
<path d="M189.126 121.144H197.227L195.88 121.269L189.126 121.144Z" fill="#C7C7C7"/>
<path d="M194.102 117.964H199.365L200.299 118.323L194.102 117.964Z" fill="#EBEBEB"/>
<path d="M186.575 117.964H191.838L192.773 118.323L186.575 117.964Z" fill="#EBEBEB"/>
<path d="M193.329 122.868H188.066L187.132 123.227L193.329 122.868Z" fill="#EBEBEB"/>
<path d="M199.365 121.611H203.587L204.521 121.988L199.365 121.611Z" fill="#C7C7C7"/>
<path d="M200.838 119.976H204.107L203.676 119.67L200.838 119.976Z" fill="#C7C7C7"/>
<path d="M207.036 142.915H203.371V129.012H207.036V142.915Z" fill="#EBEBEB"/>
<path d="M205.203 131.76C204.79 131.76 204.449 131.419 204.449 130.988C204.449 130.575 204.79 130.233 205.203 130.233C205.634 130.233 205.976 130.575 205.976 130.988C205.976 131.419 205.634 131.76 205.203 131.76Z" fill="white"/>
<path d="M205.203 131.437C204.97 131.437 204.772 131.239 204.772 130.988C204.772 130.754 204.97 130.557 205.203 130.557C205.455 130.557 205.634 130.754 205.634 130.988C205.634 131.239 205.455 131.437 205.203 131.437Z" fill="#A6A6A6"/>
<path d="M203.371 140.724V137.347H207.036V140.724H203.371Z" fill="white"/>
<path d="M184.995 142.933V140.041H198.88V142.933H184.995Z" fill="#C7C7C7"/>
<path d="M196.15 141.478C196.15 141.065 196.491 140.724 196.904 140.724C197.335 140.724 197.677 141.065 197.677 141.478C197.677 141.909 197.335 142.251 196.904 142.251C196.491 142.251 196.15 141.909 196.15 141.478Z" fill="white"/>
<path d="M196.473 141.478C196.473 141.244 196.671 141.047 196.904 141.047C197.156 141.047 197.335 141.244 197.335 141.478C197.335 141.729 197.156 141.927 196.904 141.927C196.671 141.927 196.473 141.729 196.473 141.478Z" fill="#A6A6A6"/>
<path d="M187.186 140.041H190.563V142.933H187.186V140.041Z" fill="white"/>
<path d="M222.017 82.3427C222.07 91.6657 214.652 99.354 205.436 99.4977C196.203 99.6594 188.695 92.2046 188.623 82.8816C188.569 73.5587 195.988 65.8704 205.203 65.7267C214.418 65.565 221.945 73.0018 222.017 82.3427Z" fill="#EBEBEB"/>
<path d="M218.334 82.3968C218.388 89.6719 212.586 95.6716 205.401 95.7794C198.215 95.9051 192.341 90.103 192.306 82.8279C192.252 75.5527 198.036 69.553 205.239 69.4273C212.424 69.3195 218.298 75.1216 218.334 82.3968Z" fill="white"/>
<path d="M214.705 82.4507C214.741 87.696 210.556 92.0252 205.383 92.115C200.191 92.1868 195.97 88.0014 195.934 82.7561C195.898 77.5108 200.065 73.1996 205.257 73.1098C210.448 73.02 214.67 77.2054 214.705 82.4507Z" fill="#EBEBEB"/>
<path d="M211.041 82.5223C211.059 85.7018 208.508 88.3425 205.346 88.3963C202.203 88.4502 199.616 85.8994 199.598 82.702C199.58 79.5045 202.131 76.8819 205.275 76.828C208.436 76.7741 211.005 79.3249 211.041 82.5223Z" fill="white"/>
<path d="M207.862 82.5761C207.88 83.9952 206.748 85.1628 205.329 85.1808C203.928 85.1988 202.778 84.0671 202.778 82.648C202.76 81.2289 203.892 80.0613 205.293 80.0433C206.712 80.0074 207.862 81.1391 207.862 82.5761Z" fill="#EBEBEB"/>
<path d="M205.185 82.6663L180.719 69.8765L180.845 69.625L205.311 82.4149L205.185 82.6663Z" fill="#C7C7C7"/>
<path d="M179.677 70.3252L179.749 70.2893L180.863 69.948L178.653 68.7983L177.468 69.1576L179.677 70.3252Z" fill="#C7C7C7"/>
<path d="M178.384 67.3794L178.797 68.547L181.006 69.6967C180.827 69.3374 180.701 68.9422 180.611 68.529L178.384 67.3794Z" fill="#C7C7C7"/>
<path d="M205.85 82.325L205.383 83.1513L204.161 83.0435L204.969 82.3969L205.059 81.355L205.85 82.325Z" fill="#C7C7C7"/>
<path d="M123.452 116.168C123.721 117.569 123.201 118.934 122.231 119.832L118.063 120.623C116.824 120.138 115.854 119.042 115.602 117.623C115.189 115.449 116.626 113.365 118.8 112.97C120.955 112.557 123.039 113.994 123.452 116.168Z" fill="#EBEBEB"/>
<path d="M124.314 119.455L124.53 120.659L116.213 122.203L115.979 121L124.314 119.455Z" fill="#EBEBEB"/>
<path d="M131.877 136.394L115.01 139.538L114.794 138.334L131.661 135.191L131.877 136.394Z" fill="#DBDBDB"/>
<path d="M132.506 139.753L115.638 142.897L115.423 141.693L132.29 138.55L132.506 139.753Z" fill="#DBDBDB"/>
<path d="M131.661 138.676L116.051 141.586L115.638 139.412L131.266 136.502L131.661 138.676Z" fill="#EBEBEB"/>
<path d="M123.775 120.784L123.991 121.988L117.201 123.263L116.967 122.06L123.775 120.784Z" fill="#DBDBDB"/>
<path d="M130.135 135.478L116.321 138.047C116.321 138.047 118.89 134.31 118.836 130.412C118.8 127.143 118.315 123.047 118.315 123.047L122.877 122.203C122.877 122.203 123.883 126.191 125.033 129.263C126.398 132.909 130.135 135.478 130.135 135.478Z" fill="#EBEBEB"/>
<path d="M140.446 175.356C140.446 177.243 125.644 178.752 107.393 178.752C89.1245 178.752 74.3228 177.243 74.3228 175.356C74.3228 173.488 89.1245 171.961 107.393 171.961C125.644 171.961 140.446 173.488 140.446 175.356Z" fill="#EBEBEB"/>
<path d="M72.7778 162.926L91.801 162.836L110.806 162.818L148.816 162.747L186.827 162.8L205.85 162.836L224.855 162.926L205.85 163.016L186.827 163.052L148.816 163.106L110.806 163.052L91.801 163.016L72.7778 162.926Z" fill="#263238"/>
<path d="M83.6816 49.5419C83.6816 46.7935 84.0948 44.0272 84.993 41.4225C85.9091 38.8178 87.2563 36.3568 88.9988 34.2012C90.7232 32.0456 92.825 30.1775 95.1781 28.7224C97.5493 27.2674 100.154 26.2076 102.866 25.6328C104.232 25.3633 105.597 25.1837 106.98 25.1298C107.339 25.1298 107.681 25.1118 108.022 25.1118L109.064 25.1477C109.764 25.1657 110.447 25.2555 111.13 25.3453C113.878 25.6866 116.572 26.5309 119.015 27.8063C121.476 29.0817 123.74 30.7523 125.608 32.7821C127.476 34.812 129.021 37.1472 130.117 39.6621C127.799 34.6683 123.812 30.5008 118.89 28.0578C117.686 27.4291 116.393 26.9441 115.099 26.513C114.435 26.3333 113.788 26.1537 113.106 26.01L112.1 25.8124L111.597 25.7226C111.435 25.7046 111.255 25.6866 111.094 25.6687C110.411 25.5968 109.728 25.489 109.046 25.489L108.022 25.4531C107.681 25.4531 107.339 25.4711 106.998 25.4711C105.633 25.5429 104.268 25.7046 102.938 25.992C100.262 26.5489 97.693 27.5907 95.3578 28.9919C93.0225 30.4289 90.9568 32.2612 89.1964 34.3629C85.7295 38.6022 83.7535 44.0451 83.6816 49.5419Z" fill="#263238"/>
<path d="M87.4541 31.7044C88.5858 30.2314 89.9151 28.9022 91.3701 27.7166C92.8251 26.549 94.4418 25.561 96.1304 24.7526C97.8189 23.9622 99.5973 23.3515 101.43 22.9743C101.897 22.9024 102.346 22.7946 102.813 22.7407C103.28 22.6689 103.747 22.615 104.196 22.5611L105.597 22.4893L106.998 22.5072L105.615 22.5791L104.232 22.7407C103.765 22.7946 103.316 22.8845 102.849 22.9563C102.4 23.0461 101.95 23.1539 101.501 23.2437C99.7051 23.6748 97.9447 24.2856 96.2741 25.076C94.6035 25.8484 93.0227 26.8364 91.5497 27.9321C90.0588 29.0459 88.7115 30.3213 87.4541 31.7044Z" fill="#263238"/>
<path d="M194.03 74.8164C199.473 73.9722 204.575 71.2238 208.239 67.1641C210.071 65.1342 211.598 62.817 212.658 60.2841C213.736 57.7693 214.383 55.0748 214.544 52.3444C214.634 50.9971 214.598 49.614 214.455 48.2667C214.419 47.9254 214.383 47.5841 214.329 47.2428L214.149 46.2369C214.041 45.5543 213.844 44.9076 213.682 44.2429C213.628 44.0813 213.592 43.9016 213.556 43.74L213.377 43.255L213.053 42.2849C212.802 41.6562 212.532 41.0275 212.245 40.3988C211.634 39.1773 210.988 37.9737 210.179 36.86C207.054 32.3692 202.329 29.0101 197.066 27.4473C199.707 28.1658 202.239 29.3514 204.521 30.9142C206.82 32.477 208.778 34.4709 210.413 36.6984C212.029 38.9438 213.251 41.4766 213.987 44.1531C214.167 44.8178 214.365 45.4824 214.472 46.165L214.67 47.1889C214.724 47.5302 214.76 47.8715 214.796 48.2308C214.94 49.596 214.975 50.9971 214.904 52.3803C214.724 55.1467 214.059 57.8771 212.964 60.4279C211.868 62.9607 210.341 65.3139 208.455 67.3437C206.569 69.3736 204.323 71.0621 201.88 72.3375C199.419 73.6309 196.743 74.4392 194.03 74.8164Z" fill="#263238"/>
<path d="M217.688 49.9016C217.634 48.0334 217.4 46.1832 216.987 44.3868C216.574 42.5905 215.981 40.8301 215.191 39.1595C214.436 37.471 213.484 35.8722 212.371 34.3992C212.083 34.022 211.814 33.6627 211.526 33.3035C211.221 32.9442 210.916 32.6029 210.61 32.2616L209.658 31.2557L208.634 30.2856L209.712 31.1838L210.736 32.1359C211.059 32.4592 211.383 32.8185 211.688 33.1598C212.011 33.5011 212.299 33.8603 212.604 34.2196C213.754 35.6926 214.724 37.3093 215.532 38.9978C216.287 40.7044 216.897 42.5007 217.257 44.3329C217.616 46.1652 217.778 48.0334 217.688 49.9016Z" fill="#263238"/>
<path d="M177.019 80.0077C176.193 83.1333 174.881 86.1332 173.049 88.8097C171.235 91.4862 168.953 93.8754 166.331 95.7795C163.708 97.7015 160.762 99.1566 157.655 100.091C154.547 101.007 151.278 101.42 148.026 101.258C146.392 101.168 144.793 100.935 143.194 100.576C142.799 100.468 142.404 100.378 142.027 100.288L140.859 99.911C140.069 99.6955 139.332 99.3901 138.56 99.0847C138.38 99.0129 138.182 98.941 138.003 98.8692L137.446 98.5997L136.35 98.0608C135.991 97.8991 135.65 97.6656 135.29 97.468C134.949 97.2704 134.59 97.0728 134.248 96.8573C132.883 95.9591 131.572 95.0071 130.386 93.8933L129.488 93.067L128.662 92.1868C128.087 91.612 127.602 90.9653 127.081 90.3366C126.812 90.0312 126.596 89.6899 126.363 89.3666L125.662 88.3606L125.033 87.3188C124.818 86.9775 124.602 86.6362 124.423 86.2769C122.914 83.4028 121.89 80.2951 121.387 77.0977C122.482 83.4746 125.752 89.4384 130.566 93.6957C131.752 94.7735 133.063 95.7076 134.41 96.5878C134.751 96.8034 135.111 97.001 135.452 97.1986C135.793 97.3962 136.135 97.6117 136.512 97.7914L137.59 98.2943L138.129 98.5638C138.308 98.6356 138.506 98.7075 138.685 98.7793C139.44 99.0667 140.176 99.3901 140.949 99.6056L142.116 99.947C142.494 100.055 142.889 100.145 143.284 100.234C144.847 100.594 146.446 100.809 148.044 100.899C151.242 101.079 154.475 100.683 157.565 99.7853C160.636 98.8692 163.547 97.4141 166.169 95.5639C171.414 91.8096 175.295 86.241 177.019 80.0077Z" fill="#263238"/>
<path d="M167.319 99.0845C165.594 100.414 163.672 101.51 161.678 102.39C159.666 103.27 157.547 103.899 155.391 104.312C153.236 104.689 151.026 104.833 148.835 104.707C148.296 104.671 147.739 104.635 147.2 104.581C146.661 104.491 146.104 104.438 145.565 104.348C145.026 104.24 144.505 104.132 143.967 104.006L142.386 103.593L143.984 103.917C144.523 104.006 145.062 104.078 145.601 104.168C146.14 104.24 146.679 104.294 147.218 104.348C147.757 104.402 148.296 104.402 148.853 104.438C151.008 104.509 153.2 104.348 155.319 103.953C157.457 103.575 159.559 102.947 161.571 102.138C163.582 101.312 165.504 100.288 167.319 99.0845Z" fill="#263238"/>
<path d="M169.312 73.3072C169.097 75.373 168.558 77.3489 167.768 79.1812L171.414 81.7858L169.528 85.0552L165.45 83.2049C164.247 84.8396 162.81 86.2946 161.175 87.5161L163.025 91.6118L159.756 93.4799L157.151 89.8514C155.319 90.6597 153.361 91.1986 151.295 91.4501L150.846 95.905H147.092L146.643 91.4501C144.577 91.2345 142.601 90.6956 140.769 89.9053L138.164 93.5518L134.895 91.6656L136.727 87.588C135.092 86.3844 133.655 84.9474 132.434 83.3127L128.338 85.1629L126.47 81.8936L130.099 79.2889C129.29 77.4567 128.751 75.4987 128.5 73.4329L124.045 72.9838V69.2295L128.5 68.7804C128.715 66.7146 129.254 64.7387 130.045 62.9064L126.398 60.3018L128.284 57.0324L132.362 58.8827C133.565 57.23 135.003 55.793 136.637 54.5715L134.787 50.4938L138.056 48.6077L140.661 52.2362C142.493 51.4279 144.451 50.871 146.517 50.6375L146.966 46.1826H150.72L151.169 50.6375C153.235 50.8531 155.211 51.392 157.043 52.1824L159.648 48.5358L162.917 50.422L161.085 54.4996C162.72 55.7032 164.157 57.1402 165.378 58.7749L169.474 56.9247L171.342 60.194L167.714 62.7987C168.522 64.6309 169.061 66.5889 169.294 68.6547L173.767 69.1038V72.8761L169.312 73.3072Z" fill="#9E83B9"/>
<path d="M124.207 54.2481C123.794 56.4396 122.931 58.4875 121.746 60.2838L124.404 63.5531L120.255 67.4871L117.309 64.8285C115.459 66.1039 113.357 67.02 111.094 67.4691L110.68 71.4031L104.968 71.2594L104.771 67.523C102.417 67.1098 100.244 66.1937 98.3397 64.8824L95.4296 67.2535L91.4957 63.104L93.9207 60.4275C92.6094 58.5054 91.7112 56.2959 91.2981 53.9248L87.5977 53.5296L87.7414 47.8173L91.4238 47.6197C91.9088 45.3024 92.8789 43.1648 94.2081 41.3146L91.7472 38.2788L95.8967 34.3448L98.8067 36.9675C100.675 35.7998 102.777 34.9556 105.04 34.5963L105.471 30.4468L111.183 30.5905L111.399 34.758C113.555 35.225 115.566 36.1232 117.309 37.3447L120.722 34.5963L124.656 38.7458L121.764 41.9253C122.931 43.7037 123.776 45.6976 124.189 47.8532L128.554 48.3023L128.41 54.0326L124.207 54.2481Z" fill="#2C3A40"/>
<path fill-rule="evenodd" clip-rule="evenodd" d="M110.088 56.6192L105.848 56.5833L105.83 56.5114C105.83 56.4935 105.543 55.0564 105.327 54.5175C105.219 54.2121 104.896 53.9247 104.519 53.5834C103.621 52.7571 102.274 51.5356 101.986 48.7693C101.806 47.1705 102.471 45.3023 103.657 43.991C104.447 43.1108 105.866 42.0869 108.094 42.0869C110.321 42.1049 111.722 43.1827 112.513 44.0808C113.662 45.4101 114.291 47.2963 114.093 48.877C113.752 51.6434 112.369 52.8469 111.471 53.6373C111.076 53.9966 110.752 54.266 110.644 54.5534C110.411 55.1103 110.106 56.5294 110.106 56.5474L110.088 56.6192ZM105.992 56.4037L109.944 56.4396C109.998 56.1342 110.267 54.9846 110.465 54.4995C110.608 54.1582 110.932 53.8708 111.345 53.5116C112.279 52.6853 113.572 51.5536 113.914 48.8591C114.111 47.3142 113.501 45.482 112.369 44.1886C111.614 43.3264 110.249 42.2845 108.094 42.2665C105.938 42.2486 104.555 43.2725 103.782 44.1168C102.633 45.3922 101.986 47.2064 102.166 48.7513C102.453 51.4458 103.711 52.5954 104.627 53.4397C105.04 53.8169 105.363 54.1044 105.489 54.4457C105.687 54.9486 105.92 56.0983 105.992 56.4037Z" fill="white"/>
<path d="M106.89 56.5292L105.74 50.0085L105.992 49.9546L107.159 56.4753L106.89 56.5292Z" fill="white"/>
<path d="M109.171 56.5473L108.902 56.4934L110.177 49.9907L110.447 50.0446L109.171 56.5473Z" fill="white"/>
<path fill-rule="evenodd" clip-rule="evenodd" d="M108.075 52.1821C107.68 52.1821 107.357 51.8408 107.123 51.4097C107.016 51.5175 106.89 51.5893 106.782 51.5714C106.153 51.5714 105.92 50.296 105.902 50.2421L106.028 50.2241C106.099 50.5654 106.351 51.4456 106.782 51.4456C106.872 51.4456 106.962 51.3917 107.052 51.266C106.872 50.8708 106.764 50.4397 106.764 50.1163C106.764 49.7571 106.908 49.5415 107.159 49.5415C107.303 49.5595 107.429 49.6134 107.501 49.7571C107.698 50.0804 107.537 50.745 107.303 51.1582C107.267 51.2061 107.237 51.248 107.213 51.2839C107.429 51.7151 107.734 52.0384 108.075 52.0564C108.363 52.0564 108.632 51.7869 108.83 51.4097C108.596 51.1402 108.471 50.7271 108.471 50.3139C108.471 49.8469 108.65 49.5595 108.938 49.5595C109.171 49.5595 109.297 49.793 109.297 50.1882C109.297 50.5295 109.189 50.9965 108.992 51.3917C109.099 51.4995 109.225 51.5534 109.387 51.5534C109.746 51.5534 110.087 50.6732 110.177 50.3319L110.303 50.3678C110.267 50.5115 109.908 51.6971 109.387 51.6971C109.207 51.6791 109.063 51.6252 108.92 51.5175C108.722 51.8947 108.417 52.1821 108.075 52.1821ZM108.938 49.7032C108.686 49.7032 108.596 50.0265 108.596 50.3139C108.596 50.6193 108.686 51.0325 108.902 51.2839C109.063 50.9426 109.153 50.5295 109.153 50.1882C109.153 50.0445 109.135 49.7032 108.938 49.7032ZM107.159 49.6852C106.944 49.6852 106.908 49.9187 106.908 50.1163C106.908 50.4217 106.998 50.7989 107.141 51.1582C107.153 51.1342 107.165 51.1163 107.177 51.1043C107.411 50.7271 107.537 50.0984 107.393 49.811C107.333 49.7271 107.255 49.6852 107.159 49.6852Z" fill="white"/>
<path fill-rule="evenodd" clip-rule="evenodd" d="M110.573 57.4277L105.345 57.3917V56.2241L110.59 56.26L110.573 57.4277ZM105.525 57.2121L110.393 57.248V56.4397L105.525 56.4038V57.2121Z" fill="white"/>
<path fill-rule="evenodd" clip-rule="evenodd" d="M110.554 58.5775L105.327 58.5236L105.345 57.356L110.572 57.4099L110.554 58.5775ZM105.507 58.3619L110.375 58.3978L110.393 57.5895L105.507 57.5536V58.3619Z" fill="white"/>
<path fill-rule="evenodd" clip-rule="evenodd" d="M110.554 59.7269L105.327 59.673V58.5054L110.554 58.5593V59.7269ZM105.507 59.4934L110.393 59.5472V58.7389L105.525 58.685L105.507 59.4934Z" fill="white"/>
<path fill-rule="evenodd" clip-rule="evenodd" d="M157.098 64.5952L153.541 61.5594L153.595 61.5055C153.631 61.4516 154.457 60.2121 155.661 60.0505C156.253 59.9786 156.828 60.1582 157.349 60.6253C157.888 61.0744 158.176 61.6133 158.194 62.206C158.247 63.4455 157.188 64.4874 157.152 64.5413L157.098 64.5952ZM153.793 61.5414L157.08 64.3437C157.295 64.1102 158.068 63.212 158.032 62.206C157.996 61.6671 157.744 61.1821 157.241 60.751C156.756 60.3199 156.236 60.1582 155.697 60.2301C154.727 60.3558 153.972 61.272 153.793 61.5414Z" fill="white"/>
<path d="M143.679 80.8518L143.535 80.726L157.044 64.3974L153.757 61.5951L140.248 77.9238L140.104 77.816L153.721 61.3257L157.295 64.3615L157.223 64.4333L143.679 80.8518Z" fill="white"/>
<path fill-rule="evenodd" clip-rule="evenodd" d="M156.99 65.3136L152.858 61.7928L153.523 61.0024L157.655 64.5232L156.99 65.3136ZM153.092 61.7749L156.954 65.0621L157.385 64.5412L153.523 61.2539L153.092 61.7749Z" fill="white"/>
<path fill-rule="evenodd" clip-rule="evenodd" d="M156.397 66.0324L152.266 62.5116L152.912 61.7212L157.062 65.242L156.397 66.0324ZM152.499 62.4936L156.361 65.7809L156.792 65.26L152.93 61.9727L152.499 62.4936Z" fill="white"/>
<path fill-rule="evenodd" clip-rule="evenodd" d="M139.602 82.0913L140.122 77.8699H140.194C140.248 77.8519 140.608 77.798 140.841 77.7621L140.949 77.7441V78.4088L141.613 78.301V78.9836L142.278 78.8579V79.5405L142.925 79.4327L142.943 80.0973C143.122 80.0794 143.482 80.0075 143.5 80.0075L143.589 79.9896L143.607 80.8338L139.602 82.0913ZM140.284 78.0316L139.817 81.8398L140.625 81.5883L143.428 80.726V80.2051C143.23 80.241 142.871 80.3129 142.871 80.3129L142.763 80.3309V79.6482L142.098 79.756V79.0914L141.434 79.1992V78.5166L140.769 78.6243V77.9597C140.5 77.9956 140.356 78.0316 140.284 78.0316Z" fill="white"/>
<path fill-rule="evenodd" clip-rule="evenodd" d="M139.655 81.9654L139.871 80.2769L141.29 81.4624L139.655 81.9654ZM139.997 80.6182L139.871 81.7139L140.913 81.3906L139.997 80.6182Z" fill="white"/>
<path d="M141.955 77.6547C142.817 76.4691 143.715 75.3015 144.613 74.1518C145.511 73.0022 146.445 71.8705 147.38 70.7208C148.314 69.6071 149.248 68.4754 150.218 67.3797C151.188 66.2659 152.158 65.1702 153.164 64.1104C152.301 65.2959 151.403 66.4635 150.505 67.6132C149.589 68.7628 148.655 69.8945 147.739 71.0442C146.787 72.1579 145.871 73.2896 144.901 74.3854C143.931 75.4991 142.961 76.5948 141.955 77.6547Z" fill="white"/>
<path d="M143.518 78.9481C144.362 77.7625 145.26 76.5949 146.176 75.4453C147.074 74.2956 148.008 73.1639 148.925 72.0143C149.877 70.9006 150.811 69.7689 151.781 68.6731C152.733 67.5594 153.703 66.4636 154.709 65.4038C153.864 66.5894 152.966 67.757 152.05 68.9066C151.152 70.0563 150.218 71.188 149.302 72.3197C148.35 73.4514 147.416 74.583 146.464 75.6788C145.494 76.7925 144.524 77.8883 143.518 78.9481Z" fill="white"/>
<path d="M205.688 54.2481C205.275 56.4396 204.413 58.4875 203.227 60.2838L205.886 63.5531L201.736 67.4871L198.79 64.8285C196.958 66.1039 194.838 67.02 192.575 67.4691L192.162 71.4031L186.45 71.2594L186.27 67.523C183.899 67.1098 181.725 66.1937 179.839 64.8824L176.911 67.2535L172.977 63.104L175.402 60.4275C174.091 58.5054 173.193 56.2959 172.78 53.9248L169.079 53.5296L169.223 47.8173L172.905 47.6197C173.39 45.3024 174.36 43.1648 175.69 41.3146L173.229 38.2788L177.378 34.3448L180.288 36.9675C182.156 35.7998 184.258 34.9556 186.521 34.5963L186.953 30.4468L192.665 30.5905L192.88 34.758C195.054 35.225 197.048 36.1232 198.808 37.3447L202.203 34.5963L206.137 38.7458L203.263 41.9253C204.413 43.7037 205.257 45.6976 205.67 47.8532L210.035 48.3023L209.892 54.0326L205.688 54.2481Z" fill="#2C3A40"/>
<path fill-rule="evenodd" clip-rule="evenodd" d="M184.869 60.6431H184.007V43.7217H184.869V60.6431ZM184.186 60.4635H184.689V43.9013H184.186V60.4635Z" fill="white"/>
<path fill-rule="evenodd" clip-rule="evenodd" d="M196.707 52.2724H184.689V44.0991H196.707L192.611 48.1948L196.707 52.2724ZM184.887 52.0928H196.276L192.36 48.1768L196.276 44.2788H184.887V52.0928Z" fill="white"/>
<path d="M186.719 115.072H110.914V110.276H186.719V115.072Z" fill="white"/>
<path fill-rule="evenodd" clip-rule="evenodd" d="M186.719 115.072L110.914 115.198H110.788V115.072L110.77 110.276V110.15H110.914L148.816 110.186L186.719 110.258H186.737V110.276L186.719 115.072ZM186.719 115.072L186.701 110.312L148.816 110.383L111.039 110.419V114.946L186.719 115.072ZM111.039 110.401V110.276L110.896 110.401H111.039ZM111.039 114.928H110.914L111.039 115.054V114.928Z" fill="#263238"/>
<path d="M160.888 114.228H111.83V111.12H160.888V114.228Z" fill="#9E83B9"/>
<path opacity="0.1" d="M116.77 111.12H114.219L111.83 114.228H114.381L116.77 111.12Z" fill="black"/>
<path opacity="0.1" d="M121.674 111.12H119.123L116.734 114.228H119.267L121.674 111.12Z" fill="black"/>
<path opacity="0.1" d="M126.578 111.12H124.027L121.638 114.228H124.171L126.578 111.12Z" fill="black"/>
<path opacity="0.1" d="M131.482 111.12H128.931L126.542 114.228H129.075L131.482 111.12Z" fill="black"/>
<path opacity="0.1" d="M136.386 111.12H133.835L131.446 114.228H133.979L136.386 111.12Z" fill="black"/>
<path opacity="0.1" d="M141.272 111.12H138.739L136.35 114.228H138.883L141.272 111.12Z" fill="black"/>
<path opacity="0.1" d="M146.176 111.12H143.643L141.254 114.228H143.787L146.176 111.12Z" fill="black"/>
<path opacity="0.1" d="M151.08 111.12H148.547L146.158 114.228H148.691L151.08 111.12Z" fill="black"/>
<path opacity="0.1" d="M155.984 111.12H153.451L151.062 114.228H153.595L155.984 111.12Z" fill="black"/>
<path opacity="0.1" d="M160.888 111.138V111.12H158.355L155.948 114.228H158.499L160.888 111.138Z" fill="black"/>
<path opacity="0.1" d="M160.887 114.227V114.192L160.852 114.227H160.887Z" fill="black"/>
<path fill-rule="evenodd" clip-rule="evenodd" d="M142.332 118.215H141.99V118.826C141.99 118.898 141.937 118.97 141.847 118.97C141.757 118.97 141.685 118.898 141.685 118.826V117.192C141.685 117.102 141.757 117.048 141.847 117.048H142.332C142.673 117.048 142.925 117.299 142.925 117.641C142.925 117.964 142.673 118.215 142.332 118.215ZM141.99 117.91H142.332C142.493 117.91 142.619 117.784 142.619 117.641C142.619 117.479 142.493 117.353 142.332 117.353H141.99V117.91Z" fill="black"/>
<path fill-rule="evenodd" clip-rule="evenodd" d="M144.577 118.736C144.595 118.826 144.559 118.898 144.469 118.934C144.457 118.934 144.439 118.934 144.415 118.934C144.379 118.934 144.343 118.934 144.307 118.916C144.272 118.898 144.236 118.862 144.218 118.808C144.182 118.736 144.164 118.629 144.164 118.485C144.164 118.431 144.146 118.395 144.128 118.359C144.11 118.341 144.074 118.305 144.038 118.287C143.984 118.251 143.912 118.233 143.894 118.215H143.571V118.826C143.571 118.898 143.499 118.97 143.409 118.97C143.32 118.97 143.266 118.898 143.266 118.826V117.192C143.266 117.102 143.32 117.048 143.409 117.048H143.894C144.236 117.048 144.487 117.299 144.487 117.641C144.487 117.82 144.415 117.982 144.272 118.09C144.307 118.114 144.343 118.144 144.379 118.18C144.433 118.269 144.469 118.377 144.469 118.485C144.469 118.575 144.469 118.629 144.469 118.647C144.523 118.665 144.559 118.7 144.577 118.736ZM144.182 117.641C144.182 117.479 144.056 117.353 143.894 117.353H143.571V117.91H143.894C144.056 117.91 144.182 117.784 144.182 117.641Z" fill="black"/>
<path fill-rule="evenodd" clip-rule="evenodd" d="M146.481 117.282C146.661 117.461 146.768 117.713 146.768 117.982C146.768 118.252 146.661 118.503 146.481 118.683C146.319 118.862 146.086 118.97 145.834 118.97C145.565 118.97 145.331 118.862 145.152 118.683C144.99 118.503 144.882 118.252 144.882 117.982C144.882 117.713 144.99 117.461 145.152 117.282C145.331 117.102 145.565 116.994 145.834 116.994C146.086 116.994 146.319 117.102 146.481 117.282ZM146.445 117.982C146.445 117.785 146.373 117.623 146.265 117.497C146.158 117.371 145.996 117.3 145.834 117.3C145.655 117.3 145.493 117.371 145.385 117.497C145.26 117.623 145.206 117.785 145.206 117.982C145.206 118.162 145.26 118.341 145.385 118.467C145.493 118.575 145.655 118.665 145.834 118.665C145.996 118.665 146.158 118.575 146.265 118.467C146.373 118.341 146.445 118.162 146.445 117.982Z" fill="black"/>
<path d="M147.146 117.982C147.146 117.443 147.595 116.994 148.152 116.994C148.385 116.994 148.619 117.066 148.781 117.21C148.853 117.264 148.853 117.353 148.817 117.425C148.763 117.497 148.655 117.497 148.583 117.461C148.475 117.353 148.314 117.3 148.152 117.3C147.954 117.3 147.775 117.371 147.649 117.497C147.523 117.623 147.451 117.785 147.451 117.982C147.451 118.162 147.523 118.341 147.649 118.467C147.775 118.575 147.954 118.665 148.152 118.665C148.32 118.653 148.463 118.599 148.583 118.503C148.655 118.467 148.763 118.467 148.817 118.539C148.853 118.611 148.853 118.701 148.781 118.755C148.619 118.898 148.385 118.97 148.152 118.97C147.595 118.97 147.146 118.521 147.146 117.982Z" fill="black"/>
<path d="M149.337 118.826V117.192C149.337 117.102 149.409 117.048 149.499 117.048H150.397C150.469 117.048 150.541 117.102 150.541 117.192C150.541 117.281 150.469 117.353 150.397 117.353H149.643V117.856H150.289C150.379 117.856 150.433 117.928 150.433 118C150.433 118.09 150.379 118.162 150.289 118.162H149.643V118.665H150.397C150.469 118.665 150.541 118.736 150.541 118.826C150.541 118.898 150.469 118.97 150.397 118.97H149.499C149.409 118.97 149.337 118.898 149.337 118.826Z" fill="black"/>
<path d="M150.918 118.485C150.954 118.431 151.062 118.431 151.116 118.467C151.242 118.575 151.439 118.683 151.637 118.683C151.781 118.683 151.906 118.647 151.978 118.575C152.068 118.521 152.104 118.449 152.104 118.377C152.104 118.341 152.086 118.323 152.086 118.287C152.062 118.264 152.032 118.24 151.996 118.216C151.906 118.162 151.781 118.108 151.619 118.09C151.475 118.054 151.367 118.018 151.26 117.982C151.152 117.928 151.062 117.856 151.008 117.767C150.96 117.695 150.936 117.617 150.936 117.533C150.936 117.371 151.026 117.228 151.152 117.138C151.296 117.048 151.457 116.994 151.637 116.994C151.906 116.994 152.086 117.12 152.23 117.21C152.301 117.246 152.319 117.335 152.266 117.407C152.23 117.479 152.14 117.497 152.086 117.443C151.942 117.353 151.798 117.264 151.637 117.264C151.511 117.264 151.403 117.3 151.331 117.371C151.26 117.425 151.224 117.479 151.224 117.533C151.224 117.569 151.224 117.587 151.242 117.605C151.254 117.629 151.278 117.653 151.313 117.677C151.385 117.731 151.511 117.785 151.655 117.802H151.673C151.804 117.826 151.93 117.868 152.05 117.928C152.158 117.982 152.248 118.054 152.319 118.144C152.355 118.216 152.391 118.305 152.391 118.377C152.391 118.557 152.283 118.719 152.158 118.808C152.014 118.916 151.834 118.97 151.637 118.97C151.349 118.97 151.098 118.808 150.936 118.701C150.882 118.647 150.864 118.557 150.918 118.485Z" fill="black"/>
<path d="M152.715 118.485C152.768 118.431 152.858 118.431 152.912 118.467C153.038 118.575 153.253 118.683 153.451 118.683C153.577 118.683 153.702 118.647 153.792 118.575C153.864 118.521 153.9 118.449 153.9 118.377C153.9 118.341 153.9 118.323 153.882 118.287C153.87 118.264 153.84 118.24 153.792 118.216C153.72 118.162 153.595 118.108 153.433 118.09H153.415C153.289 118.054 153.164 118.018 153.056 117.982C152.966 117.928 152.876 117.856 152.804 117.767C152.768 117.695 152.75 117.617 152.75 117.533C152.75 117.371 152.84 117.228 152.966 117.138C153.092 117.048 153.253 116.994 153.433 116.994C153.702 116.994 153.9 117.12 154.044 117.21C154.098 117.246 154.116 117.335 154.08 117.407C154.044 117.479 153.954 117.497 153.882 117.443C153.738 117.353 153.613 117.264 153.433 117.264C153.325 117.264 153.2 117.3 153.128 117.371C153.056 117.425 153.02 117.479 153.02 117.533C153.02 117.569 153.038 117.587 153.056 117.605C153.068 117.629 153.092 117.653 153.128 117.677C153.2 117.731 153.325 117.785 153.469 117.802C153.613 117.838 153.738 117.874 153.846 117.928C153.972 117.982 154.062 118.054 154.134 118.144C154.17 118.216 154.188 118.305 154.188 118.377C154.188 118.557 154.098 118.719 153.954 118.808C153.828 118.916 153.649 118.97 153.451 118.97C153.146 118.97 152.894 118.808 152.75 118.701C152.679 118.647 152.679 118.557 152.715 118.485Z" fill="black"/>
<path d="M154.762 118.575C154.87 118.575 154.96 118.665 154.96 118.79C154.96 118.898 154.87 118.988 154.762 118.988C154.637 118.988 154.547 118.898 154.547 118.79C154.547 118.665 154.637 118.575 154.762 118.575Z" fill="black"/>
<path d="M155.391 118.575C155.499 118.575 155.589 118.665 155.589 118.79C155.589 118.898 155.499 118.988 155.391 118.988C155.283 118.988 155.193 118.898 155.193 118.79C155.193 118.665 155.283 118.575 155.391 118.575Z" fill="black"/>
<path d="M156.02 118.575C156.128 118.575 156.235 118.665 156.235 118.79C156.235 118.898 156.128 118.988 156.02 118.988C155.912 118.988 155.822 118.898 155.822 118.79C155.822 118.665 155.912 118.575 156.02 118.575Z" fill="black"/>
<path d="M94.747 66.8585C95.8607 75.1575 99.5072 83.6541 100.872 84.9475C102.363 86.3486 109.818 87.0851 113.59 87.2647C114.83 87.3366 115.782 78.8579 114.794 77.9777C113.806 77.0975 107.393 78.0675 106.279 77.2592C105.938 76.9897 100.783 70.1817 98.0881 66.122C95.5913 62.3317 94.4057 64.3436 94.747 66.8585Z" fill="#F7A9A0"/>
<path d="M112.531 88.468L113.734 77.2589C113.734 77.2589 107.573 77.5463 106.8 76.9894C106.028 76.4505 100.154 68.2952 97.9444 65.4929C95.7349 62.6907 93.1482 62.7984 94.693 69.3371C96.3816 76.3966 98.7887 83.4562 100.28 84.9292C102.22 86.8872 112.531 88.468 112.531 88.468Z" fill="#2F4B53"/>
<path d="M110.195 87.2467C110.177 86.8515 110.249 86.4383 110.285 86.0431C110.321 85.6839 110.339 85.3246 110.375 84.9653C110.447 84.1929 110.519 83.4025 110.608 82.6301C110.68 81.8577 110.752 81.0673 110.842 80.2949C110.932 79.5225 110.986 78.7321 111.111 77.9776C111.111 77.9417 111.165 77.9417 111.165 77.9776C111.183 78.75 111.129 79.5404 111.093 80.3129C111.039 81.0853 110.986 81.8577 110.896 82.6122C110.824 83.3846 110.734 84.175 110.626 84.9474C110.572 85.3246 110.501 85.6839 110.447 86.0611C110.375 86.4563 110.357 86.8695 110.231 87.2467C110.231 87.2826 110.195 87.2826 110.195 87.2467Z" fill="#263238"/>
<path opacity="0.1" d="M107.483 87.5161C104.573 86.8695 101.285 85.9533 100.279 84.9294C98.7885 83.4564 96.3814 76.3969 94.6929 69.3373C93.7049 65.1698 94.4054 63.625 95.591 63.7507L107.483 87.5161Z" fill="black"/>
<path d="M115.207 63.1758C117.704 60.7328 121.261 60.0681 124.35 61.1459L119.141 66.2295L120.901 70.0377L124.674 71.9059L129.883 66.8044C130.889 69.912 130.135 73.4687 127.638 75.9117C124.117 79.3248 118.476 79.2709 115.045 75.7501C111.614 72.2472 111.686 66.6068 115.207 63.1758Z" fill="#DBDBDB"/>
<path d="M91.0463 111.623C88.5494 114.048 84.9927 114.73 81.903 113.653L87.1123 108.569L85.3519 104.743L81.5797 102.892L76.3703 107.976C75.3644 104.868 76.1368 101.33 78.6157 98.8867C82.1365 95.4557 87.777 95.5276 91.208 99.0484C94.639 102.551 94.5671 108.192 91.0463 111.623Z" fill="#DBDBDB"/>
<path d="M116.572 68.7446L122.105 74.4031L91.1362 104.635L85.6035 98.9589L116.572 68.7446Z" fill="#DBDBDB"/>
<path d="M109.082 79.2891L111.363 81.6243L98.627 94.0728L96.3457 91.7376L109.082 79.2891Z" fill="#C7C7C7"/>
<path d="M108.363 84.6239C108.237 83.4383 109.71 83.9772 109.71 83.9772C109.71 83.9772 107.788 82.7018 108.147 81.4264C108.489 80.2049 110.231 80.9234 110.357 80.9773C110.249 80.9055 108.525 79.684 109.01 78.4445C109.512 77.1691 111.129 78.1751 111.237 78.2469C111.165 78.1571 110.195 76.8817 110.788 76.0374C111.776 74.5644 114.848 77.9595 116.285 78.0493L118.045 76.0374C117.955 76.5584 117.812 77.0434 118.117 78.0673C118.404 79.0193 118.602 79.6481 118.494 80.2588C118.315 81.2648 117.398 81.3546 117.398 81.3546C117.398 81.3546 118.315 82.2348 117.955 83.2227C117.776 83.7257 116.806 83.8874 116.806 83.8874C116.806 83.8874 117.506 84.6059 117.147 85.4682C116.859 86.1508 115.925 86.2047 115.925 86.2047C115.925 86.2047 116.267 87.2106 115.746 87.8034C114.704 89.0249 108.614 87.1567 108.363 84.6239Z" fill="#F7A9A0"/>
<path d="M116.751 77.6543L118.009 76.0915C118.069 76.0436 118.129 75.9957 118.189 75.9478C120.29 74.4389 123.452 75.3191 122.338 76.7921C121.476 77.9058 119.105 77.7082 118.404 78.9657H118.386L116.751 77.6543Z" fill="#F7A9A0"/>
<path d="M115.781 86.223C115.799 86.2409 115.799 86.2589 115.781 86.2589C113.626 86.1331 111.291 85.3428 109.62 83.9596C109.566 83.9057 109.62 83.7979 109.692 83.8338C111.686 84.9296 113.554 85.7379 115.781 86.223Z" fill="#263238"/>
<path d="M116.841 83.9058C116.859 83.9058 116.859 83.9417 116.824 83.9417C114.614 83.798 112.009 82.828 110.267 81.0137C110.213 80.9598 110.213 80.834 110.285 80.9059C111.542 82.0196 114.83 83.4567 116.841 83.9058Z" fill="#263238"/>
<path d="M111.165 78.0856C112.907 79.7562 115.009 80.7082 117.308 81.3549C117.344 81.3729 117.326 81.4088 117.29 81.4088C116.087 81.3908 114.668 80.816 113.59 80.2771C112.566 79.7562 111.74 79.0915 111.093 78.1395C111.075 78.1035 111.129 78.0497 111.165 78.0856Z" fill="#263238"/>
<path d="M119.716 175.5C118.89 175.769 95.3939 175.266 94.5137 174.674C94.1904 174.458 94.0646 171.027 94.0287 166.896C94.0167 165.997 94.0107 165.075 94.0107 164.129C94.0107 163.016 94.0287 161.902 94.0287 160.806C94.1006 155.902 94.2443 150.495 94.2443 150.495L109.531 150.783L109.369 161.093L109.297 164.417L109.172 167.165C109.172 167.165 118.064 171.386 118.98 172.123C119.86 172.877 120.543 175.249 119.716 175.5Z" fill="#F7A9A0"/>
<path d="M119.716 175.5C118.89 175.77 95.3939 175.267 94.5137 174.674C94.1904 174.458 94.0646 171.027 94.0287 166.896C94.0167 165.998 94.0107 165.075 94.0107 164.129C94.0107 163.016 94.0287 161.902 94.0287 160.806L109.369 161.094L109.297 164.417L109.172 167.165C109.172 167.165 118.064 171.387 118.98 172.123C119.86 172.877 120.543 175.249 119.716 175.5Z" fill="white"/>
<path d="M119.788 175.536C119.249 175.716 109.244 175.554 101.969 175.267C100.28 175.213 98.7352 175.141 97.4957 175.051C95.7892 174.943 94.6395 174.835 94.4419 174.71C94.0467 174.44 93.939 169.41 93.939 164.111L109.316 164.381L109.172 167.165C109.172 167.165 118.136 171.404 119.034 172.141C119.932 172.895 120.614 175.284 119.788 175.536Z" fill="#455A64"/>
<path d="M119.465 174.584C115.513 174.404 99.5255 174.045 95.6095 174.171C95.5735 174.171 95.5735 174.189 95.6095 174.189C99.5255 174.458 115.513 174.692 119.465 174.656C119.555 174.656 119.555 174.602 119.465 174.584Z" fill="#263238"/>
<path d="M109.747 166.285C108.202 165.962 106.298 166.159 105.076 167.255C105.022 167.291 105.094 167.363 105.148 167.345C106.693 166.896 108.13 166.608 109.747 166.482C109.854 166.482 109.872 166.321 109.747 166.285Z" fill="#263238"/>
<path d="M110.86 166.986C109.315 166.662 107.393 166.86 106.19 167.956C106.136 167.991 106.208 168.063 106.244 168.045C107.806 167.596 109.244 167.309 110.86 167.183C110.968 167.183 110.968 167.021 110.86 166.986Z" fill="#263238"/>
<path d="M111.974 167.686C110.429 167.363 108.507 167.56 107.304 168.656C107.25 168.692 107.304 168.764 107.357 168.746C108.902 168.297 110.357 168.01 111.956 167.884C112.082 167.884 112.082 167.722 111.974 167.686Z" fill="#263238"/>
<path d="M113.088 168.386C111.525 168.063 109.621 168.261 108.399 169.356C108.363 169.392 108.417 169.464 108.471 169.446C110.016 168.997 111.453 168.71 113.07 168.584C113.196 168.584 113.196 168.422 113.088 168.386Z" fill="#263238"/>
<path fill-rule="evenodd" clip-rule="evenodd" d="M111.956 164.956C110.843 165.782 109.405 166.105 108.112 166.554C107.968 166.608 107.861 166.464 107.861 166.357C107.843 166.357 107.825 166.321 107.825 166.303C108.274 165.009 109.226 163.644 110.304 162.782C110.968 162.243 112.118 161.884 112.711 162.746C113.268 163.554 112.621 164.471 111.956 164.956ZM112.387 163.716C112.693 162.01 110.843 162.854 110.375 163.267C110.07 163.536 109.783 163.842 109.531 164.147C108.974 164.776 108.525 165.494 108.04 166.177C108.651 165.908 109.298 165.71 109.926 165.477C110.681 165.189 112.208 164.65 112.387 163.716Z" fill="#263238"/>
<path fill-rule="evenodd" clip-rule="evenodd" d="M102.687 163.806C103.082 162.854 104.268 162.944 105.04 163.321C106.262 163.95 107.483 165.063 108.202 166.231C108.22 166.267 108.202 166.285 108.184 166.303C108.202 166.411 108.13 166.554 107.986 166.554C106.621 166.393 105.148 166.375 103.873 165.8C103.136 165.477 102.31 164.722 102.687 163.806ZM105.974 165.872C106.639 165.98 107.304 166.033 107.968 166.159C107.358 165.584 106.765 165.01 106.082 164.507C105.759 164.255 105.436 164.022 105.076 163.824C104.519 163.519 102.526 163.088 103.19 164.686C103.567 165.566 105.184 165.764 105.974 165.872Z" fill="#263238"/>
<path opacity="0.1" d="M107.771 175.464C105.795 175.41 103.783 175.338 101.969 175.266C100.28 175.213 98.7352 175.141 97.4957 175.051C95.7892 174.943 94.6395 174.835 94.4419 174.71C94.0827 174.458 93.9569 170.578 93.939 166.051C97.4238 168.386 104.286 173.075 107.771 175.464Z" fill="black"/>
<path d="M109.603 165.548L93.2203 165.566C93.2203 165.566 94.1903 126.64 93.9927 125.724C93.5437 123.532 83.6279 88.8989 83.6279 88.8989L97.4058 89.1325L99.9206 89.2223C99.9206 89.2223 108.669 118.341 109.585 123.676C111.166 132.891 109.603 165.548 109.603 165.548Z" fill="#2C3A40"/>
<path d="M108.669 162.62C105.957 162.549 97.7473 162.261 94.1187 162.531C94.0828 162.549 94.0828 162.584 94.1187 162.584C95.3582 162.8 105.957 162.728 108.669 162.692C108.723 162.692 108.723 162.62 108.669 162.62Z" fill="#37474F"/>
<path d="M95.3582 124.844C94.8372 122.724 90.9572 109.503 89.7716 105.318C88.586 101.15 87.4543 96.9466 86.4304 92.7253C86.3107 92.1864 86.1789 91.6534 86.0352 91.1265C86.0173 91.0906 85.9634 91.1086 85.9634 91.1445C86.3586 93.2641 86.8795 95.3838 87.3825 97.4855C87.8735 99.5812 88.4004 101.671 88.9632 103.755C90.0949 107.958 91.3164 112.126 92.6457 116.257C93.3104 118.323 94.4241 122.544 94.9989 124.628C95.5917 126.712 94.6217 160.573 94.6935 161.129C94.7115 161.273 94.945 161.273 94.945 161.111C95.0169 157.088 95.8791 126.945 95.3582 124.844Z" fill="#37474F"/>
<path d="M97.4057 89.1325C97.4057 89.1325 94.0286 125.903 93.9926 125.724C93.5615 123.604 84.2386 91.0366 83.6458 89.0067C83.6218 88.9349 83.6099 88.8989 83.6099 88.8989L97.4057 89.1325Z" fill="#37474F"/>
<path d="M101.627 176.434C100.783 176.704 77.3048 176.201 76.4246 175.608C76.0832 175.393 75.9575 171.962 75.9216 167.83C75.9096 166.932 75.9096 166.01 75.9216 165.064C75.9216 163.95 75.9216 162.836 75.9395 161.74C75.9934 156.836 76.1551 152.507 76.1551 152.507L91.4419 152.795L91.2622 162.028L91.1904 165.351L91.0646 168.099C91.0646 168.099 99.9744 172.321 100.873 173.075C101.771 173.812 102.435 176.183 101.627 176.434Z" fill="#F7A9A0"/>
<path d="M101.627 176.434C100.783 176.704 77.3048 176.201 76.4246 175.608C76.0832 175.392 75.9575 171.961 75.9216 167.83C75.9096 166.932 75.9096 166.01 75.9216 165.063C75.9216 163.95 75.9216 162.836 75.9395 161.74L91.2622 162.028L91.1904 165.351L91.0646 168.099C91.0646 168.099 99.9744 172.321 100.873 173.075C101.771 173.812 102.435 176.183 101.627 176.434Z" fill="white"/>
<path d="M101.681 176.471C101.142 176.65 91.1363 176.489 83.8611 176.219C82.1726 176.147 80.6277 176.075 79.3883 175.986C77.6818 175.878 76.5321 175.77 76.3525 175.644C75.9393 175.375 75.8315 170.345 75.8315 165.046L91.2081 165.315L91.0824 168.1C91.0824 168.1 100.028 172.339 100.944 173.075C101.842 173.83 102.525 176.219 101.681 176.471Z" fill="#455A64"/>
<path d="M101.375 175.518C97.4056 175.339 81.4362 174.979 77.5022 175.105C77.4843 175.105 77.4843 175.123 77.5022 175.123C81.4182 175.393 97.4056 175.626 101.375 175.59C101.447 175.59 101.447 175.536 101.375 175.518Z" fill="#263238"/>
<path d="M91.6571 167.219C90.0943 166.896 88.1902 167.094 86.9867 168.189C86.9328 168.225 86.9867 168.297 87.0406 168.279C88.5854 167.83 90.0404 167.543 91.6392 167.417C91.7649 167.417 91.7649 167.255 91.6571 167.219Z" fill="#263238"/>
<path d="M92.7709 167.92C91.208 167.597 89.3039 167.794 88.0824 168.89C88.0465 168.926 88.1004 168.998 88.1543 168.98C89.6991 168.531 91.1362 168.243 92.7529 168.118C92.8607 168.118 92.8786 167.956 92.7709 167.92Z" fill="#263238"/>
<path d="M93.8668 168.621C92.3219 168.297 90.4178 168.495 89.1963 169.591C89.1424 169.627 89.2143 169.699 89.2682 169.681C90.813 169.232 92.2501 168.944 93.8668 168.818C93.9746 168.818 93.9925 168.657 93.8668 168.621Z" fill="#263238"/>
<path d="M94.9804 169.339C93.4355 169.016 91.5314 169.213 90.3099 170.291C90.256 170.327 90.3279 170.399 90.3638 170.381C91.9266 169.932 93.3637 169.644 94.9804 169.537C95.0881 169.519 95.0881 169.357 94.9804 169.339Z" fill="#263238"/>
<path fill-rule="evenodd" clip-rule="evenodd" d="M93.8666 165.89C92.7349 166.716 91.2979 167.04 90.0045 167.489C89.8788 167.543 89.771 167.417 89.771 167.291C89.7351 167.291 89.7171 167.273 89.7351 167.237C90.1842 165.944 91.1362 164.579 92.214 163.716C92.8607 163.178 94.0103 162.836 94.6031 163.68C95.1779 164.489 94.5133 165.405 93.8666 165.89ZM94.2798 164.65C94.6031 162.944 92.7529 163.806 92.2679 164.201C91.9625 164.471 91.6931 164.776 91.4236 165.082C90.8668 165.728 90.4177 166.429 89.9327 167.111C90.5614 166.842 91.2081 166.644 91.8368 166.411C92.5912 166.123 94.1181 165.585 94.2798 164.65Z" fill="#263238"/>
<path fill-rule="evenodd" clip-rule="evenodd" d="M84.5797 164.74C84.9749 163.788 86.1784 163.878 86.9329 164.255C88.1723 164.884 89.3938 165.998 90.1124 167.165C90.1303 167.201 90.1124 167.219 90.0764 167.237C90.1124 167.345 90.0226 167.506 89.8968 167.489C88.5316 167.327 87.0586 167.309 85.7832 166.734C85.0288 166.411 84.2024 165.656 84.5797 164.74ZM87.867 166.806C88.5496 166.914 89.2142 166.968 89.8788 167.093C89.2501 166.518 88.6573 165.944 87.9927 165.441C87.6694 165.189 87.3281 164.956 86.9688 164.758C86.4299 164.453 84.436 164.022 85.1006 165.62C85.4599 166.501 87.0766 166.698 87.867 166.806Z" fill="#263238"/>
<path d="M91.7291 166.968L75.167 166.644C75.167 166.644 79.9093 106.288 79.3165 103.054C78.3645 97.755 79.1908 91.7193 81.7236 88.8452L98.2318 89.1506C98.2318 89.1506 98.4654 96.1383 96.7229 98.8687C96.7229 98.8687 95.1601 99.8208 94.3877 100.234L91.7291 166.968Z" fill="#2C3A40"/>
<path d="M91.2619 163.95C88.6932 163.842 89.8069 163.842 87.2381 163.752C85.9807 163.716 77.7176 163.447 76.532 163.608C76.5141 163.608 76.5141 163.644 76.532 163.662C77.6996 163.878 85.9628 164.004 87.2202 164.022C89.7889 164.057 88.6932 164.022 91.2619 164.022C91.3158 164.022 91.3158 163.95 91.2619 163.95Z" fill="#37474F"/>
<path d="M82.0108 102.892C81.921 101.671 81.7413 100.467 81.6336 99.2637C81.4 96.8207 81.6336 94.3777 82.2084 92.0066C82.2084 91.9527 82.1365 91.9347 82.1365 91.9886C81.6875 94.0903 81.2923 96.192 81.3641 98.3476C81.436 100.485 81.7773 102.605 81.7593 104.743C81.7593 106.916 81.5437 109.09 81.3641 111.245C81.1845 113.425 81.0048 115.604 80.8252 117.784C80.1067 126.514 79.4241 135.262 78.7235 144.01C78.5259 146.453 78.3463 148.896 78.1666 151.339C77.9691 153.818 77.6816 159.243 77.5559 161.722C77.5379 161.938 77.8613 161.92 77.8792 161.722C78.3283 157.339 78.7055 150.01 79.0648 145.609C79.4241 141.262 79.7474 136.915 80.1067 132.55C80.442 128.203 80.7833 123.855 81.1306 119.508C81.2982 117.329 81.4659 115.149 81.6336 112.97C81.7952 110.814 81.9928 108.641 82.0647 106.467C82.1006 105.281 82.1006 104.078 82.0108 102.892Z" fill="#37474F"/>
<path d="M91.693 94.4857C91.693 94.4497 91.657 94.3958 91.6211 94.4318C91.3876 94.6473 90.687 96.282 88.226 97.7909C86.5914 98.7789 84.346 99.2998 83.1065 99.4615C83.0167 99.4615 83.0526 99.5333 83.1245 99.5333C84.4358 99.6232 86.268 99.2819 88.2799 98.2041C91.172 96.6413 91.6391 94.791 91.693 94.4857Z" fill="#37474F"/>
<path d="M97.2255 98.671C95.6986 99.1919 94.2256 99.9284 92.8245 100.701C92.7706 100.737 92.8065 100.827 92.8604 100.791C94.3514 100.162 95.8603 99.5512 97.2974 98.8327C97.4051 98.7788 97.3333 98.6171 97.2255 98.671Z" fill="#37474F"/>
<path d="M97.7286 89.2762C97.7286 89.2403 97.6388 89.2223 97.6388 89.2762C97.6388 90.8929 97.531 92.312 97.3693 93.8209C97.2975 94.5394 96.6688 98.4195 95.3395 98.1321C95.1239 98.0962 95.0162 97.8986 94.9802 97.5752C94.9443 97.216 95.088 96.7669 95.1599 96.3897C95.3036 95.5813 95.4293 94.755 95.5191 93.9467C95.6628 92.4198 95.6808 90.8749 95.4832 89.3481C95.4652 89.3121 95.3934 89.3121 95.3934 89.366C95.3934 91.4857 95.3215 93.5874 94.9623 95.6891C94.7826 96.713 94.2258 98.2219 95.3754 98.3836C96.543 98.5273 97.3155 95.9765 97.4592 95.2939C97.8544 93.3359 97.8903 91.2522 97.7286 89.2762Z" fill="#37474F"/>
<path d="M95.3754 98.2221C95.2497 98.5095 95.1599 98.7969 95.088 99.1023C95.0162 99.3358 94.9264 99.5873 94.9623 99.8208C94.9623 99.8567 95.0162 99.8747 95.0521 99.8388C95.1958 99.6412 95.2677 99.3717 95.3575 99.1382C95.4653 98.8688 95.5551 98.5993 95.6629 98.3299C95.7167 98.1502 95.4473 98.0604 95.3754 98.2221Z" fill="#37474F"/>
<path d="M78.5625 93.8572C78.6164 93.929 101.591 94.45 101.825 94.2165C102.148 93.8752 100.047 69.6966 96.2563 64.2896C95.3223 62.9424 91.8733 61.9544 90.4003 63.2837C86.143 67.1278 85.2089 70.4151 84.0772 73.0916C83.233 75.0676 82.1911 78.4627 81.257 81.9296C79.6942 87.6599 78.3649 93.6237 78.5625 93.8572Z" fill="#C8C8C8"/>
<path d="M87.0228 66.4989C82.2625 72.2472 76.8376 82.7018 77.5562 84.8753C79.4603 90.7493 81.3464 95.833 83.2505 99.0125C84.1307 100.485 92.2681 95.9228 91.4597 94.5037C89.7712 91.5936 86.5378 84.5879 86.0348 83.6C85.7295 83.0251 88.4599 73.5944 90.0945 68.403C91.8909 62.7446 89.3221 63.7326 87.0228 66.4989Z" fill="#F7A9A0"/>
<path d="M80.4843 96.9825L90.4899 92.0965C90.4899 92.0965 86.5559 83.3124 86.5559 82.3604C86.538 81.4263 89.7893 70.7741 90.7773 67.3431C91.7473 63.9121 90.3103 61.7745 86.035 66.9659C81.7597 72.1393 77.3767 80.6 76.9635 82.6478C76.5324 84.6956 80.4843 96.9825 80.4843 96.9825Z" fill="#2F4B53"/>
<path d="M89.161 72.7501C89.4305 72.0675 89.7179 71.3849 89.9873 70.6844C90.0233 70.6305 90.0951 70.6664 90.0772 70.7203C89.7538 71.6364 89.4484 72.5705 89.1251 73.5046C89.3646 73.0855 89.6041 72.6663 89.8436 72.2472C89.8796 72.2113 89.9334 72.2472 89.9155 72.2831C89.6281 72.7861 89.3407 73.289 89.0353 73.792C88.9634 74.0255 86.7719 81.8036 86.7539 82.109C86.736 82.4503 86.8078 82.7737 86.8976 83.097C87.0773 83.6898 87.2928 84.2646 87.4904 84.8574C87.9216 86.0071 88.3706 87.1567 88.8377 88.3064C89.3945 89.5997 90.0053 90.8751 90.616 92.1325L90.2388 92.2403C90.2209 92.2583 90.2029 92.2403 90.2209 92.2224C90.2209 92.2044 90.4544 92.0966 90.4544 92.0966C89.8257 91.0009 89.2329 89.923 88.7119 88.7914C88.185 87.6537 87.712 86.4921 87.2928 85.3065C87.0773 84.7077 86.8737 84.1029 86.6821 83.4922C86.5025 82.8814 86.3767 82.3246 86.5204 81.6959C86.6462 81.0671 88.8916 73.4687 89.161 72.7501Z" fill="#263238"/>
<path d="M80.3229 94.1622C80.6642 93.9467 81.0594 93.8209 81.4186 93.6413C81.742 93.4976 82.0653 93.3359 82.3886 93.1922C83.1072 92.8689 83.8257 92.5455 84.5442 92.2222C85.2628 91.8988 85.9633 91.5755 86.6819 91.2701C87.4004 90.9648 88.101 90.6235 88.8375 90.354C88.8734 90.354 88.8914 90.3899 88.8554 90.4079C88.1908 90.8031 87.4902 91.1444 86.7897 91.5037C86.107 91.845 85.4065 92.1683 84.7059 92.4737C83.9874 92.797 83.2689 93.1024 82.5503 93.3898C82.1911 93.5335 81.8318 93.6592 81.4905 93.785C81.1133 93.9287 80.736 94.1083 80.3408 94.1981C80.3229 94.1981 80.3049 94.1802 80.3229 94.1622Z" fill="#263238"/>
<path d="M94.6933 66.7505C93.6694 66.9301 91.2983 65.2955 90.2564 63.8045C90.1845 63.6967 90.2384 62.5291 90.2205 61.11C90.2205 60.2478 90.1845 59.2778 90.0947 58.4155L95.7172 59.17C95.7172 59.17 95.3759 61.0561 95.5376 62.583C95.5496 62.7028 95.5735 62.8165 95.6095 62.9243C95.6214 62.9483 95.6274 62.9722 95.6274 62.9962C95.807 63.6608 96.2741 66.4631 94.6933 66.7505Z" fill="#F7A9A0"/>
<path d="M95.6093 62.9245C95.6093 62.9485 95.6152 62.9724 95.6272 62.9964C95.4596 63.0323 95.2739 63.0622 95.0704 63.0862C91.8729 63.3377 90.6694 59.5115 90.3999 58.4517L95.717 59.1702C95.717 59.1702 95.3757 61.0563 95.5374 62.5832C95.5614 62.703 95.5853 62.8167 95.6093 62.9245Z" fill="#263238"/>
<path d="M89.2143 51.0148C88.5855 52.9548 89.5196 58.6133 90.8848 59.9066C92.8788 61.7568 96.184 61.9904 97.7648 59.5833C99.3096 57.266 97.9444 49.9011 96.4175 48.7335C94.1542 47.009 90.1304 48.1227 89.2143 51.0148Z" fill="#F7A9A0"/>
<path d="M94.8546 54.5532C94.8546 54.5353 94.8367 54.5712 94.8367 54.5892C94.9265 54.9664 94.9444 55.4155 94.6211 55.5951C94.6211 55.6131 94.6211 55.631 94.6391 55.631C95.0522 55.4873 94.9983 54.8945 94.8546 54.5532Z" fill="#263238"/>
<path d="M94.4414 54.2122C93.8307 54.284 94.0103 55.5235 94.5851 55.4516C95.142 55.3977 94.9624 54.1583 94.4414 54.2122Z" fill="#263238"/>
<path d="M97.0283 54.1943C97.0283 54.1943 97.0643 54.2123 97.0643 54.2303C97.1181 54.6075 97.2259 55.0566 97.5852 55.1284C97.6032 55.1284 97.6032 55.1464 97.5852 55.1464C97.1541 55.1464 97.0104 54.5716 97.0283 54.1943Z" fill="#263238"/>
<path d="M97.3157 53.7454C97.9265 53.6197 98.16 54.8412 97.5852 54.9669C97.0283 55.0926 96.8127 53.8711 97.3157 53.7454Z" fill="#263238"/>
<path d="M93.8847 53.7272C94.0463 53.6553 94.1901 53.5655 94.3338 53.4757C94.5134 53.3859 94.6571 53.332 94.7469 53.1523C94.8008 53.0625 94.7469 52.9009 94.6571 52.847C94.4595 52.7033 94.208 52.7572 94.0104 52.8649C93.7769 52.9727 93.6152 53.1344 93.5074 53.3499C93.3997 53.5835 93.6691 53.799 93.8847 53.7272Z" fill="#263238"/>
<path d="M97.6751 53.2063C97.5134 53.2063 97.3517 53.1704 97.1721 53.1524C96.9745 53.1344 96.8128 53.1344 96.6691 52.9907C96.5793 52.9189 96.5614 52.7572 96.6332 52.6674C96.7769 52.4698 97.0284 52.4339 97.2619 52.4518C97.5134 52.4878 97.711 52.5596 97.8906 52.7393C98.0703 52.9189 97.9086 53.2063 97.6751 53.2063Z" fill="#263238"/>
<path d="M94.9085 58.1641C94.9983 58.2539 95.1061 58.3617 95.2498 58.3437C95.3935 58.3437 95.5372 58.2539 95.645 58.2C95.663 58.182 95.6809 58.2 95.6809 58.218C95.5911 58.3796 95.3935 58.4874 95.2139 58.4874C95.0342 58.4874 94.9265 58.3437 94.8726 58.2C94.8546 58.1641 94.8905 58.1641 94.9085 58.1641Z" fill="#263238"/>
<path d="M95.1423 56.9608C95.3938 57.2662 95.7351 57.4099 96.0944 57.4279C96.256 57.4279 96.4177 57.4099 96.5614 57.374C96.5974 57.374 96.6273 57.368 96.6512 57.356C96.6752 57.344 96.7051 57.3321 96.7411 57.3201C96.777 57.3201 96.7949 57.2662 96.7949 57.2303C96.7949 57.2183 96.7949 57.2063 96.7949 57.1944L96.777 57.1584C96.7411 56.8531 96.6512 56.404 96.6512 56.404C96.777 56.4579 97.3518 56.6195 97.3338 56.4579C97.0644 55.2004 96.777 53.7993 96.256 52.5958C96.2381 52.5598 96.1842 52.5778 96.1842 52.6137C96.3818 53.8352 96.7949 55.0208 97.0285 56.2423C96.8309 56.2064 96.5255 56.1166 96.3818 56.1525C96.3459 56.1704 96.5794 56.9968 96.5794 57.1405C96.5794 57.1405 96.5794 57.1465 96.5794 57.1584C96.0944 57.2842 95.6992 57.1944 95.1782 56.9249C95.1423 56.9069 95.1064 56.9429 95.1423 56.9608Z" fill="#263238"/>
<path d="M96.3637 57.2479C96.3637 57.2479 96.1661 57.6431 95.8248 57.8227C95.6991 57.8766 95.5554 57.9305 95.3937 57.9125C95.0883 57.8766 95.0344 57.5892 95.0524 57.3377C95.0704 57.1401 95.1422 56.9604 95.1422 56.9604C95.1422 56.9604 95.6452 57.3018 96.3637 57.2479Z" fill="#263238"/>
<path d="M95.8248 57.8227C95.6991 57.8766 95.5554 57.9304 95.3937 57.9125C95.0883 57.8766 95.0344 57.5891 95.0524 57.3377C95.3937 57.3197 95.753 57.4993 95.8248 57.8227Z" fill="#FF9BBC"/>
<path d="M97.5853 50.8888C97.5134 50.7272 97.0284 49.6134 96.8129 49.6314C96.5255 49.6314 96.3818 50.1164 95.8608 50.296C95.1423 50.5475 93.7951 49.8469 92.7891 50.1883C91.8191 50.5296 91.2622 51.5535 91.2083 53.3678C91.1365 55.2 89.8252 56.7628 89.3402 55.5952C89.3162 55.5593 89.2863 55.4874 89.2503 55.3796C88.9629 53.6552 88.8192 51.6433 89.1246 50.7271C90.0407 47.853 94.5495 47.0806 96.5255 48.5536C97.2799 49.1105 97.5853 50.0805 97.5853 50.8888Z" fill="#263238"/>
<path d="M90.8131 55.7926C90.8131 55.7926 89.5197 53.9783 88.6934 54.4274C87.8671 54.8945 88.8371 57.5351 89.8251 57.8943C90.7951 58.2536 91.1364 57.3554 91.1364 57.3554L90.8131 55.7926Z" fill="#F7A9A0"/>
<path d="M88.9988 55.1816C88.9809 55.1816 88.9809 55.1996 88.9988 55.2176C89.6814 55.487 90.0407 56.1157 90.2922 56.7624C90.0946 56.5109 89.8072 56.3852 89.4659 56.6187C89.4479 56.6367 89.4659 56.6726 89.4838 56.6546C89.7712 56.6007 89.9688 56.6546 90.1664 56.8702C90.2922 57.0319 90.382 57.2295 90.4898 57.4091C90.5257 57.4809 90.6335 57.445 90.5976 57.3732C90.5976 57.3612 90.5976 57.3552 90.5976 57.3552C90.6155 56.475 89.9329 55.2715 88.9988 55.1816Z" fill="#263238"/>
<path d="M95.753 63.4811L95.1602 66.2474L90.2023 62.6548L89.2144 64.1278C89.2144 64.1278 93.9926 70.2712 93.9926 69.9658L95.3758 66.8762L97.1901 68.7084L96.6152 64.523L95.753 63.4811Z" fill="#EBEBEB"/>
<path d="M96.9564 66.2473C96.8127 65.439 96.8486 65.3671 96.651 64.5588C96.651 64.5408 96.5971 64.5228 96.5971 64.5588C96.5253 65.3671 96.9564 67.7203 97.0462 68.4568C96.9384 68.3849 95.3936 66.8581 95.3756 66.876C95.1421 67.361 94.0104 69.6424 93.9745 69.822C93.2021 68.852 90.3279 65.3312 89.4657 64.4151C89.4477 64.3971 89.3939 64.433 89.4118 64.451C90.1124 65.4928 93.9386 70.2531 93.9745 70.2352C94.0104 70.2531 95.3217 67.4868 95.4116 66.9838C95.7529 67.3071 97.3516 69.0496 97.3336 68.9238C97.2797 68.0975 97.1181 67.0557 96.9564 66.2473Z" fill="#263238"/>
<path d="M209.981 143.777C210.089 140.939 210.053 138.101 209.856 135.263C209.478 129.425 208.508 123.64 207.197 117.946C206.461 114.731 205.544 111.587 204.592 108.426C204.556 108.336 204.413 108.372 204.431 108.461C207.377 119.563 209.802 131.023 209.64 142.556C209.586 145.789 209.209 148.969 208.904 152.166C208.904 152.256 209.029 152.292 209.065 152.202C209.658 149.454 209.856 146.58 209.981 143.777Z" fill="#9E83B9"/>
<path d="M204.431 108.461C204.431 108.461 199.958 119.796 200.964 122.473C201.97 125.131 204.036 125.688 204.036 125.688C204.036 125.688 201.287 129.604 203.209 133.251C205.113 136.915 209.353 136.736 209.64 140.885C209.64 140.885 209.874 123.551 204.431 108.461Z" fill="#9E83B9"/>
<path d="M209.155 133.736C209.155 133.712 209.155 133.688 209.155 133.664C208.526 125.958 207.161 118.287 204.808 110.868C204.808 110.85 204.772 110.85 204.772 110.868C205.67 114.192 206.442 117.533 207.125 120.874C206.55 120.281 205.778 119.94 204.987 119.688C204.969 119.688 204.969 119.706 204.987 119.706C205.814 120.066 206.604 120.479 207.179 121.179C207.311 121.838 207.436 122.497 207.556 123.155C206.568 122.042 205.185 121.485 203.802 120.964C203.784 120.946 203.766 120.982 203.784 120.982C205.221 121.575 206.658 122.329 207.646 123.568C207.981 125.449 208.281 127.341 208.544 129.245C207.808 128.472 206.909 127.969 205.886 127.718C205.85 127.7 205.832 127.754 205.868 127.754C206.927 128.059 207.826 128.652 208.562 129.496C208.562 129.496 208.568 129.496 208.58 129.496C208.664 130.167 208.748 130.838 208.831 131.508C208.275 131.023 207.646 130.664 206.963 130.377C206.945 130.377 206.927 130.395 206.945 130.413C207.646 130.7 208.275 131.131 208.831 131.634C208.831 131.652 208.831 131.652 208.849 131.652C208.921 132.287 208.993 132.921 209.065 133.556C208.041 132.317 206.766 131.436 205.275 130.862C205.239 130.844 205.221 130.88 205.257 130.898C206.712 131.526 207.987 132.532 208.993 133.772C209.011 133.808 209.047 133.808 209.083 133.808C209.179 134.778 209.263 135.754 209.334 136.736C209.334 136.754 209.352 136.754 209.352 136.736C209.305 135.73 209.239 134.73 209.155 133.736Z" fill="#263238"/>
<path d="M205.562 118.557C204.79 118.036 203.802 117.802 202.886 117.73C202.85 117.73 202.85 117.748 202.886 117.766C203.838 117.91 204.646 118.251 205.526 118.629C205.562 118.647 205.598 118.575 205.562 118.557Z" fill="#263238"/>
<path d="M206.102 130.556C205.491 130.197 204.79 129.981 204.09 129.874C204.072 129.874 204.072 129.909 204.09 129.909C204.808 130.035 205.437 130.287 206.084 130.61C206.102 130.628 206.137 130.574 206.102 130.556Z" fill="#263238"/>
<path d="M221.712 122.652C219.862 123.964 218.065 125.473 216.556 127.161C214.922 128.975 213.754 131.041 212.928 133.322C211.239 137.993 210.305 143.059 210.215 148.016C210.179 150.801 210.431 153.567 211.024 156.28C211.042 156.387 211.185 156.351 211.167 156.262C210.449 151.465 210.467 146.579 211.257 141.801C212.03 137.113 213.233 132.011 216.215 128.203C217.832 126.119 219.862 124.502 221.855 122.814C221.963 122.724 221.82 122.58 221.712 122.652Z" fill="#9E83B9"/>
<path d="M210.88 144.639C210.88 144.639 212.407 142.053 214.652 139.825C216.88 137.598 218.766 135.999 219.053 134.526C219.341 133.053 216.826 131.957 216.826 131.957C216.826 131.957 219.915 132.514 220.76 131.221C221.604 129.927 222.017 122.401 222.017 122.401C222.017 122.401 216.377 126.425 213.772 132.047C211.149 137.688 210.88 144.639 210.88 144.639Z" fill="#9E83B9"/>
<path d="M220.059 124.341C217.688 126.658 215.317 129.137 213.916 132.191C213.449 133.233 213.036 134.329 212.676 135.424C212.604 135.652 212.533 135.88 212.461 136.107C212.461 136.119 212.461 136.131 212.461 136.143C211.76 138.424 211.275 140.778 210.862 143.077C210.844 143.095 210.88 143.095 210.88 143.095C211.113 141.909 211.383 140.724 211.688 139.556C211.7 139.556 211.712 139.55 211.724 139.538C212.191 139.34 212.676 139.215 213.197 139.161C213.233 139.161 213.233 139.107 213.197 139.107C212.694 139.131 212.209 139.221 211.742 139.376C212.012 138.317 212.299 137.257 212.64 136.197C213.718 135.945 214.85 135.802 215.964 135.766C215.981 135.766 215.981 135.748 215.964 135.748C214.85 135.694 213.79 135.802 212.694 136.035C212.754 135.856 212.814 135.676 212.874 135.496C213.61 135.317 214.347 135.191 215.083 135.119C215.101 135.119 215.101 135.083 215.083 135.083C214.347 135.119 213.628 135.191 212.91 135.353C213.215 134.454 213.556 133.556 213.916 132.694C214.221 131.976 214.58 131.293 214.976 130.628C215.586 130.485 216.161 130.359 216.79 130.305C216.79 130.305 216.79 130.269 216.772 130.269C216.215 130.233 215.64 130.287 215.101 130.449C215.389 129.97 215.7 129.503 216.035 129.048C217.293 128.76 218.568 128.509 219.862 128.742C219.88 128.742 219.897 128.706 219.88 128.706C218.64 128.383 217.419 128.562 216.197 128.814C216.341 128.634 216.478 128.461 216.61 128.293C217.383 128.042 218.155 127.934 218.963 127.916C218.981 127.916 218.981 127.898 218.963 127.88C218.227 127.826 217.49 127.898 216.772 128.077C217.814 126.784 218.963 125.563 220.113 124.359C220.167 124.305 220.113 124.287 220.059 124.341Z" fill="#263238"/>
<path d="M220.005 129.461C219.628 129.425 219.251 129.371 218.874 129.425C218.838 129.425 218.838 129.497 218.892 129.497C219.251 129.514 219.628 129.479 219.987 129.497C220.023 129.497 220.023 129.461 220.005 129.461Z" fill="#263238"/>
<path d="M215.945 136.753C215.353 136.735 214.778 136.897 214.221 137.095C214.203 137.095 214.221 137.131 214.221 137.113C214.796 136.987 215.371 136.933 215.963 136.825C215.999 136.825 215.999 136.753 215.945 136.753Z" fill="#263238"/>
<path d="M214.742 134.221C214.491 134.221 214.239 134.257 214.006 134.293C213.97 134.293 213.988 134.346 214.006 134.346C214.239 134.346 214.509 134.346 214.742 134.311C214.778 134.293 214.778 134.239 214.742 134.221Z" fill="#263238"/>
<path d="M194.389 130.628C196.204 131.257 198 132.065 199.617 133.089C201.341 134.185 202.778 135.568 203.982 137.221C206.425 140.616 208.347 144.496 209.568 148.502C210.233 150.747 210.682 153.028 210.826 155.382C210.826 155.454 210.7 155.471 210.7 155.382C210.179 151.34 209.029 147.388 207.287 143.706C205.58 140.095 203.425 136.233 200.138 133.844C198.341 132.532 196.329 131.688 194.317 130.79C194.21 130.736 194.282 130.592 194.389 130.628Z" fill="#9E83B9"/>
<path d="M208.239 145.915C208.239 145.915 206.407 144.19 204.09 142.897C201.754 141.604 199.868 140.742 199.293 139.628C198.719 138.496 200.515 137.023 200.515 137.023C200.515 137.023 198.144 138.191 197.156 137.346C196.168 136.484 194.102 130.502 194.102 130.502C194.102 130.502 199.581 132.442 203.012 136.394C206.425 140.346 208.239 145.915 208.239 145.915Z" fill="#9E83B9"/>
<path d="M207.97 144.676C205.221 139.538 201.557 134.886 196.545 131.814C197.874 132.658 199.078 133.628 200.209 134.688C199.203 134.652 198.18 134.814 197.263 135.317C197.245 135.317 197.263 135.353 197.281 135.335C198.287 134.993 199.257 134.778 200.317 134.832C200.335 134.832 200.335 134.814 200.353 134.814C200.533 134.981 200.706 135.155 200.874 135.335C200.353 135.353 199.814 135.425 199.311 135.532C199.293 135.532 199.293 135.568 199.311 135.55C199.868 135.443 200.407 135.407 200.964 135.425C201.898 136.341 202.742 137.329 203.551 138.353C203.191 138.299 202.814 138.335 202.455 138.442C202.437 138.442 202.437 138.478 202.473 138.478C202.868 138.424 203.245 138.424 203.64 138.46C203.796 138.652 203.946 138.844 204.09 139.035C202.958 138.963 201.862 139.071 200.766 139.359C200.748 139.359 200.748 139.394 200.766 139.377C201.892 139.161 203.03 139.089 204.179 139.161C204.323 139.341 204.449 139.538 204.592 139.718C203.928 139.7 203.263 139.79 202.617 139.951C202.581 139.951 202.599 140.005 202.617 139.987C203.299 139.844 203.982 139.808 204.664 139.826C205.251 140.64 205.82 141.472 206.371 142.322C206.083 142.251 205.778 142.287 205.491 142.358C205.491 142.376 205.491 142.394 205.509 142.394C205.832 142.358 206.119 142.394 206.443 142.43C206.934 143.197 207.407 143.963 207.862 144.73C207.898 144.801 208.005 144.748 207.97 144.676Z" fill="#263238"/>
<path d="M203.694 140.418C203.155 140.364 202.617 140.454 202.114 140.616C202.096 140.616 202.096 140.634 202.114 140.634C202.635 140.544 203.155 140.508 203.694 140.472C203.73 140.472 203.73 140.418 203.694 140.418Z" fill="#263238"/>
<path d="M198.916 134.149C198.683 134.113 198.431 134.149 198.18 134.185C198.162 134.185 198.162 134.239 198.198 134.239C198.431 134.203 198.665 134.221 198.916 134.203C198.952 134.203 198.952 134.149 198.916 134.149Z" fill="#263238"/>
<path d="M215.317 162.926H202.94L204.718 150.01L205.167 146.705H213.107L213.556 150.01L215.317 162.926Z" fill="#2C3A40"/>
<path d="M213.556 150.01H204.718L205.167 146.705H213.107L213.556 150.01Z" fill="#435259"/>
<path d="M214.239 148.358H204.018V145.556H214.239V148.358Z" fill="#2C3A40"/>
</svg>
