<svg width="166" height="49" viewBox="0 0 166 49" fill="none" xmlns="http://www.w3.org/2000/svg">
<path d="M144.654 37.7826C131.372 44.4634 106.187 49 77.3191 49C34.6276 49 0 39.1142 0 26.9489C0 22.0285 5.66962 17.4694 15.2696 13.813C8.92231 16.9954 5.28562 20.6969 5.28562 24.6467C5.28562 36.8121 39.9132 46.6753 82.6047 46.6753C108.016 46.6753 130.559 43.1769 144.654 37.7826Z" fill="#77C24C"/>
<path d="M79.1937 0C127.126 0 166 10.6983 166 23.8568C166 27.9194 162.318 31.7563 155.79 35.0967C159.11 32.6366 162.95 31.1469 163.402 24.2404C163.786 16.1377 143.254 9.38923 121.727 5.95855C108.332 2.93414 84.6826 2.68586 76.7994 2.68586C47.864 2.68586 19.8548 6.8388 4.06567 12.8199C5.62425 11.714 7.45389 10.6532 9.532 9.63751C25.3663 3.79182 50.6875 0 79.1937 0Z" fill="#77C24C"/>
<path fill-rule="evenodd" clip-rule="evenodd" d="M29.2742 34.0135V15.6413H37.1348C39.6647 15.6413 41.5847 16.3861 42.8948 17.8757C44.2049 19.3503 44.86 21.5171 44.86 24.376C44.86 27.5207 44.1823 29.9132 42.827 31.5533C41.4567 33.1934 39.4539 34.0135 36.8186 34.0135H29.2742ZM33.1141 30.8536H36.3668C37.9179 30.8536 39.0849 30.3194 39.868 29.2511C40.6511 28.1978 41.0426 26.6179 41.0426 24.5114C41.0426 22.6155 40.6737 21.186 39.9358 20.223C39.213 19.2751 38.1212 18.8011 36.6605 18.8011H33.1141V30.8536ZM49.4679 34.0135V20.4262H53.0369V34.0135H49.4679ZM49.4454 15.5059H53.082V18.8462H49.4454V15.5059ZM64.4213 36.8122C65.4302 36.8122 66.1606 36.5714 66.6123 36.0899C67.049 35.5934 67.2674 34.7884 67.2674 33.6749V32.0047L66.9737 32.4335C66.1907 33.5169 65.0537 34.0586 63.5629 34.0586C61.8011 34.0586 60.378 33.4266 59.2938 32.1627C58.1945 30.8988 57.6449 29.221 57.6449 27.1295C57.6449 24.9929 58.1794 23.2775 59.2486 21.9835C60.3027 20.6895 61.6956 20.0425 63.4274 20.0425C64.9483 20.0425 66.1304 20.5992 66.9737 21.7127C67.1243 21.9083 67.2674 22.134 67.4029 22.3898V20.4036H70.7685V33.2686C70.7685 35.4203 70.2415 37.0078 69.1874 38.031C68.1182 39.0391 66.4617 39.5432 64.218 39.5432C62.3658 39.5432 60.8975 39.1896 59.8133 38.4824C58.714 37.7601 58.1267 36.7595 58.0514 35.4805H61.9592C61.9893 35.947 62.2001 36.2855 62.5916 36.4962C62.9982 36.7068 63.6081 36.8122 64.4213 36.8122ZM64.3083 23.1346C63.3747 23.1346 62.6519 23.4957 62.1399 24.218C61.6128 24.9252 61.3493 25.9107 61.3493 27.1747C61.3493 28.4236 61.6128 29.3941 62.1399 30.0862C62.6519 30.7784 63.3747 31.1245 64.3083 31.1245C65.242 31.1245 65.9798 30.7709 66.522 30.0637C67.049 29.3565 67.3125 28.3784 67.3125 27.1295C67.3125 25.8807 67.049 24.9026 66.522 24.1954C65.9798 23.4882 65.242 23.1346 64.3083 23.1346ZM75.896 33.9909V20.4036H79.4875V33.9909H75.896ZM75.8734 15.5059H79.5101V18.8237H75.8734V15.5059ZM88.4098 33.9909H84.8183V15.6413H90.4428L93.7858 30.1765L97.0837 15.6413H102.64V33.9909H99.0488V18.5754L95.6155 33.9909H91.8432L88.4098 18.2143V33.9909ZM113.279 34.352C111.201 34.352 109.605 33.7125 108.491 32.4335C107.361 31.1546 106.797 29.3414 106.797 26.9941C106.812 24.8123 107.384 23.112 108.513 21.8932C109.658 20.6594 111.246 20.0425 113.279 20.0425C115.342 20.0425 116.939 20.6669 118.068 21.9158C119.182 23.1797 119.74 24.9703 119.74 27.2875C119.755 27.5433 119.732 27.8142 119.672 28.1H110.411C110.501 29.1684 110.742 29.9658 111.133 30.4925C111.63 31.1696 112.466 31.5081 113.641 31.5081C114.183 31.5081 114.68 31.3502 115.132 31.0342C115.598 30.7332 115.877 30.3646 115.967 29.9282H119.627C119.31 31.3125 118.595 32.3959 117.481 33.1783C116.351 33.9608 114.951 34.352 113.279 34.352ZM116.012 25.7979C115.922 24.9854 115.704 24.3459 115.357 23.8794C114.891 23.2775 114.175 22.9766 113.212 22.9766C112.293 22.9766 111.593 23.3302 111.111 24.0374C110.81 24.4888 110.591 25.0756 110.456 25.7979H116.012ZM128.978 34.352C127.231 34.352 125.831 33.6749 124.777 32.3207C123.708 30.9815 123.173 29.206 123.173 26.9941C123.173 24.9176 123.708 23.2399 124.777 21.9609C125.831 20.682 127.216 20.0425 128.933 20.0425C130.484 20.0425 131.726 20.6895 132.66 21.9835L132.818 22.1866V15.6413H136.41V33.9909H132.931V32.253L132.863 32.3433C131.869 33.6824 130.574 34.352 128.978 34.352ZM129.927 23.1346C128.963 23.1346 128.21 23.5032 127.668 24.2405C127.126 24.9778 126.862 26.001 126.877 27.3101C126.877 28.6041 127.141 29.6123 127.668 30.3345C128.21 31.0417 128.963 31.3953 129.927 31.3953C130.891 31.3953 131.643 31.0191 132.186 30.2668C132.728 29.5144 132.999 28.4612 132.999 27.1069C132.999 25.8581 132.728 24.8876 132.186 24.1954C131.643 23.4882 130.891 23.1346 129.927 23.1346Z" fill="#102694"/>
<path d="M144.654 37.7826C131.372 44.4634 106.187 49 77.3191 49C34.6276 49 0 39.1142 0 26.9489C0 22.0285 5.66962 17.4694 15.2696 13.813C8.92231 16.9954 5.28562 20.6969 5.28562 24.6467C5.28562 36.8121 39.9132 46.6753 82.6047 46.6753C108.016 46.6753 130.559 43.1769 144.654 37.7826Z" fill="#77C24C"/>
<path d="M79.1937 0C127.126 0 166 10.6983 166 23.8568C166 27.9194 162.318 31.7563 155.79 35.0967C159.11 32.614 162.95 31.1469 163.402 24.2404C163.786 16.1377 143.254 9.38923 121.727 5.95855C108.332 2.93414 84.6826 2.68586 76.7994 2.68586C47.864 2.68586 19.8548 6.8388 4.06567 12.8199C5.62425 11.714 7.45389 10.6532 9.532 9.63751C25.3663 3.79182 50.6875 0 79.1937 0Z" fill="#77C24C"/>
</svg>
