<svg width="227" height="67" viewBox="0 0 227 67" fill="none" xmlns="http://www.w3.org/2000/svg">
<path d="M197.636 51.6614C179.49 60.7964 145.079 66.9995 105.638 66.9995C47.3104 66.9995 0 53.4823 0 36.848C0 30.1202 7.74621 23.8863 20.8623 18.8867C12.1902 23.2382 7.22156 28.2994 7.22156 33.7002C7.22156 50.3344 54.532 63.8208 112.86 63.8208C147.579 63.8208 178.378 59.0373 197.636 51.6614Z" fill="white"/>
<path d="M108.2 0C173.687 0 226.8 14.6283 226.8 32.6204C226.8 38.1755 221.769 43.4219 212.85 47.9894C217.387 44.6255 222.633 42.5886 223.251 33.1451C223.775 22.0659 195.722 12.8383 166.312 8.1474C148.011 4.01198 115.699 3.67251 104.928 3.67251C65.3949 3.67251 27.1269 9.351 5.55481 17.5293C7.68424 16.017 10.184 14.5666 13.0233 13.1778C34.657 5.18473 69.2526 0 108.2 0Z" fill="white"/>
<path fill-rule="evenodd" clip-rule="evenodd" d="M39.9963 46.5084V21.3873H50.7361C54.1926 21.3873 56.8158 22.4057 58.6057 24.4426C60.3957 26.4589 61.2907 29.4215 61.2907 33.3306C61.2907 37.6306 60.3648 40.902 58.5131 43.1445C56.6409 45.3871 53.9045 46.5084 50.304 46.5084H39.9963ZM45.2428 42.1879H49.6868C51.8059 42.1879 53.4004 41.4574 54.4703 39.9967C55.5402 38.5565 56.0751 36.3962 56.0751 33.5158C56.0751 30.9234 55.571 28.9689 54.5629 27.6521C53.5753 26.356 52.0837 25.7079 50.088 25.7079H45.2428V42.1879ZM67.5864 46.5084V27.9299H72.4625V46.5084H67.5864ZM67.5555 21.2021H72.5242V25.7696H67.5555V21.2021ZM88.0166 50.3352C89.3951 50.3352 90.3929 50.006 91.0101 49.3477C91.6068 48.6687 91.9051 47.568 91.9051 46.0455V43.7618L91.5039 44.3481C90.434 45.8295 88.8807 46.5701 86.8439 46.5701C84.4367 46.5701 82.4924 45.706 81.0111 43.9778C79.5091 42.2496 78.7582 39.9555 78.7582 37.0957C78.7582 34.1742 79.4886 31.8287 80.9493 30.0593C82.3895 28.29 84.2927 27.4053 86.6587 27.4053C88.7367 27.4053 90.3517 28.1665 91.5039 29.689C91.7096 29.9565 91.9051 30.2651 92.0903 30.6149V27.899H96.6886V45.49C96.6886 48.4321 95.9685 50.6027 94.5283 52.0017C93.0676 53.3802 90.8044 54.0695 87.7388 54.0695C85.2082 54.0695 83.2022 53.5859 81.7209 52.619C80.219 51.6314 79.4165 50.2632 79.3137 48.5144H84.6527C84.6939 49.1522 84.9819 49.6151 85.5168 49.9032C86.0723 50.1912 86.9056 50.3352 88.0166 50.3352ZM87.8623 31.6333C86.5867 31.6333 85.5991 32.1271 84.8996 33.1146C84.1795 34.0816 83.8194 35.4292 83.8194 37.1574C83.8194 38.8651 84.1795 40.1921 84.8996 41.1386C85.5991 42.085 86.5867 42.5582 87.8623 42.5582C89.1379 42.5582 90.146 42.0747 90.8867 41.1077C91.6068 40.1407 91.9668 38.8034 91.9668 37.0957C91.9668 35.3881 91.6068 34.0507 90.8867 33.0838C90.146 32.1168 89.1379 31.6333 87.8623 31.6333ZM103.694 46.4775V27.899H108.601V46.4775H103.694ZM103.663 21.2021H108.632V25.7387H103.663V21.2021ZM120.791 46.4775H115.884V21.3873H123.569L128.136 41.262L132.642 21.3873H140.234V46.4775H135.327V25.3993L130.636 46.4775H125.482L120.791 24.9055V46.4775ZM154.77 46.9714C151.93 46.9714 149.75 46.097 148.227 44.3481C146.684 42.5993 145.912 40.1201 145.912 36.9105C145.933 33.9273 146.715 31.6024 148.258 29.9359C149.822 28.2488 151.992 27.4053 154.77 27.4053C157.588 27.4053 159.769 28.2591 161.312 29.9667C162.835 31.695 163.596 34.1433 163.596 37.3117C163.617 37.6615 163.586 38.0318 163.503 38.4227H150.85C150.974 39.8835 151.303 40.9739 151.838 41.694C152.517 42.6199 153.659 43.0828 155.263 43.0828C156.004 43.0828 156.683 42.8668 157.3 42.4347C157.938 42.0232 158.319 41.5192 158.442 40.9225H163.442C163.01 42.8153 162.032 44.2967 160.51 45.3665C158.967 46.4364 157.053 46.9714 154.77 46.9714ZM158.504 35.2749C158.38 34.1639 158.082 33.2895 157.609 32.6517C156.971 31.8287 155.994 31.4172 154.677 31.4172C153.422 31.4172 152.465 31.9007 151.807 32.8677C151.395 33.4849 151.097 34.2873 150.912 35.2749H158.504ZM176.218 46.9714C173.832 46.9714 171.918 46.0455 170.478 44.1938C169.017 42.3627 168.287 39.9349 168.287 36.9105C168.287 34.0713 169.017 31.7773 170.478 30.0285C171.918 28.2797 173.811 27.4053 176.157 27.4053C178.276 27.4053 179.973 28.29 181.249 30.0593L181.465 30.3371V21.3873H186.372V46.4775H181.619V44.1012L181.526 44.2247C180.169 46.0558 178.399 46.9714 176.218 46.9714ZM177.514 31.6333C176.198 31.6333 175.169 32.1373 174.428 33.1455C173.688 34.1536 173.328 35.5526 173.348 37.3426C173.348 39.112 173.708 40.4905 174.428 41.478C175.169 42.445 176.198 42.9285 177.514 42.9285C178.831 42.9285 179.86 42.4141 180.601 41.3854C181.341 40.3567 181.712 38.9165 181.712 37.0648C181.712 35.3572 181.341 34.0302 180.601 33.0838C179.86 32.1168 178.831 31.6333 177.514 31.6333Z" fill="white"/>
<path d="M197.636 51.6614C179.49 60.7964 145.079 66.9995 105.638 66.9995C47.3104 66.9995 0 53.4823 0 36.848C0 30.1202 7.74621 23.8863 20.8623 18.8867C12.1902 23.2382 7.22156 28.2994 7.22156 33.7002C7.22156 50.3344 54.532 63.8208 112.86 63.8208C147.579 63.8208 178.378 59.0373 197.636 51.6614Z" fill="white"/>
<path d="M108.2 0C173.687 0 226.8 14.6283 226.8 32.6204C226.8 38.1755 221.769 43.4219 212.85 47.9894C217.387 44.5946 222.633 42.5886 223.251 33.1451C223.775 22.0659 195.722 12.8383 166.312 8.1474C148.011 4.01198 115.699 3.67251 104.928 3.67251C65.3949 3.67251 27.1269 9.351 5.55481 17.5293C7.68424 16.017 10.184 14.5666 13.0233 13.1778C34.657 5.18473 69.2526 0 108.2 0Z" fill="white"/>
</svg>
