<svg width="80" height="80" viewBox="0 0 80 80" fill="none" xmlns="http://www.w3.org/2000/svg">
<path fill-rule="evenodd" clip-rule="evenodd" d="M40.0003 7.4292C48.9942 7.4292 57.137 11.075 63.0311 16.969C68.9253 22.8633 72.5709 31.0059 72.5709 39.9998C72.5709 48.9937 68.9253 57.1365 63.0311 63.0306C57.137 68.9248 48.9944 72.5704 40.0003 72.5704C31.0062 72.5704 22.8636 68.9248 16.9695 63.0306C11.0755 57.1365 7.42969 48.9939 7.42969 39.9998C7.42969 31.0059 11.0755 22.8631 16.9695 16.969C22.8637 11.075 31.0064 7.4292 40.0003 7.4292ZM61.2636 18.7367C55.822 13.295 48.3042 9.9292 40.0003 9.9292C31.6964 9.9292 24.1788 13.295 18.737 18.7367C13.2956 24.1783 9.92969 31.6961 9.92969 39.9998C9.92969 48.3037 13.2955 55.8215 18.7372 61.2631C24.1787 66.7047 31.6966 70.0704 40.0005 70.0704C48.3044 70.0704 55.822 66.7047 61.2637 61.2631C66.7053 55.8214 70.0711 48.3037 70.0711 39.9998C70.0711 31.6959 66.7053 24.1783 61.2636 18.7367Z" fill="#333333"/>
<path fill-rule="evenodd" clip-rule="evenodd" d="M33.8764 47.8913L18.7367 63.031L16.9692 61.2635L32.1089 46.1238L33.8764 47.8913ZM31.4421 33.2097L16.9692 18.7369L18.7367 16.9694L33.2096 31.4422L31.4421 33.2097ZM46.3342 31.8983L61.2633 16.9692L63.0308 18.7367L48.1017 33.6658L46.3342 31.8983ZM47.5403 45.7727L63.0308 61.2631L61.2633 63.0306L45.7728 47.5402L47.5403 45.7727Z" fill="#333333"/>
<path fill-rule="evenodd" clip-rule="evenodd" d="M42.6255 28.9991C43.7896 29.2764 44.9019 29.7375 45.9207 30.3652L48.0619 29.4141L50.5857 31.9379L49.6349 34.0785C50.2627 35.0976 50.724 36.2102 51.0013 37.3746L53.1858 38.2155V41.7846L51.0007 42.6257C50.7235 43.7897 50.2623 44.9021 49.6346 45.9208L50.5855 48.0621L48.0618 50.5858L45.9213 49.6351C44.9022 50.2629 43.7896 50.7241 42.6252 51.0015L41.7843 53.186H38.2155L37.3744 51.0008C36.2104 50.7236 35.098 50.2624 34.0793 49.6347L31.938 50.5858L29.4143 48.0621L30.3651 45.9215C29.7372 44.9024 29.2759 43.7898 28.9987 42.6254L26.814 41.7844V38.2155L28.9988 37.3744C29.276 36.2103 29.7372 35.0978 30.3651 34.079L29.4141 31.9379L31.9377 29.4141L34.079 30.3652C35.0977 29.7375 36.2101 29.2764 37.3741 28.9991L38.2152 26.814H41.7841L42.6255 28.9991Z" fill="#333333"/>
<path fill-rule="evenodd" clip-rule="evenodd" d="M34.0795 49.6346L31.9382 50.5857L31.6086 50.256L33.6161 49.3644C33.7684 49.4582 33.9229 49.5483 34.0795 49.6346ZM42.6257 28.9991C43.7898 29.2764 44.9022 29.7375 45.9209 30.3652L45.3123 30.6355C44.2932 30.008 42.7179 29.2762 41.5537 28.9991L40.7126 26.814H41.7846L42.6257 28.9991ZM45.9217 49.6349C44.9026 50.2627 43.7899 50.724 42.6256 51.0013L41.7846 53.1858H40.7126L41.5536 51.0013C42.7181 50.7243 44.2939 49.9922 45.3131 49.3646L45.9217 49.6349ZM31.6084 29.7438L31.9381 29.4141L34.0793 30.3652C33.9227 30.4517 33.7682 30.5418 33.6159 30.6355L31.6084 29.7438ZM47.3198 29.7438L48.0621 29.4141L50.5859 31.9379L49.6351 34.0785C50.2629 35.0976 50.7242 36.2102 51.0015 37.3746L53.1861 38.2155V41.7846L51.0009 42.6257C50.7237 43.7897 50.2625 44.9021 49.6348 45.9208L50.5857 48.0621L48.062 50.5858L47.3196 50.2562L49.5136 48.0621L48.5625 45.9208C49.1901 44.9021 49.6513 43.7897 49.9286 42.6257L52.1137 41.7846V38.2155L49.9292 37.3746C49.6519 36.2102 49.1906 35.0975 48.5628 34.0785L49.5136 31.9379L47.3198 29.7438Z" fill="#333333"/>
<path fill-rule="evenodd" clip-rule="evenodd" d="M40 33.0078C36.138 33.0078 33.0078 36.1381 33.0078 40.0002C33.0078 43.8622 36.138 46.9923 40 46.9923C43.862 46.9923 46.9923 43.8622 46.9923 40.0002C46.9923 36.138 43.862 33.0078 40 33.0078Z" fill="white"/>
<path fill-rule="evenodd" clip-rule="evenodd" d="M40 33.0078C36.1381 33.0078 33.0078 36.138 33.0078 40C33.0078 43.8619 36.138 46.9922 40 46.9922C40.1872 46.9922 40.3727 46.9847 40.5561 46.9702C36.9542 46.6867 34.12 43.6747 34.12 40C34.12 36.3252 36.9542 33.3131 40.5561 33.0297C40.3711 33.0151 40.1856 33.0079 40 33.0078Z" fill="white"/>
<path fill-rule="evenodd" clip-rule="evenodd" d="M59.4688 49.1032L76.757 49.103C76.8671 49.1035 76.976 49.0794 77.0757 49.0323C77.1753 48.9853 77.2632 48.9167 77.3329 48.8313C77.4026 48.746 77.4524 48.6462 77.4785 48.5391C77.5047 48.4321 77.5066 48.3206 77.4841 48.2127C76.5954 43.8504 72.7376 40.5679 68.1129 40.5679C63.488 40.5679 59.6304 43.8505 58.7416 48.2127C58.7191 48.3206 58.7211 48.4321 58.7472 48.5392C58.7734 48.6462 58.8231 48.7461 58.8928 48.8314C58.9625 48.9168 59.0504 48.9855 59.1501 49.0325C59.2497 49.0795 59.3586 49.1037 59.4688 49.1032Z" fill="#102694"/>
<path fill-rule="evenodd" clip-rule="evenodd" d="M75.067 49.1033H76.7573C76.8675 49.1037 76.9764 49.0796 77.076 49.0326C77.1757 48.9856 77.2635 48.9169 77.3332 48.8316C77.4029 48.7462 77.4527 48.6464 77.4789 48.5394C77.505 48.4324 77.5069 48.3208 77.4845 48.213C76.5957 43.8506 72.7379 40.5681 68.1132 40.5681C67.8284 40.5681 67.5465 40.5808 67.2681 40.605C71.5115 40.9766 74.9601 44.1192 75.7942 48.213C75.8166 48.3208 75.8147 48.4323 75.7885 48.5394C75.7623 48.6464 75.7125 48.7462 75.6429 48.8315C75.5732 48.9168 75.4853 48.9855 75.3857 49.0325C75.286 49.0796 75.1771 49.1037 75.067 49.1033Z" fill="#102694"/>
<path d="M68.113 39.0055C70.7836 39.0055 72.9486 36.8405 72.9486 34.1699C72.9486 31.4992 70.7836 29.3342 68.113 29.3342C65.4423 29.3342 63.2773 31.4992 63.2773 34.1699C63.2773 36.8405 65.4423 39.0055 68.113 39.0055Z" fill="#102694"/>
<path fill-rule="evenodd" clip-rule="evenodd" d="M68.1132 29.334C70.7838 29.334 72.9488 31.499 72.9488 34.1696C72.9488 36.8402 70.7838 39.0052 68.1132 39.0052C67.8845 39.0052 67.6596 38.989 67.4395 38.9582C69.7912 38.6304 71.6015 36.6115 71.6015 34.1695C71.6015 31.7276 69.7912 29.7087 67.4395 29.3807C67.6627 29.3498 67.8878 29.3342 68.1132 29.334Z" fill="#102694"/>
<path fill-rule="evenodd" clip-rule="evenodd" d="M31.356 77.6167H48.6441C48.7543 77.6172 48.8632 77.593 48.9628 77.546C49.0625 77.499 49.1503 77.4303 49.22 77.345C49.2897 77.2597 49.3395 77.1598 49.3657 77.0528C49.3918 76.9458 49.3937 76.8343 49.3713 76.7264C48.4825 72.364 44.6247 69.0815 40 69.0815C35.3753 69.0815 31.5175 72.3642 30.6288 76.7264C30.6063 76.8342 30.6083 76.9458 30.6345 77.0528C30.6606 77.1598 30.7104 77.2596 30.7801 77.3449C30.8498 77.4303 30.9377 77.4989 31.0373 77.546C31.1369 77.593 31.2458 77.6171 31.356 77.6167Z" fill="#102694"/>
<path fill-rule="evenodd" clip-rule="evenodd" d="M46.954 77.6167H48.6443C48.7545 77.6172 48.8634 77.593 48.9631 77.546C49.0627 77.499 49.1506 77.4303 49.2203 77.345C49.29 77.2597 49.3398 77.1598 49.366 77.0528C49.3922 76.9458 49.3941 76.8343 49.3717 76.7264C48.4829 72.364 44.6251 69.0815 40.0004 69.0815C39.7156 69.0815 39.4337 69.0942 39.1553 69.1184C43.3987 69.49 46.8473 72.6328 47.6814 76.7264C47.7038 76.8343 47.7019 76.9458 47.6757 77.0528C47.6495 77.1598 47.5997 77.2597 47.53 77.345C47.4603 77.4303 47.3724 77.499 47.2728 77.546C47.1731 77.593 47.0642 77.6172 46.954 77.6167Z" fill="#102694"/>
<path d="M40.0002 67.5189C42.6708 67.5189 44.8358 65.3539 44.8358 62.6833C44.8358 60.0126 42.6708 57.8477 40.0002 57.8477C37.3295 57.8477 35.1646 60.0126 35.1646 62.6833C35.1646 65.3539 37.3295 67.5189 40.0002 67.5189Z" fill="#102694"/>
<path fill-rule="evenodd" clip-rule="evenodd" d="M39.9999 57.8477C42.6705 57.8477 44.8355 60.0127 44.8355 62.6833C44.8355 65.3539 42.6705 67.5189 39.9999 67.5189C39.7712 67.5189 39.5463 67.5027 39.3262 67.4719C41.6779 67.1441 43.4882 65.1252 43.4882 62.6831C43.4882 60.2411 41.6779 58.2223 39.3262 57.8944C39.5494 57.8634 39.7745 57.8478 39.9999 57.8477Z" fill="#102694"/>
<path fill-rule="evenodd" clip-rule="evenodd" d="M3.24324 49.1032L20.5314 49.103C20.6415 49.1035 20.7504 49.0794 20.8501 49.0323C20.9497 48.9853 21.0376 48.9167 21.1073 48.8313C21.177 48.746 21.2268 48.6462 21.2529 48.5391C21.2791 48.4321 21.281 48.3206 21.2586 48.2127C20.3698 43.8504 16.512 40.5679 11.8873 40.5679C7.26246 40.5679 3.40481 43.8505 2.51606 48.2127C2.49356 48.3206 2.49547 48.4321 2.52162 48.5392C2.54777 48.6462 2.59752 48.7461 2.66722 48.8314C2.73692 48.9168 2.82482 48.9855 2.92448 49.0325C3.02414 49.0795 3.13305 49.1037 3.24324 49.1032Z" fill="#102694"/>
<path fill-rule="evenodd" clip-rule="evenodd" d="M18.8409 49.1033H20.5312C20.6414 49.1037 20.7503 49.0796 20.8499 49.0326C20.9496 48.9856 21.0375 48.9169 21.1072 48.8316C21.1769 48.7462 21.2266 48.6464 21.2528 48.5394C21.2789 48.4324 21.2809 48.3208 21.2584 48.213C20.3696 43.8506 16.5118 40.5681 11.8871 40.5681C11.6023 40.5681 11.3204 40.5808 11.042 40.605C15.2854 40.9766 18.734 44.1192 19.5681 48.213C19.5906 48.3208 19.5886 48.4324 19.5625 48.5394C19.5363 48.6464 19.4865 48.7462 19.4169 48.8316C19.3472 48.9169 19.2593 48.9856 19.1596 49.0326C19.06 49.0796 18.9511 49.1037 18.8409 49.1033Z" fill="#102694"/>
<path d="M12.1356 38.9968C14.8029 38.8631 16.8567 36.5924 16.723 33.9252C16.5893 31.2579 14.3186 29.204 11.6513 29.3377C8.98405 29.4714 6.93018 31.7421 7.0639 34.4094C7.19762 37.0767 9.46828 39.1306 12.1356 38.9968Z" fill="#102694"/>
<path fill-rule="evenodd" clip-rule="evenodd" d="M11.8871 29.334C14.5578 29.334 16.7228 31.499 16.7228 34.1696C16.7228 36.8402 14.5578 39.0052 11.8871 39.0052C11.6584 39.0052 11.4335 38.989 11.2134 38.9582C13.5651 38.6304 15.3754 36.6115 15.3754 34.1695C15.3754 31.7276 13.5651 29.7087 11.2134 29.3807C11.4366 29.3498 11.6617 29.3342 11.8871 29.334Z" fill="#102694"/>
<path fill-rule="evenodd" clip-rule="evenodd" d="M31.356 22.1523L48.6441 22.1521C48.7543 22.1526 48.8632 22.1284 48.9628 22.0814C49.0625 22.0344 49.1504 21.9657 49.2201 21.8804C49.2898 21.7951 49.3395 21.6952 49.3657 21.5882C49.3919 21.4812 49.3938 21.3697 49.3713 21.2618C48.4826 16.8994 44.6248 13.6169 40.0001 13.6169C35.3754 13.6169 31.5176 16.8996 30.6288 21.2618C30.6064 21.3697 30.6083 21.4812 30.6344 21.5882C30.6606 21.6953 30.7104 21.7951 30.78 21.8804C30.8497 21.9658 30.9376 22.0345 31.0373 22.0815C31.1369 22.1285 31.2458 22.1527 31.356 22.1523Z" fill="#102694"/>
<path fill-rule="evenodd" clip-rule="evenodd" d="M46.954 22.1523H48.6443C48.7545 22.1528 48.8634 22.1287 48.9631 22.0817C49.0627 22.0346 49.1506 21.966 49.2203 21.8806C49.29 21.7953 49.3398 21.6955 49.366 21.5885C49.3922 21.4814 49.3941 21.3699 49.3717 21.262C48.4829 16.8997 44.6251 13.6172 40.0004 13.6172C39.7156 13.6172 39.4337 13.6298 39.1553 13.6541C43.3987 14.0256 46.8473 17.1684 47.6814 21.262C47.7038 21.3699 47.7019 21.4814 47.6757 21.5885C47.6495 21.6955 47.5997 21.7953 47.53 21.8806C47.4603 21.966 47.3724 22.0346 47.2728 22.0817C47.1731 22.1287 47.0642 22.1528 46.954 22.1523Z" fill="#102694"/>
<path d="M40.0002 12.0543C42.6708 12.0543 44.8358 9.88932 44.8358 7.21868C44.8358 4.54804 42.6708 2.38306 40.0002 2.38306C37.3295 2.38306 35.1646 4.54804 35.1646 7.21868C35.1646 9.88932 37.3295 12.0543 40.0002 12.0543Z" fill="#102694"/>
<path fill-rule="evenodd" clip-rule="evenodd" d="M39.9999 2.38306C42.6705 2.38306 44.8355 4.54806 44.8355 7.21868C44.8355 9.88931 42.6705 12.0543 39.9999 12.0543C39.7712 12.0543 39.5463 12.0381 39.3262 12.0073C41.6779 11.6795 43.4882 9.66056 43.4882 7.21853C43.4882 4.77649 41.6779 2.75774 39.3262 2.42978C39.5494 2.39877 39.7745 2.38316 39.9999 2.38306Z" fill="#102694"/>
</svg>
