<svg width="35" height="35" viewBox="0 0 35 35" fill="none" xmlns="http://www.w3.org/2000/svg">
<circle opacity="0.1" cx="17.5" cy="17.5" r="17.5" fill="#4F694D"/>
<path d="M15.5801 19.04H13.6001C13.2801 19.04 13.1801 18.92 13.1801 18.62V16.2C13.1801 15.88 13.3001 15.78 13.6001 15.78H15.5801V14.02C15.5801 13.22 15.7201 12.46 16.1201 11.76C16.5401 11.04 17.1401 10.56 17.9001 10.28C18.4001 10.1 18.9001 10.02 19.4401 10.02H21.4001C21.6801 10.02 21.8001 10.14 21.8001 10.42V12.7C21.8001 12.98 21.6801 13.1 21.4001 13.1C20.8601 13.1 20.3201 13.1 19.7801 13.12C19.2401 13.12 18.9601 13.38 18.9601 13.94C18.9401 14.54 18.9601 15.12 18.9601 15.74H21.2801C21.6001 15.74 21.7201 15.86 21.7201 16.18V18.6C21.7201 18.92 21.6201 19.02 21.2801 19.02H18.9601V25.54C18.9601 25.88 18.8601 26 18.5001 26H16.0001C15.7001 26 15.5801 25.88 15.5801 25.58V19.04Z" fill="#333333"/>
</svg>
