<svg width="18" height="18" viewBox="0 0 18 18" fill="none" xmlns="http://www.w3.org/2000/svg">
<g clip-path="url(#clip0_510_21420)">
<path d="M17.8463 8.59926L12.4466 2.59958C12.3314 2.47239 12.1706 2.40039 12.0003 2.40039H8.40045C8.28455 2.40052 8.17115 2.4341 8.07388 2.4971C7.9766 2.56011 7.89958 2.64986 7.85208 2.75557C7.75608 2.97276 7.79568 3.22595 7.95407 3.40114L12.9926 9.00003L7.95407 14.5977C7.79568 14.7741 7.75488 15.0273 7.85208 15.2433C7.94927 15.4605 8.16406 15.5997 8.40045 15.5997H12.0003C12.1706 15.5997 12.3314 15.5265 12.4466 15.4017L17.8463 9.40201C18.0515 9.17402 18.0515 8.82604 17.8463 8.59926Z" fill="#7F7F7F"/>
<path d="M10.0465 8.59926L4.64682 2.59958C4.53163 2.47239 4.37084 2.40039 4.20045 2.40039H0.600642C0.484745 2.40052 0.371348 2.4341 0.274073 2.4971C0.176798 2.56011 0.0997802 2.64986 0.0522719 2.75557C-0.0437229 2.97276 -0.00412505 3.22595 0.154266 3.40114L5.19279 9.00003L0.154266 14.5977C-0.00412505 14.7741 -0.0449228 15.0273 0.0522719 15.2433C0.149467 15.4605 0.364255 15.5997 0.600642 15.5997H4.20045C4.37084 15.5997 4.53163 15.5265 4.64682 15.4017L10.0465 9.40201C10.2517 9.17402 10.2517 8.82604 10.0465 8.59926Z" fill="#7F7F7F"/>
</g>
<defs>
<clipPath id="clip0_510_21420">
<rect width="18" height="18" fill="white"/>
</clipPath>
</defs>
</svg>
