<svg width="667" height="458" viewBox="0 0 667 458" fill="none" xmlns="http://www.w3.org/2000/svg">
<path d="M178.805 428.82C273.369 452.539 427.881 455.145 532.193 405.257C628.529 359.122 648.338 189.596 582.237 93.4166C535.268 25.0745 445.24 -2.1894 358.914 7.50673C257.052 18.9232 229.997 89.3505 162.436 139.968C120.368 171.455 34.4578 163.688 18.2455 255.592C-0.260603 360.269 113.539 412.399 178.805 428.82Z" fill="#FAFAFA"/>
<path d="M509.568 426.265C521.715 215.922 613.202 190.013 627.538 207.737C657.669 244.801 553.149 360.842 509.568 426.265Z" fill="#627984"/>
<path d="M617.581 216.026C566.389 275.766 529.847 347.966 512.07 424.597" stroke="white" stroke-opacity="0.2" stroke-width="2" stroke-miterlimit="10" stroke-linecap="round"/>
<path opacity="0.2" d="M590.578 217.85C593.549 226.66 595.165 235.887 595.374 245.218C605.174 243.081 615.131 241.934 625.14 241.83" stroke="white" stroke-width="2" stroke-miterlimit="10" stroke-linecap="round"/>
<path d="M555.39 254.289C561.124 264.298 565.399 275.141 567.953 286.401C579.578 283.899 591.464 282.7 603.35 282.804" stroke="white" stroke-opacity="0.2" stroke-width="2" stroke-miterlimit="10" stroke-linecap="round"/>
<path d="M531.098 307.149C535.894 314.707 540.064 322.631 543.452 330.868C554.712 326.332 566.911 324.091 579.005 324.456" stroke="white" stroke-opacity="0.2" stroke-width="2" stroke-miterlimit="10" stroke-linecap="round"/>
<path d="M554.035 357.923C546.632 357.402 539.178 357.923 531.932 359.591C530.055 353.596 527.396 347.914 524.06 342.649" stroke="white" stroke-opacity="0.2" stroke-width="2" stroke-miterlimit="10" stroke-linecap="round"/>
<path d="M509.568 426.265C576.816 319.191 662.673 283.899 666.583 322.579C671.953 376.168 556.016 411.147 509.568 426.265Z" fill="#627984"/>
<path d="M655.897 326.385C602.933 351.667 553.931 385.187 511.237 425.431" stroke="white" stroke-opacity="0.2" stroke-width="2" stroke-miterlimit="10" stroke-linecap="round"/>
<path d="M636.87 315.229C637.078 322.683 636.348 330.19 634.732 337.436C642.083 338.166 649.172 341.085 654.907 345.725" stroke="white" stroke-opacity="0.2" stroke-width="2" stroke-miterlimit="10" stroke-linecap="round"/>
<path d="M601.004 331.754C602.412 339.626 602.933 347.653 602.62 355.629C612.577 356.516 622.273 359.956 630.562 365.482" stroke="white" stroke-opacity="0.2" stroke-width="2" stroke-miterlimit="10" stroke-linecap="round"/>
<path d="M567.068 356.463C569.831 362.615 571.082 369.392 570.821 376.116C579.996 376.846 589.014 379.765 596.886 384.561" stroke="white" stroke-opacity="0.2" stroke-width="2" stroke-miterlimit="10" stroke-linecap="round"/>
<path d="M391.599 258.199H540.69V273.838H391.599V258.199Z" fill="#808AB0"/>
<path d="M536.311 273.838V426.265H523.07V417.924H409.166V426.265H395.978V273.838H536.311Z" fill="#808AB0"/>
<path d="M395.978 273.838H536.311V276.966H395.978V273.838Z" fill="#435B78"/>
<path d="M410.053 287.496H521.871V321.38H410.053V287.496Z" fill="#435B78"/>
<path d="M408.906 284.368H523.018V318.252H408.906V284.368Z" fill="#BDDBFF"/>
<path d="M410.053 330.242H521.871V364.127H410.053V330.242Z" fill="#435B78"/>
<path d="M408.906 327.115H523.018V360.999H408.906V327.115Z" fill="#BDDBFF"/>
<path d="M410.053 372.989H521.871V406.873H410.053V372.989Z" fill="#435B78"/>
<path d="M408.906 369.861H523.018V403.745H408.906V369.861Z" fill="#BDDBFF"/>
<path d="M428.193 250.64V226.921H434.709V250.64C434.709 252.204 433.406 253.507 431.842 253.507H431.06C429.444 253.507 428.193 252.204 428.193 250.64Z" fill="white"/>
<path d="M426.994 226.139C426.994 225.722 427.359 225.409 427.776 225.409H435.126C435.543 225.409 435.856 225.722 435.856 226.139C435.856 226.556 435.543 226.921 435.126 226.921H427.776C427.359 226.869 426.994 226.556 426.994 226.139Z" fill="white"/>
<path d="M429.236 250.223V234.74H433.667V250.223C433.667 251.474 432.676 252.465 431.425 252.465C430.226 252.465 429.236 251.474 429.236 250.223Z" fill="#F0D3D8"/>
<path d="M441.225 250.64V226.921H447.741V250.64C447.741 252.204 446.438 253.507 444.874 253.507H444.092C442.476 253.507 441.225 252.204 441.225 250.64Z" fill="white"/>
<path d="M440.026 226.139C440.026 225.722 440.391 225.409 440.808 225.409H448.159C448.576 225.409 448.888 225.722 448.888 226.139C448.888 226.556 448.576 226.921 448.159 226.921H440.808C440.391 226.869 440.026 226.556 440.026 226.139Z" fill="white"/>
<path d="M442.268 250.223V234.74H446.699V250.223C446.699 251.474 445.709 252.465 444.457 252.465C443.259 252.465 442.268 251.474 442.268 250.223Z" fill="#F0D3D8"/>
<path d="M455.04 250.64V226.921H461.556V250.64C461.556 252.204 460.253 253.507 458.689 253.507H457.907C456.291 253.507 455.04 252.204 455.04 250.64Z" fill="white"/>
<path d="M453.841 226.139C453.841 225.722 454.206 225.409 454.623 225.409H461.973C462.39 225.409 462.703 225.722 462.703 226.139C462.703 226.556 462.39 226.921 461.973 226.921H454.623C454.206 226.869 453.841 226.556 453.841 226.139Z" fill="white"/>
<path d="M456.083 250.223V234.74H460.514V250.223C460.514 251.474 459.523 252.465 458.272 252.465C457.073 252.465 456.083 251.474 456.083 250.223Z" fill="#F0D3D8"/>
<path d="M469.115 250.64V226.921H475.631V250.64C475.631 252.204 474.328 253.507 472.764 253.507H471.982C470.366 253.507 469.115 252.204 469.115 250.64Z" fill="white"/>
<path d="M467.916 226.139C467.916 225.722 468.281 225.409 468.698 225.409H476.048C476.465 225.409 476.778 225.722 476.778 226.139C476.778 226.556 476.465 226.921 476.048 226.921H468.698C468.281 226.869 467.916 226.556 467.916 226.139Z" fill="white"/>
<path d="M470.158 250.223V234.74H474.589V250.223C474.589 251.474 473.598 252.465 472.347 252.465C471.148 252.465 470.158 251.474 470.158 250.223Z" fill="#F0D3D8"/>
<path d="M484.232 250.64V226.921H490.749V250.64C490.749 252.204 489.445 253.507 487.882 253.507H487.1C485.484 253.507 484.232 252.204 484.232 250.64Z" fill="white"/>
<path d="M483.034 226.139C483.034 225.722 483.399 225.409 483.816 225.409H491.166C491.583 225.409 491.896 225.722 491.896 226.139C491.896 226.556 491.583 226.921 491.166 226.921H483.816C483.399 226.869 483.034 226.556 483.034 226.139Z" fill="white"/>
<path d="M485.275 250.223V234.74H489.706V250.223C489.706 251.474 488.716 252.465 487.465 252.465C486.266 252.465 485.275 251.474 485.275 250.223Z" fill="#F0D3D8"/>
<path d="M421.729 228.276H502.009V230.362H421.729V228.276Z" fill="#A7C2D9"/>
<path d="M417.559 252.986H507.222V258.199H417.559V252.986Z" fill="#D49BA0"/>
<path d="M421.104 225.409H423.398V255.592H421.104V225.409Z" fill="#D49BA0"/>
<path d="M500.654 225.409H502.948V255.592H500.654V225.409Z" fill="#D49BA0"/>
<path d="M93.677 332.796C112.548 309.077 121.775 278.008 118.856 247.929C115.936 217.798 100.871 189.075 76.8912 169.109C77.2562 191.368 76.3178 213.68 74.1284 235.887C72.0432 257 68.8633 278.582 73.9198 299.173C76.8912 311.423 82.834 322.944 93.677 332.796Z" fill="#58A52C"/>
<path opacity="0.2" d="M91.9047 359.852C91.9047 285.254 111.662 261.17 82.6777 182.454" stroke="white" stroke-width="2" stroke-miterlimit="10" stroke-linecap="round"/>
<path opacity="0.2" d="M96.4919 195.435C94.4763 199.744 92.4432 204.053 90.3928 208.363C86.7958 206.59 82.8861 205.548 78.8721 205.235" stroke="white" stroke-width="2" stroke-miterlimit="10" stroke-linecap="round"/>
<path opacity="0.2" d="M76.2656 240.266C83.8766 240.579 91.3833 242.612 98.108 246.209C102.539 240.735 107.856 235.887 113.747 231.978" stroke="white" stroke-width="2" stroke-miterlimit="10" stroke-linecap="round"/>
<path opacity="0.2" d="M75.4316 276.444C83.0426 275.819 90.9142 277.852 97.274 282.022C103.477 275.454 110.619 269.772 118.439 265.184" stroke="white" stroke-width="2" stroke-miterlimit="10" stroke-linecap="round"/>
<path opacity="0.2" d="M78.8721 306.262C84.6063 306.888 90.08 309.599 93.9897 313.821C98.108 308.191 103.165 303.187 108.899 299.121" stroke="white" stroke-width="2" stroke-miterlimit="10" stroke-linecap="round"/>
<path d="M107.283 330.503C107.283 330.503 91.2271 295.367 111.766 256.948C123.13 235.679 147.684 209.874 178.336 188.241C178.336 188.241 163.74 267.582 145.651 300.737C131.68 326.332 107.283 330.503 107.283 330.503Z" fill="#58A52C"/>
<path opacity="0.2" d="M167.232 203.619C135.59 254.393 113.07 309.859 95.2412 366.889" stroke="white" stroke-width="2" stroke-miterlimit="10" stroke-linecap="round"/>
<path d="M147.11 216.182C148.987 220.613 150.551 225.201 151.646 229.84C157.015 228.85 162.437 228.172 167.91 227.807" stroke="white" stroke-width="2" stroke-miterlimit="10" stroke-linecap="round"/>
<path opacity="0.2" d="M121.984 248.086C126.415 254.341 130.012 261.222 132.618 268.468C141.011 264.454 150.03 261.691 159.205 260.388" stroke="white" stroke-width="2" stroke-miterlimit="10" stroke-linecap="round"/>
<path opacity="0.2" d="M107.231 275.037C112.652 282.022 116.771 289.998 119.273 298.443C128.708 294.429 138.561 291.458 148.622 289.581" stroke="white" stroke-width="2" stroke-miterlimit="10" stroke-linecap="round"/>
<path opacity="0.2" d="M103.217 307.461C106.345 310.954 109.264 314.655 111.975 318.461C118.908 315.594 126.207 313.561 133.609 312.414" stroke="white" stroke-width="2" stroke-miterlimit="10" stroke-linecap="round"/>
<path d="M76.9955 337.592C76.9955 337.592 90.9142 317.887 80.5925 283.638C66.5175 236.773 7.81934 203.515 7.81934 203.515C7.81934 203.515 23.5625 267.634 35.813 299.642C48.272 331.962 76.9955 337.592 76.9955 337.592Z" fill="#58A52C"/>
<path opacity="0.2" d="M80.5923 354.795C80.5923 354.795 72.6164 290.259 15.5864 212.481" stroke="white" stroke-width="2" stroke-miterlimit="10" stroke-linecap="round"/>
<path opacity="0.2" d="M36.2299 226.087C34.5617 229.944 33.467 234.063 32.9457 238.233C28.9838 237.138 24.8134 236.565 20.6431 236.565" stroke="white" stroke-width="2" stroke-miterlimit="10" stroke-linecap="round"/>
<path opacity="0.2" d="M28.7231 269.563C36.4905 268.364 44.5706 268.885 52.0773 271.179C53.5369 264.194 56.8211 257.625 61.5128 252.204" stroke="white" stroke-width="2" stroke-miterlimit="10" stroke-linecap="round"/>
<path opacity="0.2" d="M78.5071 283.013C73.1899 288.851 69.0195 295.68 66.3088 303.083C58.9585 299.903 50.4613 299.329 42.7461 301.571" stroke="white" stroke-width="2" stroke-miterlimit="10" stroke-linecap="round"/>
<path opacity="0.2" d="M59.3232 327.271C64.3798 326.332 69.6449 326.28 74.7536 327.062C76.5261 322.944 79.0283 319.243 82.2082 316.063" stroke="white" stroke-width="2" stroke-miterlimit="10" stroke-linecap="round"/>
<path d="M130.533 343.066L128.291 355.473L125.893 369.079L124.642 376.273L122.244 389.931L115.78 426.265H68.9152L62.3469 389.931L59.8968 376.273L58.5935 369.079L56.1434 355.473L53.9019 343.066H130.533Z" fill="#455A64"/>
<path d="M128.291 355.473L125.893 369.079H58.5937L56.1436 355.473H128.291Z" fill="#263238"/>
<path d="M124.642 376.272L122.244 389.93H62.3471L59.897 376.272H124.642Z" fill="#263238"/>
<path d="M139.082 407.238H215.869V414.38H139.082V407.238Z" fill="#2C3A40"/>
<path d="M152.219 341.137C152.219 341.311 152.201 341.485 152.167 341.659L150.968 351.511L140.333 439.193C140.072 441.539 137.987 443.207 135.694 442.895C133.556 442.634 132.044 440.81 132.044 438.672C132.044 438.498 132.044 438.325 132.044 438.151L142.575 351.511L143.878 340.616C144.139 338.27 146.224 336.602 148.517 336.863C150.655 337.123 152.219 339 152.219 341.137Z" fill="#2C3A40"/>
<path d="M152.219 341.137C152.219 341.311 152.201 341.485 152.167 341.659L150.968 351.511H142.575L143.878 340.616C144.191 338.27 146.224 336.602 148.517 336.863C150.655 337.123 152.219 339 152.219 341.137Z" fill="#2C3A40"/>
<path d="M182.714 340.355V438.672C182.714 441.018 180.838 442.947 178.544 442.947C177.397 442.947 176.354 442.478 175.573 441.696C174.843 440.914 174.374 439.819 174.374 438.62V340.355C174.374 338.01 176.25 336.081 178.544 336.081C179.691 336.081 180.733 336.55 181.463 337.332C182.245 338.114 182.714 339.209 182.714 340.355Z" fill="#2C3A40"/>
<path d="M181.464 337.332C182.246 338.114 182.663 339.209 182.663 340.408V351.511H174.322V340.408C174.322 338.01 176.198 336.081 178.492 336.081C179.691 336.081 180.734 336.55 181.464 337.332Z" fill="#2C3A40"/>
<path d="M224.679 438.672C224.679 440.809 223.115 442.634 221.03 442.895C218.736 443.207 216.651 441.539 216.338 439.193L205.704 351.511L204.557 341.659C204.522 341.485 204.505 341.294 204.505 341.085C204.505 339 206.069 337.123 208.154 336.863C210.448 336.55 212.533 338.218 212.846 340.564L214.149 351.459L224.627 438.099C224.679 438.307 224.679 438.464 224.679 438.672Z" fill="#2C3A40"/>
<path d="M214.149 351.511H205.756L204.557 341.659C204.522 341.485 204.505 341.294 204.505 341.085C204.505 339 206.069 337.123 208.154 336.863C210.448 336.55 212.533 338.218 212.846 340.564L214.149 351.511Z" fill="#2C3A40"/>
<path d="M232.29 329.304V332.067C232.29 336.967 228.328 340.877 223.48 340.877H144.608C139.708 340.877 135.798 336.967 135.798 332.067V329.304C135.798 324.404 139.708 320.494 144.608 320.494H223.48C228.328 320.494 232.29 324.404 232.29 329.304Z" fill="#384950"/>
<path d="M232.29 329.304V332.067C232.29 336.967 228.328 340.877 223.48 340.877H151.854C147.006 340.877 143.044 336.967 143.044 332.067V329.304C143.044 324.404 147.006 320.494 151.854 320.494H223.48C228.328 320.494 232.29 324.404 232.29 329.304Z" fill="#2C3A40"/>
<path d="M149.925 153.679C148.935 155.712 147.944 157.745 147.058 159.726C146.432 163.166 146.797 166.763 147.058 170.308C147.267 173.801 147.423 177.398 146.432 180.838C145.442 184.227 143.148 187.459 139.76 188.762C137.518 189.596 134.912 189.648 133.191 191.264C131.263 193.089 131.367 196.164 132.097 198.667C132.67 200.804 133.609 202.889 135.329 204.349C136.997 205.861 139.708 206.799 141.532 205.756C143.357 204.662 145.755 205.443 147.058 207.06C148.361 208.676 148.987 210.709 150.29 212.377C152.115 214.67 155.19 215.869 158.214 215.922C161.237 216.026 164.417 215.609 166.45 214.358C170.725 211.647 176.094 209.822 180.525 212.377C182.871 213.732 184.696 215.817 187.198 216.808C189.335 217.59 191.837 217.433 193.818 216.391C195.851 215.348 196.633 213.054 197.885 211.334C200.178 208.102 205.808 210.709 209.666 209.666C213.836 208.519 216.651 203.932 215.661 199.866C214.67 195.799 210.187 194.34 206.173 193.766C203.41 193.349 202.263 189.805 201.638 187.198C200.96 184.539 201.117 181.829 201.221 179.118C201.429 173.592 203.984 160.716 202.368 158.996C201.534 158.058 198.406 155.764 197.259 155.295C192.046 152.897 186.816 150.499 181.568 148.101C176.824 145.911 171.82 143.722 166.555 143.826C161.289 143.982 153.679 146.016 149.925 153.679Z" fill="#263238"/>
<path d="M168.066 203.358C168.066 203.358 144.817 207.007 142.366 215.244C139.916 223.48 153.991 281.032 153.991 281.032L206.225 277.852C206.225 277.852 209.979 211.491 201.69 207.32C193.402 203.202 168.066 203.358 168.066 203.358Z" fill="#C8C8C8"/>
<path d="M188.293 205.652C188.293 205.652 184.905 217.173 178.753 219.727C172.654 222.229 159.205 206.851 159.205 206.851C161.915 205.131 162.906 200.96 163.271 197.207C163.583 193.349 163.219 189.909 163.219 189.909L181.881 193.506C181.412 199.292 183.08 202.316 184.852 203.932C186.573 205.443 188.293 205.652 188.293 205.652Z" fill="#FBBD9A"/>
<path d="M184.853 203.932C175.991 205.079 167.963 200.648 163.271 197.207C163.584 193.401 163.219 189.961 163.219 189.961L181.881 193.506C181.36 199.292 183.08 202.316 184.853 203.932Z" fill="#F0997F"/>
<path d="M238.859 422.043C236.826 425.379 201.899 403.849 201.899 400.148C201.899 397.75 206.486 394.257 209.666 392.12C211.334 390.973 212.638 390.191 212.638 390.191L220.77 386.438L224.471 388.419C229.788 397.646 234.897 407.238 237.451 413.91C239.015 417.872 239.589 420.791 238.859 422.043Z" fill="#455A64"/>
<path d="M237.504 413.91C227.495 414.327 214.254 398.167 209.667 392.12C211.335 390.973 212.638 390.191 212.638 390.191L220.822 386.438L224.471 388.419C229.841 397.646 234.949 407.238 237.504 413.91Z" fill="#F0997F"/>
<path d="M202.941 282.752C202.941 282.752 266.488 290.832 268.677 307.097C270.814 323.361 228.798 395.196 228.798 395.196L213.68 391.234L233.385 327.062L182.767 305.585L192.828 282.752H202.941Z" fill="#2C3A40"/>
<path d="M223.428 423.919C221.395 427.256 186.468 405.726 186.468 402.025C186.468 399.575 191.004 396.082 194.183 393.945C195.904 392.798 197.207 392.068 197.207 392.068L205.339 388.315L208.988 390.296C214.358 399.523 219.466 409.114 222.021 415.787C223.533 419.749 224.158 422.668 223.428 423.919Z" fill="#455A64"/>
<path d="M222.021 415.787C212.012 416.204 198.771 399.992 194.184 393.945C195.904 392.798 197.207 392.068 197.207 392.068L205.339 388.315L209.041 390.296C214.358 399.47 219.467 409.114 222.021 415.787Z" fill="#FBBD9A"/>
<path d="M149.3 277.33C149.3 277.33 127.249 320.859 166.033 325.603C194.184 328.991 212.846 328.313 213.419 329.877C214.41 332.379 195.122 393.215 195.122 393.215L214.097 399.21C214.097 399.21 253.403 314.812 251.266 307.461C249.493 301.414 195.278 292.187 195.278 292.187C199.866 290.05 203.202 282.126 202.733 271.961L149.3 277.33Z" fill="#2C3A40"/>
<path opacity="0.1" d="M155.399 273.525C155.399 273.525 142.784 301.362 152.897 312.622C164.782 325.915 216.912 321.641 220.561 326.332C223.481 330.086 200.439 391.599 200.439 391.599" stroke="white" stroke-width="2" stroke-miterlimit="10" stroke-linecap="round"/>
<path d="M196.634 390.66L215.036 396.238" stroke="#27788F" stroke-width="2" stroke-miterlimit="10" stroke-linecap="round"/>
<path d="M197.259 169.891C201.742 169.37 205.652 171.611 206.017 174.895C206.382 178.18 203.046 181.255 198.562 181.724C194.079 182.246 190.17 180.004 189.805 176.72C189.44 173.488 192.776 170.412 197.259 169.891Z" fill="#F0997F"/>
<path d="M152.896 169.63C152.896 154.148 162.697 141.637 175.886 141.637C189.075 141.637 199.761 154.148 199.761 169.63C199.761 185.113 193.036 198.406 180.63 198.875C168.118 199.344 152.896 185.061 152.896 169.63Z" fill="#FBBD9A"/>
<path d="M154.147 173.227C160.82 170.152 166.242 164.626 168.692 157.901C172.132 161.759 177.137 163.948 182.245 164.939C187.302 165.877 192.515 165.668 197.415 165.564C198.979 166.919 200.074 168.796 200.439 170.829C201.012 166.242 200.543 161.55 199.031 157.171C185.894 153.14 172.845 148.883 159.882 144.399C157.901 153.626 155.972 162.905 154.147 173.227Z" fill="#F0997F"/>
<path d="M166.555 150.811C169.37 156.181 174.844 159.726 180.578 161.55C186.312 163.375 192.411 163.688 198.563 163.844C199.501 167.18 199.71 171.142 199.71 174.583C201.795 169.682 202.89 165.512 203.098 161.498C203.15 160.299 203.15 159.152 203.098 157.901C202.785 149.352 199.293 144.556 194.549 140.907C189.805 137.258 184.019 135.746 178.076 135.746C172.185 135.746 168.432 137.049 166.19 139.395C165.391 140.229 164.783 141.167 164.366 142.21C163.375 144.452 164.47 146.902 166.555 150.811Z" fill="#263238"/>
<path d="M146.902 175.104C146.693 167.545 146.224 154.565 149.248 148.413C151.281 144.347 155.034 141.011 159.517 140.385C163.948 139.812 168.901 142.575 169.943 146.954C167.962 157.119 162.854 166.398 155.66 173.749C153.158 174.948 149.456 175.729 146.902 175.104Z" fill="#263238"/>
<path d="M166.19 139.395C174.791 137.049 184.487 139.134 191.629 144.556C197.155 148.726 201.117 154.825 203.098 161.498C203.15 160.351 203.15 159.152 203.098 157.901C202.785 149.404 199.292 144.556 194.549 140.907C189.805 137.31 184.018 135.746 178.076 135.746C172.133 135.746 168.432 137.101 166.19 139.395Z" fill="#263238"/>
<path d="M144.139 175.312C144.921 172.133 149.143 170.464 153.522 171.559C157.849 172.706 160.768 176.199 159.934 179.379C159.1 182.559 154.93 184.227 150.551 183.132C146.172 181.985 143.305 178.492 144.139 175.312Z" fill="#FBBD9A"/>
<path d="M176.772 175.365C177.45 175.365 178.023 176.251 178.023 177.346C178.023 178.44 177.45 179.326 176.772 179.326C176.094 179.326 175.521 178.44 175.521 177.346C175.521 176.251 176.094 175.365 176.772 175.365Z" fill="#2F344D"/>
<path d="M194.027 175.365C194.705 175.365 195.279 176.251 195.279 177.346C195.279 178.44 194.705 179.326 194.027 179.326C193.35 179.326 192.776 178.44 192.776 177.346C192.776 176.251 193.35 175.365 194.027 175.365Z" fill="#2F344D"/>
<path d="M190.43 168.119C192.515 167.389 195.539 167.545 197.676 169.005" stroke="#8C4206" stroke-width="2" stroke-miterlimit="10" stroke-linecap="round"/>
<path d="M177.867 167.91C175.521 166.867 171.247 167.076 169.266 169.37" stroke="#8C4206" stroke-width="2" stroke-miterlimit="10" stroke-linecap="round"/>
<path d="M185.634 176.146C186.156 178.232 185.739 180.89 185.061 182.506" stroke="#D45E4E" stroke-width="2" stroke-miterlimit="10" stroke-linecap="round"/>
<path d="M184.123 188.658C181.36 189.179 176.408 187.615 175.052 185.321" stroke="#D45E4E" stroke-width="2" stroke-miterlimit="10" stroke-linecap="round"/>
<path d="M194.026 212.69L203.358 207.06C203.358 207.06 211.177 207.737 216.494 217.486C221.812 227.182 231.768 258.616 234.896 260.023C238.024 261.379 276.287 261.9 276.287 261.9L276.808 273.108C276.808 273.108 229.944 280.51 224.366 277.435C218.788 274.359 200.699 238.129 200.699 238.129L194.026 212.69Z" fill="#FBBD9A"/>
<path d="M193.453 211.386L195.278 205.131C195.278 205.131 205.547 205.548 210.812 209.666C216.025 213.784 220.352 224.992 220.352 224.992L207.007 246.574L193.453 211.386Z" fill="#2F4B53"/>
<path d="M209.301 254.706C209.301 254.706 223.689 242.299 225.878 239.172C226.973 237.66 234.74 255.697 233.437 257.938C231.352 261.431 218.267 269.928 217.537 269.407C216.807 268.938 209.301 254.706 209.301 254.706Z" fill="#163649"/>
<path d="M205.547 243.394C209.891 236.513 214.218 229.649 218.528 222.803C218.788 222.438 218.997 222.021 219.414 221.76C220.456 221.03 222.02 221.917 222.489 223.168C222.907 224.367 222.594 225.722 222.281 226.973C223.636 226.765 224.887 228.12 225.044 229.475C225.252 230.883 224.627 232.238 224.001 233.489C219.987 241.048 213.263 247.147 205.339 250.432C204.974 248.086 204.244 245.479 205.547 243.394Z" fill="#2F4B53"/>
<path d="M270.396 263.62C275.714 259.867 286.088 252.412 286.869 252.048C287.808 251.631 294.116 251.578 297.504 252.621C300.945 253.664 304.124 256.009 305.376 259.398C305.74 260.336 305.845 261.639 305.011 262.161C304.437 262.526 303.707 262.421 303.134 262.057C302.561 261.744 302.143 261.222 301.726 260.753C299.433 258.251 297.348 257.261 293.594 257.052C298.025 257.73 300.892 260.493 302.196 264.819C302.456 265.706 302.561 266.8 301.883 267.322C301.309 267.791 300.475 267.687 299.902 267.269C299.276 266.905 298.911 266.279 298.442 265.758C296.826 263.673 294.637 262.004 292.187 261.014C295.575 262.474 298.13 265.81 298.651 269.511C298.755 270.032 298.807 270.606 298.599 271.127C298.39 271.596 297.817 272.013 297.295 271.909C296.878 271.857 296.566 271.544 296.305 271.231C294.428 269.094 292.969 266.905 290.519 265.393C292.76 268.364 294.689 273.264 294.22 274.516C294.063 274.933 293.073 275.61 292.03 274.516C290.779 273.317 289.945 271.231 288.068 268.885C284.784 272.535 279.571 274.203 274.828 273.108C273.316 269.928 271.804 266.696 270.396 263.62Z" fill="#FBBD9A"/>
<path d="M280.092 258.877C283.915 257.486 287.79 256.322 291.717 255.384C292.239 255.28 292.812 255.123 293.333 255.175C293.855 255.28 294.376 255.54 294.637 256.009C294.845 256.531 294.689 257.156 294.376 257.573C294.063 258.043 293.594 258.355 293.125 258.668C291.457 259.659 289.684 260.545 287.86 261.431C287.495 264.246 285.41 266.748 282.751 267.634" fill="#FBBD9A"/>
<path d="M280.092 258.877C283.915 257.486 287.79 256.322 291.717 255.384C292.239 255.28 292.812 255.123 293.333 255.175C293.855 255.28 294.376 255.54 294.637 256.009C294.845 256.531 294.689 257.156 294.376 257.573C294.063 258.043 293.594 258.355 293.125 258.668C291.457 259.659 289.684 260.545 287.86 261.431C287.495 264.246 285.41 266.748 282.751 267.634" stroke="#D45E4E" stroke-width="2" stroke-miterlimit="10" stroke-linecap="round"/>
<path d="M185.165 204.14C187.406 206.069 188.866 216.964 190.013 223.95C191.733 234.323 200.491 279.572 201.012 282.752C201.95 288.434 219.831 288.017 220.561 285.098C220.665 284.524 215.348 282.074 214.462 278.425C213.732 275.193 207.789 212.22 204.922 208.936C201.116 204.557 184.487 203.515 185.165 204.14Z" fill="#2F4B53"/>
<path d="M160.611 204.14C162.488 204.766 168.379 217.225 171.142 228.641C176.98 252.412 173.487 287.756 171.142 292.448C168.796 297.14 145.963 299.173 142.053 297.922C139.812 297.192 137.362 225.983 138.925 217.016C139.968 211.073 160.09 203.932 160.611 204.14Z" fill="#2F4B53"/>
<path d="M194.861 283.69C199.657 281.97 213.575 278.269 215.504 278.477C217.485 278.686 219.466 279.363 220.717 280.979C221.499 282.022 221.864 283.377 222.229 284.629C222.82 286.714 223.41 288.799 224.001 290.884C224.21 291.614 224.418 292.396 224.314 293.126C224.21 293.908 223.688 294.637 223.011 294.69C221.968 294.794 221.343 293.595 220.978 292.552C220.039 289.998 219.101 287.391 218.215 284.837C218.806 288.034 219.414 291.232 220.039 294.429C220.196 295.211 220.3 295.993 220.144 296.723C219.987 297.505 219.362 298.182 218.684 298.182C217.589 298.182 217.068 296.775 216.859 295.68C216.338 293.178 215.765 290.676 214.931 288.173C216.078 291.718 216.234 295.576 215.4 299.173C215.296 299.746 215.139 300.32 214.722 300.684C214.357 301.102 213.68 301.258 213.315 300.893C213.002 300.58 212.95 300.111 212.898 299.694C212.585 296.462 212.255 293.23 211.907 289.998C212.22 293.386 212.533 296.879 211.594 300.163C211.438 300.737 211.177 301.31 210.76 301.727C210.343 302.144 209.666 302.248 209.196 301.883C208.779 301.519 208.727 300.841 208.727 300.267C208.623 298.234 208.571 296.201 208.571 293.803C206.746 295.941 204.296 297.296 201.638 297.713C199.031 298.13 196.32 297.505 193.714 296.723C193.975 292.917 194.183 289.112 194.861 283.69Z" fill="#FBBD9A"/>
<path d="M159.204 225.409C157.744 218.632 151.697 207.737 146.745 209.979C143.93 211.282 135.798 213.993 135.798 231.821C135.798 255.957 138.926 287.652 146.745 292.969C150.707 295.628 194.027 298.287 194.027 298.287L197.207 282.752C197.207 282.752 165.251 276.861 163.792 272.482C161.706 266.279 163.062 243.342 159.204 225.409Z" fill="#2F4B53"/>
<path opacity="0.1" d="M155.398 221.708C160.768 239.797 161.915 270.658 162.697 272.482C163.426 274.203 167.493 274.88 170.672 275.975" stroke="white" stroke-width="2" stroke-miterlimit="10" stroke-linecap="round"/>
<path opacity="0.1" d="M161.55 295.732C155.607 295.107 148.205 293.96 146.537 292.709C144.608 291.301 142.262 284.211 140.594 279.363" stroke="white" stroke-width="2" stroke-miterlimit="10" stroke-linecap="round"/>
<path opacity="0.1" d="M160.664 251.683C162.801 248.972 163.687 244.541 163.843 239.119" stroke="white" stroke-width="2" stroke-miterlimit="10" stroke-linecap="round"/>
<path d="M318.878 405.361H395.718V412.347H318.878V405.361Z" fill="#2C3A40"/>
<path d="M332.067 340.981C332.032 341.155 332.015 341.328 332.015 341.502L330.816 351.094L320.182 436.483C319.921 438.776 317.836 440.392 315.542 440.132C313.405 439.871 311.841 438.047 311.841 436.014C311.841 435.805 311.858 435.614 311.893 435.44L322.371 351.094L323.726 340.46C323.987 338.166 326.072 336.55 328.366 336.863C330.503 337.123 332.067 338.896 332.067 340.981Z" fill="#2C3A40"/>
<path d="M332.067 340.981C332.033 341.155 332.015 341.328 332.015 341.502L330.816 351.094H322.423L323.727 340.46C323.987 338.218 326.072 336.55 328.366 336.863C330.503 337.123 332.067 338.896 332.067 340.981Z" fill="#2C3A40"/>
<path d="M362.511 340.251V435.961C362.511 438.307 360.635 440.132 358.341 440.132C357.194 440.132 356.151 439.663 355.422 438.933C354.64 438.151 354.17 437.108 354.17 435.961V340.251C354.17 337.957 356.047 336.081 358.341 336.081C359.488 336.081 360.53 336.55 361.312 337.332C362.042 338.062 362.511 339.104 362.511 340.251Z" fill="#4D8AB3"/>
<path d="M361.312 337.332C362.042 338.062 362.511 339.104 362.511 340.251V351.094H354.17V340.251C354.17 337.957 356.047 336.081 358.341 336.081C359.488 336.081 360.53 336.55 361.312 337.332Z" fill="#326894"/>
<path d="M404.527 435.961C404.527 438.047 402.963 439.871 400.826 440.132C398.532 440.445 396.447 438.776 396.186 436.483L385.552 351.094L384.353 341.502C384.353 341.328 384.353 341.155 384.353 340.981C384.353 338.948 385.865 337.123 388.002 336.863C390.296 336.55 392.381 338.218 392.642 340.512L393.997 351.094L404.475 435.492C404.51 435.666 404.527 435.822 404.527 435.961Z" fill="#2C3A40"/>
<path d="M393.997 351.094H385.552L384.405 341.502C384.37 341.328 384.353 341.155 384.353 340.981C384.353 338.896 385.917 337.123 388.002 336.863C390.296 336.55 392.381 338.218 392.694 340.46L393.997 351.094Z" fill="#2C3A40"/>
<path d="M412.087 329.304V332.067C412.087 336.967 408.177 340.877 403.277 340.877H324.456C319.556 340.877 315.646 336.967 315.646 332.067V329.304C315.646 324.404 319.556 320.494 324.456 320.494H403.277C408.177 320.494 412.087 324.404 412.087 329.304Z" fill="#384950"/>
<path d="M412.087 329.304V332.067C412.087 336.967 408.177 340.877 403.277 340.877H331.702C326.854 340.877 322.893 336.967 322.893 332.067V329.304C322.893 324.404 326.854 320.494 331.702 320.494H403.277C408.177 320.494 412.087 324.404 412.087 329.304Z" fill="#2C3A40"/>
<path d="M308.817 203.358C310.381 200.752 308.869 197.363 309.338 194.392C309.495 193.558 309.86 192.724 310.485 192.15C311.163 191.629 312.206 191.577 312.831 192.15C313.561 192.88 313.3 194.079 313.3 195.122C313.3 196.998 314.187 198.719 314.551 200.491C315.49 204.922 313.144 208.519 310.954 212.325C308.139 214.253 304.334 215.609 301.988 215.869C300.529 216.026 292.918 211.803 289.998 202.837C288.487 198.354 288.643 196.477 289.164 195.852C289.686 195.226 290.624 194.965 291.302 195.435C291.666 195.695 291.823 196.164 291.979 196.634C292.97 199.344 293.908 202.055 294.794 204.818C291.145 201.429 289.112 196.321 289.425 191.316C289.477 190.378 289.738 189.231 290.676 188.918C291.249 188.762 291.927 189.023 292.344 189.44C292.761 189.909 293.074 190.482 293.335 191.004C294.638 193.871 295.941 196.686 297.818 200.074C294.429 196.894 293.022 191.89 294.221 187.407C294.429 186.677 294.846 185.791 295.628 185.791C296.41 185.791 296.879 186.625 297.192 187.407C298.513 190.986 299.851 194.566 301.206 198.145C299.277 195.174 298.443 191.525 298.913 187.98C299.121 186.729 299.747 185.217 301.05 185.165C301.78 185.113 302.457 185.634 302.822 186.26C303.239 186.885 303.396 187.615 303.552 188.293C304.543 192.411 306.367 196.269 308.817 203.358Z" fill="#FDBD9B"/>
<path d="M289.946 195.539C291.145 195.174 291.979 195.591 292.449 197.311C293.074 199.761 294.794 205.391 296.567 206.642" stroke="#B0514A" stroke-miterlimit="10" stroke-linecap="round"/>
<path d="M311.32 210.083L315.698 220.3L304.126 227.286L298.965 213.68L311.32 210.083Z" fill="#FDBD9B"/>
<path d="M310.851 198.093C310.017 193.453 306.472 190.065 302.458 189.596L302.406 189.283C302.406 189.283 300.32 189.648 299.591 189.804C295.055 190.847 292.24 195.956 293.179 201.273C294.117 206.538 298.548 210.396 303.188 209.77C303.865 209.666 305.95 209.301 305.95 209.301L305.898 208.988C309.547 207.216 311.685 202.785 310.851 198.093Z" fill="#316382"/>
<path d="M302.249 189.335C307.097 188.449 311.841 192.255 312.832 197.78C313.822 203.306 310.694 208.467 305.794 209.353C300.946 210.187 296.202 206.434 295.212 200.908C294.221 195.382 297.349 190.169 302.249 189.335Z" fill="#407C91"/>
<path d="M310.799 198.145C310.017 193.871 306.368 190.951 302.614 191.629C302.545 191.629 302.475 191.646 302.406 191.681C298.809 192.463 296.463 196.373 297.193 200.543C297.975 204.714 301.467 207.581 305.169 207.059C305.221 207.059 305.325 207.059 305.377 207.007C309.13 206.382 311.581 202.368 310.799 198.145Z" fill="#EBF5FF"/>
<path d="M346.767 207.372L339.626 201.951C339.626 201.951 334.986 204.609 332.536 210.083C330.034 215.609 326.802 233.906 326.802 233.906L313.509 211.855L296.566 223.897C296.566 223.897 315.333 271.388 326.645 271.961C337.957 272.535 345.881 262.056 345.881 262.056L346.767 207.372Z" fill="white"/>
<path d="M290.676 412.659L292.865 426.265L301.779 429.862L311.997 424.962L310.12 411.564L290.676 412.659Z" fill="#FBBD9A"/>
<path d="M317.731 442.947L271.596 442.269C271.596 442.269 271.284 441.331 271.127 439.923C270.971 437.734 271.284 434.554 273.994 432.416C277.904 429.393 284.055 428.976 288.069 427.412C290.467 426.474 291.875 424.128 291.875 424.128L298.443 424.493C298.443 424.493 299.017 428.142 301.467 427.933C303.865 427.725 311.945 423.763 311.945 423.763C316.115 430.905 317.314 436.639 317.679 439.923C317.836 441.852 317.731 442.947 317.731 442.947Z" fill="#455A64"/>
<path d="M317.731 442.947L271.597 442.269C271.597 442.269 271.284 441.331 271.127 439.923H317.679C317.836 441.852 317.731 442.947 317.731 442.947Z" fill="#455A64"/>
<path d="M345.882 412.659L348.071 426.265L356.933 429.862L367.203 424.962L365.326 411.564L345.882 412.659Z" fill="#FBBD9A"/>
<path d="M372.937 442.947L326.802 442.269C326.802 442.269 326.489 441.331 326.333 439.923C326.176 437.734 326.437 434.554 329.2 432.416C333.058 429.393 339.261 428.976 343.223 427.412C345.621 426.474 347.08 424.128 347.08 424.128L353.649 424.493C353.649 424.493 354.222 428.142 356.62 427.933C359.07 427.725 367.15 423.763 367.15 423.763C371.321 430.905 372.52 436.639 372.885 439.923C373.041 441.852 372.937 442.947 372.937 442.947Z" fill="#455A64"/>
<path d="M372.937 442.947L326.802 442.269C326.802 442.269 326.489 441.331 326.333 439.923H372.833C373.041 441.852 372.937 442.947 372.937 442.947Z" fill="#455A64"/>
<path d="M343.171 278.164L335.612 290.415C335.612 290.415 292.344 296.983 285.359 307.618C278.895 317.366 287.653 416.517 287.653 416.517H317.367C317.367 416.517 315.073 343.275 317.367 336.498C319.608 329.721 387.794 330.138 391.704 320.911C395.613 311.736 396.917 279.468 396.917 279.468" fill="#C8C8C8"/>
<path d="M398.115 292.292C398.115 292.292 399.784 318.826 391.078 325.185C383.519 330.711 364.283 332.119 364.283 332.119L367.984 414.64L339.574 416.517C339.574 416.517 325.447 320.181 326.124 310.954C326.75 301.727 354.118 295.054 352.241 293.699C352.241 293.699 331.181 286.557 339 278.686C339.174 278.512 339.365 278.338 339.574 278.164C341.346 276.548 363.553 278.217 363.553 278.217L384.04 276.34L392.121 285.515L398.115 292.292Z" fill="#ABABAB"/>
<path d="M397.073 300.684C396.864 301.988 396.708 303.395 396.499 304.803C392.955 300.372 387.325 293.855 382.32 291.093C371.946 285.41 338.896 281.501 338.896 281.501L339 278.686C339.174 278.512 339.365 278.338 339.574 278.164C341.398 276.548 363.606 278.217 363.606 278.217L384.04 276.34L392.173 285.515L397.073 300.684Z" fill="#112C45"/>
<path d="M383.363 194.079C383.363 194.079 371.164 209.822 363.553 209.04C355.995 208.206 350.052 199.813 350.052 199.813C350.052 199.813 353.075 198.667 354.431 193.714C355.16 190.847 355.369 186.677 354.066 180.734L376.586 177.398C376.586 177.398 376.429 181.151 377.472 185.217C378.306 188.658 379.974 192.359 383.363 194.079Z" fill="#FDBD9B"/>
<path d="M354.431 193.714C355.161 190.847 355.369 186.729 354.066 180.734L376.586 177.398C376.586 177.398 376.43 181.151 377.472 185.217C371.373 190.326 362.98 193.454 354.431 193.714Z" fill="#F0997F"/>
<path d="M333.318 167.389C333.683 164.365 337.332 162.28 341.502 162.749C345.673 163.218 348.801 166.085 348.436 169.109C348.123 172.185 344.422 174.27 340.251 173.801C336.081 173.279 332.953 170.464 333.318 167.389Z" fill="#F0997F"/>
<path d="M341.867 168.223V168.118C341.867 167.128 341.085 166.294 340.095 166.294H339.052C338.062 166.294 337.228 167.128 337.228 168.118V168.223C337.228 169.213 338.062 170.047 339.052 170.047H340.095C341.085 170.047 341.867 169.213 341.867 168.223Z" fill="#4B8394"/>
<path d="M337.228 168.171H338.791V172.341H337.228V168.171Z" fill="#4B8394"/>
<path d="M384.249 159.517C384.249 145.077 374.292 133.4 361.989 133.4C349.687 133.4 339.73 141.115 339.73 159.517C339.73 173.905 345.308 186.416 358.549 187.302C370.799 188.084 384.249 173.905 384.249 159.517Z" fill="#FDBD9B"/>
<path d="M381.642 166.346C377.524 162.384 374.5 157.38 373.041 151.802C370.956 152.48 368.558 152.062 367.046 150.916C362.563 152.74 357.193 152.427 353.075 150.134C349.843 151.593 345.933 151.541 342.701 149.769C341.137 151.906 339.991 154.304 339.261 156.858C339.574 151.889 339.886 146.919 340.199 141.949C351.946 140.316 363.744 139.169 375.595 138.509C376.273 138.457 377.003 138.457 377.576 138.769C378.462 139.186 378.879 140.229 379.14 141.219C381.642 149.456 382.945 158.057 381.642 166.346Z" fill="#F0997F"/>
<path d="M387.272 140.385C386.803 147.788 386.334 157.328 385.813 164.626C385.135 167.128 382.998 167.076 380.026 168.014C377.315 161.915 375.647 155.399 374.657 148.205C371.79 148.987 368.714 148.778 365.795 147.631C361.468 149.3 356.516 149.404 352.033 147.631C348.644 148.726 344.995 148.935 341.815 147.788C340.616 151.437 339.991 156.963 339.678 160.82C339.261 157.275 337.905 146.276 337.54 138.769C337.436 135.537 337.436 132.931 337.801 131.836C339.209 127.718 343.744 129.021 344.943 130.429C345.777 128.552 347.549 127.092 349.53 126.623C351.563 126.154 353.805 126.675 355.629 128.083C356.881 125.685 359.487 124.121 362.198 124.069C364.856 124.017 367.515 125.476 368.453 128.031C369.705 127.353 371.008 126.727 372.363 126.467C373.771 126.206 375.282 126.362 376.481 127.092C377.055 127.457 377.524 127.978 377.941 128.656C378.306 129.334 378.619 130.116 378.723 131.002C379.87 129.386 382.216 129.125 383.936 130.012C385.656 130.898 386.699 132.722 387.116 134.599C387.533 136.476 387.429 138.457 387.272 140.385Z" fill="#263238"/>
<path d="M377.941 128.656C376.429 127.979 374.761 127.822 373.197 128.187C371.216 128.604 369.444 129.907 368.454 131.836C367.515 129.334 364.857 127.614 362.198 127.718C359.539 127.874 357.089 129.855 355.89 132.931C354.431 131.263 352.137 130.324 349.948 130.585C347.706 130.846 345.673 132.253 344.735 134.495C343.953 133.556 342.597 133.4 341.45 133.817C340.356 134.234 339.522 135.12 338.844 136.111C338.323 136.945 337.906 137.831 337.541 138.717C337.384 135.485 337.436 132.931 337.801 131.784C339.209 127.718 343.744 129.021 344.943 130.429C345.777 128.552 347.55 127.092 349.53 126.623C351.564 126.154 353.805 126.675 355.63 128.031C356.881 125.685 359.487 124.121 362.146 124.017C364.857 124.017 367.515 125.476 368.454 128.031C369.653 127.353 370.956 126.727 372.363 126.467C373.771 126.206 375.283 126.31 376.482 127.092C377.072 127.475 377.559 127.996 377.941 128.656Z" fill="#263238"/>
<path d="M348.749 158.422C346.82 157.953 344.735 158.318 343.066 159.413" stroke="#502202" stroke-width="2" stroke-miterlimit="10" stroke-linecap="round"/>
<path d="M363.449 158.787C365.534 157.849 368.088 158.11 369.965 159.413" stroke="#502202" stroke-width="2" stroke-miterlimit="10" stroke-linecap="round"/>
<path d="M354.535 166.763C354.57 168.813 354.761 170.864 355.109 172.914" stroke="#B0514A" stroke-width="2" stroke-miterlimit="10" stroke-linecap="round"/>
<path d="M357.454 178.649C359.956 178.701 362.459 177.763 364.283 176.094" stroke="#B0514A" stroke-width="2" stroke-miterlimit="10" stroke-linecap="round"/>
<path d="M364.283 166.294C364.909 166.19 365.534 166.763 365.638 167.597C365.795 168.379 365.43 169.161 364.804 169.265C364.179 169.37 363.501 168.796 363.397 167.962C363.24 167.128 363.605 166.398 364.283 166.294Z" fill="#2D3A5E"/>
<path d="M346.82 166.502C347.445 166.398 348.071 166.972 348.227 167.806C348.331 168.64 347.966 169.37 347.341 169.526C346.715 169.63 346.09 169.057 345.933 168.223C345.777 167.389 346.194 166.659 346.82 166.502Z" fill="#2D3A5E"/>
<path d="M382.32 162.749C386.49 162.176 390.191 164.157 390.608 167.18C391.025 170.256 388.002 173.175 383.831 173.749C379.661 174.322 375.96 172.341 375.543 169.265C375.126 166.242 378.149 163.323 382.32 162.749Z" fill="#FDBD9B"/>
<path d="M382.111 168.223V168.118C382.111 167.128 382.893 166.294 383.884 166.294H384.926C385.917 166.294 386.751 167.128 386.751 168.118V168.223C386.751 169.213 385.917 170.047 384.926 170.047H383.884C382.893 170.047 382.111 169.213 382.111 168.223Z" fill="#4B8394"/>
<path d="M385.187 168.171H386.751V172.341H385.187V168.171Z" fill="#4B8394"/>
<path d="M380.6 190.639C380.6 190.639 368.245 198.093 366.056 200.752C363.918 203.462 363.293 207.112 363.293 207.112C363.293 207.112 360.321 200.908 359.644 200.387C358.966 199.866 353.805 194.913 353.805 194.913L347.706 199.553L339.574 203.775L339.939 281.97L394.988 285.723L396.395 200.856L380.6 190.639Z" fill="#C8C8C8"/>
<path d="M363.189 207.581C360.582 229.527 365.117 267.843 357.767 282.752" stroke="#3E7C8A" stroke-miterlimit="10" stroke-linecap="round"/>
<path d="M364.283 203.879C364.283 203.879 365.222 200.439 367.359 198.719C369.496 196.998 380.496 190.534 380.808 190.43C381.069 190.378 386.491 194.131 386.491 194.131L378.306 205.756C378.306 205.756 369.913 199.865 367.984 200.335C366.108 200.856 364.283 203.879 364.283 203.879Z" fill="#A6A6A6"/>
<path d="M361.729 203.879C361.729 203.879 361.051 201.429 359.956 200.074C358.653 198.458 354.378 193.871 353.961 193.923C353.492 193.923 349.165 196.529 348.384 198.093C347.654 199.657 348.071 207.112 348.071 207.112C348.071 207.112 355.369 200.178 358.236 200.96C360.165 201.481 361.729 203.879 361.729 203.879Z" fill="#A6A6A6"/>
<path d="M385.291 192.776C385.291 192.776 375.752 201.794 374.292 210.917C372.884 220.04 373.406 267.999 382.268 284.003C389.931 297.869 390.661 341.971 390.661 362.458L417.56 353.231C417.56 353.231 417.403 316.48 408.75 282.439C402.025 256.061 408.489 207.841 404.631 203.15C401.973 199.866 385.291 192.776 385.291 192.776Z" fill="#2F4B53"/>
<path d="M373.979 244.019C373.979 244.019 371.738 218.632 373.927 210.5C376.064 202.316 382.268 191.942 383.936 191.577C386.699 191.003 392.902 195.799 392.902 195.799C392.902 195.799 387.898 204.505 386.438 217.694C386.282 218.893 376.429 222.49 376.429 222.49C376.429 222.49 384.144 228.12 384.04 228.693C383.884 229.267 373.979 244.019 373.979 244.019Z" fill="#436562"/>
<path d="M356.36 280.719C362.094 280.719 366.786 283.638 366.786 287.235C366.786 290.78 362.094 293.699 356.36 293.699C350.573 293.699 345.934 290.78 345.934 287.235C345.934 283.638 350.573 280.719 356.36 280.719Z" fill="#407C91"/>
<path d="M370.643 278.686C367.098 278.234 363.554 277.765 360.009 277.278C359.07 277.174 358.028 277.07 357.194 277.487C355.995 278.008 355.421 279.416 355.317 280.823C357.089 280.98 358.862 281.136 360.686 281.397C358.497 284.42 355.838 287.027 352.867 289.164C352.189 289.685 351.459 290.154 350.99 290.78C350.469 291.405 350.208 292.292 350.469 293.074C350.73 293.856 351.512 294.377 352.293 294.533C353.075 294.69 353.91 294.533 354.9 294.585C354.587 295.784 355.161 297.088 356.255 297.661C357.298 298.234 358.758 298.026 359.8 297.244C360.321 298.234 361.364 298.964 362.511 299.173C363.658 299.329 364.909 298.912 365.899 298.599C366.733 299.59 368.037 300.163 369.288 300.163C370.591 300.111 371.842 299.486 372.833 298.599C375.908 295.836 378.358 292.396 379.974 288.59C376.586 285.567 373.458 282.335 370.643 278.686Z" fill="#FBBD9A"/>
<path d="M387.846 212.794C387.586 207.789 390.14 198.302 393.737 197.311C399.419 195.747 409.011 204.244 411.513 211.021C414.067 217.746 421.678 259.189 419.541 264.819C416.622 272.482 377.942 293.178 377.942 293.178L365.952 275.662C365.952 275.662 392.746 261.118 394.362 256.478C395.353 253.611 388.472 224.627 387.846 212.794Z" fill="#2F4B53"/>
<path opacity="0.6" d="M400.827 204.14C400.827 204.14 396.5 209.77 396.5 219.988C396.5 230.205 399.002 254.341 398.429 255.227C397.855 256.114 378.932 268.364 378.932 268.364" stroke="#34554F" stroke-width="2" stroke-miterlimit="10" stroke-linecap="round"/>
<path opacity="0.6" d="M396.812 235.366C393.945 231.977 391.964 228.016 391.078 223.897" stroke="#34554F" stroke-width="2" stroke-miterlimit="10" stroke-linecap="round"/>
<path opacity="0.6" d="M386.543 289.06C392.694 285.671 401.556 280.458 406.926 276.183" stroke="#34554F" stroke-width="2" stroke-miterlimit="10" stroke-linecap="round"/>
<path d="M352.242 194.548C352.242 194.548 350.625 200.804 350.625 211.699C350.625 229.944 348.228 280.667 338.636 288.173C331.077 294.064 321.641 293.699 317.367 293.699C317.367 293.699 326.281 288.955 329.617 283.43C333.318 277.278 333.944 257.782 334.465 247.669C334.987 236.878 335.925 207.216 337.176 204.662C339.835 199.084 352.242 194.548 352.242 194.548Z" fill="#2F4B53"/>
<path d="M349.114 245.583C349.114 245.583 351.304 228.381 351.304 216.443C351.304 203.098 353.493 193.871 353.493 193.871C353.493 193.871 345.934 196.321 345.1 197.52C344.266 198.771 340.304 205.808 338.323 219.206C337.958 221.395 346.925 223.22 346.925 223.22C346.925 223.22 340.044 228.589 340.044 229.944C340.044 232.551 349.114 245.583 349.114 245.583Z" fill="#436562"/>
<path opacity="0.1" d="M336.759 209.979C336.759 239.067 334.1 262.317 332.849 270.397" stroke="white" stroke-width="2" stroke-miterlimit="10" stroke-linecap="round"/>
<path opacity="0.1" d="M332.641 220.405C333.37 224.575 335.195 228.693 336.29 229.944" stroke="white" stroke-width="2" stroke-miterlimit="10" stroke-linecap="round"/>
<path d="M337.957 172.289C337.957 172.289 339.417 205.861 359.539 207.112C376.533 208.206 385.916 187.354 385.916 172.237" stroke="#163649" stroke-width="2" stroke-miterlimit="10"/>
<path d="M360.79 207.529C360.79 207.529 348.435 252.777 314.082 260.962C272.065 270.971 230.883 259.711 230.883 259.711" stroke="#163649" stroke-width="2" stroke-miterlimit="10" stroke-linecap="round"/>
<path d="M305.324 208.832C305.324 208.832 310.068 236.252 288.799 250.431C269.98 263.047 230.883 259.137 230.883 259.137" stroke="#163649" stroke-width="2" stroke-miterlimit="10" stroke-linecap="round"/>
<path d="M346.611 287.027C346.611 287.027 269.615 287.183 230.361 259.711" stroke="#163649" stroke-width="2" stroke-miterlimit="10" stroke-linecap="round"/>
<path d="M507.848 93.99C507.379 85.7535 513.322 77.6212 521.298 75.6403C529.274 73.6072 538.396 77.934 541.889 85.3886C544.86 91.8005 543.818 99.2551 542.41 106.136C540.951 113.069 539.178 120.211 540.846 127.04C542.202 132.827 545.955 137.883 546.685 143.774C547.675 151.854 541.993 160.299 534.122 162.332C529.638 163.479 523.852 162.071 522.445 157.693C521.141 153.626 524.165 149.3 523.539 145.077C523.018 141.532 520.151 138.874 517.753 136.215C508.995 126.363 508.891 112.131 507.848 93.99Z" fill="#263238"/>
<path d="M431.269 197.833C427.307 193.297 424.388 185.061 424.388 182.298C424.388 179.066 423.867 175.729 425.014 172.654C425.587 171.09 426.473 169.63 427.412 168.223C428.42 166.624 429.445 165.008 430.487 163.375C430.904 162.697 431.426 162.019 432.156 161.811C433.459 161.446 434.606 162.906 434.554 164.261C434.501 165.564 433.615 166.711 432.103 167.858C432.677 165.46 433.928 163.166 435.596 161.342C436.065 160.873 436.691 160.403 437.316 160.56C438.359 160.768 438.359 162.28 438.046 163.323C437.369 165.929 436.639 168.588 436.065 170.829C438.307 175.052 438.098 180.108 438.15 184.904C438.203 189.7 438.672 194.913 441.852 198.51C438.776 199.866 435.231 194.548 431.269 197.833Z" fill="#DB8E62"/>
<path d="M430.801 197.259C430.801 197.259 441.383 233.437 449.411 234.167C459.055 235.105 466.927 226.139 466.927 226.139L473.234 193.766L458.951 185.165L451.027 211.126L439.767 198.354L430.801 197.259Z" fill="#DB8E62"/>
<path d="M478.499 199.136C470.575 196.164 462.704 193.245 454.832 190.222C456.969 179.952 459.941 167.597 462.547 163.687C467.447 156.285 475.319 155.92 475.319 155.92L478.916 166.555L478.499 198.927C478.499 198.927 478.499 198.997 478.499 199.136Z" fill="#2F4B53"/>
<path d="M471.201 220.092L448.16 160.56L419.905 167.858L446.074 234.167L471.201 220.092Z" fill="#B23F37"/>
<path d="M467.395 216.808L446.596 163.792L423.554 170.047L446.283 228.068L467.395 216.808Z" fill="#EBF5FF"/>
<path d="M439.193 162.384L440.653 166.242L431.635 168.744L430.019 164.782L439.193 162.384Z" fill="#678CA8"/>
<path d="M457.595 435.388C457.699 439.297 498.673 437.994 500.55 434.762C501.749 432.677 499.507 427.36 497.839 423.919C496.953 422.095 496.171 420.791 496.171 420.791L490.958 413.493L486.787 413.389C477.56 418.706 468.386 424.493 462.86 429.028C459.576 431.739 457.543 433.928 457.595 435.388Z" fill="#455A64"/>
<path d="M462.86 429.028C471.305 434.397 490.854 426.891 497.839 423.919C496.953 422.095 496.171 420.791 496.171 420.791L490.958 413.493L486.787 413.389C477.56 418.706 468.386 424.493 462.86 429.028Z" fill="#DB8E62"/>
<path d="M475.423 397.281L476.883 413.285L477.404 419.019L477.769 422.929L494.346 421.208L494.503 418.446V418.393L494.607 415.474L495.545 396.603L495.65 394.727L485.537 395.978L475.423 397.281Z" fill="#DB8E62"/>
<path d="M475.423 397.281L476.883 413.285L485.172 414.327L492.157 415.213L494.607 415.474L495.545 396.603L485.537 395.978L475.423 397.281Z" fill="#CF6E4A"/>
<path d="M463.694 237.399C463.694 237.399 456.552 257.104 457.96 285.15C459.367 313.196 471.201 410.991 471.201 410.991L500.654 409.636L495.649 283.377L488.508 244.28" fill="#2C3A40"/>
<path d="M531.306 435.023C533.913 437.942 564.252 410.313 563.575 406.664C563.158 404.318 557.997 401.712 554.504 400.2C552.627 399.366 551.22 398.845 551.22 398.845L542.514 396.708L539.282 399.314C535.685 409.323 532.453 419.749 531.202 426.786C530.42 430.905 530.368 433.928 531.306 435.023Z" fill="#455A64"/>
<path d="M531.202 426.734C541.107 425.327 551.116 406.977 554.504 400.2C552.627 399.366 551.22 398.845 551.22 398.845L542.514 396.708L539.282 399.314C535.685 409.323 532.453 419.697 531.202 426.734Z" fill="#DB8E62"/>
<path d="M520.15 394.414L527.084 401.191L535.737 409.688L538.604 412.451L550.073 400.357L548.353 398.167L543.4 391.703L533.86 379.348L520.15 394.414Z" fill="#DB8E62"/>
<path d="M520.15 394.414L527.084 401.191L543.4 391.703L533.86 379.348L520.15 394.414Z" fill="#CF6E4A"/>
<path d="M459.784 255.905C462.651 263.881 484.233 277.904 484.233 277.904C484.233 277.904 484.025 333.526 484.859 347.549C485.641 361.52 514.677 407.29 514.677 407.29L541.889 383.154C541.889 383.154 520.776 347.862 519.369 339.573C517.909 331.285 527.032 287.704 527.032 269.928C527.032 266.696 526.719 263.307 526.198 259.919C525.155 252.517 523.122 245.271 521.35 239.901C519.629 234.532 518.17 231.039 518.17 231.039C518.17 231.039 503.365 233.177 488.612 237.295C475.11 241.1 461.661 246.522 459.576 253.507C459.367 254.185 459.472 255.019 459.784 255.905Z" fill="#324046"/>
<path d="M459.784 255.905C466.978 260.18 474.485 263.933 482.2 267.113C482.669 265.81 483.138 264.507 483.816 263.255C484.494 264.715 485.172 266.175 486.006 268.156C499.299 264.819 512.748 262.004 526.25 259.919C525.155 252.517 523.122 245.271 521.402 239.901C510.489 238.893 499.559 238.025 488.612 237.295C475.11 241.1 461.661 246.522 459.576 253.507C459.367 254.185 459.472 255.019 459.784 255.905Z" fill="#2F4B53"/>
<path d="M535.373 164.574C534.33 158.318 510.663 150.238 502.583 150.968C485.328 152.584 472.765 155.712 468.855 158.162C464.893 160.664 461.296 183.705 461.296 190.169C461.296 197.78 463.903 212.689 463.225 218.736C461.87 230.414 454.78 255.175 454.78 255.175L480.845 264.298L484.077 258.616L486.996 265.81L530.056 255.957C530.056 255.957 526.771 221.656 526.771 215.661C526.771 209.874 536.676 172.602 535.373 164.574Z" fill="#C8C8C8"/>
<path d="M495.129 168.64C486.475 213.732 486.006 226.608 484.025 258.303L495.129 168.64Z" fill="#2F4B53"/>
<path d="M496.275 176.094C497.057 176.094 497.735 176.772 497.735 177.554C497.735 178.388 497.057 179.014 496.275 179.014C495.493 179.014 494.815 178.388 494.815 177.554C494.815 176.772 495.493 176.094 496.275 176.094Z" fill="#2F4B53"/>
<path d="M492.626 195.852C493.46 195.852 494.086 196.477 494.086 197.259C494.086 198.093 493.46 198.719 492.626 198.719C491.844 198.719 491.219 198.093 491.219 197.259C491.219 196.477 491.844 195.852 492.626 195.852Z" fill="#2F4B53"/>
<path d="M489.863 216.599C490.645 216.599 491.323 217.277 491.323 218.059C491.323 218.841 490.645 219.519 489.863 219.519C489.029 219.519 488.403 218.841 488.403 218.059C488.403 217.277 489.029 216.599 489.863 216.599Z" fill="#136D94"/>
<path d="M488.404 240.422C489.185 240.422 489.863 241.1 489.863 241.882C489.863 242.664 489.185 243.342 488.404 243.342C487.622 243.342 486.944 242.664 486.944 241.882C486.944 241.1 487.622 240.422 488.404 240.422Z" fill="#2F4B53"/>
<path d="M444.875 196.529L449.202 196.894H449.515L478.447 189.335C480.428 188.241 480.793 186.625 480.324 185.321C479.698 183.653 477.769 182.871 476.153 183.497L448.525 193.245L448.264 193.506L444.875 196.529Z" fill="#136D94"/>
<path d="M444.875 196.529L446.074 196.634L449.202 196.894C449.098 196.79 448.994 196.738 448.889 196.634C448.525 196.269 448.316 195.747 448.472 195.226C448.525 195.017 448.681 194.809 448.577 194.6C448.525 194.548 448.472 194.444 448.42 194.392C448.212 194.131 448.16 193.766 448.212 193.506L445.762 195.747L444.875 196.529Z" fill="#D68A5A"/>
<path d="M444.875 196.529L446.074 196.634C445.935 196.495 445.849 196.338 445.814 196.164C445.779 196.025 445.762 195.886 445.762 195.747L444.875 196.529Z" fill="#24151A"/>
<path d="M479.073 202.993C476.206 197.676 473.391 192.411 470.367 187.146C468.125 185.374 465.571 184.07 462.965 183.08C459.889 184.07 457.022 185.895 454.624 188.397C454.05 189.023 453.425 189.857 453.686 190.691C453.894 191.316 454.52 191.577 455.093 191.577C455.666 191.525 456.188 191.212 456.709 190.899C458.325 189.961 459.889 189.075 461.714 188.189C462.235 188.606 462.704 189.023 463.121 189.492C462.026 189.492 460.984 189.544 459.733 189.909C457.682 190.847 455.684 191.942 453.738 193.193C453.216 193.506 452.643 193.975 452.539 194.653C452.487 195.226 452.851 195.747 453.321 195.956C453.738 196.217 454.259 196.217 454.78 196.164C456.553 196.06 458.377 195.382 459.889 194.288C460.462 194.444 461.088 194.653 461.557 194.913C460.775 195.07 459.993 195.226 459.263 195.591C458.534 195.956 457.856 196.529 457.543 197.363C457.178 198.197 457.335 199.24 457.752 200.126C457.335 200.283 457.074 200.804 457.126 201.273C457.126 201.794 457.335 202.211 457.543 202.628C457.995 203.532 458.481 204.384 459.003 205.183C459.524 205.965 460.097 206.695 460.932 207.06C461.714 207.372 462.756 207.112 463.33 206.121C465.467 209.822 469.481 212.012 473.391 211.595C475.684 209.093 477.665 206.121 479.073 202.993Z" fill="#DB8E62"/>
<path d="M466.666 190.117C465.623 189.648 464.528 189.544 463.434 189.388" stroke="#A8473E" stroke-miterlimit="10" stroke-linecap="round"/>
<path d="M464.581 194.653C463.538 194.548 462.496 194.601 461.714 194.757" stroke="#A8473E" stroke-miterlimit="10" stroke-linecap="round"/>
<path d="M457.908 199.761C459.316 198.979 461.714 198.51 463.382 198.719" stroke="#A8473E" stroke-miterlimit="10" stroke-linecap="round"/>
<path d="M462.861 205.861C462.339 205.026 461.922 203.671 461.714 202.733" stroke="#A8473E" stroke-miterlimit="10" stroke-linecap="round"/>
<path d="M462.027 204.401C461.401 204.505 460.671 204.61 460.15 204.557" stroke="#A8473E" stroke-miterlimit="10" stroke-linecap="round"/>
<path d="M471.618 210.239C471.618 210.239 507.64 240.84 517.388 237.399C521.246 235.992 525.103 224.784 527.866 214.358C530.421 204.714 532.089 195.8 532.089 195.8L511.706 187.198C511.706 187.198 510.351 196.425 508.943 203.984C508.057 209.04 507.119 213.315 506.649 213.472C504.564 214.045 478.082 202.264 478.082 202.264L471.618 210.239Z" fill="#DB8E62"/>
<path d="M508.943 203.984C513.844 207.164 521.454 211.856 527.866 214.358C530.421 204.766 532.089 195.8 532.089 195.8L511.706 187.198C511.706 187.198 510.351 196.425 508.943 203.984Z" fill="#CF6E4A"/>
<path d="M532.089 206.695C523.175 204.974 516.085 203.515 507.536 200.439C508.735 190.43 511.55 172.289 513.843 166.711C515.511 162.749 521.871 155.764 529.065 158.787C536.311 161.811 539.074 166.555 538.292 179.066C538.032 183.549 533.757 197.572 532.089 206.695Z" fill="#2F4B53"/>
<path d="M488.561 155.555C488.561 155.555 490.646 165.043 494.66 167.806C498.726 170.569 514.052 153.522 514.052 153.522C511.393 151.072 510.768 146.224 510.82 141.949C510.82 137.623 511.55 133.869 511.55 133.869L492.887 139.239C493.096 143.878 492.731 147.162 492.105 149.56C490.854 154.773 488.561 155.555 488.561 155.555Z" fill="#DB8E62"/>
<path d="M492.158 149.56C500.759 151.385 507.328 145.911 510.82 141.949C510.82 137.623 511.55 133.869 511.55 133.869L492.888 139.239C493.096 143.878 492.731 147.162 492.158 149.56Z" fill="#CF6E4A"/>
<path d="M495.39 168.171C495.129 168.118 496.328 161.707 496.953 161.133C497.527 160.612 512.227 147.736 513.114 148.205C514.417 148.883 516.502 152.949 516.502 152.949C516.502 152.949 513.479 157.067 507.796 161.707C503.887 164.886 497.631 168.536 495.39 168.171Z" fill="#2F4B53"/>
<path d="M495.39 168.119C495.703 167.806 495.025 161.446 494.66 160.872C493.461 158.944 491.376 153.887 491.376 150.499C491.376 150.499 487.675 151.906 487.205 152.688C486.736 153.522 488.769 159.569 490.333 162.436C492.94 167.232 495.129 168.379 495.39 168.119Z" fill="#2F4B53"/>
<path d="M469.898 123.756C470.263 120.681 474.016 118.543 478.239 119.012C482.514 119.482 485.693 122.401 485.329 125.529C484.964 128.656 481.262 130.742 476.988 130.272C472.713 129.803 469.533 126.884 469.898 123.756Z" fill="#CF6E4A"/>
<path d="M521.82 115.728C521.82 101.028 511.654 89.0898 499.143 89.0898C486.58 89.0898 476.415 101.028 476.415 115.728C476.415 130.429 482.67 145.025 495.39 144.504C507.901 143.982 521.82 130.429 521.82 115.728Z" fill="#DB8E62"/>
<path d="M516.815 122.036C514.156 119.169 512.488 113.747 512.071 111.454C509.569 110.724 506.493 108.274 504.981 105.042C501.124 108.899 486.527 111.037 481.627 109.785C478.135 114.06 478.03 116.197 476.831 121.671C476.049 114.998 476.362 108.169 477.874 101.601C486.997 98.6296 495.963 95.0848 504.616 90.9144C506.076 90.2368 507.848 89.5069 509.308 90.341C510.194 90.8623 510.664 91.9049 511.133 92.8432C513.114 96.8572 515.929 100.402 519.317 103.269C520.203 103.999 521.246 104.833 521.246 105.98C521.298 106.762 520.881 107.44 520.516 108.065C518.9 111.089 519.161 118.335 516.815 122.036Z" fill="#CF6E4A"/>
<path d="M472.557 106.71C472.505 112.288 477.04 123.86 477.04 123.86C477.04 123.86 477.04 114.321 481.367 108.117C490.385 108.117 500.29 107.7 505.816 102.591C507.432 106.657 510.143 109.003 513.479 110.098C513.375 115.155 515.668 119.898 517.128 124.121C519.943 122.401 522.08 123.131 524.374 120.42C525.729 115.467 527.137 107.804 526.72 103.008C526.407 99.2029 525.365 95.2932 523.279 92.0612C522.758 91.2966 522.202 90.5668 521.611 89.8717C518.379 86.3269 513.323 84.2417 508.683 85.3886C506.129 82.3129 502.167 80.4884 498.205 80.2798C494.243 80.0713 490.281 81.3224 486.841 83.2512C480.116 87.1088 474.851 92.9995 473.131 101.236C472.766 103.008 472.609 104.833 472.557 106.71Z" fill="#263238"/>
<path d="M472.557 106.71C472.731 105.98 472.957 105.267 473.235 104.572C474.538 101.184 476.623 98.1604 479.021 95.4497C482.618 91.2793 487.101 87.6823 492.419 86.2227C497.736 84.7631 503.887 85.7014 507.849 89.5069C512.853 87.3695 519.005 88.5164 523.227 92.0612C522.741 91.2967 522.185 90.5668 521.559 89.8718C518.379 86.3269 513.323 84.2418 508.683 85.3886C506.077 82.313 502.115 80.4884 498.205 80.2799C494.243 80.0714 490.281 81.2704 486.841 83.2513C480.116 87.1089 474.851 92.9996 473.131 101.236C472.783 103.043 472.592 104.868 472.557 106.71Z" fill="#263238"/>
<path d="M520.464 119.273C524.583 118.178 528.597 119.794 529.379 122.818C530.161 125.841 527.398 129.178 523.279 130.22C519.109 131.315 515.095 129.699 514.313 126.675C513.531 123.652 516.294 120.316 520.464 119.273Z" fill="#DB8E62"/>
<path d="M500.655 123.965C501.228 123.965 501.645 124.694 501.645 125.581C501.645 126.415 501.228 127.145 500.655 127.145C500.133 127.145 499.664 126.415 499.664 125.581C499.664 124.694 500.133 123.965 500.655 123.965Z" fill="#411F00"/>
<path d="M482.461 123.965C483.035 123.965 483.452 124.694 483.452 125.581C483.452 126.415 483.035 127.145 482.461 127.145C481.94 127.145 481.471 126.415 481.471 125.581C481.471 124.694 481.94 123.965 482.461 123.965Z" fill="#411F00"/>
<path d="M485.381 115.937C483.504 115.311 481.314 115.467 479.542 116.406" stroke="#412408" stroke-width="2" stroke-miterlimit="10" stroke-linecap="round"/>
<path d="M499.143 116.771C501.228 115.832 503.834 116.093 505.763 117.448" stroke="#412408" stroke-width="2" stroke-miterlimit="10" stroke-linecap="round"/>
<path d="M489.29 126.78C489.134 127.77 489.134 130.22 489.29 131.211" stroke="#A8473E" stroke-width="2" stroke-miterlimit="10" stroke-linecap="round"/>
<path d="M490.385 135.642C493.148 136.736 496.067 136.111 497.527 133.869" stroke="#A8473E" stroke-width="2" stroke-miterlimit="10" stroke-linecap="round"/>
<path d="M169.891 26.1692C191.003 26.1692 208.154 43.3199 208.154 64.4324C208.154 85.545 191.003 102.696 169.891 102.696C148.778 102.696 131.627 85.545 131.627 64.4324C131.627 43.3199 148.778 26.1692 169.891 26.1692Z" fill="#EEEEEE"/>
<path d="M144.868 51.5563C153.261 35.9695 169.839 56.9257 169.839 56.9257C169.839 56.9257 186.416 38.9931 194.757 50.618C203.41 62.7121 169.839 90.81 169.839 90.81C169.839 90.81 137.779 64.8494 144.868 51.5563Z" fill="#455A64"/>
<path d="M142.105 69.072L153.73 69.1762L157.327 55.1012L164.782 81.8959L170.673 49.4191L177.032 78.6639L180.838 57.447L184.956 68.6028L197.624 68.9156" stroke="white" stroke-width="2" stroke-miterlimit="10" stroke-linecap="round"/>
<path d="M275.766 84.9716C297.348 84.9716 314.864 102.435 314.864 124.069C314.864 145.651 297.348 163.166 275.766 163.166C254.185 163.166 236.669 145.651 236.669 124.069C236.669 102.435 254.185 84.9716 275.766 84.9716Z" fill="#EEEEEE"/>
<path d="M296.618 125.789L266.696 142.94C261.014 146.172 253.768 144.191 250.483 138.509C248.867 135.694 248.555 132.462 249.337 129.49C250.119 126.571 252.047 123.965 254.915 122.297L284.837 105.198C290.519 101.914 297.765 103.895 301.049 109.577C302.665 112.444 302.978 115.676 302.196 118.595C301.362 121.515 299.485 124.173 296.618 125.789Z" fill="white"/>
<path d="M296.619 125.789L281.657 134.339L269.876 113.747L284.837 105.198C290.519 101.914 297.765 103.895 301.05 109.577C302.666 112.444 302.978 115.676 302.196 118.595C301.362 121.515 299.486 124.173 296.619 125.789Z" fill="#455A64"/>
<path d="M375.178 13.6581C396.343 13.6581 413.441 30.8088 413.441 51.9213C413.441 73.0339 396.343 90.1846 375.178 90.1846C354.065 90.1846 336.967 73.0339 336.967 51.9213C336.967 30.8088 354.065 13.6581 375.178 13.6581Z" fill="#EEEEEE"/>
<path d="M394.675 32.7376V58.9588C394.675 65.3187 391.443 71.3136 386.021 74.8584L375.178 81.1661L365.274 74.702C359.331 71.3136 355.682 65.0059 355.682 58.2811V32.7376L375.074 27.1597L375.178 27.2118L394.675 32.7376Z" fill="white"/>
<path d="M394.675 32.7376V58.9588C394.675 65.3187 391.443 71.3136 386.021 74.8584L375.178 81.1661V27.2118L394.675 32.7376Z" fill="#F2E4E5"/>
<path d="M370.695 39.358H379.714V68.9677H370.695V39.358Z" fill="#455A64"/>
<path d="M389.983 49.6797V58.6981H360.374V49.6797H389.983Z" fill="#455A64"/>
</svg>
