<svg width="720" height="597" viewBox="0 0 720 597" fill="none" xmlns="http://www.w3.org/2000/svg">
<g clip-path="url(#clip0_1_13393)">
<path d="M129.126 538.472H77.7553V538.86H129.126V538.472Z" fill="#EBEBEB"/>
<path d="M275.402 542.662H261.978V543.05H275.402V542.662Z" fill="#EBEBEB"/>
<path d="M160.477 524.038H130.678V524.426H160.477V524.038Z" fill="#EBEBEB"/>
<path d="M694.598 526.677H627.551V527.065H694.598V526.677Z" fill="#EBEBEB"/>
<path d="M613.738 526.677H603.883V527.065H613.738V526.677Z" fill="#EBEBEB"/>
<path d="M571.99 533.195H426.567V533.583H571.99V533.195Z" fill="#EBEBEB"/>
<path fill-rule="evenodd" clip-rule="evenodd" d="M406.003 444.265H705.694C710.583 444.265 714.541 440.308 714.541 435.419V14.1286C714.541 9.23983 710.583 5.28223 705.694 5.28223H406.003C401.114 5.28223 397.157 9.23983 397.157 14.1286V435.419C397.157 440.308 401.114 444.265 406.003 444.265ZM705.694 5.67023C710.35 5.67023 714.153 9.47263 714.153 14.1286V435.419C714.153 440.075 710.35 443.877 705.694 443.877H406.003C401.347 443.877 397.545 440.075 397.545 435.419V14.1286C397.545 9.47263 401.347 5.67023 406.003 5.67023H705.694Z" fill="#EBEBEB"/>
<path fill-rule="evenodd" clip-rule="evenodd" d="M70.3056 444.265H369.997C374.886 444.265 378.843 440.308 378.843 435.419V14.1286C378.843 9.23983 374.886 5.28223 369.997 5.28223H70.3056C65.4168 5.28223 61.4593 9.23983 61.4593 14.1286V435.419C61.4593 440.308 65.4168 444.265 70.3056 444.265ZM369.997 5.67023C374.653 5.67023 378.455 9.47263 378.455 14.1286V435.419C378.455 440.075 374.653 443.877 369.997 443.877H70.3056C65.6496 443.877 61.8473 440.075 61.8473 435.419V14.1286C61.8473 9.47263 65.6496 5.67023 70.3056 5.67023H369.997Z" fill="#EBEBEB"/>
<path d="M0 513.872H776V513.484H0V513.872Z" fill="#EBEBEB"/>
<path d="M188.878 385.91C188.878 385.91 167.461 365.657 167.849 352.465C168.159 339.195 181.196 370.235 181.506 363.717C181.817 357.198 166.685 338.419 166.064 325.615C165.443 312.811 181.429 348.585 182.282 342.61C183.136 336.557 167.616 309.94 167.771 300.628C167.926 291.316 181.351 324.218 183.291 318.398C185.309 312.578 172.117 290.85 175.454 274.554C178.868 258.258 186.007 300.938 187.094 295.584C188.18 290.152 179.101 262.294 185.542 251.197C191.905 240.022 190.12 281.306 192.293 276.494C194.543 271.683 195.862 248.093 204.01 240.022C212.236 231.952 201.838 263.846 204.398 265.398C206.882 267.027 218.599 243.359 221.703 247.86C224.885 252.361 205.097 277.814 204.942 283.866C204.786 289.997 220.85 273.701 222.324 280.297C223.721 286.893 199.898 297.291 198.656 303.577C197.414 309.94 218.522 298.61 218.444 305.129C218.366 311.647 198.346 315.139 197.182 322.511C195.94 329.883 216.737 317.157 215.573 325.848C214.486 334.539 200.518 332.832 198.889 341.368C197.337 349.904 213.322 340.126 212.702 348.274C212.081 356.422 196.095 357.276 194.388 363.484C192.758 369.692 209.675 360.613 209.21 367.209C208.744 373.727 192.215 374.581 188.878 385.91Z" fill="#E0E0E0"/>
<path d="M190.663 414.622C187.559 399.801 186.55 384.358 186.162 369.304C185.386 336.246 189.499 302.878 200.518 271.683C201.294 269.355 205.019 270.209 204.243 272.537C193.302 303.499 189.189 336.402 189.965 369.149C190.353 383.893 191.284 398.947 194.31 413.458C194.776 415.864 191.129 416.95 190.663 414.622Z" fill="#F0F0F0"/>
<path d="M182.593 392.739C182.593 392.739 197.492 364.182 192.758 344.938C188.025 325.615 184.533 370.546 182.282 359.759C180.11 349.051 189.266 328.099 180.73 312.656C172.194 297.136 180.11 341.756 174.367 331.901C168.702 322.123 175.376 297.136 167.461 287.591C159.546 278.124 164.9 308.155 161.098 303.422C157.295 298.688 158.226 276.572 152.251 271.45C146.198 266.406 151.63 292.713 148.449 287.591C145.267 282.547 137.973 259.422 127.885 256.629C117.719 253.758 134.481 270.83 127.885 269.278C121.211 267.648 106.002 264.156 104.76 271.14C103.518 278.124 136.731 285.729 140.534 294.265C144.336 302.801 125.324 287.591 121.832 293.954C118.34 300.24 151.01 309.164 153.493 318.631C156.054 328.099 126.566 310.716 127.264 320.571C127.885 330.349 161.098 332.211 162.727 340.825C164.279 349.361 135.49 331.28 136.421 339.816C137.352 348.352 166.142 355.026 168.082 364.183C169.944 373.417 146.897 355.646 146.198 362.941C145.578 370.235 182.593 392.739 182.593 392.739Z" fill="#EBEBEB"/>
<path d="M203.7 391.885C203.7 391.885 189.266 366.2 193.534 353.629C197.88 341.135 200.984 374.658 203.234 368.528C205.485 362.32 196.716 339.971 199.898 327.555C203.157 315.061 207.735 354.094 210.296 348.585C212.934 343.075 206.106 313.044 208.977 304.197C211.926 295.351 214.874 330.737 218.522 325.77C222.091 320.804 216.038 296.127 224.186 281.616C232.257 267.027 226.282 309.94 228.92 305.129C231.558 300.24 231.248 270.985 240.715 262.293C250.182 253.602 236.137 292.402 239.629 288.445C243.198 284.565 251.502 262.449 261.745 257.172C271.91 251.973 252.51 279.288 254.45 281.538C256.39 283.866 274.626 264.699 276.256 269.898C277.886 275.175 251.502 293.566 249.484 299.309C247.466 305.051 267.72 294.342 267.099 301.093C266.478 307.845 240.638 310.638 237.611 316.225C234.507 321.89 258.02 317.467 256.002 323.597C253.985 329.805 233.886 327.167 230.472 333.841C227.135 340.514 250.803 334.617 247.078 342.532C243.431 350.447 230.627 344.705 226.514 352.387C222.402 360.069 240.638 355.491 237.611 363.096C234.662 370.701 219.065 366.743 215.65 372.175C212.158 377.529 231.093 373.96 228.687 380.09C226.282 386.221 210.218 382.108 203.7 391.885Z" fill="#EBEBEB"/>
<path d="M196.793 419.822C198.268 404.69 201.838 389.713 206.028 375.202C215.107 343.463 229.075 312.889 248.941 286.35C250.337 284.41 253.674 286.272 252.2 288.29C232.49 314.518 218.677 344.705 209.675 376.21C205.64 390.411 202.07 405.078 200.596 419.822C200.363 422.227 196.561 422.227 196.793 419.822Z" fill="#F0F0F0"/>
<path d="M183.291 416.097C182.826 402.982 180.963 389.713 178.635 376.754C174.057 351.689 166.762 326.003 152.794 304.43C144.802 292.17 134.326 281.616 120.901 275.33C118.65 274.322 120.59 270.985 122.841 272.071C146.742 283.323 161.098 307.302 170.254 331.125C178.713 353.396 183.369 377.064 185.852 400.654C186.395 405.776 186.861 410.975 187.094 416.097C187.171 418.58 183.369 418.58 183.291 416.097Z" fill="#F5F5F5"/>
<path d="M152.251 408.725H230.782L221.858 492.765V513.019H161.098V492.765L152.251 408.725Z" fill="#EBEBEB"/>
<path d="M634.69 76.1307C634.923 75.0443 634.225 73.9579 633.138 73.7251C631.974 73.4923 630.966 74.1131 630.733 75.1219C630.5 76.2859 631.121 77.2947 632.285 77.5275C633.449 77.8379 634.458 77.1395 634.69 76.1307ZM633.061 81.0195L630.112 80.3987L626.542 96.6171L629.491 97.3155L633.061 81.0195Z" fill="#E0E0E0"/>
<path fill-rule="evenodd" clip-rule="evenodd" d="M679 97.9365C680.319 91.6509 676.517 85.8309 669.921 84.4341C663.402 82.9597 657.505 86.6069 656.108 92.8925C654.711 99.2557 658.591 104.998 665.11 106.395C671.706 107.869 677.603 104.222 679 97.9365ZM659.212 93.5909C660.221 88.8573 664.566 86.0637 669.3 87.1501C674.189 88.2365 676.982 92.5045 675.896 97.2381C674.887 101.972 670.542 104.688 665.73 103.679C660.919 102.592 658.126 98.3245 659.212 93.5909Z" fill="#E0E0E0"/>
<path d="M651.529 100.575L650.986 97.9363C649.046 99.0227 646.097 99.4883 643.304 98.8675C639.579 98.0915 638.337 96.3067 638.725 94.3667C639.889 89.1675 652.15 95.2979 653.935 87.3051C654.633 84.0459 652.693 80.6315 647.029 79.3899C644.545 78.8467 641.752 78.9243 639.734 79.7779L640.2 82.4163C642.295 81.6403 644.545 81.5627 646.485 82.0283C650.133 82.8043 651.374 84.6667 650.909 86.5291C649.822 91.8059 637.484 85.6755 635.777 93.5131C635.001 96.8499 637.018 100.264 642.761 101.506C646.02 102.204 649.512 101.816 651.529 100.575Z" fill="#E0E0E0"/>
<path fill-rule="evenodd" clip-rule="evenodd" d="M461.41 115.008L521.705 98.3244C519.377 89.866 513.79 83.27 506.65 79.3124C505.874 78.8986 505.073 78.5106 504.245 78.1484C497.882 75.2772 490.51 74.5012 483.215 76.5188C475.533 78.6916 469.325 83.5028 465.29 89.7108C464.824 90.4868 464.358 91.2628 463.893 92.0388C460.323 98.8676 459.237 107.016 461.41 115.008ZM500.52 89.6332L505.331 88.314L506.65 93.1252L501.839 94.4444L500.52 89.6332ZM470.644 97.9364L475.533 96.6172L476.852 101.428L472.041 102.748L470.644 97.9364Z" fill="#4F694D"/>
<path d="M468.238 98.2466L470.023 95.9962L452.02 84.9771L468.238 98.2466Z" fill="#E0E0E0"/>
<path d="M507.116 87.4604L504.4 86.4516L514.178 67.75L507.116 87.4604Z" fill="#E0E0E0"/>
<path d="M574.473 48.8157H606.521V30.8901H574.473V48.8157Z" fill="#4F694D"/>
<path d="M539.397 48.8157H571.446V30.8901H539.397V48.8157Z" fill="#4F694D"/>
<path d="M574.473 69.535H606.521V51.6094H574.473V69.535Z" fill="#4F694D"/>
<path d="M539.397 69.535H571.446V51.6094H539.397V69.535Z" fill="#4F694D"/>
<path d="M132.385 82.6493L153.57 72.6389C160.244 69.5349 163.115 61.5421 159.933 54.9461L149.923 33.7613C146.819 27.0877 138.826 24.2165 132.23 27.3981L111.045 37.4085C104.372 40.5125 101.501 48.4277 104.682 55.1013L114.693 76.2861C117.797 82.9597 125.789 85.8309 132.385 82.6493Z" fill="#4F694D"/>
<path d="M119.349 52.3078L128.816 72.4061C128.971 72.6389 129.204 72.7942 129.514 72.639L148.061 63.9478C148.371 63.7926 148.449 63.4822 148.371 63.2494L136.033 37.0982C135.955 36.7878 135.645 36.7102 135.334 36.7878L122.841 42.6854L119.349 52.3078Z" fill="#F5F5F5"/>
<path d="M122.841 42.6855L125.634 48.7383C125.79 49.0487 125.712 49.3591 125.401 49.4367L119.349 52.3079L122.841 42.6855Z" fill="white"/>
<path d="M123.306 54.8685L138.283 47.8069C138.516 47.7293 138.826 47.8069 138.904 48.0397L138.981 48.1949C139.059 48.4277 138.981 48.7381 138.749 48.8157L123.694 55.7997C123.461 55.9549 123.229 55.7997 123.073 55.5669V55.4893C122.918 55.2565 123.073 54.9461 123.306 54.8685Z" fill="#E0E0E0"/>
<path d="M125.169 58.9037L140.223 51.8421C140.456 51.7645 140.689 51.8421 140.844 52.0749V52.2301C140.999 52.4629 140.921 52.7733 140.689 52.8509L125.634 59.8349C125.401 59.9901 125.091 59.8349 125.013 59.6021L124.936 59.5245C124.858 59.2917 124.936 58.9813 125.169 58.9037Z" fill="#E0E0E0"/>
<path d="M127.031 62.9388L142.085 55.8772C142.318 55.7996 142.629 55.8772 142.706 56.11L142.784 56.2652C142.861 56.498 142.784 56.8084 142.551 56.886L127.497 63.87C127.264 64.0252 127.031 63.9476 126.876 63.7148L126.798 63.5596C126.721 63.3268 126.798 63.0164 127.031 62.9388Z" fill="#E0E0E0"/>
<path d="M136.731 63.3268L143.948 59.9124C144.181 59.8348 144.491 59.9124 144.569 60.1452L144.646 60.3004C144.801 60.5332 144.646 60.8436 144.413 60.9212L137.119 64.258C136.886 64.4132 136.653 64.258 136.498 64.0252V63.9476C136.343 63.7148 136.498 63.4044 136.731 63.3268Z" fill="#E0E0E0"/>
<path d="M363.711 110.818L386.448 116.25C393.587 117.957 400.804 113.612 402.511 106.472L407.943 83.6581C409.65 76.5189 405.227 69.3797 398.088 67.6725L375.351 62.2405C368.212 60.5333 360.995 64.8789 359.288 72.0181L353.856 94.8325C352.149 101.972 356.572 109.111 363.711 110.818Z" fill="#4F694D"/>
<path d="M377.291 80.2438L375.662 87.0726C374.963 89.8662 376.748 92.7374 379.542 93.4358L386.138 94.9878L391.802 104.222L393.587 96.7726C396.381 97.471 399.252 95.6862 399.95 92.8926L401.58 85.9862C402.278 83.1926 400.494 80.3214 397.7 79.623L383.654 76.2862C380.861 75.5878 377.99 77.3726 377.291 80.2438Z" fill="white"/>
<path fill-rule="evenodd" clip-rule="evenodd" d="M392.035 105.774L394.053 97.4706C397.002 97.8586 399.795 95.9962 400.571 92.9698L402.201 86.141C402.899 83.037 400.959 79.8554 397.855 79.0794L383.81 75.7426C380.628 74.9666 377.446 76.9066 376.748 80.0882L375.118 86.917C374.342 90.0986 376.282 93.2802 379.464 93.9786L385.75 95.5306L392.035 105.774ZM397.545 80.1658C400.028 80.7866 401.58 83.3474 400.959 85.8306L399.33 92.6594C398.709 95.2202 396.226 96.7722 393.665 96.1514L393.122 95.9962L391.492 102.67L386.448 94.4442L379.697 92.8146C377.214 92.1938 375.662 89.633 376.205 87.1498L377.912 80.321C378.455 77.7602 381.016 76.2858 383.499 76.829L397.545 80.1658Z" fill="#FAFAFA"/>
<path d="M361.461 87.3053L360.219 92.5821C359.676 94.7549 360.995 97.0053 363.168 97.4709L361.849 103.213L368.988 98.8677L373.954 100.032C376.127 100.575 378.378 99.2557 378.843 97.0829L380.162 91.8061C380.628 89.6333 379.309 87.4605 377.136 86.9173L366.35 84.3565C364.177 83.8133 362.004 85.1325 361.461 87.3053Z" fill="white"/>
<path fill-rule="evenodd" clip-rule="evenodd" d="M360.918 104.533L369.066 99.4886L373.799 100.653C376.36 101.273 378.843 99.7213 379.464 97.2381L380.706 91.9614C381.326 89.4006 379.774 86.9174 377.291 86.2966L366.505 83.7358C364.022 83.115 361.461 84.667 360.84 87.2278L359.598 92.427C359.055 94.755 360.297 97.083 362.47 97.9366L360.918 104.533ZM376.981 87.4606C378.843 87.9262 380.007 89.7886 379.542 91.651L378.3 96.9278C377.834 98.7902 375.972 99.8766 374.11 99.4886L368.91 98.1694L362.78 101.972L363.944 97.0054L363.401 96.8501C361.538 96.4621 360.374 94.5998 360.84 92.7374L362.082 87.4606C362.547 85.5982 364.41 84.4342 366.272 84.8998L376.981 87.4606Z" fill="#FAFAFA"/>
<path d="M382.646 81.9509L395.294 84.9773C395.605 85.0549 395.993 84.8221 396.07 84.5117C396.148 84.2013 395.915 83.8909 395.605 83.8133L382.956 80.7869C382.568 80.7093 382.258 80.8645 382.18 81.1749C382.102 81.5629 382.335 81.8733 382.646 81.9509Z" fill="#E0E0E0"/>
<path d="M381.947 84.8997L394.596 87.9261C394.906 88.0037 395.217 87.7709 395.294 87.4605C395.45 87.1501 395.217 86.8397 394.906 86.7621L382.18 83.7357C381.87 83.6581 381.559 83.8133 381.482 84.2013C381.404 84.5117 381.637 84.8221 381.947 84.8997Z" fill="#E0E0E0"/>
<path d="M384.741 88.7018L393.898 90.8746C394.208 90.9522 394.518 90.7971 394.596 90.4091C394.674 90.0987 394.518 89.7882 394.208 89.7106L385.051 87.5378C384.741 87.4602 384.353 87.6154 384.275 87.9258C384.198 88.3138 384.43 88.6242 384.741 88.7018Z" fill="#E0E0E0"/>
<path d="M111.511 170.881L134.17 164.983C141.31 163.198 145.577 155.904 143.793 148.765L137.895 126.105C136.033 118.966 128.816 114.698 121.677 116.561L99.0175 122.381C91.8783 124.243 87.6103 131.537 89.3951 138.599L95.2927 161.336C97.1551 168.397 104.372 172.743 111.511 170.881Z" fill="#4F694D"/>
<path d="M99.095 151.636C99.1726 152.179 99.7158 154.042 99.9486 154.507L136.886 144.962C136.886 144.652 136.421 143.1 136.421 142.79C135.257 138.444 131.066 135.806 126.721 136.426C126.721 136.323 126.695 136.219 126.643 136.116C125.246 130.762 119.737 127.502 114.382 128.899C110.037 130.063 107.088 133.866 106.855 138.134C106.234 138.289 105.665 138.496 105.148 138.754C100.337 141.005 97.6982 146.359 99.095 151.636Z" fill="#FAFAFA"/>
<path opacity="0.2" d="M87.0673 560.045C87.0673 569.745 221.781 577.583 388 577.583C554.219 577.583 688.933 569.745 688.933 560.045C688.933 550.345 554.219 542.43 388 542.43C221.781 542.43 87.0673 550.345 87.0673 560.045Z" fill="#4D6953"/>
<path opacity="0.6" d="M151.786 131.615L182.205 163.974L212.546 131.615H198.889V105.852C198.889 94.2118 207.347 84.7446 217.668 84.7446H267.41C277.808 84.7446 286.266 94.2118 286.266 105.852V135.417H317.306V105.852C317.306 77.1398 294.88 53.7046 267.41 53.7046H217.668C190.198 53.7046 167.849 77.1398 167.849 105.852V131.615H151.786Z" fill="#4F694D"/>
<path d="M325.455 503.397C327.11 503.552 328.791 503.707 330.499 503.862C331.275 503.94 331.275 502.698 330.499 502.698C328.791 502.543 327.11 502.388 325.455 502.233C324.679 502.155 324.679 503.319 325.455 503.397Z" fill="black"/>
<path d="M325.144 519.926C324.161 520.65 323.152 521.4 322.118 522.176C321.575 522.642 322.118 523.65 322.739 523.185C323.722 522.409 324.73 521.659 325.765 520.934C326.308 520.469 325.765 519.46 325.144 519.926Z" fill="black"/>
<path d="M317.695 513.562C316.039 513.873 314.384 514.209 312.728 514.571C311.952 514.726 312.263 515.813 313.039 515.658C314.694 515.347 316.35 515.011 318.005 514.649C318.703 514.494 318.393 513.407 317.695 513.562Z" fill="black"/>
<path d="M321.963 508.053C322.79 506.811 323.618 505.57 324.446 504.328C324.834 503.707 323.825 503.164 323.437 503.785C322.609 504.975 321.781 506.19 320.954 507.432C320.566 508.053 321.575 508.674 321.963 508.053Z" fill="black"/>
<path d="M330.343 513.097C328.998 513.407 327.679 513.717 326.386 514.028C325.61 514.183 325.92 515.269 326.696 515.114C327.99 514.804 329.309 514.519 330.654 514.261C331.43 514.028 331.119 512.941 330.343 513.097Z" fill="black"/>
<path d="M364.565 517.986C366.22 518.193 367.876 518.374 369.531 518.529C370.23 518.684 370.23 517.442 369.531 517.365C367.876 517.21 366.22 517.029 364.565 516.822C363.789 516.744 363.789 517.908 364.565 517.986Z" fill="black"/>
<path d="M327.472 489.429C328.714 489.998 329.955 490.567 331.197 491.136C331.895 491.446 332.439 490.438 331.818 490.127C330.576 489.558 329.335 488.989 328.093 488.42C327.395 488.11 326.774 489.118 327.472 489.429Z" fill="black"/>
<path d="M337.172 476.935C337.793 478.591 338.414 480.22 339.035 481.824C339.345 482.522 340.431 482.212 340.199 481.513C339.578 479.91 338.957 478.28 338.336 476.625C338.026 475.926 336.939 476.237 337.172 476.935Z" fill="black"/>
<path d="M365.031 512.709C366.531 512.709 368.031 512.709 369.531 512.709C370.23 512.709 370.23 511.545 369.531 511.545C368.031 511.545 366.531 511.545 365.031 511.545C364.255 511.545 364.255 512.709 365.031 512.709Z" fill="black"/>
<path d="M365.186 501.147C366.427 500.888 367.669 500.603 368.911 500.293C369.687 500.138 369.376 499.051 368.6 499.207C367.359 499.465 366.117 499.724 364.875 499.983C364.177 500.138 364.487 501.302 365.186 501.147Z" fill="black"/>
<path d="M350.752 479.806C351.166 478.513 351.554 477.22 351.916 475.926C352.149 475.15 350.985 474.84 350.752 475.616C350.39 476.909 350.028 478.203 349.666 479.496C349.433 480.194 350.597 480.505 350.752 479.806Z" fill="black"/>
<path d="M333.835 527.065C333.835 527.065 307.063 515.891 315.134 506.346C322.894 497.189 326.23 518.374 333.835 521.09C341.44 523.806 333.835 527.065 333.835 527.065Z" fill="#4F694D"/>
<path opacity="0.1" d="M333.835 527.065C333.835 527.065 307.063 515.891 315.134 506.346C322.894 497.189 326.23 518.374 333.835 521.09C341.44 523.806 333.835 527.065 333.835 527.065Z" fill="white"/>
<path d="M332.826 532.885C332.826 532.885 314.59 477.401 347.182 478.254C379.697 479.108 361.926 536.299 361.926 536.299L332.826 532.885Z" fill="#4F694D"/>
<path opacity="0.3" d="M332.826 532.885C332.826 532.885 314.59 477.401 347.182 478.254C379.697 479.108 361.926 536.299 361.926 536.299L332.826 532.885Z" fill="white"/>
<path opacity="0.2" d="M361.926 536.299C361.926 536.299 367.436 518.606 366.738 502.776C365.418 528.461 343.07 527.065 343.07 527.065L341.518 533.893L361.926 536.299Z" fill="black"/>
<path d="M316.763 525.047L320.954 558.803C321.574 563.615 325.61 567.184 330.499 567.184H358.047C362.858 567.184 366.97 563.615 367.514 558.803L371.704 525.047H316.763Z" fill="#263238"/>
<path d="M316.763 525.047L320.954 558.803C321.574 563.615 325.61 567.184 330.499 567.184H358.047C362.858 567.184 366.97 563.615 367.514 558.803L371.704 525.047H316.763Z" fill="#263238"/>
<path opacity="0.2" d="M316.763 525.047L320.954 558.803C321.574 563.615 325.61 567.184 330.499 567.184H358.047C362.858 567.184 366.97 563.615 367.514 558.803L371.704 525.047H316.763Z" fill="#2C3A41"/>
<g opacity="0.2">
<path d="M336.163 524.038C333.991 510.303 334.378 486.635 351.994 484.229C353.235 483.997 352.692 482.134 351.451 482.289C332.594 484.928 331.973 509.915 334.301 524.504C334.534 525.745 336.396 525.28 336.163 524.038Z" fill="white"/>
</g>
<g opacity="0.5">
<path d="M343.147 522.797C342.216 511.7 344.389 499.129 351.916 490.593C352.77 489.662 351.373 488.265 350.519 489.196C342.682 498.12 340.198 511.157 341.207 522.797C341.285 524.039 343.302 524.039 343.147 522.797Z" fill="white"/>
</g>
<g opacity="0.2">
<path d="M350.907 523.03C353.235 513.873 354.865 504.406 356.262 495.094C356.417 493.852 354.554 493.309 354.399 494.551C352.925 503.94 351.295 513.33 349.045 522.564C348.734 523.728 350.674 524.271 350.907 523.03Z" fill="white"/>
</g>
<g opacity="0.5">
<path d="M359.598 523.029C362.702 514.649 363.866 505.337 363.323 496.49C363.246 495.249 361.306 495.249 361.383 496.49C361.926 505.259 360.762 514.261 357.736 522.564C357.27 523.728 359.21 524.193 359.598 523.029Z" fill="white"/>
</g>
<g opacity="0.3">
<path d="M328.248 520.624C324.213 518.296 318.859 514.649 317.772 509.838C317.462 508.596 315.599 509.062 315.832 510.303C317.074 515.658 322.816 519.693 327.239 522.331C328.403 522.952 329.335 521.245 328.248 520.624Z" fill="white"/>
</g>
<g opacity="0.2">
<path d="M319.324 509.915C320.824 512.036 322.351 514.158 323.903 516.279C324.601 517.287 326.308 516.279 325.532 515.27C324.032 513.149 322.532 511.028 321.031 508.907C320.255 507.898 318.548 508.907 319.324 509.915Z" fill="white"/>
</g>
<path d="M357.814 483.221C357.814 483.221 353.701 481.514 353.546 480.272C353.39 478.332 356.805 474.452 358.667 474.685C360.219 474.918 361.616 480.272 361.616 480.272C361.616 480.272 363.013 474.84 364.565 474.685C366.582 474.452 370.307 478.953 369.997 480.97C369.842 482.212 365.884 483.609 365.884 483.609C365.884 483.609 370.152 483.686 370.695 484.773C371.549 486.325 369.609 490.903 367.902 491.214C366.582 491.524 364.022 487.411 364.022 487.411C364.022 487.411 366.35 491.214 365.651 492.3C364.798 493.542 360.762 493.852 359.754 492.843C358.822 491.834 360.607 487.411 360.607 487.411C360.607 487.411 358.357 491.291 357.038 491.214C355.253 491.214 352.149 487.566 352.459 485.859C352.77 484.385 357.814 483.221 357.814 483.221Z" fill="#4F694D"/>
<path d="M326.541 509.683C327.834 509.579 329.153 509.476 330.499 509.372C331.275 509.295 331.275 508.131 330.499 508.208C329.153 508.312 327.834 508.415 326.541 508.519C325.765 508.596 325.765 509.76 326.541 509.683Z" fill="black"/>
<path d="M325.998 496.102C327.239 496.413 328.507 496.697 329.8 496.956C330.498 497.111 330.809 496.025 330.11 495.87C328.817 495.559 327.55 495.275 326.308 495.016C325.532 494.783 325.222 495.947 325.998 496.102Z" fill="black"/>
<path d="M331.042 482.134C332.128 483.272 333.214 484.436 334.301 485.626C334.844 486.17 335.698 485.316 335.154 484.773C334.068 483.583 332.982 482.419 331.895 481.281C331.352 480.738 330.576 481.514 331.042 482.134Z" fill="black"/>
<path d="M363.323 523.03C365.082 523.444 366.841 523.857 368.6 524.271C369.376 524.427 369.687 523.34 368.911 523.185C367.152 522.719 365.393 522.28 363.634 521.866C362.858 521.71 362.547 522.797 363.323 523.03Z" fill="black"/>
<path d="M365.806 506.889C367.1 506.578 368.393 506.268 369.686 505.957C370.385 505.725 370.074 504.638 369.376 504.793C368.083 505.104 366.789 505.414 365.496 505.725C364.798 505.957 365.108 507.044 365.806 506.889Z" fill="black"/>
<path d="M365.186 496.568C366.427 496.309 367.669 496.051 368.911 495.792C369.687 495.637 369.376 494.473 368.6 494.628C367.359 494.887 366.117 495.145 364.875 495.404C364.177 495.559 364.487 496.723 365.186 496.568Z" fill="black"/>
<path d="M345.398 479.651C345.398 478.461 345.398 477.297 345.398 476.159C345.398 475.383 344.234 475.383 344.234 476.159C344.234 477.297 344.234 478.461 344.234 479.651C344.234 480.427 345.398 480.427 345.398 479.651Z" fill="black"/>
<path d="M330.964 518.063C329.826 518.374 328.714 518.684 327.627 518.995C326.851 519.15 327.162 520.314 327.938 520.081C329.024 519.771 330.136 519.486 331.275 519.227C331.973 518.995 331.663 517.831 330.964 518.063Z" fill="black"/>
<path d="M331.74 522.099C330.602 522.357 329.464 522.642 328.326 522.952C327.627 523.107 327.938 524.194 328.636 524.039C329.774 523.78 330.912 523.521 332.05 523.263C332.749 523.03 332.438 521.943 331.74 522.099Z" fill="black"/>
<path d="M321.187 517.21C319.841 517.934 318.496 518.684 317.151 519.46C316.453 519.771 317.074 520.779 317.695 520.469C319.04 519.693 320.411 518.943 321.807 518.219C322.428 517.831 321.807 516.822 321.187 517.21Z" fill="black"/>
<path d="M316.763 509.14C315.315 508.364 313.866 507.562 312.418 506.734C311.719 506.423 311.176 507.432 311.797 507.743C313.245 508.57 314.694 509.372 316.143 510.148C316.763 510.536 317.384 509.528 316.763 509.14Z" fill="black"/>
<path d="M318.936 505.647C318.626 504.044 318.315 502.44 318.005 500.836C317.85 500.06 316.686 500.371 316.841 501.147C317.151 502.75 317.487 504.38 317.85 506.035C318.005 506.734 319.091 506.423 318.936 505.647Z" fill="black"/>
<path d="M324.368 510.381C325.092 509.657 325.817 508.907 326.541 508.131C327.084 507.587 326.23 506.734 325.687 507.277C324.963 508.053 324.239 508.829 323.515 509.605C322.971 510.148 323.825 511.002 324.368 510.381Z" fill="black"/>
<path d="M568.963 556.631V561.442C568.963 563.925 566.946 565.943 564.385 565.943H392.113C389.863 565.943 388 564.08 388 561.83V557.174C388 554.923 389.863 553.061 392.113 553.061H434.948C439.837 553.061 443.562 548.638 442.708 543.827L427.654 456.992H525.507L567.411 549.724C568.42 551.897 568.963 554.303 568.963 556.631Z" fill="#263238"/>
<path opacity="0.2" d="M388 557.174V561.83C388 564.158 389.863 565.943 392.113 565.943H564.385C566.868 565.943 568.963 563.925 568.963 561.442V556.631C568.963 555.389 568.808 554.147 568.498 552.906C568.265 551.819 567.877 550.733 567.489 549.724L525.507 457.07H427.654L442.708 543.827C442.812 544.344 442.838 544.861 442.786 545.379C442.786 549.026 440.147 552.13 436.578 552.906C436.035 552.983 435.569 553.061 434.948 553.061H392.113C389.863 553.061 388 554.923 388 557.174Z" fill="#455A64"/>
<path d="M572.999 549.724L531.095 456.992H525.507L567.411 549.724C568.42 551.897 568.963 554.303 568.963 556.631V561.442C568.963 563.925 566.946 565.943 564.385 565.943H569.972C572.455 565.943 574.473 563.925 574.473 561.442V556.631C574.473 554.303 573.93 551.897 572.999 549.724Z" fill="#263238"/>
<path opacity="0.2" d="M525.507 456.992H427.654L431.534 479.186H535.518L525.507 456.992Z" fill="black"/>
<path opacity="0.3" d="M539.165 557.251V561.597C539.165 564.003 537.225 565.943 534.819 565.943H392.113C389.862 565.943 388 564.08 388 561.83V557.174C388 554.923 389.862 553.061 392.113 553.061H434.948C435.517 553.061 436.06 553.009 436.578 552.906H534.819C537.225 552.906 539.165 554.846 539.165 557.251Z" fill="#455A64"/>
<path opacity="0.1" d="M568.498 552.906H436.578C440.147 552.13 442.708 549.026 442.786 545.378H565.161L568.498 552.906Z" fill="black"/>
<path d="M676.284 466.77H258.796C250.338 466.77 243.509 459.941 243.509 451.482V149.774C243.509 141.393 250.338 134.564 258.796 134.564H290.69H676.284C684.742 134.564 691.571 141.393 691.571 149.774V451.482C691.571 459.941 684.742 466.77 676.284 466.77Z" fill="#263238"/>
<path d="M243.509 418.891V451.483C243.509 459.941 250.338 466.77 258.796 466.77H676.284C684.742 466.77 691.571 459.941 691.571 451.483V418.891H243.509Z" fill="#4F694D"/>
<path d="M243.509 418.891V451.483C243.509 459.941 250.338 466.77 258.796 466.77H676.284C684.742 466.77 691.571 459.941 691.571 451.483V418.891H243.509Z" fill="#263238"/>
<path d="M676.051 409.656H259.029C254.45 409.656 250.803 405.931 250.803 401.353V152.024C250.803 147.446 254.45 143.721 259.029 143.721H676.051C680.63 143.721 684.277 147.446 684.277 152.024V401.353C684.277 405.931 680.63 409.656 676.051 409.656Z" fill="#8FED8F"/>
<path opacity="0.8" d="M676.051 409.656H259.029C254.45 409.656 250.803 405.931 250.803 401.353V152.024C250.803 147.446 254.45 143.721 259.029 143.721H676.051C680.63 143.721 684.277 147.446 684.277 152.024V401.353C684.277 405.931 680.63 409.656 676.051 409.656Z" fill="white"/>
<path opacity="0.2" d="M576.646 209.914H653.159V157.223H576.646V209.914Z" fill="#FFC49D"/>
<path d="M576.646 162.034H653.159V157.223H576.646V162.034Z" fill="#4F694D"/>
<path d="M639.191 186.401L626.62 193.307C625.999 193.669 625.585 193.98 625.378 194.238C625.171 194.549 625.068 194.911 625.068 195.325C625.068 195.842 625.275 196.308 625.689 196.721C626.051 197.135 626.491 197.342 627.008 197.342C627.37 197.342 627.887 197.135 628.56 196.721L644.701 187.797C645.787 187.177 645.787 185.625 644.701 185.004L628.56 176.002C627.887 175.64 627.396 175.459 627.086 175.459C626.517 175.459 626.051 175.666 625.689 176.08C625.275 176.442 625.068 176.907 625.068 177.477C625.068 177.89 625.171 178.227 625.378 178.485C625.585 178.796 625.999 179.106 626.62 179.417L639.191 186.401Z" fill="white"/>
<path d="M606.987 173.441L619.326 200.136C619.636 200.808 619.921 201.248 620.179 201.455C620.541 201.714 620.955 201.843 621.421 201.843C621.938 201.843 622.378 201.662 622.74 201.3C623.154 200.886 623.361 200.446 623.361 199.98C623.361 199.67 623.206 199.179 622.895 198.506L610.479 171.812C610.169 171.139 609.884 170.725 609.626 170.57C609.315 170.26 608.927 170.104 608.462 170.104C607.944 170.104 607.479 170.311 607.065 170.725C606.703 171.087 606.522 171.501 606.522 171.967C606.522 172.329 606.677 172.821 606.987 173.441Z" fill="white"/>
<path d="M591.39 186.401L603.883 179.417C604.556 179.106 604.996 178.796 605.203 178.485C605.409 178.227 605.513 177.89 605.513 177.477C605.513 176.907 605.306 176.442 604.892 176.08C604.53 175.666 604.064 175.459 603.495 175.459C603.185 175.459 602.693 175.64 602.021 176.002L585.88 185.004C584.794 185.625 584.794 187.177 585.88 187.797L602.021 196.721C602.693 197.135 603.185 197.342 603.495 197.342C604.064 197.342 604.53 197.135 604.892 196.721C605.28 196.333 605.513 195.868 605.513 195.325C605.513 194.911 605.409 194.549 605.203 194.238C604.996 193.98 604.556 193.669 603.883 193.307L591.39 186.401Z" fill="white"/>
<path d="M685.518 134.564H676.284C684.742 134.564 691.571 141.393 691.571 149.774V451.482C691.571 459.941 684.742 466.77 676.284 466.77H685.518C693.977 466.77 700.806 459.941 700.806 451.482V149.774C700.806 141.393 693.977 134.564 685.518 134.564Z" fill="#4F694D"/>
<path d="M685.518 134.564H676.284C684.742 134.564 691.571 141.393 691.571 149.774V451.482C691.571 459.941 684.742 466.77 676.284 466.77H685.518C693.977 466.77 700.806 459.941 700.806 451.482V149.774C700.806 141.393 693.977 134.564 685.518 134.564Z" fill="#263238"/>
<g opacity="0.2">
<path d="M506.883 175.382C511.772 175.382 515.807 171.347 515.807 166.458C515.807 161.569 511.772 157.611 506.883 157.611C501.995 157.611 498.037 161.569 498.037 166.458C498.037 171.347 501.995 175.382 506.883 175.382Z" fill="#4F694D"/>
<path d="M506.883 221.321C511.772 221.321 515.807 217.363 515.807 212.474C515.807 207.585 511.772 203.55 506.883 203.55C501.995 203.55 498.037 207.585 498.037 212.474C498.037 217.363 501.995 221.321 506.883 221.321Z" fill="#4F694D"/>
<path d="M506.883 267.338C511.772 267.338 515.807 263.38 515.807 258.491C515.807 253.525 511.772 249.567 506.883 249.567C501.995 249.567 498.037 253.525 498.037 258.491C498.037 263.38 501.995 267.338 506.883 267.338Z" fill="#4F694D"/>
<path d="M506.883 310.716C511.772 310.716 515.807 306.759 515.807 301.792C515.807 296.903 511.772 292.946 506.883 292.946C501.995 292.946 498.037 296.903 498.037 301.792C498.037 306.759 501.995 310.716 506.883 310.716Z" fill="#4F694D"/>
<path d="M506.883 356.733C511.772 356.733 515.807 352.698 515.807 347.809C515.807 342.92 511.772 338.962 506.883 338.962C501.995 338.962 498.037 342.92 498.037 347.809C498.037 352.698 501.995 356.733 506.883 356.733Z" fill="#4F694D"/>
<path d="M506.883 402.672C511.772 402.672 515.807 398.715 515.807 393.826C515.807 388.937 511.772 384.902 506.883 384.902C501.995 384.902 498.037 388.937 498.037 393.826C498.037 398.715 501.995 402.672 506.883 402.672Z" fill="#4F694D"/>
<path d="M410.271 164.285H481.12V158.931H410.271V164.285Z" fill="black"/>
<path d="M439.371 210.379H464.591V205.025H439.371V210.379Z" fill="black"/>
<path d="M329.567 262.139H354.787V256.784H329.567V262.139Z" fill="black"/>
<path d="M439.371 303.189H464.591V297.834H439.371V303.189Z" fill="black"/>
<path d="M402.977 303.189H428.197V297.834H402.977V303.189Z" fill="black"/>
<path d="M363.789 262.139H428.197V256.784H363.789V262.139Z" fill="black"/>
<path d="M348.191 303.189H390.639V297.834H348.191V303.189Z" fill="black"/>
<path d="M365.574 401.818H390.794V396.464H365.574V401.818Z" fill="black"/>
<path d="M329.179 401.818H354.399V396.464H329.179V401.818Z" fill="black"/>
<path d="M302.795 401.818H316.841V396.464H302.795V401.818Z" fill="black"/>
<path d="M348.191 210.379H426.723V205.025H348.191V210.379Z" fill="black"/>
<path d="M402.977 351.224H428.197V345.869H402.977V351.224Z" fill="black"/>
<path d="M380.007 351.224H394.596V345.869H380.007V351.224Z" fill="black"/>
<path d="M327.627 351.224H368.833V345.869H327.627V351.224Z" fill="black"/>
</g>
<path opacity="0.5" d="M278.662 143.721H294.725L351.218 409.656H335.154L278.662 143.721Z" fill="white"/>
<path opacity="0.5" d="M367.436 409.656L310.866 143.721H371.161L427.654 409.656H367.436Z" fill="white"/>
<path fill-rule="evenodd" clip-rule="evenodd" d="M580.603 275.098L584.095 273.158C583.837 271.502 583.397 269.898 582.776 268.346L578.818 268.424C578.353 267.338 577.784 266.303 577.111 265.32L579.129 261.983C578.094 260.69 576.93 259.5 575.637 258.414L572.222 260.509C571.239 259.785 570.205 259.19 569.118 258.724L569.196 254.766C567.696 254.146 566.092 253.706 564.385 253.447L562.522 256.939C561.902 256.888 561.307 256.862 560.738 256.862C560.117 256.862 559.522 256.888 558.953 256.939L557.013 253.447C555.357 253.706 553.779 254.146 552.279 254.766V258.724C551.245 259.19 550.236 259.785 549.253 260.509L545.838 258.414C544.545 259.5 543.381 260.69 542.346 261.983L544.364 265.32C543.691 266.303 543.097 267.338 542.579 268.424L538.622 268.346C538.053 269.898 537.639 271.502 537.38 273.158L540.794 275.098C540.743 275.667 540.717 276.236 540.717 276.805C540.717 277.426 540.743 278.021 540.794 278.59L537.38 280.53C537.639 282.185 538.053 283.789 538.622 285.341L542.579 285.263C543.097 286.35 543.691 287.358 544.364 288.29L542.346 291.704C543.381 292.997 544.545 294.161 545.838 295.196L549.253 293.178C550.236 293.851 551.245 294.446 552.279 294.963V298.921C553.779 299.49 555.357 299.904 557.013 300.162L558.953 296.748C559.522 296.8 560.117 296.826 560.738 296.826C561.307 296.826 561.902 296.8 562.522 296.748L564.385 300.162C566.092 299.904 567.696 299.49 569.196 298.921L569.118 294.963C570.205 294.446 571.239 293.851 572.222 293.178L575.637 295.196C576.93 294.161 578.094 292.997 579.129 291.704L577.111 288.29C577.784 287.358 578.353 286.35 578.818 285.263L582.776 285.341C583.397 283.789 583.837 282.185 584.095 280.53L580.603 278.59C580.655 278.021 580.681 277.426 580.681 276.805C580.681 276.236 580.655 275.667 580.603 275.098ZM569.894 276.805C569.894 281.771 565.859 285.806 560.893 285.806C555.926 285.806 551.891 281.771 551.891 276.805C551.891 271.838 555.926 267.803 560.893 267.803C565.859 267.803 569.894 271.838 569.894 276.805Z" fill="#4F694D"/>
<path fill-rule="evenodd" clip-rule="evenodd" d="M520.153 251.429L516.738 255.154L519.532 258.957L524.188 256.861C526.361 258.801 529.077 260.043 532.026 260.431L533.578 265.242L538.311 264.699L538.777 259.655C541.57 258.724 543.976 256.939 545.761 254.611L550.65 255.697L552.59 251.352L548.477 248.403C548.787 247.006 548.865 245.558 548.71 244.057C548.554 242.583 548.166 241.186 547.623 239.867L551.038 236.142L548.244 232.262L543.588 234.357C541.415 232.495 538.699 231.253 535.75 230.865L534.198 226.054L529.465 226.52L528.999 231.564C526.206 232.573 523.8 234.357 522.015 236.608L517.126 235.521L515.186 239.867L519.299 242.816C518.989 244.213 518.911 245.661 519.066 247.161C519.222 248.662 519.584 250.084 520.153 251.429ZM526.206 246.696C525.818 242.505 528.844 238.703 533.112 238.237C537.38 237.772 541.182 240.876 541.57 245.144C542.036 249.334 539.01 253.137 534.742 253.602C530.474 254.068 526.671 250.964 526.206 246.696Z" fill="#4F694D"/>
<path d="M563.531 319.951C564.307 320.494 565.006 320.959 565.704 321.503C566.428 321.968 567.179 322.408 567.955 322.822C569.455 323.701 571.007 324.451 572.611 325.072C576.025 326.469 579.672 327.323 583.319 327.633C587.51 327.866 591.778 327.09 595.58 325.227C597.52 324.219 599.305 322.977 600.935 321.425C602.383 320.08 603.676 318.606 604.815 317.002C605.203 316.536 605.513 316.071 605.823 315.527C609.393 310.328 612.264 304.663 614.359 298.766C615.446 295.895 616.455 293.101 617.231 290.307C617.334 290.049 617.438 289.764 617.541 289.454C618.007 287.824 618.472 286.35 618.86 284.72C619.248 283.168 619.636 281.616 620.024 279.831L604.97 276.495C604.659 277.736 604.194 279.288 603.883 280.685L602.642 284.953C601.788 287.747 600.935 290.618 599.926 293.334C598.995 296.127 597.986 298.843 596.822 301.404C595.735 303.887 594.494 306.293 593.019 308.543C592.399 309.526 591.726 310.432 591.002 311.259C590.381 311.984 589.708 312.605 588.984 313.122C587.277 314.286 585.259 314.984 583.242 315.139C580.681 315.45 578.043 315.45 575.482 315.062C574.085 314.829 572.688 314.596 571.291 314.286L569.196 313.743L567.256 313.277L563.531 319.951Z" fill="#FFC3BD"/>
<path d="M625.378 273.313C618.084 264.078 607.065 267.493 600.857 282.237C597.442 290.074 599.926 293.334 595.114 302.102L618.55 315.605C625.378 301.714 632.828 282.858 625.378 273.313Z" fill="#4F694D"/>
<path opacity="0.3" d="M605.59 315.527H605.823C609.393 310.328 612.264 304.663 614.359 298.766C615.446 295.895 616.454 293.101 617.23 290.307C616.222 288.911 615.29 288.29 614.514 288.833C609.781 292.092 596.744 296.515 605.59 315.527Z" fill="black"/>
<path d="M566.092 309.862L561.048 307.146L559.341 318.321C559.341 318.321 567.644 323.287 570.05 319.175L569.817 316.303C569.507 313.742 568.187 311.414 566.092 309.862Z" fill="#FFC3BD"/>
<path d="M554.84 306.604L550.417 315.528L559.341 318.321L561.126 307.147L554.84 306.604Z" fill="#FFC3BD"/>
<path d="M605.979 280.142C606.444 292.946 610.091 307.845 610.557 355.88L665.187 362.553C665.343 361.57 665.472 360.561 665.575 359.527C665.575 359.423 665.575 359.346 665.575 359.294C664.877 357.199 660.221 343.153 668.835 320.727C668.99 317.002 668.99 313.51 668.835 310.328C668.783 308.518 668.705 306.681 668.602 304.819C668.059 294.032 667.05 282.548 665.498 274.012C664.722 269.744 661.618 266.407 657.583 265.165C656.807 264.906 656.005 264.751 655.177 264.7L641.83 263.458L638.726 263.225L625.456 265.088L613.894 268.812C609.005 270.442 605.746 275.02 605.979 280.142Z" fill="#4F694D"/>
<path d="M610.247 356.035C609.626 347.188 609.315 333.686 609.548 322.977C609.703 318.787 608.384 314.674 605.591 311.492C605.125 310.871 604.659 310.251 604.349 309.475C603.34 307.379 603.34 304.896 604.116 302.646C605.901 297.679 606.367 292.092 606.211 286.815C605.979 280.607 607.143 274.322 610.867 269.433C613.816 268.191 620.723 266.407 620.723 266.251C617.308 270.675 617.774 282.47 625.767 291.704C625.767 313.277 626.232 335.471 626.31 357.121C620.645 358.751 615.679 358.44 610.247 356.035Z" fill="#4F694D"/>
<path d="M633.294 291.084C633.216 312.734 634.38 336.48 634.303 358.13C639.735 359.682 663.558 359.527 665.575 359.527C665.679 359.527 665.731 359.527 665.731 359.527C665.731 359.527 665.679 359.449 665.575 359.294C664.877 357.199 660.221 343.153 668.835 320.727C670.697 316.071 673.025 311.027 676.207 305.673C673.335 306.061 670.775 305.75 668.602 304.819C660.454 301.56 656.884 291.084 657.039 286.273C657.195 280.918 658.591 267.649 658.669 264.545C658.669 264.001 646.253 263.458 646.253 263.536C646.253 279.599 638.493 288.678 633.294 291.084Z" fill="#4F694D"/>
<path d="M608.772 503.63L597.055 506.812L586.579 479.264L598.296 476.082L608.772 503.63Z" fill="#FFC3BD"/>
<path d="M590.847 503.552C591.545 502.233 592.787 501.224 594.183 500.681L605.746 496.413C606.289 496.18 606.91 496.413 607.143 496.956L612.575 507.2C613.273 508.364 612.807 509.838 611.643 510.459C611.643 510.459 611.618 510.485 611.566 510.536C607.453 512.942 604.427 512.864 597.753 515.348C593.64 516.822 585.259 521.09 579.284 521.866C573.231 522.564 572.3 516.667 574.706 515.891C583.397 513.02 589.295 506.579 590.847 503.552Z" fill="#455A64"/>
<g opacity="0.2">
<path d="M586.579 479.341L592.166 493.93L603.728 490.283L598.296 476.082L586.579 479.341Z" fill="black"/>
</g>
<path d="M557.324 398.016C557.712 402.284 558.565 406.63 559.652 410.976C562.756 422.926 568.032 435.109 572.456 446.982C581.069 470.495 588.596 490.904 588.596 490.904L604.66 485.394C604.66 485.394 590.226 417.416 580.526 410.51H640.2C641.338 410.51 642.451 410.432 643.537 410.277C633.216 408.958 617.231 402.595 602.332 396.309C589.217 390.644 576.956 385.135 570.283 382.962C562.135 386.376 556.703 391.188 557.324 398.016Z" fill="#263238"/>
<path d="M557.324 398.016C557.712 402.284 558.565 406.63 559.652 410.976C562.756 422.926 568.032 435.109 572.456 446.982C581.069 470.495 588.596 490.904 588.596 490.904L604.66 485.394C604.66 485.394 590.226 417.416 580.526 410.51H640.2C641.338 410.51 642.451 410.432 643.537 410.277C633.216 408.958 617.231 402.595 602.332 396.309C589.217 390.644 576.956 385.135 570.283 382.962C562.135 386.376 556.703 391.188 557.324 398.016Z" fill="#2C3A40"/>
<path opacity="0.6" d="M570.283 382.962C576.956 385.135 589.217 390.644 602.332 396.309C617.231 402.595 633.216 408.958 643.537 410.277C660.842 407.949 667.36 387.308 649.202 363.562C637.484 363.562 625.689 374.814 625.689 374.814C625.689 374.814 590.148 374.581 570.283 382.962Z" fill="black"/>
<path d="M527.059 479.884H513.945L527.68 446.982L536.604 462.114L527.059 479.884Z" fill="#FFC3BD"/>
<path d="M515.032 476.78L530.474 473.288C531.017 473.133 531.56 473.444 531.716 473.987L536.061 485.86C536.371 487.101 535.673 488.421 534.432 488.731C534.38 488.783 534.354 488.808 534.354 488.808C528.922 489.895 526.284 490.205 519.532 491.757C515.342 492.688 504.788 495.404 499.046 496.724C493.304 498.043 491.752 492.378 494.08 491.369C504.323 486.558 509.91 482.057 512.859 478.177C513.402 477.479 514.178 477.013 515.032 476.78Z" fill="#455A64"/>
<g opacity="0.2">
<path d="M527.68 446.982L521.86 461.028L533.655 467.624L536.604 462.114L527.68 446.982Z" fill="black"/>
</g>
<path d="M521.705 455.984L536.139 464.752C536.139 464.752 548.167 439.455 559.651 410.976C558.565 406.63 557.711 402.284 557.323 398.016C556.703 391.188 562.135 386.376 570.283 382.962C576.956 385.135 589.217 390.644 602.331 396.309C617.231 402.595 633.216 408.958 643.537 410.277C644.779 410.432 645.969 410.51 647.107 410.51C666.817 410.51 673.646 393.205 665.653 363.872C653.935 363.795 633.759 362.553 633.759 362.553C633.759 362.553 594.959 353.241 567.023 356.423C553.366 357.975 542.347 368.218 539.708 381.643C532.569 417.339 521.705 455.984 521.705 455.984Z" fill="#263238"/>
<path d="M521.705 455.984L536.139 464.752C536.139 464.752 548.167 439.455 559.651 410.976C558.565 406.63 557.711 402.284 557.323 398.016C556.703 391.188 562.135 386.376 570.283 382.962C576.956 385.135 589.217 390.644 602.331 396.309C617.231 402.595 633.216 408.958 643.537 410.277C644.779 410.432 645.969 410.51 647.107 410.51C666.817 410.51 673.646 393.205 665.653 363.872C653.935 363.795 633.759 362.553 633.759 362.553C633.759 362.553 594.959 353.241 567.023 356.423C553.366 357.975 542.347 368.218 539.708 381.643C532.569 417.339 521.705 455.984 521.705 455.984Z" fill="#35454D"/>
<path d="M665.731 359.527L667.128 364.027C667.36 364.338 666.895 364.726 666.352 364.726L611.333 361.467C610.868 361.467 610.48 361.234 610.48 360.923L609.859 356.423C609.859 356.112 610.169 355.879 610.712 355.879L664.8 359.139C665.188 359.139 665.498 359.294 665.731 359.527Z" fill="#263238"/>
<path opacity="0.1" d="M665.731 359.527L667.128 364.027C667.36 364.338 666.895 364.726 666.352 364.726L611.333 361.467C610.868 361.467 610.48 361.234 610.48 360.923L609.859 356.423C609.859 356.112 610.169 355.879 610.712 355.879L664.8 359.139C665.188 359.139 665.498 359.294 665.731 359.527Z" fill="black"/>
<path opacity="0.3" d="M660.143 269.51C649.124 267.57 649.667 292.557 654.711 310.793C656.186 316.07 662.394 313.897 664.489 312.501C671.473 308 673.801 277.503 660.143 269.51Z" fill="black"/>
<path d="M660.066 302.102C660.066 302.102 662.859 320.183 657.117 323.83C651.297 327.4 618.938 341.368 618.162 339.971C619.791 342.609 621.343 344.782 623.051 347.421C623.051 347.421 664.955 338.109 670.542 333.608C675.663 329.495 676.362 314.13 675.508 301.171C670.93 298.533 660.066 302.102 660.066 302.102Z" fill="#FFC3BD"/>
<path d="M664.411 265.087C653.082 261.75 648.814 270.83 652.306 286.35C654.013 294.73 656.263 298.921 659.445 306.914L676.207 305.672C682.958 279.288 675.974 268.502 664.411 265.087Z" fill="#4F694D"/>
<path d="M636.475 241.729L630.5 248.636L622.352 258.103C623.128 259.034 623.671 260.198 624.059 261.362C624.913 264.078 624.603 266.639 621.809 268.579C620.567 269.2 624.835 283.401 628.483 285.651L640.433 269.355C641.907 267.337 642.295 266.251 640.743 264.078C636.32 257.87 636.01 248.869 636.475 241.729Z" fill="#FFC3BD"/>
<path opacity="0.2" d="M624.292 255.775L629.414 248.946C629.517 249.153 629.595 249.36 629.646 249.567C629.905 250.55 630.086 251.533 630.19 252.516C630.5 255.853 627.318 260.198 624.214 262.061L623.982 261.362C623.62 260.224 623.102 259.164 622.43 258.181C622.43 258.129 622.404 258.077 622.352 258.025L624.292 255.775Z" fill="black"/>
<path d="M603.961 261.828C601.555 259.811 598.451 256.629 598.839 253.525C599.227 250.421 600.391 247.472 600.547 244.368C600.779 239.402 583.94 228.771 610.324 207.663C613.351 205.335 620.723 200.602 630.19 204.637C633.682 206.111 654.711 224.58 624.603 226.908C619.791 227.296 615.911 222.873 611.178 222.407C610.324 222.873 609.393 223.571 608.539 224.037C607.763 224.425 606.987 224.813 606.367 225.356C605.746 225.977 605.28 226.831 605.358 227.684C605.591 230.711 607.608 233.659 608.229 236.686C609.703 237.695 609.859 240.333 609.626 242.118C609.471 243.903 608.695 245.532 608.229 247.239C607.686 248.869 607.453 250.809 608.229 252.361C609.083 254.146 610.867 255.93 612.264 257.405C613.118 258.414 612.652 260.509 612.342 261.75L603.651 268.114C604.582 266.096 605.591 263.225 603.961 261.828Z" fill="#263238"/>
<path d="M635.932 229.003C636.863 240.178 637.872 246.696 633.061 252.982C625.844 262.527 611.488 259.19 607.298 248.481C603.495 238.859 602.719 222.252 612.885 216.51C620.412 212.319 629.879 215.035 633.992 222.563C635.079 224.58 635.777 226.753 635.932 229.003Z" fill="#FFC3BD"/>
<path d="M637.562 238.936L632.751 240.954C631.121 240.333 630.811 238.393 630.966 236.608C631.354 229.779 619.171 221.399 619.171 221.399C619.171 221.399 632.052 216.51 636.01 216.51C646.331 216.51 644.313 230.943 641.364 234.823C640.226 236.324 638.959 237.695 637.562 238.936Z" fill="#263238"/>
<path fill-rule="evenodd" clip-rule="evenodd" d="M610.712 237.772C609.315 235.444 606.366 234.668 604.038 235.987C601.633 237.384 600.857 240.333 602.254 242.738C603.573 245.066 606.599 245.842 608.927 244.523C611.255 243.126 612.031 240.1 610.712 237.772ZM610.014 238.16C611.178 240.178 610.479 242.661 608.539 243.825C606.599 244.989 604.038 244.29 602.874 242.35C601.788 240.333 602.409 237.772 604.426 236.686C606.366 235.522 608.927 236.22 610.014 238.16Z" fill="#263238"/>
<path fill-rule="evenodd" clip-rule="evenodd" d="M621.964 234.513C620.567 232.185 617.541 231.331 615.213 232.728C612.885 234.047 612.109 237.074 613.428 239.402C614.825 241.73 617.851 242.583 620.179 241.187C622.507 239.867 623.283 236.841 621.964 234.513ZM621.266 234.901C622.43 236.841 621.731 239.402 619.791 240.566C617.774 241.652 615.29 241.031 614.126 239.014C612.962 237.074 613.661 234.513 615.601 233.349C617.618 232.263 620.102 232.883 621.266 234.901Z" fill="#263238"/>
<path d="M612.963 238.393C611.643 237.85 611.1 238.781 611.023 238.859L610.402 238.548C610.635 237.928 611.643 236.996 613.273 237.695L612.963 238.393Z" fill="#263238"/>
<path d="M635.234 233.97L621.886 235.91L621.731 235.211L635.078 233.194L635.234 233.97Z" fill="#263238"/>
<path d="M641.675 236.918C641.442 239.402 640.278 241.73 638.415 243.437C636.087 245.61 633.139 243.204 632.828 240.022C632.518 237.229 633.992 233.116 636.863 232.107C639.735 231.176 641.907 233.814 641.675 236.918Z" fill="#FFC3BD"/>
<path d="M618.55 235.91C618.705 236.841 618.395 237.695 617.774 237.85C617.153 237.927 616.61 237.307 616.377 236.453C616.144 235.522 616.532 234.668 617.153 234.513C617.774 234.358 618.395 234.979 618.55 235.91Z" fill="#263238"/>
<path d="M608.151 239.014C608.384 239.945 607.996 240.799 607.453 240.954C606.832 241.109 606.211 240.411 606.056 239.557C605.901 238.626 606.211 237.772 606.832 237.695C607.375 237.54 607.996 238.16 608.151 239.014Z" fill="#263238"/>
<path d="M615.446 235.444C616.067 235.6 616.688 235.444 617.231 235.134C617.153 234.979 617.231 234.746 617.153 234.591C616.532 234.824 615.989 235.289 615.446 235.444Z" fill="#263238"/>
<path d="M605.048 238.548C605.746 238.626 606.367 238.471 606.91 238.16C606.832 238.005 606.91 237.772 606.832 237.617C606.212 237.85 605.668 238.316 605.048 238.548Z" fill="#263238"/>
<path d="M611.876 239.402C611.488 242.04 610.867 244.601 609.858 247.084C611.566 247.938 613.661 246.696 613.661 246.696L611.876 239.402Z" fill="#ED847E"/>
<path d="M616.765 249.645C618.86 248.869 620.49 247.394 621.421 245.377C621.499 245.222 621.421 245.066 621.266 244.989C621.111 244.989 620.955 245.066 620.878 245.222C619.869 247.317 617.929 248.869 615.601 249.412C615.446 249.412 615.368 249.567 615.368 249.722C615.446 249.878 615.523 249.955 615.679 249.955C615.73 249.955 615.756 249.955 615.756 249.955C616.118 249.852 616.455 249.748 616.765 249.645Z" fill="#263238"/>
<path d="M620.567 232.03C620.671 232.03 620.748 231.978 620.8 231.875C621.033 231.642 621.033 231.331 620.8 231.099C619.481 229.935 617.696 229.547 615.989 229.935C615.678 230.012 615.523 230.323 615.601 230.633C615.678 230.943 615.989 231.099 616.299 231.021C617.618 230.711 619.015 231.021 620.024 231.952C620.179 232.107 620.412 232.107 620.567 232.03Z" fill="#263238"/>
<path d="M607.763 232.03C607.763 231.978 607.763 231.9 607.763 231.797C607.686 231.487 607.375 231.331 607.065 231.409C605.435 231.797 604.038 233.039 603.418 234.668C603.34 234.979 603.495 235.289 603.806 235.367C604.038 235.444 604.349 235.289 604.426 234.979C604.97 233.737 606.056 232.806 607.375 232.495C607.53 232.418 607.686 232.263 607.763 232.03Z" fill="#263238"/>
<path d="M599.383 357.199L528.999 357.431C526.516 357.431 524.343 355.414 524.111 352.931L520.851 317.312C520.619 314.829 522.481 312.811 524.964 312.811L595.347 312.579C597.831 312.579 600.003 314.596 600.236 317.079L603.495 352.698C603.728 355.181 601.866 357.199 599.383 357.199Z" fill="#263238"/>
<path d="M597.287 357.043L526.982 357.276C524.499 357.276 522.248 355.259 522.015 352.775L518.834 317.157C518.601 314.674 520.463 312.656 522.947 312.656L593.252 312.423C595.735 312.423 597.986 314.441 598.219 316.924L601.4 352.543C601.633 355.026 599.771 357.043 597.287 357.043Z" fill="#263238"/>
<path opacity="0.4" d="M597.287 357.043L526.982 357.276C524.499 357.276 522.248 355.259 522.015 352.775L518.834 317.157C518.601 314.674 520.463 312.656 522.947 312.656L593.252 312.423C595.735 312.423 597.986 314.441 598.219 316.924L601.4 352.543C601.633 355.026 599.771 357.043 597.287 357.043Z" fill="white"/>
<path d="M525.973 357.276C525.973 359.371 527.215 361.079 528.767 361.079C528.767 361.079 528.792 361.079 528.844 361.079L601.4 360.846C602.176 360.846 602.875 359.915 602.875 358.906C602.875 357.819 602.176 356.966 601.4 356.966L525.973 357.276Z" fill="#263238"/>
<path opacity="0.3" d="M525.973 357.276C525.973 359.371 527.215 361.079 528.767 361.079C528.767 361.079 528.792 361.079 528.844 361.079L601.4 360.846C602.176 360.846 602.875 359.915 602.875 358.906C602.875 357.819 602.176 356.966 601.4 356.966L525.973 357.276Z" fill="white"/>
<path d="M601.788 360.846H636.786C638.648 360.846 640.123 359.294 640.123 357.431C640.123 357.199 639.89 356.966 639.579 356.966H601.788C600.702 356.966 599.848 357.819 599.848 358.906C599.848 359.915 600.702 360.846 601.788 360.846Z" fill="#263238"/>
<path opacity="0.2" d="M601.788 360.846H636.786C638.648 360.846 640.123 359.294 640.123 357.431C640.123 357.199 639.89 356.966 639.579 356.966H601.788C600.702 356.966 599.848 357.819 599.848 358.906C599.848 359.915 600.702 360.846 601.788 360.846Z" fill="white"/>
<path d="M613.428 341.135L608.462 344.627L619.869 353.163C619.869 353.163 630.112 345.248 626.154 340.98L622.662 340.282C619.714 339.661 616.066 339.195 613.428 341.135Z" fill="#FFC3BD"/>
<path d="M606.056 353.862L615.135 356.345L621.421 352.077L608.462 344.627L606.056 353.862Z" fill="#FFC3BD"/>
<path d="M632.828 217.053C631.897 218.527 623.051 221.554 620.723 222.563C618.472 220.7 614.903 222.097 614.515 224.813C614.127 227.063 611.411 228.227 609.315 229.081C608.384 229.469 607.375 229.702 606.522 230.09C605.591 230.555 604.737 231.176 604.427 232.107C603.185 225.046 606.755 217.208 613.04 213.871C619.326 210.457 627.629 212.164 632.828 217.053Z" fill="#263238"/>
<path d="M96.3017 176.158H130.135L164.357 566.796H130.446C114.771 566.796 100.88 554.07 99.5609 538.395L70.3057 204.637C68.9865 188.884 80.5489 176.158 96.3017 176.158Z" fill="#263238"/>
<path d="M137.43 566.796H277.032C292.785 566.796 304.347 554.07 303.028 538.395L273.773 204.637C272.454 188.884 258.563 176.158 242.888 176.158H103.208C87.5329 176.158 75.8929 188.884 77.2897 204.637L106.467 538.395C107.864 554.07 121.677 566.796 137.43 566.796Z" fill="#263238"/>
<path d="M103.829 182.676H140.068C142.474 182.676 144.646 184.461 145.112 186.789L145.345 187.953C146.586 193.695 151.863 198.041 157.683 198.041H192.215C198.035 198.041 202.536 193.695 202.769 187.953L202.846 186.789C202.924 184.461 204.786 182.676 207.114 182.676H243.431C255.537 182.676 266.246 192.531 267.254 204.637L296.51 538.395C297.518 550.5 288.594 560.278 276.489 560.278H136.809C124.703 560.278 114.072 550.5 112.986 538.395L83.8081 204.637C82.7217 192.531 91.7233 182.676 103.829 182.676Z" fill="#4F694D"/>
<path opacity="0.7" d="M103.829 182H140.068C142.474 182 144.646 183.785 145.112 186.113L145.345 187.277C146.586 193.019 151.863 197.365 157.683 197.365H192.215C198.035 197.365 202.536 193.019 202.769 187.277L202.846 186.113C202.924 183.785 204.786 182 207.114 182H243.431C255.537 182 266.246 191.855 267.254 203.961L296.51 537.718C297.518 549.824 288.594 559.602 276.489 559.602H136.809C124.703 559.602 114.072 549.824 112.986 537.718L83.8081 203.961C82.7217 191.855 91.7233 182 103.829 182Z" fill="white"/>
<g opacity="0.2">
<path d="M182.36 186.401C182.515 187.875 183.835 189.117 185.387 189.117C186.939 189.117 188.102 187.875 187.947 186.401C187.792 184.849 186.473 183.607 184.921 183.607C183.369 183.607 182.282 184.849 182.36 186.401Z" fill="black"/>
<path d="M162.494 183.607C163.581 183.607 170.875 183.607 171.962 183.607C173.514 183.607 174.833 184.849 174.988 186.401C175.143 187.875 173.979 189.117 172.505 189.117C171.496 189.117 163.891 189.117 162.96 189.117C161.408 189.117 160.089 187.875 159.934 186.401C159.778 184.849 160.942 183.607 162.494 183.607Z" fill="black"/>
</g>
<path d="M251.502 197.963H248.553L248.32 195.014H251.269L251.502 197.963Z" fill="#4F694D"/>
<path d="M245.371 195.014L245.604 197.963H242.655L242.423 195.014L242.19 192.065H245.139L245.371 195.014Z" fill="#4F694D"/>
<path d="M239.008 189.117L239.241 192.066L239.474 195.014L239.784 197.963H236.835L236.525 195.014L236.292 192.066L236.059 189.117H239.008Z" fill="#4F694D"/>
<path fill-rule="evenodd" clip-rule="evenodd" d="M99.7937 189.35L100.57 197.963H113.451L113.296 195.79H114.693L114.305 191.522H112.908L112.675 189.35H99.7937ZM107.166 191.522H111.511L111.899 195.79H107.554L107.166 191.522Z" fill="#4F694D"/>
<g opacity="0.4">
<path d="M192.138 198.041L288.517 556.475C285.18 558.881 281.067 560.278 276.489 560.278H268.962L171.496 198.041H192.138Z" fill="white"/>
<path d="M103.829 182.676H140.068C142.474 182.676 144.647 184.461 145.112 186.789L145.345 187.953C146.587 193.54 151.631 197.808 157.218 197.963L254.683 560.278H180.343L83.8081 201.145C84.5065 190.669 92.8873 182.676 103.829 182.676Z" fill="white"/>
</g>
<g opacity="0.2">
<path d="M242.189 250.576H243.276C246.225 250.576 248.63 248.015 248.32 245.067L248.242 243.903C248.01 241.342 245.837 239.324 243.198 239.324H242.112C239.085 239.324 236.758 241.807 236.99 244.834L237.145 245.92C237.378 248.559 239.551 250.576 242.189 250.576Z" fill="black"/>
<path d="M244.75 279.832H245.837C248.785 279.832 251.191 277.271 250.881 274.322L250.803 273.158C250.57 270.597 248.398 268.58 245.759 268.58H244.673C241.646 268.58 239.318 271.14 239.551 274.089L239.706 275.176C239.939 277.814 242.112 279.832 244.75 279.832Z" fill="black"/>
<path d="M247.311 309.086H248.397C251.346 309.086 253.752 306.526 253.441 303.577L253.364 302.49C253.131 299.852 250.958 297.834 248.32 297.834H247.233C244.207 297.834 241.879 300.395 242.112 303.344L242.267 304.508C242.5 307.069 244.673 309.086 247.311 309.086Z" fill="black"/>
<path d="M249.717 336.712H250.803C253.83 336.712 256.158 334.152 255.847 331.203L255.77 330.039C255.537 327.4 253.364 325.383 250.726 325.383H249.639C246.613 325.383 244.285 327.944 244.518 330.892L244.673 332.056C244.906 334.695 247.078 336.712 249.717 336.712Z" fill="black"/>
<path d="M252.278 365.967H253.364C256.39 365.967 258.718 363.406 258.408 360.458L258.33 359.294C258.098 356.655 255.925 354.638 253.286 354.638H252.2C249.174 354.638 246.846 357.199 247.078 360.225L247.234 361.311C247.466 363.95 249.639 365.967 252.278 365.967Z" fill="black"/>
<path d="M254.838 395.223H255.925C258.951 395.223 261.279 392.662 260.969 389.713L260.891 388.549C260.658 385.911 258.486 383.893 255.847 383.893H254.761C251.734 383.893 249.406 386.454 249.639 389.48L249.794 390.567C250.027 393.205 252.2 395.223 254.838 395.223Z" fill="black"/>
<path d="M181.119 243.515H226.204L225.894 240.178H180.808L181.119 243.515Z" fill="black"/>
<path d="M202.148 272.848H218.211L217.901 269.511H201.915L202.148 272.848Z" fill="black"/>
<path d="M135.179 305.828H151.242L150.932 302.413H134.869L135.179 305.828Z" fill="black"/>
<path d="M207.347 331.901H223.41L223.1 328.564H207.037L207.347 331.901Z" fill="black"/>
<path d="M184.222 331.901H200.286L199.975 328.564H183.912L184.222 331.901Z" fill="black"/>
<path d="M156.985 305.828H197.958L197.647 302.413H156.674L156.985 305.828Z" fill="black"/>
<path d="M149.38 331.901H176.385L176.074 328.564H149.07L149.38 331.901Z" fill="black"/>
<path d="M165.909 394.68H181.972L181.662 391.265H165.598L165.909 394.68Z" fill="black"/>
<path d="M142.706 394.68H158.77L158.537 391.265H142.474L142.706 394.68Z" fill="black"/>
<path d="M125.945 394.68H134.869L134.636 391.265H125.635L125.945 394.68Z" fill="black"/>
<path d="M144.181 272.848H194.155L193.845 269.511H143.87L144.181 272.848Z" fill="black"/>
<path d="M186.861 362.475H202.924L202.614 359.061H186.55L186.861 362.475Z" fill="black"/>
<path d="M172.194 362.475H181.506L181.196 359.061H171.962L172.194 362.475Z" fill="black"/>
<path d="M138.904 362.475H165.133L164.822 359.061H138.594L138.904 362.475Z" fill="black"/>
</g>
<g opacity="0.2">
<path d="M257.167 423.779H258.253C261.202 423.779 263.607 421.219 263.297 418.27L263.219 417.106C262.987 414.467 260.814 412.45 258.175 412.45H257.089C254.063 412.45 251.735 415.011 251.967 418.037L252.045 419.123C252.278 421.762 254.528 423.779 257.167 423.779Z" fill="black"/>
<path d="M259.727 453.035H260.814C263.763 453.035 266.091 450.474 265.858 447.525L265.78 446.361C265.547 443.8 263.375 441.783 260.736 441.783H259.572C256.623 441.783 254.295 444.343 254.528 447.292L254.606 448.379C254.839 451.017 257.089 453.035 259.727 453.035Z" fill="black"/>
<path d="M262.288 482.29H263.375C266.323 482.29 268.651 479.729 268.419 476.78L268.341 475.616C268.108 473.055 265.935 471.038 263.297 471.038H262.133C259.184 471.038 256.856 473.598 257.089 476.547L257.167 477.711C257.399 480.272 259.65 482.29 262.288 482.29Z" fill="black"/>
<path d="M264.694 509.916H265.78C268.729 509.916 271.134 507.355 270.824 504.406L270.746 503.242C270.514 500.604 268.341 498.586 265.702 498.586H264.616C261.59 498.586 259.262 501.147 259.494 504.096L259.65 505.26C259.882 507.898 262.055 509.916 264.694 509.916Z" fill="black"/>
<path d="M196.095 416.718H241.103L240.87 413.381H195.785L196.095 416.718Z" fill="black"/>
<path d="M217.125 446.051H233.188L232.878 442.714H216.814L217.125 446.051Z" fill="black"/>
<path d="M150.156 478.953H166.219L165.909 475.616H149.846L150.156 478.953Z" fill="black"/>
<path d="M222.324 505.104H238.387L238.077 501.69H222.014L222.324 505.104Z" fill="black"/>
<path d="M199.199 505.104H215.185L214.952 501.69H198.889L199.199 505.104Z" fill="black"/>
<path d="M171.884 478.953H212.935L212.624 475.616H171.651L171.884 478.953Z" fill="black"/>
<path d="M117.254 442.714H122.686H127.807H149.535L149.846 446.051H128.118H122.996H117.564L117.254 442.714Z" fill="black"/>
<path d="M164.279 505.104H191.284L191.051 501.69H164.046L164.279 505.104Z" fill="black"/>
<path d="M159.158 446.051H209.132L208.822 442.714H158.847L159.158 446.051Z" fill="black"/>
<path d="M163.581 416.718H179.644L179.334 413.381H163.27L163.581 416.718Z" fill="black"/>
<path d="M114.693 413.381H120.125H125.247H155.2L155.51 416.718H125.479H120.435H114.926L114.693 413.381Z" fill="black"/>
</g>
</g>
<defs>
<clipPath id="clip0_1_13393">
<rect width="720" height="597" fill="white" transform="matrix(-1 0 0 1 720 0)"/>
</clipPath>
</defs>
</svg>
