<svg width="100" height="100" viewBox="0 0 100 100" fill="none" xmlns="http://www.w3.org/2000/svg">
<path d="M53.9919 21.0691H59.1072V25.952H53.9919C53.5775 25.952 53.1801 26.1166 52.8871 26.4096C52.5941 26.7026 52.4294 27.1001 52.4294 27.5145V32.6051H47.5466V27.515C47.5466 27.1006 47.382 26.7032 47.089 26.4102C46.796 26.1172 46.3985 25.9525 45.9841 25.9525H40.8929V21.0697H45.9836C46.398 21.0697 46.7954 20.9051 47.0884 20.6121C47.3814 20.3191 47.5461 19.9216 47.5461 19.5072V14.416H52.4289V19.5066C52.4289 19.7119 52.4693 19.9151 52.5479 20.1047C52.6264 20.2943 52.7416 20.4666 52.8867 20.6117C53.0319 20.7568 53.2042 20.8719 53.3938 20.9504C53.5835 21.0289 53.7867 21.0692 53.9919 21.0691ZM88.7513 28.2617L88.7306 28.2537C88.2762 28.0653 87.7784 28.007 87.2928 28.0854C86.8072 28.1639 86.353 28.3759 85.981 28.6979C85.5177 29.0803 85.1483 29.5639 84.9012 30.1114C84.654 30.6589 84.5357 31.2558 84.5552 31.8563L84.8613 46.5664C85.2913 47.0274 85.5894 47.5956 85.7244 48.2113C85.7295 48.2334 85.7341 48.2557 85.738 48.2781C85.8322 48.7486 85.8238 49.2338 85.7134 49.7007C85.603 50.1677 85.3932 50.6053 85.0984 50.9838L72.7834 67.3377C72.6608 67.5039 72.5065 67.6441 72.3294 67.7502C72.1523 67.8564 71.9559 67.9264 71.7516 67.9562C71.5473 67.986 71.3391 67.9751 71.139 67.9239C70.939 67.8728 70.751 67.7825 70.5861 67.6583C70.4212 67.5341 70.2825 67.3784 70.178 67.2003C70.0736 67.0222 70.0055 66.8251 69.9777 66.6205C69.9499 66.4159 69.9629 66.2078 70.016 66.0083C70.0691 65.8088 70.1612 65.6217 70.2871 65.458L82.6078 49.0963L82.6224 49.0768C82.6475 49.0497 82.6651 49.0166 82.6733 48.9806C82.6815 48.9446 82.6802 48.9071 82.6693 48.8719C82.6588 48.8237 82.6386 48.7781 82.6101 48.7378C82.5816 48.6975 82.5453 48.6634 82.5033 48.6375C79.9837 47.2283 76.7277 47.9195 74.9128 50.2553L68.1367 58.9783C67.9665 59.1973 67.7412 59.367 67.4837 59.4701C59.1244 62.8182 53.9517 73.2576 53.9517 81.0098L53.9078 97.4609H71.0826V85.9883C71.0826 85.6378 71.2004 85.2975 71.4171 85.0221L87.4248 64.6777L92.542 47.8256L90.4857 30.3842C90.3642 29.3945 89.7478 28.6381 88.7513 28.2617ZM70.9841 23.4977C70.9926 26.2587 70.456 28.9943 69.4052 31.5476C68.3545 34.1009 66.8101 36.4217 64.8607 38.3771C62.9113 40.3324 60.5952 41.8838 58.0451 42.9424C55.495 44.001 52.7611 44.5459 50.0001 44.5459C47.239 44.5459 44.5051 44.001 41.955 42.9424C39.4049 41.8838 37.0888 40.3324 35.1394 38.3771C33.19 36.4217 31.6457 34.1009 30.5949 31.5476C29.5441 28.9943 29.0075 26.2587 29.016 23.4977C29.016 11.9414 38.4294 2.53906 50 2.53906C61.5705 2.53906 70.9841 11.9414 70.9841 23.4984V23.4977ZM62.2322 19.5059C62.2322 19.0915 62.0676 18.694 61.7745 18.401C61.4815 18.108 61.0841 17.9434 60.6697 17.9434H55.5544V12.8535C55.5544 12.4391 55.3898 12.0417 55.0968 11.7487C54.8038 11.4556 54.4063 11.291 53.9919 11.291H45.9841C45.5697 11.291 45.1723 11.4556 44.8793 11.7487C44.5863 12.0417 44.4216 12.4391 44.4216 12.8535V17.9441H39.3304C38.916 17.9441 38.5186 18.1088 38.2256 18.4018C37.9325 18.6948 37.7679 19.0922 37.7679 19.5066V27.5145C37.7679 27.9289 37.9325 28.3263 38.2256 28.6193C38.5186 28.9123 38.916 29.077 39.3304 29.077H44.4211V34.1676C44.4211 34.582 44.5857 34.9794 44.8787 35.2724C45.1717 35.5655 45.5691 35.7301 45.9836 35.7301H53.9914C54.4058 35.7301 54.8032 35.5655 55.0962 35.2724C55.3892 34.9794 55.5539 34.582 55.5539 34.1676V29.0775H60.6691C61.0835 29.0775 61.4809 28.9129 61.774 28.6199C62.067 28.3269 62.2316 27.9294 62.2316 27.515L62.2322 19.5059ZM32.5152 59.4711C32.2578 59.368 32.0324 59.1983 31.8623 58.9793L25.0859 50.2563C23.2712 47.9203 20.0148 47.2289 17.4949 48.6389C17.3544 48.734 17.3421 48.8012 17.3355 48.8381C17.3315 48.8604 17.3269 48.8826 17.3218 48.9047C17.3084 48.9643 17.3037 48.9842 17.3765 49.0777L17.3914 49.0973L29.7119 65.459C29.8377 65.6227 29.9298 65.8097 29.9829 66.0093C30.036 66.2088 30.049 66.4169 30.0212 66.6215C29.9934 66.8261 29.9253 67.0232 29.8209 67.2013C29.7165 67.3794 29.5778 67.5351 29.4128 67.6593C29.2479 67.7835 29.06 67.8738 28.8599 67.9249C28.6599 67.976 28.4517 67.987 28.2473 67.9572C28.043 67.9274 27.8466 67.8574 27.6695 67.7512C27.4925 67.645 27.3382 67.5048 27.2156 67.3387L14.9007 50.9848C14.5959 50.6052 14.3806 50.1618 14.2709 49.6875C14.1612 49.2133 14.1599 48.7204 14.2671 48.2455C14.3862 47.6102 14.6889 47.0238 15.1378 46.5588L15.4435 31.8686C15.4644 31.2653 15.3463 30.6654 15.0984 30.115C14.8506 29.5647 14.4796 29.0787 14.014 28.6945C13.6423 28.374 13.1888 28.163 12.7041 28.0853C12.2195 28.0076 11.7228 28.0662 11.2695 28.2545L11.2488 28.2625C10.2527 28.6381 9.63589 29.3943 9.51304 30.3914L7.45776 47.8256L12.575 64.6777L28.5824 85.0221C28.7991 85.2975 28.9169 85.6378 28.9169 85.9883V97.4609H46.0919L46.0468 81.0156C46.0472 73.2586 40.8736 62.8191 32.5152 59.4711Z" fill="#4F694D"/>
</svg>
