<svg width="35" height="35" viewBox="0 0 35 35" fill="none" xmlns="http://www.w3.org/2000/svg">
<circle opacity="0.1" cx="17.5" cy="17.5" r="17.5" fill="#4F694D"/>
<g clip-path="url(#clip0_1_13368)">
<path d="M22.7324 12.3306C22.4915 12.3306 22.2954 12.5266 22.2954 12.7676C22.2954 13.0085 22.4915 13.2046 22.7324 13.2046C22.9734 13.2046 23.1694 13.0085 23.1694 12.7676C23.1694 12.5266 22.9734 12.3306 22.7324 12.3306ZM17.5001 14.1258C15.3639 14.1258 13.626 15.8637 13.626 17.9999C13.626 20.1361 15.3639 21.874 17.5001 21.874C19.6363 21.874 21.3742 20.1361 21.3742 17.9999C21.3742 15.8638 19.6363 14.1258 17.5001 14.1258Z" fill="#333333"/>
<path d="M21.5656 9H13.4344C10.7136 9 8.5 11.2136 8.5 13.9345V22.0656C8.5 24.7865 10.7136 27 13.4344 27H21.5656C24.2865 27 26.5 24.7864 26.5 22.0656V13.9345C26.5 11.2136 24.2865 9 21.5656 9ZM17.5 22.9371C14.7777 22.9371 12.563 20.7223 12.563 18C12.563 15.2777 14.7777 13.063 17.5 13.063C20.2223 13.063 22.4371 15.2777 22.4371 18C22.4371 20.7223 20.2223 22.9371 17.5 22.9371ZM22.7323 14.2677C21.9053 14.2677 21.2324 13.5948 21.2324 12.7677C21.2324 11.9406 21.9053 11.2677 22.7323 11.2677C23.5594 11.2677 24.2323 11.9406 24.2323 12.7677C24.2323 13.5947 23.5594 14.2677 22.7323 14.2677Z" fill="#333333"/>
</g>
<defs>
<clipPath id="clip0_1_13368">
<rect width="18" height="18" fill="white" transform="translate(8.5 9)"/>
</clipPath>
</defs>
</svg>
