<svg width="156" height="134" viewBox="0 0 156 134" fill="none" xmlns="http://www.w3.org/2000/svg">
<path d="M70.9465 131.432C73.7505 131.432 76.5545 131.237 79.3584 130.848C81.773 130.537 84.1875 130.109 86.602 129.564C72.8159 112.403 64.5208 90.6891 64.5208 66.9906C64.5208 43.2921 72.8159 21.5782 86.4852 4.41724C80.5268 2.89961 74.101 2.3159 67.5584 2.66612C35.3129 4.3005 8.79206 30.1003 6.57226 62.3209C3.88513 100.028 33.794 131.432 70.9465 131.432Z" fill="#ECC1CC"/>
<path d="M108.624 66.778C108.624 42.6125 88.9961 23 64.8119 23C40.6277 23 21 42.6125 21 66.778C21 90.9434 40.6277 110.556 64.8119 110.556C88.9961 110.556 108.624 90.9434 108.624 66.778Z" fill="#CF637F"/>
<path d="M121.067 27.5319C121.067 24.1464 119.665 20.9944 117.211 18.5429C109.734 11.4216 100.504 5.9348 90.5735 2.89952C89.4052 2.58821 88.2758 2.27691 87.1854 1.9656C80.7597 0.331222 74.1002 -0.252483 67.4408 0.0977415C33.6764 1.73212 6.3378 28.4659 4.00116 62.2041C2.71601 80.9995 9.02492 98.9776 21.8764 112.636C34.4942 126.178 52.3695 134 70.9458 134C73.7497 134 76.7874 133.767 79.5914 133.416C82.1616 133.105 84.693 132.638 87.1854 132.015C98.4013 129.214 108.682 123.493 117.094 115.555C119.898 112.87 121.3 109.134 120.95 105.282C120.716 101.546 118.73 98.2772 115.692 96.1758C114.057 95.0862 112.538 93.841 111.136 92.4401C110.084 91.5062 108.566 91.5062 107.514 92.5568C106.579 93.6075 106.579 95.2419 107.631 96.1758C109.267 97.7324 110.98 99.1333 112.772 100.378C114.641 101.546 115.692 103.531 115.926 105.749C116.043 107.967 115.225 110.185 113.589 111.819C105.878 119.174 96.2983 124.427 85.9003 126.996C83.6415 127.618 81.3438 128.085 79.0072 128.396C76.3201 128.747 73.6329 128.863 70.9458 128.863C53.7715 128.863 37.2982 121.742 25.615 109.134C13.815 96.526 7.85661 79.9488 9.14175 62.5543C11.2447 31.3844 36.4804 6.75199 67.6745 5.11761C73.8666 4.88413 79.9418 5.46783 85.9003 6.86873C86.9907 7.18004 88.0422 7.49135 89.0547 7.80266C98.2844 10.6045 106.696 15.6243 113.706 22.2786C115.342 23.7962 116.16 26.0143 115.926 28.2324C115.809 30.4505 114.641 32.4351 112.888 33.6025C111.019 34.8477 109.267 36.2486 107.631 37.8052C106.579 38.7391 106.579 40.3735 107.514 41.4242C108.566 42.4748 110.084 42.4748 111.136 41.5409C112.538 40.14 114.057 38.8948 115.692 37.8052C118.73 35.7038 120.716 32.4351 121.067 28.6994C121.067 28.3102 121.067 27.9211 121.067 27.5319Z" fill="#CF637F"/>
<path d="M33.3263 114.154C33.3263 112.403 32.6253 110.768 31.3402 109.484C19.0729 98.0436 12.2966 81.9333 12.7639 65.2393C13.2313 49.8294 19.8907 35.3535 31.3402 24.6133C33.9105 22.1617 34.0273 18.1925 31.5739 15.6242C29.2372 13.0559 25.1481 12.8224 22.5778 15.274C8.55799 28.349 0.613442 45.977 0.0292842 64.889C-0.554874 85.202 7.62334 104.931 22.5778 118.824C25.1481 121.275 29.2372 121.042 31.6907 118.473C32.7422 117.306 33.3263 115.672 33.3263 114.154Z" fill="#CF637F"/>
<path d="M143.966 79.0145C150.626 79.0145 156 73.6444 156 66.9902C156 60.3359 150.626 54.9658 143.966 54.9658C137.307 54.9658 131.933 60.3359 131.933 66.9902C131.933 73.6444 137.307 79.0145 143.966 79.0145Z" fill="#CF637F"/>
<g clip-path="url(#clip0_662_1053)">
<path d="M78.1172 82.2734C76.612 82.2734 75.3209 83.2039 74.7866 84.5195H71.6484V87.2148H74.7866C75.3209 88.5305 76.612 89.4609 78.1172 89.4609C80.0988 89.4609 81.7109 87.8488 81.7109 85.8672C81.7109 83.8856 80.0988 82.2734 78.1172 82.2734ZM84.4062 74.6367C83.8356 74.6363 83.2731 74.7727 82.7661 75.0345L79.4292 72.2537C79.187 72.0519 78.8817 71.9414 78.5664 71.9414H71.6484V74.6367H78.0785L81.0042 77.0749C80.8772 77.4469 80.8125 77.8374 80.8125 78.2305C80.8125 80.2121 82.4247 81.8242 84.4062 81.8242C86.3878 81.8242 88 80.2121 88 78.2305C88 76.2489 86.3878 74.6367 84.4062 74.6367ZM84.4062 63.4062C82.9011 63.4062 81.61 64.3367 81.0757 65.6523H71.6484V68.3477H81.0757C81.61 69.6633 82.9011 70.5938 84.4062 70.5938C86.3878 70.5938 88 68.9816 88 67C88 65.0184 86.3878 63.4062 84.4062 63.4062ZM79.4292 61.7462L82.7661 58.9655C83.2731 59.2273 83.8356 59.3637 84.4062 59.3633C86.3878 59.3633 88 57.7511 88 55.7695C88 53.7879 86.3878 52.1758 84.4062 52.1758C82.4247 52.1758 80.8125 53.7879 80.8125 55.7695C80.8125 56.1738 80.8806 56.5622 81.0042 56.9251L78.0785 59.3633H71.6484V62.0586H78.5664C78.8817 62.0586 79.187 61.9481 79.4292 61.7462ZM78.1172 51.7266C80.0988 51.7266 81.7109 50.1144 81.7109 48.1328C81.7109 46.1512 80.0988 44.5391 78.1172 44.5391C76.612 44.5391 75.3209 45.4695 74.7866 46.7852H71.6484V49.4805H74.7866C75.3209 50.7961 76.612 51.7266 78.1172 51.7266ZM55.4766 67C55.4766 72.2017 59.7085 76.4336 64.9102 76.4336C66.3562 76.4336 67.727 76.1061 68.9531 75.5221V58.4779C67.727 57.8939 66.3562 57.5664 64.9102 57.5664C59.7085 57.5664 55.4766 61.7983 55.4766 67Z" fill="white"/>
<path d="M67.6055 44.0898H62.2148C61.4706 44.0898 60.8672 44.6932 60.8672 45.4375V47.1917C58.3326 47.7093 55.9208 48.7084 53.7627 50.1349L52.522 48.8942C51.9957 48.3679 51.1424 48.3679 50.6161 48.8942L46.8044 52.7059C46.2781 53.2322 46.2781 54.0855 46.8044 54.6118L48.045 55.8525C46.6186 58.0106 45.6194 60.4224 45.1019 62.957H43.3477C42.6034 62.957 42 63.5604 42 64.3047V69.6953C42 70.4396 42.6034 71.043 43.3477 71.043H45.1019C45.6194 73.5776 46.6186 75.9894 48.045 78.1475L46.8043 79.3883C46.5516 79.641 46.4096 79.9837 46.4096 80.3411C46.4096 80.6985 46.5516 81.0412 46.8043 81.294L50.6161 85.1058C51.1424 85.6321 51.9957 85.6321 52.522 85.1058L53.7627 83.8651C55.9208 85.2916 58.3326 86.2907 60.8672 86.8083V88.5625C60.8672 89.3068 61.4706 89.9102 62.2148 89.9102H67.6055C68.3497 89.9102 68.9531 89.3068 68.9531 88.5625V78.4351C67.6879 78.8838 66.3273 79.1289 64.9102 79.1289C58.2223 79.1289 52.7812 73.6879 52.7812 67C52.7812 60.3121 58.2223 54.8711 64.9102 54.8711C66.3273 54.8711 67.6879 55.1162 68.9531 55.5649V45.4375C68.9531 44.6932 68.3497 44.0898 67.6055 44.0898Z" fill="white"/>
</g>
<defs>
<clipPath id="clip0_662_1053">
<rect width="46" height="46" fill="white" transform="translate(42 44)"/>
</clipPath>
</defs>
</svg>
