<svg width="156" height="134" viewBox="0 0 156 134" fill="none" xmlns="http://www.w3.org/2000/svg">
<path d="M70.9465 131.432C73.7505 131.432 76.5545 131.237 79.3584 130.848C81.773 130.537 84.1875 130.109 86.602 129.564C72.8159 112.403 64.5208 90.689 64.5208 66.9905C64.5208 43.292 72.8159 21.5782 86.4852 4.41718C80.5268 2.89955 74.101 2.31584 67.5584 2.66606C35.3129 4.30044 8.79206 30.1003 6.57226 62.3209C3.88513 100.028 33.794 131.432 70.9465 131.432Z" fill="#ECC1CC"/>
<path d="M108.624 66.778C108.624 42.6126 88.9961 23.0001 64.8119 23.0001C40.6277 23.0001 21 42.6126 21 66.778C21 90.9435 40.6277 110.556 64.8119 110.556C88.9961 110.556 108.624 90.9435 108.624 66.778Z" fill="#CF637F"/>
<path d="M121.067 27.5319C121.067 24.1464 119.665 20.9944 117.211 18.5429C109.734 11.4216 100.504 5.9348 90.5735 2.89952C89.4052 2.58821 88.2758 2.27691 87.1854 1.9656C80.7597 0.331222 74.1002 -0.252483 67.4408 0.0977415C33.6764 1.73212 6.3378 28.4659 4.00116 62.2041C2.71601 80.9995 9.02492 98.9776 21.8764 112.636C34.4942 126.178 52.3695 134 70.9458 134C73.7497 134 76.7874 133.767 79.5914 133.416C82.1616 133.105 84.693 132.638 87.1854 132.015C98.4013 129.214 108.682 123.493 117.094 115.555C119.898 112.87 121.3 109.134 120.95 105.282C120.716 101.546 118.73 98.2772 115.692 96.1758C114.057 95.0862 112.538 93.841 111.136 92.4401C110.084 91.5062 108.566 91.5062 107.514 92.5568C106.579 93.6075 106.579 95.2419 107.631 96.1758C109.267 97.7324 110.98 99.1333 112.772 100.378C114.641 101.546 115.692 103.531 115.926 105.749C116.043 107.967 115.225 110.185 113.589 111.819C105.878 119.174 96.2983 124.427 85.9003 126.996C83.6415 127.618 81.3438 128.085 79.0072 128.396C76.3201 128.747 73.6329 128.863 70.9458 128.863C53.7715 128.863 37.2982 121.742 25.615 109.134C13.815 96.526 7.85661 79.9488 9.14175 62.5543C11.2447 31.3844 36.4804 6.75199 67.6745 5.11761C73.8666 4.88413 79.9418 5.46783 85.9003 6.86873C86.9907 7.18004 88.0422 7.49135 89.0547 7.80266C98.2844 10.6045 106.696 15.6243 113.706 22.2786C115.342 23.7962 116.16 26.0143 115.926 28.2324C115.809 30.4505 114.641 32.4351 112.888 33.6025C111.019 34.8477 109.267 36.2486 107.631 37.8052C106.579 38.7391 106.579 40.3735 107.514 41.4242C108.566 42.4748 110.084 42.4748 111.136 41.5409C112.538 40.14 114.057 38.8948 115.692 37.8052C118.73 35.7038 120.716 32.4351 121.067 28.6994C121.067 28.3102 121.067 27.9211 121.067 27.5319Z" fill="#CF637F"/>
<path d="M33.3263 114.154C33.3263 112.403 32.6253 110.768 31.3402 109.484C19.0729 98.0436 12.2966 81.9333 12.7639 65.2393C13.2313 49.8294 19.8907 35.3535 31.3402 24.6133C33.9105 22.1617 34.0273 18.1925 31.5739 15.6242C29.2372 13.0559 25.1481 12.8224 22.5778 15.274C8.55799 28.349 0.613442 45.977 0.0292842 64.889C-0.554874 85.202 7.62334 104.931 22.5778 118.824C25.1481 121.275 29.2372 121.042 31.6907 118.473C32.7422 117.306 33.3263 115.672 33.3263 114.154Z" fill="#CF637F"/>
<path d="M143.966 79.0146C150.626 79.0146 156 73.6445 156 66.9903C156 60.336 150.626 54.9659 143.966 54.9659C137.307 54.9659 131.933 60.336 131.933 66.9903C131.933 73.6446 137.307 79.0146 143.966 79.0146Z" fill="#CF637F"/>
<g clip-path="url(#clip0_662_1054)">
<path d="M60.9414 64.2941C60.9414 64.7565 61.0207 65.2145 61.1738 65.6471H68.8267C68.9804 65.2125 69.059 64.755 69.0591 64.2941C69.0591 62.0562 67.2384 60.2353 65.0002 60.2353C62.7623 60.2353 60.9414 62.0562 60.9414 64.2941Z" fill="white"/>
<path d="M64.9997 57.5294C69.2556 57.5294 72.4859 61.444 71.627 65.6471H85.2938V60.5319L80.4583 59.3231C80.1881 58.482 79.8493 57.6645 79.4455 56.8787L82.0102 52.6043L76.6896 47.2837L72.4152 49.8483C71.6295 49.4444 70.8119 49.1056 69.9708 48.8354L68.7619 44H61.2375L60.0286 48.8355C59.1875 49.1057 58.37 49.4445 57.5843 49.8484L53.3099 47.2838L47.9892 52.6043L50.5539 56.8787C50.15 57.6644 49.8112 58.4819 49.5411 59.3231L44.7056 60.5319V65.6471H58.3723C57.5135 61.4437 60.744 57.5294 64.9997 57.5294ZM64.9997 75.1177H63.6467V77.8235H64.9997C65.7458 77.8235 66.3526 77.2167 66.3526 76.4706C66.3526 75.7245 65.7458 75.1177 64.9997 75.1177ZM75.8232 75.1177H74.4703V77.8235H75.8232C76.5693 77.8235 77.1762 77.2167 77.1762 76.4706C77.1762 75.7245 76.5693 75.1177 75.8232 75.1177Z" fill="white"/>
<path d="M42 68.353V90H88V68.353H42ZM58.2353 75.1177H54.1765V77.8236H56.8824V80.5294H54.1765V83.2353H58.2353V85.9412H51.4706V72.4118H58.2353V75.1177ZM69.0588 81.8824V85.9412H66.3529V81.8824C66.3529 81.1363 65.7461 80.5294 65 80.5294H63.6471V85.9412H60.9412V72.4118H65C67.2381 72.4118 69.0588 74.2325 69.0588 76.4706C69.0588 77.5094 68.6662 78.4578 68.022 79.1765C68.6662 79.8952 69.0588 80.8436 69.0588 81.8824ZM75.8235 80.5294H74.4706V85.9412H71.7647V72.4118H75.8235C78.0617 72.4118 79.8824 74.2325 79.8824 76.4706C79.8824 78.7087 78.0617 80.5294 75.8235 80.5294Z" fill="white"/>
</g>
<defs>
<clipPath id="clip0_662_1054">
<rect width="46" height="46" fill="white" transform="translate(42 44)"/>
</clipPath>
</defs>
</svg>
