<svg width="156" height="134" viewBox="0 0 156 134" fill="none" xmlns="http://www.w3.org/2000/svg">
<path d="M70.9465 131.432C73.7505 131.432 76.5545 131.237 79.3584 130.848C81.773 130.537 84.1875 130.109 86.602 129.564C72.8159 112.403 64.5208 90.6891 64.5208 66.9906C64.5208 43.2921 72.8159 21.5782 86.4852 4.41724C80.5268 2.89961 74.101 2.3159 67.5584 2.66612C35.3129 4.3005 8.79206 30.1003 6.57226 62.3209C3.88513 100.028 33.794 131.432 70.9465 131.432Z" fill="#D6C8E5"/>
<path d="M108.624 66.7781C108.624 42.6127 88.9961 23.0001 64.8119 23.0001C40.6277 23.0001 21 42.6127 21 66.7781C21 90.9436 40.6277 110.556 64.8119 110.556C88.9961 110.556 108.624 90.9436 108.624 66.7781Z" fill="#9876BF"/>
<path d="M80.7405 63.0648V54.3176C81.217 54.3234 81.6763 54.1395 82.0174 53.8066C82.3584 53.4737 82.5532 53.0189 82.5589 52.5423C82.5646 52.0658 82.3808 51.6064 82.0478 51.2654C81.7149 50.9244 81.2601 50.7296 80.7836 50.7239H73.8261C73.3495 50.7182 72.8902 50.902 72.5492 51.2349C72.2082 51.5679 72.0134 52.0226 72.0076 52.4992C72.0019 52.9758 72.1858 53.4351 72.5187 53.7761C72.8516 54.1171 73.3064 54.3119 73.783 54.3176V63.0648C71.4319 63.9004 69.4595 65.553 68.2252 67.7214C66.9908 69.8898 66.5768 72.4296 67.0586 74.8777C67.5404 77.3258 68.8859 79.5193 70.8498 81.0583C72.8138 82.5973 75.2653 83.3792 77.7576 83.2617C89.1613 82.4531 91.355 67.0093 80.7405 63.0648ZM78.0451 63.7764C78.4026 63.7764 78.7453 63.9184 78.9981 64.1711C79.2508 64.4238 79.3928 64.7666 79.3928 65.124C79.3928 65.4815 79.2508 65.8242 78.9981 66.077C78.7453 66.3297 78.4026 66.4717 78.0451 66.4717C77.6877 66.4717 77.3449 66.3297 77.0922 66.077C76.8395 65.8242 76.6975 65.4815 76.6975 65.124C76.6975 64.7666 76.8395 64.4238 77.0922 64.1711C77.3449 63.9184 77.6877 63.7764 78.0451 63.7764ZM74.8108 68.1823C75.2873 68.1823 75.7444 68.3716 76.0813 68.7086C76.4183 69.0456 76.6076 69.5026 76.6076 69.9792C76.6076 70.4558 76.4183 70.9128 76.0813 71.2498C75.7444 71.5868 75.2873 71.7761 74.8108 71.7761C74.3342 71.7761 73.8772 71.5868 73.5402 71.2498C73.2032 70.9128 73.0139 70.4558 73.0139 69.9792C73.0139 69.5026 73.2032 69.0456 73.5402 68.7086C73.8772 68.3716 74.3342 68.1823 74.8108 68.1823ZM77.2617 80.5736C75.3274 80.5635 73.4668 79.8299 72.0462 78.517C70.6256 77.2041 69.7477 75.4071 69.5855 73.4795C69.5791 73.3553 69.6008 73.2313 69.6491 73.1167C69.6973 73.0021 69.7708 72.8998 69.8641 72.8176C69.9574 72.7354 70.0681 72.6753 70.1878 72.6418C70.3076 72.6083 70.4334 72.6023 70.5558 72.6242C74.987 73.466 79.5373 73.4636 83.9676 72.617C84.0904 72.5966 84.2162 72.6039 84.3358 72.6385C84.4554 72.673 84.5658 72.7338 84.6588 72.8165C84.7518 72.8992 84.8252 73.0017 84.8735 73.1164C84.9218 73.2311 84.9438 73.3552 84.938 73.4795C84.7779 75.4079 83.9008 77.2063 82.4797 78.5196C81.0585 79.8329 79.1967 80.5658 77.2617 80.5736Z" fill="white"/>
<path d="M84.0899 73.3286C79.7136 74.1635 75.2213 74.1878 70.8362 73.4005L70.4337 73.3286C70.4158 73.326 70.3976 73.3272 70.3803 73.3322C70.3629 73.3371 70.3468 73.3457 70.333 73.3574C70.451 75.1133 71.2296 76.7593 72.5122 77.9643C73.7948 79.1693 75.4862 79.8437 77.2461 79.8519C79.0059 79.8601 80.7035 79.2015 81.9973 78.0085C83.2911 76.8155 84.085 75.1768 84.2193 73.422C84.2178 73.407 84.2132 73.3925 84.2057 73.3794C84.1982 73.3663 84.1879 73.355 84.1757 73.3461C84.1635 73.3373 84.1495 73.3311 84.1347 73.3281C84.1199 73.3251 84.1046 73.3253 84.0899 73.3286ZM63.584 72.9189H63.2462C63.2045 73.4407 63.3619 77.0309 63.124 77.4399C63.3272 77.5567 63.4981 77.7224 63.6211 77.922C63.744 78.1215 63.8153 78.3486 63.8284 78.5827C63.7953 80.8338 58.3802 80.8403 58.3443 78.5827C58.3574 78.3486 58.4286 78.1215 58.5516 77.922C58.6746 77.7224 58.8455 77.5567 59.0487 77.4399C58.8108 77.0453 58.9689 73.4199 58.9265 72.9189H56.3821C56.3404 73.4407 56.4978 77.0309 56.2599 77.4399C56.4631 77.5567 56.634 77.7224 56.757 77.922C56.88 78.1215 56.9512 78.3486 56.9643 78.5827C56.9276 80.8395 51.5133 80.8338 51.4802 78.5827C51.4933 78.3486 51.5645 78.1215 51.6875 77.922C51.8105 77.7224 51.9814 77.5567 52.1846 77.4399C51.9625 77.0431 52.1084 73.4184 52.0696 72.9189H49.554C49.5123 73.4407 49.6697 77.0309 49.4318 77.4399C49.635 77.5567 49.8059 77.7224 49.9289 77.922C50.0519 78.1215 50.1231 78.3486 50.1362 78.5827C50.0995 80.8395 44.6852 80.8338 44.6521 78.5827C44.6652 78.3486 44.7364 78.1215 44.8594 77.922C44.9824 77.7224 45.1533 77.5567 45.3565 77.4399C45.1186 77.0453 45.2767 73.4199 45.2343 72.9189C44.8781 72.878 44.5172 72.9124 44.1751 73.0198C43.833 73.1272 43.5173 73.3052 43.2483 73.5423C42.9793 73.7795 42.7631 74.0704 42.6137 74.3964C42.4643 74.7223 42.385 75.076 42.3809 75.4345V80.7605C42.3828 81.4271 42.6484 82.0658 43.1198 82.5372C43.5911 83.0086 44.2299 83.2742 44.8965 83.2761H63.584C64.2506 83.2742 64.8893 83.0086 65.3607 82.5372C65.8321 82.0658 66.0977 81.4271 66.0996 80.7605V75.4345C66.0996 74.7674 65.8346 74.1275 65.3628 73.6557C64.891 73.184 64.2512 72.9189 63.584 72.9189Z" fill="white"/>
<path d="M61.0825 79.5781C62.4769 79.5608 63.7081 78.8414 62.7859 78.0759C62.5826 78.3318 62.3241 78.5384 62.0298 78.6804C61.7355 78.8225 61.4129 78.8962 61.0861 78.8962C60.7593 78.8962 60.4367 78.8225 60.1424 78.6804C59.8481 78.5384 59.5896 78.3318 59.3863 78.0759C58.4641 78.8363 59.6939 79.5573 61.0825 79.5781ZM54.2256 79.5781C55.6128 79.5608 56.844 78.8407 55.9219 78.0759C55.7185 78.3318 55.4601 78.5384 55.1658 78.6804C54.8714 78.8225 54.5488 78.8962 54.222 78.8962C53.8952 78.8962 53.5726 78.8225 53.2783 78.6804C52.984 78.5384 52.7255 78.3318 52.5222 78.0759C51.6 78.8378 52.8298 79.5573 54.2256 79.5781ZM47.3975 79.5781C48.7847 79.5608 50.0159 78.8407 49.0938 78.0759C48.8904 78.3318 48.632 78.5384 48.3376 78.6804C48.0433 78.8225 47.7207 78.8962 47.3939 78.8962C47.0671 78.8962 46.7445 78.8225 46.4502 78.6804C46.1559 78.5384 45.8974 78.3318 45.6941 78.0759C44.7719 78.8378 46.0017 79.5573 47.3975 79.5781ZM62.5272 72.9189V68.2758H59.645V74.1623H62.5272V72.9189Z" fill="white"/>
<path d="M59.8251 77.447C59.9671 77.6955 60.1796 77.8963 60.4358 78.0239C60.6919 78.1516 60.9802 78.2005 61.2641 78.1643C61.548 78.1282 61.8148 78.0086 62.0308 77.8208C62.2467 77.633 62.4021 77.3853 62.4773 77.1092C62.5348 76.3679 62.5516 75.6241 62.5276 74.8811H59.6454C59.6871 75.405 59.5139 76.9985 59.8251 77.447ZM55.6636 72.9189V68.2757H52.7886V74.1623H55.6636V72.9189ZM52.9682 77.447C53.1103 77.6944 53.3224 77.8941 53.5778 78.0211C53.8332 78.148 54.1205 78.1965 54.4034 78.1604C54.6864 78.1242 54.9522 78.0051 55.1676 77.818C55.3829 77.6309 55.5379 77.3843 55.6132 77.1092C55.6707 76.3679 55.6875 75.6241 55.6636 74.8811H52.7886C52.8302 75.405 52.657 76.9985 52.9682 77.447ZM48.8354 72.9189V68.2757H45.9532V74.1623H48.8354V72.9189ZM46.1401 77.4398C46.2807 77.6885 46.492 77.8897 46.7472 78.0181C47.0024 78.1464 47.2899 78.196 47.5734 78.1606C47.8568 78.1252 48.1233 78.0063 48.3391 77.8191C48.5548 77.6319 48.7101 77.3848 48.7851 77.1092C48.8426 76.3679 48.8594 75.6241 48.8354 74.8811H45.9532C45.9992 75.4 45.8095 77.0028 46.1401 77.4398ZM74.8111 71.0573C75.097 71.0573 75.3712 70.9437 75.5734 70.7415C75.7756 70.5393 75.8892 70.2651 75.8892 69.9792C75.8892 69.6932 75.7756 69.419 75.5734 69.2168C75.3712 69.0146 75.097 68.9011 74.8111 68.9011C74.5251 68.9011 74.2509 69.0146 74.0487 69.2168C73.8465 69.419 73.7329 69.6932 73.7329 69.9792C73.7329 70.2651 73.8465 70.5393 74.0487 70.7415C74.2509 70.9437 74.5251 71.0573 74.8111 71.0573ZM78.0454 65.7529C78.2122 65.7529 78.3722 65.6867 78.4901 65.5687C78.6081 65.4508 78.6743 65.2908 78.6743 65.124C78.6743 64.9572 78.6081 64.7973 78.4901 64.6793C78.3722 64.5614 78.2122 64.4951 78.0454 64.4951C77.8786 64.4951 77.7187 64.5614 77.6007 64.6793C77.4828 64.7973 77.4165 64.9572 77.4165 65.124C77.4165 65.2908 77.4828 65.4508 77.6007 65.5687C77.7187 65.6867 77.8786 65.7529 78.0454 65.7529Z" fill="white"/>
<path d="M121.067 27.5319C121.067 24.1464 119.665 20.9944 117.211 18.5429C109.734 11.4216 100.504 5.9348 90.5735 2.89952C89.4052 2.58821 88.2758 2.27691 87.1854 1.9656C80.7597 0.331222 74.1002 -0.252483 67.4408 0.0977415C33.6764 1.73212 6.3378 28.4659 4.00116 62.2041C2.71601 80.9995 9.02492 98.9776 21.8764 112.636C34.4942 126.178 52.3695 134 70.9458 134C73.7497 134 76.7874 133.767 79.5914 133.416C82.1616 133.105 84.693 132.638 87.1854 132.015C98.4013 129.214 108.682 123.493 117.094 115.555C119.898 112.87 121.3 109.134 120.95 105.282C120.716 101.546 118.73 98.2772 115.692 96.1758C114.057 95.0862 112.538 93.841 111.136 92.4401C110.084 91.5062 108.566 91.5062 107.514 92.5568C106.579 93.6075 106.579 95.2419 107.631 96.1758C109.267 97.7324 110.98 99.1333 112.772 100.378C114.641 101.546 115.692 103.531 115.926 105.749C116.043 107.967 115.225 110.185 113.589 111.819C105.878 119.174 96.2983 124.427 85.9003 126.996C83.6415 127.618 81.3438 128.085 79.0072 128.396C76.3201 128.747 73.6329 128.863 70.9458 128.863C53.7715 128.863 37.2982 121.742 25.615 109.134C13.815 96.526 7.85661 79.9488 9.14175 62.5543C11.2447 31.3844 36.4804 6.75199 67.6745 5.11761C73.8666 4.88413 79.9418 5.46783 85.9003 6.86873C86.9907 7.18004 88.0422 7.49135 89.0547 7.80266C98.2844 10.6045 106.696 15.6243 113.706 22.2786C115.342 23.7962 116.16 26.0143 115.926 28.2324C115.809 30.4505 114.641 32.4351 112.888 33.6025C111.019 34.8477 109.267 36.2486 107.631 37.8052C106.579 38.7391 106.579 40.3735 107.514 41.4242C108.566 42.4748 110.084 42.4748 111.136 41.5409C112.538 40.14 114.057 38.8948 115.692 37.8052C118.73 35.7038 120.716 32.4351 121.067 28.6994C121.067 28.3102 121.067 27.9211 121.067 27.5319Z" fill="#9876BF"/>
<path d="M33.3263 114.154C33.3263 112.403 32.6253 110.768 31.3402 109.484C19.0729 98.0436 12.2966 81.9333 12.7639 65.2393C13.2313 49.8294 19.8907 35.3535 31.3402 24.6133C33.9105 22.1617 34.0273 18.1925 31.5739 15.6242C29.2372 13.0559 25.1481 12.8224 22.5778 15.274C8.55799 28.349 0.613442 45.977 0.0292842 64.889C-0.554874 85.202 7.62334 104.931 22.5778 118.824C25.1481 121.275 29.2372 121.042 31.6907 118.473C32.7422 117.306 33.3263 115.672 33.3263 114.154Z" fill="#9876BF"/>
<path d="M143.966 79.0146C150.626 79.0146 156 73.6445 156 66.9903C156 60.336 150.626 54.9659 143.966 54.9659C137.307 54.9659 131.933 60.336 131.933 66.9903C131.933 73.6446 137.307 79.0146 143.966 79.0146Z" fill="#9876BF"/>
</svg>
