<svg width="80" height="80" viewBox="0 0 80 80" fill="none" xmlns="http://www.w3.org/2000/svg">
<g clip-path="url(#clip0_629_2503)">
<path d="M8.93069 73.5762C8.47267 73.7195 7.98562 73.7435 7.51574 73.6457C7.04587 73.548 6.60875 73.3319 6.24587 73.0178C5.883 72.7037 5.60639 72.3021 5.44229 71.8511C5.27819 71.4001 5.23205 70.9146 5.30824 70.4408L9.71105 43.972H8.62333C8.29775 43.9722 7.98238 44.0855 7.7312 44.2927C7.48002 44.4998 7.30867 44.7878 7.24648 45.1074L1.32087 75.5257C1.28368 75.7292 1.29163 75.9385 1.34418 76.1386C1.39673 76.3388 1.49259 76.5249 1.62498 76.684C1.75738 76.843 1.92308 76.971 2.11038 77.059C2.29768 77.1469 2.50201 77.1927 2.70894 77.193H31.6942L32.1153 72.1053C24.3859 70.6459 16.4137 71.1517 8.93069 73.5762ZM23.1917 24.8309C22.9205 24.4609 22.5657 24.1602 22.1562 23.9533C21.7467 23.7465 21.294 23.6394 20.8353 23.6408C20.1888 23.6444 19.5612 23.8592 19.0481 24.2524C18.5349 24.6456 18.1643 25.1957 17.9927 25.819C17.8211 26.4423 17.8578 27.1046 18.0973 27.705C18.3368 28.3055 18.766 28.8113 19.3195 29.1453C19.4798 29.2392 19.6198 29.364 19.7315 29.5124C19.8432 29.6609 19.9243 29.83 19.9702 30.01C20.016 30.19 20.0257 30.3774 19.9986 30.5611C19.9714 30.7449 19.9081 30.9215 19.8123 31.0806C19.7164 31.2397 19.5899 31.3782 19.4401 31.4881C19.2903 31.598 19.1202 31.677 18.9396 31.7206C18.759 31.7642 18.5716 31.7716 18.3882 31.7422C18.2047 31.7128 18.029 31.6473 17.871 31.5495C17.4913 31.3143 17.1408 31.0349 16.8268 30.7172C16.2007 32.1636 15.9865 33.7548 16.2077 35.3152C16.429 36.8756 17.0772 38.3445 18.0807 39.5597C19.0842 40.7749 20.4041 41.6892 21.8945 42.2016C23.3849 42.714 24.9879 42.8045 26.5265 42.4632C26.4465 41.9995 26.4038 41.5302 26.3988 41.0597C25.2034 40.9291 24.0983 40.3621 23.295 39.4674C22.4916 38.5727 22.0466 37.413 22.0451 36.2106C22.0443 35.8366 22.1914 35.4774 22.4543 35.2113C22.7172 34.9453 23.0746 34.7939 23.4486 34.7902C23.6319 34.7882 23.8139 34.8225 23.9839 34.8912C24.1539 34.9598 24.3086 35.0615 24.4391 35.1903C24.5696 35.3191 24.6733 35.4725 24.7442 35.6416C24.8151 35.8107 24.8517 35.9921 24.8521 36.1755V36.2106C24.8607 36.7448 25.0721 37.2558 25.4435 37.64C25.8149 38.0241 26.3184 38.2527 26.8521 38.2794C27.0514 37.6478 27.3195 37.0443 27.6549 36.473C27.7474 36.3106 27.8715 36.1683 28.0197 36.0544C28.168 35.9405 28.3375 35.8575 28.5184 35.81C28.6992 35.7626 28.8877 35.7517 29.0727 35.7781C29.2578 35.8045 29.4358 35.8677 29.5961 35.9638C29.7564 36.0599 29.896 36.1871 30.0065 36.3378C30.117 36.4886 30.1963 36.66 30.2397 36.8418C30.2831 37.0236 30.2897 37.2123 30.2592 37.3968C30.2287 37.5812 30.1616 37.7577 30.0619 37.9158C29.2826 39.2049 29.0161 40.7398 29.3152 42.2161C29.6142 43.6925 30.4571 45.0026 31.6766 45.8868C32.8962 46.771 34.4034 47.1647 35.8996 46.99C37.3957 46.8152 38.7716 46.0847 39.7546 44.9432C39.9441 44.7232 40.1972 44.5674 40.479 44.4973C40.7607 44.4271 41.0574 44.4461 41.3279 44.5516C42.8045 45.1371 44.3955 45.3772 45.9791 45.2534C46.8011 45.1994 47.614 45.0501 48.4016 44.8085C48.7574 44.699 49.1422 44.7354 49.4712 44.9097C49.8002 45.0839 50.0465 45.3817 50.156 45.7376C50.2654 46.0935 50.229 46.4782 50.0547 46.8072C49.8805 47.1362 49.5827 47.3825 49.2268 47.492C48.5231 47.7 47.8035 47.8502 47.0753 47.9411C47.5721 48.9236 48.7426 49.8372 51.7756 50.8534C53.3734 51.361 54.7967 52.3068 55.8837 53.5832C56.3174 54.1236 57.05 54.3201 57.6956 54.0702C58.2542 53.8316 58.6163 53.2843 58.6163 52.6779C58.6163 52.5236 58.591 52.3706 58.5433 52.2246C58.2796 51.3869 57.9287 50.5792 57.4963 49.8148C56.6963 50.15 55.8611 50.3939 55.0065 50.5418C54.6389 50.6006 54.263 50.511 53.9615 50.2927C53.8122 50.1846 53.6857 50.0481 53.5891 49.8911C53.4926 49.7341 53.4279 49.5596 53.3988 49.3776C53.3696 49.1956 53.3767 49.0096 53.4194 48.8303C53.4622 48.651 53.5398 48.4819 53.6479 48.3326C53.8662 48.0311 54.1954 47.8287 54.563 47.7699C56.8799 47.3926 58.9556 46.1198 60.3426 44.226C58.1861 44.8786 55.8601 44.6636 53.8598 43.6267C53.2685 43.3198 52.7162 42.9428 52.2149 42.5039C51.6535 42.7285 51.057 42.8464 50.4535 42.8506C49.5446 42.853 48.6531 42.6008 47.8801 42.1226C47.1072 41.6443 46.4837 40.9591 46.0802 40.1446C45.9136 39.8117 45.8861 39.4262 46.0038 39.0729C46.1214 38.7197 46.3746 38.4277 46.7075 38.2611C47.0405 38.0945 47.426 38.067 47.7792 38.1847C48.1325 38.3024 48.4245 38.5555 48.591 38.8885C48.729 39.151 48.9206 39.3816 49.1534 39.5654C49.3862 39.7492 49.6549 39.882 49.9423 39.9553C50.2297 40.0286 50.5293 40.0407 50.8216 39.9909C51.114 39.9411 51.3926 39.8304 51.6395 39.666C52.49 39.0737 52.7763 37.9481 52.316 37.0204C52.233 36.8557 52.1833 36.6763 52.1697 36.4924C52.1561 36.3085 52.1789 36.1238 52.2367 35.9487C52.2945 35.7736 52.3862 35.6116 52.5066 35.4719C52.627 35.3323 52.7737 35.2177 52.9384 35.1348C53.1031 35.0518 53.2825 35.0022 53.4664 34.9886C53.6503 34.9749 53.835 34.9977 54.0101 35.0555C54.1852 35.1133 54.3472 35.205 54.4869 35.3254C54.6265 35.4458 54.7411 35.5926 54.824 35.7572C55.2207 36.5363 55.3962 37.4091 55.3313 38.2809C55.2665 39.1527 54.9639 39.99 54.4563 40.7018C54.6725 40.859 54.8998 40.9993 55.137 41.1229C56.3115 41.7082 57.6443 41.8966 58.935 41.6597C60.2258 41.4228 61.4048 40.7734 62.2949 39.8092L62.3286 39.7741C63.0444 38.9741 63.5322 37.9965 63.741 36.9435C63.9499 35.8905 63.8722 34.8008 63.516 33.7881C63.191 34.0436 62.8395 34.2633 62.4675 34.4436C62.2785 34.5336 62.0715 34.5797 61.8621 34.5782C61.6527 34.5768 61.4464 34.5279 61.2586 34.4352C61.0709 34.3425 60.9066 34.2085 60.778 34.0432C60.6495 33.8779 60.5602 33.6856 60.5167 33.4808C60.4474 33.1719 60.4845 32.8486 60.6221 32.5635C60.7597 32.2784 60.9896 32.0482 61.2746 31.9102C61.8346 31.6478 62.2991 31.2183 62.6037 30.6808C62.9499 30.0908 63.0801 29.3988 62.972 28.7233C62.8639 28.0479 62.5242 27.4311 62.0112 26.9786C61.4982 26.5262 60.8437 26.2662 60.1601 26.2434C59.4764 26.2205 58.8061 26.4362 58.264 26.8534C57.9662 27.0767 57.5919 27.1726 57.2234 27.12C56.8549 27.0673 56.5225 26.8705 56.2991 26.5727C56.0758 26.2749 55.9799 25.9006 56.0325 25.5321C56.0852 25.1636 56.282 24.8311 56.5798 24.6078C57.1272 24.2008 57.7419 23.892 58.396 23.7025C57.9511 21.7929 56.902 20.0778 55.4046 18.812C53.9072 17.5462 52.0414 16.7973 50.0844 16.6765C50.0844 16.7846 50.1167 16.8871 50.1167 16.9951C50.1167 17.3674 49.9688 17.7244 49.7056 17.9876C49.4424 18.2508 49.0854 18.3986 48.7132 18.3986C48.3409 18.3986 47.9839 18.2508 47.7207 17.9876C47.4575 17.7244 47.3096 17.3674 47.3096 16.9951C47.3182 16.602 47.2482 16.2112 47.1037 15.8455C46.9592 15.4798 46.7431 15.1466 46.4681 14.8656C46.1931 14.5845 45.8647 14.3612 45.5023 14.2088C45.1398 14.0563 44.7506 13.9778 44.3574 13.9778C43.9642 13.9778 43.5749 14.0563 43.2125 14.2088C42.85 14.3612 42.5216 14.5845 42.2467 14.8656C41.9717 15.1466 41.7556 15.4798 41.611 15.8455C41.4665 16.2112 41.3965 16.602 41.4051 16.9951C41.4051 17.3674 41.2572 17.7244 40.994 17.9876C40.7308 18.2508 40.3738 18.3986 40.0016 18.3986C39.6293 18.3986 39.2724 18.2508 39.0091 17.9876C38.7459 17.7244 38.5981 17.3674 38.5981 16.9951C38.6051 16.3664 38.7174 15.7432 38.9279 15.1509C37.8237 14.4241 36.5319 14.034 35.21 14.0281C34.0167 14.0324 32.8448 14.3448 31.8076 14.9349C30.7705 15.525 29.9033 16.3729 29.29 17.3965C28.9672 17.9453 28.7216 18.5362 28.5616 19.1537C28.4621 19.5069 28.2282 19.8071 27.9101 19.99C27.592 20.1729 27.2149 20.2239 26.8597 20.1321C26.5044 20.0404 26.1992 19.8131 26.0094 19.4991C25.8196 19.185 25.7604 18.8092 25.8444 18.452C25.9286 18.1544 26.0268 17.8611 26.1391 17.5734C25.9701 17.5447 25.7995 17.5259 25.6282 17.5172C24.6504 17.5204 23.7033 17.8594 22.9455 18.4775C22.1877 19.0955 21.6652 19.9551 21.4654 20.9123C22.2484 20.99 23.0066 21.2298 23.6919 21.6164C24.3771 22.003 24.9744 22.528 25.4458 23.1579C25.5557 23.3059 25.6354 23.4742 25.6804 23.653C25.7253 23.8318 25.7346 24.0177 25.7077 24.2001C25.6808 24.3825 25.6182 24.5578 25.5235 24.716C25.4289 24.8742 25.304 25.0122 25.156 25.1222C25.008 25.2321 24.8397 25.3118 24.6609 25.3567C24.4821 25.4017 24.2962 25.411 24.1138 25.384C23.9314 25.3571 23.7561 25.2946 23.5979 25.1999C23.4397 25.1052 23.3017 24.9803 23.1917 24.8323V24.8309ZM44.7188 32.7734C45.9326 31.938 46.7678 30.6574 47.043 29.2099C47.0747 29.0261 47.1427 28.8505 47.243 28.6934C47.3434 28.5362 47.474 28.4006 47.6274 28.2945C47.7807 28.1884 47.9536 28.1139 48.1361 28.0754C48.3185 28.0369 48.5068 28.0351 48.6899 28.0701C48.8731 28.1052 49.0474 28.1764 49.2027 28.2796C49.358 28.3828 49.4912 28.5159 49.5945 28.6711C49.6978 28.8264 49.7691 29.0006 49.8043 29.1837C49.8395 29.3668 49.8379 29.5551 49.7995 29.7376C49.4705 31.4344 48.6303 32.9899 47.3917 34.1954C46.1532 35.4009 44.5754 36.1986 42.8703 36.4815C42.3691 37.8088 41.4742 38.9512 40.3055 39.7556C39.1368 40.5601 37.7502 40.9882 36.3314 40.9825C35.9592 40.9825 35.6022 40.8346 35.339 40.5714C35.0758 40.3082 34.9279 39.9512 34.9279 39.579C34.9279 39.2068 35.0758 38.8498 35.339 38.5866C35.6022 38.3234 35.9592 38.1755 36.3314 38.1755C37.0002 38.1765 37.6594 38.0171 38.2539 37.7106C38.8483 37.4041 39.3605 36.9595 39.7475 36.4141C38.0139 36.0434 36.4405 35.1376 35.2493 33.8246C35.0081 33.5468 34.8854 33.1856 34.9074 32.8184C34.9294 32.4512 35.0945 32.1072 35.3671 31.8603C35.6398 31.6133 35.9984 31.483 36.3659 31.4974C36.7335 31.5117 37.0809 31.6695 37.3335 31.9369C38.2641 32.9315 39.5187 33.562 40.8721 33.7152C42.2255 33.8685 43.5893 33.5346 44.7188 32.7734ZM35.5089 22.4562C35.8812 22.4562 36.2382 22.6041 36.5014 22.8673C36.7646 23.1305 36.9124 23.4875 36.9124 23.8597C36.9124 24.2319 36.7646 24.5889 36.5014 24.8521C36.2382 25.1153 35.8812 25.2632 35.5089 25.2632C35.0297 25.2632 34.5552 25.3576 34.1125 25.541C33.6698 25.7244 33.2675 25.9932 32.9286 26.332C32.5898 26.6709 32.321 27.0731 32.1376 27.5159C31.9542 27.9586 31.8598 28.4331 31.8598 28.9123C31.8598 29.2846 31.7119 29.6416 31.4487 29.9048C31.1855 30.168 30.8285 30.3158 30.4563 30.3158C30.0841 30.3158 29.7271 30.168 29.4639 29.9048C29.2007 29.6416 29.0528 29.2846 29.0528 28.9123C29.0547 27.2006 29.7355 25.5596 30.9458 24.3492C32.1562 23.1388 33.7972 22.4581 35.5089 22.4562Z" fill="#333333"/>
<path d="M38.5965 70.9082V53.3334C38.5965 52.9612 38.7444 52.6042 39.0076 52.341C39.2708 52.0778 39.6278 51.9299 40 51.9299C40.3722 51.9299 40.7292 52.0778 40.9924 52.341C41.2557 52.6042 41.4035 52.9612 41.4035 53.3334V70.9082C51.3074 67.6011 62.0176 67.6011 71.9214 70.9082L66.8548 40.4211C66.3818 40.3425 65.9116 40.2892 65.4414 40.2289C65.2028 40.6261 64.9319 41.005 64.633 41.3601C64.0183 44.2344 62.3558 46.777 59.9691 48.4927C60.4786 49.4008 60.8955 50.3566 61.2098 51.3489C61.5432 52.3737 61.4815 53.4862 61.037 54.4679C60.5925 55.4497 59.7971 56.2299 58.807 56.6555C58.2807 56.8801 57.7123 56.9952 57.1411 56.9952C56.4943 56.9908 55.8561 56.8461 55.2707 56.5711C54.6853 56.296 54.1665 55.8972 53.7502 55.4022C52.9924 54.52 52.0024 53.868 50.8927 53.5201C46.7762 52.1404 44.8169 50.5826 44.139 48.0113C43.146 47.9432 42.1636 47.7653 41.2098 47.4808C40.2214 48.4018 39.034 49.0826 37.7398 49.4703C36.4456 49.8581 35.0795 49.9423 33.7475 49.7166C32.4155 49.4908 31.1534 48.9611 30.0593 48.1686C28.9651 47.376 28.0684 46.342 27.4386 45.1468C25.1224 45.7156 22.6859 45.5391 20.4758 44.6425C18.2658 43.7459 16.395 42.1748 15.1298 40.1531L14.1755 40.2808C13.8768 40.3198 13.5986 40.4539 13.382 40.6631C13.1654 40.8724 13.0219 41.1458 12.9726 41.4429L8.07861 70.8969C17.9838 67.5941 28.6938 67.598 38.5965 70.9082Z" fill="#333333"/>
<path d="M71.3758 43.9733H70.2909L74.6909 70.4365C74.7679 70.9095 74.7229 71.3944 74.5601 71.8452C74.3973 72.296 74.1221 72.6978 73.7607 73.0125C73.3992 73.3272 72.9633 73.5444 72.4944 73.6435C72.0255 73.7426 71.539 73.7204 71.0811 73.5789C63.5969 71.1496 55.6222 70.6395 47.8895 72.0954L48.3105 77.193H77.2916C77.4985 77.1927 77.7029 77.1469 77.8902 77.0589C78.0775 76.971 78.2432 76.8429 78.3756 76.6839C78.5079 76.5249 78.6038 76.3387 78.6564 76.1386C78.7089 75.9384 78.7169 75.7292 78.6797 75.5256L72.7527 45.1088C72.6905 44.7892 72.5191 44.5012 72.2679 44.294C72.0168 44.0869 71.7014 43.9735 71.3758 43.9733ZM40.6081 74.2456C40.4188 74.3371 40.2113 74.3846 40.0011 74.3846C39.7908 74.3846 39.5833 74.3371 39.3941 74.2456C37.9312 73.6209 36.4209 73.1136 34.8776 72.7284L34.3948 78.553C34.6797 79.0007 36.6193 80 40.0004 80C43.3814 80 45.3211 79.0007 45.606 78.5558L45.1232 72.7228C43.58 73.1095 42.0702 73.6187 40.6081 74.2456ZM40.0004 4.21053C40.3726 4.21053 40.7296 4.06266 40.9928 3.79945C41.256 3.53624 41.4039 3.17925 41.4039 2.80702V1.40351C41.4039 1.03128 41.256 0.674287 40.9928 0.411078C40.7296 0.147869 40.3726 0 40.0004 0C39.6281 0 39.2711 0.147869 39.0079 0.411078C38.7447 0.674287 38.5969 1.03128 38.5969 1.40351V2.80702C38.5969 3.17925 38.7447 3.53624 39.0079 3.79945C39.2711 4.06266 39.6281 4.21053 40.0004 4.21053ZM62.6207 13.8709C62.9929 13.8708 63.3499 13.7229 63.613 13.4596L65.0165 12.0561C65.1506 11.9267 65.2575 11.7718 65.331 11.6006C65.4046 11.4293 65.4433 11.2452 65.4449 11.0588C65.4466 10.8725 65.411 10.6876 65.3405 10.5152C65.2699 10.3427 65.1657 10.186 65.0339 10.0542C64.9021 9.9224 64.7454 9.81819 64.5729 9.74762C64.4005 9.67705 64.2156 9.64154 64.0293 9.64316C63.8429 9.64478 63.6588 9.68349 63.4875 9.75705C63.3163 9.83061 63.1614 9.93753 63.032 10.0716L61.6284 11.4751C61.4322 11.6714 61.2986 11.9214 61.2445 12.1936C61.1903 12.4659 61.2181 12.748 61.3243 13.0044C61.4305 13.2608 61.6104 13.48 61.8411 13.6342C62.0719 13.7885 62.3432 13.8708 62.6207 13.8709ZM16.3877 13.4596C16.6524 13.7153 17.007 13.8568 17.375 13.8536C17.743 13.8504 18.095 13.7028 18.3552 13.4426C18.6154 13.1823 18.763 12.8303 18.7662 12.4623C18.7694 12.0943 18.628 11.7398 18.3723 11.4751L16.9688 10.0716C16.8393 9.93753 16.6845 9.83061 16.5132 9.75705C16.342 9.68349 16.1578 9.64478 15.9715 9.64316C15.7851 9.64154 15.6003 9.67705 15.4278 9.74762C15.2553 9.81819 15.0986 9.9224 14.9668 10.0542C14.8351 10.186 14.7308 10.3427 14.6603 10.5152C14.5897 10.6876 14.5542 10.8725 14.5558 11.0588C14.5574 11.2452 14.5961 11.4293 14.6697 11.6006C14.7433 11.7718 14.8502 11.9267 14.9842 12.0561L16.3877 13.4596ZM26.8874 7.09895C27.03 7.44289 27.3033 7.71611 27.6473 7.85851C27.9913 8.00091 28.3778 8.00081 28.7218 7.85825C29.0657 7.71568 29.3389 7.44232 29.4813 7.09831C29.6237 6.75429 29.6236 6.3678 29.4811 6.02386L27.8684 2.13333C27.8006 1.95925 27.6986 1.80047 27.5686 1.66631C27.4386 1.53214 27.2831 1.42529 27.1112 1.35202C26.9393 1.27875 26.7545 1.24054 26.5677 1.23962C26.3808 1.2387 26.1957 1.2751 26.0231 1.34667C25.8505 1.41825 25.694 1.52356 25.5626 1.65644C25.4313 1.78932 25.3278 1.94709 25.2582 2.1205C25.1886 2.2939 25.1544 2.47945 25.1575 2.66627C25.1606 2.85309 25.2009 3.03741 25.2762 3.20842L26.8874 7.09895ZM51.279 7.85965C51.4493 7.93028 51.6318 7.96668 51.8162 7.96674C52.0005 7.96681 52.1831 7.93055 52.3535 7.86004C52.5238 7.78953 52.6786 7.68614 52.809 7.55579C52.9394 7.42544 53.0428 7.27068 53.1134 7.10035L54.7246 3.20982C54.7998 3.03881 54.8402 2.85449 54.8433 2.66767C54.8464 2.48086 54.8121 2.29531 54.7425 2.1219C54.673 1.9485 54.5695 1.79073 54.4381 1.65785C54.3068 1.52497 54.1502 1.41965 53.9776 1.34808C53.805 1.2765 53.6199 1.2401 53.4331 1.24102C53.2462 1.24194 53.0614 1.28016 52.8896 1.35343C52.7177 1.4267 52.5622 1.53355 52.4321 1.66771C52.3021 1.80188 52.2002 1.96066 52.1323 2.13474L50.5197 6.02386C50.4488 6.19424 50.4123 6.37691 50.4121 6.56143C50.4119 6.74595 50.4481 6.9287 50.5186 7.09921C50.5892 7.26972 50.6926 7.42465 50.8231 7.55514C50.9535 7.68562 51.1085 7.7891 51.279 7.85965ZM68.5267 24.6765C68.7112 24.6762 68.8939 24.6394 69.0642 24.5684L72.9534 22.9572C73.2973 22.8148 73.5706 22.5416 73.7131 22.1978C73.8557 21.8539 73.8557 21.4675 73.7134 21.1235C73.571 20.7796 73.2978 20.5063 72.9539 20.3637C72.61 20.2212 72.2236 20.2211 71.8797 20.3635L67.9891 21.9747C67.6881 22.0984 67.4394 22.3228 67.2856 22.6096C67.1318 22.8964 67.0824 23.2277 67.1459 23.5469C67.2094 23.866 67.3818 24.1532 67.6337 24.3593C67.8856 24.5654 68.2013 24.6775 68.5267 24.6765ZM7.04739 22.9572L10.9365 24.5684C11.2805 24.711 11.6669 24.7111 12.011 24.5687C12.355 24.4263 12.6283 24.1531 12.7709 23.8091C12.9135 23.4652 12.9136 23.0787 12.7712 22.7347C12.6288 22.3907 12.3555 22.1173 12.0116 21.9747L8.12107 20.3635C7.77713 20.2211 7.39071 20.2212 7.04683 20.3637C6.70295 20.5063 6.42977 20.7796 6.28739 21.1235C6.14501 21.4675 6.14509 21.8539 6.28762 22.1978C6.43015 22.5416 6.70344 22.8148 7.04739 22.9572Z" fill="#102694"/>
</g>
<defs>
<clipPath id="clip0_629_2503">
<rect width="80" height="80" fill="white"/>
</clipPath>
</defs>
</svg>
