<svg width="35" height="35" viewBox="0 0 35 35" fill="none" xmlns="http://www.w3.org/2000/svg">
<circle opacity="0.1" cx="17.5" cy="17.5" r="17.5" fill="#4F694D"/>
<path d="M25.5 26V20.14C25.5 17.26 24.88 15.06 21.52 15.06C19.9 15.06 18.82 15.94 18.38 16.78H18.34V15.32H15.16V26H18.48V20.7C18.48 19.3 18.74 17.96 20.46 17.96C22.16 17.96 22.18 19.54 22.18 20.78V25.98H25.5V26ZM9.76 15.32H13.08V26H9.76V15.32ZM11.42 10C10.36 10 9.5 10.86 9.5 11.92C9.5 12.98 10.36 13.86 11.42 13.86C12.48 13.86 13.34 12.98 13.34 11.92C13.34 10.86 12.48 10 11.42 10Z" fill="#333333"/>
</svg>
