<svg width="40" height="40" viewBox="0 0 40 40" fill="none" xmlns="http://www.w3.org/2000/svg">
<circle opacity="0.1" cx="20" cy="20" r="20" fill="#7F7F7F"/>
<path d="M27.1834 17.0413C26.3084 13.1913 22.9501 11.458 20.0001 11.458C20.0001 11.458 20.0001 11.458 19.9917 11.458C17.0501 11.458 13.6834 13.183 12.8084 17.033C11.8334 21.333 14.4667 24.9747 16.8501 27.2663C17.7334 28.1163 18.8667 28.5413 20.0001 28.5413C21.1334 28.5413 22.2667 28.1163 23.1417 27.2663C25.5251 24.9747 28.1584 21.3413 27.1834 17.0413ZM20.0001 21.2163C18.5501 21.2163 17.3751 20.0413 17.3751 18.5913C17.3751 17.1413 18.5501 15.9663 20.0001 15.9663C21.4501 15.9663 22.6251 17.1413 22.6251 18.5913C22.6251 20.0413 21.4501 21.2163 20.0001 21.2163Z" fill="white"/>
</svg>
