<svg width="40" height="40" viewBox="0 0 40 40" fill="none" xmlns="http://www.w3.org/2000/svg">
<circle opacity="0.1" cx="20" cy="20" r="20" fill="#7F7F7F"/>
<path d="M24.1667 12.917H15.8334C13.3334 12.917 11.6667 14.167 11.6667 17.0837V22.917C11.6667 25.8337 13.3334 27.0837 15.8334 27.0837H24.1667C26.6667 27.0837 28.3334 25.8337 28.3334 22.917V17.0837C28.3334 14.167 26.6667 12.917 24.1667 12.917ZM24.5584 17.992L21.9501 20.0753C21.4001 20.517 20.7001 20.7337 20.0001 20.7337C19.3001 20.7337 18.5917 20.517 18.0501 20.0753L15.4417 17.992C15.1751 17.7753 15.1334 17.3753 15.3417 17.1087C15.5584 16.842 15.9501 16.792 16.2167 17.0087L18.8251 19.092C19.4584 19.6003 20.5334 19.6003 21.1667 19.092L23.7751 17.0087C24.0417 16.792 24.4417 16.8337 24.6501 17.1087C24.8667 17.3753 24.8251 17.7753 24.5584 17.992Z" fill="white"/>
</svg>
