<svg width="80" height="80" viewBox="0 0 80 80" fill="none" xmlns="http://www.w3.org/2000/svg">
<path d="M39.9998 48.3334C44.6022 48.3334 48.3332 44.6025 48.3332 40.0001C48.3332 35.3977 44.6022 31.6667 39.9998 31.6667C35.3975 31.6667 31.6665 35.3977 31.6665 40.0001C31.6665 44.6025 35.3975 48.3334 39.9998 48.3334Z" fill="#102694"/>
<path fill-rule="evenodd" clip-rule="evenodd" d="M55 56.6667V73.3334C55.0007 73.5525 54.958 73.7695 54.8745 73.972C54.7909 74.1745 54.6682 74.3585 54.5133 74.5134C54.3584 74.6683 54.1744 74.791 53.9719 74.8746C53.7694 74.9581 53.5524 75.0007 53.3333 75.0001H26.6667C26.4476 75.0007 26.2306 74.9581 26.0281 74.8746C25.8256 74.791 25.6416 74.6683 25.4867 74.5134C25.3318 74.3585 25.2091 74.1745 25.1255 73.972C25.042 73.7695 24.9993 73.5525 25 73.3334V56.6667C25 55.3401 25.5267 54.0684 26.465 53.1317C26.929 52.6671 27.48 52.2986 28.0866 52.0472C28.6932 51.7958 29.3434 51.6665 30 51.6667H50C51.3267 51.6667 52.5983 52.1934 53.535 53.1317C54.4733 54.0684 55 55.3401 55 56.6667ZM21.6667 65.0001V73.3334C21.6667 73.7754 21.4911 74.1994 21.1785 74.5119C20.866 74.8245 20.442 75.0001 20 75.0001H6.66667C6.22464 75.0001 5.80071 74.8245 5.48815 74.5119C5.17559 74.1994 5 73.7754 5 73.3334V65.0001C5 63.6734 5.52666 62.4017 6.465 61.4651C6.92896 61.0005 7.48002 60.6319 8.0866 60.3805C8.69318 60.1291 9.34339 59.9999 10 60.0001H16.6667C17.9933 60.0001 19.265 60.5267 20.2017 61.4651C21.14 62.4017 21.6667 63.6734 21.6667 65.0001ZM58.3333 73.3334V65.0001C58.3333 63.6734 58.86 62.4017 59.7983 61.4651C60.2623 61.0005 60.8133 60.6319 61.4199 60.3805C62.0265 60.1291 62.6767 59.9999 63.3333 60.0001H70C71.3267 60.0001 72.5983 60.5267 73.535 61.4651C74.4733 62.4017 75 63.6734 75 65.0001V73.3334C75 73.7754 74.8244 74.1994 74.5118 74.5119C74.1993 74.8245 73.7754 75.0001 73.3333 75.0001H60C59.558 75.0001 59.134 74.8245 58.8215 74.5119C58.5089 74.1994 58.3333 73.7754 58.3333 73.3334Z" fill="#102694"/>
<path d="M13.3332 56.6668C17.0151 56.6668 19.9998 53.6821 19.9998 50.0002C19.9998 46.3183 17.0151 43.3335 13.3332 43.3335C9.65127 43.3335 6.6665 46.3183 6.6665 50.0002C6.6665 53.6821 9.65127 56.6668 13.3332 56.6668Z" fill="#333333"/>
<path d="M66.6667 56.6668C70.3486 56.6668 73.3333 53.6821 73.3333 50.0002C73.3333 46.3183 70.3486 43.3335 66.6667 43.3335C62.9848 43.3335 60 46.3183 60 50.0002C60 53.6821 62.9848 56.6668 66.6667 56.6668Z" fill="#333333"/>
<path fill-rule="evenodd" clip-rule="evenodd" d="M11.55 40.1584C11.5467 39.5317 11.5667 38.9017 11.6084 38.2734C11.6731 37.312 11.4587 36.3524 10.991 35.51C10.5232 34.6676 9.82198 33.9783 8.97169 33.5251C8.38003 33.2101 7.72337 32.86 7.11671 32.5284L7.1017 32.5184C6.76991 32.3419 6.50788 32.0579 6.3586 31.713C6.20932 31.3681 6.18163 30.9827 6.28004 30.62C6.54838 29.655 6.85838 28.7017 7.20005 27.7601C7.33502 27.4084 7.5851 27.1129 7.90955 26.9216C8.23401 26.7303 8.61368 26.6546 8.9867 26.7067H8.98838C9.68338 26.8034 10.4317 26.9084 11.1084 26.9934C12.0586 27.123 13.0261 26.9761 13.8951 26.5703C14.7641 26.1645 15.4978 25.5169 16.0084 24.705C16.625 23.7384 17.305 22.8017 18.045 21.915H18.0467C18.6639 21.1751 19.0542 20.2726 19.1707 19.3161C19.2872 18.3596 19.1249 17.3898 18.7034 16.5234C18.41 15.92 18.085 15.2517 17.79 14.6267C17.6203 14.2879 17.5717 13.9012 17.6524 13.5309C17.7331 13.1607 17.9381 12.8292 18.2334 12.5917C19.0184 11.9684 19.8284 11.38 20.6584 10.8184C21.3084 10.3967 22.165 10.4784 22.7234 11.0167C23.2284 11.505 23.7734 12.0284 24.27 12.495C24.9627 13.1586 25.8318 13.6086 26.7735 13.7913C27.7152 13.974 28.6895 13.8815 29.58 13.5251C30.6467 13.1051 31.7467 12.7467 32.8684 12.4651C33.8028 12.2296 34.6493 11.7292 35.306 11.024C35.9627 10.3188 36.4017 9.43885 36.57 8.49003C36.6867 7.82837 36.8167 7.09671 36.945 6.41837L36.9484 6.40004C37.014 6.02973 37.2034 5.69269 37.4856 5.4441C37.7678 5.19551 38.1261 5.0501 38.5017 5.03171C39.5024 4.99143 40.5042 4.98866 41.505 5.02339C41.8816 5.04263 42.2405 5.18912 42.523 5.43891C42.8055 5.6887 42.9948 6.02698 43.06 6.39839C43.1817 7.09005 43.3134 7.83339 43.4417 8.50339C43.6119 9.44748 44.0507 10.3225 44.7054 11.0236C45.3601 11.7248 46.2031 12.2223 47.1334 12.4567C48.2493 12.7438 49.3455 13.1029 50.415 13.5317H50.4167C51.3109 13.8903 52.2896 13.9829 53.2352 13.7984C54.1808 13.6139 55.0529 13.1601 55.7467 12.4917C56.23 12.0267 56.765 11.51 57.2684 11.035L57.2817 11.0234C57.5522 10.7622 57.9034 10.6007 58.2778 10.5656C58.6522 10.5305 59.0274 10.6237 59.3417 10.83C60.175 11.3834 60.9867 11.9717 61.7767 12.5884C62.0698 12.8252 62.2738 13.1544 62.3556 13.5222C62.4373 13.8901 62.3919 14.2747 62.2267 14.6134C61.92 15.2451 61.5884 15.925 61.2967 16.5417C60.8799 17.4057 60.7209 18.3715 60.8385 19.3235C60.9561 20.2755 61.3455 21.1735 61.96 21.91C62.6884 22.7934 63.37 23.73 63.9834 24.7084H63.985C64.4975 25.5242 65.2349 26.1746 66.1083 26.5812C66.9818 26.9877 67.9542 27.1332 68.9084 27C69.5734 26.9084 70.3084 26.805 70.995 26.7167L71.0134 26.7151C71.3855 26.663 71.7643 26.7388 72.0877 26.9302C72.4111 27.1216 72.6599 27.4171 72.7934 27.7684C73.1434 28.7067 73.4534 29.66 73.73 30.6234C73.8279 30.9871 73.7995 31.3733 73.6493 31.7188C73.4991 32.0643 73.2361 32.3485 72.9034 32.525V32.5267C72.2728 32.8603 71.6444 33.198 71.0184 33.54C70.1735 33.9939 69.4773 34.6815 69.0129 35.5206C68.5486 36.3597 68.3358 37.3148 68.4 38.2717C68.4384 38.8984 68.455 39.5284 68.45 40.1584C67.8614 40.0531 67.2646 40.0001 66.6667 40C64.0167 40 61.6067 41.0334 59.8167 42.7167C59.9384 41.8284 60 40.9217 60 40C60 28.9617 51.0384 20 40 20C28.9617 20 20 28.9617 20 40C20 40.9217 20.0617 41.8284 20.1834 42.7167C18.3309 40.9695 15.8799 39.9974 13.3334 40C12.725 40 12.1284 40.055 11.55 40.1584Z" fill="#333333"/>
<path fill-rule="evenodd" clip-rule="evenodd" d="M28.0535 45.9252C27.047 43.892 26.5757 41.6357 26.684 39.3696C26.7924 37.1035 27.4769 34.9025 28.6728 32.9747C29.8687 31.0468 31.5366 29.4558 33.5186 28.3521C35.5007 27.2483 37.7315 26.6683 40.0002 26.6668C42.2688 26.6683 44.4997 27.2483 46.4817 28.3521C48.4638 29.4558 50.1316 31.0468 51.3275 32.9747C52.5235 34.9025 53.208 37.1035 53.3163 39.3696C53.4247 41.6357 52.9533 43.892 51.9468 45.9252C51.7661 46.3187 51.7456 46.7673 51.8898 47.1757C52.034 47.5841 52.3315 47.9204 52.7194 48.1132C53.1072 48.306 53.5549 48.3403 53.9675 48.2088C54.3802 48.0772 54.7255 47.7902 54.9302 47.4085C56.076 45.1073 56.6706 42.5709 56.6668 40.0002C56.6668 30.8018 49.1985 23.3335 40.0002 23.3335C30.8018 23.3335 23.3335 30.8018 23.3335 40.0002C23.3298 42.5709 23.9243 45.1073 25.0702 47.4085C25.1676 47.6044 25.3026 47.7792 25.4676 47.9229C25.6325 48.0666 25.8241 48.1764 26.0315 48.246C26.2389 48.3157 26.458 48.3438 26.6762 48.3288C26.8945 48.3137 27.1076 48.2559 27.3035 48.1585C27.4994 48.0611 27.6742 47.9261 27.8179 47.7611C27.9616 47.5962 28.0714 47.4045 28.141 47.1971C28.2107 46.9898 28.2388 46.7707 28.2238 46.5525C28.2088 46.3342 28.1509 46.121 28.0535 45.9252Z" fill="#333333"/>
</svg>
