<svg width="298" height="200" viewBox="0 0 298 200" fill="none" xmlns="http://www.w3.org/2000/svg">
<rect width="298" height="200" rx="15" fill="#FAFAFA"/>
<path d="M262.225 158.009C262.225 159.478 211.212 160.665 148.28 160.665C85.3553 160.665 34.3359 159.478 34.3359 158.009C34.3359 156.546 85.3553 155.352 148.28 155.352C211.212 155.352 262.225 156.546 262.225 158.009Z" fill="#A9BDD2"/>
<path fill-rule="evenodd" clip-rule="evenodd" d="M119.101 93.397C128.44 103.678 127.651 119.631 117.344 128.953C107.029 138.268 91.0351 137.481 81.6959 127.2C72.3499 116.912 73.1385 100.959 83.4531 91.6444C93.7677 82.3225 109.755 83.1091 119.101 93.397ZM114.784 97.6612C107.513 89.6572 95.1789 88.9396 87.2925 96.0604C79.4061 103.188 78.915 115.498 86.1857 123.509C93.4564 131.513 105.791 132.23 113.677 125.109C121.564 117.982 122.055 105.672 114.784 97.6612Z" fill="#D4DEE8"/>
<path fill-rule="evenodd" clip-rule="evenodd" d="M140.076 117.257L137.433 126.275L127.603 125.516C126.012 128.449 123.936 131.174 121.328 133.527C121.259 133.589 121.19 133.638 121.121 133.7L124.262 142.829L116.174 147.645L109.132 140.213C105.694 141.173 102.124 141.531 98.5823 141.269L94.4177 150.212L85.2446 148.093L85.3346 137.233C82.5674 135.646 79.994 133.624 77.7387 131.14C77.6626 131.057 77.6004 130.967 77.5312 130.885L68.1575 134.003L63.3979 125.903L70.9177 118.92C69.9077 115.436 69.5064 111.827 69.7347 108.253L61.4609 104.375L63.6193 95.2323L73.5257 95.3565C75.0961 92.5344 77.123 89.9193 79.6411 87.6423C79.821 87.4767 80.0147 87.3456 80.1946 87.1869L77.5934 78.2169L85.8534 73.7112L92.0311 80.901C95.4278 79.9764 98.942 79.6452 102.436 79.9005L107.444 71.2065L116.43 74.001L115.497 83.8611C118.312 85.4619 120.934 87.5043 123.231 90.0297C123.397 90.2091 123.535 90.4092 123.694 90.5955L133.372 87.6423L138.021 95.805L130.19 102.712C131.062 105.893 131.435 109.17 131.276 112.42L140.076 117.257ZM119.606 92.9415C110.011 82.3776 93.5876 81.5703 82.9963 91.1406C72.405 100.711 71.5956 117.092 81.1907 127.655C90.7859 138.212 107.209 139.02 117.8 129.449C128.391 119.886 129.201 103.505 119.606 92.9415Z" fill="#D4DEE8"/>
<path fill-rule="evenodd" clip-rule="evenodd" d="M107.88 48.057C111.705 52.2729 111.387 58.8072 107.16 62.6229C102.933 66.4386 96.389 66.1143 92.5565 61.9053C88.7309 57.6894 89.0561 51.1551 93.2829 47.3394C97.5028 43.5237 104.054 43.848 107.88 48.057ZM106.116 49.8096C103.134 46.5252 98.0839 46.2354 94.8533 49.1541C91.6226 52.0728 91.422 57.1098 94.3967 60.3942C97.3783 63.6717 102.428 63.9684 105.659 61.0497C108.89 58.131 109.09 53.0871 106.116 49.8096Z" fill="#A9BDD2"/>
<path fill-rule="evenodd" clip-rule="evenodd" d="M116.472 57.8343L115.386 61.5258L111.359 61.2153C110.709 62.4159 109.858 63.5337 108.793 64.4997C108.765 64.5204 108.738 64.5411 108.71 64.5687L109.997 68.3085L106.683 70.275L103.798 67.2321C102.387 67.6254 100.927 67.7772 99.4746 67.6668L97.7728 71.3307L94.0163 70.4613L94.0509 66.0108C92.9164 65.3622 91.8649 64.5342 90.9379 63.5199C90.9102 63.4854 90.8825 63.444 90.8549 63.4095L87.0154 64.6929L85.0646 61.374L88.15 58.5105C87.728 57.0822 87.5689 55.6056 87.6657 54.1428L84.269 52.5558L85.1545 48.8091L89.2153 48.8643C89.8587 47.7051 90.6888 46.6356 91.7196 45.7041C91.7957 45.6351 91.8718 45.5799 91.9479 45.5178L90.8825 41.8401L94.2654 39.9978L96.7904 42.9441C98.1878 42.5646 99.6267 42.4266 101.052 42.5301L103.106 38.9697L106.787 40.1151L106.406 44.1585C107.555 44.8071 108.634 45.6489 109.575 46.6839C109.644 46.7529 109.699 46.8357 109.761 46.9116L113.725 45.7041L115.628 49.0437L112.425 51.8727C112.778 53.1768 112.937 54.5223 112.868 55.854L116.472 57.8343ZM108.087 47.8707C104.158 43.5444 97.4338 43.2132 93.0963 47.1324C88.7588 51.0516 88.4267 57.7653 92.3561 62.0916C96.2854 66.4179 103.01 66.7491 107.347 62.8299C111.685 58.9038 112.017 52.197 108.087 47.8707Z" fill="#A9BDD2"/>
<path fill-rule="evenodd" clip-rule="evenodd" d="M246.528 48.0364C250.229 52.1074 249.918 58.4278 245.836 62.1193C241.748 65.8108 235.411 65.5003 231.71 61.4293C228.009 57.3514 228.32 51.031 232.409 47.3395C236.49 43.648 242.827 43.9585 246.528 48.0364ZM244.819 49.7269C241.942 46.5529 237.051 46.27 233.931 49.0921C230.804 51.9142 230.61 56.7925 233.488 59.9665C236.373 63.1336 241.257 63.4234 244.384 60.5944C247.504 57.7723 247.704 52.894 244.819 49.7269Z" fill="#A9BDD2"/>
<path fill-rule="evenodd" clip-rule="evenodd" d="M254.844 57.4893L253.792 61.0566L249.897 60.7599C249.268 61.9191 248.445 63.0024 247.414 63.9339C247.386 63.9615 247.358 63.9753 247.331 64.0029L248.576 67.6185L245.373 69.5229L242.585 66.5835C241.215 66.963 239.804 67.1079 238.4 67.0044L236.753 70.5441L233.115 69.7023L233.149 65.4036C232.056 64.7757 231.039 63.9753 230.147 62.9886C230.112 62.9541 230.091 62.9196 230.057 62.8851L226.349 64.1202L224.46 60.9117L227.442 58.1448C227.041 56.7648 226.882 55.3365 226.971 53.922L223.692 52.3833L224.55 48.7608L228.473 48.8091C229.095 47.6913 229.898 46.6563 230.901 45.7524C230.97 45.6903 231.046 45.6351 231.115 45.573L230.085 42.0195L233.357 40.2324L235.806 43.0821C237.155 42.7164 238.545 42.5853 239.929 42.6888L241.914 39.2388L245.47 40.3497L245.103 44.2551C246.217 44.8899 247.255 45.6972 248.168 46.6977C248.23 46.7736 248.285 46.8495 248.348 46.9254L252.187 45.7524L254.027 48.9885L250.921 51.7278C251.267 52.9836 251.419 54.2808 251.357 55.5711L254.844 57.4893ZM246.729 47.8569C242.931 43.6686 236.421 43.3512 232.229 47.1393C228.03 50.9343 227.712 57.4203 231.51 61.6086C235.314 65.79 241.817 66.1143 246.016 62.3193C250.209 58.5312 250.534 52.0383 246.729 47.8569Z" fill="#A9BDD2"/>
<path fill-rule="evenodd" clip-rule="evenodd" d="M64.2972 74.9879C67.2443 78.2378 66.9952 83.2679 63.7438 86.2004C60.4924 89.1398 55.4493 88.8914 52.5023 85.6484C49.5552 82.4054 49.8043 77.3753 53.0557 74.4359C56.3071 71.4965 61.3502 71.7449 64.2972 74.9879ZM62.9344 76.3334C60.6446 73.8149 56.7498 73.5872 54.2663 75.8297C51.7828 78.0791 51.6237 81.9638 53.9135 84.4892C56.2102 87.0146 60.0981 87.2354 62.5885 84.9929C65.072 82.7435 65.2312 78.8588 62.9344 76.3334Z" fill="#698EAE"/>
<path fill-rule="evenodd" clip-rule="evenodd" d="M70.9109 82.5157L70.0738 85.3585L66.9746 85.117C66.4765 86.0416 65.8193 86.9041 64.9961 87.6493C64.9753 87.6631 64.9546 87.6838 64.9338 87.6976L65.9231 90.5818L63.3773 92.0998L61.1567 89.7538C60.0706 90.0574 58.9429 90.1678 57.8292 90.0919L56.5148 92.9071L53.6231 92.2378L53.6508 88.8154C52.7791 88.3117 51.9628 87.6769 51.2503 86.8903C51.2295 86.8696 51.2088 86.842 51.188 86.8144L48.2341 87.7942L46.7329 85.2412L49.1057 83.0401C48.7806 81.943 48.6561 80.8045 48.7321 79.6729L46.1172 78.4516L46.8021 75.5743L49.922 75.6088C50.4201 74.7187 51.0566 73.8976 51.8521 73.1731C51.9075 73.1248 51.9697 73.0834 52.0251 73.0351L51.2088 70.2061L53.8099 68.7847L55.7607 71.0479C56.833 70.7581 57.9399 70.6546 59.0398 70.7374L60.6171 67.9912L63.4534 68.8744L63.1559 71.9863C64.0483 72.49 64.8785 73.1317 65.598 73.9321C65.6533 73.9873 65.6948 74.0494 65.7432 74.1046L68.8009 73.1731L70.2606 75.7537L67.7909 77.9272C68.0676 78.9346 68.1852 79.9627 68.1368 80.9908L70.9109 82.5157ZM64.4565 74.8498C61.4265 71.5171 56.2519 71.2618 52.9106 74.2771C49.5692 77.2993 49.3133 82.4605 52.3433 85.7932C55.3664 89.1259 60.5479 89.3812 63.8823 86.359C67.2237 83.3437 67.4796 78.1756 64.4565 74.8498Z" fill="#698EAE"/>
<path fill-rule="evenodd" clip-rule="evenodd" d="M74.0515 54.7359C75.5873 56.4264 75.4559 59.0553 73.761 60.5871C72.0661 62.1189 69.4304 61.9878 67.8946 60.2973C66.3589 58.6068 66.4903 55.9779 68.1852 54.4461C69.8801 52.9143 72.5158 53.0454 74.0515 54.7359ZM73.339 55.4397C72.1422 54.1218 70.1153 54.0045 68.8147 55.1775C67.5211 56.3505 67.438 58.3722 68.6348 59.6901C69.8316 61.008 71.8586 61.1253 73.1591 59.9523C74.4528 58.7793 74.5358 56.7576 73.339 55.4397Z" fill="#58A52C"/>
<path fill-rule="evenodd" clip-rule="evenodd" d="M77.5033 58.6621L77.0675 60.1456L75.4487 60.0214C75.1858 60.5044 74.8469 60.9529 74.418 61.3393C74.4041 61.3485 74.3926 61.3577 74.3834 61.3669L74.9022 62.8711L73.5671 63.6646L72.4118 62.4364C71.8445 62.5951 71.2565 62.6572 70.6754 62.6158L69.9905 64.0855L68.4824 63.7336L68.4963 61.9465C68.0397 61.6843 67.6177 61.3531 67.2441 60.946C67.2303 60.9322 67.2234 60.9184 67.2095 60.9046L65.6668 61.4152L64.8851 60.0835L66.1234 58.9381C65.9574 58.3654 65.8882 57.7651 65.9297 57.1786L64.5669 56.5438L64.9197 55.0396L66.5523 55.0603C66.8083 54.598 67.1403 54.1633 67.5554 53.7907C67.59 53.7631 67.6177 53.7424 67.6523 53.7148L67.2234 52.2382L68.5793 51.4999L69.5962 52.6798C70.1565 52.528 70.7376 52.4728 71.3118 52.5142L72.1351 51.0859L73.6086 51.5482L73.4564 53.1697C73.9199 53.4319 74.3557 53.77 74.7293 54.184C74.7569 54.2116 74.7777 54.2461 74.8054 54.2737L76.3965 53.7907L77.1644 55.1362L75.8776 56.2678C76.016 56.7922 76.0783 57.3304 76.0575 57.8686L77.5033 58.6621ZM74.1343 54.6601C72.5501 52.9213 69.8522 52.7902 68.1089 54.3634C66.3655 55.9366 66.2341 58.6345 67.8114 60.3733C69.3887 62.1052 72.0936 62.2432 73.8369 60.6631C75.5802 59.0899 75.7116 56.3989 74.1343 54.6601Z" fill="#58A52C"/>
<path fill-rule="evenodd" clip-rule="evenodd" d="M228.978 74.0767C230.514 75.7672 230.389 78.3961 228.687 79.9279C226.992 81.4597 224.364 81.3286 222.821 79.6381C221.285 77.9476 221.417 75.3256 223.111 73.7869C224.813 72.2551 227.442 72.3862 228.978 74.0767ZM228.265 74.7805C227.068 73.4626 225.042 73.3453 223.748 74.5183C222.447 75.6913 222.364 77.713 223.561 79.0309C224.758 80.3488 226.792 80.4661 228.085 79.2931C229.386 78.1201 229.462 76.0984 228.265 74.7805Z" fill="#58A52C"/>
<path fill-rule="evenodd" clip-rule="evenodd" d="M232.43 78.003L231.994 79.4865L230.375 79.3623C230.112 79.8453 229.773 80.2938 229.344 80.6802C229.335 80.6894 229.323 80.6986 229.31 80.7078L229.828 82.212L228.5 83.0055L227.338 81.7773C226.771 81.936 226.183 81.9981 225.602 81.9567L224.917 83.4264L223.409 83.0745L223.423 81.2874C222.966 81.0321 222.544 80.694 222.17 80.2869C222.163 80.2731 222.15 80.2593 222.136 80.2455L220.6 80.763L219.811 79.4244L221.05 78.279C220.884 77.7063 220.821 77.1129 220.856 76.5195L219.493 75.8847L219.853 74.3805L221.479 74.4012C221.741 73.9389 222.074 73.5042 222.489 73.1316C222.516 73.104 222.551 73.0833 222.579 73.0557L222.15 71.5791L223.506 70.8408L224.522 72.0207C225.083 71.8689 225.664 71.8137 226.238 71.8551L227.061 70.4268L228.542 70.8891L228.383 72.5106C228.846 72.7728 229.282 73.1109 229.656 73.5249C229.683 73.5525 229.711 73.587 229.732 73.6146L231.33 73.1316L232.091 74.4771L230.804 75.6087C230.949 76.1331 231.011 76.6713 230.984 77.2095L232.43 78.003ZM229.061 74.001C227.483 72.2622 224.778 72.1311 223.035 73.7043C221.292 75.2775 221.16 77.9754 222.738 79.7142C224.315 81.453 227.02 81.5841 228.763 80.0109C230.506 78.4308 230.638 75.7398 229.061 74.001Z" fill="#58A52C"/>
<path d="M203.962 77.5269L197.204 84.6891L200.497 93.114L200.075 85.6137L206.667 79.4658L203.962 77.5269Z" fill="#D4DEE8"/>
<path d="M234.851 157.712H58.251V131.754H234.851V157.712Z" fill="#D4DEE8"/>
<path d="M164.143 118.727L161.618 112.572H168.578L171.58 119.914H170.909H164.627H161.245V118.727H164.143Z" fill="#A9BDD2"/>
<path d="M169.795 115.539H162.836L161.618 112.572H168.578L169.795 115.539Z" fill="#2C3A40"/>
<path d="M155.89 97.7578H175.779C176.408 97.7578 176.893 98.2822 176.817 98.8825L175.032 113.097C174.969 113.6 174.52 113.98 173.994 113.98H154.105C153.476 113.98 152.984 113.455 153.061 112.855L154.845 98.641C154.915 98.1373 155.357 97.7578 155.89 97.7578Z" fill="#A9BDD2"/>
<path d="M174.111 113.097L175.896 98.8825C175.972 98.2822 175.488 97.7578 174.859 97.7578H175.779C176.408 97.7578 176.892 98.2822 176.816 98.8825L175.031 113.097C174.969 113.6 174.52 113.98 173.994 113.98H173.074C173.606 113.98 174.049 113.6 174.111 113.097Z" fill="#2C3A40"/>
<path d="M172.894 113H153.676L155.551 98.3306H174.769L172.894 113Z" fill="white" stroke="#2C3A40" stroke-width="2.7" stroke-linecap="round" stroke-linejoin="round"/>
<path d="M164.143 118.692H169.096" stroke="#2C3A40" stroke-width="1.4" stroke-linecap="round" stroke-linejoin="round"/>
<mask id="mask0_516_37913" style="mask-type:luminance" maskUnits="userSpaceOnUse" x="160" y="101" width="9" height="9">
<path d="M168.73 105.707C168.73 103.439 166.886 101.599 164.612 101.599C162.337 101.599 160.494 103.439 160.494 105.707C160.494 107.975 162.337 109.814 164.612 109.814C166.886 109.814 168.73 107.975 168.73 105.707Z" fill="white"/>
</mask>
<g mask="url(#mask0_516_37913)">
<path d="M169.117 101.574H160.276V110.495H169.117V101.574Z" fill="#A9BDD2"/>
<path d="M160.276 102.112L164.613 105.81L167.166 100.842L160.276 102.112Z" fill="#58A52C"/>
<path d="M164.613 105.81L166.066 111.116L170.583 105.983L168.342 101.608L166.606 100.884L164.613 105.81Z" fill="#356493"/>
<path d="M166.343 101.505L165.201 104.313L165.637 104.755L168.072 102.692L166.343 101.505Z" fill="#58A52C"/>
<path d="M166.544 105.741C166.544 104.651 165.658 103.768 164.565 103.768C163.472 103.768 162.58 104.651 162.58 105.741C162.58 106.832 163.472 107.722 164.565 107.722C165.658 107.722 166.544 106.832 166.544 105.741Z" fill="white"/>
</g>
<path d="M166.952 102.885L168.266 101.574H172.742" stroke="#A68D8D" stroke-width="1.1" stroke-linecap="round" stroke-linejoin="round"/>
<path d="M168.287 100.131H169.919" stroke="#A68D8D" stroke-width="1.1" stroke-linecap="round" stroke-linejoin="round"/>
<path d="M170.313 100.111H172.271" stroke="#A68D8D" stroke-width="1.1" stroke-linecap="round" stroke-linejoin="round"/>
<path d="M168.273 100.622H171.663" stroke="#A68D8D" stroke-width="1.1" stroke-linecap="round" stroke-linejoin="round"/>
<path d="M168.273 101.139H172.251" stroke="#A68D8D" stroke-width="1.1" stroke-linecap="round" stroke-linejoin="round"/>
<path d="M157.986 100.814H161.964" stroke="#A68D8D" stroke-width="1.1" stroke-linecap="round" stroke-linejoin="round"/>
<path d="M161.542 105.976H156.872" stroke="#A68D8D" stroke-width="1.1" stroke-linecap="round" stroke-linejoin="round"/>
<path d="M156.886 104.278H158.366" stroke="#A68D8D" stroke-width="1.1" stroke-linecap="round" stroke-linejoin="round"/>
<path d="M156.886 104.761H159.39" stroke="#A68D8D" stroke-width="1.4" stroke-linecap="round" stroke-linejoin="round"/>
<path d="M156.886 105.362H159.39" stroke="#A68D8D" stroke-width="1.4" stroke-linecap="round" stroke-linejoin="round"/>
<path d="M158.671 104.278H160.158" stroke="#A68D8D" stroke-width="1.1" stroke-linecap="round" stroke-linejoin="round"/>
<path d="M163.513 102.485L162.6 101.36H157.965" stroke="#A68D8D" stroke-width="1.4" stroke-linecap="round" stroke-linejoin="round"/>
<path d="M237.929 133.61H56.1338C55.1999 133.61 54.439 132.851 54.439 131.927C54.439 131.002 55.1999 130.243 56.1338 130.243H237.929C238.863 130.243 239.624 131.002 239.624 131.927C239.624 132.851 238.863 133.61 237.929 133.61Z" fill="#D4DEE8"/>
<path fill-rule="evenodd" clip-rule="evenodd" d="M237.749 134.335H56.3139C54.8404 134.335 53.6367 133.251 53.6367 131.927C53.6367 130.595 54.8404 129.519 56.3139 129.519H237.749C239.223 129.519 240.427 130.595 240.427 131.927C240.427 133.251 239.223 134.335 237.749 134.335ZM56.3139 130.961C55.7259 130.961 55.2486 131.395 55.2486 131.927C55.2486 132.458 55.7259 132.886 56.3139 132.886H237.749C238.337 132.886 238.815 132.458 238.815 131.927C238.815 131.395 238.337 130.961 237.749 130.961H56.3139Z" fill="#2C3A40"/>
<path d="M178.871 120.804H150.141V157.712H178.871V120.804Z" fill="#D4DEE8"/>
<path d="M179.522 120.97H149.484C149.173 120.97 148.917 120.714 148.917 120.404C148.917 120.086 149.173 119.831 149.484 119.831H179.522C179.84 119.831 180.096 120.086 180.096 120.404C180.096 120.714 179.84 120.97 179.522 120.97Z" fill="#2C3A40"/>
<path d="M176.187 149.963C176.049 149.963 175.931 150.073 175.931 150.211V155.441C175.931 155.579 176.049 155.69 176.187 155.69C176.326 155.69 176.444 155.579 176.444 155.441V150.211C176.444 150.073 176.326 149.963 176.187 149.963Z" fill="#2C3A40"/>
<path d="M175.046 149.963C174.907 149.963 174.79 150.073 174.79 150.211V155.441C174.79 155.579 174.907 155.69 175.046 155.69C175.184 155.69 175.302 155.579 175.302 155.441V150.211C175.302 150.073 175.184 149.963 175.046 149.963Z" fill="#2C3A40"/>
<path d="M173.939 149.963C173.801 149.963 173.683 150.073 173.683 150.211V155.441C173.683 155.579 173.801 155.69 173.939 155.69C174.078 155.69 174.189 155.579 174.189 155.441V150.211C174.189 150.073 174.078 149.963 173.939 149.963Z" fill="#2C3A40"/>
<path d="M165.638 149.963C165.492 149.963 165.381 150.073 165.381 150.211V155.441C165.381 155.579 165.492 155.69 165.638 155.69C165.776 155.69 165.887 155.579 165.887 155.441V150.211C165.887 150.073 165.776 149.963 165.638 149.963Z" fill="#2C3A40"/>
<path d="M164.496 149.963C164.358 149.963 164.24 150.073 164.24 150.211V155.441C164.24 155.579 164.358 155.69 164.496 155.69C164.635 155.69 164.745 155.579 164.745 155.441V150.211C164.745 150.073 164.635 149.963 164.496 149.963Z" fill="#2C3A40"/>
<path d="M163.383 149.963C163.244 149.963 163.133 150.073 163.133 150.211V155.441C163.133 155.579 163.244 155.69 163.383 155.69C163.528 155.69 163.639 155.579 163.639 155.441V150.211C163.639 150.073 163.528 149.963 163.383 149.963Z" fill="#2C3A40"/>
<path d="M155.461 149.963C155.323 149.963 155.212 150.073 155.212 150.211V155.441C155.212 155.579 155.323 155.69 155.461 155.69C155.607 155.69 155.718 155.579 155.718 155.441V150.211C155.718 150.073 155.607 149.963 155.461 149.963Z" fill="#2C3A40"/>
<path d="M154.32 149.963C154.182 149.963 154.071 150.073 154.071 150.211V155.441C154.071 155.579 154.182 155.69 154.32 155.69C154.466 155.69 154.577 155.579 154.577 155.441V150.211C154.577 150.073 154.466 149.963 154.32 149.963Z" fill="#2C3A40"/>
<path d="M153.213 149.963C153.075 149.963 152.964 150.073 152.964 150.211V155.441C152.964 155.579 153.075 155.69 153.213 155.69C153.352 155.69 153.47 155.579 153.47 155.441V150.211C153.47 150.073 153.352 149.963 153.213 149.963Z" fill="#2C3A40"/>
<path d="M178.954 129.484V157.884" stroke="#2C3A40" stroke-width="3.7" stroke-miterlimit="10"/>
<path d="M150.058 129.484V157.884" stroke="#2C3A40" stroke-width="3.7" stroke-miterlimit="10"/>
<path d="M101.599 115.995H82.8374V129.484H101.599V115.995Z" fill="#995037"/>
<path d="M100.851 125.668H97.5239V128.353H100.851V125.668Z" fill="white"/>
<path d="M98.7069 126.255H97.9045C97.8768 126.255 97.8491 126.234 97.8491 126.2C97.8491 126.165 97.8768 126.145 97.9045 126.145H98.7069C98.7415 126.145 98.7692 126.165 98.7692 126.2C98.7692 126.234 98.7415 126.255 98.7069 126.255Z" fill="#2C3A40"/>
<path d="M98.7069 127.207H97.9045C97.8768 127.207 97.8491 127.18 97.8491 127.152C97.8491 127.117 97.8768 127.09 97.9045 127.09H98.7069C98.7415 127.09 98.7692 127.117 98.7692 127.152C98.7692 127.18 98.7415 127.207 98.7069 127.207Z" fill="#2C3A40"/>
<path d="M99.9798 126.731H97.9045C97.8768 126.731 97.8491 126.703 97.8491 126.676C97.8491 126.641 97.8768 126.614 97.9045 126.614H99.9798C100.014 126.614 100.042 126.641 100.042 126.676C100.042 126.703 100.014 126.731 99.9798 126.731Z" fill="#2C3A40"/>
<path d="M100.361 126.255H99.1223C99.0877 126.255 99.0601 126.234 99.0601 126.2C99.0601 126.165 99.0877 126.145 99.1223 126.145H100.361C100.388 126.145 100.416 126.165 100.416 126.2C100.416 126.234 100.388 126.255 100.361 126.255Z" fill="#2C3A40"/>
<path d="M129.353 115.995H110.599V129.484H129.353V115.995Z" fill="#995037"/>
<path d="M128.606 125.668H125.278V128.353H128.606V125.668Z" fill="white"/>
<path d="M126.468 126.255H125.666C125.631 126.255 125.604 126.234 125.604 126.2C125.604 126.165 125.631 126.145 125.666 126.145H126.468C126.496 126.145 126.524 126.165 126.524 126.2C126.524 126.234 126.496 126.255 126.468 126.255Z" fill="#2C3A40"/>
<path d="M126.468 127.207H125.666C125.631 127.207 125.604 127.18 125.604 127.152C125.604 127.117 125.631 127.09 125.666 127.09H126.468C126.496 127.09 126.524 127.117 126.524 127.152C126.524 127.18 126.496 127.207 126.468 127.207Z" fill="#2C3A40"/>
<path d="M127.741 126.731H125.666C125.631 126.731 125.604 126.703 125.604 126.676C125.604 126.641 125.631 126.614 125.666 126.614H127.741C127.769 126.614 127.796 126.641 127.796 126.676C127.796 126.703 127.769 126.731 127.741 126.731Z" fill="#2C3A40"/>
<path d="M128.115 126.255H126.877C126.849 126.255 126.821 126.234 126.821 126.2C126.821 126.165 126.849 126.145 126.877 126.145H128.115C128.143 126.145 128.17 126.165 128.17 126.2C128.17 126.234 128.143 126.255 128.115 126.255Z" fill="#2C3A40"/>
<path d="M206.792 115.995H188.038V129.484H206.792V115.995Z" fill="#995037"/>
<path d="M206.045 125.668H202.717V128.353H206.045V125.668Z" fill="white"/>
<path d="M203.907 126.255H203.105C203.07 126.255 203.042 126.234 203.042 126.2C203.042 126.165 203.07 126.145 203.105 126.145H203.907C203.935 126.145 203.963 126.165 203.963 126.2C203.963 126.234 203.935 126.255 203.907 126.255Z" fill="#2C3A40"/>
<path d="M203.907 127.207H203.105C203.07 127.207 203.042 127.18 203.042 127.152C203.042 127.117 203.07 127.09 203.105 127.09H203.907C203.935 127.09 203.963 127.117 203.963 127.152C203.963 127.18 203.935 127.207 203.907 127.207Z" fill="#2C3A40"/>
<path d="M205.18 126.731H203.105C203.07 126.731 203.042 126.703 203.042 126.676C203.042 126.641 203.07 126.614 203.105 126.614H205.18C205.208 126.614 205.235 126.641 205.235 126.676C205.235 126.703 205.208 126.731 205.18 126.731Z" fill="#2C3A40"/>
<path d="M205.554 126.255H204.316C204.288 126.255 204.26 126.234 204.26 126.2C204.26 126.165 204.288 126.145 204.316 126.145H205.554C205.588 126.145 205.609 126.165 205.609 126.2C205.609 126.234 205.588 126.255 205.554 126.255Z" fill="#2C3A40"/>
<path d="M214.65 85.7861H195.896V99.2687H214.65V85.7861Z" fill="#995037"/>
<path d="M213.903 95.4531H210.576V98.1441H213.903V95.4531Z" fill="white"/>
<path d="M211.766 96.0465H210.963C210.929 96.0465 210.901 96.0189 210.901 95.9844C210.901 95.9568 210.929 95.9292 210.963 95.9292H211.766C211.793 95.9292 211.821 95.9568 211.821 95.9844C211.821 96.0189 211.793 96.0465 211.766 96.0465Z" fill="#2C3A40"/>
<path d="M211.766 96.9918H210.963C210.929 96.9918 210.901 96.9642 210.901 96.9366C210.901 96.9021 210.929 96.8745 210.963 96.8745H211.766C211.793 96.8745 211.821 96.9021 211.821 96.9366C211.821 96.9642 211.793 96.9918 211.766 96.9918Z" fill="#2C3A40"/>
<path d="M213.038 96.5157H210.963C210.929 96.5157 210.901 96.495 210.901 96.4605C210.901 96.426 210.929 96.4053 210.963 96.4053H213.038C213.066 96.4053 213.094 96.426 213.094 96.4605C213.094 96.495 213.066 96.5157 213.038 96.5157Z" fill="#2C3A40"/>
<path d="M213.412 96.0465H212.174C212.146 96.0465 212.119 96.0189 212.119 95.9844C212.119 95.9568 212.146 95.9292 212.174 95.9292H213.412C213.447 95.9292 213.468 95.9568 213.468 95.9844C213.468 96.0189 213.447 96.0465 213.412 96.0465Z" fill="#2C3A40"/>
<path d="M73.0831 115.995H54.3218V129.484H73.0831V115.995Z" fill="#995037"/>
<path d="M72.329 125.668H69.0015V128.353H72.329V125.668Z" fill="white"/>
<path d="M70.1913 126.255H69.3888C69.3542 126.255 69.3335 126.234 69.3335 126.2C69.3335 126.165 69.3542 126.145 69.3888 126.145H70.1913C70.2259 126.145 70.2467 126.165 70.2467 126.2C70.2467 126.234 70.2259 126.255 70.1913 126.255Z" fill="#2C3A40"/>
<path d="M70.1913 127.207H69.3888C69.3542 127.207 69.3335 127.18 69.3335 127.152C69.3335 127.117 69.3542 127.09 69.3888 127.09H70.1913C70.2259 127.09 70.2467 127.117 70.2467 127.152C70.2467 127.18 70.2259 127.207 70.1913 127.207Z" fill="#2C3A40"/>
<path d="M71.4642 126.731H69.3888C69.3542 126.731 69.3335 126.703 69.3335 126.676C69.3335 126.641 69.3542 126.614 69.3888 126.614H71.4642C71.4988 126.614 71.5195 126.641 71.5195 126.676C71.5195 126.703 71.4988 126.731 71.4642 126.731Z" fill="#2C3A40"/>
<path d="M71.8381 126.255H70.6067C70.5721 126.255 70.5444 126.234 70.5444 126.2C70.5444 126.165 70.5721 126.145 70.6067 126.145H71.8381C71.8727 126.145 71.9003 126.165 71.9003 126.2C71.9003 126.234 71.8727 126.255 71.8381 126.255Z" fill="#2C3A40"/>
<path d="M58.168 140.441H114.314L131.802 149.542H150.086" stroke="#2C3A40" stroke-width="3.7" stroke-miterlimit="10"/>
<path d="M179.017 149.287H193.745L231.302 134.114" stroke="#2C3A40" stroke-width="4.3" stroke-miterlimit="10"/>
<path d="M153.351 123.474C153.199 123.474 153.067 123.605 153.067 123.763V133.051C153.067 133.21 153.199 133.334 153.351 133.334C153.511 133.334 153.642 133.21 153.642 133.051V123.763C153.642 123.605 153.511 123.474 153.351 123.474Z" fill="#2C3A40"/>
<path d="M154.022 125.019C154.022 124.654 153.725 124.35 153.351 124.35C152.985 124.35 152.68 124.654 152.68 125.019C152.68 125.392 152.985 125.689 153.351 125.689C153.725 125.689 154.022 125.392 154.022 125.019Z" fill="#58A52C"/>
<path d="M155.489 123.474C155.33 123.474 155.205 123.605 155.205 123.763V133.051C155.205 133.21 155.33 133.334 155.489 133.334C155.642 133.334 155.773 133.21 155.773 133.051V123.763C155.773 123.605 155.642 123.474 155.489 123.474Z" fill="#2C3A40"/>
<path d="M156.16 127.359C156.16 126.986 155.856 126.689 155.489 126.689C155.115 126.689 154.818 126.986 154.818 127.359C154.818 127.731 155.115 128.028 155.489 128.028C155.856 128.028 156.16 127.731 156.16 127.359Z" fill="#58A52C"/>
<path d="M160.083 123.474C159.924 123.474 159.799 123.605 159.799 123.763V133.051C159.799 133.21 159.924 133.334 160.083 133.334C160.242 133.334 160.367 133.21 160.367 133.051V123.763C160.367 123.605 160.242 123.474 160.083 123.474Z" fill="#2C3A40"/>
<path d="M160.753 130.995C160.753 130.622 160.449 130.326 160.082 130.326C159.709 130.326 159.411 130.622 159.411 130.995C159.411 131.361 159.709 131.664 160.082 131.664C160.449 131.664 160.753 131.361 160.753 130.995Z" fill="#58A52C"/>
<path d="M157.834 123.474C157.675 123.474 157.55 123.605 157.55 123.763V133.051C157.55 133.21 157.675 133.334 157.834 133.334C157.987 133.334 158.118 133.21 158.118 133.051V123.763C158.118 123.605 157.987 123.474 157.834 123.474Z" fill="#2C3A40"/>
<path d="M158.505 124.012C158.505 123.639 158.201 123.343 157.834 123.343C157.461 123.343 157.163 123.639 157.163 124.012C157.163 124.378 157.461 124.674 157.834 124.674C158.201 124.674 158.505 124.378 158.505 124.012Z" fill="#58A52C"/>
<path d="M176.125 123.246H163.7V133.272H176.125V123.246Z" stroke="#2C3A40" stroke-width="3.7" stroke-miterlimit="10"/>
<path d="M173.06 125.551H166.309V123.909H173.06V125.551Z" fill="#2C3A40"/>
<path d="M165.817 127.262C165.817 126.945 165.561 126.689 165.25 126.689C164.932 126.689 164.676 126.945 164.676 127.262C164.676 127.573 164.932 127.828 165.25 127.828C165.561 127.828 165.817 127.573 165.817 127.262Z" stroke="#2C3A40" stroke-width="1.8" stroke-miterlimit="10"/>
<path d="M168.086 127.262C168.086 126.945 167.83 126.689 167.512 126.689C167.201 126.689 166.945 126.945 166.945 127.262C166.945 127.573 167.201 127.828 167.512 127.828C167.83 127.828 168.086 127.573 168.086 127.262Z" stroke="#2C3A40" stroke-width="1.8" stroke-miterlimit="10"/>
<path d="M170.459 127.262C170.459 126.945 170.203 126.689 169.892 126.689C169.574 126.689 169.318 126.945 169.318 127.262C169.318 127.573 169.574 127.828 169.892 127.828C170.203 127.828 170.459 127.573 170.459 127.262Z" stroke="#2C3A40" stroke-width="1.8" stroke-miterlimit="10"/>
<path d="M172.728 127.262C172.728 126.945 172.472 126.689 172.154 126.689C171.843 126.689 171.587 126.945 171.587 127.262C171.587 127.573 171.843 127.828 172.154 127.828C172.472 127.828 172.728 127.573 172.728 127.262Z" stroke="#2C3A40" stroke-width="1.8" stroke-miterlimit="10"/>
<path d="M174.963 127.262C174.963 126.945 174.707 126.689 174.389 126.689C174.077 126.689 173.821 126.945 173.821 127.262C173.821 127.573 174.077 127.828 174.389 127.828C174.707 127.828 174.963 127.573 174.963 127.262Z" stroke="#2C3A40" stroke-width="1.8" stroke-miterlimit="10"/>
<path d="M165.817 129.077C165.817 128.759 165.561 128.504 165.25 128.504C164.932 128.504 164.676 128.759 164.676 129.077C164.676 129.387 164.932 129.642 165.25 129.642C165.561 129.642 165.817 129.387 165.817 129.077Z" stroke="#2C3A40" stroke-width="1.8" stroke-miterlimit="10"/>
<path d="M168.086 129.077C168.086 128.759 167.83 128.504 167.512 128.504C167.201 128.504 166.945 128.759 166.945 129.077C166.945 129.387 167.201 129.642 167.512 129.642C167.83 129.642 168.086 129.387 168.086 129.077Z" stroke="#2C3A40" stroke-width="1.8" stroke-miterlimit="10"/>
<path d="M170.459 129.077C170.459 128.759 170.203 128.504 169.892 128.504C169.574 128.504 169.318 128.759 169.318 129.077C169.318 129.387 169.574 129.642 169.892 129.642C170.203 129.642 170.459 129.387 170.459 129.077Z" stroke="#2C3A40" stroke-width="1.8" stroke-miterlimit="10"/>
<path d="M172.728 129.077C172.728 128.759 172.472 128.504 172.154 128.504C171.843 128.504 171.587 128.759 171.587 129.077C171.587 129.387 171.843 129.642 172.154 129.642C172.472 129.642 172.728 129.387 172.728 129.077Z" stroke="#2C3A40" stroke-width="1.8" stroke-miterlimit="10"/>
<path d="M174.963 129.077C174.963 128.759 174.707 128.504 174.389 128.504C174.077 128.504 173.821 128.759 173.821 129.077C173.821 129.387 174.077 129.642 174.389 129.642C174.707 129.642 174.963 129.387 174.963 129.077Z" stroke="#2C3A40" stroke-width="1.8" stroke-miterlimit="10"/>
<path d="M165.817 130.912C165.817 130.595 165.561 130.339 165.25 130.339C164.932 130.339 164.676 130.595 164.676 130.912C164.676 131.223 164.932 131.478 165.25 131.478C165.561 131.478 165.817 131.223 165.817 130.912Z" stroke="#2C3A40" stroke-width="1.8" stroke-miterlimit="10"/>
<path d="M168.086 130.912C168.086 130.595 167.83 130.339 167.512 130.339C167.201 130.339 166.945 130.595 166.945 130.912C166.945 131.223 167.201 131.478 167.512 131.478C167.83 131.478 168.086 131.223 168.086 130.912Z" stroke="#2C3A40" stroke-width="1.8" stroke-miterlimit="10"/>
<path d="M170.459 130.912C170.459 130.595 170.203 130.339 169.892 130.339C169.574 130.339 169.318 130.595 169.318 130.912C169.318 131.223 169.574 131.478 169.892 131.478C170.203 131.478 170.459 131.223 170.459 130.912Z" stroke="#2C3A40" stroke-width="1.8" stroke-miterlimit="10"/>
<path d="M172.728 130.912C172.728 130.595 172.472 130.339 172.154 130.339C171.843 130.339 171.587 130.595 171.587 130.912C171.587 131.223 171.843 131.478 172.154 131.478C172.472 131.478 172.728 131.223 172.728 130.912Z" stroke="#2C3A40" stroke-width="1.8" stroke-miterlimit="10"/>
<path d="M174.963 130.912C174.963 130.595 174.707 130.339 174.389 130.339C174.077 130.339 173.821 130.595 173.821 130.912C173.821 131.223 174.077 131.478 174.389 131.478C174.707 131.478 174.963 131.223 174.963 130.912Z" stroke="#2C3A40" stroke-width="1.8" stroke-miterlimit="10"/>
<path d="M229.019 48.6574H113.677C113.124 48.6574 112.667 48.202 112.667 47.65C112.667 47.0911 113.124 46.6357 113.677 46.6357H229.019C229.572 46.6357 230.029 47.0911 230.029 47.65C230.029 48.202 229.572 48.6574 229.019 48.6574Z" fill="#A9BDD2"/>
<path d="M229.019 60.5462H113.677C113.124 60.5462 112.667 60.0908 112.667 59.5319C112.667 58.973 113.124 58.5176 113.677 58.5176H229.019C229.572 58.5176 230.029 58.973 230.029 59.5319C230.029 60.0908 229.572 60.5462 229.019 60.5462Z" fill="#A9BDD2"/>
<path d="M212.873 60.1665L212.208 59.4006L226.404 47.0151L227.068 47.7741L212.873 60.1665Z" fill="#A9BDD2"/>
<path d="M226.404 60.1665L227.068 59.4006L212.873 47.0151L212.208 47.7741L226.404 60.1665Z" fill="#A9BDD2"/>
<path d="M199.569 60.1665L198.898 59.4006L213.094 47.0151L213.765 47.7741L199.569 60.1665Z" fill="#A9BDD2"/>
<path d="M213.094 60.1665L213.765 59.4006L199.569 47.0151L198.898 47.7741L213.094 60.1665Z" fill="#A9BDD2"/>
<path d="M186.384 60.1665L185.72 59.4006L199.916 47.0151L200.58 47.7741L186.384 60.1665Z" fill="#A9BDD2"/>
<path d="M199.916 60.1665L200.58 59.4006L186.384 47.0151L185.72 47.7741L199.916 60.1665Z" fill="#A9BDD2"/>
<path d="M173.074 60.1665L172.41 59.4006L186.606 47.0151L187.27 47.7741L173.074 60.1665Z" fill="#A9BDD2"/>
<path d="M186.606 60.1665L187.27 59.4006L173.074 47.0151L172.41 47.7741L186.606 60.1665Z" fill="#A9BDD2"/>
<path d="M159.771 60.1665L159.1 59.4006L173.296 47.0151L173.967 47.7741L159.771 60.1665Z" fill="#A9BDD2"/>
<path d="M173.296 60.1665L173.967 59.4006L159.771 47.0151L159.1 47.7741L173.296 60.1665Z" fill="#A9BDD2"/>
<path d="M146.461 60.1665L145.79 59.4006L159.986 47.0151L160.657 47.7741L146.461 60.1665Z" fill="#A9BDD2"/>
<path d="M159.986 60.1665L160.657 59.4006L146.461 47.0151L145.79 47.7741L159.986 60.1665Z" fill="#A9BDD2"/>
<path d="M133.151 60.1665L132.487 59.4006L146.682 47.0151L147.346 47.7741L133.151 60.1665Z" fill="#A9BDD2"/>
<path d="M146.682 60.1665L147.346 59.4006L133.151 47.0151L132.487 47.7741L146.682 60.1665Z" fill="#A9BDD2"/>
<path d="M119.848 60.1665L119.177 59.4006L133.372 47.0151L134.036 47.7741L119.848 60.1665Z" fill="#A9BDD2"/>
<path d="M133.372 60.1665L134.036 59.4006L119.848 47.0151L119.177 47.7741L133.372 60.1665Z" fill="#A9BDD2"/>
<path d="M207.892 77.5269L214.651 84.6891L211.358 93.114L211.78 85.6137L205.187 79.4658L207.892 77.5269Z" fill="#D4DEE8"/>
<path d="M206.349 74.9533H205.464V59.7871H206.349V74.9533Z" fill="#A9BDD2"/>
<path d="M208.597 77.9063C208.597 76.4228 207.394 75.2222 205.906 75.2222C204.419 75.2222 203.215 76.4228 203.215 77.9063C203.215 79.3898 204.419 80.5973 205.906 80.5973C207.394 80.5973 208.597 79.3898 208.597 77.9063Z" fill="#A9BDD2"/>
<path d="M207.553 77.9064C207.553 77.0025 206.819 76.2642 205.906 76.2642C204.993 76.2642 204.26 77.0025 204.26 77.9064C204.26 78.8172 204.993 79.5555 205.906 79.5555C206.819 79.5555 207.553 78.8172 207.553 77.9064Z" fill="#2C3A40"/>
<path d="M206.633 75.3325H205.18C204.993 75.3325 204.848 75.1807 204.848 75.0013V74.8771C204.848 74.6908 204.993 74.5459 205.18 74.5459H206.633C206.82 74.5459 206.965 74.6908 206.965 74.8771V75.0013C206.965 75.1807 206.82 75.3325 206.633 75.3325Z" fill="#2C3A40"/>
<path d="M163.237 71.0752L156.478 78.2374L159.771 86.6692L159.349 79.1689L165.942 73.0141L163.237 71.0752Z" fill="#D4DEE8"/>
<path d="M173.925 79.335H155.17V92.8245H173.925V79.335Z" fill="#995037"/>
<path d="M173.178 89.0088H169.85V91.6929H173.178V89.0088Z" fill="white"/>
<path d="M171.04 89.5953H170.238C170.203 89.5953 170.175 89.5746 170.175 89.5401C170.175 89.5056 170.203 89.4849 170.238 89.4849H171.04C171.068 89.4849 171.095 89.5056 171.095 89.5401C171.095 89.5746 171.068 89.5953 171.04 89.5953Z" fill="#2C3A40"/>
<path d="M171.04 90.5475H170.238C170.203 90.5475 170.175 90.5199 170.175 90.4854C170.175 90.4578 170.203 90.4302 170.238 90.4302H171.04C171.068 90.4302 171.095 90.4578 171.095 90.4854C171.095 90.5199 171.068 90.5475 171.04 90.5475Z" fill="#2C3A40"/>
<path d="M172.313 90.0714H170.238C170.203 90.0714 170.175 90.0438 170.175 90.0162C170.175 89.9817 170.203 89.9541 170.238 89.9541H172.313C172.341 89.9541 172.368 89.9817 172.368 90.0162C172.368 90.0438 172.341 90.0714 172.313 90.0714Z" fill="#2C3A40"/>
<path d="M172.687 89.5953H171.448C171.421 89.5953 171.393 89.5746 171.393 89.5401C171.393 89.5056 171.421 89.4849 171.448 89.4849H172.687C172.714 89.4849 172.742 89.5056 172.742 89.5401C172.742 89.5746 172.714 89.5953 172.687 89.5953Z" fill="#2C3A40"/>
<path d="M75.3174 144.567H56.563V158.05H75.3174V144.567Z" fill="#995037"/>
<path d="M74.5702 154.241H71.2427V156.925H74.5702V154.241Z" fill="white"/>
<path d="M72.4326 154.828H71.6301C71.5955 154.828 71.5679 154.8 71.5679 154.773C71.5679 154.738 71.5955 154.71 71.6301 154.71H72.4326C72.4603 154.71 72.4879 154.738 72.4879 154.773C72.4879 154.8 72.4603 154.828 72.4326 154.828Z" fill="#2C3A40"/>
<path d="M72.4326 155.773H71.6301C71.5955 155.773 71.5679 155.752 71.5679 155.718C71.5679 155.683 71.5955 155.663 71.6301 155.663H72.4326C72.4603 155.663 72.4879 155.683 72.4879 155.718C72.4879 155.752 72.4603 155.773 72.4326 155.773Z" fill="#2C3A40"/>
<path d="M73.7055 155.304H71.6301C71.5955 155.304 71.5679 155.276 71.5679 155.242C71.5679 155.214 71.5955 155.187 71.6301 155.187H73.7055C73.7332 155.187 73.7608 155.214 73.7608 155.242C73.7608 155.276 73.7332 155.304 73.7055 155.304Z" fill="#2C3A40"/>
<path d="M74.0793 154.828H72.841C72.8133 154.828 72.7856 154.8 72.7856 154.773C72.7856 154.738 72.8133 154.71 72.841 154.71H74.0793C74.107 154.71 74.1346 154.738 74.1346 154.773C74.1346 154.8 74.107 154.828 74.0793 154.828Z" fill="#2C3A40"/>
<path d="M167.166 71.0752L173.925 78.2374L170.632 86.6692L171.054 79.1689L164.461 73.0141L167.166 71.0752Z" fill="#D4DEE8"/>
<path d="M165.624 68.5087H164.738V59.1523H165.624V68.5087Z" fill="#A9BDD2"/>
<path d="M167.872 71.4619C167.872 69.9784 166.668 68.7778 165.181 68.7778C163.694 68.7778 162.483 69.9784 162.483 71.4619C162.483 72.9454 163.694 74.146 165.181 74.146C166.668 74.146 167.872 72.9454 167.872 71.4619Z" fill="#A9BDD2"/>
<path d="M166.827 71.462C166.827 70.5512 166.087 69.8198 165.181 69.8198C164.267 69.8198 163.534 70.5512 163.534 71.462C163.534 72.3728 164.267 73.1042 165.181 73.1042C166.087 73.1042 166.827 72.3728 166.827 71.462Z" fill="#2C3A40"/>
<path d="M165.907 68.8882H164.454C164.267 68.8882 164.115 68.7364 164.115 68.5501V68.4328C164.115 68.2465 164.267 68.0947 164.454 68.0947H165.907C166.087 68.0947 166.239 68.2465 166.239 68.4328V68.5501C166.239 68.7364 166.087 68.8882 165.907 68.8882Z" fill="#2C3A40"/>
<path d="M127.665 66.3076L120.906 73.4767L124.199 81.9016L123.777 74.4013L130.37 68.2465L127.665 66.3076Z" fill="#D4DEE8"/>
<path d="M138.353 74.5669H119.599V88.0564H138.353V74.5669Z" fill="#995037"/>
<path d="M137.606 84.2407H134.278V86.9248H137.606V84.2407Z" fill="white"/>
<path d="M135.468 84.8272H134.666C134.631 84.8272 134.604 84.8065 134.604 84.772C134.604 84.7375 134.631 84.7168 134.666 84.7168H135.468C135.496 84.7168 135.524 84.7375 135.524 84.772C135.524 84.8065 135.496 84.8272 135.468 84.8272Z" fill="#2C3A40"/>
<path d="M135.468 85.7794H134.666C134.631 85.7794 134.604 85.7518 134.604 85.7173C134.604 85.6897 134.631 85.6621 134.666 85.6621H135.468C135.496 85.6621 135.524 85.6897 135.524 85.7173C135.524 85.7518 135.496 85.7794 135.468 85.7794Z" fill="#2C3A40"/>
<path d="M136.741 85.3033H134.666C134.631 85.3033 134.604 85.2757 134.604 85.2481C134.604 85.2136 134.631 85.186 134.666 85.186H136.741C136.769 85.186 136.796 85.2136 136.796 85.2481C136.796 85.2757 136.769 85.3033 136.741 85.3033Z" fill="#2C3A40"/>
<path d="M137.115 84.8272H135.877C135.849 84.8272 135.821 84.8065 135.821 84.772C135.821 84.7375 135.849 84.7168 135.877 84.7168H137.115C137.143 84.7168 137.17 84.7375 137.17 84.772C137.17 84.8065 137.143 84.8272 137.115 84.8272Z" fill="#2C3A40"/>
<path d="M131.595 66.3076L138.353 73.4767L135.06 81.9016L135.482 74.4013L128.89 68.2465L131.595 66.3076Z" fill="#D4DEE8"/>
<path d="M130.052 63.7409H129.167V58.835H130.052V63.7409Z" fill="#A9BDD2"/>
<path d="M132.3 66.6939C132.3 65.2104 131.096 64.0098 129.609 64.0098C128.122 64.0098 126.911 65.2104 126.911 66.6939C126.911 68.1774 128.122 69.378 129.609 69.378C131.096 69.378 132.3 68.1774 132.3 66.6939Z" fill="#A9BDD2"/>
<path d="M131.255 66.694C131.255 65.7901 130.515 65.0518 129.609 65.0518C128.696 65.0518 127.962 65.7901 127.962 66.694C127.962 67.6048 128.696 68.3362 129.609 68.3362C130.515 68.3362 131.255 67.6048 131.255 66.694Z" fill="#2C3A40"/>
<path d="M130.336 64.1202H128.883C128.696 64.1202 128.544 63.9684 128.544 63.7821V63.6648C128.544 63.4785 128.696 63.3267 128.883 63.3267H130.336C130.516 63.3267 130.668 63.4785 130.668 63.6648V63.7821C130.668 63.9684 130.516 64.1202 130.336 64.1202Z" fill="#2C3A40"/>
<path d="M144.185 108.874L147.312 114.904L155.17 118.948L157.066 118.189L159.141 118.734L160.366 119.872L158.719 119.955H154.41L144.607 117.174L141.48 111.109L144.185 108.874Z" fill="#FAC5C2"/>
<path d="M141.224 155.959L140.851 150.081L142.981 149.97L142.684 156.132L141.224 155.959Z" fill="#FAC5C2"/>
<path d="M141.217 155.401C141.217 155.401 140.394 156.877 140.636 158.023L147.056 158.147C147.056 158.147 147.478 156.925 146.032 156.594C144.586 156.256 142.594 155.221 142.594 155.221C142.594 155.221 141.763 155.939 141.217 155.401Z" fill="#455A64"/>
<path d="M140.629 158.023L147.056 158.147C147.056 158.147 147.16 157.85 147.083 157.505L140.574 157.374C140.574 157.595 140.588 157.816 140.629 158.023Z" fill="#455A64"/>
<path d="M142.566 155.587C142.622 155.476 142.691 155.373 142.781 155.297C142.919 155.193 143.099 155.159 143.265 155.138C143.417 155.12 143.569 155.113 143.722 155.118C143.915 155.118 144.123 155.138 144.282 155.249C144.33 155.283 144.379 155.338 144.365 155.4C144.351 155.442 144.31 155.469 144.275 155.49C144.144 155.545 143.991 155.525 143.853 155.497C143.516 155.437 143.182 155.364 142.85 155.276C142.891 155.456 142.912 155.642 142.905 155.821C142.898 156.001 142.864 156.173 142.781 156.325C142.746 156.394 142.698 156.449 142.635 156.491C142.566 156.525 142.483 156.532 142.421 156.498C142.352 156.456 142.317 156.38 142.317 156.311C142.31 156.235 142.331 156.166 142.352 156.09C142.407 155.916 142.479 155.748 142.566 155.587Z" stroke="white" stroke-width="1.3" stroke-linecap="round" stroke-linejoin="round"/>
<path d="M133.621 155.835L133.248 149.956L135.378 149.846L135.074 156.007L133.621 155.835Z" fill="#FAC5C2"/>
<path d="M133.607 155.276C133.607 155.276 132.791 156.753 133.026 157.898L139.453 158.022C139.453 158.022 139.875 156.801 138.429 156.463C136.983 156.132 134.984 155.097 134.984 155.097C134.984 155.097 134.16 155.814 133.607 155.276Z" fill="#455A64"/>
<path d="M133.026 157.898L139.453 158.022C139.453 158.022 139.557 157.726 139.481 157.381L132.964 157.25C132.964 157.47 132.985 157.691 133.026 157.898Z" fill="#455A64"/>
<path d="M134.963 155.456C135.018 155.352 135.081 155.249 135.177 155.173C135.309 155.062 135.489 155.028 135.662 155.014C135.814 154.996 135.964 154.986 136.111 154.986C136.312 154.993 136.52 155.007 136.679 155.124C136.727 155.159 136.769 155.214 136.755 155.269C136.748 155.311 136.706 155.345 136.665 155.359C136.533 155.414 136.388 155.393 136.25 155.373C135.913 155.313 135.579 155.237 135.247 155.145C135.288 155.331 135.309 155.511 135.295 155.697C135.288 155.87 135.26 156.049 135.177 156.201C135.143 156.263 135.094 156.325 135.025 156.359C134.963 156.401 134.88 156.408 134.811 156.373C134.749 156.332 134.714 156.256 134.707 156.18C134.707 156.111 134.728 156.035 134.749 155.966C134.804 155.791 134.875 155.621 134.963 155.456Z" stroke="white" stroke-width="1.3" stroke-linecap="round" stroke-linejoin="round"/>
<path d="M143.611 124.475L143.818 126.966L143.784 153.938L140.339 154.048L139.308 129.664L138.747 129.622L136.195 154.014H132.57L133.123 140.179L132.978 125.31L135.275 123.723L143.611 124.475Z" fill="#2C3A40"/>
<path d="M139.648 118.002C139.648 117.844 139.516 117.712 139.364 117.712C139.204 117.712 139.073 117.844 139.073 118.002C139.073 118.161 139.204 118.285 139.364 118.285C139.516 118.285 139.648 118.161 139.648 118.002Z" stroke="#356493" stroke-width="1.6" stroke-linecap="round" stroke-linejoin="round"/>
<path d="M136.7 104.624C136.7 104.624 131.553 106.328 131.255 106.625C130.307 107.549 128.052 113.345 128.052 113.345C128.052 113.345 130.916 114.29 132.161 114.387L132.929 112.807L132.611 125.71C132.611 125.71 139.121 127.062 144.067 125.627L143.438 114.449C143.438 114.449 145.907 113.725 147.312 112.966C147.312 112.966 144.475 107.252 143.486 106.493C142.497 105.734 138.706 105.065 138.706 105.065L136.7 104.624Z" fill="#C8C8C8"/>
<path d="M136.679 101.773L136.312 105.279C136.312 105.279 136.465 107.066 138.512 107.08C140.491 107.093 140.11 105.299 140.11 105.299L139.875 104.727L139.695 102.705L136.679 101.773Z" fill="#FAC5C2"/>
<path d="M136.61 102.381L136.665 101.877L137.585 102.056L138.478 102.325L139.744 103.243L139.841 104.34C139.266 104.361 137.239 104.299 136.61 102.381Z" fill="#D88080"/>
<path d="M143.438 114.449L143.188 110.985" stroke="#2C3A40" stroke-width="1.8" stroke-linecap="round" stroke-linejoin="round"/>
<path d="M141.273 99.0343C141.356 100.594 141.148 103.719 139.599 103.906C137.959 104.099 137.032 103.319 136.582 101.836C136.582 101.836 135.808 102.25 135.704 101.139C135.662 100.649 136.243 100.828 136.243 100.828C136.243 100.828 134.728 96.9712 137.212 96.2743C139.695 95.5843 141.148 96.9022 141.273 99.0343Z" fill="#FAC5C2"/>
<path d="M138.505 99.5659C138.554 99.5866 138.602 99.6073 138.65 99.6073C138.706 99.6142 138.754 99.5866 138.782 99.5314C138.81 99.4555 138.768 99.352 138.706 99.2899C138.588 99.1726 138.429 99.1519 138.284 99.145C138.139 99.1312 137.986 99.1312 137.841 99.1726C137.696 99.214 137.564 99.3106 137.488 99.4693C137.474 99.4831 137.467 99.5038 137.474 99.5314C137.474 99.559 137.502 99.5797 137.53 99.5866C137.557 99.5866 137.578 99.5797 137.606 99.5659C137.883 99.4486 138.208 99.4486 138.505 99.5659Z" fill="#2C3A40"/>
<path d="M140.048 99.524C140.007 99.5516 139.965 99.5792 139.924 99.5861C139.875 99.593 139.827 99.5723 139.806 99.5171C139.771 99.4412 139.806 99.3377 139.854 99.2756C139.951 99.1445 140.09 99.11 140.221 99.0893C140.353 99.0686 140.484 99.0479 140.615 99.0824C140.747 99.11 140.871 99.1928 140.947 99.3377C140.954 99.3584 140.961 99.3791 140.961 99.3998C140.961 99.4343 140.941 99.455 140.913 99.4619C140.892 99.4688 140.871 99.4619 140.851 99.4481C140.595 99.3584 140.311 99.3791 140.048 99.524Z" fill="#2C3A40"/>
<path d="M140.568 100.359C140.554 100.097 140.436 99.8829 140.298 99.8898C140.166 99.8967 140.062 100.118 140.076 100.38C140.083 100.642 140.208 100.849 140.339 100.849C140.478 100.842 140.575 100.621 140.568 100.359Z" fill="#2C3A40"/>
<path d="M138.478 100.421C138.465 100.159 138.347 99.9523 138.208 99.9592C138.077 99.9661 137.973 100.18 137.987 100.442C138 100.711 138.118 100.918 138.257 100.911C138.388 100.904 138.492 100.684 138.478 100.421Z" fill="#2C3A40"/>
<path d="M140.297 102.139C140.297 102.139 139.301 102.477 138.305 102.284C138.305 102.284 138.747 103.015 139.391 102.933C140.034 102.857 140.297 102.139 140.297 102.139Z" fill="white"/>
<path d="M141.708 97.7095C141.833 97.5991 141.992 97.4887 141.985 97.33C141.978 97.1713 141.819 97.0678 141.667 97.0264C141.515 96.9781 141.342 96.9574 141.231 96.847C141.549 96.7711 141.646 96.3226 141.487 96.0328C141.349 95.7844 141.079 95.6188 140.802 95.5429C140.525 95.4739 140.235 95.4808 139.944 95.5015C139.405 95.536 138.872 95.6188 138.339 95.743C137.897 95.8465 137.412 95.9707 137.011 95.7637C136.9 95.7016 136.79 95.6119 136.665 95.5981C136.458 95.5774 136.278 95.7637 136.229 95.9638C136.188 96.1708 136.243 96.3778 136.299 96.5779C136.077 96.5296 135.821 96.5296 135.648 96.6745C135.482 96.8263 135.482 97.1644 135.697 97.2334C135.766 97.261 135.856 97.261 135.897 97.3162C135.939 97.3852 135.89 97.4749 135.842 97.5439C135.468 98.0821 135.323 98.7721 135.441 99.4138C135.565 100.062 135.946 100.649 136.485 101.022C136.603 100.442 136.81 99.8899 136.942 99.3172C137.08 98.7445 137.143 98.1304 136.97 97.5715C138.076 98.1442 139.412 98.1304 140.615 97.813C140.705 97.7923 140.809 97.7716 140.892 97.813C140.982 97.8613 141.01 97.9717 141.037 98.0683C141.13 98.4271 141.219 98.7859 141.307 99.1447C141.134 98.6479 141.3 98.0476 141.708 97.7095Z" fill="#2C3A40"/>
<path d="M136.347 100.773C136.658 99.6002 136.783 98.3858 136.728 97.1714C136.741 97.2956 137.24 97.3991 137.33 97.4267C137.662 97.5302 138.007 97.5923 138.353 97.613C139.273 97.6751 140.145 97.4612 141.051 97.3163C141.169 97.3025 141.307 97.2818 141.418 97.337C141.529 97.3922 141.598 97.5509 141.522 97.6475" stroke="#2C3A40" stroke-linecap="round" stroke-linejoin="round"/>
<path d="M141.127 96.7643C140.629 96.578 140.076 96.716 139.557 96.8402C138.796 97.0265 137.986 97.1714 137.232 96.9713" stroke="#2C3A40" stroke-linecap="round" stroke-linejoin="round"/>
<path d="M128.509 113.503C128.509 113.503 127.769 115.573 127.727 116.546C127.679 117.512 137.433 117.133 137.433 117.133L137.142 115.366L131.781 114.566L131.857 114.352L128.509 113.503Z" fill="#FAC5C2"/>
<path d="M146.371 113.552L141.224 111.613C141.023 111.537 140.802 111.64 140.726 111.834L137.903 119.293C137.827 119.493 137.931 119.713 138.132 119.789L143.279 121.728C143.479 121.797 143.701 121.701 143.777 121.501L146.592 114.049C146.668 113.848 146.572 113.628 146.371 113.552Z" fill="#2C3A40"/>
<path d="M145.347 112.966L142.407 111.889L142.158 112.565L145.091 113.649L145.347 112.966Z" fill="#A9BDD2"/>
<path d="M141.127 100.532L141.265 100.546" stroke="#2C3A40" stroke-width="0.9" stroke-miterlimit="10"/>
<path d="M159.881 119.935C159.881 119.935 158.546 119.113 157.938 119.155C157.322 119.203 156.118 119.286 155.717 119.935C155.316 120.59 159.881 119.935 159.881 119.935Z" fill="#2C3A40"/>
<path d="M142.186 119.286C141.383 119.065 140.608 118.775 139.854 118.43C140.283 118.665 140.677 118.982 141.003 119.348C139.854 118.755 138.969 117.83 137.827 117.237C137.488 117.057 136.886 117.202 136.541 117.03C136.554 116.547 136.568 116.061 136.582 115.574C136.582 115.47 136.506 115.374 136.61 115.332C136.658 115.312 136.949 115.325 137.004 115.332C138.408 115.539 139.674 115.698 141.079 115.898C141.321 115.933 141.591 115.988 141.729 116.188C141.134 116.429 140.428 116.015 139.827 116.243C140.721 116.602 141.614 116.963 142.504 117.326C142.697 117.402 142.912 117.499 142.981 117.699C142.764 117.704 142.55 117.71 142.338 117.72C142.621 117.823 142.829 118.113 142.836 118.417C142.026 118.368 141.231 118.223 140.463 117.989C140.993 118.329 141.521 118.67 142.047 119.01C142.151 119.072 142.255 119.196 142.186 119.286Z" fill="#FAC5C2"/>
<path d="M220.178 112.751L218.594 117.43L212.713 121.156C212.713 121.156 211.842 120.852 211.544 120.79C211.247 120.728 212.381 122.612 212.381 122.612L213.322 122.308L220.365 118.886L222.094 114.049L220.178 112.751Z" fill="#FAC5C2"/>
<path d="M230.347 106.9C230.942 108.046 231.918 109.005 232.243 110.247C232.319 110.537 232.353 110.847 232.27 111.137C232.174 111.489 231.911 111.779 231.627 112.013C231.164 112.4 230.624 112.689 230.064 112.924C228.14 113.731 225.871 113.849 224.004 112.931C222.129 112.013 220.787 109.957 221.015 107.887C221.167 106.5 221.963 105.279 222.433 103.968C222.751 103.092 222.938 102.16 223.353 101.332C223.775 100.497 224.502 99.745 225.429 99.6277C225.885 99.5725 226.349 99.6691 226.791 99.7933C227.781 100.069 228.818 100.511 229.317 101.401C229.842 102.346 229.635 103.506 229.704 104.582C229.752 105.389 229.974 106.183 230.347 106.9Z" fill="#2C3A40"/>
<path d="M221.347 150.06L220.364 153.227C220.364 153.227 221.291 154.793 221.174 155.414C221.174 155.414 220.164 155.794 219.818 156.249C219.479 156.698 219.147 157.636 217.819 157.754C216.49 157.878 216.131 157.712 216.131 157.712L215.979 157.691C216.089 157.167 216.615 156.76 217.12 156.581C217.362 156.491 217.59 156.367 217.694 156.208C217.95 155.808 218.946 153.303 218.946 153.303L219.673 148.646L221.347 150.06Z" fill="#FAC5C2"/>
<path d="M220.123 155.884L220.129 157.726L220.842 157.761L221.174 155.415L220.123 155.884Z" fill="#455A64"/>
<path d="M221.264 155.387C221.264 155.387 220.233 155.635 219.818 156.249C219.41 156.863 218.94 157.753 217.57 157.788C216.193 157.822 215.923 157.712 215.923 157.712" fill="#455A64"/>
<path d="M217.183 156.532L217.452 157.767C217.452 157.767 218.2 157.698 218.511 157.574C218.815 157.45 219.223 157.098 219.223 157.098L218.013 155.525C218.013 155.525 217.508 156.484 217.183 156.532Z" fill="#455A64"/>
<path d="M231.399 147.445L231.648 153.351C231.648 153.351 232.575 154.918 232.457 155.539C232.457 155.539 231.447 155.918 231.108 156.367C230.762 156.822 230.43 157.753 229.102 157.878C227.774 158.002 227.421 157.829 227.421 157.829L227.262 157.816C227.372 157.291 227.898 156.884 228.403 156.705C228.645 156.615 228.874 156.491 228.977 156.332C229.233 155.932 230.236 153.427 230.236 153.427L229.247 147.776L231.399 147.445Z" fill="#FAC5C2"/>
<path d="M231.406 156.008L231.42 157.719L232.125 157.698L232.457 155.539L231.406 156.008Z" fill="#455A64"/>
<path d="M232.547 155.511C232.547 155.511 231.516 155.752 231.108 156.366C230.693 156.98 230.23 157.877 228.853 157.912C227.483 157.946 227.213 157.836 227.213 157.836" fill="#455A64"/>
<path d="M228.465 156.656L228.735 157.885C228.735 157.885 229.489 157.822 229.794 157.698C230.098 157.574 230.506 157.222 230.506 157.222L229.295 155.649C229.295 155.649 228.79 156.601 228.465 156.656Z" fill="#455A64"/>
<path d="M227.725 120.39C227.725 120.39 229.427 122.28 230.001 123.943C230.575 125.606 232.568 152.744 232.568 152.744C232.568 152.744 231.302 153.648 229.441 153.165L225.166 127.331C225.166 127.331 225.117 127.124 224.944 127.338C224.771 127.552 220.904 153.247 220.904 153.247C220.904 153.247 219.548 153.358 218.116 152.406C218.116 152.406 219.583 125.779 220.475 123.605C221.368 121.438 222.052 120.528 222.052 120.528L227.725 120.39Z" fill="#C8C8C8"/>
<path d="M227.497 120.714C227.497 120.714 228.971 122.805 229.448 124.385C229.932 125.965 232.229 152.91 232.229 152.91" fill="#C8C8C8"/>
<path d="M225.117 127.262L224.384 126.683L224.176 120.845L223.312 120.866L223.498 125.592L224.342 126.634" fill="#C8C8C8"/>
<path d="M226.279 120.9L229.655 125.413L226.279 120.9Z" fill="#2C3A40"/>
<path d="M230.99 112.379L232.568 120.673L232.671 127.697L234.449 130.112L234.823 131.471L234.56 131.816L234.207 131.554L233.813 132.044L233.086 130.422L232.374 129.484L232.969 131.175C232.969 131.175 231.502 130.05 231.793 127.994C231.793 127.994 230.395 121.542 230.437 120.245L229.046 114.069L230.99 112.379Z" fill="#FAC5C2"/>
<path d="M222.385 121.045L220.33 124.944L222.385 121.045Z" fill="#2C3A40"/>
<path d="M226.639 109.508C226.639 109.508 229.759 110.184 230.347 110.605C230.935 111.033 232.277 115.201 232.277 115.201C232.277 115.201 229.227 115.96 229.005 115.96C229.005 115.96 228.251 118.878 227.968 119.61C227.947 119.665 227.954 119.734 227.995 119.782L229.863 123.288C229.863 123.288 222.675 123.95 220.565 123.074L222.253 119.568L221.887 116.498C221.887 116.498 220.946 115.705 220.884 115.132C220.828 114.559 220.828 114.559 220.828 114.559L220.745 114.552L219.161 114.014L221.479 110.226L224.522 109.619L226.639 109.508Z" fill="#414E5C"/>
<path d="M229.006 115.96L228.646 113.435L229.006 115.96Z" fill="#58A52C"/>
<path d="M227.048 106.031C227.048 106.031 226.93 108.949 227.013 109.177C227.096 109.412 228.459 109.978 228.459 109.978C228.459 109.978 225.664 111.295 223.513 109.833C223.513 109.833 224.53 109.329 224.613 109.156C224.696 108.991 224.799 107.086 224.799 107.086L227.048 106.031Z" fill="#FAC5C2"/>
<path d="M227.027 106.576C227.027 106.562 227.027 106.551 227.027 106.542L225.837 106.604L224.799 107.087C224.799 107.087 224.785 107.356 224.765 107.694C225.048 107.735 225.975 107.749 227.027 106.576Z" fill="#D88080"/>
<path d="M223.326 102.884C222.807 105.789 224.163 107.156 224.82 107.266C225.678 107.404 227.234 106.873 227.684 105.603C227.684 105.603 228.742 105.672 228.867 105.099C229.088 104.044 228.21 104.54 228.21 104.54C228.21 104.54 229.939 101.387 227.082 100.373C225.221 99.7036 223.824 100.097 223.326 102.884Z" fill="#FAC5C2"/>
<path d="M226.854 103.367C226.826 103.305 226.695 103.285 226.633 103.264C226.508 103.222 226.391 103.202 226.259 103.202C226.155 103.202 226.058 103.216 225.962 103.229C225.892 103.243 225.775 103.271 225.72 103.216C225.685 103.181 225.692 103.119 225.726 103.084C225.803 103.009 225.975 103.009 226.079 103.002C226.391 102.988 226.723 103.057 226.854 103.367Z" fill="#2C3A40"/>
<path opacity="0.5" d="M226.944 104.961C226.958 104.796 226.709 104.644 226.39 104.616C226.072 104.596 225.802 104.699 225.789 104.865C225.775 105.023 226.024 105.175 226.342 105.203C226.66 105.23 226.93 105.12 226.944 104.961Z" fill="#E54141"/>
<path opacity="0.5" d="M224.357 104.637C224.364 104.492 224.142 104.354 223.852 104.327C223.561 104.306 223.319 104.402 223.305 104.554C223.298 104.699 223.52 104.837 223.81 104.858C224.101 104.885 224.343 104.782 224.357 104.637Z" fill="#E54141"/>
<path d="M224.966 105.051C224.765 105.037 224.633 104.824 224.626 104.817C224.619 104.803 224.619 104.789 224.626 104.775C224.952 104.196 224.903 103.526 224.903 103.519C224.903 103.499 224.917 103.478 224.938 103.478C224.966 103.478 224.987 103.492 224.987 103.513C224.987 103.54 225.035 104.196 224.709 104.789C224.744 104.837 224.841 104.962 224.973 104.975C224.977 104.975 224.982 104.975 224.987 104.975C225.007 104.975 225.028 104.996 225.028 105.017C225.021 105.037 225.007 105.058 224.98 105.058C224.975 105.058 224.97 105.056 224.966 105.051Z" fill="#2C3A40"/>
<path opacity="0.6" d="M225.609 105.741L225.035 105.465L224.799 105.624L224.62 105.424L224.135 105.61C224.135 105.61 224.246 106.355 224.779 106.424C225.387 106.507 225.609 105.741 225.609 105.741Z" fill="#E54141"/>
<path d="M225.609 105.741L224.135 105.61C224.135 105.61 224.73 106.68 225.609 105.741Z" fill="white"/>
<path d="M225.92 103.912C225.962 103.643 226.107 103.443 226.253 103.464C226.398 103.485 226.488 103.712 226.453 103.981C226.412 104.244 226.266 104.444 226.121 104.43C225.975 104.409 225.885 104.175 225.92 103.912Z" fill="#2C3A40"/>
<path d="M223.596 102.988C223.637 102.933 223.762 102.947 223.817 102.94C223.942 102.933 224.052 102.947 224.17 102.981C224.26 103.009 224.35 103.043 224.433 103.085C224.488 103.112 224.592 103.174 224.654 103.133C224.696 103.112 224.703 103.05 224.682 103.009C224.633 102.905 224.474 102.864 224.384 102.829C224.108 102.74 223.789 102.719 223.596 102.988Z" fill="#2C3A40"/>
<path d="M224.364 103.699C224.399 103.436 224.316 103.202 224.17 103.181C224.025 103.16 223.872 103.361 223.837 103.63C223.803 103.899 223.893 104.126 224.038 104.147C224.184 104.168 224.329 103.968 224.364 103.699Z" fill="#2C3A40"/>
<path d="M227.303 115.208C227.303 115.208 225.691 116.436 224.335 115.153C224.335 115.153 225.927 117.313 227.303 115.208Z" fill="#414E5C"/>
<path d="M220.828 114.559C220.828 114.559 221.672 113.117 221.734 112.31L220.828 114.559Z" fill="#414E5C"/>
<path d="M229.22 102.843C229.116 102.305 228.95 101.767 228.666 101.297C228.127 100.414 227.124 99.814 226.093 99.814C225.055 99.8209 224.031 100.442 223.609 101.387C223.478 101.684 223.409 102.008 223.333 102.326C223.222 102.809 223.111 103.294 223 103.781C223.416 102.526 224.522 101.518 225.809 101.215C226.349 103.512 228.424 105.313 228.597 107.666C229.303 106.176 229.524 104.465 229.22 102.843Z" fill="#2C3A40"/>
<path d="M227.933 100.421C228.617 100.552 229.226 101.022 229.531 101.643C229.89 102.367 229.842 103.216 229.973 104.009C230.202 105.307 230.935 106.466 231.827 107.432C232.478 108.136 233.273 108.888 233.218 109.84C233.183 110.378 232.865 110.868 232.45 111.213C232.028 111.551 231.807 111.751 231.295 111.91" fill="#2C3A40"/>
<path d="M227.933 100.421C228.617 100.552 229.226 101.022 229.531 101.643C229.89 102.367 229.842 103.216 229.973 104.009C230.202 105.307 230.935 106.466 231.827 107.432C232.478 108.136 233.273 108.888 233.218 109.84C233.183 110.378 232.865 110.868 232.45 111.213C232.028 111.551 231.807 111.751 231.295 111.91" stroke="#2C3A40" stroke-width="0.9" stroke-miterlimit="10" stroke-linecap="round"/>
<path d="M46.9473 155.711L46.5737 149.797L48.7183 149.687L48.4139 155.883L46.9473 155.711Z" fill="#FAC5C2"/>
<path d="M46.9404 155.145C46.9404 155.145 46.1102 156.635 46.3524 157.787L52.8206 157.912C52.8206 157.912 53.2426 156.683 51.7898 156.345C50.3302 156.007 48.324 154.972 48.324 154.972C48.324 154.972 47.4938 155.69 46.9404 155.145Z" fill="#455A64"/>
<path d="M46.3523 157.787L52.8136 157.911C52.8136 157.911 52.9174 157.608 52.8482 157.263L46.29 157.139C46.29 157.353 46.3108 157.573 46.3523 157.787Z" fill="#455A64"/>
<path d="M48.3032 155.331C48.3586 155.228 48.4208 155.117 48.5177 155.041C48.656 154.938 48.8359 154.903 49.0088 154.883C49.1564 154.869 49.3063 154.862 49.4585 154.862C49.6591 154.862 49.8667 154.883 50.0258 154.993C50.0742 155.034 50.1226 155.083 50.1088 155.145C50.0949 155.186 50.0534 155.214 50.0119 155.234C49.8874 155.29 49.7352 155.269 49.5969 155.248C49.2556 155.188 48.9189 155.113 48.5868 155.021C48.6284 155.2 48.6491 155.386 48.6422 155.573C48.6353 155.752 48.6007 155.924 48.5177 156.076C48.4762 156.145 48.4277 156.207 48.3655 156.242C48.3032 156.276 48.2133 156.29 48.151 156.249C48.0888 156.214 48.0542 156.138 48.0473 156.062C48.0403 155.987 48.0611 155.918 48.0818 155.842C48.1418 155.667 48.2156 155.497 48.3032 155.331Z" stroke="white" stroke-width="1.3" stroke-linecap="round" stroke-linejoin="round"/>
<path d="M39.3028 155.579L38.9224 149.666L41.0669 149.556L40.7625 155.752L39.3028 155.579Z" fill="#FAC5C2"/>
<path d="M39.2888 155.02C39.2888 155.02 38.4587 156.504 38.7077 157.656L45.169 157.787C45.169 157.787 45.591 156.559 44.1383 156.221C42.6786 155.883 40.6724 154.841 40.6724 154.841C40.6724 154.841 39.8423 155.558 39.2888 155.02Z" fill="#455A64"/>
<path d="M38.7009 157.656L45.1622 157.787C45.1622 157.787 45.266 157.483 45.1968 157.138L38.6387 157.007C38.6387 157.228 38.6594 157.449 38.7009 157.656Z" fill="#455A64"/>
<path d="M40.6518 155.207C40.7072 155.096 40.7694 154.993 40.8663 154.917C41.0046 154.806 41.1845 154.772 41.3575 154.758C41.505 154.74 41.6549 154.73 41.8071 154.73C42.0077 154.737 42.2153 154.758 42.3744 154.868C42.4228 154.903 42.4712 154.958 42.4574 155.013C42.4436 155.062 42.4021 155.089 42.3675 155.11C42.236 155.165 42.0838 155.144 41.9455 155.117C41.6042 155.057 41.2675 154.983 40.9355 154.896C40.977 155.075 40.9977 155.262 40.9908 155.448C40.9839 155.621 40.9493 155.8 40.8663 155.952C40.8248 156.014 40.7833 156.076 40.7141 156.117C40.6518 156.152 40.5619 156.159 40.4996 156.124C40.4374 156.083 40.4028 156.007 40.3959 155.938C40.389 155.862 40.4097 155.786 40.4374 155.717C40.4927 155.538 40.5642 155.368 40.6518 155.207Z" stroke="white" stroke-width="1.3" stroke-linecap="round" stroke-linejoin="round"/>
<path d="M50.33 110.06L51.5752 116.505L60.2849 118.582L58.0781 119.603L49.237 119.092L47.9434 112.896L50.33 110.06Z" fill="#E79072"/>
<path d="M49.3543 124.357L49.5549 126.862L49.5203 154L46.0614 154.11L45.0167 129.567L44.4564 129.532L41.8899 154.069H38.2441L38.8045 140.151L38.6523 125.192L40.9629 123.591L49.3543 124.357Z" fill="#C8C8C8"/>
<path d="M45.3637 117.837C45.3637 117.678 45.2321 117.554 45.0727 117.554C44.9134 117.554 44.7817 117.678 44.7817 117.837C44.7817 117.995 44.9134 118.126 45.0727 118.126C45.2321 118.126 45.3637 117.995 45.3637 117.837Z" stroke="#356493" stroke-width="1.6" stroke-linecap="round" stroke-linejoin="round"/>
<path d="M42.402 104.375C42.402 104.375 39.6486 105.423 39.2681 105.603C36.5494 106.921 36.2935 113.276 36.2935 113.276H38.5902L38.2858 125.592C38.2858 125.592 44.8301 126.951 49.8041 125.509L49.1746 114.262C49.1746 114.262 51.0631 114.235 52.4744 113.469C52.4744 113.469 50.2192 107.024 49.223 106.265C48.2337 105.499 44.422 104.823 44.422 104.823L42.402 104.375Z" fill="#414E5C"/>
<path d="M49.1747 114.262L48.9253 110.778L49.1747 114.262Z" fill="#58A52C"/>
<path d="M40.5823 113.234L40.9282 115.829H48.0675L51.1252 116.401L52.3981 117.036L50.551 118.182L47.4933 117.354L38.2925 119.127C38.1334 119.051 38.0158 118.899 37.9881 118.72L37.0542 113.276L40.5823 113.234Z" fill="#E79072"/>
<path d="M40.5825 113.234L41.0536 113.324L41.1368 110.012" fill="#414E5C"/>
<path d="M42.8239 101.291L42.1528 104.803C42.1528 104.803 42.222 107.107 44.2144 106.817C46.2067 106.528 45.9923 105.155 45.9923 105.155L45.8055 104.554L45.7986 102.498L42.8239 101.291Z" fill="#E79072"/>
<path d="M42.7065 101.898L42.8034 101.401L43.7235 101.656L44.5951 102.008L45.7988 103.043L45.8058 104.161C45.2177 104.133 43.177 103.892 42.7065 101.898Z" fill="#D86D50"/>
<path d="M47.708 98.9234C47.6665 100.504 47.1753 103.65 45.5911 103.705C43.9239 103.76 43.0522 102.884 42.7271 101.352C42.7271 101.352 41.9108 101.697 41.9039 100.566C41.897 100.069 42.4711 100.297 42.4711 100.297C42.4711 100.297 41.2743 96.2669 43.8478 95.777C46.4143 95.294 47.7772 96.7568 47.708 98.9234Z" fill="#E79072"/>
<path d="M44.8648 99.2204C44.9133 99.2411 44.9617 99.2687 45.017 99.2756C45.0654 99.2825 45.1208 99.2618 45.1485 99.2066C45.19 99.1307 45.1485 99.0272 45.1 98.9582C44.9894 98.8271 44.8302 98.7926 44.685 98.7719C44.5328 98.7512 44.3806 98.7305 44.2284 98.765C44.0831 98.7926 43.9378 98.8823 43.8479 99.0272C43.8341 99.0479 43.8271 99.0686 43.8271 99.0893C43.8271 99.1238 43.8548 99.1445 43.8825 99.1514C43.9032 99.1583 43.9309 99.1514 43.9586 99.1445C44.2491 99.041 44.5743 99.0686 44.8648 99.2204Z" fill="#2C3A40"/>
<path d="M46.4349 99.31C46.3864 99.3307 46.3449 99.3583 46.2965 99.3583C46.255 99.3652 46.2066 99.3376 46.1858 99.2824C46.1581 99.2065 46.2066 99.103 46.255 99.0409C46.3657 98.9167 46.511 98.896 46.6424 98.8822C46.7808 98.8753 46.9191 98.8684 47.0436 98.9098C47.1751 98.9512 47.2927 99.0478 47.3549 99.2065C47.3619 99.2203 47.3688 99.241 47.3688 99.2686C47.3619 99.2962 47.3342 99.3169 47.3134 99.3238C47.2927 99.3238 47.2719 99.3169 47.2512 99.3031C46.9952 99.1858 46.7047 99.1927 46.4349 99.31Z" fill="#2C3A40"/>
<path d="M46.8922 100.069C46.9061 99.807 46.8022 99.5793 46.6636 99.5793C46.5251 99.5724 46.4073 99.7863 46.3934 100.048C46.3865 100.318 46.4835 100.538 46.622 100.545C46.7606 100.552 46.8853 100.338 46.8922 100.069Z" fill="#2C3A40"/>
<path d="M44.7686 100.083C44.7755 99.8138 44.6716 99.593 44.5331 99.5861C44.4014 99.5792 44.2767 99.7931 44.2698 100.062C44.2559 100.331 44.3599 100.552 44.4984 100.559C44.637 100.559 44.7548 100.352 44.7686 100.083Z" fill="#2C3A40"/>
<path d="M46.4557 101.973C46.4557 101.973 45.418 102.229 44.4287 101.946C44.4287 101.946 44.8161 102.726 45.4664 102.698C46.1236 102.677 46.4557 101.973 46.4557 101.973Z" fill="white"/>
<path d="M46.6014 97.8542C46.5945 98.0336 46.3662 98.1164 46.1864 98.1302C45.5568 98.1785 44.9135 98.0405 44.3601 97.7369C44.1041 98.1302 43.4884 98.2268 43.1287 97.9232C43.0088 98.8156 42.8888 99.708 42.7689 100.6C42.4991 100.462 42.4161 100.131 42.3539 99.8414C42.1948 99.0893 42.0356 98.3303 42.0356 97.5644C42.0356 97.3091 42.0564 97.0538 42.1463 96.8192C42.2432 96.5846 42.423 96.3776 42.6652 96.2948C42.5614 96.1637 42.5061 95.9636 42.6029 95.8256C42.6998 95.6807 42.9765 95.7152 42.9834 95.8877C42.9626 95.6324 43.0941 95.3702 43.3224 95.2598C43.5437 95.1494 43.855 95.2253 43.9796 95.4461C44.3047 95.2736 44.6714 95.1632 45.038 95.1356C45.2248 95.1149 45.4185 95.1218 45.5914 95.1977C45.7644 95.2667 45.9166 95.4185 45.9442 95.5979C46.304 95.453 46.7744 95.6738 46.892 96.0464C47.1549 95.9981 47.4454 96.0601 47.6322 96.2464C47.819 96.4327 47.8813 96.757 47.7221 96.9709C47.985 97.0882 48.1856 97.3435 48.2133 97.6264C48.2341 97.7575 48.2133 97.8956 48.1234 97.9991C48.0404 98.0957 47.8813 98.1371 47.7775 98.0612C47.8813 98.1302 47.9435 98.2682 47.9158 98.3924C47.4385 98.3165 46.9888 98.1302 46.6014 97.8542Z" fill="#2C3A40"/>
<path d="M65.3764 110.412L53.3739 110.392L51.6929 119.113L63.6124 119.251L65.3764 110.412Z" fill="#2C3A40"/>
<path d="M47.3208 119.099L54.9651 119.113V118.361L47.3208 118.34V119.099Z" fill="#2C3A40"/>
<path d="M60.4512 114.207C60.4512 113.642 59.9946 113.179 59.4273 113.179C58.8531 113.179 58.3966 113.635 58.3896 114.2C58.3896 114.773 58.8531 115.229 59.4204 115.235C59.9877 115.235 60.4512 114.773 60.4512 114.207Z" fill="white"/>
<path d="M251.294 112.006C250.72 111.793 250.181 112.407 249.973 112.979C249.44 114.449 249.593 116.271 248.444 117.326C248.216 117.533 247.946 117.699 247.739 117.927C247.393 118.306 247.248 118.831 247.213 119.348C247.144 120.376 247.469 121.39 247.593 122.419C247.718 123.447 247.6 124.606 246.839 125.31C246.466 125.648 245.975 125.855 245.656 126.234C244.985 127.035 245.283 128.228 245.594 129.222C245.905 130.222 246.141 131.451 245.387 132.182C245.186 132.375 244.93 132.513 244.743 132.72C244.294 133.224 244.37 133.997 244.48 134.659C244.889 137.109 245.387 139.544 245.982 141.952C246.03 142.139 246.085 142.346 246.231 142.477C246.424 142.642 246.708 142.636 246.957 142.629C247.598 142.592 248.237 142.557 248.873 142.525C249.219 142.511 249.586 142.484 249.869 142.291C250.174 142.077 250.326 141.704 250.457 141.359C251.025 139.813 251.523 138.247 251.945 136.66C252.201 135.68 252.429 134.604 252.007 133.679C251.786 133.196 251.398 132.796 251.218 132.299C250.527 130.443 252.837 128.711 252.789 126.738C252.761 125.461 251.744 124.364 251.73 123.095C251.716 121.625 253.031 120.176 252.429 118.837C252.228 118.396 251.848 118.058 251.613 117.63C250.893 116.312 251.786 114.725 251.855 113.221C251.876 112.745 251.744 112.172 251.294 112.006Z" stroke="#58A52C" stroke-width="1.5" stroke-linecap="round" stroke-linejoin="round"/>
<path d="M250.817 113.152C250.091 115.077 249.351 117.119 249.717 119.141C249.786 119.521 249.897 119.893 249.904 120.28C249.911 121.425 249.012 122.398 248.825 123.529C248.624 124.709 249.212 125.91 249.067 127.104C248.929 128.221 248.175 129.153 247.621 130.14C247.068 131.126 246.729 132.43 247.407 133.334C247.725 133.762 248.216 134.024 248.507 134.459C249.074 135.301 248.742 136.426 248.375 137.364C247.746 138.965 247.047 140.697 247.524 142.346" stroke="#58A52C" stroke-width="1.5" stroke-linecap="round" stroke-linejoin="round"/>
<path d="M249.095 126.2C249.081 125.876 249.074 125.531 249.247 125.255C249.503 124.847 250.084 124.723 250.34 124.309C250.575 123.93 250.465 123.44 250.492 122.998C250.527 122.363 250.88 121.749 251.405 121.397" stroke="#58A52C" stroke-width="1.5" stroke-linecap="round" stroke-linejoin="round"/>
<path d="M250.983 117.816C250.9 118.155 250.61 118.382 250.34 118.589C250.07 118.803 249.787 119.058 249.745 119.397" stroke="#58A52C" stroke-width="1.5" stroke-linecap="round" stroke-linejoin="round"/>
<path d="M248.23 119.817C248.68 120.797 248.389 122.018 248.929 122.964" stroke="#58A52C" stroke-width="1.5" stroke-linecap="round" stroke-linejoin="round"/>
<path d="M248.147 129.27C248.472 128.773 249.012 128.415 249.607 128.311C249.773 128.277 249.946 128.27 250.112 128.228C250.617 128.104 251.039 127.69 251.191 127.193C251.232 127.069 251.302 126.897 251.433 126.91" stroke="#58A52C" stroke-width="1.5" stroke-linecap="round" stroke-linejoin="round"/>
<path d="M246.646 126.482C247.088 126.959 247.213 127.642 247.254 128.29C247.296 128.939 247.268 129.608 247.489 130.215" stroke="#58A52C" stroke-width="1.5" stroke-linecap="round" stroke-linejoin="round"/>
<path d="M262.972 127.663C262.806 127.373 262.37 127.518 262.086 127.738C261.367 128.318 260.813 129.291 259.969 129.463C259.803 129.498 259.637 129.498 259.471 129.546C259.195 129.629 258.959 129.85 258.773 130.105C258.392 130.602 258.185 131.223 257.894 131.782C257.604 132.348 257.161 132.9 256.6 133.01C256.331 133.072 256.054 133.017 255.791 133.114C255.238 133.307 254.961 134.004 254.753 134.611C254.553 135.211 254.235 135.908 253.674 136.046C253.522 136.081 253.363 136.067 253.218 136.115C252.851 136.232 252.63 136.646 252.45 137.019C251.799 138.392 251.191 139.786 250.63 141.193C250.582 141.304 250.54 141.428 250.561 141.538C250.582 141.683 250.706 141.773 250.817 141.842C251.098 142.031 251.38 142.217 251.661 142.401C251.813 142.498 251.972 142.601 252.159 142.594C252.36 142.58 252.553 142.442 252.72 142.304C253.48 141.704 254.221 141.062 254.933 140.386C255.376 139.972 255.833 139.496 255.964 138.896C256.04 138.578 256.012 138.254 256.102 137.944C256.434 136.784 257.991 136.639 258.641 135.618C259.056 134.963 258.994 134.08 259.416 133.431C259.907 132.679 260.952 132.361 261.152 131.492C261.215 131.202 261.166 130.912 261.215 130.623C261.353 129.726 262.266 129.201 262.799 128.456C262.972 128.221 263.11 127.89 262.972 127.663Z" fill="#FBDBD0"/>
<path d="M261.547 129.132C260.91 129.608 260.232 130.133 260.025 130.899C259.976 131.085 259.956 131.285 259.893 131.471C259.568 132.375 258.295 132.631 257.894 133.507C257.777 133.776 257.749 134.073 257.618 134.342C257.362 134.859 256.774 135.115 256.234 135.342C255.701 135.577 255.12 135.887 254.954 136.446C254.892 136.667 254.899 136.902 254.878 137.129C254.802 137.785 254.449 138.399 253.916 138.785C253.695 138.944 253.453 139.068 253.252 139.248C252.962 139.51 252.782 139.869 252.616 140.221C252.367 140.74 252.115 141.258 251.862 141.773" stroke="#58A52C" stroke-width="0.6" stroke-linecap="round" stroke-linejoin="round"/>
<path d="M256.484 133.811C256.519 133.99 256.532 134.176 256.491 134.356C256.394 134.735 256.061 135.032 256.006 135.418" stroke="#58A52C" stroke-width="0.6" stroke-linecap="round" stroke-linejoin="round"/>
<path d="M259.333 130.195C259.091 130.602 259.146 131.113 259.07 131.582C259.001 132.003 258.814 132.403 258.544 132.727" stroke="#58A52C" stroke-width="0.6" stroke-linecap="round" stroke-linejoin="round"/>
<path d="M260.889 131.285C260.544 131.589 260.004 131.568 259.672 131.879" stroke="#58A52C" stroke-width="0.6" stroke-linecap="round" stroke-linejoin="round"/>
<path d="M258.185 135.267C257.777 135.674 257.195 135.832 256.628 135.943C256.061 136.053 255.48 136.129 254.975 136.412C254.961 136.426 254.94 136.44 254.947 136.453C254.947 136.474 254.982 136.474 254.975 136.453" stroke="#58A52C" stroke-width="0.6" stroke-linecap="round" stroke-linejoin="round"/>
<path d="M253.695 136.515C253.702 136.908 253.833 137.295 253.91 137.681C253.986 138.075 254.007 138.495 253.826 138.847" stroke="#58A52C" stroke-width="0.6" stroke-linecap="round" stroke-linejoin="round"/>
<path d="M255.134 139.524C255.072 139.593 254.982 139.641 254.899 139.676C254.318 139.945 253.647 139.938 253.01 140.035C252.83 140.069 252.616 140.131 252.554 140.311" stroke="#58A52C" stroke-width="0.6" stroke-linecap="round" stroke-linejoin="round"/>
<path d="M257.355 124.04C256.698 124.813 256.006 125.675 255.971 126.69C255.964 126.938 255.999 127.193 255.971 127.449C255.833 128.677 254.318 129.36 254.076 130.574C254.007 130.947 254.062 131.333 253.972 131.699C253.806 132.424 253.142 132.913 252.54 133.355C251.938 133.804 251.309 134.369 251.26 135.115C251.246 135.404 251.322 135.701 251.364 135.991C251.468 136.833 251.198 137.709 250.651 138.344C250.423 138.606 250.153 138.834 249.953 139.117C249.669 139.524 249.551 140.027 249.441 140.517C249.284 141.239 249.125 141.962 248.963 142.684" stroke="#58A52C" stroke-width="0.6" stroke-linecap="round" stroke-linejoin="round"/>
<path d="M252.395 131.368C252.492 131.582 252.568 131.816 252.561 132.051C252.561 132.554 252.222 133.017 252.277 133.52" stroke="#58A52C" stroke-width="0.6" stroke-linecap="round" stroke-linejoin="round"/>
<path d="M254.892 126.014C254.712 126.593 254.934 127.221 254.975 127.828C255.01 128.373 254.899 128.925 254.657 129.408" stroke="#58A52C" stroke-width="0.6" stroke-linecap="round" stroke-linejoin="round"/>
<path d="M257.168 126.924C256.822 127.4 256.137 127.532 255.819 128.021" stroke="#58A52C" stroke-width="0.6" stroke-linecap="round" stroke-linejoin="round"/>
<path d="M254.954 132.693C254.567 133.314 253.882 133.693 253.204 133.997C252.533 134.301 251.82 134.57 251.281 135.066C251.26 135.087 251.239 135.108 251.253 135.129C251.26 135.149 251.301 135.135 251.288 135.122" stroke="#58A52C" stroke-width="0.6" stroke-linecap="round" stroke-linejoin="round"/>
<path d="M249.704 135.563C249.835 136.06 250.105 136.501 250.312 136.964C250.527 137.433 250.679 137.95 250.555 138.447" stroke="#58A52C" stroke-width="0.6" stroke-linecap="round" stroke-linejoin="round"/>
<path d="M252.388 138.91C252.333 139.013 252.236 139.096 252.139 139.172C251.489 139.676 250.652 139.862 249.891 140.172C249.669 140.262 249.413 140.414 249.399 140.648" stroke="#58A52C" stroke-width="0.6" stroke-linecap="round" stroke-linejoin="round"/>
<path d="M234.118 121.577C234.415 121.266 234.92 121.57 235.204 121.936C235.937 122.867 236.338 124.247 237.341 124.71C237.542 124.799 237.749 124.848 237.943 124.958C238.261 125.144 238.497 125.489 238.656 125.855C238.981 126.593 239.057 127.428 239.258 128.215C239.458 129.001 239.846 129.822 240.517 130.133C240.835 130.285 241.195 130.299 241.499 130.492C242.135 130.899 242.274 131.858 242.35 132.672C242.426 133.486 242.62 134.452 243.284 134.784C243.464 134.866 243.664 134.901 243.837 135.004C244.252 135.253 244.411 135.839 244.529 136.357C244.937 138.261 245.29 140.186 245.574 142.111C245.594 142.263 245.622 142.429 245.56 142.567C245.491 142.739 245.311 142.815 245.152 142.87C244.746 143.022 244.34 143.172 243.934 143.319C243.713 143.402 243.477 143.484 243.249 143.415C243 143.34 242.806 143.112 242.627 142.891C241.859 141.911 241.118 140.897 240.427 139.848C239.998 139.2 239.562 138.468 239.576 137.675C239.583 137.261 239.707 136.867 239.686 136.446C239.61 134.901 237.708 134.259 237.196 132.796C236.871 131.851 237.203 130.768 236.864 129.829C236.477 128.746 235.259 128.042 235.273 126.897C235.273 126.517 235.418 126.165 235.446 125.793C235.543 124.627 234.553 123.702 234.097 122.619C233.958 122.274 233.882 121.818 234.118 121.577Z" stroke="#58A52C" stroke-width="0.6" stroke-linecap="round" stroke-linejoin="round"/>
<path d="M240.427 131.161C240.33 131.375 240.261 131.61 240.261 131.844C240.261 132.348 240.6 132.817 240.552 133.314" stroke="#58A52C" stroke-width="0.6" stroke-linecap="round" stroke-linejoin="round"/>
<path d="M237.929 125.807C238.109 126.393 237.888 127.014 237.846 127.621C237.811 128.166 237.922 128.718 238.172 129.201" stroke="#58A52C" stroke-width="0.6" stroke-linecap="round" stroke-linejoin="round"/>
<path d="M235.66 126.717C235.999 127.193 236.684 127.324 237.009 127.814" stroke="#58A52C" stroke-width="0.6" stroke-linecap="round" stroke-linejoin="round"/>
<path d="M237.867 132.486C238.262 133.114 238.946 133.486 239.617 133.79C240.288 134.094 241.001 134.363 241.547 134.866C241.561 134.88 241.582 134.901 241.575 134.922C241.568 134.942 241.52 134.935 241.534 134.915" stroke="#58A52C" stroke-width="0.6" stroke-linecap="round" stroke-linejoin="round"/>
<path d="M243.117 135.363C242.993 135.853 242.716 136.295 242.509 136.764C242.294 137.226 242.142 137.751 242.267 138.241" stroke="#58A52C" stroke-width="0.6" stroke-linecap="round" stroke-linejoin="round"/>
<path d="M240.434 138.703C240.496 138.806 240.586 138.889 240.683 138.965C241.333 139.469 242.17 139.655 242.931 139.965C243.159 140.062 243.408 140.207 243.422 140.448" stroke="#58A52C" stroke-width="0.6" stroke-linecap="round" stroke-linejoin="round"/>
<path d="M242.502 124.916C242.785 124.723 243.118 125.033 243.284 125.358C243.692 126.186 243.782 127.297 244.473 127.807C244.612 127.911 244.764 127.98 244.888 128.09C245.103 128.283 245.227 128.587 245.29 128.89C245.421 129.505 245.352 130.146 245.38 130.781C245.407 131.416 245.58 132.099 246.037 132.437C246.258 132.603 246.535 132.672 246.736 132.872C247.158 133.279 247.109 134.031 247.04 134.659C246.971 135.294 246.964 136.06 247.42 136.418C247.545 136.515 247.69 136.563 247.801 136.674C248.085 136.929 248.112 137.398 248.119 137.812C248.133 139.33 248.098 140.848 248.008 142.366C248.002 142.483 247.995 142.615 247.932 142.711C247.849 142.828 247.704 142.856 247.573 142.877C247.236 142.927 246.902 142.978 246.57 143.029C246.39 143.056 246.196 143.084 246.03 142.994C245.857 142.897 245.746 142.69 245.643 142.497C245.207 141.635 244.805 140.745 244.439 139.834C244.217 139.268 244.003 138.647 244.134 138.047C244.204 137.729 244.363 137.446 244.418 137.129C244.598 135.935 243.249 135.142 243.09 133.948C242.986 133.182 243.415 132.409 243.304 131.637C243.173 130.753 242.363 130.029 242.55 129.153C242.613 128.863 242.779 128.621 242.862 128.338C243.111 127.469 242.502 126.607 242.329 125.71C242.274 125.427 242.287 125.068 242.502 124.916Z" fill="#FBDBD0"/>
<path d="M243.18 126.848C243.56 127.545 243.955 128.304 243.816 129.084C243.788 129.277 243.719 129.463 243.699 129.663C243.616 130.622 244.66 131.381 244.653 132.341C244.653 132.637 244.549 132.92 244.556 133.217C244.57 133.796 244.999 134.273 245.387 134.707C245.774 135.142 246.168 135.666 246.085 136.246C246.051 136.474 245.947 136.681 245.871 136.901C245.656 137.522 245.725 138.233 246.044 138.806C246.175 139.04 246.348 139.254 246.452 139.503C246.604 139.862 246.618 140.262 246.618 140.648C246.627 141.223 246.636 141.798 246.646 142.373" stroke="#58A52C" stroke-width="0.6" stroke-linecap="round" stroke-linejoin="round"/>
<path d="M245.809 133.21C245.705 133.362 245.608 133.527 245.574 133.707C245.497 134.086 245.678 134.5 245.567 134.873" stroke="#58A52C" stroke-width="0.6" stroke-linecap="round" stroke-linejoin="round"/>
<path d="M244.751 128.739C244.793 129.208 244.529 129.65 244.398 130.112C244.287 130.519 244.287 130.954 244.398 131.368" stroke="#58A52C" stroke-width="0.6" stroke-linecap="round" stroke-linejoin="round"/>
<path d="M242.875 129.077C243.055 129.491 243.56 129.705 243.726 130.125" stroke="#58A52C" stroke-width="0.6" stroke-linecap="round" stroke-linejoin="round"/>
<path d="M243.65 133.824C243.851 134.356 244.315 134.749 244.778 135.087C245.242 135.425 245.747 135.742 246.079 136.212C246.092 136.225 246.099 136.239 246.092 136.26C246.085 136.274 246.051 136.26 246.065 136.246" stroke="#58A52C" stroke-width="0.6" stroke-linecap="round" stroke-linejoin="round"/>
<path d="M247.199 136.833C247.026 137.191 246.749 137.488 246.514 137.805C246.279 138.13 246.078 138.502 246.099 138.896" stroke="#58A52C" stroke-width="0.6" stroke-linecap="round" stroke-linejoin="round"/>
<path d="M244.633 138.964C244.66 139.054 244.716 139.13 244.778 139.199C245.193 139.689 245.802 139.958 246.335 140.317C246.494 140.42 246.66 140.572 246.632 140.758" stroke="#58A52C" stroke-width="0.6" stroke-linecap="round" stroke-linejoin="round"/>
<path d="M256.836 141.925H239.569L240.447 153.676C240.607 155.725 242.315 157.305 244.37 157.305H252.028C254.089 157.305 255.798 155.725 255.95 153.676L256.836 141.925Z" fill="#2C3A40"/>
<path d="M210.618 119.355L206.211 121.68C206.08 121.749 206.031 121.908 206.1 122.032L209.193 127.869C209.262 127.994 209.421 128.049 209.552 127.98L213.952 125.654C214.084 125.585 214.132 125.427 214.063 125.303L210.971 119.465C210.901 119.341 210.742 119.286 210.618 119.355Z" fill="#333333"/>
<path d="M210.742 119.514L206.273 121.873L209.421 127.821L213.89 125.461L210.742 119.514Z" fill="white"/>
<path d="M208.999 119.997L207.484 120.79C207.339 120.866 207.283 121.045 207.359 121.19L207.477 121.411L209.518 120.335L209.4 120.114C209.324 119.969 209.144 119.914 208.999 119.997Z" fill="#354152"/>
<path d="M208.051 120.031C207.857 120.135 207.781 120.383 207.885 120.576L207.968 120.735L208.68 120.355L208.597 120.204C208.494 120.003 208.252 119.928 208.051 120.031Z" fill="#354152"/>
<g opacity="0.2">
<path d="M207.733 121.866L209.739 120.817" stroke="#3D3C52" stroke-width="1.6" stroke-linecap="round" stroke-linejoin="round"/>
</g>
<path opacity="0.2" d="M210.922 120.866L207.124 122.867C207.096 122.881 207.062 122.874 207.048 122.846C207.034 122.819 207.048 122.784 207.076 122.77L210.867 120.769C210.894 120.755 210.929 120.769 210.943 120.79C210.957 120.818 210.95 120.852 210.922 120.866Z" fill="#3D3C52"/>
<path opacity="0.2" d="M211.109 121.225L207.318 123.226C207.29 123.246 207.256 123.232 207.242 123.205C207.228 123.177 207.235 123.15 207.263 123.136L211.06 121.128C211.088 121.114 211.123 121.128 211.137 121.156C211.15 121.183 211.137 121.211 211.109 121.225Z" fill="#3D3C52"/>
<path opacity="0.2" d="M211.33 121.639L207.532 123.64C207.505 123.653 207.47 123.64 207.456 123.612C207.442 123.591 207.456 123.557 207.484 123.543L211.275 121.542C211.302 121.528 211.337 121.535 211.351 121.563C211.365 121.59 211.358 121.625 211.33 121.639Z" fill="#3D3C52"/>
<path opacity="0.2" d="M211.517 121.998L207.726 123.999C207.698 124.012 207.664 124.005 207.65 123.978C207.636 123.95 207.643 123.916 207.671 123.902L211.469 121.901C211.496 121.887 211.531 121.894 211.545 121.922C211.559 121.949 211.545 121.984 211.517 121.998Z" fill="#3D3C52"/>
<path opacity="0.2" d="M211.752 122.432L207.954 124.433C207.927 124.447 207.892 124.433 207.878 124.406C207.864 124.385 207.878 124.35 207.899 124.337L211.697 122.336C211.724 122.322 211.759 122.329 211.773 122.356C211.787 122.384 211.773 122.418 211.752 122.432Z" fill="#3D3C52"/>
<path opacity="0.2" d="M211.939 122.791L208.141 124.792C208.12 124.806 208.086 124.799 208.072 124.771C208.058 124.744 208.065 124.709 208.093 124.695L211.891 122.694C211.918 122.681 211.946 122.687 211.967 122.715C211.98 122.743 211.967 122.777 211.939 122.791Z" fill="#3D3C52"/>
<path opacity="0.2" d="M212.168 123.212L208.37 125.22C208.342 125.234 208.307 125.22 208.294 125.192C208.28 125.165 208.294 125.137 208.321 125.123L212.112 123.115C212.14 123.101 212.174 123.115 212.188 123.143C212.202 123.17 212.195 123.198 212.168 123.212Z" fill="#3D3C52"/>
<path opacity="0.2" d="M212.354 123.578L208.563 125.579C208.535 125.592 208.501 125.579 208.487 125.558C208.473 125.53 208.48 125.496 208.508 125.482L212.306 123.481C212.333 123.467 212.368 123.474 212.382 123.502C212.396 123.529 212.382 123.564 212.354 123.578Z" fill="#3D3C52"/>
<path opacity="0.2" d="M212.7 124.157L210.998 125.047C210.991 125.054 210.971 125.04 210.957 125.013C210.943 124.985 210.936 124.957 210.95 124.95L212.645 124.06C212.659 124.053 212.679 124.067 212.693 124.095C212.707 124.122 212.707 124.15 212.7 124.157Z" fill="#3D3C52"/>
<path opacity="0.2" d="M212.887 124.516L211.192 125.413C211.178 125.413 211.158 125.399 211.144 125.371C211.13 125.344 211.13 125.316 211.144 125.316L212.839 124.419C212.852 124.412 212.873 124.426 212.887 124.454C212.901 124.481 212.901 124.509 212.887 124.516Z" fill="#3D3C52"/>
<g opacity="0.2">
<path d="M209.636 126.151L210.424 125.737" stroke="#3D3C52" stroke-width="0.6" stroke-linecap="round" stroke-linejoin="round"/>
</g>
<g opacity="0.2">
<path d="M209.705 126.296L210.493 125.875" stroke="#3D3C52" stroke-width="0.6" stroke-linecap="round" stroke-linejoin="round"/>
</g>
<g opacity="0.2">
<path d="M210.839 125.655C210.618 125.241 210.106 125.089 209.691 125.303C209.276 125.523 209.124 126.034 209.338 126.448C209.559 126.855 210.071 127.014 210.486 126.8C210.895 126.579 211.054 126.069 210.839 125.655Z" stroke="#3D3C52" stroke-width="1.6" stroke-linecap="round" stroke-linejoin="round"/>
</g>
<g opacity="0.2">
<path d="M210.632 125.765C210.473 125.468 210.099 125.351 209.802 125.509C209.504 125.668 209.387 126.041 209.546 126.337C209.705 126.634 210.078 126.751 210.376 126.593C210.673 126.434 210.791 126.061 210.632 125.765Z" stroke="#3D3C52" stroke-width="1.1" stroke-linecap="round" stroke-linejoin="round"/>
</g>
<path d="M212.001 120.935C212.001 120.935 211.212 120.562 210.922 120.562C210.638 120.562 209.372 121.031 209.372 121.031C209.372 121.031 209.497 121.224 209.849 121.224C210.195 121.224 210.797 121.162 210.797 121.162C210.797 121.162 211.876 122.204 212.478 122.046C213.08 121.887 212.001 120.935 212.001 120.935Z" fill="#FAC5C2"/>
</svg>
