<svg width="705" height="470" viewBox="0 0 705 470" fill="none" xmlns="http://www.w3.org/2000/svg">
<path d="M274.196 174.498C270.009 180.873 267.193 187.877 265.694 195.101L254.189 196.185L254.188 218.465L265.695 219.549C267.193 226.771 270.01 233.775 274.197 240.152L266.848 249.028L282.603 264.783L291.479 257.435C297.856 261.622 304.859 264.438 312.081 265.936L313.164 277.443L335.444 277.442L336.528 265.938C343.751 264.438 350.755 261.622 357.132 257.436L366.008 264.784L381.763 249.029L374.415 240.152C378.601 233.775 381.417 226.772 382.916 219.55L394.42 218.466L394.422 196.185L382.917 195.101C381.417 187.879 378.601 180.876 374.414 174.5L381.762 165.623L366.007 149.869L357.131 157.217C350.753 153.03 343.75 150.213 336.529 148.714L335.445 137.208L313.165 137.209L312.082 148.714C304.859 150.214 297.856 153.028 291.48 157.216L282.603 149.867L266.848 165.622L274.196 174.498ZM345.633 185.996C357.41 197.775 357.411 216.873 345.633 228.652C333.853 240.432 314.754 240.431 302.976 228.653C291.197 216.874 291.198 197.776 302.977 185.996C314.756 174.219 333.854 174.218 345.633 185.996Z" fill="#E0E0E0"/>
<path d="M172.541 135.543C170.185 139.131 168.6 143.072 167.756 147.138L161.281 147.748L161.28 160.288L167.756 160.898C168.599 164.962 170.185 168.904 172.541 172.494L168.405 177.489L177.272 186.356L182.268 182.221C185.857 184.577 189.798 186.162 193.863 187.005L194.472 193.481L207.011 193.48L207.621 187.005C211.687 186.161 215.628 184.576 219.217 182.22L224.212 186.355L233.079 177.488L228.944 172.493C231.3 168.904 232.885 164.962 233.729 160.898L240.204 160.288L240.205 147.748L233.73 147.138C232.886 143.073 231.3 139.132 228.944 135.544L233.079 130.549L224.212 121.682L219.217 125.817C215.628 123.46 211.687 121.875 207.622 121.031L207.012 114.556L194.473 114.557L193.864 121.032C189.799 121.876 185.858 123.46 182.269 125.817L177.272 121.681L168.405 130.548L172.541 135.543ZM212.747 142.014C219.376 148.643 219.376 159.392 212.747 166.022C206.117 172.651 195.368 172.65 188.74 166.022C182.11 159.392 182.111 148.644 188.74 142.014C195.369 135.386 206.117 135.385 212.747 142.014Z" fill="#E0E0E0"/>
<path d="M206.371 81.0476C205.194 82.8411 204.402 84.8113 203.98 86.8427L200.744 87.1472V93.4142L203.98 93.7188C204.402 95.7501 205.194 97.7203 206.371 99.5139L204.304 102.011L208.736 106.442L211.233 104.375C213.027 105.552 214.997 106.345 217.028 106.766L217.333 110.002H223.6L223.904 106.767C225.936 106.345 227.906 105.552 229.699 104.376L232.196 106.443L236.628 102.011L234.561 99.5148C235.739 97.7213 236.53 95.7511 236.952 93.7197L240.188 93.4151L240.189 87.1482L236.952 86.8427C236.53 84.8113 235.738 82.8411 234.561 81.0476L236.628 78.5509L232.197 74.1198L229.7 76.1868C227.907 75.009 225.937 74.2166 223.905 73.7945L223.601 70.5581H217.334L217.029 73.7945C214.998 74.2166 213.028 75.0081 211.234 76.1859L208.737 74.1188L204.305 78.5509L206.371 81.0476ZM226.466 84.2821C229.778 87.5956 229.779 92.9677 226.466 96.2803C223.152 99.5938 217.78 99.5938 214.468 96.2803C211.154 92.9668 211.154 87.5956 214.468 84.2821C217.78 80.9686 223.151 80.9686 226.466 84.2821Z" fill="#E0E0E0"/>
<path d="M155.631 265.387L115.188 273.344C113.399 273.696 111.663 272.531 111.311 270.742L100.725 216.937C100.373 215.148 101.538 213.413 103.327 213.061L143.77 205.104C145.559 204.753 147.294 205.917 147.647 207.706L158.233 261.512C158.585 263.3 157.42 265.035 155.631 265.387Z" fill="#E6E6E6"/>
<path d="M140.062 223.63L113.777 228.801C112.873 228.978 111.996 228.39 111.819 227.486L111.675 226.756C111.497 225.852 112.085 224.975 112.99 224.797L139.274 219.626C140.178 219.449 141.055 220.037 141.233 220.94L141.377 221.671C141.554 222.575 140.965 223.452 140.062 223.63Z" fill="#F0F0F0"/>
<path d="M142.076 233.871L115.792 239.043C114.888 239.221 114.012 238.632 113.833 237.728L113.689 236.997C113.512 236.093 114.1 235.217 115.004 235.038L141.289 229.867C142.193 229.689 143.07 230.277 143.248 231.182L143.391 231.912C143.569 232.816 142.981 233.693 142.076 233.871Z" fill="#F0F0F0"/>
<path d="M144.092 244.112L117.807 249.284C116.903 249.462 116.026 248.873 115.848 247.969L115.704 247.239C115.527 246.334 116.115 245.457 117.02 245.28L143.304 240.108C144.208 239.93 145.085 240.519 145.263 241.423L145.407 242.152C145.584 243.058 144.996 243.935 144.092 244.112Z" fill="#F0F0F0"/>
<path d="M132.125 257.105L119.823 259.525C118.919 259.703 118.043 259.115 117.864 258.211L117.72 257.481C117.542 256.577 118.131 255.7 119.035 255.522L131.337 253.101C132.241 252.924 133.118 253.512 133.296 254.417L133.44 255.147C133.616 256.05 133.028 256.927 132.125 257.105Z" fill="#F0F0F0"/>
<path d="M195 319.538L169.404 316.482C167.594 316.265 166.301 314.623 166.517 312.813L170.666 278.06C170.883 276.25 172.525 274.958 174.335 275.173L199.931 278.229C201.742 278.445 203.034 280.088 202.818 281.898L198.669 316.651C198.453 318.461 196.811 319.754 195 319.538Z" fill="#E6E6E6"/>
<path d="M194.488 289.488L176.978 287.397C176.22 287.307 175.679 286.62 175.77 285.862C175.86 285.105 176.547 284.564 177.305 284.654L194.815 286.745C195.573 286.835 196.113 287.522 196.023 288.28C195.933 289.038 195.245 289.578 194.488 289.488Z" fill="#F0F0F0"/>
<path d="M193.649 296.505L176.139 294.414C175.381 294.324 174.841 293.636 174.931 292.879C175.021 292.122 175.709 291.581 176.466 291.671L193.977 293.762C194.734 293.852 195.275 294.539 195.184 295.297C195.094 296.055 194.407 296.596 193.649 296.505Z" fill="#F0F0F0"/>
<path d="M192.812 303.523L175.302 301.432C174.544 301.342 174.004 300.655 174.094 299.897C174.184 299.14 174.871 298.599 175.629 298.69L193.139 300.78C193.897 300.87 194.437 301.557 194.347 302.315C194.257 303.073 193.57 303.613 192.812 303.523Z" fill="#F0F0F0"/>
<path d="M182.393 309.397L174.463 308.451C173.705 308.36 173.165 307.673 173.255 306.915C173.345 306.158 174.032 305.617 174.79 305.708L182.72 306.654C183.477 306.744 184.018 307.432 183.928 308.189C183.837 308.947 183.15 309.487 182.393 309.397Z" fill="#F0F0F0"/>
<path d="M618.634 211.607L588.37 200.126C586.666 199.479 585.808 197.573 586.455 195.868L601.874 155.227C602.52 153.523 604.427 152.666 606.131 153.312L636.395 164.794C638.099 165.441 638.958 167.347 638.311 169.051L622.892 209.692C622.245 211.396 620.339 212.254 618.634 211.607Z" fill="#E6E6E6"/>
<path d="M626.4 176.221L606.03 168.493C605.317 168.222 604.958 167.425 605.228 166.711L605.428 166.186C605.698 165.473 606.496 165.113 607.209 165.384L627.579 173.113C628.292 173.384 628.651 174.181 628.381 174.894L628.181 175.42C627.911 176.133 627.113 176.492 626.4 176.221Z" fill="#F0F0F0"/>
<path d="M623.382 184.175L603.013 176.447C602.299 176.176 601.94 175.379 602.211 174.666L602.41 174.14C602.681 173.427 603.478 173.068 604.191 173.338L624.561 181.066C625.275 181.337 625.634 182.134 625.363 182.847L625.164 183.373C624.893 184.086 624.096 184.445 623.382 184.175Z" fill="#F0F0F0"/>
<path d="M620.365 192.128L599.996 184.4C599.282 184.13 598.923 183.333 599.194 182.619L599.393 182.094C599.664 181.38 600.461 181.021 601.174 181.292L621.544 189.02C622.258 189.29 622.617 190.087 622.346 190.801L622.147 191.326C621.877 192.04 621.079 192.399 620.365 192.128Z" fill="#F0F0F0"/>
<path d="M606.49 195.961L596.978 192.353C596.265 192.082 595.905 191.285 596.176 190.571L596.375 190.046C596.646 189.332 597.443 188.973 598.157 189.244L607.669 192.853C608.382 193.123 608.741 193.921 608.47 194.634L608.271 195.159C608.001 195.873 607.203 196.232 606.49 195.961Z" fill="#F0F0F0"/>
<path d="M373.886 78.0882H364.35C363.534 78.0882 362.873 77.4264 362.873 76.6114V64.7844C362.873 63.9684 363.534 63.3076 364.35 63.3076H373.886C374.702 63.3076 375.363 63.9684 375.363 64.7844V76.6105C375.363 77.4264 374.701 78.0882 373.886 78.0882Z" fill="#E0E0E0"/>
<path d="M392.671 78.0884H383.135C382.319 78.0884 381.658 77.4266 381.658 76.6116V53.2902C381.658 52.4743 382.32 51.8135 383.135 51.8135H392.671C393.487 51.8135 394.148 52.4752 394.148 53.2902V76.6116C394.148 77.4266 393.487 78.0884 392.671 78.0884Z" fill="#E0E0E0"/>
<path d="M412.894 78.4172H403.358C402.542 78.4172 401.881 77.7564 401.881 76.9405V41.9377C401.881 41.1218 402.542 40.4609 403.358 40.4609H412.894C413.71 40.4609 414.371 41.1218 414.371 41.9377V76.9405C414.371 77.7554 413.71 78.4172 412.894 78.4172Z" fill="#E0E0E0"/>
<path d="M448.002 257.934C445.735 261.386 444.21 265.179 443.398 269.092L437.168 269.678L437.167 281.744L443.398 282.331C444.209 286.242 445.735 290.034 448.002 293.488L444.022 298.295L452.555 306.827L457.361 302.848C460.815 305.115 464.607 306.64 468.518 307.452L469.104 313.683L481.17 313.682L481.757 307.453C485.668 306.64 489.461 305.115 492.915 302.849L497.721 306.828L506.253 298.296L502.274 293.488C504.541 290.035 506.066 286.243 506.878 282.332L513.109 281.745L513.11 269.679L506.879 269.092C506.067 265.18 504.541 261.388 502.274 257.936L506.253 253.129L497.721 244.597L492.915 248.576C489.461 246.309 485.668 244.783 481.758 243.971L481.171 237.741L469.105 237.742L468.519 243.972C464.607 244.784 460.815 246.309 457.362 248.576L452.555 244.596L444.022 253.129L448.002 257.934ZM486.689 264.161C493.067 270.54 493.068 280.883 486.689 287.262C480.309 293.641 469.966 293.641 463.588 287.262C457.21 280.883 457.21 270.541 463.588 264.161C469.967 257.782 480.31 257.782 486.689 264.161Z" fill="#E0E0E0"/>
<path d="M522.705 286.49C521.635 288.119 520.915 289.909 520.533 291.755L517.592 292.031V297.725L520.533 298.002C520.915 299.848 521.635 301.637 522.705 303.267L520.827 305.535L524.853 309.562L527.121 307.684C528.751 308.754 530.54 309.474 532.385 309.857L532.662 312.797H538.356L538.633 309.858C540.479 309.474 542.268 308.755 543.898 307.685L546.166 309.562L550.192 305.536L548.315 303.268C549.385 301.639 550.104 299.849 550.488 298.003L553.427 297.726V292.032L550.487 291.755C550.103 289.91 549.383 288.12 548.313 286.491L550.191 284.223L546.165 280.197L543.896 282.074C542.266 281.004 540.478 280.284 538.631 279.901L538.354 276.96H532.66L532.383 279.901C530.538 280.284 528.748 281.003 527.119 282.073L524.851 280.195L520.825 284.221L522.705 286.49ZM540.96 289.429C543.97 292.438 543.97 297.319 540.96 300.329C537.95 303.339 533.069 303.339 530.06 300.329C527.05 297.319 527.05 292.439 530.06 289.429C533.069 286.42 537.95 286.419 540.96 289.429Z" fill="#E0E0E0"/>
<path d="M472.077 199.848C471.007 201.477 470.287 203.266 469.904 205.113L466.964 205.389V211.082L469.904 211.36C470.287 213.205 471.007 214.995 472.077 216.625L470.198 218.893L474.224 222.919L476.493 221.042C478.122 222.111 479.911 222.832 481.758 223.214L482.034 226.154H487.728L488.005 223.215C489.851 222.832 491.64 222.112 493.27 221.043L495.538 222.92L499.564 218.894L497.687 216.626C498.757 214.996 499.477 213.207 499.859 211.361L502.799 211.083V205.39L499.858 205.113C499.475 203.267 498.755 201.478 497.685 199.849L499.562 197.58L495.536 193.554L493.268 195.431C491.638 194.362 489.849 193.642 488.003 193.258L487.726 190.318H482.032L481.756 193.258C479.91 193.642 478.121 194.361 476.492 195.431L474.224 193.552L470.197 197.578L472.077 199.848ZM490.331 202.786C493.341 205.796 493.341 210.676 490.331 213.686C487.321 216.696 482.441 216.696 479.431 213.686C476.421 210.676 476.421 205.796 479.431 202.786C482.441 199.776 487.321 199.776 490.331 202.786Z" fill="#F5F5F5"/>
<path d="M518.501 220.75C516.492 223.809 515.142 227.169 514.422 230.635L508.902 231.154V241.844L514.422 242.364C515.142 245.829 516.492 249.188 518.501 252.248L514.975 256.506L522.534 264.065L526.792 260.54C529.852 262.548 533.211 263.899 536.676 264.618L537.196 270.139L547.886 270.138L548.405 264.619C551.871 263.899 555.231 262.548 558.29 260.54L562.549 264.065L570.107 256.506L566.582 252.248C568.59 249.188 569.942 245.829 570.661 242.364L576.179 241.844L576.18 231.154L570.661 230.635C569.941 227.17 568.59 223.81 566.581 220.751L570.106 216.493L562.548 208.935L558.289 212.46C555.23 210.451 551.87 209.099 548.405 208.38L547.886 202.86L537.196 202.861L536.676 208.381C533.211 209.101 529.852 210.451 526.792 212.46L522.534 208.934L514.975 216.492L518.501 220.75ZM552.774 226.267C558.424 231.919 558.424 241.081 552.774 246.732C547.122 252.383 537.959 252.383 532.309 246.732C526.658 241.081 526.658 231.919 532.309 226.267C537.96 220.617 547.122 220.616 552.774 226.267Z" fill="#F5F5F5"/>
<path d="M137.495 71.6616C135.74 74.333 134.56 77.2687 133.931 80.2964L129.109 80.7504L129.108 90.0884L133.93 90.5424C134.558 93.5692 135.739 96.5048 137.494 99.1772L134.413 102.897L141.017 109.5L144.736 106.421C147.409 108.176 150.343 109.356 153.371 109.983L153.825 114.806L163.163 114.805L163.617 109.983C166.645 109.355 169.58 108.175 172.252 106.42L175.972 109.499L182.575 102.896L179.496 99.1763C181.25 96.5039 182.43 93.5692 183.058 90.5415L187.88 90.0874L187.88 80.7495L183.058 80.2945C182.429 77.2677 181.249 74.333 179.495 71.6606L182.574 67.9401L175.971 61.3375L172.251 64.417C169.578 62.662 166.643 61.4814 163.616 60.8534L163.162 56.0312H153.824L153.37 60.8534C150.343 61.4823 147.408 62.662 144.736 64.417L141.016 61.3375L134.412 67.941L137.495 71.6616ZM167.435 76.4809C172.37 81.4178 172.37 89.4219 167.435 94.3588C162.498 99.2957 154.493 99.2957 149.557 94.3588C144.62 89.4219 144.62 81.4178 149.557 76.4809C154.494 71.545 162.498 71.5441 167.435 76.4809Z" fill="#F5F5F5"/>
<path d="M633.31 298.148H463.409C460.371 298.148 457.898 295.676 457.898 292.638V45.1602C457.898 42.1221 460.371 39.6499 463.409 39.6499H633.31C636.348 39.6499 638.82 42.1212 638.82 45.1602V292.637C638.82 295.676 636.348 298.148 633.31 298.148ZM463.409 39.8858C460.499 39.8858 458.133 42.2518 458.133 45.1611V292.638C458.133 295.547 460.5 297.913 463.409 297.913H633.31C636.219 297.913 638.585 295.546 638.585 292.638V45.1602C638.585 42.2518 636.218 39.8849 633.31 39.8849L463.409 39.8858Z" fill="#E0E0E0"/>
<path d="M437.388 298.148H267.486C264.448 298.148 261.976 295.676 261.976 292.638V45.1602C261.976 42.1221 264.447 39.6499 267.486 39.6499H437.389C440.427 39.6499 442.899 42.1212 442.899 45.1602V292.637C442.898 295.676 440.426 298.148 437.388 298.148ZM267.486 39.8858C264.578 39.8858 262.211 42.2518 262.211 45.1611V292.638C262.211 295.547 264.578 297.913 267.486 297.913H437.389C440.298 297.913 442.664 295.546 442.664 292.638V45.1602C442.664 42.2518 440.297 39.8849 437.389 39.8849L267.486 39.8858Z" fill="#E0E0E0"/>
<path d="M241.591 298.148H71.69C68.6519 298.148 66.1797 295.676 66.1797 292.638V45.1602C66.1797 42.1221 68.6509 39.6499 71.69 39.6499H241.591C244.629 39.6499 247.101 42.1212 247.101 45.1602V292.637C247.102 295.676 244.63 298.148 241.591 298.148ZM71.69 39.8858C68.7816 39.8858 66.4147 42.2518 66.4147 45.1611V292.638C66.4147 295.547 68.7816 297.913 71.69 297.913H241.591C244.501 297.913 246.866 295.546 246.866 292.638V45.1602C246.866 42.2518 244.5 39.8849 241.591 39.8849L71.69 39.8858Z" fill="#E0E0E0"/>
<path d="M705 355.554H0V355.667H705V355.554Z" fill="#E0E0E0"/>
<path d="M666.793 383.167H614.408V383.563H666.793V383.167Z" fill="#EBEBEB"/>
<path d="M479.091 387.458H465.341V387.854H479.091V387.458Z" fill="#EBEBEB"/>
<path d="M106.52 371.137H38.2061V371.533H106.52V371.137Z" fill="#EBEBEB"/>
<path d="M130.617 371.137H120.601V371.533H130.617V371.137Z" fill="#EBEBEB"/>
<path d="M311.327 377.815H163.17V378.211H311.327V377.815Z" fill="#EBEBEB"/>
<path d="M591.616 433C591.616 436.184 484.561 438.764 352.5 438.764C220.439 438.764 113.384 436.183 113.384 433C113.384 429.817 220.439 427.236 352.5 427.236C484.561 427.236 591.616 429.817 591.616 433Z" fill="#F5F5F5"/>
<path opacity="0.2" d="M169.709 182.542H70.841C68.7147 182.542 66.9917 180.819 66.9917 178.693V123.146C66.9917 121.02 68.7147 119.296 70.841 119.296H169.709C171.835 119.296 173.559 121.019 173.559 123.146V178.693C173.559 180.819 171.836 182.542 169.709 182.542Z" fill="#4F694D"/>
<path d="M83.0142 154.427C83.4766 154.01 95.9495 141.695 95.9495 141.695L108.251 147.75L120.276 133.602L132.578 151.329L144.576 143.499" stroke="#263238" stroke-width="0.5" stroke-miterlimit="10"/>
<path d="M86.867 159.971H81.1001V172.75H86.867V159.971Z" fill="#4F694D"/>
<path d="M98.741 151.526H92.9741V172.75H98.741V151.526Z" fill="#407BFF"/>
<path d="M110.843 153.661H105.075V172.751H110.843V153.661Z" fill="#4F694D"/>
<path d="M123.159 141.695H117.392V172.75H123.159V141.695Z" fill="#407BFF"/>
<path d="M135.608 158.162H129.84V172.749H135.608V158.162Z" fill="#4F694D"/>
<path d="M87.0822 152.98C87.0822 154.691 85.6948 156.078 83.984 156.078C82.2722 156.078 80.8857 154.69 80.8857 152.98C80.8857 151.268 82.2732 149.881 83.984 149.881C85.6948 149.88 87.0822 151.268 87.0822 152.98Z" fill="#4F694D"/>
<path d="M98.9562 141.695C98.9562 143.406 97.5688 144.793 95.858 144.793C94.1472 144.793 92.7598 143.406 92.7598 141.695C92.7598 139.983 94.1472 138.597 95.858 138.597C97.5688 138.597 98.9562 139.984 98.9562 141.695Z" fill="#4F694D"/>
<path d="M111.349 146.782C111.349 148.494 109.962 149.88 108.251 149.88C106.539 149.88 105.153 148.493 105.153 146.782C105.153 145.071 106.54 143.684 108.251 143.684C109.963 143.684 111.349 145.071 111.349 146.782Z" fill="#4F694D"/>
<path d="M123.374 133.602C123.374 135.313 121.986 136.7 120.275 136.7C118.565 136.7 117.177 135.313 117.177 133.602C117.177 131.89 118.565 130.504 120.275 130.504C121.986 130.503 123.374 131.89 123.374 133.602Z" fill="#4F694D"/>
<path d="M135.675 151.328C135.675 153.039 134.288 154.426 132.577 154.426C130.865 154.426 129.479 153.039 129.479 151.328C129.479 149.616 130.866 148.229 132.577 148.229C134.288 148.229 135.675 149.617 135.675 151.328Z" fill="#4F694D"/>
<path d="M147.935 150.849H142.167V172.751H147.935V150.849Z" fill="#407BFF"/>
<path d="M98.741 151.526H92.9741V172.75H98.741V151.526Z" fill="#3B5539"/>
<path d="M123.159 141.695H117.392V172.75H123.159V141.695Z" fill="#3B5539"/>
<path d="M147.935 150.849H142.167V172.751H147.935V150.849Z" fill="#3B5539"/>
<path d="M160.693 158.162H154.926V172.749H160.693V158.162Z" fill="#4F694D"/>
<path d="M144.575 143.499L157.81 150.848" stroke="#263238" stroke-width="0.5" stroke-miterlimit="10"/>
<path d="M148.364 143.499C148.364 145.209 146.977 146.597 145.266 146.597C143.555 146.597 142.168 145.209 142.168 143.499C142.168 141.787 143.555 140.4 145.266 140.4C146.977 140.4 148.364 141.788 148.364 143.499Z" fill="#4F694D"/>
<path d="M157.81 153.946C159.521 153.946 160.908 152.559 160.908 150.848C160.908 149.137 159.521 147.75 157.81 147.75C156.099 147.75 154.711 149.137 154.711 150.848C154.711 152.559 156.099 153.946 157.81 153.946Z" fill="#4F694D"/>
<path d="M612.571 396.563C642.211 396.563 666.239 372.535 666.239 342.895C666.239 313.255 642.211 289.227 612.571 289.227C582.93 289.227 558.902 313.255 558.902 342.895C558.902 372.535 582.93 396.563 612.571 396.563Z" fill="white" stroke="#263238" stroke-miterlimit="10"/>
<path d="M639.512 333.098H586.4V370.605H639.512V333.098Z" fill="#4F694D"/>
<path opacity="0.3" d="M611.551 333.098H586.4V370.605H611.551V333.098Z" fill="black"/>
<path d="M586.4 333.098L577.753 347.621H602.728L611.552 333.098H586.4Z" fill="#4F694D"/>
<path d="M611.552 333.098L620.844 347.621H647.389L639.512 333.098H611.552Z" fill="#407BFF"/>
<path d="M611.552 333.098L620.844 347.621H647.389L639.512 333.098H611.552Z" fill="#374A36"/>
<path d="M603.523 324.024C601.37 321.002 599.218 317.979 597.065 314.957C596.804 314.591 596.193 314.942 596.456 315.312C598.609 318.335 600.761 321.358 602.914 324.38C603.175 324.746 603.786 324.395 603.523 324.024Z" fill="#263238"/>
<path d="M612.373 323.761C612.288 318.834 612.205 313.906 612.12 308.979C612.113 308.526 611.408 308.524 611.415 308.979C611.5 313.906 611.583 318.834 611.668 323.761C611.676 324.214 612.381 324.216 612.373 323.761Z" fill="#263238"/>
<path d="M621.227 324.069C622.808 321.253 624.389 318.439 625.97 315.624C626.193 315.228 625.584 314.872 625.361 315.268C623.78 318.083 622.199 320.898 620.618 323.712C620.396 324.109 621.004 324.464 621.227 324.069Z" fill="#263238"/>
<path d="M626.904 313.249C626.885 313.229 626.865 313.21 626.845 313.19C626.813 313.156 626.776 313.132 626.731 313.117C626.689 313.095 626.644 313.085 626.595 313.087C626.546 313.085 626.501 313.095 626.46 313.117C626.417 313.131 626.378 313.155 626.346 313.19C626.327 313.214 626.309 313.238 626.291 313.261C626.259 313.317 626.243 313.376 626.243 313.439C626.247 313.47 626.251 313.501 626.255 313.533C626.272 313.593 626.302 313.645 626.345 313.688C626.365 313.708 626.385 313.728 626.404 313.747C626.436 313.782 626.474 313.806 626.518 313.821C626.56 313.842 626.606 313.853 626.653 313.851C626.702 313.853 626.747 313.842 626.789 313.821C626.833 313.807 626.871 313.782 626.903 313.747C626.92 313.724 626.939 313.7 626.958 313.676C626.99 313.621 627.006 313.561 627.006 313.498C627.002 313.467 626.998 313.436 626.994 313.404C626.979 313.345 626.949 313.293 626.904 313.249Z" fill="#263238"/>
<path d="M512.51 217.254L508.421 188.89C525.966 186.361 541.091 175.367 548.885 159.481C561.88 132.992 550.902 100.869 524.413 87.8747C497.923 74.8792 465.801 85.8575 452.806 112.347C447.181 123.812 445.84 136.924 449.029 149.267L421.283 156.436C416.385 137.47 418.443 117.331 427.079 99.7253C447.034 59.0506 496.359 42.1926 537.035 62.1469C577.71 82.1013 594.567 131.427 574.612 172.102C562.646 196.495 539.43 213.373 512.51 217.254Z" fill="#4F694D"/>
<path d="M510.209 175.984L520.749 225.616C521.229 227.876 518.893 229.694 516.82 228.674L480.005 210.556C478.397 209.765 477.954 207.677 479.102 206.301L505.377 174.785C506.855 173.012 509.729 173.724 510.209 175.984Z" fill="#3B5539"/>
<path d="M513.366 163.317C531.027 158.362 541.327 140.029 536.373 122.368C531.418 104.708 513.085 94.4072 495.424 99.3617C477.764 104.316 467.463 122.649 472.418 140.31C477.372 157.971 495.705 168.271 513.366 163.317Z" fill="#4F694D"/>
<path d="M523.356 155.491C537.709 144.069 540.085 123.174 528.663 108.821C517.241 94.4671 496.346 92.0909 481.992 103.513C467.639 114.935 465.262 135.831 476.685 150.184C488.107 164.537 509.002 166.914 523.356 155.491Z" fill="#3B5539"/>
<path d="M526.325 143.699C534.151 130.624 529.897 113.68 516.822 105.853C503.746 98.0259 486.802 102.281 478.975 115.356C471.149 128.431 475.403 145.375 488.478 153.202C501.553 161.029 518.498 156.774 526.325 143.699Z" fill="white"/>
<path d="M489.423 149.103L493.088 143.673C493.195 143.745 493.303 143.817 493.412 143.886L489.881 149.404C489.727 149.306 489.574 149.206 489.423 149.103ZM482.106 141.185C482.016 141.025 481.926 140.864 481.84 140.702L487.619 137.617C487.68 137.73 487.742 137.843 487.805 137.955L482.106 141.185ZM500.035 153.017L500.754 146.505L501.161 146.547L500.563 153.07C500.386 153.054 500.21 153.036 500.035 153.017ZM479.039 130.3C479.033 130.118 479.029 129.937 479.026 129.755L485.578 129.69L485.586 130.085L479.039 130.3ZM511.245 151.548L508.86 145.447L509.229 145.299L511.84 151.308L511.684 151.373C511.579 151.416 511.412 151.482 511.245 151.548ZM481.385 119.243C481.464 119.079 481.546 118.915 481.627 118.754L487.463 121.732C487.404 121.847 487.346 121.965 487.29 122.081L481.385 119.243ZM515.597 140.694C515.678 140.601 515.758 140.506 515.837 140.411L520.896 144.574C520.776 144.72 520.655 144.863 520.531 145.005L515.597 140.694ZM492.492 115.797L488.605 110.525L489.031 110.217L492.826 115.557L492.492 115.797ZM519.301 133.421L519.387 133.031L525.794 134.401C525.757 134.576 525.718 134.751 525.677 134.925L519.301 133.421ZM500.043 112.64L499.032 106.167C499.206 106.14 499.381 106.114 499.555 106.091L500.449 112.58L500.043 112.64ZM519.209 125.249C519.177 125.126 519.144 125.004 519.109 124.881L525.408 123.081C525.459 123.26 525.507 123.439 525.554 123.617L519.209 125.249ZM508.184 113.357L510.299 107.157C510.477 107.218 510.653 107.28 510.829 107.346L508.538 113.484C508.42 113.439 508.303 113.397 508.184 113.357ZM515.332 118.054L515.066 117.768L519.82 113.259C519.945 113.392 520.069 113.524 520.19 113.659L515.332 118.054Z" fill="black"/>
<path d="M495.722 119.268L502.307 130.598L512.962 120.233" stroke="black" stroke-miterlimit="10" stroke-linecap="round" stroke-linejoin="round"/>
<path d="M504.229 131.111C503.479 131.966 502.177 132.052 501.322 131.302C500.467 130.552 500.381 129.25 501.131 128.394C501.881 127.539 503.183 127.453 504.039 128.203C504.894 128.954 504.98 130.256 504.229 131.111Z" fill="black"/>
<path opacity="0.3" d="M484.252 111.764C495.187 101.149 512.655 101.409 523.269 112.344C525.878 115.03 527.821 118.114 529.119 121.391C527.888 117.286 525.699 113.402 522.508 110.115C511.893 99.1809 494.424 98.9205 483.489 109.535C475.242 117.541 473.075 129.445 477.06 139.505C474.198 129.957 476.606 119.187 484.252 111.764Z" fill="black"/>
<path d="M225.826 326.642C201.859 300.062 188.661 265.697 188.661 229.88C188.661 164.258 232.932 106.773 296.32 90.0874L285.669 103.46L304.332 120.524C254.757 133.573 220.134 178.541 220.134 229.88C220.134 257.898 230.456 284.777 249.2 305.566L225.826 326.642Z" fill="#3B5539"/>
<path d="M228.933 328.443C230.1 328.152 268.627 328.443 268.627 328.443L249.2 305.566L225.826 326.642L228.933 328.443Z" fill="#3B5539"/>
<path d="M513.364 379.656V328.917C513.364 326.607 516.027 325.314 517.842 326.742L550.091 352.111C551.499 353.22 551.499 355.354 550.091 356.462L517.842 381.831C516.027 383.26 513.364 381.967 513.364 379.656Z" fill="#4F694D"/>
<path d="M518.595 339.204H339.348V369.369H518.595V339.204Z" fill="#4F694D"/>
<path d="M331.68 85.4194V116.339C392.93 116.339 442.762 166.17 442.762 227.421C442.762 288.671 392.93 338.502 331.68 338.502H133.231V369.422H331.68C409.979 369.422 473.68 305.721 473.68 227.421C473.68 149.12 409.979 85.4194 331.68 85.4194Z" fill="#4F694D"/>
<path d="M337.689 75.6123L337.586 126.352C337.581 128.661 334.916 129.95 333.103 128.517L300.905 103.083C299.499 101.972 299.504 99.838 300.914 98.7325L333.213 73.4277C335.033 72.0036 337.693 73.3027 337.689 75.6123Z" fill="#3B5539"/>
<path opacity="0.3" d="M337.663 339.39C338.278 339.39 325.068 347.757 316.141 347.684L315.298 370.257H309.391L298.099 340.093L337.663 339.39Z" fill="black"/>
<path d="M326.768 183.215C330.911 189.757 332.433 193.716 333.079 200.144C333.833 207.656 333.801 214.321 332.21 216.329C330.123 218.963 306.397 222.445 293.016 222.523C292.531 222.526 291.933 218.305 291.933 218.305C291.933 218.305 290.231 222.534 289.602 222.535C285.95 222.539 283.607 222.512 283.607 222.512C283.607 222.512 286.34 216.153 289.004 193.547C290.305 182.506 301.122 177.621 307.577 176.495C318.336 174.621 326.768 183.215 326.768 183.215Z" fill="#263238"/>
<path d="M295.987 205.851C292.21 199.967 287.986 183.836 302.319 178.134C320.211 171.016 328.892 182.236 330.989 193.655C333.086 205.073 327.009 214.059 314.954 213.745C302.897 213.431 298.599 209.92 295.987 205.851Z" fill="#263238"/>
<path d="M325.906 227.546C325.906 227.546 321.881 230.642 316.697 235.108C315.618 236.038 314.429 236.843 313.17 237.511C309.774 239.315 306.679 240.347 305.84 238.71C305.654 238.35 305.51 237.959 305.404 237.551C304.693 234.809 304.984 230.955 307.201 229.19C309.699 227.201 310.904 225.5 310.454 222.808C310.217 221.281 309.665 219.706 309.019 218.175L310.986 215.876L321.27 205.497C321.014 212.426 320.488 223.783 325.906 227.546Z" fill="#EBB373"/>
<path opacity="0.2" d="M310.538 223.398C313.366 221.719 316.47 218.806 316.098 215.479C315.932 214.078 315.63 212.751 315.294 211.9L309.549 219.506C310.021 220.732 310.193 221.542 310.538 223.398Z" fill="black"/>
<path d="M324.183 194.36C323.214 204.928 323.028 209.409 317.574 214.95C309.372 223.284 296.753 220.481 294.581 210.007C292.626 200.579 294.537 184.882 304.912 180.442C315.131 176.066 325.15 183.794 324.183 194.36Z" fill="#EBB373"/>
<path d="M310.933 198.189C310.874 199.253 310.22 200.129 309.472 200.144C308.725 200.16 308.167 199.31 308.226 198.245C308.285 197.181 308.939 196.305 309.687 196.29C310.434 196.274 310.991 197.125 310.933 198.189Z" fill="#263238"/>
<path d="M299.948 197.996C299.889 199.012 299.246 199.848 298.511 199.864C297.777 199.879 297.229 199.069 297.289 198.053C297.348 197.036 297.991 196.201 298.725 196.185C299.459 196.169 300.006 196.98 299.948 197.996Z" fill="#263238"/>
<path d="M312.427 194.287C312.282 194.316 312.132 194.291 312.011 194.205C310.135 192.867 308.19 193.581 308.167 193.59C307.879 193.696 307.57 193.571 307.482 193.3C307.394 193.03 307.56 192.722 307.851 192.611C307.953 192.573 310.394 191.674 312.722 193.336C312.955 193.501 312.984 193.831 312.787 194.071C312.692 194.186 312.563 194.261 312.427 194.287Z" fill="#263238"/>
<path d="M296.209 192.864C296.093 192.81 296 192.714 295.957 192.588C295.867 192.329 296.021 192.042 296.301 191.947C299.103 190.997 301.028 192.357 301.11 192.416C301.338 192.582 301.373 192.895 301.187 193.115C301.002 193.336 300.668 193.381 300.439 193.218C300.365 193.163 298.855 192.13 296.627 192.886C296.482 192.935 296.333 192.923 296.209 192.864Z" fill="#263238"/>
<path d="M315.353 184.965C311.992 188.496 313.663 201.831 323.101 203.573C333.973 201.015 325.387 174.428 315.353 184.965Z" fill="#263238"/>
<path d="M302.733 207.866C303.593 209.19 304.628 211.756 304.628 211.756C304.877 211.704 305.127 211.652 305.372 211.587C308.737 210.8 310.038 209.323 310.459 207.925C310.686 207.159 310.642 206.41 310.527 205.818C310.402 205.13 310.156 204.669 310.156 204.669C308.622 206.152 305.543 207.127 303.876 207.58C303.179 207.776 302.733 207.866 302.733 207.866Z" fill="#263238"/>
<path d="M303.876 207.579L304.464 208.712C307.631 207.963 309.76 207.01 310.527 205.818C310.402 205.13 310.156 204.669 310.156 204.669C308.622 206.151 305.543 207.127 303.876 207.579Z" fill="white"/>
<path d="M305.373 211.588C308.737 210.8 310.038 209.323 310.459 207.925C309.323 208.238 307.988 208.741 306.896 209.54C306.06 210.147 305.617 210.886 305.373 211.588Z" fill="#DC5753"/>
<path d="M302.91 197.253C302.91 197.253 300.919 202.016 298.842 204.348C300.194 205.654 302.606 204.967 302.606 204.967L302.91 197.253Z" fill="#E4873E"/>
<path d="M307.578 195.788L310.003 196.361C308.904 197.597 307.578 195.788 307.578 195.788Z" fill="#263238"/>
<path d="M296.739 195.682L299.164 196.254C298.066 197.49 296.739 195.682 296.739 195.682Z" fill="#263238"/>
<path d="M304.984 178.175C300.812 179.591 296.378 186.813 295.64 189.592C301.574 190.564 317.57 185.004 317.57 185.004C317.57 185.004 328.244 187.952 322.837 182.541C317.431 177.128 304.984 178.175 304.984 178.175Z" fill="#263238"/>
<path d="M327.379 202.972C326.131 205.139 324.104 206.5 322.243 206.966C319.446 207.668 318.002 203.171 318.956 200.369C319.815 197.846 322.564 196.176 325.286 196.726C327.969 197.268 328.806 200.494 327.379 202.972Z" fill="#EBB373"/>
<path d="M290.518 191.517C289.923 196.169 289.319 200.862 287.75 205.282C286.182 209.702 282.925 218.818 279.025 221.422" stroke="#263238" stroke-width="0.5" stroke-miterlimit="10"/>
<path d="M323.365 208.66C324.453 208.66 325.335 207.778 325.335 206.69C325.335 205.602 324.453 204.72 323.365 204.72C322.277 204.72 321.395 205.602 321.395 206.69C321.395 207.778 322.277 208.66 323.365 208.66Z" fill="#407BFF"/>
<path opacity="0.1" d="M325.167 199.959C324.234 199.695 323.186 199.884 322.404 200.455C321.622 201.026 321.123 201.967 321.09 202.935" stroke="black" stroke-width="0.5" stroke-miterlimit="10" stroke-linecap="round" stroke-linejoin="round"/>
<path d="M242.77 295.587C243.295 294.13 247.052 289.252 249.053 287.433C251.054 285.614 258.133 281.637 258.133 281.637L264.114 287.299C264.114 287.299 263.552 290.543 261.151 291.734C259.766 292.421 258.327 292.975 258.327 292.975C258.327 292.975 258.345 294.244 258.016 295.576C257.651 297.052 256.891 298.793 255.692 298.429C254.496 298.066 255.037 294.05 255.121 293.472C255.032 294.057 254.356 298.137 252.699 297.866C251.1 297.605 251.898 293.371 251.898 293.371C251.898 293.371 251.325 295.293 251.024 296.273C250.723 297.252 249.509 297.864 248.869 296.528C248.126 294.979 248.591 292.746 248.591 292.746C248.591 292.746 247.421 293.824 245.444 296.321C244.021 298.117 242.325 296.819 242.77 295.587Z" fill="#EBB373"/>
<path opacity="0.1" d="M254.983 294.231C255.137 293.472 255.292 292.707 255.583 291.99C255.875 291.273 256.314 290.596 256.942 290.143" stroke="black" stroke-width="0.5" stroke-miterlimit="10" stroke-linecap="round" stroke-linejoin="round"/>
<path opacity="0.1" d="M251.677 293.957C251.83 293.197 251.985 292.433 252.277 291.715C252.568 290.998 253.008 290.321 253.636 289.868" stroke="black" stroke-width="0.5" stroke-miterlimit="10" stroke-linecap="round" stroke-linejoin="round"/>
<path opacity="0.1" d="M248.588 292.88C248.742 292.12 248.896 291.356 249.188 290.639C249.479 289.921 249.919 289.245 250.547 288.792" stroke="black" stroke-width="0.5" stroke-miterlimit="10" stroke-linecap="round" stroke-linejoin="round"/>
<path d="M289.515 243.219C289.515 243.887 287.633 267.864 287.633 267.864C286.3 270.366 258.837 279.897 255.323 283.386L261.729 289.978C261.729 289.978 294.402 283.386 299.678 279.551C304.178 276.279 303.8 270.538 303.8 262.7C303.8 254.861 306.535 243.909 306.535 243.909L289.515 243.219Z" fill="#EBB373"/>
<path d="M301.952 229.052C288.998 231.267 287.22 250.443 287.22 250.443L285.251 265.67L277.904 271.031L284.773 285.705C284.773 285.705 299.441 280.121 305.89 276.305C312.339 272.487 312.507 243.234 312.507 243.234L301.952 229.052Z" fill="#3F543E"/>
<path opacity="0.2" d="M299.628 278.624C299.869 278.733 294.2 281.895 294.2 281.895C294.133 281.934 292.153 273.522 292.086 273.561C288.965 259.463 291.075 248.228 291.075 248.228C293.441 253.147 299.029 274.503 299.628 278.624Z" fill="black"/>
<path d="M302.475 295.975C313.271 294.897 327.316 294.035 345.593 293.623C345.593 293.623 359.22 325.719 343.061 335.308C338.177 338.205 330.119 339.351 321.249 339.54C310.958 339.759 302.476 331.512 302.476 321.218L302.475 295.975Z" fill="#263238"/>
<path d="M337.773 322.411V337.491C324.333 341.368 296.436 339.892 279.854 338.538C272.387 337.928 266.644 331.691 266.644 324.199V311.825C266.644 307.723 269.18 304.055 273.02 302.61C281.059 299.586 295.688 295.081 310.991 295.317C325.829 295.547 337.773 307.571 337.773 322.411Z" fill="#263238"/>
<path d="M348.027 293.623C345.938 290.867 341.102 284.276 340.489 277.339C340.488 277.32 340.487 277.3 340.486 277.28C340.448 276.835 340.426 276.389 340.425 275.942C340.315 272.993 340.333 269.5 340.527 265.309C340.554 264.655 340.593 263.961 340.632 263.268C340.75 261.068 340.92 258.699 341.13 256.121C341.523 251.5 342.086 246.225 342.845 240.23C343.015 238.843 344.322 236.691 344.518 235.225C345.395 228.693 339.441 223.973 333.014 224.235C331.299 224.301 329.48 224.418 327.634 224.602C320.422 225.282 314.505 225.898 308.236 227.39C306.154 227.874 304.008 228.463 301.953 229.053C294.57 231.173 291.167 240.624 291.075 248.229C290.984 255.316 295.955 269.783 299.359 282.489C299.86 289.777 295.879 293.747 297.078 296.288C298.276 298.829 333.508 291.925 348.026 300.582C348.026 300.582 350.255 296.564 348.027 293.623Z" fill="#407BFF"/>
<path d="M348.027 293.623C345.938 290.867 341.102 284.276 340.489 277.339C340.488 277.32 340.487 277.3 340.486 277.28C340.448 276.835 340.426 276.389 340.425 275.942C340.315 272.993 340.333 269.5 340.527 265.309C340.554 264.655 340.593 263.961 340.632 263.268C340.75 261.068 340.92 258.699 341.13 256.121C341.523 251.5 342.086 246.225 342.845 240.23C343.015 238.843 344.322 236.691 344.518 235.225C345.395 228.693 339.441 223.973 333.014 224.235C331.299 224.301 329.48 224.418 327.634 224.602C320.422 225.282 314.505 225.898 308.236 227.39C306.154 227.874 304.008 228.463 301.953 229.053C294.57 231.173 291.167 240.624 291.075 248.229C290.984 255.316 295.955 269.783 299.359 282.489C299.86 289.777 295.879 293.747 297.078 296.288C298.276 298.829 333.508 291.925 348.026 300.582C348.026 300.582 350.255 296.564 348.027 293.623Z" fill="#4F694D"/>
<path opacity="0.2" d="M342.415 284.414C342.415 284.414 329.982 287.145 324.196 287.408C318.41 287.671 305.891 291.615 305.891 291.615L301.438 294.377L299.87 290.703L307.365 283.925L340.268 277.256C340.669 280.005 342.18 283.86 342.415 284.414Z" fill="black"/>
<path opacity="0.2" d="M328.176 243.463L326.605 264.72L319.557 271.628L324.489 275.464L331.198 271.417L334.669 259.464L328.176 243.463Z" fill="black"/>
<path d="M275.01 437.513L291.51 430.233L296.728 424.407L298.344 426.601L300.316 425.741C301.235 418.418 297.677 414.993 295.809 413.437C295.675 413.318 295.483 413.185 295.261 413.007C295.186 412.948 295.112 412.889 295.038 412.843C295.008 412.828 294.979 412.799 294.95 412.784C294.875 412.725 294.786 412.666 294.698 412.591C294.684 412.576 294.669 412.576 294.638 412.562V412.547C294.594 412.517 294.55 412.488 294.49 412.458L285.432 416.461C285.432 416.461 285.284 416.935 285.002 417.706C284.098 420.255 281.86 426.067 279.384 429.166C279.28 429.299 279.176 429.433 279.072 429.551C278.776 429.906 278.464 430.218 278.153 430.47C271.215 436.044 275.01 437.513 275.01 437.513Z" fill="#263238"/>
<path d="M279.037 429.508C281.617 430.515 285.264 427.966 288.036 424.63C289.592 422.747 291.09 419.737 292.409 417.307C293.269 415.735 294.055 414.401 294.736 413.764C295.121 413.422 295.478 413.274 295.789 413.422C295.789 413.422 295.774 413.407 295.774 413.392C295.64 413.274 295.448 413.14 295.226 412.963C295.167 412.918 295.092 412.858 295.003 412.799C294.973 412.784 294.944 412.755 294.915 412.74C294.84 412.681 294.751 412.622 294.663 412.547C294.649 412.532 294.633 412.532 294.604 412.518V412.503C294.559 412.473 294.515 412.444 294.456 412.415C293.507 411.703 292.455 410.977 292.455 410.977L283.934 413.109L284.597 416.372C283.649 419.737 281.647 426.142 279.349 429.121C279.244 429.256 279.141 429.389 279.037 429.508Z" fill="#EBB373"/>
<path d="M265.165 366.057C270.426 379.122 278.593 395.769 284.622 416.645C284.739 417.024 284.844 417.405 284.95 417.785C285.067 418.191 285.186 418.584 285.303 418.99L291.528 417.47L291.8 416.387C291.8 416.387 293.951 414.717 293.585 414.338C293.347 414.092 293.507 413.63 293.467 413.237V413.224C291.79 398.665 285.329 345.225 278.921 334.126C278.921 334.126 286.181 335.476 291.685 334.545C295.655 333.877 300.464 306.423 300.464 306.423C300.464 306.423 290.348 303.514 279.97 303.514H279.826C279.826 303.514 259.425 309.548 254.238 314.119C249.363 318.414 248.633 325.451 251.336 333.816C253.814 341.488 258.647 349.869 265.165 366.057Z" fill="#EBB373"/>
<path opacity="0.1" d="M259.336 320.722C260.543 315.975 269.284 311.332 278.313 308.843C279.78 306.943 276.028 304.698 276.028 304.698L293.802 303.09L296.904 305.322L302.207 306.427L297.482 327.663L278.065 331.063L290.348 388.063L291.799 399.325C291.799 399.325 270.995 354.669 266.643 345.173C262.292 335.678 257.242 328.953 259.336 320.722Z" fill="black"/>
<path d="M300.467 306.428C300.467 306.428 272.731 312.304 267.313 316.583C262.698 320.228 262.573 324.986 264.069 329.478C268.203 341.898 283.034 362.607 300.011 422.045L309.739 418.99C308.807 418.989 306.362 387.957 305.64 363.032C305.3 351.274 299.271 341.136 296.911 337.042C296.911 337.042 306.825 338.38 312.327 337.457C319.397 336.273 323.867 312.683 300.467 306.428Z" fill="#EBB373"/>
<path opacity="0.2" d="M297.483 338.157C297.483 338.157 293.802 332.053 289.214 329.479C289.214 329.479 294.861 329.848 298.39 337.22L296.91 337.043L297.483 338.157Z" fill="black"/>
<path d="M313.041 431.788L311.014 432.23L309.329 429.427C309.124 429.086 308.657 429.02 308.366 429.29L302.605 434.626L286.869 438.079C286.869 438.079 283.366 434.376 291.188 432.016C291.562 431.903 291.886 431.61 292.238 431.326C296.109 428.356 300.75 420.174 300.75 420.174L310.073 418.128C310.073 418.128 310.501 418.524 311.131 419.304C312.602 421.133 315.305 425.053 313.041 431.788Z" fill="#263238"/>
<path d="M311.132 419.305C311.135 419.319 311.139 419.333 311.139 419.333C309.607 418.231 305.327 425.487 301.674 428.44C298.41 431.069 294.47 432.779 292.238 431.326C296.109 428.356 300.956 418.032 300.956 418.032L308.453 416.387C308.453 416.387 310.502 418.525 311.132 419.305Z" fill="#EBB373"/>
<path d="M282.56 310.447L309.909 300.043C310.517 299.812 310.369 298.835 309.724 298.828L265.834 298.302C265.728 298.301 265.623 298.331 265.532 298.391L248.655 309.32C248.152 309.645 248.365 310.483 248.95 310.483H282.369C282.435 310.483 282.499 310.471 282.56 310.447Z" fill="#263238"/>
<path opacity="0.7" d="M282.56 310.447L309.909 300.043C310.517 299.812 310.369 298.835 309.724 298.828L265.834 298.302C265.728 298.301 265.623 298.331 265.532 298.391L248.655 309.32C248.152 309.645 248.365 310.483 248.95 310.483H282.369C282.435 310.483 282.499 310.471 282.56 310.447Z" fill="white"/>
<path opacity="0.7" d="M282.659 307.347L300.294 300.845L279.635 300.414L282.659 307.347Z" fill="white"/>
<path opacity="0.3" d="M309.908 300.044L282.56 310.448C282.499 310.471 282.434 310.483 282.369 310.483H281.943L281.429 308.975L309.724 298.828C310.369 298.836 310.517 299.813 309.908 300.044Z" fill="black"/>
<path d="M246.861 310.483H282.467C283.082 310.479 283.576 310.076 283.571 309.583C283.57 309.489 283.551 309.397 283.514 309.31L267.675 272.996C267.274 271.959 266.082 271.25 264.729 271.245H229.101C228.498 271.245 228.01 271.637 228.01 272.121C228.01 272.222 228.032 272.323 228.075 272.418L243.915 308.732C244.322 309.766 245.511 310.473 246.861 310.483Z" fill="#263238"/>
<path opacity="0.7" d="M229.102 271.245H264.73C266.083 271.249 267.276 271.958 267.675 272.996L283.515 309.31C283.552 309.398 283.571 309.49 283.572 309.583C283.577 310.076 283.083 310.478 282.468 310.483H246.862C245.511 310.473 244.322 309.766 243.916 308.732L228.076 272.418C228.033 272.323 228.011 272.222 228.011 272.121C228.011 271.637 228.499 271.245 229.102 271.245Z" fill="white"/>
<path d="M251.168 291.672C251.938 293.415 253.497 294.612 254.66 294.368C255.823 294.125 256.133 292.536 255.387 290.789C254.639 289.041 253.062 287.872 251.899 288.116C250.737 288.359 250.389 289.884 251.168 291.672Z" fill="white"/>
<path opacity="0.3" d="M264.518 271.245H264.73C266.082 271.249 267.275 271.958 267.675 272.996L283.515 309.31C283.551 309.398 283.57 309.49 283.571 309.583C283.577 310.076 283.082 310.478 282.467 310.483H281.327L264.518 271.245Z" fill="black"/>
<path d="M328.863 241.455C328.863 242.122 331.004 265.873 331.004 265.873C329.671 268.375 302.209 277.906 298.694 281.396L305.1 287.987C305.1 287.987 337.773 281.396 343.049 277.56C347.549 274.288 347.171 268.548 347.171 260.709C347.171 252.87 345.457 241.455 345.457 241.455H328.863Z" fill="#EBB373"/>
<path d="M331.633 226.8C324.888 229.617 330.037 265.735 330.037 265.735L323.397 268.545L327.478 283.923C327.478 283.923 335.655 282.371 343.826 280.705C352.464 278.943 353.73 259.003 349.407 242.855C345.084 226.707 339.525 223.504 331.633 226.8Z" fill="#3F543E"/>
<path d="M287.226 298.69C287.377 297.148 289.821 291.498 291.315 289.244C292.807 286.989 298.694 281.396 298.694 281.396L305.881 285.415C305.881 285.415 306.133 288.697 304.098 290.442C302.924 291.448 301.666 292.339 301.666 292.339C301.666 292.339 301.995 293.565 302.002 294.936C302.011 296.456 301.702 298.331 300.451 298.272C299.201 298.214 298.74 294.188 298.68 293.607C298.738 294.196 299.085 298.317 297.412 298.461C295.798 298.6 295.532 294.3 295.532 294.3C295.532 294.3 295.447 296.304 295.396 297.328C295.345 298.351 294.318 299.242 293.37 298.104C292.27 296.784 292.172 294.506 292.172 294.506C292.172 294.506 291.302 295.839 289.999 298.743C289.061 300.835 287.098 299.992 287.226 298.69Z" fill="#EBB373"/>
<path opacity="0.1" d="M298.732 294.377C298.695 293.603 298.657 292.824 298.763 292.057C298.87 291.29 299.13 290.527 299.628 289.933" stroke="black" stroke-width="0.5" stroke-miterlimit="10" stroke-linecap="round" stroke-linejoin="round"/>
<path opacity="0.1" d="M295.461 294.921C295.424 294.148 295.385 293.368 295.492 292.601C295.598 291.834 295.859 291.071 296.356 290.477" stroke="black" stroke-width="0.5" stroke-miterlimit="10" stroke-linecap="round" stroke-linejoin="round"/>
<path opacity="0.1" d="M292.202 294.636C292.164 293.863 292.126 293.083 292.233 292.316C292.339 291.549 292.6 290.786 293.097 290.192" stroke="black" stroke-width="0.5" stroke-miterlimit="10" stroke-linecap="round" stroke-linejoin="round"/>
<path d="M100.574 396.563C130.214 396.563 154.242 372.535 154.242 342.895C154.242 313.255 130.214 289.227 100.574 289.227C70.9334 289.227 46.9053 313.255 46.9053 342.895C46.9053 372.535 70.9334 396.563 100.574 396.563Z" fill="white" stroke="#263238" stroke-miterlimit="10"/>
<path d="M110.742 377.195C110.742 380.7 105.868 383.511 99.9418 383.416C94.0151 383.321 89.2568 380.458 89.2991 376.953C89.3414 373.447 94.173 370.637 100.089 370.742C106.006 370.847 110.784 373.7 110.742 377.195Z" fill="#263238"/>
<path d="M115.374 365.636C115.956 365.085 116.305 364.332 116.352 363.531C116.352 360.099 109.12 357.215 100.109 357.13C91.0982 357.046 83.7606 359.73 83.7183 363.162C83.754 363.958 84.0886 364.709 84.6554 365.268C84.4853 365.594 84.3885 365.953 84.3716 366.321C84.3941 367.123 84.74 367.882 85.3294 368.426C85.1386 368.768 85.0333 369.151 85.0239 369.542C85.0474 370.351 85.4056 371.114 86.0137 371.648C85.8013 371.989 85.6847 372.382 85.6772 372.784C85.728 373.582 86.1096 374.323 86.73 374.827C86.5072 375.169 86.3841 375.566 86.3719 375.975C86.3719 378.827 92.3832 381.238 99.8778 381.302C107.373 381.365 113.468 379.196 113.499 376.28C113.497 375.87 113.381 375.469 113.163 375.122C113.78 374.625 114.162 373.891 114.216 373.101C114.212 372.702 114.107 372.311 113.91 371.964C114.52 371.451 114.899 370.715 114.963 369.921C114.96 369.528 114.862 369.142 114.679 368.795C115.288 368.278 115.667 367.539 115.732 366.742C115.698 366.351 115.576 365.973 115.374 365.636Z" fill="#263238"/>
<path opacity="0.3" d="M115.374 365.636C115.956 365.085 116.305 364.332 116.352 363.531C116.352 360.099 109.12 357.215 100.109 357.13C91.0982 357.046 83.7606 359.73 83.7183 363.162C83.754 363.958 84.0886 364.709 84.6554 365.268C84.4853 365.594 84.3885 365.953 84.3716 366.321C84.3941 367.123 84.74 367.882 85.3294 368.426C85.1386 368.768 85.0333 369.151 85.0239 369.542C85.0474 370.351 85.4056 371.114 86.0137 371.648C85.8013 371.989 85.6847 372.382 85.6772 372.784C85.728 373.582 86.1096 374.323 86.73 374.827C86.5072 375.169 86.3841 375.566 86.3719 375.975C86.3719 378.827 92.3832 381.238 99.8778 381.302C107.373 381.365 113.468 379.196 113.499 376.28C113.497 375.87 113.381 375.469 113.163 375.122C113.78 374.625 114.162 373.891 114.216 373.101C114.212 372.702 114.107 372.311 113.91 371.964C114.52 371.451 114.899 370.715 114.963 369.921C114.96 369.528 114.862 369.142 114.679 368.795C115.288 368.278 115.667 367.539 115.732 366.742C115.698 366.351 115.576 365.973 115.374 365.636Z" fill="white"/>
<path opacity="0.25" d="M128.89 335.319C129.077 319.373 116.303 306.294 100.356 306.107C84.4103 305.92 71.3311 318.695 71.1441 334.641C71.0426 343.294 74.827 351.537 81.4568 357.099C82.6769 358.105 83.3161 359.652 83.162 361.226C83.1563 361.303 83.1563 361.38 83.162 361.457C83.162 364.942 90.5306 367.858 99.6684 367.963C108.806 368.068 116.27 365.32 116.311 361.826C116.311 361.752 116.311 361.678 116.311 361.605C116.169 359.997 116.846 358.426 118.111 357.425C124.829 352.039 128.784 343.929 128.89 335.319Z" fill="#4F694D"/>
<path opacity="0.2" d="M115.312 318.55C115.312 324.171 108.733 328.741 100.575 328.741C92.4165 328.741 85.8374 324.172 85.8374 318.55C85.8374 312.929 92.4165 308.349 100.575 308.349C108.732 308.349 115.312 312.918 115.312 318.55Z" fill="white"/>
<path d="M78.0154 345.956C75.5028 341.647 74.5045 336.475 75.2321 331.541C75.9606 326.607 78.4111 321.944 82.0612 318.545" stroke="white" stroke-miterlimit="10" stroke-linecap="round" stroke-linejoin="round"/>
<path d="M86.6821 374.895C95.0171 378.404 104.644 378.519 113.061 375.215C104.77 378.809 94.8846 378.687 86.6821 374.895Z" fill="#263238"/>
<path d="M86.4858 371.795C94.8208 375.304 104.447 375.419 112.865 372.115C104.573 375.709 94.6883 375.588 86.4858 371.795Z" fill="#263238"/>
<path d="M86.2905 368.696C94.6255 372.204 104.252 372.32 112.67 369.016C104.377 372.611 94.493 372.49 86.2905 368.696Z" fill="#263238"/>
<path d="M93.7725 361.844C95.9872 354.305 96.3763 346.08 94.8855 338.312C94.6449 337.057 94.078 335.544 92.951 335.516C91.9433 335.49 91.2806 336.729 91.0635 337.852C90.2945 341.82 92.3522 345.851 94.9833 348.592C96.4083 350.076 98.1351 351.37 100.063 351.465C101.998 351.56 103.845 350.414 105.245 348.889C107.926 345.971 109.261 341.399 108.29 337.322C107.879 335.598 106.655 333.745 105.116 334.074C104.188 334.272 103.509 335.253 103.27 336.293C103.032 337.334 103.148 338.434 103.284 339.499C104.265 347.176 106.139 354.703 108.842 361.823" stroke="#263238" stroke-miterlimit="10"/>
<path d="M397.174 385.555C397.174 385.555 489.891 363.834 494.301 383.145C500.596 410.712 433.7 429.256 398.069 428.12C362.44 426.985 397.174 385.555 397.174 385.555Z" fill="#263238"/>
<path opacity="0.2" d="M397.174 385.555C397.174 385.555 489.891 363.834 494.301 383.145C500.596 410.712 433.7 429.256 398.069 428.12C362.44 426.985 397.174 385.555 397.174 385.555Z" fill="black"/>
<path opacity="0.7" d="M463.879 389.104L420.337 416.775L426.148 425.033C426.148 425.033 423.087 429.569 417.26 415.635L444.199 397.828C444.199 397.828 435.767 396.982 435.978 395.663C436.337 393.498 454.86 389.38 463.308 387.525C463.744 387.368 464.225 387.593 464.382 388.029C464.541 388.465 464.315 388.946 463.879 389.104Z" fill="black"/>
<path opacity="0.7" d="M418.759 413.657L426.312 425.895C416.997 427.522 407.538 428.267 398.07 428.119C394.958 428.101 391.875 427.541 388.971 426.471L386.317 421.618L392.031 410.126L418.759 413.657Z" fill="black"/>
<path d="M433.175 408.79L413.808 421.072L417.279 430.471L440.017 420.253L433.175 408.79Z" fill="#B97964"/>
<path d="M403.147 424.22L405.048 430.981C405.048 430.981 406.476 431.281 406.921 432.704C407.171 433.503 406.582 435.706 406.582 435.706L411.672 454.335C411.7 454.327 412.95 453.99 413.446 453.632C414.051 453.196 414.541 452.748 414.934 452.295C416.309 450.706 416.461 448.403 416.512 446.698C416.598 443.84 418.241 435.49 418.241 435.49C418.241 435.49 418.868 433.315 421.165 431.398C422.447 430.329 423.039 428.98 422.919 428.145C422.678 426.44 421.454 425.801 419.861 425.993L418.01 426.219C416.687 425.233 416.281 423.568 417.119 421.962C417.119 421.962 418.213 417.904 416.511 418.587C415.54 418.977 411.265 420.884 407.843 422.29C407.046 422.618 406.29 422.928 405.628 423.199V423.201C404.157 423.804 403.147 424.22 403.147 424.22Z" fill="#263238"/>
<path d="M417.526 439.942C417.578 439.837 417.55 439.707 417.463 439.626C417.063 439.258 416.57 438.994 416.011 438.878C415.717 438.816 415.583 439.288 415.88 439.35C416.376 439.454 416.811 439.684 417.161 440.005C417.277 440.112 417.452 440.085 417.523 439.945C417.525 439.944 417.526 439.943 417.526 439.942Z" fill="#407BFF"/>
<path d="M417.906 438.293C417.959 438.188 417.931 438.058 417.844 437.977C417.443 437.609 416.951 437.345 416.392 437.229C416.098 437.167 415.963 437.639 416.261 437.702C416.756 437.806 417.191 438.036 417.542 438.357C417.659 438.464 417.833 438.437 417.904 438.297C417.906 438.295 417.906 438.295 417.906 438.293Z" fill="#407BFF"/>
<path d="M418.222 436.614C418.275 436.51 418.247 436.379 418.159 436.298C417.76 435.931 417.266 435.666 416.708 435.55C416.414 435.489 416.279 435.961 416.576 436.024C417.073 436.127 417.507 436.357 417.858 436.678C417.975 436.785 418.149 436.759 418.22 436.619C418.221 436.617 418.222 436.614 418.222 436.614Z" fill="#407BFF"/>
<path opacity="0.2" d="M405.627 423.198V423.2C404.157 423.804 403.147 424.219 403.147 424.219L405.048 430.98C405.048 430.98 406.476 431.28 406.921 432.703C407.171 433.502 406.582 435.705 406.582 435.705L411.672 454.334C411.7 454.326 412.95 453.989 413.446 453.631C413.724 453.431 413.972 453.227 414.203 453.023L405.998 423.047C405.875 423.097 405.743 423.151 405.627 423.198Z" fill="white"/>
<path d="M417.96 436.5C418.591 436.267 419.225 436.033 419.887 435.914C420.549 435.794 421.245 435.795 421.878 436.025C422.172 436.133 422.477 436.324 422.54 436.631C422.606 436.952 422.376 437.265 422.109 437.456C421.595 437.824 420.917 437.913 420.296 437.796C419.675 437.678 418.474 436.868 417.96 436.5Z" stroke="#407BFF" stroke-width="0.25" stroke-miterlimit="10"/>
<path d="M417.938 436.422C418.466 436.004 418.995 435.583 419.441 435.08C419.887 434.577 420.249 433.981 420.38 433.321C420.442 433.015 420.436 432.655 420.207 432.442C419.968 432.217 419.58 432.252 419.279 432.38C418.698 432.629 418.268 433.162 418.046 433.753C417.824 434.344 417.891 435.791 417.938 436.422Z" stroke="#407BFF" stroke-width="0.25" stroke-miterlimit="10"/>
<path d="M435.481 326.564C435.481 326.564 438.867 356.708 439.772 358.325C442.832 363.794 463.104 373.172 463.104 373.172L473.44 371.007L480.847 377.192L475.963 381.017L470.234 378.852C467.108 379.41 463.937 379.688 460.761 379.682C455.421 379.682 429.676 373.156 425.378 365.979C421.08 358.8 419.106 325.561 419.106 325.561L435.481 326.564Z" fill="#B97964"/>
<path d="M418.667 338.412C418.667 338.412 410.724 311.939 420.621 304.589C430.517 297.239 438.388 333.638 438.388 333.638L418.667 338.412Z" fill="#3F543E"/>
<path d="M424.935 386.834L424.858 351.746L424.104 303.702L403.373 299.205L385.33 298.409L364.8 307.803L364.32 319.592C364.32 319.592 366.668 373.724 366.537 375.356C366.375 377.356 360.552 389.913 360.552 389.913C386.489 395.824 425.343 388.623 424.935 386.834Z" fill="#407BFF"/>
<path d="M424.935 386.834L424.858 351.746L424.104 303.702L403.373 299.205L385.33 298.409L364.8 307.803L364.32 319.592C364.32 319.592 366.668 373.724 366.537 375.356C366.375 377.356 360.552 389.913 360.552 389.913C386.489 395.824 425.343 388.623 424.935 386.834Z" fill="#4F694D"/>
<path d="M423.022 270.139C424.16 270.03 425.137 269.002 425.187 267.86C425.238 266.717 424.355 265.606 423.231 265.398L417.916 264.865C418.168 268.277 418.421 271.689 418.674 275.1C419.702 275.365 420.81 275.419 421.815 275.075C422.82 274.73 423.703 273.947 424.006 272.929C424.31 271.912 423.933 270.685 423.022 270.139Z" fill="#263238"/>
<path d="M402.711 289.817L391.29 275.445C391.29 275.445 391.285 275.457 391.282 275.495C391.28 276.853 391.236 278.406 391.124 280.063C391.12 280.074 389.898 279.476 389.893 279.487C389.404 286.955 386.452 299.693 386.588 300.794L398.59 306.758H401.001L401.198 299.714C399.992 296.673 401.129 293.128 402.711 289.817Z" fill="#B97964"/>
<path opacity="0.2" d="M401.001 294.665L393.777 288.955C393.598 291.861 395.116 296.426 400.909 298.8C400.567 297.052 400.681 295.813 401.001 294.665Z" fill="black"/>
<path d="M393.728 268.321C391.364 277.993 390.474 282.637 393.778 288.955C398.747 298.458 410.885 298.54 416.105 289.743C420.804 281.826 423.88 267.341 415.717 260.763C407.674 254.283 396.092 258.65 393.728 268.321Z" fill="#B97964"/>
<path d="M395.769 255.195C398.695 250.37 406.357 249.587 409.188 253.396C409.611 253.964 405.035 254.103 405.558 254.077L402.875 261.696C402.352 261.396 401.042 261.711 399.926 263.282C399.926 263.282 398.2 273.763 392.77 276.694C387.436 269.336 388.045 255.209 395.769 255.195Z" fill="#263238"/>
<path d="M387.523 275.069C387.523 277.748 388.769 280.167 390.361 281.687C392.756 283.973 395.537 282.205 396.197 279.132C396.791 276.366 396.261 271.843 393.219 270.721C390.222 269.617 387.523 272.006 387.523 275.069Z" fill="#B97964"/>
<path d="M406.824 276.426C406.522 277.397 406.795 278.339 407.432 278.53C408.069 278.721 408.831 278.089 409.132 277.118C409.434 276.147 409.161 275.206 408.524 275.014C407.887 274.822 407.125 275.455 406.824 276.426Z" fill="#263238"/>
<path d="M416.349 279.52C416.047 280.491 416.319 281.433 416.957 281.625C417.594 281.816 418.355 281.184 418.658 280.212C418.96 279.241 418.687 278.298 418.05 278.107C417.412 277.918 416.65 278.549 416.349 279.52Z" fill="#263238"/>
<path d="M412.996 276.926C412.996 276.926 414.203 281.351 414.755 283.979C414.888 284.607 414.418 285.22 413.776 285.238C412.376 285.276 411.063 284.492 411.063 284.492L412.996 276.926Z" fill="#A24E3F"/>
<path d="M405.808 270.6C405.936 270.705 406.116 270.741 406.284 270.678C408.278 269.926 409.712 270.935 409.726 270.945C409.939 271.1 410.238 271.053 410.394 270.841C410.55 270.63 410.503 270.334 410.291 270.179C410.216 270.125 408.42 268.86 405.946 269.793C405.699 269.886 405.575 270.16 405.668 270.404C405.698 270.483 405.747 270.549 405.808 270.6Z" fill="#263238"/>
<path d="M421.403 275.102C421.492 275.089 421.579 275.05 421.652 274.984C421.849 274.809 421.867 274.507 421.694 274.311C419.954 272.347 417.791 272.676 417.691 272.679C417.432 272.72 417.252 272.963 417.29 273.223C417.327 273.482 417.567 273.659 417.825 273.621C417.914 273.604 419.584 273.371 420.981 274.949C421.091 275.072 421.252 275.124 421.403 275.102Z" fill="#263238"/>
<path d="M406.023 286.47C406.355 286.742 406.71 286.983 407.085 287.19C407.206 287.255 407.357 287.222 407.441 287.113C407.497 286.983 407.445 286.831 407.323 286.761C405.382 285.718 404.055 283.811 403.753 281.629C403.737 281.493 403.62 281.392 403.483 281.396C403.359 281.39 403.253 281.486 403.247 281.61C403.246 281.628 403.247 281.647 403.252 281.666C403.48 283.579 404.481 285.315 406.023 286.47Z" fill="#263238"/>
<path d="M427.816 262.925C427.166 260.994 424.866 260.183 422.832 260.037C424.108 260.012 425.111 258.718 425.114 257.442C425.117 256.167 424.327 254.997 423.323 254.209C421.53 252.802 418.975 252.436 416.86 253.286C417.26 253.092 417.404 252.559 417.275 252.133C417.146 251.708 416.812 251.377 416.458 251.107C414.306 249.463 410.971 249.627 408.992 251.475C408.3 249.135 405.59 247.603 403.229 248.219C400.926 248.819 396.586 249.281 395.915 255.176C393.962 253.788 390.932 254.083 389.387 255.949C387.718 257.965 388.15 261.364 390.272 262.897C389.219 262.454 387.91 263.137 387.477 264.195C387.044 265.251 387.379 266.516 388.113 267.391C388.848 268.266 389.921 268.796 391.02 269.109C392.055 269.404 393.174 269.524 394.201 269.206C395.228 268.887 396.143 268.063 396.348 267.007C396.522 268.114 397.685 268.936 398.799 268.818C399.914 268.701 400.853 267.735 401.037 266.629C401.219 265.523 400.692 264.356 399.8 263.677C401.068 264.906 403.522 264.423 404.229 262.804C405.169 264.609 406.509 266.312 408.378 267.118C410.247 267.923 412.709 267.584 413.903 265.937C414.511 266.644 415.13 267.362 415.915 267.864C416.7 268.366 417.691 268.629 418.578 268.346C419.466 268.062 420.164 267.123 419.976 266.21C421.444 267.434 423.511 268.069 425.319 267.449C427.127 266.826 428.426 264.737 427.816 262.925Z" fill="#263238"/>
<path d="M395.558 306.185C395.558 306.185 400.592 310.667 403.169 304.874L404.511 305.919C404.511 305.919 404.38 310.229 401.939 311.67C402.531 314.062 412.75 348.863 414.579 366.404L411.786 373.516L404.365 367.658C404.365 367.658 400.763 337.565 399.53 311.999C396.558 310.992 394.208 308.764 393.116 305.919L395.558 306.185Z" fill="#3F543E"/>
<path opacity="0.2" d="M402.052 306.77L406.414 310.163L407.128 299.978L405.742 299.682L404.59 306.547L402.515 305.341L402.052 306.77Z" fill="black"/>
<path opacity="0.2" d="M381.031 300.376C380.957 300.41 391.304 313.026 391.304 313.026L394.816 310.351L397.231 308.306L397.858 307.535L384.163 298.022C384.163 298.022 382.327 299.897 382.138 299.897C381.949 299.897 381.031 300.376 381.031 300.376Z" fill="black"/>
<path d="M381.767 300.162L386.771 295.694L400.467 308.515L396.885 307.247L391.667 311.257L381.767 300.162Z" fill="#4F694D"/>
<path d="M400.467 308.515C400.164 307.936 400.763 296.518 400.763 296.518L406.415 299.607C406.158 299.554 405.988 309.234 405.832 309.234C405.675 309.234 402.617 305.928 402.617 305.928L400.467 308.515Z" fill="#4F694D"/>
<path opacity="0.2" d="M424.567 336.984L423.506 314.355L428.567 336.015L424.567 336.984Z" fill="black"/>
<path d="M408.233 327.228L410.532 338.517L417.225 340.942L421.752 336.994L420.924 326.333L408.233 327.228Z" fill="#3F543E"/>
<path d="M401.28 307.536L399.161 308.053C399.155 308.05 399.08 308.186 399.132 308.102C399.161 308.053 397.973 312.115 397.973 312.115C398.315 312.418 399.455 314.387 399.586 314.355C399.718 314.323 402.531 314.061 402.531 314.061L403.552 311.082C403.552 311.082 401.263 307.51 401.28 307.536Z" fill="#3F543E"/>
<path d="M377.898 323.699C377.898 323.699 382.928 357.166 385.833 360.294C390.742 365.581 415.06 379.609 415.06 379.609L427.197 375.353C428.047 375.074 428.988 375.226 429.683 375.757L437.981 382.091L437.189 382.759C436.847 383.048 436.351 383.106 435.947 382.906L434.658 382.264L436.1 383.678L435.643 384.063C435.189 384.447 434.558 384.584 433.974 384.428L430.263 383.432L433.687 385.712C432.923 386.357 431.859 386.581 430.882 386.301L425.454 384.754C421.752 385.601 417.98 386.142 414.182 386.369C407.79 386.763 377.604 376.215 371.978 368.493C366.352 360.771 360.551 328.707 360.551 328.707L377.898 323.699Z" fill="#B97964"/>
<path d="M361.837 345.963C361.837 345.963 354.315 315.632 364.211 308.282C374.108 300.932 383.91 339.304 383.91 339.304L361.837 345.963Z" fill="#3F543E"/>
<path d="M442.842 384.516H424.174H404.365C404.365 384.521 404.365 384.525 404.365 384.528C404.375 385.998 406.016 387.183 408.029 387.175H427.821H439.142C439.159 387.175 439.177 387.175 439.195 387.175H439.198H470.706C472.703 387.161 474.311 385.972 474.301 384.515H442.842V384.516Z" fill="#263238"/>
<path d="M471.283 387.026H436.131C435.525 387.022 435.037 386.624 435.042 386.137C435.043 386.046 435.062 385.954 435.097 385.868L450.734 350.018C451.129 348.995 452.307 348.294 453.642 348.29H488.815C489.41 348.29 489.892 348.677 489.891 349.154C489.891 349.254 489.869 349.354 489.827 349.448L474.19 385.297C473.789 386.318 472.616 387.016 471.283 387.026Z" fill="#263238"/>
<path opacity="0.7" d="M488.815 348.29H453.643C452.307 348.294 451.13 348.995 450.735 350.018L435.688 384.516H424.175H404.366C404.366 384.52 404.366 384.525 404.366 384.528C404.376 385.998 406.017 387.183 408.03 387.175H427.822H439.143C439.16 387.175 439.178 387.175 439.196 387.175H439.199H470.707C471.34 387.171 471.926 387.038 472.441 386.827C473.259 386.551 473.913 386.005 474.19 385.297L489.827 349.448C489.87 349.354 489.891 349.254 489.891 349.154C489.892 348.677 489.41 348.29 488.815 348.29Z" fill="white"/>
<path d="M467.691 367.375C466.931 369.095 465.392 370.277 464.244 370.036C463.096 369.796 462.79 368.228 463.527 366.503C464.264 364.778 465.821 363.624 466.969 363.864C468.118 364.105 468.46 365.61 467.691 367.375Z" fill="white"/>
<g opacity="0.3">
<path d="M450.735 350.018L435.687 384.516H437.316L453.642 348.29C452.307 348.294 451.129 348.995 450.735 350.018Z" fill="black"/>
</g>
<path d="M452.551 424.278L475.192 427.923L478.825 418.585L455.028 411.161L452.551 424.278Z" fill="#B97964"/>
<path d="M485.26 432.633L488.318 426.312C488.318 426.312 487.448 425.141 488.058 423.78C488.401 423.016 490.302 421.757 490.302 421.757L498.842 404.435C498.816 404.423 497.657 403.847 497.048 403.786C496.307 403.711 495.643 403.721 495.048 403.8C492.965 404.078 491.325 405.701 490.156 406.944C488.196 409.027 481.431 414.19 481.431 414.19C481.431 414.19 479.52 415.403 476.53 415.315C474.862 415.266 473.525 415.883 473.06 416.587C472.111 418.023 472.604 419.313 473.924 420.226L475.459 421.284C475.796 422.899 474.996 424.414 473.305 425.061C473.305 425.061 469.795 427.373 471.522 427.99C472.507 428.341 476.973 429.747 480.467 430.965C481.282 431.248 482.052 431.517 482.727 431.752L482.728 431.751C484.228 432.276 485.26 432.633 485.26 432.633Z" fill="#263238"/>
<path d="M484.918 411.331C484.809 411.375 484.744 411.491 484.756 411.609C484.812 412.15 485.006 412.674 485.346 413.131C485.526 413.373 485.939 413.108 485.758 412.864C485.455 412.458 485.282 411.998 485.232 411.525C485.216 411.367 485.068 411.271 484.922 411.329C484.922 411.329 484.919 411.33 484.918 411.331Z" fill="#407BFF"/>
<path d="M483.54 412.314C483.431 412.357 483.366 412.473 483.378 412.592C483.434 413.132 483.628 413.657 483.968 414.114C484.148 414.354 484.561 414.09 484.38 413.847C484.077 413.441 483.904 412.98 483.855 412.507C483.838 412.349 483.69 412.253 483.544 412.312C483.544 412.312 483.541 412.313 483.54 412.314Z" fill="#407BFF"/>
<path d="M482.19 413.36C482.082 413.404 482.015 413.52 482.028 413.639C482.083 414.179 482.278 414.704 482.618 415.16C482.798 415.401 483.211 415.137 483.03 414.894C482.727 414.487 482.554 414.027 482.505 413.554C482.488 413.396 482.34 413.3 482.194 413.359C482.194 413.359 482.192 413.359 482.19 413.36Z" fill="#407BFF"/>
<path opacity="0.2" d="M488.059 423.781C488.402 423.017 490.303 421.758 490.303 421.758L498.843 404.437C498.818 404.425 497.658 403.848 497.049 403.787C496.708 403.753 496.389 403.741 496.08 403.741L482.351 431.623C482.475 431.666 482.609 431.713 482.728 431.754L482.729 431.753C484.229 432.277 485.261 432.634 485.261 432.634L488.319 426.312C488.319 426.312 487.449 425.14 488.059 423.781Z" fill="white"/>
<path d="M482.312 413.62C481.685 413.376 481.055 413.131 480.48 412.781C479.906 412.432 479.385 411.969 479.065 411.378C478.915 411.103 478.815 410.758 478.971 410.486C479.134 410.201 479.514 410.119 479.84 410.153C480.469 410.219 481.036 410.602 481.422 411.102C481.808 411.602 482.171 413.004 482.312 413.62Z" stroke="#407BFF" stroke-width="0.25" stroke-miterlimit="10"/>
<path d="M482.275 413.693C481.604 413.656 480.928 413.62 480.261 413.702C479.593 413.783 478.928 413.989 478.392 414.395C478.143 414.584 477.908 414.858 477.938 415.169C477.969 415.496 478.281 415.726 478.593 415.831C479.193 416.03 479.867 415.916 480.425 415.62C480.985 415.324 481.893 414.196 482.275 413.693Z" stroke="#407BFF" stroke-width="0.25" stroke-miterlimit="10"/>
<path d="M367.469 413.954C362.586 406.179 351.55 385.103 373.947 380.997C396.344 376.891 471.176 412.453 471.176 412.453L466.435 426.735L396.784 415.755C396.784 415.755 406.315 428.478 394.756 427.898C377.941 426.235 373.905 422.212 367.469 413.954Z" fill="#263238"/>
<path opacity="0.7" d="M398.437 416.138L379.329 410.125C379.329 410.125 395.358 419.933 401.239 421.099L398.437 416.138Z" fill="black"/>
</svg>
