<svg width="80" height="80" viewBox="0 0 80 80" fill="none" xmlns="http://www.w3.org/2000/svg">
<path d="M41.9387 31.2153C38.2925 31.7307 35.1079 35.1537 35.0771 35.1845C35.0314 35.232 34.9797 35.2733 34.9233 35.3076C29.9695 38.523 27.1771 36.0768 27.0618 35.9307C23.8925 33.0768 26.8002 28.2922 26.9233 28.0922C28.2215 25.9345 29.7935 23.954 31.6002 22.1999H18.1464L12.3079 41.4614C12.3706 41.4962 12.4277 41.5403 12.4771 41.5922C21.5387 51.8384 33.5695 60.9307 38.3156 64.3614C38.8095 64.7267 39.4238 64.8907 40.034 64.8203C40.6443 64.7499 41.205 64.4503 41.6028 63.9821C42.0006 63.514 42.2057 62.9122 42.1767 62.2986C42.1476 61.685 41.8866 61.1053 41.4464 60.6768L34.9156 54.146C34.7723 54.0019 34.6919 53.807 34.6919 53.6037C34.6919 53.4005 34.7723 53.2056 34.9156 53.0614C34.9871 52.9893 35.0722 52.9321 35.1659 52.8931C35.2597 52.854 35.3602 52.8339 35.4618 52.8339C35.5633 52.8339 35.6639 52.854 35.7576 52.8931C35.8513 52.9321 35.9364 52.9893 36.0079 53.0614L39.4848 56.5384L42.5618 59.6153L44.1002 61.1922C44.6521 61.7297 45.3926 62.0297 46.163 62.0278C46.9334 62.0259 47.6724 61.7224 48.2217 61.1822C48.771 60.642 49.0868 59.9081 49.1014 59.1378C49.1161 58.3676 48.8285 57.6222 48.3002 57.0614L42.3079 50.8076L41.1695 49.6307C41.0974 49.5592 41.0401 49.4741 41.0011 49.3803C40.962 49.2866 40.9419 49.1861 40.9419 49.0845C40.9419 48.983 40.962 48.8824 41.0011 48.7887C41.0401 48.6949 41.0974 48.6099 41.1695 48.5384C41.241 48.4663 41.326 48.409 41.4198 48.37C41.5135 48.3309 41.6141 48.3108 41.7156 48.3108C41.8172 48.3108 41.9177 48.3309 42.0114 48.37C42.1052 48.409 42.1903 48.4663 42.2618 48.5384L51.0079 57.6153C51.4314 58.0344 51.9675 58.3216 52.5511 58.4419C53.1347 58.5622 53.7407 58.5105 54.2955 58.2929C54.8502 58.0754 55.3299 57.7015 55.6762 57.2167C56.0225 56.7318 56.2206 56.1567 56.2464 55.5614C56.2591 55.142 56.1836 54.7246 56.0245 54.3363C55.8655 53.9481 55.6266 53.5976 55.3233 53.3076L50.0771 48.2307L46.4233 44.6845C46.342 44.6166 46.2755 44.5327 46.2281 44.438C46.1807 44.3432 46.1534 44.2397 46.1479 44.1339C46.1424 44.0282 46.1588 43.9224 46.196 43.8232C46.2333 43.724 46.2907 43.6337 46.3645 43.5577C46.4383 43.4817 46.5271 43.4218 46.6251 43.3818C46.7232 43.3417 46.8285 43.3223 46.9344 43.3248C47.0403 43.3274 47.1445 43.3517 47.2406 43.3964C47.3366 43.4411 47.4224 43.5051 47.4925 43.5845L57.8771 53.6384C58.1495 53.9181 58.4757 54.1398 58.836 54.2901C59.1963 54.4404 59.5833 54.5162 59.9737 54.513C60.3641 54.5097 60.7498 54.4274 61.1076 54.2711C61.4653 54.1148 61.7877 53.8877 62.0554 53.6034C62.323 53.3191 62.5303 52.9837 62.6648 52.6171C62.7993 52.2506 62.8582 51.8607 62.8379 51.4708C62.8177 51.0809 62.7187 50.6991 62.547 50.3485C62.3753 49.9979 62.1343 49.6857 61.8387 49.4307L41.9387 31.2153ZM15.8002 17.6922C11.8068 15.8968 7.45241 15.0491 3.07715 15.2153V45.3845H7.77715C8.27877 45.3857 8.76712 45.2234 9.16825 44.9222C9.56938 44.621 9.86144 44.1973 10.0002 43.7153L17.0618 20.4614C17.2232 19.9254 17.1842 19.3489 16.9521 18.8394C16.72 18.33 16.3106 17.9222 15.8002 17.6922Z" fill="#102694"/>
<path d="M44.4311 19.1844C42.7723 18.5015 40.9186 18.4604 39.2311 19.069C36.285 20.1459 31.985 22.7305 28.208 28.8998C28.208 28.9459 25.8465 32.7459 28.0696 34.7921C28.1465 34.8613 30.1311 36.5229 33.9773 34.069C34.5311 33.4921 38.0004 30.0152 42.1004 29.6382C42.2063 29.6294 42.313 29.6425 42.4136 29.677C42.5142 29.7114 42.6066 29.7663 42.685 29.8382L62.8465 48.2998C62.9388 48.3844 63.0234 48.4767 63.108 48.569C65.4157 48.2152 66.9542 46.1075 67.4004 45.3382L60.0927 25.4229L44.4311 19.1844ZM75.385 18.8844C70.9974 18.8553 66.6456 19.6755 62.5696 21.2998C62.0214 21.5347 61.5855 21.9727 61.3532 22.5219C61.1209 23.0711 61.1102 23.689 61.3234 24.2459L69.885 47.5459C70.0521 47.9954 70.3521 48.3834 70.7451 48.6582C71.1381 48.933 71.6054 49.0817 72.085 49.0844H76.9234V18.9229C76.5388 18.8998 76.008 18.8844 75.385 18.8844Z" fill="#333333"/>
</svg>
