<svg width="100" height="100" viewBox="0 0 100 100" fill="none" xmlns="http://www.w3.org/2000/svg">
<circle cx="50" cy="50" r="50" fill="#EDF0ED"/>
<path d="M36.6818 33.5907C36.803 33.7876 37.0151 33.9013 37.2348 33.9013C37.3485 33.9013 37.4697 33.871 37.5757 33.8028C37.8788 33.6134 37.9773 33.2119 37.7879 32.9013L36.0151 30.0301C35.9702 29.9566 35.9111 29.8928 35.8413 29.8423C35.7716 29.7918 35.6925 29.7557 35.6086 29.7359C35.5248 29.7162 35.4379 29.7133 35.3529 29.7274C35.2679 29.7414 35.1866 29.7722 35.1136 29.8179C34.9668 29.9101 34.8622 30.0564 34.8225 30.2252C34.7828 30.3939 34.8112 30.5715 34.9015 30.7195L36.6818 33.5907ZM41.5303 31.1361C41.6212 31.4089 41.8788 31.5755 42.1515 31.5755C42.2197 31.5755 42.2954 31.5679 42.3636 31.5376C42.697 31.4316 42.8788 31.0604 42.7651 30.7195L41.6742 27.5225C41.6135 27.3659 41.4947 27.2388 41.3426 27.1676C41.1904 27.0964 41.0167 27.0866 40.8576 27.1403C40.6984 27.194 40.5661 27.307 40.4882 27.4558C40.4103 27.6047 40.3928 27.7778 40.4394 27.9392L41.5303 31.1361ZM47.3485 30.424C47.3712 30.424 47.3939 30.424 47.4242 30.4164C47.7803 30.3785 48.0379 30.0528 48 29.6967L47.6288 26.3407C47.5909 25.9846 47.2651 25.7119 46.9091 25.7649C46.553 25.8028 46.2954 26.1285 46.3333 26.4846L46.7045 29.8407C46.7348 30.174 47.0227 30.424 47.3485 30.424ZM52.5833 30.4164C52.606 30.4164 52.6288 30.424 52.6591 30.424C52.9848 30.424 53.2727 30.174 53.3106 29.8407L53.6818 26.4846C53.7197 26.1285 53.4621 25.8028 53.106 25.7649C52.75 25.7195 52.4242 25.9846 52.3864 26.3407L52.0076 29.6967C51.9621 30.0528 52.2197 30.3785 52.5833 30.4164ZM57.6439 31.5452C57.7121 31.5679 57.7879 31.5831 57.856 31.5831C58.1288 31.5831 58.3788 31.4089 58.4773 31.1437L59.5682 27.9467C59.6232 27.783 59.6111 27.6041 59.5344 27.4492C59.4577 27.2944 59.3227 27.1764 59.1591 27.121C59.0786 27.0922 58.9931 27.0797 58.9077 27.0844C58.8223 27.0891 58.7387 27.1107 58.6618 27.1481C58.5849 27.1855 58.5162 27.2379 58.4598 27.3022C58.4034 27.3665 58.3604 27.4414 58.3333 27.5225L57.2424 30.7195C57.1212 31.0604 57.303 31.4316 57.6439 31.5452ZM62.4242 33.8028C62.5303 33.871 62.6515 33.9013 62.7651 33.9013C62.9848 33.9013 63.197 33.7952 63.3182 33.5907L65.0909 30.7195C65.2803 30.4164 65.1818 30.0073 64.8788 29.8179C64.5757 29.6285 64.1667 29.7195 63.9773 30.0301L62.2045 32.9013C62.0227 33.2119 62.1136 33.6134 62.4242 33.8028ZM73.75 58.3786C73.2121 57.1816 71.8939 56.6967 70.8257 57.3179L58.2954 65.3937C57.8106 65.7043 57.2424 65.871 56.6667 65.871H48.2803C47.803 65.871 47.3939 65.5225 47.3182 65.0528C47.1894 64.2725 47.2727 63.2119 48.7197 63.1967H56.6136C57.8106 63.1967 58.7803 62.1058 58.7803 60.7573C58.7803 59.4164 57.8182 58.3331 56.6136 58.3331H48.3257C47.856 58.3331 47.3788 58.1589 47.0606 57.7573C44.0227 53.8937 36.6439 56.1589 36.6439 56.1589V70.6816L38.6363 70.6058C39.947 70.5528 41.2651 70.7573 42.5 71.1967L50.2348 73.9619C51.6212 74.4543 53.1288 74.2952 54.4015 73.4922L61.6591 68.9619L72.7954 61.6513C73.8712 61.0376 74.2954 59.5679 73.75 58.3786ZM26.0151 53.7649H34.856V72.4316H26.0151V53.7649Z" fill="#4F694D"/>
<path d="M50 53.7649C57.1515 53.7649 64.3031 50.1134 69.7652 42.8028C58.8485 28.1816 41.144 28.1816 30.2273 42.8028C35.6818 50.1134 42.8409 53.7649 50 53.7649ZM50 34.8634C54.3864 34.8634 57.9394 38.4165 57.9394 42.8028C57.9394 47.1892 54.3864 50.7422 50 50.7422C45.6137 50.7422 42.0606 47.1892 42.0606 42.8028C42.0606 38.4165 45.6137 34.8634 50 34.8634Z" fill="#4F694D"/>
<path d="M49.9999 46.6738C52.1362 46.6738 53.8711 44.939 53.8711 42.8026C53.8711 40.6663 52.1362 38.9238 49.9999 38.9238C47.8635 38.9238 46.1287 40.6663 46.1287 42.8026C46.1287 44.939 47.8635 46.6738 49.9999 46.6738Z" fill="#4F694D"/>
</svg>
