<svg width="100" height="100" viewBox="0 0 100 100" fill="none" xmlns="http://www.w3.org/2000/svg">
<circle cx="50" cy="50" r="50" fill="#EDF0ED"/>
<g clip-path="url(#clip0_7_10827)">
<path d="M55.8628 51.4662C55.8628 55.5073 52.5751 58.795 48.534 58.795C44.4929 58.795 41.2052 55.5073 41.2052 51.4662C41.2052 47.425 44.4929 44.1372 48.534 44.1372C50.0259 44.1372 51.4144 44.5864 52.5734 45.3551L56.8236 41.1049C56.7276 41.0344 56.6308 40.9649 56.5333 40.8964C53.651 38.8822 50.7637 37.8643 47.9394 37.8643C47.6807 37.8643 47.4227 37.8728 47.165 37.8898C43.7572 38.1218 40.5824 39.6389 38.2276 42.1614C35.867 44.6862 34.5674 47.9903 34.5674 51.4662C34.5674 55.1955 36.0205 58.7025 38.659 61.341C41.2977 63.9797 44.8046 65.4327 48.5339 65.4327C52.2632 65.4327 55.7702 63.9796 58.4088 61.341C61.0473 58.7024 62.5003 55.1955 62.5003 51.4662C62.5003 48.3965 61.2606 45.4494 59.0226 43.0489L54.6447 47.4267C55.4137 48.5857 55.8628 49.9743 55.8628 51.4662Z" fill="#4F694D"/>
<path d="M47.4983 50.4304L50.4311 47.4976C49.8391 47.2134 49.1908 47.0662 48.5341 47.0669C46.1084 47.0669 44.135 49.0404 44.135 51.4662C44.135 53.8919 46.1084 55.8653 48.5341 55.8653C50.9598 55.8653 52.9333 53.8919 52.9333 51.4662C52.934 50.8096 52.7868 50.1612 52.5027 49.5691L49.57 52.5019L47.4983 50.4304Z" fill="#4F694D"/>
<path d="M62.9184 39.1532L61.0957 40.9759C63.8831 43.9271 65.4302 47.6053 65.4302 51.4661C65.4302 55.978 63.6724 60.2206 60.4805 63.4125C57.2885 66.6045 53.0458 68.3624 48.534 68.3624C44.0222 68.3624 39.7795 66.6045 36.5875 63.4125C33.3955 60.2206 31.6377 55.9779 31.6377 51.4661C31.6377 47.2446 33.2179 43.2299 36.0869 40.1613C38.9495 37.0945 42.8145 35.2493 46.9687 34.9666C50.7236 34.7185 54.5049 35.9047 58.2114 38.4949C58.4501 38.6622 58.6849 38.8349 58.9158 39.0127L60.8469 37.0816L61.1562 31.5942C57.4185 29.2099 53.0746 27.9321 48.5341 27.9321C42.2479 27.9321 36.338 30.3801 31.8931 34.825C27.4479 39.2699 25 45.1799 25 51.466C25 57.7521 27.4479 63.6621 31.893 68.107C36.338 72.552 42.2479 75 48.534 75C54.8201 75 60.7301 72.5521 65.175 68.107C69.6199 63.662 72.0679 57.7521 72.0679 51.466C72.0679 46.9255 70.79 42.5816 68.4058 38.8439L62.9184 39.1532Z" fill="#4F694D"/>
<path d="M63.8325 36.1674L69.8187 35.83L74.9999 30.6486L69.3514 25L64.17 30.1813L63.8325 36.1674Z" fill="#4F694D"/>
</g>
<defs>
<clipPath id="clip0_7_10827">
<rect width="50" height="50" fill="white" transform="translate(25 25)"/>
</clipPath>
</defs>
</svg>
