<svg width="100" height="100" viewBox="0 0 100 100" fill="none" xmlns="http://www.w3.org/2000/svg">
<circle cx="50" cy="50" r="50" fill="#EDF0ED"/>
<path d="M59.375 36.5L61.7656 39.8438H56.9844L59.375 36.5ZM66.7844 34.375H59.7766L63.2812 39.2813L66.7844 34.375ZM62.2344 41.4062H56.5156L59.375 51.1406L62.2344 41.4062ZM50.6031 35.1547L47.2539 39.8438H53.9531L50.6031 35.1547ZM71.4961 39.8438L68.1469 35.1547L64.7969 39.8438H71.4961ZM63.8672 41.4062L60.0781 54.2906L71.4461 41.4062H63.8672ZM55.4688 39.2813L58.9734 34.375H51.9656L55.4688 39.2813ZM58.6719 54.2906L54.8828 41.4062H47.3039L58.6719 54.2906ZM59.375 32.0312C59.5822 32.0312 59.7809 31.9489 59.9274 31.8024C60.0739 31.6559 60.1562 31.4572 60.1562 31.25V27.3438C60.1562 27.1365 60.0739 26.9378 59.9274 26.7913C59.7809 26.6448 59.5822 26.5625 59.375 26.5625C59.1678 26.5625 58.9691 26.6448 58.8226 26.7913C58.6761 26.9378 58.5938 27.1365 58.5938 27.3438V31.25C58.5938 31.4572 58.6761 31.6559 58.8226 31.8024C58.9691 31.9489 59.1678 32.0312 59.375 32.0312ZM53.2812 32.5C53.3428 32.5821 53.4199 32.6512 53.5082 32.7035C53.5965 32.7558 53.6942 32.7901 53.7958 32.8046C53.8973 32.8192 54.0008 32.8135 54.1001 32.7881C54.1995 32.7626 54.2929 32.7178 54.375 32.6562C54.4571 32.5947 54.5262 32.5176 54.5785 32.4293C54.6308 32.341 54.6651 32.2433 54.6796 32.1417C54.6942 32.0402 54.6885 31.9367 54.6631 31.8374C54.6376 31.738 54.5928 31.6446 54.5312 31.5625L52.1875 28.4375C52.0632 28.2717 51.8781 28.1622 51.673 28.1329C51.4679 28.1035 51.2595 28.1569 51.0938 28.2812C50.928 28.4056 50.8184 28.5906 50.7891 28.7958C50.7598 29.0009 50.8132 29.2092 50.9375 29.375L53.2812 32.5ZM64.843 32.8125C64.9644 32.8129 65.0843 32.7848 65.193 32.7305C65.3016 32.6763 65.3961 32.5973 65.4688 32.5L67.8125 29.375C67.8741 29.2929 67.9188 29.1995 67.9443 29.1001C67.9698 29.0008 67.9754 28.8973 67.9609 28.7958C67.9464 28.6942 67.912 28.5965 67.8597 28.5082C67.8075 28.4199 67.7383 28.3428 67.6562 28.2812C67.5742 28.2197 67.4808 28.1749 67.3814 28.1494C67.282 28.124 67.1786 28.1183 67.077 28.1329C66.9754 28.1474 66.8777 28.1817 66.7895 28.234C66.7012 28.2863 66.6241 28.3554 66.5625 28.4375L64.2188 31.5625C64.1317 31.6785 64.0787 31.8165 64.0657 31.9609C64.0526 32.1053 64.08 32.2505 64.1448 32.3803C64.2096 32.51 64.3092 32.6192 64.4325 32.6955C64.5558 32.7718 64.6979 32.8124 64.843 32.8125ZM73.25 60.7656C72.9666 59.9157 72.3764 59.2021 71.5947 58.7643C70.813 58.3265 69.8962 58.1961 69.0234 58.3984L59.3594 60.8828C59.3575 60.9014 59.3602 60.9202 59.3672 60.9375C59.4733 61.9617 59.2973 62.9954 58.8581 63.9268C58.4189 64.8581 57.7333 65.6516 56.8756 66.2213C56.0178 66.791 55.0206 67.1152 53.9918 67.1588C52.9631 67.2024 51.942 66.9638 51.0391 66.4688L41.8438 61.4297C41.6624 61.3302 41.5281 61.1628 41.4702 60.9643C41.4123 60.7658 41.4357 60.5524 41.5352 60.3711C41.6346 60.1898 41.802 60.0554 42.0005 59.9976C42.1991 59.9397 42.4124 59.963 42.5938 60.0625L51.7891 65.1016C52.4423 65.4577 53.1803 65.6288 53.9236 65.5965C54.6668 65.5641 55.3872 65.3295 56.007 64.9179C56.6267 64.5063 57.1224 63.9334 57.4406 63.2609C57.7588 62.5884 57.8874 61.8418 57.8125 61.1016C57.7585 60.5585 57.595 60.0321 57.3318 59.5541C57.0686 59.076 56.7112 58.6563 56.2812 58.3203L47.1484 51.0781C45.6299 49.8752 43.7498 49.2201 41.8125 49.2188H35.9375V66.1094L40.8203 68.5469L48.3828 72.3281C49.8709 73.0745 51.5156 73.4547 53.1803 73.437C54.8449 73.4193 56.4813 73.0043 57.9531 72.2266L71.5156 65.0859C72.2734 64.692 72.8649 64.0396 73.1831 63.2471C73.5013 62.4545 73.525 61.5742 73.25 60.7656ZM32.0312 46.875H27.3438C27.1365 46.875 26.9378 46.9573 26.7913 47.1038C26.6448 47.2503 26.5625 47.449 26.5625 47.6562V67.9688C26.5625 68.1759 26.6448 68.3747 26.7913 68.5212C26.9378 68.6677 27.1365 68.75 27.3438 68.75H32.0312C32.6527 68.7494 33.2484 68.5023 33.6878 68.0628C34.1273 67.6234 34.3744 67.0277 34.375 66.4062V49.2188C34.3744 48.5973 34.1273 48.0016 33.6878 47.5622C33.2484 47.1227 32.6527 46.8756 32.0312 46.875Z" fill="#102694"/>
</svg>
