<svg width="156" height="134" viewBox="0 0 156 134" fill="none" xmlns="http://www.w3.org/2000/svg">
<path d="M70.9465 131.432C73.7505 131.432 76.5545 131.237 79.3584 130.848C81.773 130.537 84.1875 130.109 86.602 129.564C72.8159 112.403 64.5208 90.6891 64.5208 66.9906C64.5208 43.2921 72.8159 21.5782 86.4852 4.41724C80.5268 2.89961 74.101 2.3159 67.5584 2.66612C35.3129 4.3005 8.79206 30.1003 6.57226 62.3209C3.88513 100.028 33.794 131.432 70.9465 131.432Z" fill="#F3CEC4"/>
<path d="M108.624 66.778C108.624 42.6125 88.9961 23 64.8119 23C40.6277 23 21 42.6125 21 66.778C21 90.9434 40.6277 110.556 64.8119 110.556C88.9961 110.556 108.624 90.9434 108.624 66.778Z" fill="#E0846C"/>
<path d="M73.9375 77.5625V73.058C72.9464 72.9672 72.007 72.5745 71.2462 71.9329C70.4854 71.2912 69.9399 70.4316 69.6832 69.47L69.0625 70.0875V74.3125C69.0638 75.3895 69.4922 76.4221 70.2538 77.1837C71.0154 77.9453 72.048 78.3737 73.125 78.375C73.3405 78.375 73.5472 78.2894 73.6995 78.137C73.8519 77.9846 73.9375 77.778 73.9375 77.5625Z" fill="white"/>
<path d="M58.509 66.9074C58.6617 66.8308 58.8346 66.8042 59.0032 66.8315C59.1718 66.8587 59.3276 66.9385 59.4483 67.0593L60.9376 68.5486V67.8125C60.9364 67.279 61.0403 66.7505 61.2434 66.2572C61.4465 65.7638 61.7447 65.3153 62.1211 64.9373C62.8813 64.1737 63.9137 63.7434 64.9911 63.7411C66.0686 63.7387 67.1028 64.1644 67.8664 64.9246C68.6299 65.6848 69.0602 66.7172 69.0626 67.7946L69.7979 67.0593C69.9184 66.9374 70.0745 66.8567 70.2436 66.8288C70.4128 66.801 70.5865 66.8273 70.7398 66.9041C70.893 66.981 71.0181 67.1043 71.097 67.2565C71.1759 67.4087 71.2047 67.582 71.1791 67.7516C71.0836 68.4266 71.2028 69.1146 71.5198 69.7181C71.8368 70.3217 72.3355 70.8103 72.9455 71.1148C73.5555 71.4193 74.2458 71.5243 74.9187 71.4149C75.5916 71.3054 76.2131 70.9872 76.6952 70.5051C77.1772 70.023 77.4955 69.4015 77.6049 68.7286C77.7144 68.0557 77.6094 67.3654 77.3049 66.7554C77.0004 66.1455 76.5118 65.6467 75.9082 65.3297C75.3047 65.0127 74.6167 64.8935 73.9416 64.9891C73.7721 65.0146 73.5988 64.9858 73.4466 64.9069C73.2944 64.828 73.1711 64.7029 73.0942 64.5497C73.0174 64.3964 72.991 64.2227 73.0189 64.0535C73.0468 63.8844 73.1275 63.7283 73.2494 63.6078L78.4193 58.4297L74.7777 54.7889C74.4416 55.4927 73.9415 56.1055 73.3195 56.576C72.6975 57.0465 71.9717 57.3609 71.203 57.4928C70.4344 57.6247 69.6453 57.5702 68.902 57.334C68.1587 57.0977 67.483 56.6866 66.9315 56.1351C66.38 55.5836 65.9689 54.9079 65.7327 54.1646C65.4964 53.4214 65.442 52.6323 65.5739 51.8636C65.7058 51.0949 66.0201 50.3691 66.4906 49.7471C66.9611 49.1251 67.5739 48.625 68.2777 48.2889L64.6263 44.6514L59.4483 49.8213C59.3277 49.9432 59.1717 50.0239 59.0025 50.0518C58.8334 50.0797 58.6597 50.0533 58.5064 49.9765C58.3531 49.8996 58.2281 49.7763 58.1491 49.6241C58.0702 49.4719 58.0415 49.2986 58.067 49.1291C58.1379 48.6306 58.092 48.1224 57.933 47.6447C57.7739 47.167 57.5061 46.7328 57.1505 46.3763C56.5311 45.7862 55.7083 45.457 54.8528 45.457C53.9972 45.457 53.1745 45.7862 52.555 46.3763C52.0747 46.8589 51.758 47.4801 51.6497 48.1523C51.5414 48.8245 51.647 49.5138 51.9515 50.1228C52.2561 50.7318 52.7442 51.2297 53.347 51.5464C53.9498 51.863 54.6368 51.9823 55.311 51.8875C55.4806 51.862 55.6538 51.8907 55.8061 51.9696C55.9583 52.0485 56.0816 52.1736 56.1584 52.3269C56.2353 52.4802 56.2616 52.6538 56.2337 52.823C56.2059 52.9922 56.1252 53.1482 56.0033 53.2687L50.8325 58.4362L56.0041 63.6143C56.1261 63.7349 56.2069 63.891 56.2347 64.0603C56.2626 64.2296 56.2362 64.4033 56.1592 64.5567C56.0823 64.71 55.9588 64.835 55.8064 64.9139C55.654 64.9927 55.4806 65.0213 55.311 64.9956C54.636 64.9 53.948 65.0192 53.3444 65.3362C52.7409 65.6532 52.2522 66.152 51.9478 66.7619C51.6433 67.3719 51.5383 68.0622 51.6477 68.7351C51.7571 69.408 52.0754 70.0295 52.5575 70.5116C53.0396 70.9937 53.661 71.3119 54.334 71.4214C55.0069 71.5308 55.6972 71.4258 56.3071 71.1213C56.9171 70.8168 57.4159 70.3282 57.7329 69.7246C58.0499 69.1211 58.1691 68.4331 58.0735 67.7581C58.0469 67.5884 58.0747 67.4147 58.153 67.2619C58.2312 67.1091 58.3559 66.985 58.509 66.9074Z" fill="white"/>
<path d="M67.6943 88.2314L68.5068 86.6064C68.8999 85.8163 69.1045 84.9458 69.1045 84.0633C69.1045 83.1808 68.8999 82.3103 68.5068 81.5202L68.2094 80.9238C67.703 79.9076 67.4388 78.788 67.4375 77.6527V67.8125C67.4375 67.166 67.1807 66.546 66.7236 66.0889C66.2665 65.6318 65.6465 65.375 65 65.375C64.3535 65.375 63.7335 65.6318 63.2764 66.0889C62.8193 66.546 62.5625 67.166 62.5625 67.8125V79.1875C62.5625 79.403 62.4769 79.6096 62.3245 79.762C62.1722 79.9144 61.9655 80 61.75 80C61.5345 80 61.3278 79.9144 61.1755 79.762C61.0231 79.6096 60.9375 79.403 60.9375 79.1875V70.8464L59.5611 69.4708C59.2841 70.5068 58.6727 71.4222 57.8218 72.0749C56.9709 72.7275 55.9283 73.0809 54.8559 73.0799C54.7698 73.0799 54.6861 73.0718 54.6008 73.0677L52.6134 78.7877C52.4494 79.1389 52.3704 79.5237 52.3828 79.911C52.3952 80.2984 52.4987 80.6774 52.6849 81.0172C52.6996 81.0435 52.7126 81.0706 52.7239 81.0985L55.575 87.8455C55.8942 88.4413 56.0616 89.1066 56.0625 89.7825V90.5625H67.4375V89.321C67.4378 88.9428 67.5257 88.5699 67.6943 88.2314ZM88.5625 59.6875H83.6875C83.472 59.6875 83.2653 59.6019 83.113 59.4495C82.9606 59.2971 82.875 59.0905 82.875 58.875C82.875 58.6595 82.9606 58.4528 83.113 58.3005C83.2653 58.1481 83.472 58.0625 83.6875 58.0625H88.5625C88.778 58.0625 88.9847 58.1481 89.137 58.3005C89.2894 58.4528 89.375 58.6595 89.375 58.875C89.375 59.0905 89.2894 59.2971 89.137 59.4495C88.9847 59.6019 88.778 59.6875 88.5625 59.6875ZM82.8092 50.3437C82.6303 50.3437 82.4565 50.2847 82.3146 50.1758C82.1727 50.067 82.0707 49.9143 82.0244 49.7415C81.9781 49.5688 81.9901 49.3856 82.0586 49.2203C82.127 49.0551 82.2481 48.9171 82.4029 48.8276L86.6279 46.3901C86.8145 46.2841 87.0353 46.2561 87.2424 46.3123C87.4495 46.3685 87.6259 46.5044 87.7332 46.6902C87.8404 46.876 87.8699 47.0967 87.815 47.3041C87.7602 47.5115 87.6255 47.6889 87.4404 47.7974L83.2154 50.2349C83.092 50.3065 82.9519 50.344 82.8092 50.3437ZM87.0301 71.4687C86.8875 71.469 86.7473 71.4315 86.6239 71.3599L82.3989 68.9224C82.3057 68.8694 82.224 68.7985 82.1583 68.7139C82.0927 68.6292 82.0444 68.5323 82.0163 68.4289C81.9883 68.3255 81.9809 68.2176 81.9947 68.1113C82.0085 68.0051 82.0432 67.9026 82.0968 67.8098C82.1504 67.717 82.2218 67.6357 82.3069 67.5706C82.392 67.5055 82.4892 67.4579 82.5928 67.4305C82.6964 67.4031 82.8044 67.3965 82.9105 67.411C83.0167 67.4256 83.1189 67.4609 83.2114 67.5151L87.4364 69.9526C87.5913 70.042 87.7123 70.1801 87.7808 70.3453C87.8492 70.5106 87.8612 70.6938 87.8149 70.8665C87.7686 71.0393 87.6666 71.1919 87.5247 71.3008C87.3828 71.4097 87.209 71.4687 87.0301 71.4687ZM46.3125 59.6875H41.4375C41.222 59.6875 41.0153 59.6019 40.863 59.4495C40.7106 59.2971 40.625 59.0905 40.625 58.875C40.625 58.6595 40.7106 58.4528 40.863 58.3005C41.0153 58.1481 41.222 58.0625 41.4375 58.0625H46.3125C46.528 58.0625 46.7347 58.1481 46.887 58.3005C47.0394 58.4528 47.125 58.6595 47.125 58.875C47.125 59.0905 47.0394 59.2971 46.887 59.4495C46.7347 59.6019 46.528 59.6875 46.3125 59.6875ZM47.1908 50.3437C47.0481 50.344 46.908 50.3065 46.7846 50.2349L42.5596 47.7974C42.3745 47.6889 42.2398 47.5115 42.185 47.3041C42.1301 47.0967 42.1596 46.876 42.2668 46.6902C42.3741 46.5044 42.5505 46.3685 42.7576 46.3123C42.9647 46.2561 43.1855 46.2841 43.3721 46.3901L47.5971 48.8276C47.7519 48.9171 47.873 49.0551 47.9414 49.2203C48.0099 49.3856 48.0219 49.5688 47.9756 49.7415C47.9293 49.9143 47.8273 50.067 47.6854 50.1758C47.5435 50.2847 47.3697 50.3437 47.1908 50.3437ZM42.9699 71.4687C42.791 71.4687 42.6172 71.4097 42.4753 71.3008C42.3334 71.1919 42.2314 71.0393 42.1851 70.8665C42.1388 70.6938 42.1508 70.5106 42.2193 70.3453C42.2877 70.1801 42.4087 70.042 42.5636 69.9526L46.7886 67.5151C46.8811 67.4609 46.9833 67.4256 47.0895 67.411C47.1956 67.3965 47.3036 67.4031 47.4072 67.4305C47.5108 67.4579 47.608 67.5055 47.6931 67.5706C47.7782 67.6357 47.8496 67.717 47.9032 67.8098C47.9568 67.9026 47.9915 68.0051 48.0053 68.1113C48.0191 68.2176 48.0117 68.3255 47.9837 68.4289C47.9556 68.5323 47.9073 68.6292 47.8417 68.7139C47.776 68.7985 47.6943 68.8694 47.6011 68.9224L43.3761 71.3599C43.2527 71.4315 43.1125 71.469 42.9699 71.4687Z" fill="white"/>
<path d="M121.067 27.5319C121.067 24.1464 119.665 20.9944 117.211 18.5429C109.734 11.4216 100.504 5.9348 90.5735 2.89952C89.4052 2.58821 88.2758 2.27691 87.1854 1.9656C80.7597 0.331222 74.1002 -0.252483 67.4408 0.0977415C33.6764 1.73212 6.3378 28.4659 4.00116 62.2041C2.71601 80.9995 9.02492 98.9776 21.8764 112.636C34.4942 126.178 52.3695 134 70.9458 134C73.7497 134 76.7874 133.767 79.5914 133.416C82.1616 133.105 84.693 132.638 87.1854 132.015C98.4013 129.214 108.682 123.493 117.094 115.555C119.898 112.87 121.3 109.134 120.95 105.282C120.716 101.546 118.73 98.2772 115.692 96.1758C114.057 95.0862 112.538 93.841 111.136 92.4401C110.084 91.5062 108.566 91.5062 107.514 92.5568C106.579 93.6075 106.579 95.2419 107.631 96.1758C109.267 97.7324 110.98 99.1333 112.772 100.378C114.641 101.546 115.692 103.531 115.926 105.749C116.043 107.967 115.225 110.185 113.589 111.819C105.878 119.174 96.2983 124.427 85.9003 126.996C83.6415 127.618 81.3438 128.085 79.0072 128.396C76.3201 128.747 73.6329 128.863 70.9458 128.863C53.7715 128.863 37.2982 121.742 25.615 109.134C13.815 96.526 7.85661 79.9488 9.14175 62.5543C11.2447 31.3844 36.4804 6.75199 67.6745 5.11761C73.8666 4.88413 79.9418 5.46783 85.9003 6.86873C86.9907 7.18004 88.0422 7.49135 89.0547 7.80266C98.2844 10.6045 106.696 15.6243 113.706 22.2786C115.342 23.7962 116.16 26.0143 115.926 28.2324C115.809 30.4505 114.641 32.4351 112.888 33.6025C111.019 34.8477 109.267 36.2486 107.631 37.8052C106.579 38.7391 106.579 40.3735 107.514 41.4242C108.566 42.4748 110.084 42.4748 111.136 41.5409C112.538 40.14 114.057 38.8948 115.692 37.8052C118.73 35.7038 120.716 32.4351 121.067 28.6994C121.067 28.3102 121.067 27.9211 121.067 27.5319Z" fill="#E0846C"/>
<path d="M33.3263 114.154C33.3263 112.403 32.6253 110.768 31.3402 109.484C19.0729 98.0436 12.2966 81.9333 12.7639 65.2393C13.2313 49.8294 19.8907 35.3535 31.3402 24.6133C33.9105 22.1617 34.0273 18.1925 31.5739 15.6242C29.2372 13.0559 25.1481 12.8224 22.5778 15.274C8.55799 28.349 0.613442 45.977 0.0292842 64.889C-0.554874 85.202 7.62334 104.931 22.5778 118.824C25.1481 121.275 29.2372 121.042 31.6907 118.473C32.7422 117.306 33.3263 115.672 33.3263 114.154Z" fill="#E0846C"/>
<path d="M143.966 79.0146C150.626 79.0146 156 73.6445 156 66.9903C156 60.336 150.626 54.9659 143.966 54.9659C137.307 54.9659 131.933 60.336 131.933 66.9903C131.933 73.6446 137.307 79.0146 143.966 79.0146Z" fill="#E0846C"/>
</svg>
