<svg width="156" height="134" viewBox="0 0 156 134" fill="none" xmlns="http://www.w3.org/2000/svg">
<path d="M70.9465 131.432C73.7505 131.432 76.5545 131.237 79.3584 130.848C81.773 130.537 84.1875 130.109 86.602 129.564C72.8159 112.403 64.5208 90.6891 64.5208 66.9906C64.5208 43.2921 72.8159 21.5782 86.4852 4.41724C80.5268 2.89961 74.101 2.3159 67.5584 2.66612C35.3129 4.3005 8.79206 30.1003 6.57226 62.3209C3.88513 100.028 33.794 131.432 70.9465 131.432Z" fill="#C3DBE2"/>
<path d="M108.624 66.7781C108.624 42.6127 88.9961 23.0001 64.8119 23.0001C40.6277 23.0001 21 42.6127 21 66.7781C21 90.9436 40.6277 110.556 64.8119 110.556C88.9961 110.556 108.624 90.9436 108.624 66.7781Z" fill="#69A5B6"/>
<path d="M71.7204 85.9336H58.2798L59.4118 79.3929H70.5884L71.7204 85.9336Z" fill="white"/>
<path d="M71.7204 85.9336H69.0251L67.8931 79.3929H70.5884L71.7204 85.9336Z" fill="white"/>
<path d="M88 49.5227V77.2628C88 78.809 86.7422 80.0668 85.196 80.0668H44.804C43.4492 80.0668 42.3154 79.101 42.0566 77.8207C42.0189 77.641 42 77.4542 42 77.2628V49.5227C42 47.9764 43.2578 46.7186 44.804 46.7186H85.196C86.7422 46.7186 88 47.9764 88 49.5227Z" fill="white"/>
<path d="M88 49.5227V77.2628C88 78.809 86.7422 80.0668 85.196 80.0668H44.8041C43.4492 80.0668 42.3154 79.101 42.0566 77.8207H82.9499C84.4988 77.8207 85.7539 76.5656 85.7539 75.0167V49.5227C85.7539 47.9737 84.4988 46.7186 82.9499 46.7186H85.196C86.7422 46.7186 88 47.9764 88 49.5227Z" fill="white"/>
<path d="M88 75.7992V77.2627C88 78.809 86.7422 80.0668 85.196 80.0668H44.804C43.4492 80.0668 42.3154 79.101 42.0566 77.8207C42.0189 77.641 42 77.4541 42 77.2627V75.7992H88Z" fill="white"/>
<path d="M85.6434 75.7992H88V77.2627C88 78.809 86.7422 80.0668 85.196 80.0668H44.8041C43.4492 80.0668 42.3154 79.101 42.0566 77.8207H82.9499C84.2266 77.8207 85.3047 76.9672 85.6434 75.7992Z" fill="white"/>
<path d="M83.3254 67.971H81.0029L79.0518 64.1361C78.9954 64.0253 78.9095 63.9322 78.8035 63.8672C78.6975 63.8022 78.5755 63.7678 78.4512 63.7678C78.3269 63.7678 78.2049 63.8022 78.0989 63.8672C77.9929 63.9322 77.907 64.0253 77.8506 64.1361L74.6707 70.386L71.9872 65.1118C71.9308 65.001 71.8449 64.9079 71.7389 64.8429C71.6329 64.7779 71.5109 64.7435 71.3866 64.7435C71.2623 64.7435 71.1404 64.7779 71.0344 64.8429C70.9284 64.9079 70.8424 65.001 70.786 65.1118L69.3313 67.9709H67.0088C66.8301 67.9709 66.6587 68.0419 66.5323 68.1682C66.406 68.2946 66.335 68.466 66.335 68.6447C66.335 68.8234 66.406 68.9948 66.5323 69.1212C66.6587 69.2475 66.8301 69.3185 67.0088 69.3185H69.7445C69.8689 69.3185 69.9908 69.2841 70.0968 69.2191C70.2028 69.1541 70.2887 69.0611 70.3451 68.9503L71.3866 66.9033L74.0701 72.1776C74.1265 72.2884 74.2124 72.3815 74.3184 72.4465C74.4244 72.5115 74.5463 72.5459 74.6707 72.5459C74.795 72.5459 74.9169 72.5115 75.0229 72.4465C75.1289 72.3815 75.2149 72.2884 75.2713 72.1776L78.4512 65.9276L79.9891 68.9503C80.0454 69.0612 80.1314 69.1542 80.2374 69.2192C80.3434 69.2842 80.4653 69.3186 80.5897 69.3186H83.3254C83.5041 69.3186 83.6755 69.2476 83.8019 69.1212C83.9282 68.9949 83.9992 68.8235 83.9992 68.6448C83.9992 68.4661 83.9282 68.2947 83.8019 68.1683C83.6755 68.0419 83.5041 67.971 83.3254 67.971Z" fill="#69A5B6"/>
<path d="M70.5059 53.5551H67.0093C66.8901 53.5551 66.7759 53.6024 66.6916 53.6866C66.6074 53.7709 66.5601 53.8851 66.5601 54.0043V61.0978C66.5601 61.2169 66.6074 61.3312 66.6916 61.4154C66.7759 61.4997 66.8901 61.547 67.0093 61.547H70.5059C70.625 61.547 70.7393 61.4997 70.8236 61.4154C70.9078 61.3312 70.9551 61.2169 70.9551 61.0978V54.0043C70.9551 53.8851 70.9078 53.7709 70.8236 53.6866C70.7393 53.6024 70.625 53.5551 70.5059 53.5551Z" fill="#69A5B6"/>
<path d="M76.9395 55.4827H73.4429C73.3237 55.4827 73.2095 55.53 73.1252 55.6142C73.041 55.6985 72.9937 55.8127 72.9937 55.9319V61.0979C72.9937 61.217 73.041 61.3313 73.1252 61.4155C73.2095 61.4998 73.3237 61.5471 73.4429 61.5471H76.9395C77.0586 61.5471 77.1729 61.4998 77.2571 61.4155C77.3414 61.3313 77.3887 61.217 77.3887 61.0979V55.9319C77.3887 55.8127 77.3414 55.6985 77.2571 55.6142C77.1729 55.53 77.0586 55.4827 76.9395 55.4827Z" fill="#69A5B6"/>
<path d="M83.3257 51.7766H79.8291C79.71 51.7766 79.5957 51.8239 79.5115 51.9082C79.4272 51.9924 79.3799 52.1067 79.3799 52.2258V61.0978C79.3799 61.217 79.4272 61.3312 79.5115 61.4155C79.5957 61.4997 79.71 61.547 79.8291 61.547H83.3257C83.4449 61.547 83.5591 61.4997 83.6434 61.4155C83.7276 61.3312 83.7749 61.217 83.7749 61.0978V52.2258C83.7749 52.1067 83.7276 51.9924 83.6434 51.9082C83.5591 51.8239 83.4449 51.7766 83.3257 51.7766Z" fill="#69A5B6"/>
<path d="M73.2839 84.5859H56.7163C55.972 84.5859 55.3687 85.1893 55.3687 85.9336C55.3687 86.6779 55.972 87.2812 56.7163 87.2812H73.284C74.0283 87.2812 74.6317 86.6779 74.6317 85.9336C74.6316 85.1892 74.0283 84.5859 73.2839 84.5859Z" fill="white"/>
<path d="M61.936 59.1745H46.6626C46.4839 59.1745 46.3125 59.2455 46.1861 59.3719C46.0598 59.4983 45.9888 59.6696 45.9888 59.8484C45.9888 60.0271 46.0598 60.1985 46.1861 60.3248C46.3125 60.4512 46.4839 60.5222 46.6626 60.5222H61.936C62.1147 60.5222 62.2861 60.4512 62.4125 60.3248C62.5389 60.1985 62.6099 60.0271 62.6099 59.8484C62.6099 59.6696 62.5389 59.4983 62.4125 59.3719C62.2861 59.2455 62.1147 59.1745 61.936 59.1745ZM46.6626 64.1016H49.3958C49.5745 64.1016 49.7459 64.0307 49.8723 63.9043C49.9987 63.7779 50.0697 63.6065 50.0697 63.4278C50.0697 63.2491 49.9987 63.0777 49.8723 62.9514C49.7459 62.825 49.5745 62.754 49.3958 62.754H46.6626C46.4839 62.754 46.3125 62.825 46.1861 62.9514C46.0598 63.0777 45.9888 63.2491 45.9888 63.4278C45.9888 63.6065 46.0598 63.7779 46.1861 63.9043C46.3125 64.0307 46.4839 64.1016 46.6626 64.1016ZM61.936 62.754H52.4833C52.3046 62.754 52.1332 62.825 52.0068 62.9514C51.8805 63.0777 51.8095 63.2491 51.8095 63.4278C51.8095 63.6065 51.8805 63.7779 52.0068 63.9043C52.1332 64.0307 52.3046 64.1016 52.4833 64.1016H61.936C62.1147 64.1016 62.2861 64.0307 62.4125 63.9043C62.5389 63.7779 62.6099 63.6065 62.6099 63.4278C62.6099 63.2491 62.5389 63.0777 62.4125 62.9514C62.2861 62.825 62.1147 62.754 61.936 62.754ZM46.6626 52.8997H61.936C62.1147 52.8997 62.2861 52.8287 62.4125 52.7023C62.5389 52.5759 62.6099 52.4045 62.6099 52.2258C62.6099 52.0471 62.5389 51.8757 62.4125 51.7494C62.2861 51.623 62.1147 51.552 61.936 51.552H46.6626C46.4839 51.552 46.3125 51.623 46.1861 51.7494C46.0598 51.8757 45.9888 52.0471 45.9888 52.2258C45.9888 52.4045 46.0598 52.5759 46.1861 52.7023C46.3125 52.8287 46.4839 52.8997 46.6626 52.8997ZM46.6626 56.4792H56.1341C56.3128 56.4792 56.4842 56.4082 56.6106 56.2819C56.7369 56.1555 56.8079 55.9841 56.8079 55.8054C56.8079 55.6267 56.7369 55.4553 56.6106 55.3289C56.4842 55.2025 56.3128 55.1316 56.1341 55.1316H46.6626C46.4839 55.1316 46.3125 55.2025 46.1861 55.3289C46.0598 55.4553 45.9888 55.6267 45.9888 55.8054C45.9888 55.9841 46.0598 56.1555 46.1861 56.2819C46.3125 56.4082 46.4839 56.4792 46.6626 56.4792ZM61.936 55.1316H59.2216C59.0429 55.1316 58.8715 55.2025 58.7451 55.3289C58.6188 55.4553 58.5478 55.6267 58.5478 55.8054C58.5478 55.9841 58.6188 56.1555 58.7451 56.2819C58.8715 56.4082 59.0429 56.4792 59.2216 56.4792H61.936C62.1147 56.4792 62.2861 56.4082 62.4125 56.2819C62.5389 56.1555 62.6099 55.9841 62.6099 55.8054C62.6099 55.6267 62.5389 55.4553 62.4125 55.3289C62.2861 55.2025 62.1147 55.1316 61.936 55.1316ZM61.936 66.2901H46.6626C46.4839 66.2901 46.3125 66.3611 46.1861 66.4874C46.0598 66.6138 45.9888 66.7852 45.9888 66.9639C45.9888 67.1426 46.0598 67.314 46.1861 67.4404C46.3125 67.5667 46.4839 67.6377 46.6626 67.6377H61.936C62.1147 67.6377 62.2861 67.5667 62.4125 67.4404C62.5389 67.314 62.6099 67.1426 62.6099 66.9639C62.6099 66.7852 62.5389 66.6138 62.4125 66.4874C62.2861 66.3611 62.1147 66.2901 61.936 66.2901ZM53.8501 69.8506H46.6626C46.4839 69.8506 46.3125 69.9216 46.1861 70.0479C46.0598 70.1743 45.9888 70.3457 45.9888 70.5244C45.9888 70.7031 46.0598 70.8745 46.1861 71.0009C46.3125 71.1272 46.4839 71.1982 46.6626 71.1982H53.8501C54.0288 71.1982 54.2002 71.1272 54.3266 71.0009C54.4529 70.8745 54.5239 70.7031 54.5239 70.5244C54.5239 70.3457 54.4529 70.1743 54.3266 70.0479C54.2002 69.9216 54.0288 69.8506 53.8501 69.8506Z" fill="#69A5B6"/>
<path d="M74.6313 85.9336C74.6313 86.6775 74.0276 87.2812 73.2837 87.2812H70.5884C71.3323 87.2812 71.936 86.6775 71.936 85.9336C71.936 85.1888 71.3323 84.5859 70.5884 84.5859H73.2837C74.0276 84.5859 74.6313 85.1888 74.6313 85.9336Z" fill="white"/>
<path d="M121.067 27.5319C121.067 24.1464 119.665 20.9944 117.211 18.5429C109.734 11.4216 100.504 5.9348 90.5735 2.89952C89.4052 2.58821 88.2758 2.27691 87.1854 1.9656C80.7597 0.331222 74.1002 -0.252483 67.4408 0.0977415C33.6764 1.73212 6.3378 28.4659 4.00116 62.2041C2.71601 80.9995 9.02492 98.9776 21.8764 112.636C34.4942 126.178 52.3695 134 70.9458 134C73.7497 134 76.7874 133.767 79.5914 133.416C82.1616 133.105 84.693 132.638 87.1854 132.015C98.4013 129.214 108.682 123.493 117.094 115.555C119.898 112.87 121.3 109.134 120.95 105.282C120.716 101.546 118.73 98.2772 115.692 96.1758C114.057 95.0862 112.538 93.841 111.136 92.4401C110.084 91.5062 108.566 91.5062 107.514 92.5568C106.579 93.6075 106.579 95.2419 107.631 96.1758C109.267 97.7324 110.98 99.1333 112.772 100.378C114.641 101.546 115.692 103.531 115.926 105.749C116.043 107.967 115.225 110.185 113.589 111.819C105.878 119.174 96.2983 124.427 85.9003 126.996C83.6415 127.618 81.3438 128.085 79.0072 128.396C76.3201 128.747 73.6329 128.863 70.9458 128.863C53.7715 128.863 37.2982 121.742 25.615 109.134C13.815 96.526 7.85661 79.9488 9.14175 62.5543C11.2447 31.3844 36.4804 6.75199 67.6745 5.11761C73.8666 4.88413 79.9418 5.46783 85.9003 6.86873C86.9907 7.18004 88.0422 7.49135 89.0547 7.80266C98.2844 10.6045 106.696 15.6243 113.706 22.2786C115.342 23.7962 116.16 26.0143 115.926 28.2324C115.809 30.4505 114.641 32.4351 112.888 33.6025C111.019 34.8477 109.267 36.2486 107.631 37.8052C106.579 38.7391 106.579 40.3735 107.514 41.4242C108.566 42.4748 110.084 42.4748 111.136 41.5409C112.538 40.14 114.057 38.8948 115.692 37.8052C118.73 35.7038 120.716 32.4351 121.067 28.6994C121.067 28.3102 121.067 27.9211 121.067 27.5319Z" fill="#69A5B6"/>
<path d="M33.3263 114.154C33.3263 112.403 32.6253 110.768 31.3402 109.484C19.0729 98.0436 12.2966 81.9333 12.7639 65.2393C13.2313 49.8294 19.8907 35.3535 31.3402 24.6133C33.9105 22.1617 34.0273 18.1925 31.5739 15.6242C29.2372 13.0559 25.1481 12.8224 22.5778 15.274C8.55799 28.349 0.613442 45.977 0.0292842 64.889C-0.554874 85.202 7.62334 104.931 22.5778 118.824C25.1481 121.275 29.2372 121.042 31.6907 118.473C32.7422 117.306 33.3263 115.672 33.3263 114.154Z" fill="#69A5B6"/>
<path d="M143.966 79.0146C150.626 79.0146 156 73.6445 156 66.9903C156 60.336 150.626 54.9659 143.966 54.9659C137.307 54.9659 131.933 60.336 131.933 66.9903C131.933 73.6446 137.307 79.0146 143.966 79.0146Z" fill="#69A5B6"/>
</svg>
