<svg width="80" height="80" viewBox="0 0 80 80" fill="none" xmlns="http://www.w3.org/2000/svg">
<g clip-path="url(#clip0_629_1028)">
<path d="M71.367 49.1021L62.5019 60.695C61.6267 61.8394 60.4996 62.7667 59.2081 63.4049C57.9166 64.0432 56.4953 64.3752 55.0547 64.3752H38.5938C37.2994 64.3752 36.25 63.3258 36.25 62.0314C36.25 60.7371 37.2994 59.6877 38.5938 59.6877H52.8608C55.9272 59.6877 58.4952 57.1782 58.4366 54.1122C58.3797 51.1411 55.9534 48.7502 52.9688 48.7502H36.5625C31.852 44.221 24.583 43.691 19.2653 47.4893L17.5 48.7502V75.3127H58.26C60.6147 75.3127 62.9318 74.7214 64.9986 73.593C67.0654 72.4646 68.8157 70.8353 70.0891 68.8546L79.2358 54.6263C79.7347 53.8502 79.9999 52.9471 79.9998 52.0246C80 47.4236 74.1617 45.4472 71.367 49.1021ZM10.4688 44.0627H2.34375C1.04937 44.0627 0 45.1121 0 46.4064V77.6564C0 78.9508 1.04937 80.0002 2.34375 80.0002H10.4688C11.7631 80.0002 12.8125 78.9508 12.8125 77.6564V46.4064C12.8125 45.1121 11.7631 44.0627 10.4688 44.0627ZM44.7359 12.9541C44.2591 13.3197 43.9962 13.8733 43.9059 14.3535C43.7811 15.0158 43.9391 15.6311 44.3086 15.9208C44.4462 16.0278 44.5888 16.1282 44.7359 16.2218V12.9541Z" fill="#102694"/>
<path d="M46.4062 39.0625C57.1758 39.0625 65.9375 30.3008 65.9375 19.5312C65.9375 8.76172 57.1758 0 46.4062 0C35.6367 0 26.875 8.76172 26.875 19.5312C26.875 30.3008 35.6367 39.0625 46.4062 39.0625ZM40.4939 25.917C40.9661 25.1952 41.9347 24.992 42.6569 25.4648C43.5008 26.0169 44.0297 26.2563 44.7359 26.3555V19.7569C43.738 19.2995 42.992 18.8594 42.38 18.3792C41.0833 17.3622 40.4912 15.5978 40.8348 13.7742C41.2092 11.787 42.5925 10.2059 44.4445 9.64812C44.5412 9.61915 44.6383 9.5918 44.7359 9.56609V8.59375C44.7359 7.73094 45.4356 7.03125 46.2984 7.03125C47.1612 7.03125 47.8609 7.73094 47.8609 8.59375V9.39484C49.378 9.6575 50.4502 10.4044 50.9695 11.0005C51.5364 11.6511 51.4683 12.6381 50.8177 13.2048C50.1705 13.7686 49.1906 13.7045 48.6222 13.0634C48.5866 13.0273 48.3383 12.7883 47.8609 12.6122V17.6609C48.1383 17.7639 48.4155 17.8638 48.6875 17.96C51.4341 18.9309 52.9617 21.4734 52.4889 24.2867C52.1212 26.4734 50.4572 28.6911 47.8609 29.3497V30.4688C47.8609 31.3316 47.1612 32.0312 46.2984 32.0312C45.4356 32.0312 44.7359 31.3316 44.7359 30.4688V29.4997C43.4744 29.3906 42.4286 29.0498 40.9461 28.08C40.2239 27.6075 40.0216 26.6392 40.4939 25.917Z" fill="#333333"/>
<path d="M49.4071 23.7685C49.5097 23.1577 49.5518 21.7023 47.8608 20.9902V26.0091C48.7397 25.5057 49.2647 24.6154 49.4071 23.7685Z" fill="#333333"/>
</g>
<defs>
<clipPath id="clip0_629_1028">
<rect width="80" height="80" fill="white"/>
</clipPath>
</defs>
</svg>
