<svg width="80" height="80" viewBox="0 0 80 80" fill="none" xmlns="http://www.w3.org/2000/svg">
<g clip-path="url(#clip0_629_2533)">
<path d="M40 80C17.9437 80 0 62.0563 0 40C0 17.9437 17.9437 0 40 0C62.0563 0 80 17.9437 80 40C80 62.0563 62.0563 80 40 80Z" fill="#333333"/>
<path d="M40 0V80C62.0563 80 80 62.0563 80 40C80 17.9437 62.0563 0 40 0Z" fill="#333333"/>
<path d="M40 66.7188C25.2672 66.7188 13.2812 54.7328 13.2812 40C13.2812 25.2672 25.2672 13.2812 40 13.2812C54.7328 13.2812 66.7188 25.2672 66.7188 40C66.7188 54.7328 54.7328 66.7188 40 66.7188Z" fill="#D9E7F3"/>
<path d="M40 13.2812V66.7188C54.7328 66.7188 66.7188 54.7328 66.7188 40C66.7188 25.2672 54.7328 13.2812 40 13.2812Z" fill="#C8D4DF"/>
<path d="M40 52.6562C33.0212 52.6562 27.3438 46.9788 27.3438 40C27.3438 33.0212 33.0212 27.3438 40 27.3438C46.9788 27.3438 52.6562 33.0212 52.6562 40C52.6562 46.9788 46.9788 52.6562 40 52.6562Z" fill="#333333"/>
<path d="M40 27.3438V52.6562C46.9788 52.6562 52.6562 46.9788 52.6562 40C52.6562 33.0212 46.9788 27.3438 40 27.3438Z" fill="#333333"/>
<path d="M40 42.3439C39.4 42.3439 38.8 42.115 38.343 41.6571C37.4273 40.7423 37.4273 39.2579 38.343 38.3431L55.5786 21.1071C56.4936 20.1918 57.978 20.1918 58.8928 21.1071C59.8084 22.0221 59.8084 23.506 58.8928 24.4215L41.657 41.6571C41.4397 41.8752 41.1815 42.0481 40.8971 42.166C40.6127 42.2838 40.3078 42.3443 40 42.3439Z" fill="#102694"/>
<path d="M58.8928 21.1072L38.3428 41.6572C38.8 42.1148 39.4 42.3437 40 42.3437C40.6 42.3437 41.2 42.1148 41.657 41.657L58.8929 24.4214C59.8082 23.5064 59.8082 22.022 58.8929 21.1072H58.8928Z" fill="#102694"/>
<path d="M66.4061 25.8812C66.3408 25.8812 66.2748 25.8782 66.2089 25.8733L57.0391 25.0999C55.9 25.0035 54.9963 24.1002 54.9003 22.9613L54.1264 13.7908C54.0978 13.451 54.1438 13.109 54.261 12.7888C54.3782 12.4685 54.5639 12.1777 54.8052 11.9366L64.7484 1.99334C65.0643 1.67737 65.4639 1.45827 65.9002 1.36186C66.3365 1.26545 66.7912 1.29574 67.2108 1.44917C67.6304 1.6026 67.9975 1.87278 68.2686 2.22786C68.5398 2.58294 68.7038 3.00814 68.7414 3.45334L69.348 10.6512L76.5464 11.2585C76.9917 11.2962 77.4169 11.4603 77.772 11.7314C78.1271 12.0026 78.3974 12.3697 78.5509 12.7893C78.7042 13.2089 78.7344 13.6636 78.6379 14.0998C78.5415 14.5359 78.3223 14.9355 78.0064 15.2513L68.0631 25.1946C67.6237 25.6341 67.0276 25.8812 66.4061 25.8813V25.8812Z" fill="#102694"/>
<path d="M76.5466 11.2587L69.3488 10.6514L55.5786 24.4215C55.9697 24.8134 56.487 25.0539 57.0386 25.1003L66.2091 25.8736C66.275 25.8784 66.3403 25.8814 66.4063 25.8814C67.025 25.8814 67.6221 25.6361 68.0633 25.1948L78.0066 15.2515C78.3226 14.9356 78.5417 14.5359 78.6381 14.0996C78.7346 13.6633 78.7044 13.2086 78.5511 12.7889C78.3974 12.3694 78.1271 12.0025 77.772 11.7314C77.4169 11.4604 76.9917 11.2964 76.5466 11.2587Z" fill="#102694"/>
</g>
<defs>
<clipPath id="clip0_629_2533">
<rect width="80" height="80" fill="white"/>
</clipPath>
</defs>
</svg>
