<svg width="80" height="80" viewBox="0 0 80 80" fill="none" xmlns="http://www.w3.org/2000/svg">
<g clip-path="url(#clip0_629_1001)">
<path d="M43.0211 17.2452C42.9189 15.3368 40.9685 15.6615 39.0655 15.6615C40.4712 16.0359 41.8011 16.5568 43.0211 17.2452ZM22.6774 12.4624C15.2896 12.4624 11.8891 21.8135 17.795 26.5165C19.8083 21.1407 23.8161 17.2806 29.0703 15.757C27.633 13.77 25.3109 12.4624 22.6774 12.4624Z" fill="#333333"/>
<path d="M7.41532 25.0532C7.71458 26.0102 8.10106 26.9378 8.56989 27.8242L6.14308 30.2524C5.49137 30.9041 5.49137 31.9619 6.14308 32.615L10.4207 36.8939C10.7351 37.2065 11.1606 37.3816 11.6039 37.3808C12.0439 37.3808 12.4679 37.2054 12.7848 36.8939L15.2089 34.4658C15.5727 34.6583 15.9759 34.7763 16.3527 34.9423C16.3527 34.9147 16.35 34.886 16.35 34.8584C16.35 32.8741 16.5779 31.0022 16.9837 29.2445C14.0569 27.3608 12.1039 24.0911 12.1039 20.358C12.1039 14.5267 16.8475 9.78176 22.6775 9.78176C26.6252 9.78176 30.0336 11.9795 31.853 15.1903C33.7955 14.9494 35.6202 14.9494 37.8165 15.3645C37.534 14.5098 37.2016 13.6733 36.7852 12.8893L39.212 10.4599C39.3681 10.3055 39.4919 10.1216 39.5764 9.91891C39.6608 9.71623 39.7042 9.4988 39.7039 9.27923C39.7042 9.05967 39.6608 8.84223 39.5764 8.63955C39.4919 8.43687 39.3681 8.25297 39.212 8.09853L34.9368 3.82228C34.782 3.66685 34.598 3.54357 34.3954 3.45955C34.1928 3.37553 33.9756 3.33243 33.7562 3.33274C33.5372 3.33222 33.3203 3.37522 33.118 3.45926C32.9158 3.5433 32.7322 3.6667 32.5781 3.82228L30.1435 6.25162C29.264 5.78568 28.3399 5.39559 27.3714 5.10109V1.6689C27.3714 0.747463 26.6279 0 25.7037 0H19.6539C18.735 0 17.9835 0.747463 17.9835 1.6689V5.10092C17.0175 5.39543 16.0932 5.78551 15.2111 6.25145L12.7848 3.82481C12.63 3.66938 12.4459 3.54611 12.2432 3.46209C12.0406 3.37808 11.8233 3.33497 11.6039 3.33526C11.3847 3.33479 11.1675 3.37769 10.9649 3.46147C10.7623 3.54525 10.5783 3.66828 10.4234 3.82346L6.14308 8.09971C5.83115 8.41403 5.65615 8.83894 5.65623 9.28176C5.65594 9.72424 5.831 10.1488 6.14308 10.4625L8.56989 12.8905C8.10631 13.7701 7.71639 14.6956 7.42071 15.6615H3.99121C3.06708 15.6615 2.3208 16.4101 2.3208 17.3329V23.3829C2.3208 24.303 3.06708 25.0532 3.99121 25.0532H7.41532ZM59.8227 57.4259C62.4984 55.9584 64.336 53.1496 64.336 49.8901C64.336 45.1334 60.4643 41.2644 55.7076 41.2644C54.0349 41.2644 52.4848 41.7644 51.1603 42.5916C50.3672 45.7487 49.1184 48.7685 47.4849 51.3916C52.0665 52.2533 56.3297 54.3384 59.8227 57.4259Z" fill="#333333"/>
<path d="M77.6768 46.6259C77.6768 45.6298 76.8678 44.8233 75.8755 44.8233H72.1741C71.8545 43.78 71.4305 42.78 70.9278 41.8311L73.5482 39.2108C73.7161 39.044 73.8493 38.8455 73.9401 38.6269C74.0309 38.4083 74.0774 38.1739 74.077 37.9372C74.077 37.4593 73.8885 37.0011 73.5482 36.6622L68.9354 32.0482C68.7684 31.8803 68.5698 31.7471 68.351 31.6563C68.1322 31.5655 67.8977 31.5189 67.6609 31.5192C67.4244 31.5189 67.1901 31.5655 66.9718 31.6563C66.7534 31.7471 66.5552 31.8803 66.3886 32.0482L63.7629 34.6698C62.815 34.1672 61.8177 33.7459 60.7705 33.4276V29.726C60.7705 28.7313 59.9667 27.9248 58.972 27.9248H52.4457C52.0084 27.9248 51.6236 28.1001 51.3097 28.3594C51.8593 30.3646 52.1603 32.5389 52.1603 34.8583C52.1603 36.3308 52.0454 37.8259 51.8306 39.3126C53.0452 38.8648 54.3383 38.5837 55.7077 38.5837C61.9433 38.5837 67.0167 43.6559 67.0167 49.89C67.0167 53.8746 64.9357 57.3668 61.8125 59.3813C64.1307 61.9222 65.9172 64.9013 67.0666 68.1432C67.2601 68.21 67.4618 68.2585 67.6634 68.2585C68.1241 68.2585 68.585 68.0832 68.9383 67.7309L73.5537 63.1168C73.8916 62.779 74.0773 62.3209 74.0773 61.8432C74.0773 61.3655 73.8916 60.9074 73.5537 60.5683L70.928 57.9466C71.4307 56.999 71.8547 55.9987 72.1743 54.9544H75.8757C76.3521 54.9544 76.8155 54.7659 77.1506 54.4254C77.3182 54.2583 77.4512 54.0598 77.542 53.8413C77.6327 53.6227 77.6795 53.3884 77.6796 53.1518L77.6768 46.6259ZM63.391 69.7743C60.5923 61.5398 53.1971 55.8761 44.6601 55.1052C41.8014 58.1325 38.262 60.0531 34.2537 60.0531C30.2486 60.0531 26.7065 58.1327 23.8505 55.1052C15.3084 55.8761 7.91282 61.5398 5.11414 69.7757L3.56712 74.3294C3.12461 75.6397 3.33651 77.0836 4.14297 78.2078C4.54009 78.762 5.06351 79.2136 5.6699 79.5253C6.27628 79.8369 6.94817 79.9996 7.62995 80H60.875C62.2599 80 63.5584 79.3324 64.3649 78.2078C64.7614 77.6532 65.0202 77.0123 65.1198 76.3378C65.2195 75.6634 65.1572 74.975 64.938 74.3294L63.391 69.7743Z" fill="#102694"/>
<path d="M20.3711 34.8582C20.3711 45.072 26.5887 56.0318 34.2536 56.0318C41.9216 56.0318 48.1388 45.072 48.1388 34.8582C48.139 13.6861 20.3711 13.6441 20.3711 34.8582Z" fill="#102694"/>
</g>
<defs>
<clipPath id="clip0_629_1001">
<rect width="80" height="80" fill="white"/>
</clipPath>
</defs>
</svg>
