<svg width="90" height="90" viewBox="0 0 90 90" fill="none" xmlns="http://www.w3.org/2000/svg">
<rect width="90" height="90" rx="10" fill="#F6F9F6"/>
<g clip-path="url(#clip0_339_27967)">
<path d="M40.2481 39.9357C39.8028 39.9357 39.3607 39.7962 38.9827 39.5216C38.3139 39.0356 37.9852 38.2276 38.125 37.4128L38.8407 33.24L35.809 30.2848C35.2171 29.7078 35.0079 28.8609 35.2634 28.0747C35.5188 27.2883 36.1858 26.7261 37.0039 26.6073L41.1936 25.9985L43.0673 22.202C43.4332 21.4605 44.1741 21 45.0008 21C45.8275 21 46.5684 21.4605 46.9343 22.2019L48.808 25.9984L52.9978 26.6072C53.8158 26.7261 54.4828 27.2883 54.7382 28.0746C54.9937 28.8608 54.7846 29.7077 54.1926 30.2847L51.1609 33.2399L51.8766 37.4127C52.0164 38.2275 51.6877 39.0356 51.0189 39.5215C50.35 40.0075 49.4801 40.0702 48.7483 39.6857L45.0008 37.7156L41.2533 39.6859C40.9435 39.8496 40.5985 39.9353 40.2481 39.9357Z" fill="#102694"/>
<path d="M32.7603 43.8532C32.4369 43.8528 32.1185 43.7736 31.8326 43.6225L29.0634 42.1666L26.2941 43.6225C25.6189 43.9774 24.816 43.9193 24.1989 43.4711C23.5818 43.0227 23.2785 42.2772 23.4075 41.5253L23.9364 38.4416L21.696 36.2578C21.1498 35.7254 20.9569 34.944 21.1926 34.2186C21.4283 33.4931 22.0435 32.9742 22.7984 32.8644L25.8947 32.4145L27.2793 29.609C27.617 28.9249 28.3005 28.5 29.0634 28.5C29.8262 28.5 30.5097 28.9249 30.8473 29.609L32.2319 32.4145L35.328 32.8644C36.0831 32.9742 36.6985 33.4931 36.934 34.2186C37.1696 34.944 36.9768 35.7254 36.4306 36.2578L34.1903 38.4416L34.7192 41.5253C34.8481 42.2772 34.5449 43.0227 33.9278 43.4711C33.5791 43.7244 33.171 43.8532 32.7603 43.8532ZM64.6336 43.8532C64.3102 43.8528 63.9918 43.7736 63.706 43.6225L60.9367 42.1666L58.1674 43.6225C57.4922 43.9774 56.6893 43.9193 56.0723 43.4711C55.4551 43.0227 55.1518 42.2772 55.2808 41.5253L55.8098 38.4416L53.5694 36.2578C53.0232 35.7254 52.8303 34.944 53.066 34.2186C53.3017 33.4931 53.917 32.9742 54.6718 32.8644L57.7681 32.4145L59.1527 29.609C59.4903 28.9249 60.1738 28.5 60.9367 28.5C61.6995 28.5 62.383 28.9249 62.7206 29.609L64.1053 32.4145L67.2014 32.8644C67.9565 32.9742 68.5719 33.4931 68.8075 34.2186C69.0431 34.944 68.8502 35.7254 68.304 36.2578L66.0637 38.4416L66.5926 41.5253C66.7215 42.2772 66.4183 43.0227 65.8012 43.4711C65.4523 43.7244 65.0443 43.8532 64.6336 43.8532ZM33.1697 59.545C31.8366 60.7589 30.0657 61.5 28.125 61.5C26.1843 61.5 24.4134 60.7589 23.0803 59.545C21.879 60.3938 21.0938 61.7922 21.0938 63.375V67.5938C21.0938 68.3704 21.7234 69 22.5 69H33.75C34.5266 69 35.1563 68.3704 35.1563 67.5938V63.375C35.1563 61.7922 34.371 60.3938 33.1697 59.545ZM28.125 58.6875C25.5403 58.6875 23.4375 56.5847 23.4375 54C23.4375 51.4153 25.5403 49.3125 28.125 49.3125C30.7097 49.3125 32.8125 51.4153 32.8125 54C32.8125 56.5847 30.7097 58.6875 28.125 58.6875ZM66.9197 59.545C65.5866 60.7589 63.8157 61.5 61.875 61.5C59.9343 61.5 58.1635 60.7589 56.8303 59.545C55.629 60.3938 54.8438 61.7922 54.8438 63.375V67.5938C54.8438 68.3704 55.4734 69 56.25 69H67.5C68.2766 69 68.9063 68.3704 68.9063 67.5938V63.375C68.9063 61.7922 68.121 60.3938 66.9197 59.545ZM61.875 58.6875C59.2903 58.6875 57.1875 56.5847 57.1875 54C57.1875 51.4153 59.2903 49.3125 61.875 49.3125C64.4597 49.3125 66.5625 51.4153 66.5625 54C66.5625 56.5847 64.4597 58.6875 61.875 58.6875ZM50.0447 59.545C48.7116 60.7589 46.9407 61.5 45 61.5C43.0593 61.5 41.2885 60.7589 39.9553 59.545C38.754 60.3938 37.9688 61.7922 37.9688 63.375V67.5938C37.9688 68.3704 38.5984 69 39.375 69H50.625C51.4016 69 52.0313 68.3704 52.0313 67.5938V63.375C52.0313 61.7922 51.246 60.3938 50.0447 59.545ZM45 58.6875C42.4153 58.6875 40.3125 56.5847 40.3125 54C40.3125 51.4153 42.4153 49.3125 45 49.3125C47.5847 49.3125 49.6875 51.4153 49.6875 54C49.6875 56.5847 47.5847 58.6875 45 58.6875Z" fill="#333333"/>
</g>
<defs>
<clipPath id="clip0_339_27967">
<rect width="48" height="48" fill="white" transform="translate(21 21)"/>
</clipPath>
</defs>
</svg>
