<svg width="90" height="90" viewBox="0 0 90 90" fill="none" xmlns="http://www.w3.org/2000/svg">
<rect width="90" height="90" rx="10" fill="#F6F9F6"/>
<g clip-path="url(#clip0_339_27987)">
<path d="M38.7012 30.3787H40.7808V34.1487C42.0418 33.484 43.4772 33.1071 44.9998 33.1071C46.5224 33.1071 47.9578 33.484 49.2189 34.1487V30.3787H51.2984C52.5005 30.4185 53.1736 28.8391 52.3138 27.9992L46.0152 21.4296C45.4883 20.8568 44.5113 20.8568 43.9844 21.4296L37.6858 27.9992C36.8259 28.8392 37.4994 30.4184 38.7012 30.3787ZM43.5935 51.1543V55.709H46.4062V51.1543C45.9477 51.2265 45.478 51.264 44.9998 51.264C44.5217 51.264 44.0519 51.2265 43.5935 51.1543ZM34.3631 55.8319L39.9313 49.7142C39.1501 49.1858 38.455 48.54 37.8705 47.7997L30.6719 55.7091H33.3655C33.7096 55.709 34.0434 55.7512 34.3631 55.8319ZM56.6341 55.709H59.3278L52.1291 47.7996C51.5447 48.5399 50.8496 49.1857 50.0683 49.7141L55.6365 55.8318C55.9563 55.7512 56.29 55.709 56.6341 55.709Z" fill="#333333"/>
<path d="M45.0005 48.4517C48.4612 48.4517 51.2667 45.6463 51.2667 42.1856C51.2667 38.7249 48.4612 35.9194 45.0005 35.9194C41.5398 35.9194 38.7344 38.7249 38.7344 42.1856C38.7344 45.6463 41.5398 48.4517 45.0005 48.4517Z" fill="#102694"/>
<path d="M48.9294 58.522H41.0707C40.3477 58.522 39.7609 59.1088 39.7609 59.8318V67.6905C39.7609 68.4134 40.3477 69.0003 41.0707 69.0003H48.9294C49.6524 69.0003 50.2392 68.4134 50.2392 67.6905V59.8318C50.2392 59.1087 49.6525 58.522 48.9294 58.522ZM33.3658 58.522H25.5071C24.7841 58.522 24.1973 59.1088 24.1973 59.8318V67.6905C24.1973 68.4134 24.7841 69.0003 25.5071 69.0003H33.3658C34.0887 69.0003 34.6755 68.4134 34.6755 67.6905V59.8318C34.6755 59.1087 34.0888 58.522 33.3658 58.522ZM64.4931 58.522H56.6344C55.9114 58.522 55.3246 59.1088 55.3246 59.8318V67.6905C55.3246 68.4134 55.9114 69.0003 56.6344 69.0003H64.4931C65.216 69.0003 65.8029 68.4134 65.8029 67.6905V59.8318C65.8029 59.1087 65.2161 58.522 64.4931 58.522Z" fill="#102694"/>
</g>
<defs>
<clipPath id="clip0_339_27987">
<rect width="48" height="48" fill="white" transform="translate(21 21)"/>
</clipPath>
</defs>
</svg>
