<svg width="90" height="90" viewBox="0 0 90 90" fill="none" xmlns="http://www.w3.org/2000/svg">
<rect width="90" height="90" rx="10" fill="#F6F9F6"/>
<g clip-path="url(#clip0_339_27926)">
<path d="M40.7646 42.1767C40.7646 42.6592 40.8474 43.1371 41.0071 43.5885H48.9928C49.1532 43.1351 49.2352 42.6576 49.2352 42.1767C49.2352 39.8415 47.3354 37.9414 44.9999 37.9414C42.6647 37.9414 40.7646 39.8415 40.7646 42.1767Z" fill="#102694"/>
<path d="M44.9997 35.1176C49.4407 35.1176 52.8114 39.2024 51.9152 43.5882H66.1762V38.2507L61.1304 36.9893C60.8485 36.1116 60.495 35.2586 60.0736 34.4387L62.7498 29.9784L57.1979 24.4264L52.7376 27.1026C51.9177 26.6811 51.0647 26.3276 50.187 26.0456L48.9255 21H41.074L39.8125 26.0457C38.9348 26.3277 38.0818 26.6812 37.2619 27.1027L32.8017 24.4265L27.2497 29.9784L29.9258 34.4387C29.5044 35.2585 29.1509 36.1116 28.869 36.9893L23.8232 38.2507V43.5882H38.0842C37.188 39.2022 40.559 35.1176 44.9997 35.1176ZM44.9997 53.4706H43.5879V56.2941H44.9997C45.7783 56.2941 46.4115 55.6609 46.4115 54.8824C46.4115 54.1038 45.7783 53.4706 44.9997 53.4706ZM56.2938 53.4706H54.8821V56.2941H56.2938C57.0724 56.2941 57.7056 55.6609 57.7056 54.8824C57.7056 54.1038 57.0724 53.4706 56.2938 53.4706Z" fill="#102694"/>
<path d="M21 46.4116V68.9999H69V46.4116H21ZM37.9412 53.4704H33.7059V56.294H36.5294V59.1175H33.7059V61.941H37.9412V64.7646H30.8824V50.6469H37.9412V53.4704ZM49.2353 60.5293V64.7646H46.4118V60.5293C46.4118 59.7507 45.7785 59.1175 45 59.1175H43.5882V64.7646H40.7647V50.6469H45C47.3354 50.6469 49.2353 52.5468 49.2353 54.8822C49.2353 55.9662 48.8256 56.9558 48.1534 57.7057C48.8256 58.4557 49.2353 59.4453 49.2353 60.5293ZM56.2941 59.1175H54.8824V64.7646H52.0588V50.6469H56.2941C58.6296 50.6469 60.5294 52.5468 60.5294 54.8822C60.5294 57.2176 58.6296 59.1175 56.2941 59.1175Z" fill="#333333"/>
</g>
<defs>
<clipPath id="clip0_339_27926">
<rect width="48" height="48" fill="white" transform="translate(21 21)"/>
</clipPath>
</defs>
</svg>
