<svg width="90" height="90" viewBox="0 0 90 90" fill="none" xmlns="http://www.w3.org/2000/svg">
<rect width="90" height="90" rx="10" fill="#F6F9F6"/>
<path d="M48.4404 28.5L45.9706 30.9697L47.0311 32.0302L51.3114 27.75L47.0311 23.4697L45.9706 24.5302L48.4404 27H42.3309C42.4209 27.501 42.3444 28.0282 42.0879 28.5H48.4404Z" fill="#333333"/>
<path d="M68.25 32.25V23.25H51.75V32.25H59.25V35.25H51.75V44.25H59.25V48.75H54.75V54.75H59.25V57.75H51.75V60.75H44.5605L47.0303 58.2803L45.9698 57.2197L41.6895 61.5L45.9698 65.7803L47.0303 64.7197L44.5605 62.25H51.75V65.25H68.25V57.75H60.75V54.75H65.25V48.75H60.75V44.25H68.25V35.25H60.75V32.25H68.25ZM30.75 36.75H35.25V38.25H30.75V36.75ZM35.2088 56.7458L34.716 58.0612C34.4483 58.7723 33.759 59.25 33 59.25C32.241 59.25 31.5518 58.7723 31.2848 58.062L30.7913 56.7458C29.8815 57.1627 29.1109 57.8327 28.5717 58.6757C28.0324 59.5188 27.7471 60.4992 27.75 61.5C27.75 64.395 30.1058 66.75 33 66.75C35.8943 66.75 38.25 64.395 38.25 61.5C38.25 59.4225 37.05 57.5955 35.2088 56.7458ZM31.5 64.8105L29.4698 62.7803L30.5303 61.7197L31.5 62.6895L35.4698 58.7197L36.5303 59.7803L31.5 64.8105ZM35.25 33C35.25 31.7595 34.2405 30.75 33 30.75C31.7595 30.75 30.75 31.7595 30.75 33V35.25H35.25V33Z" fill="#102694"/>
<path d="M32.6888 57.534C32.7855 57.792 33.2138 57.7927 33.312 57.5332L34.9178 53.25H31.0823L32.6888 57.534ZM33.75 39.75H35.25V51.75H33.75V39.75Z" fill="#333333"/>
<path d="M42.1553 34.818C42.3239 34.7781 42.4742 34.6827 42.5821 34.5471C42.69 34.4115 42.7491 34.2435 42.75 34.0703V31.9298C42.75 31.5788 42.5123 31.2728 42.1717 31.1858C41.8287 31.0993 41.5104 30.9345 41.2419 30.7041C40.9734 30.4737 40.7621 30.1842 40.6245 29.8583C40.4853 29.5304 40.4249 29.1744 40.4482 28.8189C40.4715 28.4634 40.5779 28.1184 40.7587 27.8115C40.85 27.6641 40.889 27.4902 40.8692 27.3179C40.8495 27.1456 40.7723 26.985 40.65 26.862L39.1365 25.3485C39.0157 25.228 38.8582 25.151 38.6889 25.1299C38.5196 25.1087 38.348 25.1444 38.2013 25.2315C37.8951 25.4145 37.5504 25.5232 37.1947 25.5489C36.839 25.5745 36.4822 25.5164 36.153 25.3793C35.8267 25.2443 35.5363 25.0353 35.3046 24.7689C35.073 24.5025 34.9064 24.1858 34.818 23.844C34.778 23.6755 34.6825 23.5253 34.5469 23.4176C34.4113 23.3099 34.2434 23.2509 34.0702 23.25H31.9298C31.7591 23.2497 31.5933 23.3064 31.4586 23.4112C31.3239 23.516 31.2282 23.6628 31.1865 23.8283C31.1001 24.1712 30.9352 24.4894 30.7048 24.7578C30.4745 25.0262 30.1849 25.2374 29.859 25.3748C29.531 25.5142 29.175 25.5747 28.8194 25.5515C28.4638 25.5283 28.1186 25.4221 27.8115 25.2413C27.664 25.1504 27.4902 25.1116 27.3181 25.1312C27.1459 25.1508 26.9853 25.2276 26.862 25.3493L25.3492 26.862C25.2285 26.9827 25.1514 27.1401 25.1302 27.3095C25.109 27.4789 25.1449 27.6506 25.2323 27.7973C25.605 28.425 25.6568 29.1855 25.3793 29.8463C25.2444 30.1725 25.0355 30.463 24.7692 30.6948C24.503 30.9266 24.1865 31.0934 23.8447 31.182C23.6761 31.2219 23.5258 31.3173 23.4179 31.4529C23.31 31.5885 23.2509 31.7565 23.25 31.9298V34.0703C23.25 34.4213 23.4877 34.7273 23.8282 34.8143C24.1713 34.9007 24.4896 35.0655 24.7581 35.2959C25.0266 35.5263 25.2379 35.8158 25.3755 36.1417C25.5143 36.4697 25.5745 36.8256 25.5514 37.181C25.5282 37.5363 25.4222 37.8814 25.242 38.1885C25.053 38.5057 25.101 38.8905 25.35 39.1388L26.8635 40.6523C27.1125 40.9012 27.4965 40.9492 27.7987 40.7692C28.2363 40.511 28.7476 40.4062 29.2515 40.4715V37.6695C27.882 36.5693 27 34.8915 27 33C27 31.4087 27.6321 29.8826 28.7574 28.7574C29.8826 27.6321 31.4087 27 33 27C34.5913 27 36.1174 27.6321 37.2426 28.7574C38.3679 29.8826 39 31.4087 39 33C39 34.8915 38.118 36.5693 36.75 37.668V40.4715C37.2482 40.4049 37.7544 40.5062 38.1885 40.7595C38.5035 40.947 38.8898 40.9005 39.138 40.6515L40.6515 39.138C40.8997 38.8898 40.9485 38.505 40.7685 38.2028C40.5853 37.8964 40.4765 37.5514 40.451 37.1954C40.4254 36.8394 40.4839 36.4823 40.6215 36.153C40.7563 35.8269 40.965 35.5365 41.2311 35.3049C41.4973 35.0732 41.8137 34.9065 42.1553 34.818Z" fill="#333333"/>
<path d="M30.75 39.75H32.25V51.75H30.75V39.75Z" fill="#333333"/>
</svg>
