<svg width="90" height="90" viewBox="0 0 90 90" fill="none" xmlns="http://www.w3.org/2000/svg">
<rect width="90" height="90" rx="10" fill="#F6F9F6"/>
<g clip-path="url(#clip0_339_28007)">
<path d="M68.5881 25.2556L64.8381 21.5056C64.289 20.9565 63.3985 20.9565 62.8493 21.5056C62.3002 22.0548 62.3002 22.9452 62.8493 23.4944L64.1988 24.8438L43.0312 24.8437C37.1465 24.8437 31.614 27.1353 27.4528 31.2965C23.2916 35.4577 21 40.9903 21 46.875C21 52.7596 23.2916 58.2922 27.4528 62.4534C31.614 66.6146 37.1465 68.9062 43.0312 68.9062C43.8079 68.9062 44.4375 68.2766 44.4375 67.5C44.4375 66.7233 43.8079 66.0937 43.0312 66.0937C32.434 66.0937 23.8125 57.4723 23.8125 46.875C23.8125 41.7415 25.8115 36.9152 29.4415 33.2852C33.0715 29.6553 37.8977 27.6563 43.0312 27.6563H64.1987L62.8493 29.0056C62.3002 29.5548 62.3002 30.4452 62.8493 30.9944C63.1239 31.269 63.4838 31.4062 63.8438 31.4062C64.2037 31.4062 64.5636 31.269 64.8381 30.9943L68.5881 27.2443C69.1373 26.6952 69.1373 25.8048 68.5881 25.2556Z" fill="#333333"/>
<path d="M63.6562 48.2812C64.4329 48.2812 65.0625 47.6517 65.0625 46.875C65.0625 46.0983 64.4329 45.4688 63.6562 45.4688C62.8796 45.4688 62.25 46.0983 62.25 46.875C62.25 47.6517 62.8796 48.2812 63.6562 48.2812Z" fill="#333333"/>
<path d="M64.3008 52.6045C64.5059 51.8554 64.0648 51.0819 63.3158 50.8769C62.5667 50.6718 61.7932 51.1128 61.5881 51.8619C61.383 52.611 61.8241 53.3845 62.5731 53.5896C63.3222 53.7946 64.0957 53.3536 64.3008 52.6045Z" fill="#333333"/>
<path d="M61.5961 55.9699C60.9234 55.5816 60.0635 55.812 59.6752 56.4846C59.2868 57.1571 59.5173 58.0172 60.1898 58.4055C60.8624 58.7938 61.7225 58.5634 62.1108 57.8908C62.4991 57.2183 62.2687 56.3582 61.5961 55.9699ZM56.6209 60.4649C56.0717 61.0141 56.0717 61.9044 56.6209 62.4536C57.1701 63.0028 58.0604 63.0028 58.6096 62.4536C59.1588 61.9044 59.1588 61.0141 58.6096 60.4649C58.0604 59.9157 57.1701 59.9157 56.6209 60.4649Z" fill="black"/>
<path d="M53.209 66.2432C53.9856 66.2432 54.6152 65.6136 54.6152 64.8369C54.6152 64.0603 53.9856 63.4307 53.209 63.4307C52.4323 63.4307 51.8027 64.0603 51.8027 64.8369C51.8027 65.6136 52.4323 66.2432 53.209 66.2432Z" fill="#333333"/>
<path d="M48.0054 65.4389C47.2553 65.6399 46.81 66.411 47.011 67.1612C47.212 67.9114 47.9831 68.3566 48.7333 68.1556C49.4835 67.9546 49.9287 67.1835 49.7277 66.4333C49.5267 65.6831 48.7556 65.2379 48.0054 65.4389ZM43.0312 30.4688C33.9848 30.4688 26.625 37.8286 26.625 46.875C26.625 55.9214 33.9848 63.2812 43.0312 63.2812C52.0777 63.2812 59.4375 55.9214 59.4375 46.875C59.4375 37.8286 52.0777 30.4688 43.0312 30.4688ZM43.0312 33.2812C43.8079 33.2812 44.4375 33.9109 44.4375 34.6875C44.4375 35.4641 43.8079 36.0938 43.0312 36.0938C42.2546 36.0938 41.625 35.4641 41.625 34.6875C41.625 33.9109 42.2546 33.2812 43.0312 33.2812ZM29.4375 46.875C29.4375 46.0984 30.0671 45.4688 30.8438 45.4688C31.6204 45.4688 32.25 46.0984 32.25 46.875C32.25 47.6516 31.6204 48.2812 30.8438 48.2812C30.0671 48.2812 29.4375 47.6516 29.4375 46.875ZM33.1797 54.1866C32.5072 54.5749 31.6471 54.3444 31.2588 53.6719C30.8705 52.9993 31.1009 52.1393 31.7735 51.7509C32.446 51.3626 33.3061 51.5931 33.6944 52.2656C34.0827 52.9382 33.8523 53.7982 33.1797 54.1866ZM33.6944 41.4844C33.3061 42.1569 32.446 42.3875 31.7735 41.9991C31.1009 41.6108 30.8704 40.7507 31.2588 40.0781C31.6471 39.4056 32.5072 39.175 33.1797 39.5634C33.8523 39.9517 34.0827 40.8118 33.6944 41.4844ZM38.1553 58.1328C37.767 58.8053 36.9069 59.0359 36.2344 58.6475C35.5618 58.2591 35.3313 57.3991 35.7197 56.7265C36.108 56.054 36.9681 55.8234 37.6406 56.2118C38.3132 56.6002 38.5437 57.4602 38.1553 58.1328ZM37.6406 37.5382C36.9681 37.9265 36.108 37.696 35.7197 37.0235C35.3314 36.3509 35.5618 35.4908 36.2344 35.1025C36.9069 34.7142 37.767 34.9447 38.1553 35.6172C38.5437 36.2898 38.3132 37.1498 37.6406 37.5382ZM43.0312 60.4688C42.2546 60.4688 41.625 59.8391 41.625 59.0625C41.625 58.2859 42.2546 57.6562 43.0312 57.6562C43.8079 57.6562 44.4375 58.2859 44.4375 59.0625C44.4375 59.8391 43.8079 60.4688 43.0312 60.4688ZM43.0312 48.2812C42.2546 48.2812 41.625 47.6516 41.625 46.875V40.3125C41.625 39.5359 42.2546 38.9062 43.0312 38.9062C43.8079 38.9062 44.4375 39.5359 44.4375 40.3125V45.4688H47.7188C48.4954 45.4688 49.125 46.0984 49.125 46.875C49.125 47.6516 48.4954 48.2812 47.7188 48.2812H43.0312ZM49.8281 58.6476C49.1556 59.0359 48.2955 58.8054 47.9072 58.1329C47.5189 57.4603 47.7493 56.6003 48.4219 56.2119C49.0944 55.8236 49.9545 56.0541 50.3428 56.7266C50.7312 57.3992 50.5007 58.2593 49.8281 58.6476ZM50.3428 37.0235C49.9545 37.696 49.0944 37.9266 48.4219 37.5382C47.7493 37.1498 47.5188 36.2898 47.9072 35.6172C48.2955 34.9447 49.1556 34.7141 49.8281 35.1025C50.5007 35.4908 50.7312 36.3508 50.3428 37.0235ZM54.8038 53.6719C54.4155 54.3444 53.5554 54.575 52.8829 54.1866C52.2103 53.7982 51.9798 52.9382 52.3682 52.2656C52.7565 51.5931 53.6166 51.3625 54.2891 51.7509C54.9617 52.1393 55.1921 52.9993 54.8038 53.6719ZM56.625 46.875C56.625 47.6516 55.9954 48.2812 55.2188 48.2812C54.4421 48.2812 53.8125 47.6516 53.8125 46.875C53.8125 46.0984 54.4421 45.4688 55.2188 45.4688C55.9954 45.4688 56.625 46.0984 56.625 46.875ZM54.289 41.9991C53.6165 42.3874 52.7564 42.1569 52.3681 41.4844C51.9798 40.8118 52.2102 39.9517 52.8828 39.5634C53.5554 39.1751 54.4154 39.4056 54.8037 40.0781C55.192 40.7507 54.9617 41.6108 54.289 41.9991Z" fill="#102694"/>
</g>
<defs>
<clipPath id="clip0_339_28007">
<rect width="48" height="48" fill="white" transform="translate(21 21)"/>
</clipPath>
</defs>
</svg>
