<svg width="90" height="90" viewBox="0 0 90 90" fill="none" xmlns="http://www.w3.org/2000/svg">
<rect width="90" height="90" rx="10" fill="#F6F9F6"/>
<g clip-path="url(#clip0_339_28030)">
<path d="M38.8125 37.4061V36.4686C38.8125 33.9969 37.5293 31.8205 35.5953 30.5664C34.2188 32.1692 32.1798 33.1874 29.9062 33.1874C27.6327 33.1874 25.5938 32.1692 24.2172 30.5664C22.2832 31.8205 21 33.9969 21 36.4686V37.4061C21 38.1828 21.6296 38.8124 22.4062 38.8124H37.4062C38.1829 38.8124 38.8125 38.1828 38.8125 37.4061Z" fill="#102694"/>
<path d="M29.9062 30.375C32.4951 30.375 34.5938 28.2763 34.5938 25.6875C34.5938 23.0987 32.4951 21 29.9062 21C27.3174 21 25.2188 23.0987 25.2188 25.6875C25.2188 28.2763 27.3174 30.375 29.9062 30.375Z" fill="#102694"/>
<path d="M58.6875 53.1543H56.149L53.7424 48.9859C53.3541 48.3134 52.4941 48.0829 51.8215 48.4713L50.5877 49.1836C50.1534 48.884 49.6955 48.6201 49.2187 48.3945V46.9685C49.2187 46.1919 48.5891 45.5624 47.8125 45.5624H42.1873C41.4107 45.5624 40.7812 46.1919 40.7812 46.9685V48.3945C40.3042 48.6201 39.8464 48.8839 39.4121 49.1836L38.1783 48.4713C37.5057 48.0829 36.6458 48.3134 36.2574 48.9859L33.8508 53.1543H31.3125V41.6249H28.5V54.5606C28.5 55.3372 29.1296 55.9668 29.9062 55.9668H34.2861L35.1901 56.4888C35.145 57.016 35.145 57.5462 35.1901 58.0735L33.9596 58.7839C33.2871 59.1723 33.0566 60.0322 33.4449 60.7048L36.2575 65.5763C36.6458 66.2489 37.5058 66.4793 38.1784 66.091L39.4121 65.3787C39.8464 65.6783 40.3043 65.9421 40.7812 66.1678V67.5938C40.7812 68.3704 41.4108 69 42.1874 69H47.8126C48.5892 69 49.2188 68.3704 49.2188 67.5938V66.1677C49.6969 65.9414 50.1541 65.6779 50.5879 65.3786L51.8216 66.0909C52.4942 66.4792 53.3542 66.2488 53.7425 65.5762L56.5551 60.7047C56.9434 60.0321 56.7129 59.1722 56.0404 58.7838L54.8099 58.0734C54.855 57.5461 54.855 57.0159 54.8099 56.4887L55.7139 55.9668H60.0938C60.8704 55.9668 61.5 55.3371 61.5 54.5605V41.6249H58.6875V53.1543ZM45 61.4999C42.6738 61.4999 40.7812 59.6073 40.7812 57.2811C40.7812 54.9549 42.6738 53.0624 45 53.0624C47.3262 53.0624 49.2188 54.9549 49.2188 57.2811C49.2188 59.6073 47.3262 61.4999 45 61.4999ZM65.7828 30.5664C64.4062 32.1692 62.3673 33.1874 60.0938 33.1874C57.8202 33.1874 55.7812 32.1692 54.4047 30.5664C52.4707 31.8205 51.1875 33.9969 51.1875 36.4686V37.4061C51.1875 38.1828 51.8171 38.8124 52.5938 38.8124H67.5938C68.3704 38.8124 69 38.1828 69 37.4061V36.4686C69 33.9969 67.7168 31.8205 65.7828 30.5664Z" fill="#333333"/>
<path d="M60.0938 30.375C62.6826 30.375 64.7812 28.2763 64.7812 25.6875C64.7812 23.0987 62.6826 21 60.0938 21C57.5049 21 55.4062 23.0987 55.4062 25.6875C55.4062 28.2763 57.5049 30.375 60.0938 30.375Z" fill="#102694"/>
</g>
<defs>
<clipPath id="clip0_339_28030">
<rect width="48" height="48" fill="white" transform="translate(21 21)"/>
</clipPath>
</defs>
</svg>
