<svg width="80" height="80" viewBox="0 0 80 80" fill="none" xmlns="http://www.w3.org/2000/svg">
<path fill-rule="evenodd" clip-rule="evenodd" d="M18.0067 37.5502C18.4133 39.5712 19.6289 41.842 19.6289 41.842L19.64 41.8639C20.6 43.8579 19.7602 46.2564 17.7661 47.2161C15.7718 48.1761 13.3736 47.3363 12.4136 45.342L12.407 45.3279C12.407 45.3279 9.73049 39.339 9.99476 35.715C10.1473 33.6242 11.0144 32.0092 12.3834 31.0025C13.2891 30.3361 14.4616 29.8507 16.0313 29.8621C17.3158 29.8717 18.4888 29.3728 19.338 28.5372C20.1973 27.6916 20.7531 26.5267 20.7642 25.2272C20.7768 23.911 20.2704 22.7071 19.4162 21.8343C18.5488 20.9477 17.356 20.3655 16.0193 20.349L16.0058 20.3487C14.6231 20.3023 13.3413 20.7727 12.3948 21.6398C11.3931 22.5572 10.6366 23.7923 10.5536 25.2467C10.5461 26.9426 9.1669 28.3172 7.46922 28.3172C5.77304 28.3172 4.39506 26.945 4.38578 25.262C4.21079 21.9966 5.47132 19.0025 7.52046 16.7652C9.61903 14.4745 12.6587 13.1148 16.0058 13.0022L16.0193 13.0019C19.4063 12.9605 22.4817 14.325 24.7276 16.5225C26.9871 18.7331 28.372 21.8202 28.4044 25.2272C28.434 28.6513 27.0503 31.7575 24.8226 34.0215C22.9819 35.8902 20.5952 37.1258 18.0067 37.5502ZM19.0893 48.2441C21.1795 48.2441 22.8766 49.9409 22.8766 52.0311C22.8766 54.1213 21.1795 55.8184 19.0893 55.8184C16.9991 55.8184 15.3023 54.1213 15.3023 52.0311C15.3023 49.9409 16.9991 48.2441 19.0893 48.2441ZM26.0014 16.0392C26.7414 15.7207 27.9615 15.4298 29.5705 15.3207C32.9143 15.0939 38.4811 15.3312 44.0178 15.8477C49.7605 16.3838 54.9341 15.4948 57.9429 15.3938C59.0213 15.3575 59.8983 15.4223 60.5398 15.5793C61.4497 15.8019 62.09 16.2241 62.5272 16.7107C63.628 17.9364 64.2006 19.7797 64.2776 21.8205C64.3306 23.2254 64.1632 24.7262 63.9345 26.0413C63.9096 26.1848 63.8352 26.315 63.7244 26.4095C63.6135 26.5039 63.4731 26.5566 63.3275 26.5584C62.0265 26.5755 60.7255 26.5908 59.4246 26.6046C59.3316 26.6053 59.2396 26.5853 59.1553 26.5461C59.071 26.5068 58.9966 26.4492 58.9374 26.3775C58.8782 26.3058 58.8357 26.2218 58.813 26.1316C58.7904 26.0414 58.7881 25.9473 58.8064 25.8561C58.9697 25.0501 59.1196 24.1111 59.1792 23.167C59.2397 22.2145 59.3089 21.2311 59.0015 20.5216C58.4691 20.5045 57.5771 20.4916 56.7729 20.5534C53.5145 20.8038 48.7507 21.3941 43.5453 20.9084C38.3214 20.4209 33.0695 20.1779 29.9145 20.3919C29.5368 20.4204 29.1606 20.4658 28.787 20.5279C28.1644 18.8622 27.2176 17.3365 26.0014 16.0392Z" fill="#333333"/>
<path fill-rule="evenodd" clip-rule="evenodd" d="M29.6534 25.3691C42.8256 25.4944 55.9974 25.447 69.1692 25.2214C69.8059 25.2102 70.4385 25.3259 71.03 25.5618C71.6215 25.7976 72.16 26.149 72.6143 26.5952C73.0685 27.0415 73.4293 27.5738 73.6757 28.161C73.922 28.7482 74.0489 29.3786 74.0489 30.0154C74.0489 32.6165 74.0489 35.9887 74.028 38.8792C74.0265 42.9481 71.3664 46.5392 67.4746 47.7269C52.52 52.2443 37.5647 52.4166 22.605 48.4268C21.8848 47.7227 20.9696 47.2513 19.9782 47.0737C21.3271 45.5357 21.7077 43.2804 20.7653 41.3221C20.7545 41.3001 20.7434 41.2782 20.7321 41.2565L20.7306 41.2541C20.7306 41.2541 20.0304 39.954 19.551 38.4912C21.8878 37.8622 24.0148 36.6216 25.7128 34.8972C28.1316 32.4388 29.6441 29.0773 29.6534 25.3691ZM13.6396 28.9661C13.881 27.889 14.4865 26.9281 15.3541 26.2457C16.2217 25.5632 17.2982 25.201 18.4019 25.2202L19.5159 25.2388C19.5012 26.1847 19.0892 27.0305 18.4627 27.6472C17.841 28.2587 16.9811 28.6207 16.0408 28.6135C15.1366 28.6069 14.342 28.739 13.6396 28.9661ZM55.0176 37.2813C55.0176 36.5431 54.4184 35.9438 53.6801 35.9438H33.8925C33.1546 35.9438 32.5553 36.5431 32.5553 37.2813V39.1336C32.5553 39.8719 33.1546 40.4711 33.8925 40.4711H53.6801C54.4184 40.4711 55.0176 39.8719 55.0176 39.1336V37.2813Z" fill="#102694"/>
<path fill-rule="evenodd" clip-rule="evenodd" d="M23.6969 49.9979C25.0005 50.3233 26.3115 50.6187 27.6286 50.8839C27.4713 52.5624 27.6017 54.2047 28.4295 55.5791C28.837 56.2556 29.8438 56.5319 30.825 56.5319C31.806 56.5319 32.813 56.2556 33.2205 55.5791C33.853 54.5286 34.2264 53.2636 34.3447 51.9581C40.6402 52.7044 46.935 52.7158 53.2295 51.9797C53.35 53.2773 53.7224 54.534 54.3516 55.5791C54.7594 56.2556 55.7661 56.5319 56.7471 56.5319C57.7284 56.5319 58.7351 56.2556 59.1426 55.5791C59.9663 54.2116 60.0993 52.5789 59.9459 50.9094C62.6055 50.3714 65.2382 49.7083 67.8354 48.9223L67.8387 48.9214C69.8678 48.3029 71.6617 47.0839 72.9838 45.425C74.3207 49.3987 75.5306 54.5498 75.5306 58.205C75.5306 63.0065 71.6382 66.8992 66.8364 66.8992H20.7357C15.9339 66.8992 12.0415 63.0065 12.0415 58.205C12.0415 55.3894 12.7576 51.6866 13.699 48.3173C14.1814 48.5549 14.697 48.7176 15.2283 48.8C14.4683 49.705 14.0523 50.8494 14.0538 52.0312C14.0538 54.8105 16.3103 57.067 19.0893 57.067C21.8686 57.067 24.1251 54.8105 24.1251 52.0312C24.1251 51.3079 23.972 50.62 23.6969 49.9979Z" fill="#333333"/>
</svg>
