<svg width="664" height="400" viewBox="0 0 664 400" fill="none" xmlns="http://www.w3.org/2000/svg">
<path d="M463.336 246.841V252.33H422.115V246.841H463.336Z" fill="#E0E0E0"/>
<path d="M427.753 247.036C427.851 247.036 427.998 248.212 427.998 249.633C427.998 251.055 427.851 252.231 427.753 252.231C427.606 252.231 427.459 251.055 427.459 249.633C427.459 248.212 427.606 247.036 427.753 247.036Z" fill="#FAFAFA"/>
<path d="M426.827 246.939C426.974 246.939 427.072 248.115 427.072 249.537C427.072 250.958 426.974 252.085 426.827 252.085C426.68 252.085 426.582 250.958 426.582 249.537C426.582 248.115 426.68 246.939 426.827 246.939Z" fill="#FAFAFA"/>
<path d="M460.147 247.036C460.294 247.036 460.392 248.212 460.392 249.633C460.392 251.055 460.294 252.231 460.147 252.231C460 252.231 459.902 251.055 459.902 249.633C459.902 248.212 460 247.036 460.147 247.036Z" fill="#FAFAFA"/>
<path d="M459.271 246.939C459.369 246.939 459.516 248.116 459.516 249.537C459.516 250.959 459.369 252.086 459.271 252.086C459.124 252.086 458.977 250.959 458.977 249.537C458.977 248.116 459.124 246.939 459.271 246.939Z" fill="#FAFAFA"/>
<path d="M453.873 249.732C453.873 249.879 449.119 250.026 443.335 250.026C437.502 250.026 432.748 249.879 432.748 249.732C432.748 249.585 437.502 249.487 443.335 249.487C449.119 249.487 453.873 249.585 453.873 249.732Z" fill="#FAFAFA"/>
<path d="M463.143 271.642V282.621H421.922V271.642H463.143Z" fill="#E0E0E0"/>
<path d="M463.679 279.532C463.679 279.532 463.598 279.581 463.434 279.679C463.304 279.745 463.075 279.843 462.748 279.973C462.16 280.219 461.229 280.562 459.954 280.758C458.729 280.954 457.063 281.003 455.445 280.121C454.612 279.679 453.877 279.042 453.288 278.16C452.7 277.327 452.357 276.199 452.553 275.023C452.651 274.435 452.896 273.847 453.288 273.357C453.681 272.866 454.367 272.523 455.053 272.572C455.739 272.621 456.327 273.013 456.768 273.504C457.21 274.043 457.504 274.68 457.602 275.415C457.749 276.788 457.161 278.258 456.18 279.287C455.2 280.415 453.73 281.052 452.21 281.248C450.691 281.395 449.073 281.199 447.603 280.66C446.083 280.17 444.613 279.287 443.584 277.964C443.045 277.278 442.701 276.444 442.652 275.611C442.554 274.729 442.849 273.749 443.535 273.112C443.878 272.768 444.319 272.572 444.809 272.572C445.299 272.523 445.789 272.67 446.181 272.915C446.966 273.406 447.456 274.288 447.652 275.17C448.044 276.935 447.358 278.846 446.034 280.022C444.76 281.199 443.045 281.738 441.427 281.885C439.761 282.032 438.143 281.934 436.575 281.395C435.104 280.905 433.732 279.924 432.948 278.552C432.163 277.278 431.869 275.611 432.458 274.19C432.752 273.504 433.389 272.915 434.173 272.768C434.908 272.621 435.643 272.817 436.232 273.259C437.408 274.19 437.604 275.758 437.212 276.984C436.82 278.209 435.987 279.189 435.153 279.924C433.389 281.395 431.281 282.032 429.468 282.13C427.654 282.179 426.135 281.689 425.007 281.101C423.88 280.513 423.145 279.826 422.655 279.336C422.426 279.108 422.263 278.928 422.165 278.797C422.067 278.666 422.018 278.585 422.018 278.552C422.116 278.503 422.851 279.777 425.105 280.905C426.233 281.444 427.703 281.885 429.468 281.836C431.232 281.738 433.242 281.101 434.908 279.63C435.741 278.895 436.526 278.013 436.82 276.886C437.163 275.758 436.967 274.386 435.987 273.602C435.496 273.259 434.859 273.112 434.271 273.21C433.634 273.308 433.144 273.798 432.899 274.386C432.36 275.611 432.605 277.131 433.34 278.307C434.075 279.581 435.349 280.464 436.771 280.954C438.192 281.444 439.761 281.542 441.378 281.395C442.898 281.199 444.515 280.709 445.691 279.63C446.868 278.552 447.505 276.837 447.162 275.268C446.966 274.484 446.525 273.798 445.887 273.357C445.25 272.964 444.417 272.964 443.878 273.504C443.339 273.994 443.094 274.778 443.143 275.562C443.192 276.297 443.535 277.033 443.976 277.67C444.907 278.895 446.329 279.728 447.75 280.219C449.22 280.709 450.691 280.905 452.161 280.758C453.583 280.611 454.906 280.022 455.837 278.993C456.768 278.013 457.308 276.69 457.161 275.464C457.063 274.239 456.131 273.063 455.004 272.964C454.465 272.964 453.926 273.21 453.583 273.602C453.239 274.043 452.994 274.533 452.896 275.072C452.7 276.15 453.043 277.18 453.583 278.013C454.122 278.846 454.808 279.434 455.592 279.875C457.112 280.709 458.729 280.709 459.954 280.562C461.18 280.415 462.111 280.072 462.748 279.875C463.336 279.63 463.679 279.532 463.679 279.532Z" fill="#FAFAFA"/>
<path d="M463.137 252.478V271.593H425.592V252.478H463.137Z" fill="#EBEBEB"/>
<path d="M431.862 253.164C432.009 253.164 432.108 257.281 432.108 262.378C432.108 267.525 432.009 271.642 431.862 271.642C431.715 271.642 431.568 267.525 431.568 262.378C431.568 257.281 431.715 253.164 431.862 253.164Z" fill="#E0E0E0"/>
<path d="M434.706 252.919C434.853 252.919 434.951 256.987 434.951 262.036C434.951 267.084 434.853 271.152 434.706 271.152C434.559 271.152 434.412 267.084 434.412 262.036C434.412 256.987 434.559 252.919 434.706 252.919Z" fill="#E0E0E0"/>
<path d="M458.919 252.282C459.066 252.282 459.164 256.595 459.164 261.889C459.164 267.231 459.066 271.545 458.919 271.545C458.772 271.545 458.625 267.231 458.625 261.889C458.625 256.595 458.772 252.282 458.919 252.282Z" fill="#E0E0E0"/>
<path d="M455.544 252.576C455.691 252.576 455.838 256.742 455.838 261.937C455.838 267.084 455.691 271.299 455.544 271.299C455.397 271.299 455.299 267.084 455.299 261.937C455.299 256.742 455.397 252.576 455.544 252.576Z" fill="#E0E0E0"/>
<path d="M455.198 202.827H202.139V34.9536H455.198V202.827Z" fill="#58A52C"/>
<path fill-rule="evenodd" clip-rule="evenodd" d="M0.0045937 47.2069C-0.338504 23.4841 18.5809 3.82952 42.2056 3.48643C65.8304 3.09431 85.387 22.1117 85.7791 45.8345C86.1222 69.6063 67.2028 89.2119 43.578 89.604C19.9533 89.9961 0.396706 70.9787 0.0045937 47.2069ZM63.3797 46.1776C63.2326 34.8554 53.871 25.7388 42.5487 25.9348C31.2755 26.1309 22.2079 35.4926 22.404 46.8638C22.6 58.2351 31.9127 67.3026 43.2349 67.1066C54.5082 66.9595 63.5757 57.5489 63.3797 46.1776Z" fill="#58A52C"/>
<path d="M0.0045937 47.2073C-0.338504 23.4845 18.5809 3.82991 42.2056 3.48682L42.5487 25.9352C31.2755 26.1313 22.2079 35.4929 22.404 46.8642C22.6 58.2354 31.9127 67.303 43.2349 67.107L43.578 89.6044C19.9533 89.9965 0.396706 70.9791 0.0045937 47.2073Z" fill="#58A52C"/>
<path d="M38.334 0.00667729C66.0269 -0.434449 88.0832 21.0337 88.5243 48.8246L62.3508 49.2167C62.1548 35.9339 52.0089 27.6015 38.8241 27.7976L38.334 0.00667729Z" fill="#58A52C"/>
<path d="M205.129 392.658C204.051 391.727 201.551 388.737 203.463 385.257C204.149 383.983 205.619 383.346 206.992 382.807C208.315 382.218 209.736 381.728 210.815 380.797C212.922 379.032 213.461 376.092 214.883 373.69C216.451 370.994 219.441 368.936 222.529 369.083C226.156 369.279 229.146 372.17 230.469 375.552C231.842 378.885 231.891 382.61 231.94 386.188C231.94 388.198 231.842 390.453 230.371 391.776C229.048 393.05 226.989 393.05 225.176 393.001C218.641 392.805 212.105 392.593 205.57 392.364" fill="#F5F5F5"/>
<path fill-rule="evenodd" clip-rule="evenodd" d="M242.574 339.036L240.81 354.182H240.859L240.663 355.701L236.153 393.834C235.859 396.677 233.654 398.833 230.958 399.274C230.533 399.34 230.108 399.372 229.684 399.372H206.696L206.451 399.421C206.451 399.389 206.451 399.372 206.451 399.372C206.091 399.372 205.748 399.323 205.422 399.225C205.226 399.225 205.079 399.176 204.931 399.127C204.866 399.127 204.801 399.111 204.735 399.078C202.53 398.441 200.765 396.579 200.373 394.128L191.061 338.742H242.623L242.574 339.036ZM234.242 358.005H228.115L227.576 374.081H232.869L234.242 358.005ZM233.409 374.081H237.967L239.829 358.005H234.781L233.409 374.081ZM226.498 391.922L226.939 377.953H219.342L219.636 391.922H226.498ZM212.529 391.922H219.195L218.851 377.953H211.45L212.529 391.922ZM210.911 377.953H203.608C204.441 383.247 205.226 388.148 205.814 391.922H211.99L210.911 377.953ZM218.753 374.081L218.41 358.005H209.882L211.156 374.081H218.753ZM227.086 374.081L227.625 358.005H218.9L219.244 374.081H227.086ZM227.772 354.182L228.262 339.281H218.459L218.802 354.182H227.772ZM217.969 339.281H208.461L209.588 354.182H218.312L217.969 339.281ZM207.921 339.281H197.432C197.628 340.115 198.021 342.369 198.952 348.398C199.246 350.162 199.54 352.123 199.883 354.182H209.098L207.921 339.281ZM200.471 358.005C201.01 361.534 201.648 365.357 202.236 369.131C202.497 370.797 202.759 372.447 203.02 374.081H210.617L209.343 358.005H200.471ZM199.981 358.005H194.835L197.53 374.081H202.53C201.648 368.494 200.765 362.955 199.981 358.005ZM198.168 377.904L200.52 391.873H205.324C204.637 387.511 203.853 382.757 203.118 377.904H198.168ZM231.399 391.873L232.575 377.904H227.478L227.037 391.873H231.399ZM234.634 354.133L235.859 339.281H228.752L228.262 354.133H234.634ZM191.698 339.281L194.197 354.133H199.393C198.119 346.192 197.187 340.311 196.991 339.281H191.698ZM237.526 377.904H233.115L231.889 391.873H235.908L237.526 377.904ZM242.035 339.232H236.398L235.124 354.133H240.32L242.035 339.232Z" fill="#E0E0E0"/>
<path d="M615.771 105.485H604.645V61.1274H615.771V105.485Z" fill="#E0E0E0"/>
<path d="M632.093 105.485H620.967V70.7832H632.093V105.485Z" fill="#E0E0E0"/>
<path d="M648.659 105.485H637.582V78.7231H648.659V105.485Z" fill="#E0E0E0"/>
<path d="M664.001 105.485H652.924V89.6045H664.001V105.485Z" fill="#E0E0E0"/>
<path fill-rule="evenodd" clip-rule="evenodd" d="M647.969 214.297C633.608 229.638 609.346 230.422 593.956 216.159C578.565 201.847 577.732 177.732 592.142 162.44C606.503 147.147 630.765 146.314 646.155 160.626C661.546 174.938 662.379 199.004 647.969 214.297ZM632.53 175.085C625.177 168.272 613.561 168.665 606.699 175.968C599.837 183.32 600.229 194.838 607.581 201.651C614.934 208.464 626.55 208.072 633.412 200.769C640.274 193.466 639.882 181.947 632.53 175.085Z" fill="#2C3A40"/>
<path d="M592.142 162.44C606.503 147.147 630.765 146.314 646.155 160.626L632.53 175.085C625.177 168.272 613.561 168.665 606.699 175.968C599.837 183.32 600.229 194.838 607.581 201.651L593.956 216.159C578.565 201.847 577.732 177.732 592.142 162.44Z" fill="#2C3A40"/>
<path d="M644.591 154.401C663.461 171.948 665.716 200.426 648.071 219.149L628.955 202.582C637.385 193.613 639.199 181.653 630.18 173.272L644.591 154.401Z" fill="#35454B"/>
<path d="M231.742 253.948H129.842C128.078 253.948 126.656 252.527 126.656 250.762V226.598C126.656 224.883 128.078 223.461 129.842 223.461H231.742C233.507 223.461 234.928 224.883 234.928 226.598V250.762C234.928 252.527 233.507 253.948 231.742 253.948Z" fill="#D8FFC1"/>
<path d="M149.494 243.803C147.19 246.646 143.024 247.087 140.181 244.832C137.339 242.528 136.897 238.362 139.201 235.519C141.456 232.628 145.622 232.186 148.465 234.49C151.308 236.745 151.749 240.911 149.494 243.803Z" fill="#58A52C"/>
<path d="M148.028 237.381C148.126 237.479 146.558 239.195 144.499 241.204C144.205 241.499 143.911 241.793 143.617 242.087L143.421 242.234L143.274 242.087C141.656 240.42 140.529 239.146 140.627 239.048C140.725 238.95 141.999 240.126 143.617 241.695H143.274C143.568 241.433 143.862 241.155 144.156 240.861C146.215 238.852 147.93 237.283 148.028 237.381Z" fill="#E0E0E0"/>
<path d="M224.291 236.352C224.291 236.499 209.734 236.646 191.795 236.646C173.905 236.646 159.348 236.499 159.348 236.352C159.348 236.205 173.905 236.107 191.795 236.107C209.734 236.107 224.291 236.205 224.291 236.352Z" fill="#58A52C"/>
<path d="M224.535 241.89C224.535 242.037 210.027 242.135 192.088 242.135C174.149 242.135 159.641 242.037 159.641 241.89C159.641 241.743 174.149 241.645 192.088 241.645C210.027 241.645 224.535 241.743 224.535 241.89Z" fill="#58A52C"/>
<path d="M566.457 245.91L564.496 399.814H653.064V248.018L566.457 245.91Z" fill="#F5F5F5"/>
<path d="M614.2 247.086L613.416 399.814H653.068V248.018L614.2 247.086Z" fill="#E0E0E0"/>
<path d="M569.254 248.704V280.171H611.21V250.175L569.254 248.704Z" fill="#E0E0E0"/>
<path d="M583.709 257.331V261.987H596.551V256.938L583.709 257.331Z" fill="#F5F5F5"/>
<path d="M583.709 267.819V265.908H596.992V267.819H583.709Z" fill="#F5F5F5"/>
<path d="M569.254 358.986V390.453H611.21V360.505L569.254 358.986Z" fill="#E0E0E0"/>
<path d="M583.709 367.661V372.317H596.551V367.22L583.709 367.661Z" fill="#F5F5F5"/>
<path d="M583.709 378.101V376.189H596.992V378.101H583.709Z" fill="#F5F5F5"/>
<path d="M569.254 284.19V315.657H611.21V285.661L569.254 284.19Z" fill="#E0E0E0"/>
<path d="M583.709 292.816V297.473H596.551V292.424L583.709 292.816Z" fill="#F5F5F5"/>
<path d="M583.709 303.306V301.394H596.992V303.306H583.709Z" fill="#F5F5F5"/>
<path d="M568.711 321.881V353.348H610.667V321.881H568.711Z" fill="#E0E0E0"/>
<path d="M583.467 336.046V340.409H595.524V335.654L583.467 336.046Z" fill="#F5F5F5"/>
<path d="M583.467 345.898V344.085H595.916V345.898H583.467Z" fill="#F5F5F5"/>
<path d="M656.403 398.49C656.403 398.637 511.174 398.735 332.126 398.735C153.029 398.735 7.84961 398.637 7.84961 398.49C7.84961 398.343 153.029 398.245 332.126 398.245C511.174 398.245 656.403 398.343 656.403 398.49Z" fill="#263238"/>
<path d="M449.017 211.061H186.939V39.1694H449.017V211.061Z" fill="#D8FFC1"/>
<path d="M267.03 134.108L292.811 134.452C292.615 148.175 281.048 159.4 267.03 159.4C266.997 159.4 266.948 159.4 266.883 159.4L267.03 134.108Z" fill="#455A64"/>
<path d="M309.673 169.007C309.673 169.007 309.493 169.023 309.133 169.056C308.709 169.056 308.186 169.056 307.565 169.056C306.144 169.105 304.183 169.105 301.781 169.154H301.732L301.683 169.105C299.38 166.213 296.39 162.439 293.155 158.371C290.655 155.185 288.303 152.195 286.293 149.647L286.44 149.696C283.352 149.647 280.754 149.647 278.843 149.647C277.961 149.614 277.258 149.598 276.735 149.598C276.245 149.549 276 149.549 276 149.549C276 149.5 276.245 149.5 276.735 149.5C277.258 149.467 277.961 149.451 278.843 149.451C280.754 149.402 283.352 149.402 286.44 149.353H286.538L286.587 149.402C288.597 151.95 290.949 154.94 293.449 158.126C296.684 162.243 299.625 165.968 301.879 168.909L301.781 168.86C304.183 168.86 306.144 168.909 307.565 168.909C308.186 168.942 308.709 168.958 309.133 168.958C309.493 168.958 309.673 168.974 309.673 169.007Z" fill="#263238"/>
<path d="M318.936 171.948C318.936 172.095 315.162 172.144 310.555 172.144C305.948 172.144 302.223 172.095 302.223 171.948C302.223 171.849 305.948 171.751 310.555 171.751C315.162 171.751 318.936 171.849 318.936 171.948Z" fill="#263238"/>
<path d="M318.936 175.035C318.936 175.182 315.162 175.231 310.555 175.231C305.948 175.231 302.223 175.182 302.223 175.035C302.223 174.937 305.948 174.839 310.555 174.839C315.162 174.839 318.936 174.937 318.936 175.035Z" fill="#263238"/>
<path d="M262.959 130.433L262.616 155.725C248.598 155.528 237.178 144.157 237.178 130.433C237.178 116.562 248.843 105.142 262.959 105.142C277.124 105.142 288.74 116.562 288.74 130.433H262.959Z" fill="#58A52C"/>
<path d="M252.916 122.149C252.916 122.182 252.769 122.215 252.475 122.247C252.116 122.313 251.691 122.378 251.201 122.443C249.976 122.639 248.407 122.835 246.545 123.129H246.496L246.398 123.08C244.633 121.365 242.525 119.306 240.222 117.052C237.281 114.16 234.585 111.513 232.674 109.553C231.759 108.638 231.007 107.87 230.419 107.249C229.88 106.71 229.635 106.416 229.635 106.367C229.635 106.367 229.978 106.661 230.517 107.151C231.138 107.739 231.922 108.474 232.87 109.357C234.83 111.268 237.526 113.866 240.516 116.758C242.77 119.012 244.878 121.12 246.643 122.835L246.496 122.786C248.407 122.59 249.976 122.394 251.152 122.296C251.675 122.231 252.1 122.182 252.426 122.149C252.753 122.149 252.916 122.149 252.916 122.149Z" fill="#263238"/>
<path d="M223.114 105.288C223.114 105.386 219.389 105.484 214.782 105.484C210.174 105.484 206.449 105.386 206.449 105.288C206.449 105.141 210.174 105.092 214.782 105.092C219.389 105.092 223.114 105.141 223.114 105.288Z" fill="#263238"/>
<path d="M223.114 108.377C223.114 108.475 219.389 108.573 214.782 108.573C210.174 108.573 206.449 108.475 206.449 108.377C206.449 108.23 210.174 108.181 214.782 108.181C219.389 108.181 223.114 108.23 223.114 108.377Z" fill="#263238"/>
<path d="M353.149 80.4898L353.051 64.7563C348.444 64.8054 343.69 66.6189 340.063 69.8048C335.847 73.5789 333.103 79.2645 333.838 86.0774C333.903 86.829 334.034 87.5969 334.23 88.3811C334.23 88.3811 334.23 88.3974 334.23 88.4301L353.149 84.1659V80.4898Z" fill="#58A52C"/>
<g opacity="0.3">
<path d="M353.149 80.4898L353.051 64.7563C348.444 64.8054 343.69 66.6189 340.063 69.8048C335.847 73.5789 333.103 79.2645 333.838 86.0774C333.903 86.829 334.034 87.5969 334.23 88.3811C334.23 88.3811 334.23 88.3974 334.23 88.4301L353.149 84.1659V80.4898Z" fill="white"/>
</g>
<path d="M372.656 75.6373C370.009 70.0987 364.814 65.6874 357.364 64.9522C357.168 64.9195 356.972 64.9032 356.776 64.9032C356.645 64.8705 356.514 64.8542 356.384 64.8542C356.024 64.8215 355.648 64.8052 355.256 64.8052C355.256 64.8052 355.24 64.8052 355.207 64.8052C355.175 64.8052 355.158 64.8052 355.158 64.8052L355.256 80.5387L355.305 84.2147L374.225 88.3809C374.519 87.0575 374.666 85.6851 374.666 84.3127C374.666 81.3229 373.98 78.3821 372.656 75.6373Z" fill="#58A52C"/>
<g opacity="0.3">
<path d="M372.656 75.6373C370.009 70.0987 364.814 65.6874 357.364 64.9522C357.168 64.9195 356.972 64.9032 356.776 64.9032C356.645 64.8705 356.514 64.8542 356.384 64.8542C356.024 64.8215 355.648 64.8052 355.256 64.8052C355.256 64.8052 355.24 64.8052 355.207 64.8052C355.175 64.8052 355.158 64.8052 355.158 64.8052L355.256 80.5387L355.305 84.2147L374.225 88.3809C374.519 87.0575 374.666 85.6851 374.666 84.3127C374.666 81.3229 373.98 78.3821 372.656 75.6373Z" fill="black"/>
</g>
<path d="M354.179 86.126L335.211 90.3902C337.171 99.0657 344.916 105.536 354.179 105.536C363.443 105.536 371.236 98.9676 373.148 90.2431L354.179 86.126Z" fill="#58A52C"/>
<path d="M427.847 83.2812C427.847 83.4282 418.094 83.5753 405.987 83.5753C393.93 83.5753 384.127 83.4282 384.127 83.2812C384.127 83.1342 393.93 83.0361 405.987 83.0361C418.094 83.0361 427.847 83.1342 427.847 83.2812Z" fill="#263238"/>
<path d="M427.847 78.3307C427.847 78.4287 418.094 78.5758 405.987 78.5758C393.93 78.5758 384.127 78.4287 384.127 78.3307C384.127 78.1837 393.93 78.0366 405.987 78.0366C418.094 78.0366 427.847 78.1837 427.847 78.3307Z" fill="#263238"/>
<path d="M427.847 73.333C427.847 73.48 418.094 73.578 405.987 73.578C393.93 73.578 384.127 73.48 384.127 73.333C384.127 73.1859 393.93 73.0879 405.987 73.0879C418.094 73.0879 427.847 73.1859 427.847 73.333Z" fill="#263238"/>
<path d="M427.847 87.9384C427.847 88.0855 418.094 88.1835 405.987 88.1835C393.93 88.1835 384.127 88.0855 384.127 87.9384C384.127 87.7914 393.93 87.6934 405.987 87.6934C418.094 87.6934 427.847 87.7914 427.847 87.9384Z" fill="#263238"/>
<path d="M414.315 92.9868C414.315 93.1338 407.6 93.2318 399.317 93.2318C391.033 93.2318 384.27 93.1338 384.27 92.9868C384.27 92.8397 391.033 92.7417 399.317 92.7417C407.6 92.7417 414.315 92.8397 414.315 92.9868Z" fill="#263238"/>
<path d="M342.806 179.349H338.297V129.061H342.806V179.349Z" fill="#58A52C"/>
<path d="M351.484 179.35H346.975V146.119H351.484V179.35Z" fill="#58A52C"/>
<path d="M360.156 179.594H355.695V135.285H360.156V179.594Z" fill="#58A52C"/>
<path d="M368.878 179.35H364.369V131.022H368.878V179.35Z" fill="#58A52C"/>
<path d="M377.56 179.349H373.051V147.146H377.56V179.349Z" fill="#58A52C"/>
<path d="M386.287 179.349H381.777V153.469H386.287V179.349Z" fill="#58A52C"/>
<path d="M394.959 179.35H390.449V134.208H394.959V179.35Z" fill="#58A52C"/>
<path d="M403.632 179.349H399.123V142.344H403.632V179.349Z" fill="#58A52C"/>
<path d="M412.363 179.35H407.854V135.875H412.363V179.35Z" fill="#58A52C"/>
<path d="M421.035 179.35H416.525V149.696H421.035V179.35Z" fill="#58A52C"/>
<path d="M429.755 179.349H425.246V144.059H429.755V179.349Z" fill="#58A52C"/>
<path d="M431.569 182.878C431.569 182.976 410.199 183.025 383.878 183.025C357.509 183.025 336.139 182.976 336.139 182.878C336.139 182.731 357.509 182.682 383.878 182.682C410.199 182.682 431.569 182.731 431.569 182.878Z" fill="#263238"/>
<path d="M344.723 186.8C344.723 186.898 343.203 186.996 341.39 186.996C339.527 186.996 338.008 186.898 338.008 186.8C338.008 186.702 339.527 186.653 341.39 186.653C343.203 186.653 344.723 186.702 344.723 186.8Z" fill="#263238"/>
<path d="M355.794 186.996C355.794 187.143 353.98 187.192 351.775 187.192C349.569 187.192 347.805 187.143 347.805 186.996C347.805 186.898 349.569 186.849 351.775 186.849C353.98 186.849 355.794 186.898 355.794 186.996Z" fill="#263238"/>
<path d="M365.253 186.996C365.253 187.143 363.439 187.192 361.234 187.192C359.028 187.192 357.264 187.143 357.264 186.996C357.264 186.898 359.028 186.849 361.234 186.849C363.439 186.849 365.253 186.898 365.253 186.996Z" fill="#263238"/>
<path d="M374.714 186.995C374.714 187.142 372.9 187.191 370.695 187.191C368.489 187.191 366.725 187.142 366.725 186.995C366.725 186.897 368.489 186.848 370.695 186.848C372.9 186.848 374.714 186.897 374.714 186.995Z" fill="#263238"/>
<path d="M384.177 186.995C384.177 187.142 382.363 187.191 380.158 187.191C377.952 187.191 376.188 187.142 376.188 186.995C376.188 186.897 377.952 186.848 380.158 186.848C382.363 186.848 384.177 186.897 384.177 186.995Z" fill="#263238"/>
<path d="M393.634 186.995C393.634 187.142 391.82 187.191 389.615 187.191C387.409 187.191 385.645 187.142 385.645 186.995C385.645 186.897 387.409 186.848 389.615 186.848C391.82 186.848 393.634 186.897 393.634 186.995Z" fill="#263238"/>
<path d="M403.093 186.996C403.093 187.143 401.279 187.192 399.074 187.192C396.868 187.192 395.104 187.143 395.104 186.996C395.104 186.898 396.868 186.849 399.074 186.849C401.279 186.849 403.093 186.898 403.093 186.996Z" fill="#263238"/>
<path d="M412.548 186.996C412.548 187.143 410.734 187.192 408.529 187.192C406.323 187.192 404.559 187.143 404.559 186.996C404.559 186.898 406.323 186.849 408.529 186.849C410.734 186.849 412.548 186.898 412.548 186.996Z" fill="#263238"/>
<path d="M421.966 186.995C421.966 187.142 420.201 187.191 417.996 187.191C415.79 187.191 413.977 187.142 413.977 186.995C413.977 186.897 415.79 186.848 417.996 186.848C420.201 186.848 421.966 186.897 421.966 186.995Z" fill="#263238"/>
<path d="M431.419 186.996C431.419 187.143 429.654 187.192 427.449 187.192C425.243 187.192 423.43 187.143 423.43 186.996C423.43 186.898 425.243 186.849 427.449 186.849C429.654 186.849 431.419 186.898 431.419 186.996Z" fill="#263238"/>
<g opacity="0.3">
<path d="M351.484 179.35H346.975V146.119H351.484V179.35Z" fill="white"/>
</g>
<g opacity="0.3">
<path d="M368.878 179.35H364.369V131.022H368.878V179.35Z" fill="white"/>
</g>
<g opacity="0.3">
<path d="M386.287 179.349H381.777V153.469H386.287V179.349Z" fill="white"/>
</g>
<g opacity="0.3">
<path d="M403.632 179.349H399.123V142.344H403.632V179.349Z" fill="white"/>
</g>
<g opacity="0.3">
<path d="M421.035 179.35H416.525V149.696H421.035V179.35Z" fill="white"/>
</g>
<path d="M218.8 71.4705C218.8 73.8721 216.84 75.8327 214.487 75.8327C212.086 75.8327 210.125 73.8721 210.125 71.4705C210.125 69.0688 212.086 67.1572 214.487 67.1572C216.84 67.1572 218.8 69.0688 218.8 71.4705Z" fill="#58A52C"/>
<path d="M293.353 68.039C293.353 68.1861 278.698 68.3331 260.71 68.3331C242.673 68.3331 228.066 68.1861 228.066 68.039C228.066 67.941 242.673 67.7939 260.71 67.7939C278.698 67.7939 293.353 67.941 293.353 68.039Z" fill="#58A52C"/>
<path d="M254.234 73.2827C254.234 73.3317 253.891 73.3807 253.254 73.3807C252.568 73.4297 251.637 73.4787 250.46 73.4787C248.157 73.5277 244.922 73.5767 241.393 73.5767C237.815 73.5767 234.629 73.5277 232.276 73.4787C231.1 73.4787 230.168 73.4297 229.531 73.3807C228.894 73.3807 228.502 73.3317 228.502 73.2827C228.502 73.2827 228.894 73.2337 229.531 73.1846C230.168 73.1846 231.1 73.1356 232.276 73.1356C234.629 73.0866 237.815 73.0376 241.393 73.0376C244.922 73.0376 248.157 73.0866 250.46 73.1356C251.637 73.1356 252.568 73.1846 253.254 73.1846C253.891 73.2337 254.234 73.2827 254.234 73.2827Z" fill="#58A52C"/>
<path d="M181.651 211.257H44.4609V54.7554H181.651V211.257Z" fill="#D8FFC1"/>
<path d="M169.843 134.648C169.794 134.746 168.323 133.913 165.431 132.981C162.539 132.099 158.128 131.217 152.786 132.05C150.139 132.491 147.247 133.275 144.453 134.746C141.61 136.118 138.915 138.226 136.219 140.628C133.572 142.98 130.876 145.676 127.789 148.176C124.701 150.626 121.172 152.93 117.005 154.008C114.947 154.548 112.79 154.695 110.732 154.4C108.673 154.106 106.713 153.42 104.899 152.587C101.321 150.871 98.2331 148.666 95.1452 146.803C92.1064 144.892 89.0675 143.372 85.9796 142.686C82.8917 141.902 79.9019 141.755 77.2551 142C71.8146 142.49 67.7464 144.402 65.1977 145.921C62.5999 147.49 61.3746 148.715 61.3256 148.617C61.2766 148.568 61.5707 148.274 62.1588 147.735C62.747 147.195 63.6783 146.46 65.0016 145.627C67.5504 143.96 71.6675 141.902 77.1571 141.363C79.9019 141.069 82.9898 141.167 86.1267 141.902C89.3616 142.588 92.5475 144.157 95.5864 146.068C98.7233 147.931 101.811 150.136 105.291 151.754C108.771 153.42 112.839 154.155 116.809 153.126C120.731 152.097 124.211 149.842 127.2 147.49C130.239 145.039 132.935 142.343 135.68 139.99C138.376 137.589 141.169 135.481 144.11 134.011C147.002 132.589 149.943 131.756 152.688 131.364C158.177 130.629 162.687 131.609 165.529 132.638C167 133.128 168.078 133.668 168.764 134.011C169.499 134.403 169.843 134.648 169.843 134.648Z" fill="#58A52C"/>
<path d="M82.2051 155.675V187.24H93.8704V155.675H82.2051Z" fill="#58A52C"/>
<path d="M131.709 155.675V187.24H143.374V155.675H131.709Z" fill="#58A52C"/>
<path d="M148.18 137.148V187.24H159.845V137.148H148.18Z" fill="#58A52C"/>
<path d="M67.1582 177.29V187.926H78.8235L78.7745 177.29H67.1582Z" fill="#58A52C"/>
<path d="M98.7227 169.938V187.24H110.388V169.938H98.7227Z" fill="#58A52C"/>
<path d="M115.189 165.969V187.241H126.855V165.969H115.189Z" fill="#58A52C"/>
<path d="M94.3583 190.916C94.3583 191.21 91.5155 191.406 88.0355 191.406C84.5555 191.406 81.7617 191.21 81.7617 190.916C81.7617 190.671 84.5555 190.475 88.0355 190.475C91.5155 190.475 94.3583 190.671 94.3583 190.916Z" fill="#263238"/>
<path d="M79.8505 190.917C79.8505 191.211 77.0077 191.407 73.5277 191.407C70.0477 191.407 67.2539 191.211 67.2539 190.917C67.2539 190.672 70.0477 190.476 73.5277 190.476C77.0077 190.476 79.8505 190.672 79.8505 190.917Z" fill="#263238"/>
<path d="M162.148 190.917C162.148 191.211 158.962 191.407 155.041 191.407C151.12 191.407 147.934 191.211 147.934 190.917C147.934 190.672 151.12 190.476 155.041 190.476C158.962 190.476 162.148 190.672 162.148 190.917Z" fill="#263238"/>
<path d="M144.845 190.916C144.845 191.21 141.659 191.406 137.738 191.406C133.768 191.406 130.582 191.21 130.582 190.916C130.582 190.671 133.768 190.475 137.738 190.475C141.659 190.475 144.845 190.671 144.845 190.916Z" fill="#263238"/>
<path d="M126.856 190.916C126.856 191.21 124.063 191.406 120.583 191.406C117.103 191.406 114.26 191.21 114.26 190.916C114.26 190.671 117.103 190.475 120.583 190.475C124.063 190.475 126.856 190.671 126.856 190.916Z" fill="#263238"/>
<path d="M109.841 190.916C109.841 191.21 106.998 191.406 103.518 191.406C100.038 191.406 97.2441 191.21 97.2441 190.916C97.2441 190.671 100.038 190.475 103.518 190.475C106.998 190.475 109.841 190.671 109.841 190.916Z" fill="#263238"/>
<path d="M162.146 117.15H66.8633V77.5469H162.146V117.15Z" fill="#58A52C"/>
<path d="M86.6664 90.0455C86.6664 92.4962 84.6569 94.5058 82.2062 94.5058C79.7555 94.5058 77.7949 92.4962 77.7949 90.0455C77.7949 87.5948 79.7555 85.6343 82.2062 85.6343C84.6569 85.6343 86.6664 87.5948 86.6664 90.0455Z" fill="#263238"/>
<path d="M122.053 88.7218H91.125V87.0063H122.053V88.7218Z" fill="#263238"/>
<path d="M151.314 92.5939H91.125V90.8784H151.314V92.5939Z" fill="white"/>
<path d="M86.6664 103.72C86.6664 106.171 84.6569 108.18 82.2062 108.18C79.7555 108.18 77.7949 106.171 77.7949 103.72C77.7949 101.269 79.7555 99.2598 82.2062 99.2598C84.6569 99.2598 86.6664 101.269 86.6664 103.72Z" fill="#58A52C"/>
<path d="M106.908 102.348H91.125V100.633H106.908V102.348Z" fill="#58A52C"/>
<path d="M151.314 106.269H91.125V104.553H151.314V106.269Z" fill="white"/>
<path d="M612.483 198.514H461.863V26.6221H612.483V198.514Z" fill="#D8FFC1"/>
<path d="M612.486 197.73C612.486 197.175 612.486 196.374 612.486 195.329C612.437 193.221 612.437 190.084 612.437 186.065C612.437 177.929 612.388 166.067 612.388 150.971C612.339 120.827 612.29 77.8911 612.29 26.6225L612.486 26.8676C568.128 26.8676 516.615 26.8676 461.915 26.8676H461.866L462.16 26.6225C462.111 89.9976 462.111 149.108 462.111 198.515L461.866 198.318C507.204 198.368 544.798 198.368 571.118 198.417C584.303 198.466 594.645 198.466 601.654 198.466C605.183 198.466 607.879 198.515 609.692 198.515C611.555 198.515 612.486 198.515 612.486 198.515C612.486 198.515 611.555 198.564 609.741 198.564C607.928 198.564 605.281 198.564 601.752 198.564C594.743 198.564 584.401 198.613 571.265 198.613C544.945 198.662 507.253 198.711 461.866 198.76H461.67V198.515C461.67 149.108 461.621 89.9976 461.621 26.6225V26.3774H461.866H461.915C516.615 26.3774 568.128 26.3774 612.486 26.4265H612.731V26.6225C612.682 77.9402 612.633 120.925 612.584 151.118C612.584 166.165 612.535 178.027 612.535 186.163C612.535 190.182 612.535 193.27 612.535 195.378C612.502 196.423 612.486 197.208 612.486 197.73Z" fill="#263238"/>
<path d="M595.918 138.275H473.922V40.3945H595.918V138.275Z" fill="#58A52C"/>
<path d="M486.468 122.003H482.449V120.875H486.468V122.003Z" fill="#263238"/>
<path d="M496.613 128.178H491.516V127.002H496.613V128.178Z" fill="#263238"/>
<path d="M514.455 128.179H509.357V127.002H514.455V128.179Z" fill="#263238"/>
<path d="M532.297 128.178H527.15V127.002H532.297V128.178Z" fill="#263238"/>
<path d="M550.139 128.179H544.992V127.003H550.139V128.179Z" fill="#263238"/>
<path d="M567.929 128.178H562.832V127.002H567.929V128.178Z" fill="#263238"/>
<path d="M585.773 128.178H580.627V127.002H585.773V128.178Z" fill="#263238"/>
<path d="M486.468 106.613H482.449V105.437H486.468V106.613Z" fill="#263238"/>
<path d="M486.468 77.5972H482.449V76.4209H486.468V77.5972Z" fill="#263238"/>
<path d="M486.468 62.9911H482.449V61.8638H486.468V62.9911Z" fill="#263238"/>
<path d="M486.666 92.1041H482.646V90.9277H486.666V92.1041Z" fill="#263238"/>
<path d="M585.621 122.005C585.621 122.005 585.474 122.021 585.18 122.054C584.886 122.054 584.477 122.054 583.955 122.054C582.778 122.054 581.161 122.103 579.102 122.103C574.838 122.103 568.76 122.152 561.261 122.201C546.214 122.201 525.432 122.25 502.493 122.25C497.69 122.25 493.034 122.25 488.524 122.25H488.279V122.005C488.328 102.35 488.377 85.0481 488.377 72.6475C488.426 66.4718 488.426 61.5214 488.475 58.0904C488.475 56.3912 488.475 55.0842 488.475 54.1693C488.508 53.7118 488.524 53.3687 488.524 53.14C488.524 52.9112 488.524 52.7969 488.524 52.7969C488.557 52.7969 488.573 52.9112 488.573 53.14C488.573 53.3687 488.573 53.7118 488.573 54.1693C488.606 55.0842 488.622 56.3912 488.622 58.0904C488.671 61.5214 488.671 66.4718 488.72 72.6475C488.72 85.0481 488.769 102.35 488.818 122.005L488.524 121.76C493.034 121.76 497.69 121.76 502.493 121.76C525.432 121.76 546.214 121.809 561.261 121.809C568.76 121.858 574.838 121.907 579.102 121.907C581.161 121.907 582.778 121.956 583.955 121.956C584.477 121.956 584.886 121.972 585.18 122.005C585.474 122.005 585.621 122.005 585.621 122.005Z" fill="#263238"/>
<path d="M586.75 91.517C586.75 91.6641 565.625 91.7621 539.599 91.7621C513.523 91.7621 492.398 91.6641 492.398 91.517C492.398 91.37 513.523 91.272 539.599 91.272C565.625 91.272 586.75 91.37 586.75 91.517Z" fill="#263238"/>
<path d="M586.75 77.0087C586.75 77.1558 565.625 77.2538 539.599 77.2538C513.523 77.2538 492.398 77.1558 492.398 77.0087C492.398 76.8617 513.523 76.7637 539.599 76.7637C565.625 76.7637 586.75 76.8617 586.75 77.0087Z" fill="#263238"/>
<path d="M586.75 62.4513C586.75 62.5983 565.625 62.6964 539.599 62.6964C513.523 62.6964 492.398 62.5983 492.398 62.4513C492.398 62.3043 513.523 62.1572 539.599 62.1572C565.625 62.1572 586.75 62.3043 586.75 62.4513Z" fill="#263238"/>
<path d="M586.75 106.025C586.75 106.172 565.625 106.27 539.599 106.27C513.523 106.27 492.398 106.172 492.398 106.025C492.398 105.878 513.523 105.78 539.599 105.78C565.625 105.78 586.75 105.878 586.75 106.025Z" fill="#263238"/>
<path d="M493.379 118.867C493.379 116.465 493.379 106.025 493.379 106.025L501.417 93.5758L506.858 97.742L518.033 80.3911L524.601 85.0474L533.766 69.0198L541.217 75.0976L552.392 53.8745L564.449 77.5973L574.154 65.7359L585.623 62.452V118.867H493.379Z" fill="#D8FFC1"/>
<path d="M586.751 57.8441C586.751 57.8768 586.685 57.8931 586.554 57.8931C586.391 57.8931 586.195 57.8931 585.966 57.8931C585.411 57.9258 584.627 57.9421 583.614 57.9421C581.555 57.9421 578.614 57.9912 574.84 57.9912L574.938 57.9421C572.389 61.3241 569.204 65.4903 565.527 70.2937L565.478 70.3427H565.38C558.519 70.3917 550.529 70.3917 541.805 70.3917L542.001 70.2937C538.913 75.4401 535.531 81.0277 532.1 86.8114C528.718 92.399 525.434 97.8395 522.346 102.986L522.15 103.28L521.954 102.986C517.298 96.5652 512.984 90.6345 509.161 85.439L509.505 85.39C504.652 92.9381 500.633 99.1629 497.839 103.574C496.418 105.682 495.339 107.397 494.555 108.574C494.196 109.129 493.918 109.554 493.722 109.848C493.526 110.142 493.379 110.289 493.379 110.289C493.379 110.289 493.477 110.142 493.673 109.848C493.869 109.521 494.13 109.064 494.457 108.476C495.192 107.299 496.271 105.584 497.643 103.427C500.437 99.0159 504.358 92.7911 509.161 85.1939L509.308 84.8998L509.505 85.1939C513.328 90.3894 517.641 96.3201 522.346 102.692L521.905 102.741C524.993 97.5945 528.277 92.1539 531.659 86.5173C535.139 80.7827 538.472 75.1951 541.56 70.0486L541.658 69.9016H541.805C550.529 69.9016 558.519 69.9506 565.38 69.9506L565.233 70.0486C568.909 65.2452 572.144 61.1281 574.742 57.7951V57.7461H574.84C578.614 57.7461 581.555 57.7951 583.614 57.7951C584.627 57.7951 585.411 57.8114 585.966 57.8441C586.195 57.8441 586.391 57.8441 586.554 57.8441C586.685 57.8441 586.751 57.8441 586.751 57.8441Z" fill="#58A52C"/>
<path d="M513.23 89.4086C513.23 89.8988 512.788 90.2909 512.298 90.2909C511.808 90.2909 511.416 89.8988 511.416 89.4086C511.416 88.9185 511.808 88.5264 512.298 88.5264C512.788 88.5264 513.23 88.9185 513.23 89.4086Z" fill="#58A52C"/>
<path d="M540.433 73.9687C540.433 74.4098 539.991 74.8019 539.501 74.8019C539.011 74.8019 538.619 74.4098 538.619 73.9687C538.619 73.4785 539.011 73.0864 539.501 73.0864C539.991 73.0864 540.433 73.4785 540.433 73.9687Z" fill="#58A52C"/>
<path d="M561.556 70.1464C561.556 70.6365 561.164 71.0287 560.673 71.0287C560.134 71.0287 559.742 70.6365 559.742 70.1464C559.742 69.6563 560.134 69.2642 560.673 69.2642C561.164 69.2642 561.556 69.6563 561.556 70.1464Z" fill="#58A52C"/>
<path d="M590.426 152.785C590.426 152.932 564.694 153.079 532.933 153.079C501.172 153.079 475.439 152.932 475.439 152.785C475.439 152.687 501.172 152.54 532.933 152.54C564.694 152.54 590.426 152.687 590.426 152.785Z" fill="#263238"/>
<path d="M590.426 159.008C590.426 159.155 564.694 159.253 532.933 159.253C501.172 159.253 475.439 159.155 475.439 159.008C475.439 158.861 501.172 158.763 532.933 158.763C564.694 158.763 590.426 158.861 590.426 159.008Z" fill="#263238"/>
<path d="M590.426 165.233C590.426 165.38 564.694 165.478 532.933 165.478C501.172 165.478 475.439 165.38 475.439 165.233C475.439 165.086 501.172 164.988 532.933 164.988C564.694 164.988 590.426 165.086 590.426 165.233Z" fill="#263238"/>
<path d="M590.426 171.458C590.426 171.605 564.694 171.704 532.933 171.704C501.172 171.704 475.439 171.605 475.439 171.458C475.439 171.311 501.172 171.213 532.933 171.213C564.694 171.213 590.426 171.311 590.426 171.458Z" fill="#263238"/>
<path d="M545.04 169.005C548.177 163.712 549.109 156.703 549.893 150.576C550.285 147.733 550.922 143.665 548.913 141.852C546.756 139.891 546.56 136.95 544.109 135.48C541.609 133.96 538.227 133.813 535.924 135.529" fill="#263238"/>
<path d="M536.322 187.727C531.519 188.119 527.352 184.394 527.156 179.591C527.009 174.984 526.813 170.278 526.813 170.278C526.813 170.278 519.853 169.641 519.314 162.73C518.824 155.77 519.069 139.792 519.069 139.792C526.862 135.822 536.224 136.459 543.478 141.36L543.037 165.72V178.856C542.988 183.267 540.684 187.384 536.322 187.727Z" fill="#FFBE9D"/>
<path d="M526.218 154.251C527.443 152.781 529.355 152.192 530.972 153.222C532.541 154.251 533.178 156.555 532.296 158.27C531.708 159.447 530.286 160.525 528.914 160.819C527.59 161.113 526.659 162.338 526.806 163.711C527.002 165.426 529.894 166.063 531.217 167.534C533.227 169.739 537.687 170.72 540.726 171.063C543.667 171.406 543.324 171.455 545.039 169.004C546.265 167.24 546.657 165.573 546.706 163.368C546.804 158.27 546.918 153.173 547.049 148.075C547.049 146.213 547.098 144.35 546.657 142.537C546.265 140.772 545.333 139.008 543.765 138.027C542.099 136.9 539.942 136.802 538.03 136.165C535.629 135.43 533.619 133.812 531.364 132.685C529.11 131.509 526.365 130.822 524.11 131.95C522.493 132.783 521.415 134.4 519.797 135.283C517.592 136.557 514.553 136.263 513.425 139.547C513.082 140.723 513.082 141.949 513.474 143.076C514.994 147.585 520.532 149.399 524.551 147.438C524.65 148.222 523.865 149.889 524.699 152.29C524.944 153.075 525.042 154.202 526.218 154.251Z" fill="#263238"/>
<path d="M527.445 158.565C527.543 158.516 527.739 158.957 528.327 158.908C528.867 158.859 529.602 158.222 529.651 157.34C529.7 156.409 529.014 155.771 528.425 155.575C527.886 155.379 527.445 155.477 527.445 155.428C527.396 155.379 527.837 155.085 528.523 155.232C528.866 155.33 529.308 155.526 529.651 155.869C529.945 156.212 530.19 156.801 530.141 157.34C530.092 158.516 529.112 159.349 528.327 159.251C527.935 159.251 527.69 159.055 527.543 158.859C527.445 158.712 527.445 158.565 527.445 158.565Z" fill="#EB996E"/>
<path d="M534.703 137.686C534.654 137.686 534.85 137.392 535.242 137.098C535.683 136.755 536.418 136.411 537.349 136.264C538.33 136.117 539.506 136.264 540.682 136.754C541.859 137.294 542.937 138.274 543.721 139.499C545.388 141.999 545.682 144.695 545.878 146.508C546.074 148.371 546.123 149.547 546.074 149.547C546.025 149.547 545.829 148.42 545.535 146.557C545.241 144.744 544.849 142.146 543.329 139.793C542.545 138.666 541.565 137.735 540.486 137.196C539.408 136.705 538.33 136.558 537.398 136.656C535.585 136.804 534.752 137.784 534.703 137.686Z" fill="#455A64"/>
<path d="M515.142 144.792C515.142 144.792 515.093 144.792 514.897 144.743C514.75 144.694 514.505 144.645 514.211 144.449C513.917 144.252 513.623 143.958 513.427 143.517C513.182 143.125 513.035 142.537 513.182 141.949C513.329 141.312 513.721 140.723 514.309 140.331C514.946 139.89 515.779 139.89 516.515 139.89C517.25 139.89 517.985 139.841 518.573 139.351C519.21 138.91 519.701 138.175 520.289 137.538C521.514 136.214 523.132 135.381 524.602 135.038C526.121 134.646 527.543 134.695 528.67 134.94C529.797 135.185 530.68 135.577 531.219 135.92C531.758 136.263 532.052 136.508 532.003 136.557C531.954 136.655 530.827 135.675 528.621 135.283C527.494 135.136 526.17 135.087 524.7 135.479C523.279 135.871 521.808 136.606 520.681 137.881C520.093 138.469 519.603 139.204 518.916 139.743C518.524 140.037 518.132 140.233 517.691 140.282C517.299 140.38 516.858 140.38 516.515 140.331C515.73 140.331 515.044 140.331 514.554 140.674C514.015 140.969 513.672 141.508 513.525 141.998C513.28 143.076 513.868 143.909 514.309 144.301C514.799 144.694 515.191 144.743 515.142 144.792Z" fill="#455A64"/>
<path d="M533.718 164.054C533.669 164.005 534.061 163.858 534.601 163.515C535.189 163.123 535.973 162.437 536.512 161.408C537.051 160.329 537.345 158.81 536.806 157.34C536.61 156.555 536.169 155.869 535.581 155.232C534.993 154.644 534.208 154.154 533.424 153.664C532.591 153.173 531.758 152.732 531.023 152.242C530.287 151.752 529.601 151.115 529.111 150.429C528.082 149.056 527.592 147.586 527.493 146.311C527.346 145.086 527.543 144.057 527.69 143.371C527.788 143.044 527.886 142.799 527.984 142.635C528.049 142.439 528.098 142.358 528.131 142.39C528.229 142.39 527.494 143.861 527.837 146.262C527.984 147.488 528.523 148.909 529.454 150.135C529.944 150.788 530.565 151.36 531.317 151.85C532.003 152.291 532.836 152.732 533.669 153.222C534.502 153.713 535.287 154.203 535.924 154.889C536.561 155.575 537.051 156.359 537.296 157.193C537.786 158.81 537.492 160.476 536.806 161.555C536.169 162.682 535.336 163.319 534.748 163.662C534.11 164.005 533.718 164.054 533.718 164.054Z" fill="#455A64"/>
<path d="M545.726 153.86C545.726 153.909 545.431 154.007 544.843 154.056C544.255 154.154 543.373 154.203 542.344 154.154C540.236 154.056 537.295 153.321 534.599 151.508C531.953 149.694 530.09 147.194 529.551 145.136C529.257 144.058 529.306 143.175 529.453 142.587C529.551 142.048 529.747 141.754 529.796 141.754C529.894 141.754 529.257 143.028 529.894 145.038C530.482 146.949 532.296 149.302 534.893 151.067C537.491 152.831 540.334 153.615 542.344 153.811C544.402 154.007 545.726 153.762 545.726 153.86Z" fill="#455A64"/>
<path d="M546.809 149.155C549.211 146.41 552.789 144.596 556.367 144.792C559.994 144.988 563.523 147.488 564.405 151.017C565.042 153.664 564.258 156.409 563.915 159.104C563.572 161.8 563.915 164.986 566.121 166.555C567.444 167.535 569.16 167.682 570.728 168.074C572.346 168.466 574.061 169.299 574.6 170.819C575.237 172.583 573.914 174.593 572.198 175.377C570.483 176.112 568.473 175.867 566.66 175.426C567.493 177.436 566.464 179.935 564.601 181.014C562.739 182.092 560.288 181.847 558.425 180.72C556.612 179.592 555.338 177.681 554.7 175.622C553.524 177.73 550.387 178.171 548.378 176.847C546.368 175.524 545.535 172.877 545.829 170.525C546.123 168.123 547.446 165.966 549.015 164.153C549.799 163.271 550.681 162.388 551.269 161.31C551.809 160.281 552.005 158.908 551.417 157.879C550.779 156.85 549.162 156.409 548.329 157.242" fill="#263238"/>
<path d="M550.975 156.409C551.024 156.458 550.19 156.851 548.916 156.36C547.642 155.968 546.171 154.498 545.877 152.439C545.73 151.41 545.877 150.43 546.22 149.646C546.563 148.812 547.053 148.175 547.544 147.734C548.524 146.852 549.357 146.656 549.357 146.705C549.406 146.803 548.671 147.097 547.789 147.979C546.955 148.861 546.073 150.479 546.416 152.341C546.661 154.204 547.936 155.576 549.063 156.066C550.19 156.557 550.975 156.311 550.975 156.409Z" fill="#58A52C"/>
<path d="M526.615 170.182C526.615 170.231 525.978 170.28 524.998 170.035C524.066 169.79 522.792 169.202 521.665 168.172C520.488 167.192 519.753 165.967 519.41 165.085C519.067 164.153 519.018 163.516 519.067 163.516C519.116 163.516 519.312 164.055 519.753 164.938C520.145 165.771 520.88 166.849 521.959 167.829C523.037 168.761 524.262 169.349 525.145 169.692C526.027 169.986 526.615 170.084 526.615 170.182Z" fill="#EB996E"/>
<path d="M553.273 175.867C553.273 175.867 553.159 175.851 552.93 175.818C552.734 175.769 552.391 175.622 552.048 175.426C551.313 174.936 550.43 173.956 550.087 172.436C549.891 171.652 549.842 170.819 549.989 169.888C550.136 169.005 550.479 168.074 550.921 167.192C551.754 165.329 553.126 163.614 554.155 161.604C554.695 160.575 555.038 159.546 555.185 158.516C555.332 157.487 555.234 156.458 554.842 155.576C554.155 153.762 552.734 152.537 551.362 152.096C549.94 151.605 548.715 151.703 547.931 151.85C547.097 152.047 546.705 152.243 546.656 152.243C546.656 152.21 546.754 152.145 546.95 152.047C547.146 151.948 547.44 151.801 547.882 151.654C548.666 151.458 549.989 151.262 551.46 151.752C552.93 152.194 554.548 153.468 555.283 155.379C555.675 156.36 555.822 157.438 555.675 158.565C555.528 159.693 555.136 160.771 554.646 161.8C553.567 163.908 552.195 165.623 551.313 167.388C550.43 169.103 550.087 170.917 550.43 172.338C550.724 173.76 551.509 174.74 552.146 175.23C552.832 175.72 553.273 175.818 553.273 175.867Z" fill="#455A64"/>
<path d="M563.711 180.917C563.711 180.95 563.58 180.966 563.319 180.966C563.025 180.966 562.584 180.917 562.044 180.721C561.015 180.427 559.545 179.545 558.466 177.927C557.29 176.31 556.751 173.908 556.898 171.31C556.996 168.712 557.731 165.968 558.221 163.125C558.466 161.654 558.614 160.233 558.515 158.91C558.417 157.537 558.123 156.214 557.633 155.087C557.143 153.959 556.408 153.028 555.526 152.342C554.643 151.656 553.663 151.263 552.781 151.067C550.918 150.626 549.35 150.822 548.321 151.067C547.242 151.312 546.703 151.509 546.703 151.46C546.703 151.46 546.834 151.394 547.095 151.263C547.34 151.165 547.732 151.018 548.272 150.871C549.301 150.577 550.918 150.283 552.83 150.675C553.81 150.92 554.839 151.312 555.771 151.999C556.702 152.685 557.535 153.714 558.074 154.891C558.613 156.116 558.908 157.439 559.006 158.861C559.104 160.282 558.957 161.752 558.712 163.174C558.221 166.115 557.486 168.81 557.339 171.359C557.192 173.859 557.682 176.163 558.761 177.731C559.79 179.299 561.113 180.182 562.143 180.525C563.123 180.917 563.76 180.868 563.711 180.917Z" fill="#455A64"/>
<path d="M565.824 212.482L551.07 224L557.246 234.195L575.038 221.108L565.824 212.482Z" fill="#FFBE9D"/>
<path d="M526.317 173.81C526.317 173.81 526.415 172.585 523.181 172.389C519.995 172.242 519.602 172.291 519.602 172.291C519.602 172.291 518.181 170.428 518.083 169.301C517.985 168.173 518.769 166.262 518.769 166.262L522.004 165.968L521.122 163.762L518.818 163.909L512.348 164.693L509.8 176.065L492.057 209.1C489.214 213.364 490.782 219.246 495.439 221.501C500.046 223.706 506.173 219.001 507.839 214.247L517.642 177.486L521.122 174.79L526.023 173.908" fill="#FFBE9D"/>
<path d="M485.979 393.687L510.093 255.075H510.044C510.11 254.879 510.159 254.683 510.191 254.487V254.438C514.309 238.165 520.631 232.97 520.631 232.97L557.49 235.273C560.627 240.91 561.068 254.438 561.068 254.438C561.46 256.104 553.275 390.403 553.275 390.403L540.923 390.06L534.257 263.015L498.33 394.226L485.979 393.687Z" fill="#FFBE9D"/>
<path d="M485.683 394.961L485.732 393.687L498.427 394.079L498.329 398.196H497.544C494.064 398.294 479.801 398.441 477.498 397.706C474.9 396.921 485.683 394.961 485.683 394.961Z" fill="#455A64"/>
<g opacity="0.6">
<path d="M493.775 397.95C493.971 397.019 494.56 396.088 495.442 395.5C496.324 394.911 497.353 394.617 498.432 394.715L498.334 397.999L493.775 397.95Z" fill="white"/>
</g>
<g opacity="0.6">
<path d="M480.437 396.088C480.437 396.088 476.614 396.97 477.104 397.558C477.545 398.146 491.955 398.539 498.327 398.195V397.901L481.515 397.607C481.515 397.607 481.172 396.137 480.437 396.088Z" fill="white"/>
</g>
<path d="M498.523 397.902C498.523 397.935 498.441 397.951 498.278 397.951C498.114 397.951 497.918 397.951 497.689 397.951C497.036 397.951 496.268 397.968 495.386 398C493.425 398 490.729 398 487.789 397.902C484.848 397.853 482.152 397.706 480.191 397.608C479.309 397.543 478.558 397.494 477.937 397.461C477.708 397.429 477.496 397.412 477.3 397.412C477.169 397.38 477.104 397.363 477.104 397.363C477.104 397.363 477.169 397.363 477.3 397.363C477.496 397.363 477.708 397.38 477.937 397.412C478.558 397.445 479.325 397.478 480.24 397.51C482.152 397.608 484.848 397.706 487.789 397.755C490.729 397.853 493.425 397.853 495.386 397.902C496.268 397.902 497.036 397.902 497.689 397.902C497.918 397.902 498.114 397.902 498.278 397.902C498.441 397.902 498.523 397.902 498.523 397.902Z" fill="#263238"/>
<path d="M481.472 397.805C481.472 397.805 481.424 397.315 481.08 396.776C480.786 396.237 480.296 395.992 480.345 395.943C480.345 395.894 480.884 396.139 481.227 396.678C481.571 397.266 481.522 397.805 481.472 397.805Z" fill="#263238"/>
<path d="M485.289 396.138C485.24 396.138 485.043 395.942 484.896 395.697C484.7 395.403 484.602 395.158 484.651 395.158C484.651 395.109 484.847 395.354 484.994 395.599C485.191 395.893 485.289 396.138 485.289 396.138Z" fill="#263238"/>
<path d="M486.32 395.647C486.271 395.697 486.074 395.549 485.878 395.353C485.682 395.206 485.486 395.01 485.535 394.961C485.584 394.961 485.78 395.108 485.976 395.255C486.172 395.451 486.32 395.647 486.32 395.647Z" fill="#263238"/>
<path d="M487.006 394.57C487.006 394.619 486.711 394.619 486.319 394.619C485.976 394.619 485.682 394.57 485.682 394.57C485.682 394.521 485.976 394.472 486.319 394.472C486.711 394.521 487.006 394.521 487.006 394.57Z" fill="#263238"/>
<path d="M487.25 393.785C487.25 393.834 486.907 393.981 486.515 393.981C486.074 393.981 485.73 393.883 485.73 393.883C485.73 393.834 486.074 393.834 486.466 393.834C486.907 393.834 487.201 393.736 487.25 393.785Z" fill="#263238"/>
<path d="M484.851 395.107C484.851 395.107 484.557 395.156 484.066 395.058C483.805 395.026 483.511 394.96 483.184 394.862C483.037 394.813 482.89 394.764 482.694 394.666C482.645 394.617 482.547 394.568 482.498 394.421C482.498 394.323 482.547 394.176 482.645 394.127C483.429 393.784 484.214 394.225 484.459 394.568C484.655 394.764 484.704 394.96 484.753 395.107C484.753 395.254 484.753 395.303 484.753 395.303C484.704 395.303 484.704 395.009 484.41 394.666C484.263 394.47 484.017 394.323 483.723 394.225C483.429 394.127 483.037 394.078 482.743 394.274C482.596 394.323 482.645 394.47 482.792 394.568C482.939 394.666 483.086 394.715 483.233 394.764C483.56 394.862 483.838 394.928 484.066 394.96C484.557 395.058 484.851 395.058 484.851 395.107Z" fill="#263238"/>
<path d="M484.655 395.157C484.655 395.157 484.557 394.961 484.606 394.618C484.606 394.422 484.704 394.226 484.802 394.079C484.949 393.883 485.145 393.687 485.488 393.687C485.684 393.736 485.782 393.932 485.733 394.03C485.733 394.177 485.684 394.275 485.586 394.373C485.455 394.569 485.324 394.716 485.194 394.814C484.949 395.059 484.753 395.157 484.753 395.108C484.704 395.108 484.9 395.01 485.145 394.765C485.243 394.634 485.357 394.487 485.488 394.324C485.586 394.177 485.684 393.883 485.488 393.834C485.292 393.834 485.047 393.981 484.949 394.128C484.802 394.324 484.704 394.471 484.704 394.618C484.606 394.912 484.704 395.108 484.655 395.157Z" fill="#263238"/>
<path d="M498.381 394.716C498.332 394.716 497.989 394.667 497.4 394.716C496.861 394.765 496.077 394.961 495.342 395.451C494.656 395.941 494.264 396.578 494.019 397.068C493.822 397.559 493.822 397.902 493.773 397.902C493.773 397.902 493.773 397.82 493.773 397.657C493.822 397.509 493.822 397.313 493.92 397.019C494.116 396.529 494.558 395.843 495.293 395.304C495.979 394.814 496.812 394.618 497.4 394.618C497.695 394.618 497.94 394.618 498.087 394.667C498.283 394.667 498.381 394.683 498.381 394.716Z" fill="#263238"/>
<path d="M492.205 396.775C492.205 396.824 491.372 396.922 490.343 396.922C489.314 396.873 488.48 396.775 488.529 396.726C488.529 396.677 489.363 396.726 490.343 396.775C491.372 396.775 492.205 396.726 492.205 396.775Z" fill="#263238"/>
<path d="M494.656 396.873C494.705 396.873 494.607 397.02 494.509 397.167C494.411 397.363 494.362 397.51 494.313 397.51C494.313 397.51 494.264 397.314 494.362 397.118C494.46 396.922 494.656 396.824 494.656 396.873Z" fill="#263238"/>
<path d="M495.633 395.794C495.682 395.843 495.584 395.941 495.437 396.039C495.29 396.186 495.192 396.235 495.143 396.235C495.143 396.186 495.192 396.088 495.339 395.941C495.486 395.843 495.633 395.745 495.633 395.794Z" fill="#263238"/>
<path d="M497.005 395.353C496.956 395.353 496.809 395.353 496.613 395.402C496.416 395.5 496.318 395.549 496.269 395.549C496.22 395.5 496.367 395.353 496.563 395.304C496.809 395.206 497.005 395.304 497.005 395.353Z" fill="#263238"/>
<path d="M497.937 395.108C497.937 395.157 497.888 395.206 497.79 395.256C497.692 395.305 497.594 395.305 497.545 395.256C497.545 395.206 497.643 395.157 497.741 395.108C497.839 395.108 497.937 395.108 497.937 395.108Z" fill="#263238"/>
<path d="M547.641 177.73C547.641 177.73 552.199 178.172 557.443 181.554C569.06 189.102 588.567 205.08 586.95 212.481C585.577 218.804 570.383 226.45 570.383 226.45L560.482 214.589L566.56 211.109L551.66 201.208L547.641 177.73Z" fill="#58A52C"/>
<path d="M554.305 201.797L553.815 203.562L552.099 211.747L551.707 223.755C560.53 235.127 560.677 244.733 560.677 244.733L515.976 249.929C515.976 241.106 519.211 229.98 519.211 229.98C521.809 225.618 521.662 212.482 521.172 212.041C518.427 209.247 517.741 207.238 519.946 203.709C519.946 203.709 506.124 218.217 504.703 219.54C499.801 224.05 495.096 222.775 492.89 220.815C486.764 215.374 493.038 208.316 493.038 208.316L516.368 181.603C517.986 179.79 520.093 178.467 522.446 177.878C524.946 177.29 527.445 176.996 527.445 176.996L543.032 177.143C543.032 177.143 546.022 177.241 547.639 177.731C547.639 177.731 553.08 179.447 554.452 186.162C555.873 192.828 554.305 201.797 554.305 201.797Z" fill="#58A52C"/>
<path d="M554.799 191.063C554.848 191.063 554.848 191.504 554.897 192.337C554.897 193.171 554.897 194.396 554.799 195.915C554.652 198.856 554.113 202.973 553.28 207.434C552.985 208.953 552.691 210.424 552.348 211.796V211.747C552.201 215.227 552.103 218.217 551.956 220.373C551.891 221.354 551.842 222.171 551.809 222.824C551.76 223.412 551.711 223.755 551.711 223.755C551.662 223.755 551.662 223.412 551.662 222.824C551.662 222.171 551.662 221.337 551.662 220.324C551.711 218.217 551.76 215.178 551.858 211.747V211.698C552.201 210.325 552.495 208.855 552.789 207.336C553.623 202.875 554.211 198.807 554.456 195.866C554.603 194.396 554.652 193.171 554.701 192.337C554.75 191.504 554.75 191.063 554.799 191.063Z" fill="#455A64"/>
<path d="M554.943 203.071C555.041 202.973 558.668 205.325 563.08 208.413C567.54 211.452 571.069 214.05 570.971 214.148C570.873 214.295 567.246 211.893 562.835 208.805C558.374 205.767 554.845 203.169 554.943 203.071Z" fill="#455A64"/>
<path d="M526.071 185.574C526.071 185.574 526.153 185.623 526.316 185.721C526.447 185.851 526.627 186.064 526.856 186.358C527.297 186.897 527.787 187.828 528.081 189.103C528.326 190.377 528.326 191.946 527.787 193.612C527.248 195.18 526.464 196.896 525.287 198.464C524.732 199.249 524.127 199.968 523.474 200.621C522.787 201.307 522.101 201.846 521.513 202.386C520.288 203.513 519.209 204.542 518.327 205.424C517.445 206.356 516.759 207.091 516.269 207.581C515.778 208.12 515.533 208.414 515.484 208.365C515.484 208.365 515.68 208.022 516.122 207.483C516.563 206.895 517.2 206.111 518.082 205.179C518.915 204.248 519.945 203.17 521.17 202.042C521.807 201.454 522.493 200.915 523.082 200.278C523.735 199.624 524.34 198.922 524.895 198.17C525.973 196.651 526.807 194.984 527.346 193.465C527.836 191.897 527.934 190.377 527.689 189.201C527.297 186.701 525.973 185.623 526.071 185.574Z" fill="#455A64"/>
<path d="M520.877 225.078L521.367 219.049H551.854L551.707 223.755L520.877 225.078Z" fill="#455A64"/>
<path d="M494.9 207.139C494.949 207.237 494.115 207.727 493.184 208.904C492.253 210.08 491.322 212.041 491.42 214.295C491.518 216.599 492.596 218.461 493.625 219.54C494.655 220.667 495.488 221.108 495.439 221.157C495.439 221.206 495.194 221.108 494.802 220.912C494.459 220.716 493.919 220.324 493.38 219.785C492.253 218.755 491.028 216.795 490.881 214.344C490.832 211.893 491.861 209.835 492.89 208.659C493.429 208.07 493.919 207.678 494.263 207.433C494.655 207.237 494.851 207.139 494.9 207.139Z" fill="#455A64"/>
<path d="M553.277 390.403L556.708 398.441L541.269 398.294L540.926 390.06L553.277 390.403Z" fill="#455A64"/>
<path d="M541.121 396.872C541.121 396.921 541.954 396.971 543.278 396.971C544.65 397.02 546.513 397.02 548.522 396.971C550.483 396.921 552.247 396.921 553.767 396.872C555.09 396.823 555.923 396.823 555.923 396.774C555.923 396.725 555.09 396.676 553.767 396.676C552.394 396.627 550.581 396.627 548.522 396.676C546.562 396.725 544.797 396.725 543.278 396.774C541.954 396.823 541.121 396.823 541.121 396.872Z" fill="#263238"/>
<path d="M547.589 390.255C547.442 390.255 547.393 391.726 547.54 393.49C547.638 395.304 547.785 396.725 547.932 396.725C548.079 396.725 548.128 395.255 547.981 393.49C547.883 391.677 547.736 390.255 547.589 390.255Z" fill="#263238"/>
<path opacity="0.6" d="M556.709 398.637L541.221 398.098L541.123 396.627L555.925 396.774L556.709 398.441" fill="white"/>
<path d="M559.695 236.99C571.312 273.702 556.313 318.255 559.891 361.045C560.284 365.211 561.95 370.259 558.029 372.661C557 373.298 555.725 373.543 554.5 373.543C551.363 373.396 548.716 371.779 545.922 370.651C540.58 368.544 534.551 368.299 529.062 370.014C525.337 371.19 521.661 373.2 517.837 372.661C512.74 371.877 509.407 366.828 504.702 364.672C500.339 362.662 495.242 363.446 490.39 363.299C490.357 363.299 490.308 363.299 490.243 363.299C483.283 363.103 478.43 356.29 480.244 349.575C487.253 323.843 510.534 240.323 520.876 225.08L551.706 223.756C554.549 227.187 558.176 232.285 559.695 236.99Z" fill="#2C3A40"/>
<path d="M548.866 254.243C548.915 254.292 548.277 255.125 547.199 256.35C546.121 257.625 544.601 259.34 542.641 261.006C540.729 262.722 538.769 263.898 537.298 264.732C535.828 265.516 534.848 265.908 534.848 265.859C534.75 265.663 538.524 263.898 542.298 260.614C544.209 258.997 545.778 257.33 546.954 256.105C548.081 254.929 548.817 254.194 548.866 254.243Z" fill="#263238"/>
<g opacity="0.1">
<path d="M535.286 268.113C525.581 292.963 523.719 320.803 530.09 346.683C530.679 348.937 531.218 351.486 529.943 353.398C528.277 355.897 524.307 355.75 522.003 353.79C519.748 351.829 518.866 348.741 518.278 345.8C514.063 323.891 521.709 301.884 529.992 281.2" fill="black"/>
</g>
<path d="M360.454 283.309H302.078V280.466H360.454V283.309Z" fill="#263238"/>
<path d="M293.01 283.309L282.031 242.285H327.663L337.564 283.309H293.01Z" fill="#263238"/>
<path d="M334.878 280.22H294.098L284.639 244.146H325.565L334.878 280.22Z" fill="#F5F5F5"/>
<path d="M285.325 246.744C299.098 246.744 312.479 246.744 326.252 246.744L325.565 244.146H284.639L285.325 246.744Z" fill="#EBEBEB"/>
<path d="M289.729 245.47C289.729 245.715 289.925 245.911 290.17 245.911C290.415 245.911 290.611 245.715 290.611 245.47C290.611 245.224 290.415 245.028 290.17 245.028C289.925 245.028 289.729 245.224 289.729 245.47Z" fill="#FAFAFA"/>
<path d="M288.164 245.469C288.164 245.714 288.409 245.911 288.654 245.911C288.9 245.911 289.096 245.714 289.096 245.469C289.096 245.224 288.9 245.028 288.654 245.028C288.409 245.028 288.164 245.224 288.164 245.469Z" fill="#FAFAFA"/>
<path d="M286.645 245.469C286.645 245.714 286.841 245.911 287.086 245.911C287.331 245.911 287.527 245.714 287.527 245.469C287.527 245.224 287.331 245.028 287.086 245.028C286.841 245.028 286.645 245.224 286.645 245.469Z" fill="#FAFAFA"/>
<path d="M316.1 262.576L320.56 267.673C322.325 266.448 323.354 264.536 323.305 262.527C323.305 258.949 320.021 256.008 316.051 256.008C312.081 256.057 308.846 258.998 308.846 262.576H316.1Z" fill="#58A52C"/>
<path d="M315.514 263.36C315.514 263.36 316.004 263.801 316.788 264.683C317.621 265.516 318.749 266.791 320.121 268.31L320.268 268.506L320.072 268.604C318.259 269.977 315.22 270.565 312.524 269.388C311.201 268.849 310.171 267.918 309.387 266.889C308.652 265.81 308.309 264.585 308.26 263.507V263.262H308.456C310.612 263.262 312.377 263.262 313.602 263.311C314.828 263.311 315.514 263.36 315.514 263.36C315.514 263.409 314.779 263.458 313.553 263.556C312.328 263.605 310.563 263.654 308.456 263.703L308.701 263.458C308.75 264.487 309.093 265.614 309.779 266.595C310.514 267.526 311.495 268.408 312.72 268.898C315.269 270.026 318.112 269.535 319.827 268.261L319.778 268.604C318.504 267.085 317.425 265.81 316.69 264.879C315.906 263.948 315.514 263.409 315.514 263.36Z" fill="#263238"/>
<path d="M312.57 258.704C312.57 258.9 312.766 259.096 313.012 259.096C313.208 259.096 313.404 258.9 313.404 258.704C313.404 258.459 313.208 258.263 313.012 258.263C312.766 258.263 312.57 258.459 312.57 258.704Z" fill="#263238"/>
<path d="M304.529 255.761C304.529 255.614 306.686 255.467 309.382 255.467C309.578 255.467 309.79 255.467 310.019 255.467H310.117L310.166 255.565C311.881 257.232 313.058 258.604 313.009 258.702C312.911 258.751 311.538 257.575 309.823 255.908L310.019 255.957C309.79 255.957 309.578 255.974 309.382 256.006C306.686 256.006 304.529 255.908 304.529 255.761Z" fill="#263238"/>
<path d="M295.366 260.86C295.317 260.909 295.17 260.223 294.876 258.998C294.581 257.723 294.238 255.91 293.748 253.704L293.699 253.459H293.993C296.836 253.41 300.365 253.41 304.09 253.361C304.041 253.312 304.58 253.753 304.384 253.557V253.606V253.655V253.704V253.802L304.433 254.047L304.531 254.538C304.597 254.864 304.662 255.175 304.727 255.469C304.858 256.122 304.972 256.743 305.07 257.331C305.299 258.54 305.512 259.7 305.708 260.811L305.757 261.056H305.463C302.424 261.056 299.875 261.007 298.11 261.007C297.294 260.975 296.607 260.958 296.052 260.958C295.562 260.909 295.317 260.909 295.366 260.86C295.366 260.86 295.611 260.86 296.15 260.811C296.705 260.811 297.392 260.795 298.209 260.762C300.022 260.713 302.522 260.664 305.463 260.615L305.267 260.909C305.038 259.798 304.809 258.638 304.58 257.429C304.45 256.841 304.335 256.22 304.237 255.567C304.172 255.273 304.107 254.962 304.041 254.636L303.943 254.145L303.894 253.9V253.802V253.704H303.845V253.655C303.649 253.459 304.188 253.9 304.09 253.9C300.365 253.851 296.836 253.851 293.993 253.851L294.189 253.606C294.581 255.763 294.876 257.576 295.072 258.851C295.268 260.125 295.366 260.86 295.366 260.86Z" fill="#263238"/>
<path d="M311.982 266.841C311.982 267.086 312.179 267.233 312.375 267.233C312.62 267.233 312.816 267.086 312.816 266.841C312.816 266.645 312.62 266.449 312.375 266.449C312.179 266.449 311.982 266.645 311.982 266.841Z" fill="#263238"/>
<path d="M305.018 266.89C305.018 266.743 306.684 266.596 308.694 266.596C310.752 266.596 312.37 266.694 312.37 266.841C312.37 266.988 310.752 267.135 308.694 267.135C306.684 267.135 305.018 267.037 305.018 266.89Z" fill="#263238"/>
<path d="M295.364 270.075C295.364 270.124 295.216 269.634 294.922 268.702C294.677 267.82 294.285 266.497 293.844 264.83L293.746 264.585H293.991C296.785 264.536 300.461 264.487 304.48 264.487C304.235 264.291 304.774 264.732 304.725 264.683V264.732L304.774 264.83L304.823 265.026L304.872 265.369L305.068 266.055C305.199 266.513 305.313 266.97 305.411 267.428C305.64 268.31 305.853 269.16 306.049 269.977L306.147 270.271H305.853C302.716 270.271 300.069 270.222 298.255 270.173C297.406 270.173 296.687 270.156 296.099 270.124C295.609 270.124 295.364 270.075 295.364 270.075C295.413 270.075 295.658 270.026 296.197 270.026C296.785 269.993 297.52 269.96 298.402 269.928C300.216 269.879 302.814 269.83 305.853 269.781L305.607 270.075C305.379 269.258 305.15 268.408 304.921 267.526C304.823 267.101 304.709 266.66 304.578 266.203L304.382 265.467L304.333 265.124L304.284 264.977L304.235 264.879V264.83V264.781C304.186 264.732 304.676 265.173 304.48 264.977C300.461 264.977 296.785 264.977 294.04 264.977L294.187 264.732C294.579 266.35 294.873 267.624 295.069 268.555C295.315 269.486 295.413 270.026 295.364 270.075Z" fill="#263238"/>
<path d="M296.15 255.861C296.15 255.714 297.719 255.616 299.63 255.616C301.542 255.616 303.061 255.714 303.061 255.861C303.061 256.008 301.542 256.106 299.63 256.106C297.719 256.106 296.15 256.008 296.15 255.861Z" fill="#263238"/>
<path d="M296.25 256.988C296.25 256.89 297.818 256.743 299.73 256.743C301.642 256.743 303.21 256.841 303.21 256.988C303.21 257.135 301.642 257.233 299.73 257.233C297.818 257.282 296.25 257.135 296.25 256.988Z" fill="#263238"/>
<path d="M296.443 258.116C296.443 257.969 297.963 257.822 299.825 257.822C301.639 257.822 303.158 257.92 303.158 258.067C303.158 258.214 301.688 258.361 299.825 258.361C297.963 258.361 296.443 258.263 296.443 258.116Z" fill="#263238"/>
<path d="M296.346 266.791C296.346 266.644 297.816 266.546 299.679 266.497C301.492 266.497 302.963 266.595 302.963 266.742C302.963 266.889 301.492 267.036 299.679 267.036C297.816 267.036 296.346 266.938 296.346 266.791Z" fill="#263238"/>
<path d="M296.738 268.016C296.738 267.918 298.013 267.771 299.581 267.771C301.15 267.771 302.375 267.869 302.424 268.016C302.424 268.163 301.15 268.261 299.581 268.261C298.013 268.31 296.738 268.163 296.738 268.016Z" fill="#263238"/>
<path d="M232.879 283.209V288.601H236.408V397.608H243.662V288.601H282.04V397.608H289.294V288.601H455.844V397.559H463.098V288.601H466.234V283.209H232.879Z" fill="#2C3A40"/>
<path d="M389.773 323.794C389.773 323.941 391.881 324.039 394.479 324.039C397.077 324.039 399.184 323.941 399.184 323.794C399.184 323.696 397.077 323.598 394.479 323.598C391.881 323.598 389.773 323.696 389.773 323.794Z" fill="#263238"/>
<path d="M321.243 324.921C321.096 324.921 320.998 324.872 320.998 324.823C320.998 324.725 321.096 324.676 321.243 324.676C321.39 324.676 321.488 324.725 321.488 324.823C321.488 324.872 321.39 324.921 321.243 324.921Z" fill="#455A64"/>
<path d="M367.318 227.873L340.311 200.426L339.723 197.485C339.625 196.929 339.511 196.308 339.38 195.622C339.282 194.838 339.282 194.005 339.429 193.221C339.625 192.24 339.919 190.966 340.262 190.329C340.752 189.545 340.017 188.564 339.233 188.907C338.498 189.25 337.174 191.407 336.929 194.348C336.635 197.338 334.087 193.368 333.155 191.946C332.224 190.574 329.087 186.31 328.401 186.261C327.47 186.163 327.225 187.241 328.205 188.613C329.185 190.035 331.832 194.397 331.097 194.838C331.097 194.838 331.08 194.838 331.048 194.838C329.528 194.593 328.009 195.328 327.323 196.701C326.636 198.024 325.852 199.886 326.489 200.72C327.666 202.337 330.803 205.278 330.803 205.278L331.685 206.062C331.685 206.062 355.065 239.931 360.162 241.058C363.348 241.744 412.362 245.813 412.362 245.813L416.038 232.285L367.318 227.873Z" fill="#B78876"/>
<path d="M326.295 200.181C327.112 200.965 327.945 201.766 328.795 202.583C329.089 202.828 329.383 203.122 329.726 203.269C330.069 203.416 330.559 203.367 330.804 203.073C331.049 202.828 331.098 202.436 330.951 202.093C330.853 201.75 330.608 201.455 330.412 201.21C329.595 200.23 328.778 199.25 327.961 198.27" fill="#B78876"/>
<path d="M327.959 198.269C328.008 198.22 328.498 198.661 329.185 199.495C329.577 199.919 329.985 200.377 330.41 200.867C330.655 201.161 330.949 201.406 331.145 201.798C331.292 202.19 331.39 202.73 331.047 203.171C330.704 203.661 330.116 203.661 329.675 203.514C329.234 203.367 328.94 203.073 328.694 202.828C328.27 202.37 327.845 201.929 327.42 201.504C326.685 200.72 326.244 200.23 326.293 200.181C326.342 200.132 326.832 200.524 327.665 201.21C328.09 201.635 328.547 202.06 329.038 202.485C329.283 202.73 329.528 202.926 329.871 203.024C330.116 203.122 330.508 203.073 330.655 202.877C330.802 202.681 330.802 202.288 330.655 202.043C330.557 201.7 330.312 201.455 330.067 201.161C329.675 200.671 329.299 200.181 328.94 199.691C328.253 198.857 327.91 198.318 327.959 198.269Z" fill="#AA6550"/>
<path d="M328.059 198.417C328.908 199.234 329.741 200.034 330.558 200.819C330.852 201.113 331.146 201.358 331.49 201.505C331.882 201.652 332.323 201.603 332.617 201.309C332.813 201.064 332.862 200.672 332.764 200.328C332.617 199.985 332.372 199.691 332.176 199.446C331.359 198.466 330.542 197.486 329.725 196.505" fill="#B78876"/>
<path d="M329.721 196.506C329.77 196.457 330.26 196.947 330.946 197.731C331.371 198.189 331.796 198.646 332.221 199.104C332.417 199.398 332.711 199.643 332.907 200.035C333.103 200.427 333.152 201.015 332.809 201.456C332.466 201.897 331.878 201.897 331.436 201.75C331.044 201.603 330.75 201.309 330.456 201.064C330.031 200.607 329.607 200.166 329.182 199.741C328.447 198.956 328.005 198.466 328.054 198.417C328.103 198.368 328.643 198.76 329.427 199.496C329.884 199.888 330.342 200.296 330.799 200.721C331.044 200.966 331.338 201.211 331.632 201.309C331.927 201.407 332.27 201.358 332.417 201.113C332.613 200.917 332.564 200.574 332.466 200.28C332.319 199.986 332.074 199.692 331.829 199.447C331.436 198.924 331.061 198.434 330.701 197.976C330.064 197.094 329.672 196.555 329.721 196.506Z" fill="#AA6550"/>
<path d="M330.021 196.995C330.838 197.779 331.672 198.579 332.521 199.396C332.766 199.641 333.06 199.935 333.452 200.082C333.796 200.229 334.286 200.18 334.531 199.886C334.776 199.641 334.825 199.249 334.678 198.906C334.58 198.563 334.335 198.269 334.09 198.024C333.305 197.044 332.505 196.063 331.688 195.083" fill="#B78876"/>
<path d="M331.692 195.083C331.741 195.034 332.231 195.525 332.917 196.309C333.31 196.766 333.718 197.224 334.143 197.681C334.388 197.975 334.633 198.22 334.829 198.612C335.025 199.005 335.123 199.544 334.78 200.034C334.437 200.475 333.849 200.475 333.408 200.328C332.966 200.181 332.672 199.887 332.427 199.642C331.97 199.184 331.529 198.743 331.104 198.318C330.369 197.534 329.977 197.044 330.026 196.995C330.075 196.946 330.565 197.338 331.398 198.024C331.823 198.449 332.28 198.874 332.77 199.299C333.015 199.544 333.261 199.74 333.555 199.838C333.849 199.936 334.241 199.887 334.388 199.691C334.535 199.495 334.535 199.103 334.388 198.858C334.241 198.563 333.996 198.269 333.8 197.975C333.408 197.485 333.032 196.995 332.672 196.505C331.986 195.672 331.643 195.132 331.692 195.083Z" fill="#AA6550"/>
<path d="M333.941 201.161C333.941 201.063 334.579 200.916 335.461 201.21L335.216 201.455C335.069 200.965 335.02 200.377 335.118 199.74C335.265 198.857 335.706 198.073 336.049 197.632C336.441 197.191 336.784 197.044 336.833 197.093C336.931 197.191 335.902 198.171 335.657 199.838C335.559 200.377 335.559 200.916 335.608 201.357L335.657 201.749L335.314 201.602C334.53 201.259 333.941 201.259 333.941 201.161Z" fill="#AA6550"/>
<path d="M402.762 186.751L402.86 224.345L388.205 225.031L387.617 216.012C387.617 216.012 380.51 217.091 379.04 211.797C378.108 208.366 378.353 182.095 378.353 182.095L402.762 186.751Z" fill="#B78876"/>
<path d="M374.674 185.82C375.802 188.074 380.948 192.192 380.948 192.192L383.301 198.416C385.311 196.848 388.055 196.946 388.594 200.524C388.938 203.073 385.752 203.612 385.752 203.612C387.614 206.798 388.889 209.346 391.584 212.385C394.525 215.669 396.192 215.963 399.378 216.012H402.907C402.907 216.012 410.063 210.033 408.641 194.152C407.22 178.321 393.006 182.977 389.575 179.007C384.036 172.537 371.047 178.321 374.674 185.82Z" fill="#263238"/>
<path d="M407.853 207.436C407.853 207.436 407.216 207.534 406.138 207.338C405.011 207.142 403.442 206.505 401.923 205.181C400.354 203.858 399.031 201.848 397.659 199.545C396.286 197.339 394.816 194.692 392.267 192.977C389.718 191.261 386.728 190.918 384.131 190.379C381.533 189.889 379.18 189.154 377.612 187.879C375.994 186.654 375.21 185.085 374.965 184.007C374.72 182.88 374.916 182.243 374.916 182.243C374.916 182.243 374.769 182.88 375.063 183.958C375.308 185.036 376.092 186.556 377.661 187.781C379.278 189.007 381.582 189.742 384.18 190.183C386.777 190.722 389.767 191.065 392.414 192.781C394.963 194.594 396.482 197.241 397.806 199.447C399.178 201.75 400.501 203.76 402.021 205.083C403.491 206.407 405.06 207.044 406.138 207.24C406.677 207.387 407.118 207.387 407.412 207.436C407.706 207.436 407.853 207.436 407.853 207.436Z" fill="#455A64"/>
<path d="M408.688 194.544C408.688 194.544 408.443 194.463 407.953 194.299C407.414 194.152 406.679 193.907 405.698 193.809C404.767 193.711 403.493 193.76 402.316 194.593C401.777 194.985 401.287 195.573 401.14 196.358C400.993 197.093 401.189 198.024 401.826 198.612C402.12 198.906 402.561 199.053 403.003 199.053C403.444 199.103 403.934 198.955 404.326 198.71C405.11 198.22 405.796 197.436 406.091 196.456C406.728 194.544 406.287 192.044 404.522 190.476C403.689 189.741 402.561 189.202 401.336 189.104C400.16 188.957 398.934 189.251 397.709 189.545C396.484 189.888 395.258 190.329 393.935 190.476C392.612 190.672 391.288 190.672 389.965 190.476C388.593 190.28 387.269 189.986 386.093 189.398C384.916 188.859 383.789 187.927 383.446 186.653C383.103 185.379 383.446 183.957 384.328 183.075C385.26 182.193 386.73 182.046 387.808 182.585C388.347 182.83 388.789 183.222 389.083 183.761C389.328 184.3 389.426 184.888 389.328 185.477C389.181 186.604 388.494 187.584 387.612 188.123C386.73 188.712 385.701 188.957 384.72 188.957C383.74 188.957 382.809 188.81 381.976 188.515C380.26 187.976 378.937 187.045 377.956 186.065C376.927 185.035 376.29 184.006 375.898 183.124C375.457 182.193 375.261 181.457 375.163 180.967C375.065 180.428 375.016 180.183 375.016 180.183C375.016 180.183 375.065 180.428 375.163 180.918C375.31 181.457 375.506 182.193 375.947 183.075C376.388 183.957 377.025 184.986 378.005 185.967C378.986 186.947 380.358 187.878 382.025 188.368C382.858 188.663 383.74 188.81 384.72 188.81C385.652 188.761 386.681 188.564 387.514 188.025C388.396 187.437 389.034 186.506 389.132 185.428C389.328 184.349 388.789 183.173 387.71 182.732C386.681 182.291 385.309 182.389 384.475 183.222C383.642 184.055 383.299 185.379 383.642 186.555C383.985 187.78 385.014 188.663 386.191 189.251C387.367 189.79 388.642 190.084 389.965 190.28C391.288 190.476 392.612 190.427 393.935 190.28C395.209 190.133 396.435 189.741 397.66 189.398C398.885 189.055 400.16 188.761 401.385 188.908C402.61 189.006 403.787 189.545 404.669 190.378C406.483 191.946 406.924 194.544 406.238 196.505C405.943 197.534 405.257 198.367 404.375 198.857C403.983 199.103 403.493 199.25 403.003 199.201C402.512 199.201 402.071 199.004 401.728 198.71C401.042 198.073 400.895 197.142 400.993 196.358C401.14 195.524 401.679 194.887 402.267 194.495C403.444 193.662 404.767 193.613 405.747 193.711C406.728 193.858 407.463 194.103 407.953 194.25C408.443 194.446 408.688 194.544 408.688 194.544Z" fill="#455A64"/>
<path d="M390.069 388.394L385.265 382.267L396.735 373.199L403.842 382.12L403.155 382.757C400.117 385.404 387.569 396.138 384.971 397.167C382.03 398.294 390.069 388.394 390.069 388.394Z" fill="#455A64"/>
<g opacity="0.4">
<path d="M386.288 393.393C386.288 393.393 383.642 397.118 384.524 397.314C385.357 397.559 398.444 387.218 403.835 382.12L403.59 381.875L388.445 394.079C388.445 394.079 386.974 392.903 386.288 393.393Z" fill="white"/>
</g>
<path d="M403.793 381.729C403.793 381.762 403.727 381.827 403.596 381.925C403.433 382.056 403.253 382.219 403.057 382.415C402.502 382.873 401.832 383.445 401.048 384.131C399.332 385.601 396.98 387.562 394.284 389.718C391.588 391.826 389.137 393.688 387.324 395.012C386.474 395.633 385.755 396.155 385.167 396.58C384.938 396.744 384.742 396.891 384.579 397.021C384.448 397.087 384.367 397.119 384.334 397.119C384.334 397.119 384.399 397.07 384.53 396.972C384.726 396.842 384.922 396.695 385.118 396.531C385.706 396.106 386.409 395.567 387.226 394.914C389.039 393.59 391.49 391.679 394.186 389.571C396.833 387.415 399.234 385.454 400.95 384.033C401.767 383.379 402.453 382.824 403.008 382.366C403.237 382.203 403.433 382.039 403.596 381.876C403.727 381.778 403.793 381.729 403.793 381.729Z" fill="#263238"/>
<path d="M388.59 394.277C388.541 394.326 388.149 393.836 387.414 393.59C386.728 393.296 386.09 393.394 386.09 393.345C386.041 393.296 386.728 393.149 387.463 393.394C388.247 393.689 388.639 394.228 388.59 394.277Z" fill="#263238"/>
<path d="M390.609 389.865C390.609 389.914 390.314 389.865 389.922 389.718C389.53 389.571 389.236 389.473 389.285 389.424C389.285 389.375 389.579 389.424 389.971 389.571C390.363 389.669 390.658 389.816 390.609 389.865Z" fill="#263238"/>
<path d="M391.15 388.641C391.15 388.69 390.905 388.739 390.561 388.69C390.218 388.69 389.924 388.641 389.924 388.592C389.924 388.543 390.218 388.494 390.561 388.543C390.905 388.543 391.15 388.592 391.15 388.641Z" fill="#263238"/>
<path d="M390.898 387.12C390.898 387.169 390.702 387.415 390.359 387.66C390.015 387.905 389.721 388.101 389.721 388.052C389.672 388.052 389.917 387.807 390.26 387.513C390.555 387.267 390.849 387.071 390.898 387.12Z" fill="#263238"/>
<path d="M390.518 386.188C390.518 386.188 390.371 386.58 389.979 386.923C389.635 387.267 389.243 387.414 389.243 387.365C389.194 387.316 389.537 387.12 389.88 386.776C390.224 386.482 390.469 386.139 390.518 386.188Z" fill="#263238"/>
<path d="M389.438 389.177C389.487 389.177 389.193 389.471 388.703 389.765C388.474 389.928 388.164 390.075 387.772 390.206C387.625 390.255 387.429 390.353 387.183 390.402C387.085 390.402 386.938 390.402 386.84 390.304C386.693 390.206 386.693 390.059 386.693 389.912C387.134 388.981 388.164 388.834 388.703 388.981C388.997 389.079 389.193 389.177 389.34 389.275C389.438 389.373 389.487 389.471 389.487 389.471C389.487 389.52 389.242 389.226 388.654 389.128C388.409 389.03 388.066 389.079 387.723 389.177C387.38 389.324 386.987 389.618 386.889 389.961C386.84 390.108 386.987 390.255 387.183 390.206C387.38 390.206 387.576 390.108 387.723 390.059C388.082 389.928 388.393 389.798 388.654 389.667C389.144 389.373 389.438 389.177 389.438 389.177Z" fill="#263238"/>
<path d="M389.278 389.375C389.278 389.375 389.033 389.277 388.788 388.934C388.69 388.738 388.592 388.493 388.543 388.248C388.543 387.954 388.543 387.611 388.886 387.366C389.082 387.268 389.327 387.366 389.376 387.513C389.474 387.66 389.474 387.807 389.523 387.954C389.556 388.248 389.556 388.493 389.523 388.689C389.474 389.081 389.327 389.326 389.327 389.326C389.278 389.326 389.376 389.081 389.376 388.689C389.409 388.493 389.393 388.264 389.327 388.003C389.327 387.758 389.18 387.415 388.984 387.513C388.788 387.66 388.739 388.003 388.739 388.248C388.739 388.493 388.788 388.689 388.886 388.885C389.082 389.228 389.278 389.326 389.278 389.375Z" fill="#263238"/>
<path d="M401.047 378.788C401.096 378.837 400.704 379.033 400.263 379.474C399.772 379.964 399.233 380.749 398.988 381.729C398.792 382.709 398.939 383.64 399.135 384.278C399.331 384.866 399.576 385.209 399.576 385.258C399.544 385.258 399.478 385.176 399.38 385.013C399.282 384.866 399.135 384.621 399.037 384.327C398.792 383.69 398.596 382.709 398.841 381.68C399.086 380.651 399.674 379.866 400.165 379.425C400.41 379.18 400.655 379.033 400.802 378.935C400.965 378.837 401.047 378.788 401.047 378.788Z" fill="#263238"/>
<path d="M396.09 374.966C396.139 374.917 397.021 375.946 398.05 377.22C399.129 378.544 399.913 379.622 399.913 379.622C399.864 379.671 398.982 378.642 397.952 377.367C396.874 376.093 396.09 375.015 396.09 374.966Z" fill="#263238"/>
<path d="M397.267 385.357C397.316 385.406 396.678 386.092 395.747 386.827C394.816 387.611 393.983 388.052 393.934 388.052C393.934 388.003 394.718 387.464 395.6 386.68C396.531 385.945 397.218 385.308 397.267 385.357Z" fill="#263238"/>
<path d="M399.527 383.592C399.576 383.592 399.576 383.788 399.625 384.034C399.723 384.23 399.772 384.426 399.723 384.475C399.723 384.475 399.527 384.328 399.478 384.034C399.379 383.788 399.478 383.543 399.527 383.592Z" fill="#263238"/>
<path d="M399.522 381.877C399.571 381.877 399.62 382.024 399.571 382.269C399.571 382.465 399.473 382.612 399.424 382.612C399.375 382.612 399.375 382.465 399.375 382.22C399.424 382.024 399.473 381.828 399.522 381.877Z" fill="#263238"/>
<path d="M400.362 380.406C400.411 380.455 400.214 380.602 400.116 380.749C399.969 380.945 399.92 381.142 399.871 381.142C399.822 381.142 399.822 380.896 399.969 380.651C400.116 380.455 400.362 380.357 400.362 380.406Z" fill="#263238"/>
<path d="M401.039 379.522C401.088 379.522 401.039 379.62 400.99 379.767C400.941 379.865 400.843 379.914 400.794 379.914C400.745 379.865 400.794 379.767 400.843 379.669C400.892 379.571 400.99 379.473 401.039 379.522Z" fill="#263238"/>
<g opacity="0.3">
<path d="M400.796 378.495L389.229 387.366L388.15 385.945L400.306 377.71L400.796 378.495Z" fill="black"/>
</g>
<path d="M337.331 394.567L337.38 386.774L351.987 386.725L352.085 398.145L351.153 398.194C347.134 398.439 330.665 399.126 327.97 398.341C324.931 397.41 337.331 394.567 337.331 394.567Z" fill="#455A64"/>
<g opacity="0.4">
<path d="M331.307 396.187C331.307 396.187 326.945 397.461 327.484 398.196C328.023 398.882 344.737 398.833 352.089 398.147L352.04 397.804L332.581 398.049C332.581 398.049 332.14 396.236 331.307 396.187Z" fill="white"/>
</g>
<path d="M352.287 397.807C352.287 397.807 352.206 397.823 352.042 397.856C351.814 397.856 351.569 397.872 351.307 397.905C350.588 397.938 349.706 397.97 348.66 398.003C346.406 398.101 343.318 398.199 339.887 398.199C336.456 398.199 333.368 398.15 331.113 398.101C330.068 398.069 329.185 398.036 328.467 398.003C328.205 398.003 327.96 397.987 327.731 397.954C327.568 397.954 327.486 397.954 327.486 397.954C327.486 397.921 327.568 397.905 327.731 397.905C327.96 397.938 328.205 397.954 328.467 397.954C329.185 397.954 330.068 397.954 331.113 397.954C333.368 398.003 336.456 398.052 339.887 398.052C343.318 398.003 346.406 397.954 348.66 397.905C349.706 397.872 350.588 397.84 351.307 397.807C351.569 397.807 351.814 397.807 352.042 397.807C352.206 397.807 352.287 397.807 352.287 397.807Z" fill="#263238"/>
<path d="M332.577 398.293C332.528 398.293 332.479 397.656 332.087 397.019C331.694 396.381 331.155 396.038 331.204 396.038C331.204 395.989 331.841 396.234 332.234 396.921C332.675 397.607 332.626 398.293 332.577 398.293Z" fill="#263238"/>
<path d="M336.888 396.089C336.839 396.138 336.643 395.844 336.446 395.55C336.201 395.207 336.054 394.912 336.103 394.863C336.152 394.863 336.348 395.108 336.594 395.452C336.79 395.795 336.937 396.089 336.888 396.089Z" fill="#263238"/>
<path d="M338.068 395.452C338.019 395.501 337.823 395.354 337.578 395.109C337.284 394.913 337.137 394.668 337.137 394.668C337.186 394.619 337.431 394.766 337.676 395.011C337.921 395.207 338.117 395.403 338.068 395.452Z" fill="#263238"/>
<path d="M338.801 394.08C338.801 394.129 338.458 394.178 338.065 394.178C337.624 394.178 337.281 394.129 337.281 394.08C337.281 394.031 337.624 394.031 338.065 393.982C338.458 393.982 338.801 394.031 338.801 394.08Z" fill="#263238"/>
<path d="M339.044 393.098C339.093 393.147 338.701 393.294 338.21 393.343C337.72 393.392 337.328 393.294 337.328 393.245C337.328 393.196 337.72 393.196 338.21 393.196C338.652 393.147 339.044 393.049 339.044 393.098Z" fill="#263238"/>
<path d="M336.4 394.815C336.4 394.864 336.057 394.864 335.469 394.815C335.175 394.782 334.832 394.717 334.44 394.618C334.293 394.52 334.097 394.471 333.901 394.373C333.803 394.324 333.705 394.226 333.656 394.079C333.607 393.932 333.705 393.785 333.803 393.687C334.685 393.246 335.567 393.736 335.91 394.177C336.106 394.422 336.204 394.667 336.204 394.815C336.253 394.962 336.253 395.06 336.253 395.06C336.204 395.109 336.204 394.717 335.812 394.275C335.665 394.079 335.371 393.883 335.028 393.736C334.685 393.638 334.195 393.638 333.901 393.834C333.754 393.932 333.803 394.128 333.999 394.226C334.146 394.324 334.342 394.373 334.489 394.422C334.848 394.553 335.175 394.651 335.469 394.716C336.057 394.815 336.4 394.815 336.4 394.815Z" fill="#263238"/>
<path d="M336.151 394.864C336.151 394.864 336.004 394.619 336.053 394.227C336.053 394.031 336.151 393.786 336.298 393.541C336.445 393.345 336.641 393.051 337.082 393.051C337.278 393.1 337.376 393.345 337.376 393.492C337.327 393.639 337.278 393.786 337.18 393.884C337.05 394.145 336.903 394.341 336.739 394.472C336.445 394.766 336.249 394.864 336.2 394.864C336.2 394.815 336.396 394.668 336.69 394.374C336.821 394.243 336.952 394.064 337.082 393.835C337.18 393.639 337.278 393.247 337.033 393.247C336.788 393.198 336.543 393.443 336.445 393.639C336.298 393.835 336.2 394.031 336.151 394.227C336.102 394.619 336.2 394.864 336.151 394.864Z" fill="#263238"/>
<path d="M351.93 393.836C351.93 393.836 351.538 393.787 350.851 393.836C350.214 393.934 349.283 394.228 348.499 394.816C347.714 395.453 347.273 396.286 347.077 396.924C346.832 397.561 346.832 397.953 346.783 397.953C346.783 397.953 346.783 397.855 346.783 397.659C346.783 397.463 346.832 397.218 346.93 396.875C347.126 396.237 347.567 395.355 348.401 394.718C349.234 394.032 350.165 393.787 350.851 393.738C351.194 393.689 351.489 393.738 351.636 393.738C351.832 393.77 351.93 393.803 351.93 393.836Z" fill="#263238"/>
<path d="M350.414 387.757C350.463 387.757 350.512 389.081 350.561 390.747C350.561 392.414 350.561 393.737 350.512 393.737C350.463 393.737 350.414 392.414 350.365 390.747C350.365 389.081 350.365 387.757 350.414 387.757Z" fill="#263238"/>
<path d="M344.928 396.629C344.928 396.678 343.997 396.826 342.772 396.875C341.595 396.875 340.664 396.727 340.664 396.678C340.664 396.629 341.595 396.678 342.772 396.678C343.948 396.678 344.928 396.58 344.928 396.629Z" fill="#263238"/>
<path d="M347.767 396.627C347.816 396.676 347.718 396.823 347.62 397.019C347.522 397.265 347.473 397.461 347.424 397.461C347.375 397.461 347.326 397.216 347.424 396.97C347.571 396.725 347.767 396.578 347.767 396.627Z" fill="#263238"/>
<path d="M348.853 395.254C348.902 395.303 348.804 395.45 348.657 395.597C348.51 395.744 348.363 395.842 348.314 395.842C348.264 395.793 348.363 395.646 348.51 395.499C348.657 395.352 348.804 395.254 348.853 395.254Z" fill="#263238"/>
<path d="M350.42 394.668C350.371 394.717 350.175 394.717 349.979 394.766C349.782 394.864 349.635 394.962 349.586 394.913C349.537 394.913 349.635 394.717 349.93 394.619C350.175 394.521 350.42 394.619 350.42 394.668Z" fill="#263238"/>
<path d="M351.496 394.372C351.496 394.421 351.447 394.47 351.3 394.519C351.202 394.568 351.055 394.568 351.055 394.519C351.055 394.47 351.104 394.421 351.251 394.372C351.349 394.323 351.496 394.323 351.496 394.372Z" fill="#263238"/>
<g opacity="0.3">
<path d="M352.081 393.246H337.328V391.481L351.983 391.383L352.081 393.246Z" fill="black"/>
</g>
<path d="M373.405 260.027L367.572 277.624C365.955 282.378 361.838 283.211 356.789 283.211H324.293V275.908L353.995 271.644L361.053 253.558L373.405 260.027Z" fill="#B78876"/>
<path d="M320.712 274.39L318.114 273.164C318.114 273.164 315.32 267.773 314.683 268.018C314.046 268.214 313.85 269.782 314.977 272.282L311.546 271.302C311.546 271.302 304.096 274.733 304.439 275.174C304.782 275.664 305.371 276.742 306.988 275.909C308.605 275.076 310.762 274.096 310.762 274.096L314.732 275.272L309.586 275.909L304.733 280.32C304.733 280.32 306.302 281.546 307.674 280.271L320.32 282.967L324.29 283.212V275.909L320.712 274.39Z" fill="#B78876"/>
<path d="M307.676 280.27C307.774 280.319 307.97 279.927 308.46 279.437C308.656 279.192 308.999 278.947 309.342 278.702C309.734 278.506 310.225 278.408 310.715 278.359C312.822 278.114 314.538 277.82 314.489 277.722C314.489 277.624 312.773 277.722 310.666 277.967C310.126 278.016 309.587 278.163 309.195 278.408C308.754 278.653 308.46 278.947 308.215 279.241C307.823 279.829 307.676 280.221 307.676 280.27Z" fill="#AA6550"/>
<path d="M309.685 280.761C309.734 280.761 309.783 280.516 310.126 280.418C310.469 280.369 311.057 280.32 311.645 280.222C312.87 280.124 313.851 280.124 313.851 280.025C313.9 279.927 312.87 279.731 311.596 279.829C310.959 279.927 310.42 280.026 310.028 280.173C309.783 280.271 309.685 280.418 309.636 280.565C309.587 280.712 309.636 280.761 309.685 280.761Z" fill="#AA6550"/>
<path d="M376.158 256.159L373.658 264.639L357.777 257.483C358.366 255.669 360.963 247.778 366.012 235.23C368.805 228.27 375.03 223.222 382.48 221.997C387.676 221.114 393.312 220.428 397.675 220.477C406.595 220.575 419.682 226.163 421.447 234.887C422.77 241.553 421.496 253.316 421.496 267.58L420.319 294.929L374.687 296.449L376.158 256.159Z" fill="#58A52C"/>
<g opacity="0.3">
<path d="M421.435 261.253C415.896 262.429 410.162 261.253 404.525 260.91C401.094 260.714 397.271 260.37 394.575 262.478C392.419 264.145 391.536 266.938 390.948 269.585C388.546 279.731 388.154 286.495 387.615 296.837L415.063 298.503L421.435 261.253Z" fill="black"/>
</g>
<path d="M374.973 226.551C374.973 226.6 375.463 226.6 376.198 226.894C376.933 227.188 377.962 227.874 378.845 229.051C379.678 230.178 380.266 231.844 380.413 233.805C380.511 235.716 380.266 237.824 379.923 240.03C379.188 244.441 378.11 248.411 377.374 251.205C376.982 252.577 376.688 253.705 376.443 254.587C376.247 255.371 376.1 255.812 376.149 255.812C376.198 255.861 376.345 255.42 376.59 254.636C376.835 253.852 377.227 252.724 377.619 251.303C378.453 248.46 379.58 244.539 380.315 240.079C380.658 237.873 380.903 235.716 380.756 233.756C380.609 231.795 379.972 230.031 379.041 228.855C378.11 227.678 377.031 227.041 376.247 226.747C375.855 226.649 375.512 226.551 375.316 226.551C375.087 226.518 374.973 226.518 374.973 226.551Z" fill="#263238"/>
<path d="M358.252 255.323C358.252 255.323 359.085 255.863 360.507 256.598C361.928 257.333 363.889 258.313 366.094 259.294C368.3 260.274 370.358 261.107 371.829 261.695C373.299 262.283 374.28 262.578 374.28 262.529C374.28 262.479 373.397 262.087 371.927 261.45C370.505 260.813 368.447 259.931 366.241 258.95C364.036 257.921 362.075 256.99 360.605 256.353C359.183 255.667 358.301 255.274 358.252 255.323Z" fill="#263238"/>
<path d="M351.001 298.503C343.208 302.767 340.267 312.423 344.335 320.314L384.086 388.493L402.368 377.415L371.538 315.854L393.888 301.248" fill="#2C3A40"/>
<path d="M399.327 295.124L344.823 297.084C335.952 297.378 328.992 304.73 329.139 313.602L331.394 391.436L354.332 391.387L353.548 317.768L399.327 316.592V295.124Z" fill="#2C3A40"/>
<path d="M353.543 320.414C353.576 320.446 353.608 320.691 353.641 321.149C353.641 321.672 353.674 322.358 353.739 323.207C353.788 325.021 353.837 327.619 353.935 330.805C354.082 337.225 354.131 346.097 354.18 355.9C354.229 365.703 354.278 374.525 354.327 380.995C354.327 384.181 354.376 386.729 354.376 388.592C354.376 389.442 354.376 390.128 354.376 390.651C354.376 391.141 354.36 391.386 354.327 391.386C354.295 391.386 354.278 391.141 354.278 390.651C354.246 390.128 354.213 389.442 354.18 388.592C354.082 386.828 354.033 384.23 353.984 380.995C353.837 374.574 353.739 365.703 353.69 355.9C353.641 346.146 353.592 337.274 353.543 330.805C353.543 327.668 353.543 325.07 353.543 323.207C353.543 322.358 353.543 321.672 353.543 321.149C353.543 320.691 353.543 320.446 353.543 320.414Z" fill="#455A64"/>
<path d="M422.95 245.714H406.482C399.816 245.714 394.424 251.106 394.424 257.772V315.314H361.487C356.879 315.314 353.154 319.039 353.154 323.598H428.391C428.391 323.598 428.391 323.581 428.391 323.549C432.067 323.402 434.959 320.412 434.959 316.736V257.772C434.959 251.106 429.616 245.714 422.95 245.714Z" fill="#455A64"/>
<path d="M399.229 247.625C399.376 247.625 399.475 264.535 399.475 285.415C399.475 306.246 399.376 323.156 399.229 323.156C399.082 323.156 398.984 306.246 398.984 285.415C398.984 264.535 399.082 247.625 399.229 247.625Z" fill="#263238"/>
<path d="M397.174 384.032V323.646H391.782V384.032C388.498 390.453 380.803 394.815 371.441 398.393H419.23C409.525 394.472 400.801 391.433 397.174 384.032Z" fill="#455A64"/>
<path d="M95.1453 376.188C95.1453 376.188 95.2106 376.073 95.3413 375.845C95.4394 375.583 95.5864 375.24 95.7825 374.815C96.2236 373.933 96.7137 372.561 97.2039 370.698C98.1352 367.071 98.4782 361.483 97.1059 354.867C96.4687 351.583 95.3904 348.005 94.165 344.23C92.8907 340.456 91.4692 336.486 90.2929 332.124C89.1166 327.811 88.1853 323.154 88.3814 318.204C88.5774 313.303 89.9988 308.401 91.6163 303.5C93.2337 298.598 94.8512 293.795 95.3904 288.992C95.9295 284.188 94.9002 279.434 92.6946 275.562C90.587 271.69 87.9402 268.308 85.9307 264.877C83.8721 261.397 82.5977 257.868 81.8135 254.584C80.3431 247.918 80.8332 242.281 81.5684 238.605C82.3526 234.88 83.2349 232.969 83.2349 232.969C83.2349 232.969 83.2022 233.099 83.1369 233.361C83.0715 233.622 82.9572 233.982 82.7938 234.439C82.4997 235.37 82.1566 236.792 81.7645 238.654C81.1273 242.33 80.6372 247.918 82.2056 254.486C82.9898 257.77 84.2642 261.25 86.2738 264.632C88.2833 268.063 90.9791 271.396 93.1357 275.366C95.3413 279.287 96.4197 284.139 95.8805 289.041C95.3414 293.942 93.6749 298.746 92.1064 303.647C90.489 308.548 89.0676 313.401 88.8715 318.253C88.6754 323.056 89.6067 327.713 90.734 332.026C91.9104 336.339 93.3318 340.358 94.5571 344.132C95.7825 347.907 96.8118 351.485 97.449 354.818C98.7723 361.483 98.3802 367.12 97.3999 370.747C96.9098 372.61 96.3216 373.982 95.8805 374.864C95.6518 375.289 95.4721 375.616 95.3413 375.845C95.2433 376.073 95.178 376.188 95.1453 376.188Z" fill="#263238"/>
<path d="M88.6259 268.259C88.6259 268.259 84.5577 255.319 91.8608 247.722C92.1059 247.428 92.547 247.575 92.645 247.918C92.9881 250.075 93.4783 256.594 88.6259 268.259Z" fill="#58A52C"/>
<path d="M91.077 252.035C91.126 252.035 91.028 252.966 90.7829 254.437C90.5379 256.054 90.1948 258.015 89.8517 260.171C89.5086 262.279 89.2145 264.24 88.9694 265.857C88.7243 267.328 88.5773 268.259 88.5283 268.259C88.4793 268.259 88.4793 267.328 88.5773 265.808C88.7243 264.338 88.9694 262.328 89.3615 260.073C89.7046 257.819 90.0967 255.809 90.4398 254.339C90.7339 252.917 90.979 252.035 91.077 252.035Z" fill="#263238"/>
<path d="M93.377 298.893C93.377 298.893 95.8767 285.512 105.876 282.228C106.219 282.081 106.562 282.424 106.415 282.767C105.777 284.826 103.18 290.855 93.377 298.893Z" fill="#58A52C"/>
<path d="M103.133 285.66C103.182 285.709 102.692 286.444 101.76 287.67C100.78 288.993 99.6037 290.562 98.2803 292.277C97.0059 293.993 95.8296 295.561 94.8003 296.884C93.918 298.11 93.3789 298.845 93.3299 298.796C93.2809 298.747 93.722 297.963 94.5062 296.688C95.3395 295.463 96.5158 293.797 97.8882 291.983C99.2606 290.169 100.535 288.552 101.515 287.425C102.446 286.297 103.084 285.611 103.133 285.66Z" fill="#263238"/>
<path d="M90.6857 332.418C90.6857 332.418 89.2153 318.89 97.7927 312.812C98.0868 312.616 98.5279 312.812 98.4789 313.204C98.4789 315.361 97.6947 321.88 90.6857 332.418Z" fill="#58A52C"/>
<path d="M96.177 316.929C96.2751 316.929 95.981 317.812 95.4418 319.233C94.9027 320.801 94.2165 322.615 93.4813 324.673C92.697 326.683 92.0598 328.546 91.4717 330.114C90.9815 331.486 90.6875 332.369 90.5894 332.369C90.5404 332.32 90.7365 331.437 91.1286 330.016C91.5697 328.546 92.2069 326.634 92.9911 324.477C93.7753 322.37 94.5596 320.458 95.1477 319.086C95.7359 317.714 96.128 316.88 96.177 316.929Z" fill="#263238"/>
<path d="M98.2302 366.141C98.2302 366.141 97.2009 352.564 106.023 346.829C106.318 346.633 106.71 346.829 106.71 347.221C106.612 349.378 105.582 355.848 98.2302 366.141Z" fill="#58A52C"/>
<path d="M104.259 350.849C104.308 350.898 104.014 351.731 103.426 353.153C102.838 354.672 102.053 356.486 101.269 358.495C100.436 360.505 99.7008 362.318 99.0636 363.887C98.5245 365.259 98.1814 366.092 98.1324 366.092C98.0833 366.043 98.2794 365.161 98.7205 363.74C99.2107 362.318 99.8969 360.407 100.779 358.299C101.661 356.192 102.495 354.329 103.132 353.006C103.769 351.633 104.21 350.849 104.259 350.849Z" fill="#263238"/>
<path d="M82.7927 256.889C82.7927 256.889 70.7353 250.615 70.4902 240.077C70.4902 239.685 70.9314 239.489 71.2254 239.685C72.9899 240.91 77.9894 245.174 82.7927 256.889Z" fill="#58A52C"/>
<path d="M73.0378 243.703C73.0868 243.654 73.626 244.39 74.5082 245.566C75.4885 246.938 76.6649 248.507 77.8902 250.271C79.1646 252.036 80.3409 253.604 81.3212 254.977C82.2034 256.153 82.7426 256.888 82.6936 256.937C82.6446 256.986 82.0074 256.3 81.0271 255.173C80.0958 254.045 78.8215 252.428 77.4981 250.565C76.1747 248.703 75.0474 247.036 74.2142 245.762C73.4299 244.537 72.9398 243.703 73.0378 243.703Z" fill="#263238"/>
<path d="M95.7303 284.728C95.7303 284.728 83.3298 279.189 82.4475 268.7C82.3985 268.357 82.7906 268.112 83.1337 268.308C84.9963 269.435 90.1917 273.356 95.7303 284.728Z" fill="#58A52C"/>
<path d="M85.1911 272.18C85.2401 272.131 85.8283 272.817 86.7596 273.944C87.8379 275.268 89.0632 276.787 90.4356 278.454C91.857 280.12 93.0824 281.639 94.1607 282.914C95.092 284.041 95.6801 284.727 95.6311 284.776C95.5821 284.825 94.8959 284.237 93.8666 283.159C92.8373 282.081 91.5139 280.512 90.0435 278.748C88.6221 276.983 87.3968 275.366 86.5145 274.189C85.6323 272.964 85.0931 272.229 85.1911 272.18Z" fill="#263238"/>
<path d="M88.5793 315.852C88.5793 315.852 80.0998 305.216 84.07 295.511C84.217 295.168 84.6581 295.119 84.8542 295.413C86.0305 297.275 88.8733 303.157 88.5793 315.852Z" fill="#58A52C"/>
<path d="M84.9009 299.824C84.999 299.824 85.195 300.706 85.5381 302.128C85.8812 303.794 86.3223 305.706 86.7635 307.813C87.2536 309.921 87.6457 311.833 88.0378 313.45C88.3319 314.921 88.577 315.803 88.4789 315.852C88.4299 315.852 88.0868 314.97 87.6947 313.548C87.2536 312.127 86.7635 310.117 86.2733 307.912C85.7832 305.706 85.4401 303.696 85.195 302.226C84.9499 300.755 84.8519 299.824 84.9009 299.824Z" fill="#263238"/>
<path d="M97.0514 352.416C97.0514 352.416 84.6999 346.632 84.0137 336.143C84.0137 335.8 84.4058 335.555 84.6999 335.751C86.5624 336.879 91.7089 340.947 97.0514 352.416Z" fill="#58A52C"/>
<path d="M86.6616 339.623C86.7596 339.623 87.3478 340.309 88.279 341.485C89.3083 342.759 90.5337 344.328 91.857 345.994C93.2294 347.71 94.4548 349.229 95.4841 350.553C96.4153 351.68 97.0035 352.415 96.9545 352.464C96.9055 352.513 96.2193 351.876 95.19 350.749C94.2097 349.67 92.8863 348.102 91.4649 346.337C90.0435 344.524 88.8182 342.907 87.9849 341.681C87.1027 340.456 86.6125 339.672 86.6616 339.623Z" fill="#263238"/>
<path d="M121.56 298.942C121.56 298.942 121.56 299.04 121.56 299.236C121.56 299.497 121.56 299.791 121.56 300.118C121.527 300.935 121.478 302.03 121.413 303.402C121.266 306.294 121.021 310.362 120.776 315.215C119.893 320.116 117.394 325.606 114.012 330.899C111.561 334.771 108.963 338.349 106.709 341.633C104.503 344.917 102.592 347.956 101.268 350.652C99.9448 353.347 99.1605 355.651 98.7194 357.269C98.4907 358.085 98.3273 358.723 98.2293 359.18C98.1312 359.605 98.0659 359.817 98.0332 359.817C98.0332 359.817 98.0659 359.589 98.1312 359.131C98.1966 358.706 98.3273 358.069 98.5233 357.22C98.9155 355.602 99.6507 353.249 100.925 350.505C102.248 347.76 104.111 344.672 106.317 341.388C108.571 338.055 111.12 334.477 113.571 330.605C116.953 325.36 119.403 319.969 120.335 315.117V315.166C120.678 310.313 120.972 306.294 121.168 303.402C121.266 302.03 121.348 300.935 121.413 300.118C121.446 299.759 121.478 299.465 121.511 299.236C121.544 299.04 121.56 298.942 121.56 298.942Z" fill="#263238"/>
<path d="M114.208 329.87C114.208 329.87 119.452 317.322 112.884 309.088C112.639 308.794 112.198 308.892 112.1 309.235C111.512 311.342 110.434 317.812 114.208 329.87Z" fill="#58A52C"/>
<path d="M113.274 313.451C113.372 313.451 113.519 314.382 113.716 315.852C113.863 317.323 114.108 319.381 114.255 321.636C114.402 323.891 114.5 325.949 114.5 327.42C114.5 328.939 114.402 329.821 114.353 329.821C114.255 329.821 114.206 328.939 114.108 327.469C114.01 325.802 113.863 323.842 113.716 321.685C113.568 319.479 113.47 317.568 113.323 315.901C113.225 314.382 113.225 313.5 113.274 313.451Z" fill="#263238"/>
<path d="M98.0806 360.111C98.0806 360.111 102.247 347.171 95.0417 339.525C94.7966 339.231 94.3555 339.378 94.2575 339.721C93.8654 341.878 93.3262 348.396 98.0806 360.111Z" fill="#58A52C"/>
<path d="M95.7798 343.838C95.8779 343.838 96.1229 344.72 96.417 346.191C96.7111 347.661 97.1032 349.671 97.4463 351.925C97.7894 354.131 98.0345 356.189 98.1325 357.66C98.2305 359.179 98.2305 360.062 98.1815 360.062C98.1325 360.111 97.9855 359.179 97.7894 357.709C97.5443 356.042 97.2503 354.131 96.9072 351.974C96.6131 349.818 96.319 347.906 96.0739 346.24C95.8288 344.769 95.7308 343.887 95.7798 343.838Z" fill="#263238"/>
<path d="M120.873 314.528C120.873 314.528 131.999 306.735 130.872 296.295C130.823 295.903 130.431 295.756 130.137 296.001C128.519 297.422 124.157 302.323 120.873 314.528Z" fill="#58A52C"/>
<path d="M128.864 300.167C128.913 300.216 128.57 301.049 127.932 302.422C127.295 303.745 126.413 305.608 125.335 307.568C124.256 309.578 123.178 311.342 122.394 312.617C121.61 313.842 121.021 314.577 120.972 314.577C120.923 314.528 121.365 313.744 122.1 312.42C122.884 310.95 123.815 309.235 124.845 307.323C125.874 305.411 126.854 303.696 127.638 302.226C128.325 300.951 128.815 300.167 128.864 300.167Z" fill="#263238"/>
<path d="M102.594 347.319C102.594 347.319 116.024 345.211 119.602 335.31C119.749 334.967 119.406 334.624 119.062 334.722C116.955 335.31 110.877 337.761 102.594 347.319Z" fill="#58A52C"/>
<path d="M116.075 337.957C116.124 338.006 115.437 338.595 114.261 339.526C113.085 340.457 111.467 341.683 109.605 343.006C107.791 344.329 106.076 345.457 104.801 346.241C103.527 347.025 102.694 347.417 102.645 347.368C102.596 347.319 103.38 346.78 104.605 345.947C105.978 344.966 107.546 343.839 109.311 342.614C111.075 341.339 112.693 340.212 114.065 339.232C115.241 338.399 116.026 337.908 116.075 337.957Z" fill="#263238"/>
<path d="M89.7512 372.022L85.8301 398.391H110.239L107.102 372.022H89.7512Z" fill="#2C3A40"/>
<path d="M108.086 380.207C108.086 380.354 103.675 380.452 98.2346 380.452C92.7941 380.452 88.3828 380.354 88.3828 380.207C88.3828 380.06 92.7941 379.913 98.2346 379.913C103.675 379.913 108.086 380.06 108.086 380.207Z" fill="#46545B"/>
<path d="M108.573 382.267C108.573 382.414 104.015 382.561 98.3783 382.561C92.7417 382.561 88.2324 382.414 88.2324 382.267C88.2324 382.169 92.7417 382.022 98.3783 382.022C104.015 382.022 108.573 382.169 108.573 382.267Z" fill="#46545B"/>
</svg>
