<svg width="62" height="46" viewBox="0 0 62 46" fill="none" xmlns="http://www.w3.org/2000/svg">
<path opacity="0.3" d="M46.806 0.576002C49.398 0.576002 51.666 1.062 53.61 2.034C55.554 3.114 57.12 4.518 58.308 6.246C59.388 7.974 60.252 10.026 60.9 12.402C61.548 14.778 61.872 17.262 61.872 19.854C61.872 25.146 60.522 30.114 57.822 34.758C55.014 39.402 50.694 43.074 44.862 45.774L43.404 42.858C46.428 41.454 49.128 39.402 51.504 36.702C53.772 34.11 55.122 31.356 55.554 28.44C56.202 26.172 56.256 23.958 55.716 21.798C53.34 24.39 50.154 25.686 46.158 25.686C42.486 25.686 39.462 24.552 37.086 22.284C34.71 20.124 33.522 17.1 33.522 13.212C33.522 9.432 34.764 6.354 37.248 3.978C39.732 1.71 42.918 0.576002 46.806 0.576002ZM13.434 0.576002C16.026 0.576002 18.294 1.062 20.238 2.034C22.182 3.114 23.748 4.518 24.936 6.246C26.016 7.974 26.88 10.026 27.528 12.402C28.176 14.778 28.5 17.262 28.5 19.854C28.5 25.146 27.15 30.114 24.45 34.758C21.642 39.402 17.322 43.074 11.49 45.774L10.032 42.858C13.056 41.454 15.756 39.402 18.132 36.702C20.4 34.11 21.75 31.356 22.182 28.44C22.83 26.172 22.884 23.958 22.344 21.798C19.968 24.39 16.782 25.686 12.786 25.686C9.114 25.686 6.09 24.552 3.714 22.284C1.338 20.124 0.149998 17.1 0.149998 13.212C0.149998 9.432 1.392 6.354 3.876 3.978C6.36 1.71 9.546 0.576002 13.434 0.576002Z" fill="#4F694D"/>
</svg>
