<svg width="656" height="596" viewBox="0 0 656 596" fill="none" xmlns="http://www.w3.org/2000/svg">
<g clip-path="url(#clip0_432_20822)">
<path d="M591.891 531.119H641.834V531.496H591.891V531.119Z" fill="#EBEBEB"/>
<path d="M449.684 535.193H462.735V535.57H449.684V535.193Z" fill="#EBEBEB"/>
<path d="M561.414 517.086H590.384V517.464H561.414V517.086Z" fill="#EBEBEB"/>
<path d="M42.1406 519.651H107.323V520.029H42.1406V519.651Z" fill="#EBEBEB"/>
<path d="M120.752 519.651H130.333V520.029H120.752V519.651Z" fill="#EBEBEB"/>
<path d="M161.34 525.989H302.72V526.366H161.34V525.989Z" fill="#EBEBEB"/>
<path fill-rule="evenodd" clip-rule="evenodd" d="M322.711 439.531H31.3505C26.5976 439.531 22.75 435.684 22.75 430.931V21.3505C22.75 16.5976 26.5976 12.75 31.3505 12.75H322.711C327.464 12.75 331.312 16.5976 331.312 21.3505V430.931C331.312 435.684 327.464 439.531 322.711 439.531ZM31.3505 13.1272C26.8239 13.1272 23.1272 16.8239 23.1272 21.3505V430.931C23.1272 435.457 26.8239 439.154 31.3505 439.154H322.711C327.238 439.154 330.935 435.457 330.935 430.931V21.3505C330.935 16.8239 327.238 13.1272 322.711 13.1272H31.3505Z" fill="#EBEBEB"/>
<path fill-rule="evenodd" clip-rule="evenodd" d="M649.079 439.38H357.718C352.965 439.38 349.117 435.457 349.117 430.78V21.1996C349.117 16.4467 352.965 12.5991 357.718 12.5991H649.079C653.832 12.5991 657.679 16.4467 657.679 21.1996V430.78C657.679 435.457 653.832 439.38 649.079 439.38ZM357.718 12.9763C353.191 12.9763 349.494 16.673 349.494 21.1996V430.78C349.494 435.306 353.191 439.003 357.718 439.003H649.079C653.605 439.003 657.302 435.306 657.302 430.78V21.1996C657.302 16.673 653.605 12.9763 649.079 12.9763H357.718Z" fill="#EBEBEB"/>
<path d="M717.43 507.203H-37V506.826H717.43V507.203Z" fill="#EBEBEB"/>
<path d="M580.427 129.536H582.615H647.798V138.212H582.615H580.427H363.227V129.536H580.427Z" fill="#F5F5F5"/>
<path d="M631.652 159.185V138.212H642.214L631.652 159.185Z" fill="#E0E0E0"/>
<path d="M636.933 159.185L647.42 138.212H642.214L631.652 159.185H636.933Z" fill="#F5F5F5"/>
<path d="M378.994 159.185V138.212H368.508L378.994 159.185Z" fill="#E0E0E0"/>
<path d="M373.713 159.185L363.227 138.212H368.508L378.994 159.185H373.713Z" fill="#F5F5F5"/>
<path d="M399.965 108.487C399.965 121.086 410.225 131.346 422.824 131.346C435.499 131.346 445.683 121.086 445.683 108.487V107.657C445.683 95.0581 435.499 84.7979 422.824 84.7979C410.225 84.7979 399.965 95.0581 399.965 107.657V108.487Z" fill="#E6E6E6"/>
<path d="M399.965 105.168C399.965 117.842 410.225 128.027 422.824 128.027C435.499 128.027 445.683 117.842 445.683 105.168V104.413C445.683 91.739 435.499 81.5542 422.824 81.5542C410.225 81.5542 399.965 91.739 399.965 104.413V105.168Z" fill="#F0F0F0"/>
<path d="M404.945 104.413C404.945 114.221 412.942 122.218 422.825 122.218C432.708 122.218 440.705 114.221 440.705 104.413C440.705 94.5302 432.708 86.5332 422.825 86.5332C412.942 86.5332 404.945 94.5302 404.945 104.413Z" fill="#FAFAFA"/>
<path d="M422.825 89.3246C413.47 89.3246 405.775 96.5671 405.021 105.771C404.97 105.319 404.945 104.866 404.945 104.413C404.945 94.5302 412.942 86.5332 422.825 86.5332C432.708 86.5332 440.705 94.5302 440.705 104.413C440.705 104.866 440.68 105.319 440.63 105.771C439.875 96.5671 432.256 89.3246 422.825 89.3246Z" fill="#E6E6E6"/>
<path d="M411.581 104.413C412.109 104.413 417.843 104.413 420.936 104.413C420.936 101.32 420.936 95.5109 420.936 94.9828C420.936 93.9266 421.766 93.0967 422.822 93.0967C423.879 93.0967 424.708 93.9266 424.708 94.9828C424.708 95.6617 424.708 105.545 424.708 106.299C424.708 107.28 423.879 108.185 422.822 108.185C422.143 108.185 412.26 108.185 411.581 108.185C410.525 108.185 409.695 107.28 409.695 106.299C409.695 105.243 410.525 104.413 411.581 104.413Z" fill="#E0E0E0"/>
<path d="M411.581 106.299C410.525 106.299 409.695 105.469 409.695 104.413C409.695 103.357 410.525 102.527 411.581 102.527C412.26 102.527 422.143 102.527 422.822 102.527C423.879 102.527 424.708 103.357 424.708 104.413C424.708 105.469 423.879 106.299 422.822 106.299C422.143 106.299 412.26 106.299 411.581 106.299Z" fill="#F5F5F5"/>
<path d="M420.938 93.0965C420.938 92.0403 421.767 91.2104 422.824 91.2104C423.88 91.2104 424.71 92.0403 424.71 93.0965C424.71 93.7755 424.71 103.659 424.71 104.413C424.71 105.469 423.88 106.299 422.824 106.299C421.767 106.299 420.938 105.469 420.938 104.413C420.938 103.734 420.938 93.7755 420.938 93.0965Z" fill="#EBEBEB"/>
<path d="M606.379 129.837H620.185V72.5762H606.379V129.837Z" fill="#E0E0E0"/>
<path d="M609.02 117.615C609.02 119.954 610.981 121.84 613.32 121.84C615.659 121.84 617.545 119.954 617.545 117.615C617.545 115.277 615.659 113.391 613.32 113.391C610.981 113.391 609.02 115.277 609.02 117.615Z" fill="#FAFAFA"/>
<path opacity="0.6" d="M609.02 105.696H617.545V78.0835H609.02V105.696Z" fill="#F0F0F0"/>
<path opacity="0.6" d="M609.02 82.0065H617.545V78.0835H609.02V82.0065Z" fill="#FAFAFA"/>
<path d="M596.043 129.837H607.209V83.5908H596.043V129.837Z" fill="#E6E6E6"/>
<path d="M598.23 119.955C598.23 121.841 599.739 123.349 601.625 123.349C603.511 123.349 605.02 121.841 605.02 119.955C605.02 118.068 603.511 116.56 601.625 116.56C599.739 116.56 598.23 118.068 598.23 119.955Z" fill="#FAFAFA"/>
<path opacity="0.6" d="M598.23 110.298H605.02V88.042H598.23V110.298Z" fill="#F0F0F0"/>
<path opacity="0.6" d="M598.23 91.2106H605.02V88.042H598.23V91.2106Z" fill="#FAFAFA"/>
<path d="M629.086 129.837H642.892V72.5762H629.086V129.837Z" fill="#EBEBEB"/>
<path d="M631.727 117.615C631.727 119.954 633.613 121.84 635.951 121.84C638.29 121.84 640.176 119.954 640.176 117.615C640.176 115.277 638.29 113.391 635.951 113.391C633.613 113.391 631.727 115.277 631.727 117.615Z" fill="#E0E0E0"/>
<path opacity="0.6" d="M631.727 105.696H640.176V78.0835H631.727V105.696Z" fill="#FAFAFA"/>
<path opacity="0.6" d="M631.727 82.0065H640.176V78.0835H631.727V82.0065Z" fill="#FAFAFA"/>
<path d="M583.293 129.837H597.024V72.5762H583.293V129.837Z" fill="#E0E0E0"/>
<path d="M585.93 117.615C585.93 119.954 587.816 121.84 590.154 121.84C592.493 121.84 594.379 119.954 594.379 117.615C594.379 115.277 592.493 113.391 590.154 113.391C587.816 113.391 585.93 115.277 585.93 117.615Z" fill="#FAFAFA"/>
<path opacity="0.6" d="M585.93 105.696H594.379V78.0835H585.93V105.696Z" fill="#F0F0F0"/>
<path opacity="0.6" d="M585.93 82.0065H594.379V78.0835H585.93V82.0065Z" fill="#FAFAFA"/>
<path d="M563.602 128.932L577.332 130.365L583.292 73.4813L569.562 72.0479L563.602 128.932Z" fill="#EBEBEB"/>
<path d="M567.526 117.088C567.225 119.426 568.96 121.463 571.298 121.765C573.637 121.991 575.674 120.256 575.976 117.993C576.202 115.654 574.467 113.542 572.204 113.315C569.865 113.014 567.753 114.749 567.526 117.088Z" fill="#E0E0E0"/>
<path opacity="0.6" d="M568.734 105.243L577.184 106.073L580.051 78.6871L571.601 77.7817L568.734 105.243Z" fill="#F5F5F5"/>
<path opacity="0.6" d="M571.219 81.6293L579.668 82.5346L580.046 78.6871L571.596 77.7817L571.219 81.6293Z" fill="#FAFAFA"/>
<path d="M619.203 129.837H630.293V83.5908H619.203V129.837Z" fill="#E6E6E6"/>
<path d="M621.316 119.955C621.316 121.841 622.901 123.349 624.787 123.349C626.673 123.349 628.182 121.841 628.182 119.955C628.182 118.068 626.673 116.56 624.787 116.56C622.901 116.56 621.316 118.068 621.316 119.955Z" fill="#FAFAFA"/>
<path opacity="0.6" d="M621.316 110.298H628.182V88.042H621.316V110.298Z" fill="#F0F0F0"/>
<path opacity="0.6" d="M621.316 91.2106H628.182V88.042H621.316V91.2106Z" fill="#FAFAFA"/>
<path d="M474.504 117.993H530.86V129.309H474.504V117.993Z" fill="#EBEBEB"/>
<path opacity="0.1" d="M474.656 118.068H531.012V129.385H474.656V118.068Z" fill="white"/>
<path opacity="0.6" d="M474.504 118.068H517.733V129.385H474.504V118.068Z" fill="white"/>
<path d="M474.73 127.876L530.86 129.309L530.785 128.178L474.73 127.574V127.876Z" fill="#E0E0E0"/>
<path d="M530.859 122.671L474.805 120.105V120.483L530.859 123.5V122.671Z" fill="#E0E0E0"/>
<path d="M530.859 119.275L474.805 120.256V120.633L530.859 120.105V119.275Z" fill="#E0E0E0"/>
<path d="M531.011 124.858L474.957 127.046V126.745L531.011 124.104V124.858Z" fill="#E0E0E0"/>
<path d="M474.578 118.144L530.632 118.219V118.597H474.578V118.144Z" fill="#E0E0E0"/>
<path d="M478.5 84.3452H534.856V95.6617H478.5V84.3452Z" fill="#E0E0E0"/>
<path opacity="0.5" d="M478.883 84.7979H535.239V96.1143H478.883V84.7979Z" fill="white"/>
<path opacity="0.6" d="M478.5 84.4209H521.804V95.7374H478.5V84.4209Z" fill="white"/>
<path d="M478.802 94.2285L534.856 95.6619V94.5303L478.727 93.9268L478.802 94.2285Z" fill="#E0E0E0"/>
<path d="M534.862 89.0231L478.883 86.458V86.8352L534.862 89.8529V89.0231Z" fill="#E0E0E0"/>
<path d="M534.862 85.6279L478.883 86.6087V86.9859L534.862 86.4578V85.6279Z" fill="#E0E0E0"/>
<path d="M535.01 91.2105L479.031 93.3983V93.0966L535.01 90.4561V91.2105Z" fill="#E0E0E0"/>
<path d="M477.824 106.601H534.18V117.842H477.824V106.601Z" fill="#E0E0E0"/>
<path opacity="0.5" d="M477.977 106.601H534.333V117.918H477.977V106.601Z" fill="white"/>
<path opacity="0.6" d="M521.205 106.601H477.977V117.918H521.205V106.601Z" fill="white"/>
<path d="M533.954 116.107L477.9 116.71L477.824 117.842L533.878 116.409L533.954 116.107Z" fill="#E0E0E0"/>
<path d="M478.203 106.752H534.182V107.129H478.203V106.752Z" fill="#E0E0E0"/>
<path d="M477.824 112.033L533.803 109.015V108.638L477.824 111.203V112.033Z" fill="#E0E0E0"/>
<path d="M534.182 107.808L478.203 108.789V109.166L534.182 108.638V107.808Z" fill="#E0E0E0"/>
<path d="M534.33 113.391L478.352 115.654V115.277L534.33 112.636V113.391Z" fill="#E0E0E0"/>
<path d="M532.217 95.8882L475.861 96.1145L475.785 107.205H532.217V95.8882Z" fill="#E0E0E0"/>
<path opacity="0.5" d="M475.863 95.8882H532.219V107.205H475.863V95.8882Z" fill="white"/>
<path opacity="0.6" d="M519.089 95.8882H475.785V107.205H519.089V95.8882Z" fill="white"/>
<path d="M520.752 96.1143H475.863V97.3214H519.771L520.752 96.1143Z" fill="#E0E0E0"/>
<path d="M531.917 100.792L475.863 101.169V101.546H531.917V100.792Z" fill="#E0E0E0"/>
<path d="M475.863 105.997L531.917 103.81V104.111L475.863 106.752V105.997Z" fill="#E0E0E0"/>
<path d="M475.863 101.772L531.917 102.678V102.98L475.863 102.527V101.772Z" fill="#E0E0E0"/>
<path d="M490.648 71.3691H546.627V77.0274H490.648V71.3691Z" fill="#E0E0E0"/>
<path opacity="0.5" d="M490.648 71.3691H546.627V77.0274H490.648V71.3691Z" fill="white"/>
<path opacity="0.6" d="M490.648 71.3691H535.235V77.0274H490.648V71.3691Z" fill="white"/>
<path d="M546.627 75.3677L490.648 75.594V75.7449H546.627V75.3677Z" fill="#E0E0E0"/>
<path d="M490.648 73.2552L546.627 72.1235V72.2744L490.648 73.6324V73.2552Z" fill="#E0E0E0"/>
<path d="M490.5 72.9536L546.479 73.4063V73.5572L490.5 73.3308V72.9536Z" fill="#E0E0E0"/>
<path d="M482.805 68.8042H538.783V71.5956H482.805V68.8042Z" fill="#E0E0E0"/>
<path opacity="0.5" d="M482.805 68.8794H538.783V71.5953H482.805V68.8794Z" fill="white"/>
<path opacity="0.6" d="M482.805 68.6533H527.392V71.5956H482.805V68.6533Z" fill="white"/>
<path d="M482.805 70.9163L538.783 69.7847V69.9356L482.805 71.2935V70.9163Z" fill="#E0E0E0"/>
<path d="M482.805 69.5586L538.783 70.0113V70.1621L482.805 69.9358V69.5586Z" fill="#E0E0E0"/>
<path d="M488.008 66.0127H543.987V68.8041H488.008V66.0127Z" fill="#E0E0E0"/>
<path opacity="0.5" d="M488.008 66.0884H543.987V68.8043H488.008V66.0884Z" fill="white"/>
<path opacity="0.6" d="M488.008 65.8618H532.595V68.8041H488.008V65.8618Z" fill="white"/>
<path d="M488.008 67.2954L544.062 67.8235V67.9744L488.008 67.6726V67.2954Z" fill="#E0E0E0"/>
<path d="M488.008 66.7671L544.062 67.2198V67.3706L488.008 67.1443V66.7671Z" fill="#E0E0E0"/>
<path d="M486.801 77.0273H542.855V84.3453H486.801V77.0273Z" fill="#E0E0E0"/>
<path opacity="0.5" d="M486.801 77.0273H542.855V84.3453H486.801V77.0273Z" fill="white"/>
<path opacity="0.6" d="M486.801 77.0273H530.03V84.3453H486.801V77.0273Z" fill="white"/>
<path d="M542.479 79.2906L486.5 79.0642V78.8379H542.479V79.2906Z" fill="#E0E0E0"/>
<path d="M486.875 80.3467L542.854 81.7047V81.4784L486.875 79.894V80.3467Z" fill="#E0E0E0"/>
<path d="M542.857 77.0273H490.047L491.179 77.9327H542.857V77.0273Z" fill="#E0E0E0"/>
<path d="M487.027 83.2134L543.082 82.6853V82.459L487.027 82.7608V83.2134Z" fill="#E0E0E0"/>
<path d="M169.262 83.3644H167.225V22.9346H169.262V83.3644Z" fill="#E6E6E6"/>
<path d="M103.701 116.861L168.205 77.9326L232.709 116.861H103.701Z" fill="#F0F0F0"/>
<path d="M172.656 116.861L168.205 77.9326L197.175 116.861H172.656Z" fill="#FAFAFA"/>
<path d="M77.0695 467.445L78.2012 467.596C78.2766 467.068 84.8402 411.617 71.185 366.351C57.6052 321.312 66.9602 292.644 67.111 292.342L66.0548 292.04C65.904 292.342 56.4736 321.312 70.1288 366.653C83.784 411.693 77.145 466.917 77.0695 467.445Z" fill="#E0E0E0"/>
<path d="M65.1502 298.528C67.4889 295.737 70.733 293.7 74.3542 292.87L74.0525 291.813C70.2803 292.719 66.8099 294.831 64.3203 297.849L65.1502 298.528Z" fill="#E0E0E0"/>
<path d="M63.0365 305.921L63.6401 304.941L60.4715 303.13L59.9434 304.111L63.0365 305.921Z" fill="#E0E0E0"/>
<path d="M66.2815 328.705C68.9975 322.444 74.2031 317.464 80.4648 314.975L80.0122 313.918C73.5241 316.559 68.0922 321.765 65.3008 328.253L66.2815 328.705Z" fill="#E0E0E0"/>
<path d="M69.2988 363.334H70.355C70.4305 358.807 72.5429 354.507 76.0887 351.716L75.3343 350.886C71.6376 353.828 69.2988 358.505 69.2988 363.334Z" fill="#E0E0E0"/>
<path d="M71.7137 372.161L72.7698 371.784C71.6382 368.917 69.2995 366.653 66.5081 365.597L66.1309 366.578C68.6205 367.559 70.7329 369.671 71.7137 372.161Z" fill="#E0E0E0"/>
<path d="M78.8051 428.29L79.7104 427.611C78.3524 426.027 77.3717 419.84 76.7681 416.596C76.6927 415.766 76.5418 415.087 76.4664 414.635L75.4102 414.786C75.4856 415.314 75.561 415.993 75.7119 416.747C76.5418 421.651 77.4471 426.63 78.8051 428.29Z" fill="#E0E0E0"/>
<path d="M79.4839 445.944C80.9173 441.644 85.4439 438.475 89.9705 438.701L90.046 437.645C84.9913 437.343 80.012 440.814 78.4277 445.642L79.4839 445.944Z" fill="#E0E0E0"/>
<path d="M77.9745 466.842L78.8044 466.087L71.0337 457.411L70.2793 458.166L77.9745 466.842Z" fill="#E0E0E0"/>
<path d="M65.6023 400.904C63.8671 406.562 76.0889 417.426 76.0889 417.426C76.0889 417.426 92.3091 415.389 94.0443 409.731C95.855 403.997 91.7056 394.718 83.8595 392.304C76.0134 389.89 67.3375 395.246 65.6023 400.904Z" fill="#F0F0F0"/>
<path d="M52.0217 331.949C53.5306 337.985 65.1488 342.285 65.1488 342.285C65.1488 342.285 73.2212 332.855 71.7123 326.819C70.128 320.784 63.7154 314.145 58.2835 315.578C52.8516 316.936 50.4374 325.914 52.0217 331.949Z" fill="#EBEBEB"/>
<path d="M98.5699 422.104C91.2519 424.971 86.8008 437.871 86.8008 437.871C86.8008 437.871 98.7962 444.36 106.114 441.493C113.357 438.626 121.052 430.629 119.015 425.348C116.903 419.991 105.812 419.312 98.5699 422.104Z" fill="#F5F5F5"/>
<path d="M82.5782 351.263C81.0694 352.394 79.4851 353.601 77.599 354.054C75.7884 354.582 73.5251 354.28 72.318 352.847C70.7337 351.036 71.1863 348.245 72.1671 346.057C74.0532 341.757 81.2957 334.514 86.803 336.627C94.7246 339.645 86.1241 348.622 82.5782 351.263Z" fill="#E6E6E6"/>
<path d="M66.2807 362.202C67.337 363.485 68.4686 365.144 67.8651 366.653C67.337 368.087 65.6772 368.69 64.1684 368.464C62.7349 368.238 61.4524 367.408 60.2453 366.578C57.4539 364.616 51.7202 360.467 55.3415 356.695C59.1891 352.696 64.0929 359.486 66.2807 362.202Z" fill="#EBEBEB"/>
<path d="M89.8211 307.732C91.0282 307.808 92.2353 308.638 92.4616 309.845C92.6879 311.203 91.4808 312.41 90.4246 313.315C87.6333 315.427 79.1836 321.236 77.373 315.654C75.5624 310.373 86.1244 307.28 89.8211 307.732Z" fill="#E0E0E0"/>
<path d="M74.3554 289.249C76.0906 289.475 77.8258 288.796 79.561 288.947C81.2962 289.022 83.1823 290.456 82.805 292.116C82.4278 293.7 80.4663 294.228 78.882 294.303C76.1661 294.53 73.3747 294.303 70.7342 293.775C70.1306 293.624 69.4516 293.473 69.0744 292.945C68.3954 291.889 69.4516 290.531 70.6587 290.154C71.8658 289.777 73.2238 289.928 74.28 289.249H74.3554Z" fill="#E6E6E6"/>
<path d="M57.4536 301.168C55.7184 301.244 53.9832 300.489 52.2481 300.489C50.5129 300.489 48.5513 301.772 48.7777 303.507C49.0794 305.091 50.9655 305.695 52.5498 305.921C55.2658 306.298 58.0572 306.298 60.7731 305.921C61.3767 305.77 62.0557 305.695 62.4329 305.167C63.2627 304.186 62.2065 302.753 61.0749 302.3C59.8678 301.847 58.5098 301.847 57.4536 301.168Z" fill="#F0F0F0"/>
<path d="M59.1142 429.195C58.737 428.818 58.2089 428.441 57.6808 428.441C56.9263 428.441 56.3228 429.195 56.1719 429.874C56.021 430.629 56.2473 431.383 56.4737 432.062C57.6808 436.061 70.8833 464.578 73.901 459.448C75.7116 456.43 71.2605 446.396 69.978 443.53C67.4884 438.022 63.7916 433.118 59.1142 429.195Z" fill="#F0F0F0"/>
<path d="M67.0367 290.38C65.9805 288.042 64.8489 285.552 62.8119 284.043C60.6995 282.534 57.38 282.383 55.8712 284.496C54.136 286.835 55.8712 290.38 58.4362 291.587C61.0767 292.87 64.0945 292.493 66.9613 292.04C66.9613 291.638 66.9864 291.235 67.0367 290.833V290.38Z" fill="#E6E6E6"/>
<path d="M57.982 505.242C71.8635 508.033 86.5749 508.033 100.456 505.242L111.547 456.43H46.8164L57.982 505.242Z" fill="#E6E6E6"/>
<path d="M632.783 557.071C632.783 566.502 501.814 574.121 340.215 574.121C178.616 574.121 47.6465 566.502 47.6465 557.071C47.6465 547.641 178.616 539.946 340.215 539.946C501.814 539.946 632.783 547.641 632.783 557.071Z" fill="#F5F5F5"/>
<path d="M559.682 438.098H459.041C447.724 438.098 439.124 428.894 439.954 417.577L456.778 177.065C457.532 165.748 467.415 156.544 478.731 156.544H579.373C590.689 156.544 599.214 165.748 598.384 177.065L581.56 417.577C580.806 428.894 570.998 438.098 559.682 438.098Z" fill="#58A52C"/>
<path d="M554.396 438.098H453.755C442.438 438.098 433.913 428.894 434.743 417.577L451.567 177.065C452.322 165.748 462.129 156.544 473.446 156.544H574.087C585.403 156.544 593.928 165.748 593.174 177.065L576.35 417.577C575.595 428.894 565.712 438.098 554.396 438.098Z" fill="#58A52C"/>
<path d="M573.785 161.297H547.607C545.871 161.297 544.363 162.504 544.061 164.239L543.91 165.069C543.08 169.218 539.308 172.312 535.159 172.312H510.262C506.038 172.312 502.793 169.218 502.492 165.069V164.239C502.341 162.504 500.983 161.297 499.323 161.297H473.144C464.393 161.297 456.849 168.313 456.245 177.064L439.421 417.577C438.818 426.328 445.381 433.42 454.133 433.42H554.774C563.45 433.42 571.069 426.328 571.673 417.577L588.497 177.064C589.1 168.313 582.537 161.297 573.785 161.297Z" fill="#58A52C"/>
<path opacity="0.8" d="M588.497 177.064L588.12 181.968L571.673 417.577C571.069 426.328 563.45 433.42 554.774 433.42H454.133C445.381 433.42 438.818 426.328 439.421 417.577L455.868 181.968L456.245 177.064C456.849 168.313 464.393 161.297 473.144 161.297H499.323C501.058 161.297 502.341 162.504 502.492 164.239V165.069C502.793 169.218 506.113 172.312 510.262 172.312H535.083C539.308 172.312 543.08 169.218 543.834 165.069L544.061 164.239C544.363 162.504 545.947 161.297 547.607 161.297H573.785C582.537 161.297 589.1 168.313 588.497 177.064Z" fill="white"/>
<path opacity="0.2" d="M540.444 387.475H474.733C467.339 387.475 461.756 381.515 462.285 374.122C462.813 366.729 469.225 360.769 476.619 360.769H542.33C549.723 360.769 555.23 366.729 554.702 374.122C554.25 381.515 547.837 387.475 540.444 387.475Z" fill="black"/>
<path d="M486.422 374.046C485.97 380.233 480.538 385.287 474.352 385.287C468.165 385.287 463.488 380.233 463.865 374.046C464.318 367.785 469.75 362.73 475.936 362.73C482.122 362.73 486.8 367.785 486.422 374.046Z" fill="#58A52C"/>
<g opacity="0.7">
<path d="M517.206 163.938C517.131 165.069 516.15 165.899 515.019 165.899C513.962 165.899 513.132 165.069 513.208 163.938C513.283 162.806 514.264 161.901 515.32 161.901C516.452 161.901 517.282 162.806 517.206 163.938Z" fill="black"/>
<path d="M531.542 161.901C530.712 161.901 525.431 161.901 524.677 161.901C523.545 161.901 522.565 162.806 522.489 163.938C522.414 165.069 523.244 165.899 524.375 165.899C525.054 165.899 530.562 165.899 531.241 165.899C532.297 165.899 533.278 165.069 533.353 163.938C533.428 162.806 532.599 161.901 531.542 161.901Z" fill="black"/>
</g>
<path d="M467.562 172.312H469.675L469.826 170.2H467.713L467.562 172.312Z" fill="#58A52C"/>
<path d="M471.94 170.2L471.789 172.312H473.901L474.052 170.2L474.203 168.012H472.091L471.94 170.2Z" fill="#58A52C"/>
<path d="M476.464 165.899L476.314 168.012L476.163 170.2L476.012 172.312H478.124L478.275 170.2L478.426 168.012L478.577 165.899H476.464Z" fill="#58A52C"/>
<path fill-rule="evenodd" clip-rule="evenodd" d="M576.731 166.05L576.354 172.312H566.999L567.15 170.728H566.094L566.32 167.635H567.301L567.452 166.05H576.731ZM571.45 167.635H568.357L568.131 170.728H571.224L571.45 167.635Z" fill="#58A52C"/>
<path opacity="0.2" d="M546.326 276.197H480.615C473.221 276.197 467.714 270.237 468.167 262.844C468.695 255.45 475.107 249.49 482.501 249.49H548.212C555.605 249.49 561.112 255.45 560.584 262.844C560.132 270.237 553.719 276.197 546.326 276.197Z" fill="black"/>
<path d="M553.193 267.597H543.234L543.913 257.638H553.947L553.193 267.597Z" fill="white"/>
<path d="M546.628 263.296C546.326 263.372 545.874 263.372 545.798 263.07C545.647 262.693 546.251 262.165 545.949 261.863C545.647 261.636 544.893 262.24 544.742 262.466C544.365 262.919 544.289 263.9 544.214 264.428C544.138 264.805 544.138 265.182 544.44 265.484C544.666 265.71 545.044 265.71 545.421 265.71C546.854 265.559 548.288 264.73 549.57 263.9C552.135 262.164 554.474 260.203 556.511 258.015" fill="#58A52C"/>
<path d="M492.458 262.693C492.005 268.954 486.649 273.934 480.462 273.934C474.2 273.934 469.523 268.954 469.976 262.693C470.428 256.506 475.785 251.452 482.046 251.452C488.233 251.452 492.91 256.506 492.458 262.693Z" fill="#58A52C"/>
<path fill-rule="evenodd" clip-rule="evenodd" d="M486.197 266.314C485.82 267.596 484.689 268.502 483.481 268.653C482.501 268.803 477.974 268.803 477.144 268.577C475.937 268.351 475.107 267.37 475.032 266.087C474.881 265.182 475.183 260.656 475.56 259.675C475.937 258.468 476.993 257.562 478.2 257.412C480.112 257.261 481.998 257.261 483.859 257.412C484.689 257.412 485.368 257.713 485.896 258.241C486.424 258.769 486.726 259.448 486.726 260.203C486.726 261.108 486.499 265.333 486.197 266.314ZM485.669 260.278C485.669 259.298 485.066 258.543 484.085 258.392C482.224 258.292 480.338 258.292 478.427 258.392C477.521 258.468 476.616 259.222 476.465 260.127C476.163 262.089 476.013 264.025 476.013 265.937C476.088 266.766 476.616 267.37 477.371 267.596C478.2 267.823 482.35 267.747 483.255 267.672C484.236 267.596 485.066 266.842 485.217 265.937C485.518 264.025 485.669 262.139 485.669 260.278ZM481.067 260.052C482.727 260.127 483.859 261.41 483.783 262.994C483.783 263.095 483.783 263.195 483.783 263.296C483.557 264.805 482.123 266.012 480.615 265.937C478.955 265.937 477.823 264.654 477.899 262.994C477.899 262.944 477.899 262.869 477.899 262.768C478.125 261.259 479.558 260.052 481.067 260.052ZM480.69 264.956C480.74 264.956 480.791 264.956 480.841 264.956C481.822 264.88 482.652 264.05 482.727 263.07C482.803 262.014 482.048 261.184 480.992 261.108C480.942 261.108 480.891 261.108 480.841 261.108C479.86 261.184 479.03 262.014 478.955 262.994C478.879 264.05 479.634 264.88 480.69 264.956ZM484.839 259.977C484.764 260.354 484.462 260.656 484.16 260.656C484.11 260.656 484.085 260.656 484.085 260.656C483.708 260.656 483.406 260.354 483.481 259.977C483.481 259.599 483.783 259.298 484.16 259.298C484.538 259.298 484.839 259.599 484.839 259.977Z" fill="white"/>
<path opacity="0.2" d="M548.967 240.739H483.256C475.863 240.739 470.28 234.779 470.808 227.386C471.336 219.992 477.749 214.032 485.142 214.032H550.778C558.171 214.032 563.754 219.992 563.226 227.386C562.698 234.779 556.36 240.739 548.967 240.739Z" fill="black"/>
<path d="M555.833 232.214H545.875L546.554 222.255H556.512L555.833 232.214Z" fill="white"/>
<path d="M495.098 227.31C494.646 233.496 489.289 238.551 483.027 238.551C476.841 238.551 472.164 233.496 472.616 227.31C472.993 221.048 478.425 215.993 484.612 215.993C490.873 215.993 495.551 221.048 495.098 227.31Z" fill="#58A52C"/>
<path d="M487.782 234.175H478.125L479.03 220.973H488.687L487.782 234.175Z" fill="white"/>
<path d="M486.879 225.726H480.391L480.466 224.971H486.954L486.879 225.726Z" fill="#58A52C"/>
<path d="M486.723 228.215H480.234V227.461H486.723V228.215Z" fill="#58A52C"/>
<path d="M486.5 230.78H480.012L480.087 229.95H486.575L486.5 230.78Z" fill="#58A52C"/>
<path d="M547.005 378.951H537.047L537.726 368.992H547.684L547.005 378.951Z" fill="white"/>
<path d="M538.029 375.706C537.954 376.083 537.954 376.536 538.18 376.762C538.407 376.989 538.859 376.989 539.161 376.989C540.67 376.838 542.103 376.008 543.386 375.178C545.876 373.443 548.214 371.481 550.327 369.293C547.862 370.802 545.373 372.211 542.858 373.518C542.028 373.895 541.274 374.348 540.444 374.574C540.066 374.65 539.689 374.65 539.614 374.348C539.463 373.971 540.066 373.443 539.765 373.217C539.463 372.99 538.708 373.518 538.558 373.745C538.18 374.197 538.029 375.178 538.029 375.706Z" fill="#58A52C"/>
<path fill-rule="evenodd" clip-rule="evenodd" d="M469.602 378.8C469.149 378.649 468.847 378.272 468.696 377.894C468.395 376.763 468.621 372.01 469.526 371.104C469.753 370.803 470.13 370.576 470.582 370.576C472.695 370.35 479.258 370.35 480.013 370.652C480.39 370.727 480.767 371.104 480.843 371.482C481.22 372.689 480.918 376.914 480.315 378.045C480.164 378.347 479.862 378.573 479.56 378.724C478.806 379.101 470.658 379.101 469.602 378.8ZM471.94 377.743L477.9 374.726L472.393 371.783C472.242 373.745 472.091 375.732 471.94 377.743Z" fill="white"/>
<path opacity="0.2" d="M542.404 350.433H476.694C469.3 350.433 463.717 344.397 464.246 337.004C464.774 329.686 471.186 323.65 478.58 323.65H544.291C551.684 323.65 557.191 329.686 556.663 337.004C556.211 344.397 549.798 350.433 542.404 350.433Z" fill="black"/>
<path d="M549.271 342.135H539.312L539.991 332.101H549.95L549.271 342.135Z" fill="white"/>
<path d="M540.291 338.89C540.216 339.267 540.216 339.645 540.442 339.946C540.668 340.173 541.046 340.173 541.423 340.173C542.932 340.022 544.365 339.192 545.648 338.362C548.137 336.627 550.476 334.665 552.588 332.478C550.124 333.986 547.634 335.395 545.12 336.702C544.29 337.08 543.535 337.532 542.705 337.759C542.328 337.834 541.951 337.834 541.8 337.532C541.725 337.155 542.328 336.627 542.026 336.325C541.725 336.099 540.97 336.702 540.819 336.929C540.442 337.381 540.291 338.362 540.291 338.89Z" fill="#58A52C"/>
<path d="M488.383 337.23C487.931 343.417 482.499 348.471 476.313 348.471C470.126 348.471 465.449 343.417 465.826 337.23C466.279 331.044 471.711 325.989 477.897 325.989C484.083 325.989 488.761 331.044 488.383 337.23Z" fill="#58A52C"/>
<path d="M479.028 333.609C479.43 333.609 479.833 333.609 480.235 333.609H480.386L480.537 331.572C480.311 331.572 480.16 331.572 479.933 331.572C479.481 331.572 479.104 331.497 478.726 331.497C478.123 331.497 477.519 331.723 476.916 332.025C476.388 332.477 475.935 333.081 475.784 333.76C475.734 334.062 475.683 334.338 475.633 334.59C475.633 335.118 475.633 335.571 475.558 336.023V336.174H473.596L473.445 338.437H475.331L474.954 344.096H477.368L477.746 338.437H479.707C479.858 337.683 480.009 336.928 480.16 336.174H477.896C477.896 336.174 477.972 335.042 478.047 334.514C478.123 333.911 478.5 333.684 479.028 333.609Z" fill="white"/>
<path opacity="0.2" d="M544.365 313.315H478.654C471.26 313.315 465.753 307.28 466.206 299.962C466.734 292.568 473.146 286.533 480.54 286.533H546.251C553.644 286.533 559.152 292.568 558.623 299.962C558.171 307.28 551.758 313.315 544.365 313.315Z" fill="black"/>
<path d="M551.232 304.488H541.273L541.952 294.529H551.986L551.232 304.488Z" fill="white"/>
<path d="M542.252 301.244C542.177 301.697 542.177 302.074 542.403 302.376C542.705 302.602 543.082 302.602 543.459 302.602C544.893 302.451 546.326 301.621 547.609 300.716C550.174 299.056 552.437 297.095 554.549 294.907C552.085 296.365 549.595 297.774 547.081 299.132C546.326 299.509 545.496 299.886 544.666 300.112C544.365 300.263 543.912 300.263 543.836 299.961C543.686 299.584 544.289 298.981 543.987 298.754C543.686 298.528 542.931 299.056 542.78 299.358C542.403 299.811 542.328 300.716 542.252 301.244Z" fill="#58A52C"/>
<path d="M490.422 299.66C489.97 305.846 484.613 310.901 478.352 310.901C472.165 310.901 467.488 305.846 467.865 299.66C468.318 293.398 473.75 288.343 479.936 288.343C486.122 288.343 490.8 293.398 490.422 299.66Z" fill="#58A52C"/>
<path d="M477.07 302.376C476.164 302.376 475.334 301.772 475.183 300.867C475.485 300.917 475.787 300.917 476.089 300.867C475.561 300.716 475.033 300.339 474.806 299.811C474.605 299.459 474.53 299.081 474.58 298.679C474.831 298.83 475.133 298.905 475.485 298.905C475.033 298.604 474.806 298.151 474.655 297.623C474.58 297.095 474.731 296.491 475.033 296.038C476.013 297.396 477.598 298.226 479.408 298.302C479.408 298.226 479.408 298.151 479.408 298.075C479.333 297.547 479.484 297.095 479.785 296.642C480.163 296.114 480.766 295.737 481.37 295.661C482.124 295.586 482.803 295.812 483.256 296.265C483.256 296.315 483.281 296.34 483.331 296.34C483.784 296.24 484.211 296.064 484.614 295.812H484.689C484.463 296.265 484.161 296.717 483.708 296.944C484.111 296.894 484.513 296.793 484.916 296.642C484.865 296.743 484.79 296.843 484.689 296.944C484.438 297.246 484.161 297.497 483.859 297.698C483.809 297.749 483.784 297.774 483.784 297.774C483.784 298.126 483.734 298.453 483.633 298.754C483.532 299.459 483.306 300.112 482.954 300.716C482.602 301.37 482.149 301.948 481.596 302.451C480.766 303.281 479.635 303.885 478.503 304.111C478.05 304.211 477.623 304.262 477.22 304.262C476.013 304.262 474.806 303.96 473.825 303.356L473.75 303.281C474.504 303.356 475.259 303.281 475.938 302.979C476.34 302.828 476.717 302.627 477.07 302.376Z" fill="white"/>
<path opacity="0.2" d="M538.479 424.594H472.768C465.374 424.594 459.792 418.634 460.32 411.24C460.848 403.847 467.26 397.887 474.654 397.887H540.365C547.683 397.887 553.266 403.847 552.737 411.24C552.285 418.634 545.872 424.594 538.479 424.594Z" fill="black"/>
<path d="M545.345 416.068H535.387L536.066 406.11H546.024L545.345 416.068Z" fill="white"/>
<path d="M536.365 412.824C536.29 413.201 536.29 413.654 536.516 413.88C536.818 414.107 537.195 414.107 537.497 414.107C539.006 413.956 540.439 413.126 541.722 412.296C544.287 410.561 546.55 408.599 548.663 406.412C546.198 407.92 543.709 409.329 541.194 410.636C540.439 411.014 539.609 411.466 538.78 411.693C538.478 411.768 538.025 411.768 537.95 411.466C537.799 411.089 538.402 410.561 538.101 410.335C537.799 410.108 537.044 410.636 536.894 410.863C536.516 411.315 536.441 412.296 536.365 412.824Z" fill="#58A52C"/>
<path d="M484.762 411.089C484.31 417.276 478.953 422.33 472.691 422.33C466.505 422.33 461.828 417.276 462.28 411.089C462.657 404.903 468.089 399.848 474.276 399.848C480.462 399.848 485.215 404.903 484.762 411.089Z" fill="#58A52C"/>
<path d="M479.861 408.901L479.408 414.71H467.262L467.639 408.901L473.373 412.749L479.861 408.901Z" fill="white"/>
<path d="M479.937 407.77V407.845L473.448 411.693L467.715 407.77H479.937Z" fill="white"/>
<path fill-rule="evenodd" clip-rule="evenodd" d="M487.705 201.282H490.195C491.93 201.282 493.062 202.338 492.911 203.922C492.835 205.582 491.553 206.638 489.818 206.638H487.328L487.705 201.282ZM489.818 205.582C490.874 205.582 491.628 204.978 491.704 203.922C491.779 202.941 491.1 202.263 490.044 202.263H488.912L488.686 205.582H489.818Z" fill="#263238"/>
<path d="M493.896 202.489H495.103L494.801 206.638H493.594L493.896 202.489ZM493.82 201.206C493.896 200.829 494.197 200.527 494.65 200.527C495.103 200.527 495.329 200.829 495.329 201.206C495.329 201.584 494.952 201.885 494.575 201.885C494.122 201.885 493.82 201.584 493.82 201.206Z" fill="#263238"/>
<path d="M495.555 206.261L496.007 205.356C496.309 205.582 496.913 205.809 497.365 205.809C497.969 205.809 498.195 205.658 498.195 205.431C498.195 204.752 495.706 205.431 495.781 203.772C495.856 203.017 496.611 202.414 497.818 202.414C498.346 202.414 498.95 202.564 499.327 202.791L498.874 203.621C498.497 203.394 498.12 203.319 497.743 203.319C497.214 203.319 496.988 203.545 496.913 203.696C496.913 204.451 499.402 203.772 499.327 205.356C499.251 206.11 498.497 206.638 497.29 206.638C496.611 206.638 495.932 206.488 495.555 206.261Z" fill="#263238"/>
<path d="M502.645 206.412C502.344 206.563 502.042 206.639 501.665 206.639C500.684 206.639 500.156 206.186 500.231 205.205L500.307 203.545H499.703L499.779 202.565H500.382L500.458 201.584H501.665L501.589 202.565H502.645L502.57 203.545H501.514L501.438 205.205C501.363 205.507 501.589 205.733 501.891 205.733C502.042 205.733 502.268 205.658 502.344 205.582L502.645 206.412Z" fill="#263238"/>
<path d="M506.112 202.414L506.036 203.545C505.936 203.545 505.86 203.545 505.81 203.545C505.131 203.545 504.678 203.847 504.603 204.677L504.452 206.638H503.32L503.547 202.489H504.754L504.678 203.017C504.98 202.64 505.508 202.414 506.112 202.414Z" fill="#263238"/>
<path fill-rule="evenodd" clip-rule="evenodd" d="M510.338 204.3L510.187 206.638H509.056L509.131 206.11C508.88 206.462 508.427 206.638 507.773 206.638C506.868 206.638 506.34 206.11 506.34 205.431C506.415 204.677 506.943 204.224 508.226 204.224H509.131C509.207 203.696 508.905 203.394 508.301 203.394C507.849 203.394 507.396 203.545 507.019 203.772L506.717 202.942C507.17 202.64 507.849 202.414 508.452 202.414C509.735 202.414 510.414 203.017 510.338 204.3ZM509.056 205.28L509.131 204.903H508.301C507.698 204.903 507.547 205.13 507.547 205.356C507.471 205.658 507.773 205.884 508.15 205.884C508.528 205.884 508.905 205.658 509.056 205.28Z" fill="#263238"/>
<path d="M511.169 204.526C511.244 203.319 512.225 202.414 513.583 202.414C514.488 202.414 515.092 202.791 515.318 203.47L514.413 203.998C514.187 203.621 513.885 203.394 513.508 203.394C512.904 203.394 512.376 203.847 512.376 204.526C512.3 205.28 512.753 205.733 513.357 205.733C513.734 205.733 514.036 205.507 514.337 205.13L515.243 205.658C514.866 206.261 514.187 206.638 513.281 206.638C511.923 206.638 511.093 205.809 511.169 204.526Z" fill="#263238"/>
<path d="M518.563 206.412C518.337 206.563 517.96 206.639 517.583 206.639C516.602 206.639 516.074 206.186 516.149 205.205L516.225 203.545H515.621L515.697 202.565H516.3L516.376 201.584H517.583L517.507 202.565H518.563L518.488 203.545H517.432L517.356 205.205C517.281 205.507 517.507 205.733 517.809 205.733C518.01 205.733 518.161 205.683 518.262 205.582L518.563 206.412Z" fill="#263238"/>
<path d="M519.544 202.489H520.676L520.449 206.638H519.242L519.544 202.489ZM519.469 201.206C519.469 200.829 519.77 200.527 520.223 200.527C520.676 200.527 520.977 200.829 520.977 201.206C520.902 201.584 520.6 201.885 520.148 201.885C519.695 201.885 519.469 201.584 519.469 201.206Z" fill="#263238"/>
<path d="M525.883 204.224L525.733 206.638H524.526L524.676 204.451C524.752 203.772 524.45 203.47 523.922 203.47C523.318 203.47 522.941 203.847 522.866 204.601L522.715 206.638H521.508L521.81 202.489H522.941V203.017C523.243 202.64 523.771 202.414 524.299 202.414C525.28 202.414 525.959 203.017 525.883 204.224Z" fill="#263238"/>
<path fill-rule="evenodd" clip-rule="evenodd" d="M531.385 202.489L531.159 205.959C531.008 207.468 530.178 208.147 528.669 208.147C527.915 208.147 527.161 207.996 526.708 207.619L527.236 206.714C527.538 207.016 528.141 207.166 528.669 207.166C529.499 207.166 529.876 206.789 529.952 206.11V205.884C529.65 206.261 529.122 206.412 528.594 206.412C527.462 206.412 526.632 205.658 526.708 204.451C526.783 203.243 527.764 202.414 528.896 202.414C529.499 202.414 529.952 202.64 530.254 203.017V202.489H531.385ZM530.103 204.451C530.103 203.847 529.726 203.394 529.047 203.394C528.443 203.394 527.915 203.847 527.915 204.451C527.84 205.054 528.292 205.431 528.896 205.431C529.575 205.431 530.027 205.054 530.103 204.451Z" fill="#263238"/>
<path fill-rule="evenodd" clip-rule="evenodd" d="M538.102 205.431H535.613L535.009 206.638H533.727L536.518 201.282H537.725L539.762 206.638H538.479L538.102 205.431ZM537.725 204.45L537.046 202.413L536.065 204.45H537.725Z" fill="#263238"/>
<path fill-rule="evenodd" clip-rule="evenodd" d="M544.894 204.526C544.743 205.884 543.837 206.638 542.706 206.638C542.152 206.689 541.75 206.538 541.499 206.186L541.348 208.072H540.141L540.518 202.489H541.649V202.942C541.951 202.59 542.379 202.414 542.932 202.414C544.139 202.414 544.969 203.243 544.894 204.526ZM543.686 204.526C543.686 203.847 543.309 203.394 542.706 203.394C542.102 203.394 541.65 203.847 541.574 204.526C541.499 205.28 541.951 205.733 542.555 205.733C543.158 205.733 543.611 205.28 543.686 204.526Z" fill="#263238"/>
<path fill-rule="evenodd" clip-rule="evenodd" d="M550.175 204.526C550.024 205.884 549.119 206.638 547.987 206.638C547.434 206.689 547.031 206.538 546.78 206.186L546.629 208.072H545.422L545.799 202.489H546.931V202.942C547.233 202.59 547.66 202.414 548.213 202.414C549.42 202.414 550.25 203.243 550.175 204.526ZM548.968 204.526C548.968 203.847 548.591 203.394 547.987 203.394C547.383 203.394 546.931 203.847 546.855 204.526C546.78 205.28 547.233 205.733 547.836 205.733C548.44 205.733 548.892 205.28 548.968 204.526Z" fill="#263238"/>
<path d="M550.398 206.261L550.851 205.356C551.228 205.582 551.756 205.809 552.285 205.809C552.813 205.809 553.039 205.658 553.039 205.431C553.114 204.752 550.549 205.431 550.7 203.772C550.776 203.017 551.53 202.414 552.662 202.414C553.265 202.414 553.869 202.564 554.246 202.791L553.793 203.621C553.416 203.394 553.039 203.319 552.662 203.319C552.134 203.319 551.832 203.545 551.832 203.696C551.832 204.451 554.322 203.772 554.246 205.356C554.171 206.11 553.416 206.638 552.209 206.638C551.455 206.638 550.776 206.488 550.398 206.261Z" fill="#263238"/>
<path d="M574.921 182.798C574.845 183.854 574.015 184.684 572.959 184.684C571.903 184.684 571.149 183.854 571.224 182.798C571.299 181.742 572.129 180.912 573.185 180.912C574.242 180.912 574.996 181.742 574.921 182.798Z" fill="#58A52C"/>
<path d="M574.617 187.4C574.541 188.456 573.636 189.286 572.58 189.286C571.599 189.286 570.769 188.456 570.845 187.4C570.92 186.344 571.825 185.514 572.882 185.514C573.938 185.514 574.692 186.344 574.617 187.4Z" fill="#58A52C"/>
<path d="M574.316 192.002C574.241 193.058 573.336 193.888 572.279 193.888C571.223 193.888 570.469 193.058 570.544 192.002C570.62 190.946 571.525 190.116 572.581 190.116C573.637 190.116 574.392 190.946 574.316 192.002Z" fill="#58A52C"/>
<path d="M474.125 187.929H464.543C464.166 187.929 463.789 187.627 463.789 187.174C463.789 186.797 464.166 186.42 464.543 186.42H474.125C474.502 186.42 474.879 186.797 474.879 187.174C474.879 187.627 474.502 187.929 474.125 187.929Z" fill="#58A52C"/>
<path d="M466.735 191.927C466.509 191.927 466.282 191.852 466.131 191.701L462.133 187.325L466.735 183.025C467.037 182.723 467.489 182.723 467.791 183.025C468.093 183.326 468.017 183.855 467.716 184.081L464.245 187.4L467.263 190.644C467.565 190.946 467.489 191.474 467.188 191.701C467.037 191.852 466.886 191.927 466.735 191.927Z" fill="#58A52C"/>
<path d="M486.047 186.118L485.896 188.08H489.367L489.291 189.437H485.821L485.595 192.229H483.859L484.387 184.685H490.046L489.97 186.118H486.047Z" fill="#263238"/>
<path fill-rule="evenodd" clip-rule="evenodd" d="M490.424 188.457C490.574 186.194 492.461 184.609 494.799 184.609C497.138 184.609 498.798 186.194 498.647 188.457C498.496 190.72 496.61 192.305 494.271 192.305C491.932 192.305 490.273 190.645 490.424 188.457ZM496.912 188.457C496.987 187.024 496.006 186.043 494.724 186.043C493.366 186.043 492.31 187.024 492.159 188.457C492.083 189.89 493.064 190.871 494.347 190.871C495.705 190.871 496.761 189.89 496.912 188.457Z" fill="#263238"/>
<path d="M499.475 188.457C499.626 186.194 501.512 184.609 503.85 184.609C505.133 184.609 506.189 185.062 506.793 185.892L505.586 186.948C505.133 186.345 504.529 186.043 503.775 186.043C502.417 186.043 501.361 187.024 501.21 188.457C501.135 189.89 502.04 190.871 503.473 190.871C504.228 190.871 504.882 190.569 505.435 189.966L506.416 191.022C505.661 191.852 504.605 192.305 503.247 192.305C500.908 192.305 499.324 190.72 499.475 188.457Z" fill="#263238"/>
<path d="M507.622 188.909L507.924 184.685H509.659L509.357 188.834C509.282 190.267 509.885 190.871 510.941 190.871C511.998 190.871 512.601 190.267 512.752 188.834L512.978 184.685H514.714L514.412 188.909C514.261 191.097 512.903 192.304 510.791 192.304C508.678 192.304 507.471 191.097 507.622 188.909Z" fill="#263238"/>
<path d="M515.391 191.475L516.07 190.117C516.673 190.645 517.578 190.947 518.484 190.947C519.465 190.947 519.917 190.569 519.993 190.117C520.068 188.759 515.617 189.664 515.843 186.948C515.919 185.666 517.05 184.609 519.163 184.609C520.144 184.609 521.049 184.836 521.728 185.213L521.124 186.571C520.445 186.194 519.691 185.967 519.087 185.967C518.031 185.967 517.578 186.345 517.578 186.797C517.503 188.231 521.879 187.25 521.728 190.041C521.652 191.248 520.521 192.305 518.333 192.305C517.201 192.305 515.994 192.003 515.391 191.475Z" fill="#263238"/>
<path d="M532.595 192.229L532.896 187.702L530.407 191.399H529.652L527.691 187.778L527.389 192.229H525.805L526.333 184.685H527.766L530.256 189.362L533.274 184.685H534.707L534.254 192.229H532.595Z" fill="#263238"/>
<path fill-rule="evenodd" clip-rule="evenodd" d="M535.841 188.457C535.992 186.194 537.802 184.609 540.141 184.609C542.555 184.609 544.14 186.194 543.989 188.457C543.838 190.72 542.027 192.305 539.613 192.305C537.274 192.305 535.615 190.645 535.841 188.457ZM542.254 188.457C542.329 187.024 541.424 186.043 540.066 186.043C538.708 186.043 537.652 187.024 537.576 188.457C537.501 189.89 538.406 190.871 539.764 190.871C541.047 190.871 542.178 189.89 542.254 188.457Z" fill="#263238"/>
<path fill-rule="evenodd" clip-rule="evenodd" d="M545.571 184.685H548.966C551.456 184.685 553.04 186.193 552.889 188.457C552.663 190.72 550.928 192.229 548.438 192.229H545.043L545.571 184.685ZM548.513 190.72C549.947 190.72 551.003 189.815 551.078 188.381C551.229 186.948 550.324 186.043 548.815 186.043H547.231L546.929 190.72H548.513Z" fill="#263238"/>
<path d="M559.827 190.795L559.676 192.229H553.867L554.395 184.685H560.054L559.978 186.118H556.055L555.904 187.702H559.45L559.299 189.06H555.829L555.753 190.795H559.827Z" fill="#263238"/>
<path opacity="0.2" d="M573.712 161.599L439.423 417.728L439.348 417.879L456.171 177.367C456.272 175.908 456.549 174.5 457.001 173.142C457.052 172.991 457.102 172.84 457.152 172.689C459.642 166.277 465.979 161.599 473.071 161.599H500.683C501.664 162.052 502.418 163.033 502.493 164.24V165.069C502.795 169.219 506.115 172.312 510.264 172.312H535.085C539.31 172.312 543.082 169.219 543.836 165.069L544.063 164.24C544.289 163.033 545.119 162.052 546.175 161.599H573.712Z" fill="white"/>
<path d="M417.846 163.787C413.47 186.344 391.592 201.056 369.11 196.605C364.81 195.775 360.811 194.341 357.19 192.38L343.157 202.112L346.477 183.93C337.876 174.575 333.652 161.373 336.292 147.868C340.668 125.386 362.471 110.675 385.028 115.051C407.586 119.502 422.222 141.305 417.846 163.787Z" fill="#455A64"/>
<path fill-rule="evenodd" clip-rule="evenodd" d="M382.538 182.874C367.751 185.59 353.492 175.858 350.701 161.071C347.985 146.284 357.717 132.025 372.504 129.234C387.29 126.518 401.549 136.25 404.341 151.037C407.057 165.824 397.324 180.082 382.538 182.874ZM375.295 145.001C369.109 146.133 364.959 152.093 366.166 158.279C367.298 164.466 373.258 168.54 379.444 167.408C385.631 166.276 389.705 160.316 388.573 154.13C387.441 147.944 381.406 143.87 375.295 145.001Z" fill="white"/>
<path d="M300.155 176.612C308.152 194.341 300.231 215.239 282.501 223.236C279.182 224.745 275.712 225.725 272.241 226.103L267.262 239.758L260.698 225.574C250.136 223.311 240.706 216.219 235.953 205.582C227.956 187.853 235.802 167.031 253.531 159.034C271.26 151.037 292.158 158.883 300.155 176.612Z" fill="#455A64"/>
<path d="M271.261 207.393C271.261 209.732 269.3 211.618 266.961 211.618C264.622 211.618 262.736 209.732 262.736 207.393C262.736 205.054 264.622 203.168 266.961 203.168C269.3 203.168 271.261 205.054 271.261 207.393Z" fill="white"/>
<path d="M284.538 207.318H249.834L252.248 201.131H252.399V186.797C252.399 180.385 256.473 174.953 262.131 172.916C263.866 172.237 265.149 170.652 265.149 168.766V168.691H269.449C269.449 168.691 270.656 172.312 272.467 172.991C274.428 173.746 276.164 174.877 277.597 176.311C280.238 179.027 281.897 182.723 281.897 186.797V201.131H282.124L284.538 207.318Z" fill="white"/>
<path d="M291.856 176.009C291.932 181.742 287.33 186.495 281.596 186.571C275.787 186.571 271.11 181.969 271.034 176.235C270.959 170.501 275.561 165.748 281.37 165.673C287.103 165.673 291.781 170.275 291.856 176.009Z" fill="#333333"/>
<path opacity="0.8" d="M287.632 171.709L285.67 169.898L281.445 174.274L277.07 169.973L275.184 171.859L279.559 176.16L275.334 180.535L277.221 182.346L281.445 177.97L285.821 182.271L287.707 180.385L283.331 176.084L287.632 171.709Z" fill="white"/>
<path fill-rule="evenodd" clip-rule="evenodd" d="M197.704 364.767L145.195 547.188C143.234 555.638 135.689 561.598 127.164 561.598C126.963 561.598 126.762 561.598 126.561 561.598H126.259L115.395 561.296C107.096 560.994 99.9294 555.11 98.0433 546.962L65.5273 364.767H197.704ZM126.863 554.054C131.993 554.205 136.595 550.583 137.802 545.529L188.198 372.311H75.1841L105.437 545.227C106.568 550.055 110.793 553.526 115.622 553.676L125.882 553.978L126.863 554.054Z" fill="#263238"/>
<g opacity="0.3">
<path fill-rule="evenodd" clip-rule="evenodd" d="M195.817 364.767L143.309 547.188C141.423 555.336 134.407 561.145 126.259 561.598L115.395 561.296C107.096 560.994 99.9294 555.11 98.0433 546.962L65.5273 364.767H195.817ZM188.198 372.311H73.298L103.551 545.227C104.682 550.055 108.907 553.526 113.735 553.676L124.976 554.054C125.278 554.054 125.58 554.029 125.882 553.978L126.863 554.054C131.993 554.205 136.595 550.583 137.802 545.529L188.198 372.311Z" fill="#37474F"/>
</g>
<path fill-rule="evenodd" clip-rule="evenodd" d="M359.077 364.767L306.493 547.188C304.607 555.638 297.062 561.598 288.537 561.598C288.336 561.598 288.135 561.598 287.934 561.598H287.557L276.768 561.296C268.47 560.994 261.302 555.11 259.341 546.962L226.9 364.767H359.077ZM288.16 554.054C293.366 554.205 297.968 550.583 299.099 545.529L349.571 372.311H236.482L266.734 545.227C267.866 550.055 272.091 553.526 276.995 553.676L287.255 553.978L288.16 554.054Z" fill="#263238"/>
<g opacity="0.5">
<path fill-rule="evenodd" clip-rule="evenodd" d="M357.191 364.767L304.607 547.188C302.796 555.336 295.704 561.145 287.557 561.598L276.768 561.296C268.47 560.994 261.302 555.11 259.341 546.962L226.9 364.767H357.191ZM349.571 372.311H234.596L264.848 545.227C265.98 550.055 270.205 553.526 275.109 553.676L286.274 554.054C286.576 554.054 286.903 554.029 287.255 553.978L288.16 554.054C293.366 554.205 297.968 550.583 299.099 545.529L349.571 372.311Z" fill="#37474F"/>
</g>
<path d="M143.836 354.054V355.563C143.836 356.393 144.439 356.997 145.269 356.997H199.815C200.494 356.997 201.097 356.393 201.097 355.714V354.205C201.097 353.526 200.494 352.923 199.815 352.923H186.235C184.651 352.923 183.519 351.489 183.745 349.98L188.498 322.519H157.567L144.289 351.866C143.987 352.545 143.836 353.3 143.836 354.054Z" fill="#263238"/>
<path d="M201.097 354.205V355.714C201.097 356.393 200.494 356.997 199.815 356.997H145.269C144.439 356.997 143.836 356.318 143.836 355.563V354.054C143.836 353.652 143.861 353.25 143.911 352.847C144.012 352.495 144.138 352.168 144.289 351.866L157.567 322.519H188.498L183.745 349.98C183.745 350.131 183.745 350.307 183.745 350.508C183.745 351.64 184.575 352.621 185.707 352.847C185.858 352.897 186.034 352.923 186.235 352.923H199.815C200.494 352.923 201.097 353.526 201.097 354.205Z" fill="#455A64"/>
<path d="M142.555 351.866L155.758 322.519H157.569L144.291 351.866C143.989 352.545 143.838 353.3 143.838 354.054V355.563C143.838 356.393 144.442 356.997 145.271 356.997H143.461C142.706 356.997 142.027 356.393 142.027 355.563V354.054C142.027 353.3 142.178 352.545 142.555 351.866Z" fill="#263238"/>
<path d="M157.567 322.519H188.499L187.292 329.535H154.398L157.567 322.519Z" fill="#263238"/>
<path d="M110.039 325.612H242.291C244.931 325.612 246.893 323.424 246.666 320.784L238.368 225.197C238.066 222.557 235.727 220.369 233.087 220.369H100.835C98.1944 220.369 96.2329 222.557 96.4592 225.197L104.833 320.784C105.06 323.424 107.398 325.612 110.039 325.612Z" fill="#263238"/>
<path d="M245.761 310.448L246.666 320.784C246.892 323.424 244.931 325.612 242.29 325.612H110.039C107.398 325.612 105.059 323.424 104.833 320.784L103.928 310.448H245.761Z" fill="#455A64"/>
<path d="M108.604 307.506H240.63C242.063 307.506 243.119 306.299 242.968 304.865L236.103 225.952C235.952 224.443 234.67 223.312 233.236 223.312H101.211C99.7775 223.312 98.7213 224.443 98.7968 225.952L105.738 304.865C105.888 306.299 107.171 307.506 108.604 307.506Z" fill="#455A64"/>
<path opacity="0.8" d="M242.14 304.941C242.29 306.374 241.234 307.506 239.801 307.506H108.681C107.247 307.506 105.965 306.374 105.814 304.941L99.0241 226.027C98.8732 224.594 99.9294 223.462 101.363 223.462H232.558C233.992 223.462 235.199 224.594 235.35 226.027L242.14 304.941Z" fill="white"/>
<path d="M97.9669 220.369H100.834C98.1933 220.369 96.2318 222.557 96.4581 225.197L104.832 320.784C105.059 323.424 107.397 325.612 110.038 325.612H107.171C104.455 325.612 102.116 323.424 101.89 320.784L93.5158 225.197C93.2895 222.557 95.251 220.369 97.9669 220.369Z" fill="#58A52C"/>
<path d="M97.9669 220.369H100.834C98.1933 220.369 96.2318 222.557 96.4581 225.197L104.832 320.784C105.059 323.424 107.397 325.612 110.038 325.612H107.171C104.455 325.612 102.116 323.424 101.89 320.784L93.5158 225.197C93.2895 222.557 95.251 220.369 97.9669 220.369Z" fill="#263238"/>
<path d="M153.268 354.205V355.639C153.268 356.393 153.871 356.997 154.626 356.997H199.816C200.495 356.997 201.098 356.393 201.098 355.714V354.205C201.098 353.526 200.495 352.923 199.816 352.923H186.236C186.035 352.923 185.859 352.897 185.708 352.847H154.626C153.871 352.847 153.268 353.451 153.268 354.205Z" fill="#263238"/>
<path d="M143.912 352.847H185.708C184.576 352.621 183.746 351.64 183.746 350.508H145.044L143.912 352.847Z" fill="#263238"/>
<path d="M181.861 244.511H150.1C150.1 245.215 150.125 245.919 150.175 246.623H181.937C181.886 245.919 181.861 245.215 181.861 244.511Z" fill="#58A52C"/>
<path d="M174.617 241.191H149.721C149.771 241.896 149.821 242.6 149.872 243.304H174.692C174.692 242.6 174.667 241.896 174.617 241.191Z" fill="#58A52C"/>
<path d="M183.746 263.296H151.984C151.984 264.001 152.01 264.705 152.06 265.409H183.821C183.821 264.705 183.796 264.001 183.746 263.296Z" fill="#58A52C"/>
<path d="M176.504 259.977H151.684C151.684 260.681 151.709 261.385 151.759 262.089H176.655C176.605 261.385 176.555 260.681 176.504 259.977Z" fill="#58A52C"/>
<path d="M187.217 298.377H155.455C155.455 299.081 155.48 299.785 155.531 300.489H187.292C187.292 299.785 187.267 299.081 187.217 298.377Z" fill="#58A52C"/>
<path d="M179.973 295.058H155.152C155.152 295.762 155.177 296.466 155.228 297.17H180.124C180.074 296.466 180.023 295.762 179.973 295.058Z" fill="#58A52C"/>
<path d="M185.179 279.969H153.418C153.418 280.673 153.443 281.377 153.493 282.082H185.255C185.205 281.377 185.179 280.673 185.179 279.969Z" fill="#58A52C"/>
<path d="M177.937 276.574H153.041C153.091 277.278 153.142 277.982 153.192 278.687H178.013C178.013 277.982 177.988 277.278 177.937 276.574Z" fill="#58A52C"/>
<path fill-rule="evenodd" clip-rule="evenodd" d="M198.382 238.249C198.834 242.021 199.262 245.768 199.664 249.49H188.423C188.021 245.768 187.593 242.021 187.141 238.249H198.382ZM197.552 239.23H188.272C188.624 242.348 188.976 245.441 189.328 248.509H198.608C198.256 245.441 197.904 242.348 197.552 239.23Z" fill="#58A52C"/>
<path d="M189.48 244.738C189.555 245.115 189.706 245.492 190.008 245.718C190.31 245.945 190.687 246.02 190.989 245.945C192.422 245.869 193.478 245.039 194.535 244.209C196.421 242.625 198.005 240.664 199.363 238.551C197.452 240.01 195.49 241.368 193.478 242.625C192.875 243.002 192.196 243.38 191.441 243.606C191.215 243.681 190.762 243.757 190.611 243.455C190.385 243.078 190.762 242.55 190.385 242.323C190.083 242.097 189.555 242.625 189.404 242.852C189.254 243.304 189.404 244.209 189.48 244.738Z" fill="#58A52C"/>
<path fill-rule="evenodd" clip-rule="evenodd" d="M201.022 257.11C201.475 260.832 201.902 264.579 202.305 268.351H191.064C190.661 264.579 190.234 260.832 189.781 257.11H201.022ZM200.117 258.091H190.837C191.19 261.159 191.542 264.252 191.894 267.37H201.173C200.871 264.252 200.519 261.159 200.117 258.091Z" fill="#58A52C"/>
<path d="M192.045 263.522C192.121 263.9 192.272 264.277 192.573 264.579C192.875 264.805 193.252 264.805 193.63 264.805C194.988 264.654 196.119 263.824 197.1 262.994C198.986 261.41 200.646 259.524 201.928 257.412C200.067 258.82 198.106 260.153 196.044 261.41C195.44 261.863 194.761 262.24 194.082 262.466C193.78 262.542 193.328 262.542 193.177 262.24C192.951 261.863 193.328 261.335 193.026 261.108C192.649 260.882 192.121 261.41 192.045 261.636C191.819 262.165 191.97 262.994 192.045 263.522Z" fill="#58A52C"/>
<path fill-rule="evenodd" clip-rule="evenodd" d="M203.059 273.783C203.512 277.505 203.94 281.252 204.342 285.024H193.101C192.699 281.252 192.271 277.505 191.818 273.783H203.059ZM202.154 274.763H192.875C193.277 277.832 193.629 280.925 193.931 284.043H203.21C202.908 280.925 202.556 277.832 202.154 274.763Z" fill="#58A52C"/>
<path fill-rule="evenodd" clip-rule="evenodd" d="M205.096 291.964C205.599 295.737 206.027 299.484 206.379 303.205H195.138C194.786 299.484 194.358 295.737 193.855 291.964H205.096ZM204.267 292.945H194.987C195.339 296.063 195.691 299.157 196.043 302.225H205.323C204.971 299.157 204.619 296.063 204.267 292.945Z" fill="#58A52C"/>
<g opacity="0.3">
<path d="M150.325 306.45H145.195L127.616 223.462L127.541 223.312H132.596L132.671 223.462L150.325 306.45Z" fill="white"/>
<path d="M174.542 306.45H155.454L137.801 223.462V223.312H156.812L156.888 223.462L174.542 306.45Z" fill="white"/>
</g>
<path opacity="0.2" d="M97.9669 220.369H100.834C98.1933 220.369 96.2318 222.557 96.4581 225.197L104.832 320.784C105.059 323.424 107.397 325.612 110.038 325.612H107.171C104.455 325.612 102.116 323.424 101.89 320.784L93.5158 225.197C93.2895 222.557 95.251 220.369 97.9669 220.369Z" fill="white"/>
<path d="M236.029 349.075H189.254V356.695H282.803V353.602L236.029 349.075Z" fill="#58A52C"/>
<path opacity="0.6" d="M236.029 349.075H189.254V356.695H282.803V353.602L236.029 349.075Z" fill="white"/>
<path opacity="0.6" d="M236.029 356.695H189.254V349.075L236.029 353.602V356.695Z" fill="white"/>
<path d="M359.98 371.557H64.5455C63.1121 371.557 61.9805 370.425 61.9805 368.992V362.579H362.621V368.992C362.621 370.425 361.414 371.557 359.98 371.557Z" fill="#58A52C"/>
<path d="M359.98 371.557H64.5455C63.1121 371.557 61.9805 370.425 61.9805 368.992V362.579H362.621V368.992C362.621 370.425 361.414 371.557 359.98 371.557Z" fill="#3A4C59"/>
<path opacity="0.3" d="M198.08 371.557H64.5455C63.1121 371.557 61.9805 370.425 61.9805 368.992V362.579H198.08V371.557Z" fill="white"/>
<path d="M368.733 364.239H55.8705C54.1353 364.239 52.7773 362.881 52.7773 361.145V359.788C52.7773 358.052 54.1353 356.694 55.8705 356.694H368.733C370.393 356.694 371.826 358.052 371.826 359.788V361.145C371.826 362.881 370.393 364.239 368.733 364.239Z" fill="#2F4250"/>
<path opacity="0.4" d="M198.081 364.239H55.8705C54.1353 364.239 52.7773 362.881 52.7773 361.145V359.788C52.7773 358.052 54.1353 356.694 55.8705 356.694H198.081V364.239Z" fill="white"/>
<path d="M279.334 290.606L270.809 282.76L260.322 283.364C259.115 283.439 258.21 284.646 258.512 285.929L260.247 293.096C260.473 293.926 261.228 294.605 262.133 294.68C265.603 294.831 273.902 295.359 273.902 295.359C273.902 295.359 288.915 313.616 296.459 317.011C304.079 320.482 345.875 303.432 345.875 303.432L340.895 286.608L300.458 303.583L279.334 290.606Z" fill="#FF8B7B"/>
<path d="M327.768 290.682C327.768 290.682 344.214 281.78 351.909 280.573C356.587 279.818 379.22 303.583 334.557 309.845L327.768 290.682Z" fill="#263238"/>
<path d="M329.426 288.117C329.426 288.117 336.065 298.452 336.065 310.674L331.614 311.127C331.614 311.127 330.332 299.509 325.428 290.229L329.426 288.117Z" fill="#58A52C"/>
<path d="M304.38 245.643L299.854 252.734C299.854 252.734 302.192 254.469 305.512 253.262L304.38 245.643Z" fill="#FF5652"/>
<path fill-rule="evenodd" clip-rule="evenodd" d="M303.625 250.094C300.834 250.094 298.57 247.68 298.57 244.737C298.57 241.795 300.834 239.381 303.625 239.381C306.341 239.381 308.604 241.795 308.604 244.737C308.604 247.68 306.341 250.094 303.625 250.094ZM303.625 240.513C301.437 240.513 299.702 242.399 299.702 244.737C299.702 247.076 301.437 248.962 303.625 248.962C305.737 248.962 307.473 247.076 307.473 244.737C307.473 242.399 305.737 240.513 303.625 240.513Z" fill="#263238"/>
<path d="M301.664 244.662C301.664 245.567 302.117 246.321 302.72 246.321C303.324 246.321 303.852 245.567 303.852 244.662C303.776 243.756 303.399 243.002 302.796 243.002C302.192 243.002 301.664 243.756 301.664 244.662Z" fill="#263238"/>
<path d="M304.908 240.512C304.757 240.512 304.606 240.437 304.531 240.361C303.776 239.381 302.569 238.853 301.362 238.928C301.136 238.928 300.909 238.777 300.834 238.475C300.834 238.249 300.985 238.023 301.287 237.947C302.796 237.872 304.304 238.475 305.285 239.682C305.436 239.909 305.361 240.211 305.21 240.361C305.109 240.412 305.009 240.462 304.908 240.512Z" fill="#263238"/>
<path d="M336.97 238.928C337.423 251.075 337.8 256.28 332.293 263.07C323.542 270.237 308.906 271.067 304.907 259.298C301.286 248.66 301.21 230.554 312.602 224.594C320.75 220.294 330.784 223.387 335.084 231.535C336.291 233.798 336.97 236.363 336.97 238.928Z" fill="#FF8B7B"/>
<path d="M319.469 265.182L322.109 283.213L337.198 280.12L332.37 261.561L319.469 265.182Z" fill="#FF8B7B"/>
<path d="M314.942 242.474H299.854L300.608 240.965H314.942V242.474Z" fill="#263238"/>
<path d="M308.68 232.666C311.697 236.966 312.829 242.172 314.187 247.151C315.545 252.206 317.205 257.336 320.977 261.033C322.561 262.541 326.635 263.975 328.898 263.824C334.783 263.296 339.31 252.658 341.12 246.397C343.082 239.682 339.762 236.136 339.762 236.136C329.427 235.835 318.714 235.231 308.68 232.666Z" fill="#263238"/>
<path opacity="0.2" d="M308.68 232.666C311.697 236.966 312.829 242.172 314.187 247.151C315.545 252.206 317.205 257.336 320.977 261.033C322.561 262.541 326.635 263.975 328.898 263.824C334.783 263.296 339.31 252.658 341.12 246.397C343.082 239.682 339.762 236.136 339.762 236.136C329.427 235.835 318.714 235.231 308.68 232.666Z" fill="white"/>
<path d="M311.848 244.36C311.395 246.774 311.999 249.339 313.357 251.376C315.318 254.017 318.336 252.81 319.543 249.943C320.675 247.378 320.976 242.851 318.185 241.192C315.469 239.532 312.451 241.343 311.848 244.36Z" fill="#FF8B7B"/>
<path d="M315.395 276.65C315.395 276.65 320.977 268.426 331.162 269.181C338.027 269.709 344.289 277.404 344.289 277.404L315.395 276.65Z" fill="#1E7BAF"/>
<path d="M320.223 376.309L300.683 283.741C299.778 279.591 302.645 275.819 306.794 275.442C320.147 274.31 347.005 273.254 355.983 281.553C376.956 300.716 376.881 377.818 376.881 377.818L320.223 376.309Z" fill="#58A52C"/>
<path d="M320.223 376.309L300.683 283.741C299.778 279.591 302.645 275.819 306.794 275.442C320.147 274.31 347.005 273.254 355.983 281.553C376.956 300.716 376.881 377.818 376.881 377.818L320.223 376.309Z" fill="#318CBF"/>
<path opacity="0.2" d="M306.719 282.157C306.719 282.157 303.324 283.439 301.061 285.703L308.077 319.803C314.263 305.846 309.133 284.797 309.133 284.797L306.719 282.157Z" fill="black"/>
<path d="M249.609 347.943L242.97 345.077L233.615 347.943L229.314 351.565L238.141 350.81C240.254 352.998 245.308 352.772 245.308 352.847C245.308 352.847 272.619 354.96 290.725 335.571C296.383 329.535 306.266 301.169 306.266 301.169L292.385 294.379L280.314 328.102L249.609 347.943Z" fill="#FF8B7B"/>
<path d="M284.01 310.373C284.01 310.373 290.724 288.871 295.024 282.006C299.325 275.141 306.794 275.442 306.794 275.442C306.794 275.442 314.866 295.133 302.493 320.18L284.01 310.373Z" fill="#58A52C"/>
<path d="M284.01 310.373C284.01 310.373 290.724 288.871 295.024 282.006C299.325 275.141 306.794 275.442 306.794 275.442C306.794 275.442 314.866 295.133 302.493 320.18L284.01 310.373Z" fill="#1E7BAF"/>
<path d="M311.85 514.069L317.583 541.907L328.9 540.248L326.184 513.164L311.85 514.069Z" fill="#FF8B7B"/>
<path opacity="0.2" d="M327.994 530.968L326.184 513.164L311.85 514.069L315.395 531.496L327.994 530.968Z" fill="black"/>
<path d="M378.239 386.721C378.239 386.721 383.671 417.653 363.98 417.653C344.29 417.653 319.243 424.065 319.243 424.065C319.243 424.065 326.787 431.233 328.447 522.519L312.075 523.198C312.075 523.198 284.991 420.218 290.348 408.826C297.892 392.908 336.142 386.721 336.142 386.721H378.239Z" fill="#58A52C"/>
<path d="M378.239 386.721C378.239 386.721 383.671 417.653 363.98 417.653C344.29 417.653 319.243 424.065 319.243 424.065C319.243 424.065 326.787 431.233 328.447 522.519L312.075 523.198C312.075 523.198 284.991 420.218 290.348 408.826C297.892 392.908 336.142 386.721 336.142 386.721H378.239Z" fill="#2C3A40"/>
<path d="M308.604 518.294L330.859 517.766L330.105 526.97L311.47 527.724L308.604 518.294Z" fill="#58A52C"/>
<path d="M308.604 518.294L330.859 517.766L330.105 526.97L311.47 527.724L308.604 518.294Z" fill="#2C3A40"/>
<path fill-rule="evenodd" clip-rule="evenodd" d="M312.451 543.642C311.018 543.793 309.434 543.718 308.906 543.19C308.604 542.813 308.528 542.36 308.755 541.983C308.906 541.606 309.207 541.304 309.585 541.153C311.471 540.398 315.846 542.285 316.073 542.36C316.148 542.36 316.224 542.511 316.224 542.662C316.224 542.737 316.148 542.813 315.997 542.888C314.84 543.24 313.658 543.492 312.451 543.642ZM310.339 541.606C310.138 541.606 309.962 541.631 309.811 541.681C309.585 541.756 309.358 541.983 309.283 542.134C309.132 542.511 309.207 542.737 309.283 542.813C309.962 543.492 312.904 543.114 315.092 542.586C313.583 541.983 311.923 541.606 310.339 541.606Z" fill="#58A52C"/>
<path fill-rule="evenodd" clip-rule="evenodd" d="M315.999 542.888C315.949 542.888 315.899 542.888 315.848 542.888C314.415 542.436 311.246 540.248 311.322 538.89C311.322 538.513 311.548 538.135 312.302 537.909C312.83 537.834 313.434 537.909 313.887 538.211C315.546 539.267 316.225 542.436 316.301 542.587C316.301 542.687 316.251 542.763 316.15 542.813C316.1 542.863 316.049 542.888 315.999 542.888ZM312.529 538.437H312.378C311.85 538.588 311.85 538.739 311.85 538.814C311.85 539.644 313.962 541.455 315.546 542.134C315.245 540.776 314.566 539.569 313.509 538.663C313.208 538.513 312.906 538.437 312.529 538.437Z" fill="#58A52C"/>
<path d="M317.055 541.078L329.881 539.569C330.409 539.493 330.861 539.795 331.012 540.248L334.633 550.432C334.935 551.338 334.483 552.319 333.577 552.62C333.477 552.671 333.351 552.721 333.2 552.771C328.523 553.224 324.373 553.45 318.64 554.129C311.774 554.959 313.66 555.563 305.588 556.694C300.835 557.298 299.251 551.941 301.288 551.413C310.492 549.075 311.171 546.132 314.339 542.36C315.094 541.606 315.999 541.153 317.055 541.078Z" fill="#455A64"/>
<path d="M219.129 505.997L212.264 537.758L223.58 542.662L234.972 511.504L219.129 505.997Z" fill="#FF8B7B"/>
<path opacity="0.2" d="M227.352 532.251L234.972 511.504L219.129 505.997L214.678 526.668L227.352 532.251Z" fill="black"/>
<path d="M376.882 377.819C376.882 377.819 387.067 418.709 351.005 417.652C335.615 417.2 263.416 433.722 263.416 433.722C263.416 433.722 255.871 466.011 232.71 523.046L214.453 518.746C214.453 518.746 231.126 428.064 235.954 416.521C244.555 396.076 321.884 378.196 321.884 378.196L335.162 377.366C348.742 376.461 362.322 376.611 375.826 377.743L376.882 377.819Z" fill="#2C3A40"/>
<path d="M212.264 509.919L238.217 518.369L235.953 528.177L210.906 520.406L212.264 509.919Z" fill="#58A52C"/>
<path d="M212.264 509.919L238.217 518.369L235.953 528.177L210.906 520.406L212.264 509.919Z" fill="#2C3A40"/>
<path fill-rule="evenodd" clip-rule="evenodd" d="M205.474 535.948C203.889 535.344 202.381 534.363 202.079 533.533C202.003 533.005 202.23 532.477 202.682 532.175C202.984 531.949 203.437 531.798 203.889 531.874C206.304 532.1 209.699 536.476 209.849 536.627C209.925 536.777 209.925 536.928 209.849 537.004C209.774 537.155 209.698 537.23 209.548 537.155C208.139 536.903 206.781 536.501 205.474 535.948ZM204.417 532.703C204.216 532.603 204.015 532.553 203.814 532.553C203.588 532.477 203.286 532.553 203.06 532.703C202.682 533.005 202.682 533.232 202.758 533.307C202.984 534.439 206.228 535.721 208.718 536.4C207.511 534.891 206.077 533.609 204.417 532.703Z" fill="#58A52C"/>
<path fill-rule="evenodd" clip-rule="evenodd" d="M209.471 537.154C209.421 537.154 209.396 537.129 209.396 537.079C208.113 535.796 206.152 531.798 206.982 530.44C207.132 530.138 207.585 529.836 208.49 530.062C209.094 530.213 209.622 530.666 209.924 531.27C211.056 533.231 209.999 536.852 209.924 537.003C209.924 537.079 209.848 537.23 209.698 537.23C209.647 537.23 209.572 537.204 209.471 537.154ZM208.415 530.741L208.264 530.666C207.736 530.44 207.585 530.666 207.51 530.741C207.132 531.571 208.264 534.514 209.471 536.098C209.924 534.589 209.848 533.005 209.32 531.496C209.169 531.119 208.792 530.892 208.415 530.741Z" fill="#58A52C"/>
<path d="M211.585 535.872L225.542 541.455C226.07 541.681 226.372 542.209 226.296 542.813L224.259 555.11C224.109 556.242 223.052 556.996 221.921 556.845C221.82 556.795 221.694 556.745 221.544 556.694C216.564 554.582 212.189 552.545 205.927 550.055C198.533 547.113 200.042 548.773 191.291 545.378C186.085 543.416 187.443 537.079 189.782 537.683C200.495 540.399 202.758 537.758 208.115 535.721C209.246 535.344 210.453 535.419 211.585 535.872Z" fill="#455A64"/>
<path d="M403.889 535.947C394.232 534.363 379.974 532.1 373.636 531.647C372.279 531.572 370.468 531.496 368.582 531.421V482.081H356.511V531.421C354.549 531.496 352.814 531.572 351.456 531.647C345.044 532.1 330.785 534.363 321.204 535.947C315.621 536.853 311.547 541.681 311.547 547.264V549.753H323.316L324.9 546.283C324.9 546.283 346.93 542.435 354.323 541.907C358.397 541.606 366.62 541.606 370.77 541.907C378.163 542.435 400.192 546.283 400.192 546.283L401.777 549.753H413.47V547.264C413.47 541.681 409.397 536.853 403.889 535.947Z" fill="#263238"/>
<path d="M403.889 535.947C394.232 534.363 379.974 532.1 373.636 531.647C372.279 531.572 370.468 531.496 368.582 531.421V482.081H356.511V531.421C354.549 531.496 352.814 531.572 351.456 531.647C345.044 532.1 330.785 534.363 321.204 535.947C315.621 536.853 311.547 541.681 311.547 547.264V549.753H323.316L324.9 546.283C324.9 546.283 346.93 542.435 354.323 541.907C358.397 541.606 366.62 541.606 370.77 541.907C378.163 542.435 400.192 546.283 400.192 546.283L401.777 549.753H413.47V547.264C413.47 541.681 409.397 536.853 403.889 535.947Z" fill="#37474F"/>
<path d="M366.619 489.173H358.471C355.378 489.173 352.812 486.683 352.812 483.59V441.87H372.201V483.59C372.201 486.683 369.712 489.173 366.619 489.173Z" fill="#37474F"/>
<path opacity="0.2" d="M352.812 453.337H372.201V441.87H352.812V453.337Z" fill="black"/>
<path d="M416.866 558.052C416.866 562.579 413.169 566.275 408.567 566.275C404.04 566.275 400.344 562.579 400.344 558.052C400.344 553.45 404.04 549.753 408.567 549.753C413.169 549.753 416.866 553.45 416.866 558.052Z" fill="#37474F"/>
<path d="M324.749 558.052C324.749 562.579 321.052 566.275 316.525 566.275C311.923 566.275 308.227 562.579 308.227 558.052C308.227 553.45 311.923 549.753 316.525 549.753C321.052 549.753 324.749 553.45 324.749 558.052Z" fill="#37474F"/>
<path d="M287.254 435.457L352.814 441.87H372.203L429.766 435.382L287.254 435.457Z" fill="#7D8488"/>
<path d="M429.616 421.575C418.073 418.633 406.153 416.973 394.233 416.672C381.936 416.37 335.916 416.596 324.976 416.596C311.698 416.596 298.421 418.256 285.52 421.575C277.372 423.612 279.862 435.306 287.18 435.457C287.858 435.457 426.9 435.457 427.428 435.457C435.123 435.834 437.915 423.688 429.616 421.575Z" fill="#263238"/>
<path d="M429.616 421.575C418.073 418.633 406.153 416.973 394.233 416.672C381.936 416.37 335.916 416.596 324.976 416.596C311.698 416.596 298.421 418.256 285.52 421.575C277.372 423.612 279.862 435.306 287.18 435.457C287.858 435.457 426.9 435.457 427.428 435.457C435.123 435.834 437.915 423.688 429.616 421.575Z" fill="#676F73"/>
<path d="M289.29 435.231C312.602 429.271 337.347 429.271 360.735 435.231C369.562 437.494 373.334 423.839 364.507 421.576C338.705 414.937 311.32 414.937 285.518 421.576C276.691 423.839 280.388 437.494 289.29 435.231Z" fill="#263238"/>
<g opacity="0.4">
<path d="M289.29 435.231C312.602 429.271 337.347 429.271 360.735 435.231C369.562 437.494 373.334 423.839 364.507 421.576C338.705 414.937 311.32 414.937 285.518 421.576C276.691 423.839 280.388 437.494 289.29 435.231Z" fill="#676F73"/>
</g>
<path d="M316.828 383.251C333.074 398.088 349.294 412.925 365.489 427.762C368.884 430.78 373.863 425.801 370.544 422.707C354.298 407.87 338.078 393.033 321.883 378.196C318.488 375.178 313.509 380.158 316.828 383.251Z" fill="#263238"/>
<g opacity="0.5">
<path d="M316.828 383.251C333.074 398.088 349.294 412.925 365.489 427.762C368.884 430.78 373.863 425.801 370.544 422.707C354.298 407.87 338.078 393.033 321.883 378.196C318.488 375.178 313.509 380.158 316.828 383.251Z" fill="#7D8488"/>
</g>
<path opacity="0.2" d="M321.883 378.196C318.488 375.178 313.509 380.158 316.828 383.251C319.946 386.067 323.065 388.909 326.183 391.776H336.67C331.741 387.249 326.812 382.723 321.883 378.196Z" fill="black"/>
<path d="M291.478 385.438C316.374 385.438 333.349 385.438 358.245 385.438C364.28 385.438 364.356 376.008 358.245 376.008C333.349 376.008 316.374 376.008 291.478 376.008C285.367 376.008 285.367 385.438 291.478 385.438Z" fill="#263238"/>
<g opacity="0.3">
<path d="M291.478 385.438C316.374 385.438 333.349 385.438 358.245 385.438C364.28 385.438 364.356 376.008 358.245 376.008C333.349 376.008 316.374 376.008 291.478 376.008C285.367 376.008 285.367 385.438 291.478 385.438Z" fill="#7D8488"/>
</g>
<path d="M396.72 319.35C395.286 319.275 393.853 319.954 392.872 321.614C374.087 352.772 367.448 390.191 373.936 425.951C374.313 428.215 375.822 429.195 377.557 429.346C380.348 429.573 430.895 429.346 432.706 429.346C435.497 429.346 438.515 427.008 437.836 423.462C431.801 390.191 438.439 355.261 455.791 326.367C457.979 322.745 454.811 319.426 451.567 319.35C450.133 319.275 399.964 319.426 396.72 319.35Z" fill="#7D8488"/>
<path d="M378.69 424.292C372.655 391.097 379.294 356.091 396.645 327.197C399.814 321.991 391.666 317.238 388.498 322.444C369.788 353.602 363.149 391.097 369.561 426.781C370.693 432.741 379.746 430.252 378.69 424.292Z" fill="#263238"/>
<g opacity="0.4">
<path d="M378.69 424.292C372.655 391.097 379.294 356.091 396.645 327.197C399.814 321.991 391.666 317.238 388.498 322.444C369.788 353.602 363.149 391.097 369.561 426.781C370.693 432.741 379.746 430.252 378.69 424.292Z" fill="#676F73"/>
</g>
<path d="M271.184 298.151H258.811C257.453 298.151 256.246 297.019 256.095 295.661L254.058 266.088C253.983 264.654 255.039 263.522 256.397 263.522H268.77C270.203 263.522 271.41 264.654 271.486 266.088L273.523 295.661C273.674 297.019 272.617 298.151 271.184 298.151Z" fill="#455A64"/>
<path d="M271.865 298.076H259.417C258.059 298.076 256.852 296.944 256.776 295.586L254.664 265.937C254.589 264.579 255.645 263.447 257.003 263.447H269.375C270.809 263.447 272.016 264.579 272.091 265.937L274.204 295.586C274.279 296.944 273.223 298.076 271.865 298.076Z" fill="#263238"/>
<path d="M269.374 264.202H266.281C266.055 264.202 265.904 264.353 265.904 264.503V264.654C265.904 265.107 265.451 265.484 264.998 265.484H262.056C261.603 265.484 261.151 265.107 261 264.654V264.503C261 264.353 260.773 264.202 260.623 264.202H257.529C256.473 264.202 255.719 265.032 255.794 266.012L257.756 294.379C257.831 295.36 258.737 296.265 259.717 296.265H271.637C272.618 296.265 273.372 295.36 273.297 294.379L271.336 266.012C271.26 265.032 270.355 264.202 269.374 264.202Z" fill="#58A52C"/>
<path opacity="0.5" d="M269.374 264.202H266.281C266.055 264.202 265.904 264.353 265.904 264.503V264.654C265.904 265.107 265.451 265.484 264.998 265.484H262.056C261.603 265.484 261.151 265.107 261 264.654V264.503C261 264.353 260.773 264.202 260.623 264.202H257.529C256.473 264.202 255.719 265.032 255.794 266.012L257.756 294.379C257.831 295.36 258.737 296.265 259.717 296.265H271.637C272.618 296.265 273.372 295.36 273.297 294.379L271.336 266.012C271.26 265.032 270.355 264.202 269.374 264.202Z" fill="white"/>
<path opacity="0.2" d="M269.149 290.833H261.454C260.549 290.833 259.794 290.154 259.719 289.248C259.719 288.418 260.322 287.664 261.228 287.664H268.923C269.828 287.664 270.583 288.418 270.658 289.248C270.658 290.154 270.054 290.833 269.149 290.833Z" fill="black"/>
<g opacity="0.7">
<path d="M262.734 264.503C262.734 264.654 262.658 264.73 262.508 264.73C262.357 264.73 262.281 264.654 262.281 264.503C262.281 264.352 262.357 264.277 262.508 264.277C262.658 264.277 262.734 264.352 262.734 264.503Z" fill="black"/>
<path d="M264.394 264.277C264.319 264.277 263.715 264.277 263.564 264.277C263.489 264.277 263.338 264.352 263.338 264.503C263.413 264.654 263.489 264.73 263.64 264.73C263.715 264.73 264.319 264.73 264.394 264.73C264.545 264.73 264.62 264.654 264.62 264.503C264.62 264.352 264.545 264.277 264.394 264.277Z" fill="black"/>
</g>
<path d="M257 265.484H257.302V265.258H257V265.484Z" fill="#58A52C"/>
<path d="M257.529 265.258V265.484H257.756V265.258V264.956H257.529V265.258Z" fill="#58A52C"/>
<path d="M257.982 264.729V264.956V265.258L258.058 265.484H258.284V265.258L258.209 264.956V264.729H257.982Z" fill="#58A52C"/>
<path fill-rule="evenodd" clip-rule="evenodd" d="M269.826 264.729V265.484H268.77V265.333H268.619V264.956H268.695V264.729H269.826ZM269.223 264.956H268.845L268.921 265.333H269.223V264.956Z" fill="#58A52C"/>
<path opacity="0.2" d="M268.016 277.706H260.321C259.416 277.706 258.661 277.027 258.586 276.121C258.51 275.292 259.189 274.537 260.095 274.537H267.79C268.695 274.537 269.45 275.292 269.45 276.121C269.525 277.027 268.922 277.706 268.016 277.706Z" fill="black"/>
<path d="M268.695 276.725H267.488L267.412 275.518H268.619L268.695 276.725Z" fill="#E0E0E0"/>
<path d="M267.864 276.197C267.789 276.197 267.789 276.197 267.713 276.197C267.713 276.121 267.789 276.046 267.713 276.046C267.713 276.046 267.638 276.046 267.638 276.121C267.562 276.121 267.563 276.272 267.563 276.348C267.563 276.398 267.588 276.423 267.638 276.423C267.638 276.473 267.663 276.499 267.713 276.499C267.94 276.499 268.091 276.348 268.241 276.272C268.493 276.071 268.719 275.845 268.92 275.593" fill="#58A52C"/>
<path d="M261.454 276.121C261.529 276.876 260.925 277.479 260.246 277.479C259.492 277.479 258.888 276.876 258.813 276.121C258.738 275.367 259.341 274.839 260.02 274.839C260.775 274.839 261.378 275.367 261.454 276.121Z" fill="#58A52C"/>
<path fill-rule="evenodd" clip-rule="evenodd" d="M260.774 276.574C260.774 276.725 260.623 276.801 260.472 276.801C260.397 276.876 259.869 276.876 259.718 276.801C259.567 276.801 259.491 276.65 259.491 276.499C259.416 276.423 259.416 275.895 259.416 275.744C259.416 275.669 259.567 275.518 259.718 275.518C259.919 275.518 260.145 275.518 260.397 275.518C260.447 275.518 260.523 275.543 260.623 275.593C260.673 275.644 260.724 275.719 260.774 275.82C260.774 275.971 260.774 276.423 260.774 276.574ZM260.623 275.82C260.623 275.744 260.548 275.669 260.397 275.593C260.196 275.593 259.969 275.593 259.718 275.593C259.642 275.669 259.567 275.744 259.567 275.82C259.567 276.071 259.567 276.298 259.567 276.499C259.617 276.599 259.693 276.675 259.793 276.725C259.869 276.725 260.321 276.725 260.472 276.725C260.548 276.725 260.623 276.65 260.623 276.499C260.673 276.298 260.673 276.071 260.623 275.82ZM260.095 275.82C260.246 275.82 260.397 275.971 260.472 276.197C260.472 276.348 260.321 276.499 260.095 276.499C259.944 276.499 259.793 276.348 259.718 276.197C259.718 276.147 259.718 276.122 259.718 276.122C259.718 275.971 259.869 275.82 260.095 275.82ZM260.095 276.423C260.246 276.423 260.321 276.272 260.321 276.197C260.321 276.046 260.246 275.971 260.095 275.971C259.944 275.971 259.869 276.046 259.869 276.197C259.869 276.272 260.02 276.423 260.095 276.423ZM260.548 275.82C260.548 275.87 260.523 275.895 260.472 275.895C260.422 275.895 260.372 275.87 260.321 275.82C260.321 275.77 260.346 275.744 260.397 275.744C260.447 275.744 260.497 275.77 260.548 275.82Z" fill="white"/>
<path opacity="0.2" d="M267.715 273.556H260.02C259.114 273.556 258.36 272.877 258.36 271.972C258.284 271.067 258.888 270.388 259.793 270.388H267.564C268.394 270.388 269.148 271.067 269.224 271.972C269.299 272.877 268.62 273.556 267.715 273.556Z" fill="black"/>
<path d="M268.393 272.576H267.261L267.186 271.369H268.317L268.393 272.576Z" fill="#E0E0E0"/>
<path d="M261.15 271.972C261.226 272.727 260.698 273.255 259.943 273.255C259.189 273.255 258.585 272.727 258.51 271.972C258.51 271.218 259.038 270.614 259.792 270.614C260.471 270.614 261.15 271.218 261.15 271.972Z" fill="#58A52C"/>
<path d="M260.472 272.802H259.265L259.189 271.218H260.321L260.472 272.802Z" fill="white"/>
<path d="M260.17 271.746H259.416V271.67H260.17V271.746Z" fill="#58A52C"/>
<path d="M260.246 272.048H259.416V271.972H260.17L260.246 272.048Z" fill="#58A52C"/>
<path d="M260.245 272.349H259.49V272.274H260.245V272.349Z" fill="#58A52C"/>
<path d="M262.66 289.249C262.735 290.003 262.132 290.607 261.377 290.607C260.623 290.607 259.944 290.003 259.944 289.249C259.868 288.494 260.472 287.891 261.226 287.891C261.981 287.891 262.66 288.494 262.66 289.249Z" fill="#58A52C"/>
<path d="M269.827 289.852H268.62L268.545 288.645H269.752L269.827 289.852Z" fill="#E0E0E0"/>
<path d="M268.695 289.399C268.695 289.45 268.695 289.5 268.695 289.55C268.746 289.601 268.796 289.601 268.846 289.55C268.997 289.55 269.148 289.475 269.299 289.399C269.55 289.198 269.802 288.947 270.053 288.645C269.752 288.846 269.475 289.022 269.223 289.173C269.123 289.223 269.022 289.274 268.922 289.324C268.922 289.324 268.846 289.324 268.846 289.249V289.173C268.846 289.098 268.695 289.173 268.695 289.173C268.695 289.249 268.695 289.399 268.695 289.399Z" fill="#58A52C"/>
<path fill-rule="evenodd" clip-rule="evenodd" d="M260.85 289.777C260.8 289.777 260.749 289.752 260.699 289.701C260.624 289.55 260.624 289.022 260.699 288.871C260.699 288.871 260.724 288.846 260.775 288.796C261.076 288.796 261.831 288.796 261.906 288.871C261.957 288.871 262.007 288.896 262.057 288.947C262.133 289.098 262.133 289.55 262.057 289.701C262.057 289.752 262.032 289.777 261.982 289.777C261.906 289.852 260.925 289.852 260.85 289.777ZM261.076 289.701L261.755 289.324L261.076 288.947C261.076 289.198 261.076 289.45 261.076 289.701Z" fill="white"/>
<path opacity="0.2" d="M268.77 286.457H261.075C260.17 286.457 259.415 285.778 259.34 284.873C259.34 284.043 259.943 283.289 260.849 283.289H268.544C269.449 283.289 270.204 284.043 270.279 284.873C270.279 285.778 269.676 286.457 268.77 286.457Z" fill="black"/>
<path d="M269.451 285.476H268.319L268.168 284.269H269.375L269.451 285.476Z" fill="#E0E0E0"/>
<path d="M268.316 285.099C268.316 285.149 268.342 285.2 268.392 285.25C268.442 285.25 268.467 285.25 268.467 285.25C268.694 285.25 268.845 285.175 268.995 285.024C269.247 284.823 269.473 284.596 269.674 284.345C269.423 284.546 269.146 284.722 268.844 284.873C268.794 284.923 268.719 284.948 268.618 284.948C268.543 284.948 268.543 284.948 268.467 284.948C268.467 284.873 268.543 284.797 268.467 284.797L268.392 284.873C268.316 284.948 268.316 285.024 268.316 285.099Z" fill="#58A52C"/>
<path d="M262.206 284.873C262.282 285.627 261.678 286.231 260.999 286.231C260.245 286.231 259.641 285.627 259.566 284.873C259.49 284.194 260.018 283.59 260.773 283.59C261.527 283.59 262.131 284.194 262.206 284.873Z" fill="#58A52C"/>
<path d="M261.076 284.496C261.127 284.496 261.152 284.496 261.152 284.496H261.227V284.269C261.177 284.269 261.152 284.269 261.152 284.269C261.101 284.269 261.051 284.269 261.001 284.269C260.9 284.219 260.825 284.219 260.774 284.269C260.724 284.319 260.699 284.395 260.699 284.496C260.699 284.546 260.699 284.571 260.699 284.571C260.699 284.621 260.699 284.697 260.699 284.797H260.473V285.024H260.699L260.774 285.703H261.001V285.024H261.227C261.227 284.973 261.227 284.898 261.227 284.797H260.925C260.925 284.797 260.925 284.646 260.925 284.571C260.925 284.521 260.976 284.496 261.076 284.496Z" fill="white"/>
<path opacity="0.2" d="M268.393 282.082H260.698C259.793 282.082 259.038 281.403 258.963 280.497C258.887 279.667 259.566 278.913 260.472 278.913H268.167C269.072 278.913 269.827 279.667 269.902 280.497C269.902 281.403 269.298 282.082 268.393 282.082Z" fill="black"/>
<path d="M269.072 281.025H267.865L267.789 279.894H268.996L269.072 281.025Z" fill="#E0E0E0"/>
<path d="M267.939 280.648C267.939 280.698 267.965 280.749 268.015 280.799C268.015 280.799 268.04 280.799 268.09 280.799C268.317 280.799 268.468 280.723 268.543 280.573C268.845 280.422 269.096 280.195 269.297 279.894C269.046 280.095 268.769 280.271 268.468 280.422C268.417 280.472 268.342 280.522 268.241 280.573C268.166 280.573 268.166 280.573 268.09 280.497C268.09 280.497 268.166 280.422 268.09 280.346L268.015 280.422C267.939 280.497 267.939 280.573 267.939 280.648Z" fill="#58A52C"/>
<path d="M261.829 280.497C261.905 281.176 261.301 281.78 260.622 281.78C259.868 281.78 259.189 281.176 259.189 280.497C259.113 279.743 259.641 279.139 260.396 279.139C261.15 279.139 261.754 279.743 261.829 280.497Z" fill="#58A52C"/>
<path d="M260.321 280.799C260.17 280.799 260.094 280.724 260.019 280.648C260.069 280.648 260.119 280.648 260.17 280.648C260.069 280.598 260.019 280.548 260.019 280.497C259.969 280.447 259.943 280.397 259.943 280.346C259.994 280.397 260.019 280.422 260.019 280.422C259.969 280.372 259.943 280.321 259.943 280.271C259.943 280.17 259.943 280.095 259.943 280.045C260.094 280.196 260.321 280.346 260.471 280.346C260.471 280.346 260.471 280.321 260.471 280.271C260.471 280.221 260.497 280.17 260.547 280.12C260.547 280.07 260.597 280.045 260.698 280.045C260.798 279.994 260.874 280.02 260.924 280.12C260.974 280.07 261.025 280.045 261.075 280.045C261.075 280.095 261.05 280.145 261 280.196C261.05 280.145 261.1 280.12 261.15 280.12C261.15 280.12 261.125 280.145 261.075 280.196C261.075 280.196 261.05 280.221 261 280.271C261 280.321 261 280.346 261 280.346C261 280.447 261 280.522 261 280.573C260.949 280.673 260.899 280.749 260.849 280.799C260.748 280.9 260.622 280.975 260.471 281.025C260.421 281.025 260.371 281.025 260.321 281.025C260.17 281.025 260.044 281 259.943 280.95V280.875C260.044 280.925 260.119 280.925 260.17 280.875C260.22 280.875 260.27 280.849 260.321 280.799Z" fill="white"/>
<path opacity="0.2" d="M269.526 295.209H261.831C260.926 295.209 260.171 294.454 260.096 293.624C260.096 292.719 260.699 292.04 261.605 292.04H269.3C270.205 292.04 270.959 292.719 271.035 293.624C271.035 294.454 270.431 295.209 269.526 295.209Z" fill="black"/>
<path d="M270.204 294.152H269.073L268.922 293.021H270.129L270.204 294.152Z" fill="#E0E0E0"/>
<path d="M269.072 293.775C269.072 293.825 269.097 293.876 269.148 293.926C269.198 293.976 269.223 293.976 269.223 293.926C269.449 293.926 269.6 293.85 269.751 293.775C270.003 293.574 270.229 293.322 270.43 293.021C270.179 293.222 269.902 293.398 269.6 293.549C269.55 293.599 269.475 293.649 269.374 293.699C269.299 293.699 269.299 293.7 269.299 293.624C269.223 293.624 269.299 293.549 269.299 293.473C269.223 293.473 269.148 293.549 269.148 293.549C269.072 293.624 269.072 293.775 269.072 293.775Z" fill="#58A52C"/>
<path d="M262.961 293.624C263.036 294.303 262.508 294.907 261.754 294.907C260.999 294.907 260.396 294.303 260.32 293.624C260.32 292.87 260.848 292.266 261.603 292.266C262.282 292.266 262.961 292.87 262.961 293.624Z" fill="#58A52C"/>
<path d="M262.359 293.322L262.435 294.001H261.001L260.926 293.322L261.68 293.775L262.359 293.322Z" fill="white"/>
<path d="M262.359 293.247L261.68 293.7L260.926 293.247H262.359Z" fill="white"/>
<path d="M269.902 266.389C269.902 266.54 269.826 266.616 269.676 266.616C269.525 266.616 269.449 266.54 269.449 266.389C269.449 266.239 269.525 266.163 269.6 266.163C269.751 266.163 269.902 266.239 269.902 266.389Z" fill="#58A52C"/>
<path d="M269.902 266.918C269.902 267.069 269.826 267.22 269.676 267.22C269.6 267.22 269.449 267.069 269.449 266.918C269.449 266.842 269.525 266.691 269.676 266.691C269.826 266.691 269.902 266.842 269.902 266.918Z" fill="#58A52C"/>
<path d="M269.978 267.521C269.978 267.672 269.903 267.747 269.752 267.747C269.601 267.747 269.525 267.672 269.525 267.521C269.525 267.37 269.601 267.294 269.752 267.294C269.827 267.294 269.978 267.37 269.978 267.521Z" fill="#58A52C"/>
<path d="M257.607 266.993H256.399C256.324 266.993 256.324 266.993 256.324 266.918C256.274 266.867 256.299 266.842 256.399 266.842H257.531C257.607 266.842 257.607 266.842 257.682 266.918C257.682 266.968 257.657 266.993 257.607 266.993Z" fill="#58A52C"/>
<path d="M256.699 267.521C256.699 267.521 256.674 267.496 256.624 267.446L256.096 266.918L256.548 266.39C256.599 266.39 256.649 266.39 256.699 266.39C256.75 266.44 256.75 266.49 256.699 266.541L256.322 266.918L256.775 267.37C256.825 267.421 256.825 267.471 256.775 267.521C256.775 267.521 256.75 267.521 256.699 267.521Z" fill="#58A52C"/>
<path opacity="0.2" d="M269.375 264.202L257.756 294.379L255.795 266.088C255.795 265.887 255.795 265.711 255.795 265.56C256.021 264.805 256.7 264.202 257.53 264.202H260.774C260.925 264.277 261 264.428 261 264.503V264.654C261.151 265.107 261.604 265.484 262.057 265.484H264.999C265.452 265.484 265.904 265.107 265.904 264.654V264.503C265.904 264.428 265.98 264.277 266.131 264.202H269.375Z" fill="white"/>
<path d="M345.42 239.305C340.969 243.681 344.59 254.922 314.866 238.702C313.583 236.967 312.452 235.232 312.074 233.119C311.924 234.854 311.622 236.665 312.376 238.249C311.094 238.023 308.83 237.797 307.623 237.646C307.246 235.986 306.869 232.44 306.492 230.78C306.114 233.27 305.813 234.779 305.435 237.193C302.569 237.419 299.4 236.816 296.91 235.307C296.533 231.007 297.816 226.48 300.532 223.085C303.248 219.766 308.151 216.748 312.452 216.295C319.543 215.541 327.842 215.164 333.877 219.011C339.988 222.859 344.515 232.138 345.42 239.305Z" fill="#263238"/>
</g>
<defs>
<clipPath id="clip0_432_20822">
<rect width="656" height="596" fill="white"/>
</clipPath>
</defs>
</svg>
