<svg width="764" height="596" viewBox="0 0 764 596" fill="none" xmlns="http://www.w3.org/2000/svg">
<g clip-path="url(#clip0_432_17418)">
<path d="M636.141 542.582H686.659V542.963H636.141V542.582Z" fill="#EBEBEB"/>
<path d="M492.291 546.702H505.493V547.084H492.291V546.702Z" fill="#EBEBEB"/>
<path d="M605.309 528.387H634.613V528.769H605.309V528.387Z" fill="#EBEBEB"/>
<path d="M80.0527 530.982H145.987V531.363H80.0527V530.982Z" fill="#EBEBEB"/>
<path d="M159.568 530.982H169.26V531.363H159.568V530.982Z" fill="#EBEBEB"/>
<path d="M200.625 537.392H343.634V537.774H200.625V537.392Z" fill="#EBEBEB"/>
<path fill-rule="evenodd" clip-rule="evenodd" d="M363.858 449.938H69.1391C64.3314 449.938 60.4395 446.046 60.4395 441.238V26.9384C60.4395 22.1307 64.3314 18.2388 69.1391 18.2388H363.858C368.665 18.2388 372.557 22.1307 372.557 26.9384V441.238C372.557 446.046 368.665 449.938 363.858 449.938ZM69.1391 18.6203C64.5603 18.6203 60.821 22.3596 60.821 26.9384V441.238C60.821 445.817 64.5603 449.557 69.1391 449.557H363.858C368.436 449.557 372.176 445.817 372.176 441.238V26.9384C372.176 22.3596 368.436 18.6203 363.858 18.6203H69.1391Z" fill="#EBEBEB"/>
<path fill-rule="evenodd" clip-rule="evenodd" d="M693.985 449.938H399.266C394.458 449.938 390.566 446.046 390.566 441.238V26.9384C390.566 22.1307 394.458 18.2388 399.266 18.2388H693.985C698.792 18.2388 702.684 22.1307 702.684 26.9384V441.238C702.684 446.046 698.792 449.938 693.985 449.938ZM399.266 18.6203C394.687 18.6203 390.948 22.3596 390.948 26.9384V441.238C390.948 445.817 394.687 449.557 399.266 449.557H693.985C698.563 449.557 702.303 445.817 702.303 441.238V26.9384C702.303 22.3596 698.563 18.6203 693.985 18.6203H399.266Z" fill="#EBEBEB"/>
<path d="M763.124 518.39H0V518.009H763.124V518.39Z" fill="#EBEBEB"/>
<path d="M81.502 211.538H249.16V517.78H81.502V211.538Z" fill="#EBEBEB"/>
<path d="M106.074 174.069H224.587V194.368H106.074V174.069Z" fill="#F0F0F0"/>
<path d="M90.125 218.94H240.537V517.78H90.125V218.94Z" fill="#FAFAFA"/>
<path d="M240.537 392.17H90.125V354.09H240.537V392.17Z" fill="#F0F0F0"/>
<path d="M240.537 518.238H90.125V480.158H240.537V518.238Z" fill="#F0F0F0"/>
<path d="M230.464 387.362V357.371C230.464 355.845 229.166 354.548 227.64 354.548C227.589 354.548 227.564 354.548 227.564 354.548C225.961 354.548 224.664 355.845 224.664 357.371V387.362C224.664 388.965 225.961 390.262 227.564 390.262C229.167 390.262 230.464 388.965 230.464 387.362Z" fill="white"/>
<path d="M128.052 349.511H101.877V223.672H128.052V349.511Z" fill="#E0E0E0"/>
<path d="M104.473 226.496H125.611V346.688H104.473V226.496Z" fill="#EBEBEB"/>
<path d="M125.611 243.437L104.473 251.755V272.13L125.611 263.812V243.437Z" fill="#F5F5F5"/>
<path d="M125.611 268.009L104.473 276.251V284.035L125.611 275.793V268.009Z" fill="#F5F5F5"/>
<path d="M125.611 310.363L104.473 318.605V326.465L125.611 318.147V310.363Z" fill="#F5F5F5"/>
<path d="M591.269 99.2828C591.269 102.717 589.896 105.922 587.606 108.211C585.317 110.501 582.112 111.951 578.601 111.951H485.348C478.327 111.951 472.68 106.227 472.68 99.2828C472.68 95.7724 474.13 92.5673 476.419 90.2779C478.708 87.9885 481.837 86.5386 485.348 86.5386H578.601C585.622 86.5386 591.269 92.262 591.269 99.2828Z" fill="#F5F5F5"/>
<path d="M553.648 88.3701V110.195H486.188C480.159 110.195 475.275 105.311 475.275 99.2828C475.275 96.3066 476.496 93.5594 478.481 91.5752C480.465 89.5911 483.136 88.3701 486.188 88.3701H553.648Z" fill="#E6E6E6"/>
<path d="M479.777 154.456C479.777 163.919 472.451 171.703 463.064 172.237C462.759 172.237 415.369 172.237 414.911 172.237C405.677 171.55 398.428 163.843 398.428 154.456C398.428 145.146 405.601 137.515 414.682 136.752C415.369 123.321 426.511 112.713 440.094 112.713C453.754 112.713 464.972 123.473 465.506 137.057C473.672 138.66 479.777 145.833 479.777 154.456Z" fill="#F5F5F5"/>
<path d="M455.586 198.717L439.713 214.667L423.764 198.717H430.021V172.466H450.32V198.717H455.586Z" fill="#E6E6E6"/>
<path fill-rule="evenodd" clip-rule="evenodd" d="M642.931 358.592L648.578 363.629L644.991 369.81L637.818 367.368C634.842 370.573 630.95 372.862 626.6 373.854L625.15 381.333H617.977L616.451 373.854C612.101 372.862 608.209 370.573 605.233 367.368L598.059 369.81L594.473 363.629L600.12 358.592C599.509 356.532 599.204 354.395 599.204 352.105C599.204 349.892 599.509 347.679 600.12 345.619L594.473 340.659L598.059 334.401L605.233 336.843C608.209 333.638 612.101 331.348 616.451 330.356L617.977 322.954H625.15L626.6 330.356C630.95 331.348 634.842 333.638 637.818 336.843L644.991 334.401L648.578 340.659L642.931 345.619C643.542 347.679 643.847 349.892 643.847 352.105C643.847 354.395 643.542 356.532 642.931 358.592ZM633.163 352.563C633.163 346.153 627.974 340.964 621.564 340.964C615.153 340.964 609.888 346.153 609.888 352.563C609.888 358.974 615.153 364.163 621.564 364.163C627.974 364.163 633.163 358.974 633.163 352.563Z" fill="#E0E0E0"/>
<path fill-rule="evenodd" clip-rule="evenodd" d="M676.661 376.831L681.927 378.662L681.164 383.851L675.593 384.157C674.448 387.133 672.464 389.727 669.793 391.635L670.785 397.053L665.901 399.038L662.849 394.382C659.644 394.917 656.362 394.382 653.462 393.009L649.265 396.672L645.144 393.39L647.663 388.43C646.696 387.209 645.882 385.835 645.221 384.309C644.61 382.783 644.229 381.257 644.152 379.654L638.887 377.823L639.65 372.633L645.144 372.328C646.365 369.352 648.349 366.757 651.02 364.85L650.028 359.431L654.912 357.447L657.888 362.102C661.17 361.568 664.451 362.102 667.275 363.476L671.548 359.813L675.669 363.094L673.151 368.055C674.143 369.276 674.906 370.649 675.593 372.176C676.203 373.702 676.56 375.253 676.661 376.831ZM668.42 375.381C666.664 371.031 661.704 368.894 657.354 370.649C653.005 372.404 650.868 377.365 652.623 381.715C654.378 386.064 659.338 388.201 663.688 386.446C668.038 384.691 670.175 379.73 668.42 375.381Z" fill="#EBEBEB"/>
<path d="M593.254 261.37L682.234 261.828L682.616 185.134L593.635 184.676L593.254 261.37Z" fill="#E0E0E0"/>
<path d="M593.635 184.676L682.615 185.134L682.691 170.711L593.711 170.253L593.635 184.676Z" fill="#E6E6E6"/>
<path d="M590.658 259.234L679.638 259.691L682.615 185.134L593.634 184.676L590.658 259.234Z" fill="#F5F5F5"/>
<path d="M613.477 203.068L657.509 203.297L658.043 190.171L613.934 189.942L613.477 203.068Z" fill="#EBEBEB"/>
<path d="M664.225 220.315L675.977 220.391L676.435 208.562H664.682L664.225 220.315Z" fill="#E0E0E0"/>
<path d="M647.512 220.238H659.264L659.722 208.486L647.97 208.41L647.512 220.238Z" fill="#E0E0E0"/>
<path d="M663.537 236.187H675.366L675.823 224.435L664.071 224.359L663.537 236.187Z" fill="#E0E0E0"/>
<path d="M662.926 251.984L674.678 252.06L675.136 240.308L663.384 240.232L662.926 251.984Z" fill="#EBEBEB"/>
<path d="M646.9 236.034L658.652 236.111L659.11 224.359L647.358 224.282L646.9 236.034Z" fill="#E0E0E0"/>
<path d="M630.189 235.959L641.942 236.035L642.476 224.283L630.647 224.207L630.189 235.959Z" fill="#E0E0E0"/>
<path d="M613.553 235.882L625.305 235.958L625.763 224.206L614.011 224.13L613.553 235.882Z" fill="#E0E0E0"/>
<path d="M596.84 235.806L608.592 235.882L609.05 224.13L597.298 224.054L596.84 235.806Z" fill="#E0E0E0"/>
<path d="M646.215 251.908L658.043 251.984L658.501 240.232L646.749 240.156L646.215 251.908Z" fill="#EBEBEB"/>
<path d="M629.578 251.831L641.33 251.908L641.788 240.155L630.036 240.079L629.578 251.831Z" fill="#EBEBEB"/>
<path d="M612.865 251.755L624.617 251.831L625.152 240.079L613.323 240.003L612.865 251.755Z" fill="#E0E0E0"/>
<path d="M630.875 220.085L642.627 220.161L643.085 208.409L631.333 208.333L630.875 220.085Z" fill="#EBEBEB"/>
<path d="M614.162 220.009L625.914 220.085L626.372 208.333L614.62 208.257L614.162 220.009Z" fill="#EBEBEB"/>
<path d="M597.451 219.933L609.203 220.009L609.737 208.257L597.909 208.181L597.451 219.933Z" fill="#EBEBEB"/>
<path d="M596.23 251.678L607.983 251.755L608.44 240.003L596.688 239.926L596.23 251.678Z" fill="#E0E0E0"/>
<path fill-rule="evenodd" clip-rule="evenodd" d="M643.083 171.703C643.083 174.603 640.794 176.893 637.97 176.893C635.071 176.893 632.781 174.603 632.781 171.703C632.781 168.88 635.071 166.59 637.97 166.59C640.794 166.59 643.083 168.88 643.083 171.703ZM641.862 171.703C641.862 169.567 640.107 167.811 637.97 167.811C635.757 167.811 634.002 169.567 634.002 171.703C634.002 173.916 635.757 175.672 637.97 175.672C640.107 175.672 641.862 173.916 641.862 171.703Z" fill="#E6E6E6"/>
<path d="M677.5 568.833C677.5 578.372 545.022 586.079 381.561 586.079C218.099 586.079 85.6211 578.372 85.6211 568.833C85.6211 559.294 218.099 551.51 381.561 551.51C545.022 551.51 677.5 559.294 677.5 568.833Z" fill="#F5F5F5"/>
<path d="M498.626 284.95L482.371 285.79L476.19 280.524C475.503 279.914 474.588 279.532 473.672 279.532L467.872 279.379C466.651 279.379 465.43 279.914 464.591 280.982L462.988 283.042C462.378 283.729 462.072 284.645 462.072 285.561V288.232C462.072 289.834 463.064 291.36 464.514 291.971L473.595 295.939C474.282 296.244 475.122 296.397 475.885 296.244L482.829 295.176L502.136 296.244L498.626 284.95Z" fill="#B25B52"/>
<path d="M492.825 294.947C492.902 296.855 494.275 298.458 496.107 298.763C501.067 299.602 510.759 300.289 519.153 295.329C531.211 288.308 528.616 247.862 526.098 237.179C523.35 225.35 523.045 216.803 523.045 216.803C515.795 218.177 507.096 225.274 506.638 239.086C506.256 252.823 509.614 274.953 508.927 278.616C508.546 280.906 500.838 281.669 495.344 281.821C492.825 281.974 490.994 284.34 491.681 286.782C492.291 288.995 492.825 291.818 492.825 294.947Z" fill="#263238"/>
<path d="M492.825 294.947C492.902 296.855 494.275 298.458 496.107 298.763C501.067 299.602 510.759 300.289 519.153 295.329C531.211 288.308 528.616 247.862 526.098 237.179C523.35 225.35 523.045 216.803 523.045 216.803C517.093 217.566 507.096 225.274 506.638 239.086C506.256 252.823 509.614 274.953 508.927 278.616C508.546 280.906 500.838 281.669 495.344 281.821C492.825 281.974 490.994 284.34 491.681 286.782C492.291 288.995 492.825 291.818 492.825 294.947Z" fill="#2F4B53"/>
<path d="M530.905 562.193H519.306L518.848 535.408H530.371L530.905 562.193Z" fill="#B25B52"/>
<path d="M519.459 560.896H532.05C532.585 560.82 532.966 561.201 533.042 561.659L535.103 571.885C535.256 572.877 534.645 573.793 533.653 573.945C533.551 573.945 533.449 573.945 533.348 573.945C528.769 573.869 522.206 573.64 516.483 573.64C509.767 573.64 509.233 573.945 501.373 573.945C496.641 573.945 495.42 569.214 497.405 568.756C506.562 566.772 508.699 566.543 516.635 561.735C517.475 561.201 518.467 560.896 519.459 560.896Z" fill="#455A64"/>
<path opacity="0.2" d="M518.848 535.408L519.077 549.22H530.676L530.371 535.408H518.848Z" fill="black"/>
<path fill-rule="evenodd" clip-rule="evenodd" d="M514.269 560.896C513.353 560.973 512.361 560.744 511.522 560.209C511.14 559.828 510.988 559.37 511.064 558.836C511.064 558.531 511.217 558.302 511.522 558.149C512.895 557.386 517.474 559.675 517.932 559.98C518.085 560.057 518.161 560.209 518.085 560.362C518.034 560.413 517.958 560.438 517.856 560.438C516.686 560.693 515.49 560.845 514.269 560.896ZM512.361 558.531C512.158 558.531 511.98 558.556 511.827 558.607C511.751 558.683 511.674 558.76 511.674 558.912C511.598 559.217 511.751 559.599 511.98 559.752C512.667 560.438 514.498 560.515 517.016 560.057C515.566 559.294 513.964 558.76 512.361 558.531Z" fill="#58A52C"/>
<path fill-rule="evenodd" clip-rule="evenodd" d="M517.855 560.514H517.779C516.405 559.828 513.734 557.386 513.963 556.088C513.963 555.783 514.268 555.402 515.031 555.325C515.566 555.325 516.1 555.478 516.481 555.783C517.855 557.004 518.16 560.057 518.16 560.209C518.16 560.311 518.135 560.387 518.084 560.438C517.982 560.489 517.906 560.514 517.855 560.514ZM515.184 555.936H515.031C514.497 555.936 514.497 556.165 514.497 556.241C514.345 557.004 516.1 558.912 517.55 559.751C517.397 558.454 516.939 557.233 516.1 556.241C515.871 556.012 515.489 555.936 515.184 555.936Z" fill="#58A52C"/>
<path d="M615.534 554.639L604.469 558.073L595.998 532.661L607.063 529.15L615.534 554.639Z" fill="#B25B52"/>
<path d="M604.164 556.776L616.222 552.96C616.679 552.807 617.214 553.036 617.443 553.418L622.403 562.652C622.861 563.491 622.556 564.559 621.716 565.017C621.614 565.068 621.513 565.094 621.411 565.094C616.985 566.391 610.651 568.07 605.156 569.825C598.746 571.809 598.364 572.343 590.886 574.633C586.307 576.083 583.789 571.885 585.544 570.817C593.633 566.238 595.617 565.399 601.722 558.378C602.409 557.615 603.248 557.081 604.164 556.776Z" fill="#455A64"/>
<path opacity="0.2" d="M595.998 532.661L600.958 547.389L611.947 543.955L607.063 529.227L595.998 532.661Z" fill="black"/>
<path fill-rule="evenodd" clip-rule="evenodd" d="M599.279 558.301C598.364 558.683 597.372 558.759 596.456 558.454C595.998 558.225 595.693 557.844 595.617 557.309C595.54 557.08 595.616 556.775 595.845 556.546C596.914 555.402 601.95 556.241 602.485 556.317C602.637 556.394 602.79 556.47 602.714 556.623C602.714 556.724 602.663 556.801 602.561 556.852C601.543 557.411 600.45 557.894 599.279 558.301ZM596.685 556.623C596.532 556.674 596.38 556.75 596.227 556.852C596.151 556.928 596.151 557.08 596.151 557.233C596.227 557.538 596.456 557.844 596.761 557.92C597.601 558.378 599.356 557.92 601.645 556.699C600.043 556.394 598.364 556.394 596.685 556.623Z" fill="#455A64"/>
<path fill-rule="evenodd" clip-rule="evenodd" d="M602.561 556.852L602.485 556.928C600.959 556.699 597.754 555.173 597.601 553.876C597.448 553.571 597.601 553.113 598.288 552.807C598.822 552.579 599.356 552.579 599.89 552.807C601.569 553.571 602.714 556.394 602.79 556.547C602.79 556.598 602.765 556.674 602.714 556.776C602.663 556.827 602.612 556.852 602.561 556.852ZM598.669 553.265L598.517 553.342C598.059 553.494 598.059 553.723 598.059 553.799C598.135 554.563 600.425 555.86 602.027 556.242C601.569 555.097 600.73 554.028 599.661 553.342C599.356 553.189 598.975 553.189 598.669 553.265Z" fill="#455A64"/>
<path d="M511.369 320.741L513.964 456.501L514.727 539.376C514.727 541.742 516.482 543.65 518.543 543.65H532.355C534.339 543.65 536.018 541.971 536.247 539.681C537.85 521.061 544.412 491.604 541.513 456.882C541.513 456.882 551.357 365.765 551.967 337.911L549.754 313.186L511.369 320.741Z" fill="#263238"/>
<path d="M511.369 320.741L513.964 456.501L514.727 539.376C514.727 541.742 516.482 543.65 518.543 543.65H532.355C534.339 543.65 536.018 541.971 536.247 539.681C537.85 521.061 544.412 491.604 541.513 456.882C541.513 456.882 551.357 365.765 551.967 337.911L549.754 313.186L511.369 320.741Z" fill="#2C3A40"/>
<path opacity="0.1" d="M543.268 346.916C543.268 346.916 541.741 379.883 545.633 417.047C545.633 417.047 548.915 379.654 550.822 364.697L543.268 346.916Z" fill="black"/>
<path d="M535.332 321.657L564.483 460.164L592.49 540.902C593.253 543.039 595.39 544.107 597.298 543.268L611.644 538.002C613.552 537.239 614.544 535.026 614.086 532.889C609.966 515.185 606.455 485.805 593.024 455.509C593.024 455.509 585.011 367.597 574.175 320.665L535.332 321.657Z" fill="#263238"/>
<path d="M535.332 321.657L564.483 460.164L592.49 540.902C593.253 543.039 595.39 544.107 597.298 543.268L611.644 538.002C613.552 537.239 614.544 535.026 614.086 532.889C609.966 515.185 606.455 485.805 593.024 455.509C593.024 455.509 585.011 367.597 574.175 320.665L535.332 321.657Z" fill="#2C3A40"/>
<path d="M553.036 211.538C550.671 204.212 551.205 193.757 551.968 187.194L536.171 202.838C537.087 205.738 537.545 208.791 537.164 211.538C536.935 212.988 535.79 214.056 534.416 214.209L527.624 216.346L526.861 221.535L530.906 222.603L536.4 228.174L549.602 222.603L563.72 216.04C563.72 216.04 561.126 215.125 557.157 214.819C555.631 214.743 553.494 212.988 553.036 211.538Z" fill="#B25B52"/>
<path opacity="0.2" d="M545.558 194.825L536.4 203.754C536.858 205.433 537.24 207.112 537.316 208.79C540.979 207.951 545.558 204.441 546.703 200.243C547.466 197.649 546.55 195.054 545.558 194.825Z" fill="black"/>
<path d="M554.333 175.366C553.723 187.423 553.875 194.444 547.847 200.625C538.766 210.012 523.885 204.517 520.985 192.536C518.314 181.7 519.916 163.919 531.669 159.035C540.063 155.601 549.678 159.493 553.112 167.887C554.104 170.253 554.562 172.847 554.333 175.366Z" fill="#B25B52"/>
<path d="M535.256 178.571C535.18 179.487 534.569 180.25 533.959 180.174C533.272 180.174 532.89 179.334 532.967 178.342C533.043 177.35 533.653 176.587 534.264 176.663C534.951 176.74 535.332 177.579 535.256 178.571Z" fill="#263238"/>
<path d="M524.266 177.731C524.19 178.723 523.579 179.41 522.893 179.334C522.282 179.334 521.824 178.495 521.977 177.503C522.053 176.51 522.587 175.747 523.274 175.824C523.885 175.9 524.343 176.739 524.266 177.731Z" fill="#263238"/>
<path d="M539.529 173.992C539.631 173.992 539.732 173.967 539.834 173.916C540.063 173.611 539.987 173.305 539.758 173.077C538.384 171.856 536.553 171.321 534.721 171.703C534.416 171.779 534.187 172.084 534.34 172.39C534.416 172.695 534.721 172.924 535.026 172.848C536.476 172.542 537.926 172.924 538.995 173.916C539.147 174.069 539.376 174.069 539.529 173.992Z" fill="#263238"/>
<path d="M520.07 173.229C520.222 173.305 520.451 173.305 520.604 173.152C521.825 172.389 523.351 172.313 524.725 172.847C525.03 173 525.335 172.847 525.488 172.618C525.641 172.313 525.564 171.932 525.259 171.779C523.58 171.092 521.596 171.245 519.994 172.16C519.765 172.313 519.612 172.695 519.765 172.924C519.866 173.076 519.968 173.178 520.07 173.229Z" fill="#263238"/>
<path fill-rule="evenodd" clip-rule="evenodd" d="M556.013 182.387L555.479 182.997L553.647 181.166C552.045 179.563 549.908 178.647 547.619 178.647H542.048C541.819 181.776 539.301 184.218 536.096 184.218C532.89 184.218 530.296 181.7 530.219 178.495C529.838 178.19 529.304 178.19 528.999 178.495C528.846 181.7 526.251 184.218 523.046 184.218C519.765 184.218 517.094 181.547 517.094 178.266C517.094 174.984 519.765 172.313 523.046 172.313C526.099 172.313 528.617 174.679 528.922 177.655C529.38 177.426 529.838 177.426 530.219 177.655C530.601 174.679 533.043 172.313 536.096 172.313C539.301 172.313 541.819 174.755 542.048 177.884H547.619C550.061 177.884 552.426 178.876 554.182 180.632L556.013 182.387ZM528.312 178.266C528.312 175.366 525.946 173.077 523.046 173.077C520.223 173.077 517.857 175.366 517.857 178.266C517.857 181.089 520.223 183.455 523.046 183.455C525.946 183.455 528.312 181.089 528.312 178.266ZM541.361 178.266C541.361 175.366 539.072 173.077 536.172 173.077C533.348 173.077 530.983 175.366 530.983 178.266C530.983 181.089 533.348 183.455 536.172 183.455C539.072 183.455 541.361 181.089 541.361 178.266Z" fill="#263238"/>
<path d="M550.288 172.466C549.22 175.518 549.22 178.876 550.364 181.776C551.051 181.471 551.356 181.394 552.12 181.318C552.883 181.318 553.722 181.547 554.18 182.158C554.638 182.921 554.485 183.913 554.256 184.752C553.29 188.568 552.247 192.358 551.128 196.123C557.156 190.094 560.896 181.852 561.582 173.305C558.072 173 553.875 172.847 550.288 172.466Z" fill="#263238"/>
<path d="M560.287 186.584C558.684 189.102 556.09 190.934 553.19 191.62C549.222 192.46 547.466 188.95 548.764 185.363C549.908 182.158 553.342 177.808 557.158 178.495C560.974 179.258 562.195 183.379 560.287 186.584Z" fill="#B25B52"/>
<path d="M528.999 178.342C527.244 181.013 525.565 183.531 523.199 185.668C524.649 187.576 527.625 187.423 527.625 187.423L528.999 178.342Z" fill="#9D2724"/>
<path d="M564.865 215.353C564.865 215.353 564.331 215.201 563.415 214.972L561.355 214.743L558.303 214.056H558.226C557.234 214.743 542.582 224.816 537.851 226.877L536.401 227.106C532.204 220.924 532.204 214.056 532.204 214.056L530.525 214.132C529.762 214.896 528.617 215.125 528.617 215.125C528.108 215.226 527.625 215.303 527.167 215.353L522.817 218.635C522.817 218.635 513.583 238.629 511.37 288.461L510.684 326.159H581.502L564.865 215.353Z" fill="#C8C8C8"/>
<g opacity="0.4">
<path d="M534.264 223.214C534.315 223.265 534.34 223.316 534.34 223.367L534.264 223.214Z" fill="black"/>
</g>
<path d="M534.264 223.214C534.315 223.265 534.34 223.316 534.34 223.367L534.264 223.214Z" fill="#58A52C"/>
<path d="M532.203 214.056C532.203 214.056 522.13 218.253 518.467 245.344C514.804 272.435 513.354 323.259 514.498 346.992C514.956 356.76 516.482 366.452 509.156 365.46C509.156 365.46 508.775 346.992 509.462 304.563C510.149 262.057 505.799 214.819 532.203 214.056Z" fill="#263238"/>
<g opacity="0.6">
<path d="M532.203 214.056C532.203 214.056 522.13 218.253 518.467 245.344C514.804 272.435 514.88 298.381 514.04 326.77C513.354 350.579 518.314 366.681 509.156 365.46C509.156 365.46 508.775 346.992 509.462 304.563C510.149 262.057 505.799 214.819 532.203 214.056Z" fill="white"/>
</g>
<path d="M562.271 214.056C562.271 214.056 550.214 220.695 548.917 263.049C547.543 305.402 545.559 366.452 559.829 367.826C574.1 369.123 589.668 361.11 589.668 361.11C589.668 361.11 591.117 365.002 588.447 345.542C586.233 329.288 582.494 310.133 581.044 294.718C579.289 276.938 589.057 227.869 582.799 222.985C576.542 218.024 562.271 214.056 562.271 214.056Z" fill="#263238"/>
<path opacity="0.6" d="M562.271 214.056C562.271 214.056 550.214 220.695 548.917 263.049C547.543 305.402 545.559 366.452 559.829 367.826C574.1 369.123 589.668 361.11 589.668 361.11C589.668 361.11 591.117 365.002 588.447 345.542C586.233 329.288 582.494 310.133 581.044 294.718C579.289 276.938 589.057 227.869 582.799 222.985C576.542 218.024 562.271 214.056 562.271 214.056Z" fill="white"/>
<g opacity="0.3">
<path d="M571.582 333.027L561.585 334.401C558.914 334.859 556.319 332.951 555.938 330.204L555.709 328.296L575.55 325.472L575.779 327.304C576.237 330.051 574.329 332.569 571.582 333.027Z" fill="black"/>
</g>
<path d="M567.919 284.722L551.817 286.935L545.178 282.127C544.414 281.593 543.499 281.364 542.583 281.44L536.859 281.745C535.562 281.822 534.341 282.508 533.654 283.577L532.204 285.79C531.747 286.553 531.518 287.469 531.518 288.308L531.747 291.055C531.899 292.658 532.968 294.032 534.494 294.566L543.88 297.771C544.643 298 545.406 298.076 546.17 297.847L553.038 296.168L572.345 295.634L567.919 284.722Z" fill="#B25B52"/>
<path d="M562.957 295.176C563.186 297.008 564.712 298.534 566.544 298.687C571.581 299.068 581.272 298.992 589.285 293.345C600.656 285.256 594.627 245.192 591.269 234.813C587.53 223.214 578.83 219.932 578.83 219.932C568.07 213.827 567.612 224.816 568.452 238.629C569.215 252.365 577.991 273.809 577.686 277.472C577.457 279.838 569.825 281.211 564.331 281.898C561.889 282.203 560.286 284.722 561.126 287.087C561.889 289.224 562.652 291.971 562.957 295.176Z" fill="#263238"/>
<path opacity="0.2" d="M568.452 238.629L572.344 280.448C572.344 280.448 584.248 284.188 582.493 272.435C580.814 260.683 568.223 235.119 568.223 235.119L568.452 238.629Z" fill="black"/>
<path d="M562.957 295.176C563.186 297.008 564.712 298.534 566.544 298.687C571.581 299.068 581.272 298.992 589.285 293.345C600.656 285.256 594.627 245.192 591.269 234.813C587.53 223.214 578.83 219.932 578.83 219.932C568.07 213.827 567.612 224.816 568.452 238.629C569.215 252.365 577.991 273.809 577.686 277.472C577.457 279.838 569.825 281.211 564.331 281.898C561.889 282.203 560.286 284.722 561.126 287.087C561.889 289.224 562.652 291.971 562.957 295.176Z" fill="#2F4B53"/>
<path d="M531.897 192.689C534.034 192.154 535.942 190.781 537.086 188.873C537.163 188.72 537.086 188.568 536.934 188.491C536.858 188.415 536.629 188.491 536.552 188.644C535.331 190.704 533.118 192.078 530.676 192.307C530.524 192.307 530.447 192.46 530.447 192.612C530.447 192.765 530.6 192.841 530.753 192.841C531.16 192.79 531.541 192.739 531.897 192.689Z" fill="#263238"/>
<path d="M558.226 214.056L535.943 235.118L535.103 233.516C531.822 227.563 530.83 220.695 532.204 214.056C532.204 214.056 532.204 218.33 534.264 223.214L536.935 216.803C537.011 219.245 537.774 221.84 537.774 221.84L539.301 220.314L543.65 223.595C549.755 219.932 557.463 214.59 558.226 214.056Z" fill="#58A52C"/>
<path d="M558.226 214.056L535.943 235.118L535.103 233.516C531.822 227.563 530.83 220.695 532.204 214.056C532.204 214.056 532.204 218.33 534.264 223.214L536.935 216.803C537.011 219.245 537.774 221.84 537.774 221.84L539.301 220.314L543.65 223.595C549.755 219.932 557.463 214.59 558.226 214.056Z" fill="white"/>
<path d="M537.775 221.84C534.341 223.824 531.441 225.808 528.465 228.479C528.719 226.088 528.974 223.723 529.228 221.382C529.457 218.864 529.762 216.269 530.831 213.98C531.899 211.691 533.959 209.706 536.478 209.401C536.707 209.401 537.088 208.943 537.317 208.943C536.478 212.912 536.707 217.948 537.775 221.84Z" fill="#58A52C"/>
<path d="M537.775 221.84C534.341 223.824 531.441 225.808 528.465 228.479C528.719 226.088 528.974 223.723 529.228 221.382C529.457 218.864 529.762 216.269 530.831 213.98C531.899 211.691 533.959 209.706 536.478 209.401C536.707 209.401 537.088 208.943 537.317 208.943C536.478 212.912 536.707 217.948 537.775 221.84Z" fill="#2F4B53"/>
<path d="M537.773 221.84L546.091 230.082C546.091 230.082 558.454 215.964 558.225 211.996L551.968 207.036L537.773 221.84Z" fill="#58A52C"/>
<path d="M537.773 221.84L546.091 230.082C546.091 230.082 558.454 215.964 558.225 211.996L551.968 207.036L537.773 221.84Z" fill="#2F4B53"/>
<path d="M550.595 173.763C549.908 173.916 549.069 173.84 548.611 173.306C548.077 172.695 547.848 171.856 547.695 171.092C547.314 168.803 547.008 166.666 547.008 164.377C546.932 162.088 545.101 160.256 542.735 160.256C540.293 160.256 537.775 161.248 535.943 162.774C535.18 162.24 531.441 162.851 530.601 162.469C530.601 162.469 531.593 160.18 529.533 160.409C527.32 161.019 527.243 161.63 525.565 163.614C525.107 164.148 523.962 166.285 523.504 166.743C522.97 167.201 522.97 167.811 522.97 167.811C522.741 164.377 524.878 159.722 527.701 157.814C529.609 156.44 530.067 153.312 532.204 152.32C537.851 149.878 544.643 153.006 550.748 153.922C570.894 156.822 563.034 176.205 561.202 175.824C557.692 176.511 550.595 173.763 550.595 173.763Z" fill="#263238"/>
<path d="M451.77 558.072H405.83C401.327 558.072 397.588 554.409 397.588 549.831V306.165H460.011V549.831C460.011 554.409 456.348 558.072 451.77 558.072Z" stroke="#37474F" stroke-width="8" stroke-miterlimit="10"/>
<path d="M417.43 566.543C417.43 570.664 414.072 574.021 409.875 574.021C405.754 574.021 402.396 570.664 402.396 566.543C402.396 562.346 405.754 558.988 409.875 558.988C414.072 558.988 417.43 562.346 417.43 566.543Z" stroke="#37474F" stroke-width="8" stroke-miterlimit="10"/>
<path d="M455.586 566.543C455.586 570.664 452.229 574.021 448.031 574.021C443.91 574.021 440.553 570.664 440.553 566.543C440.553 562.346 443.91 558.988 448.031 558.988C452.229 558.988 455.586 562.346 455.586 566.543Z" stroke="#37474F" stroke-width="8" stroke-miterlimit="10"/>
<path d="M548.305 558.072H502.365C497.786 558.072 494.123 554.409 494.123 549.907V306.165H556.547V549.907C556.547 554.409 552.807 558.072 548.305 558.072Z" stroke="#37474F" stroke-width="8" stroke-miterlimit="10"/>
<path d="M513.889 566.543C513.889 570.664 510.531 574.021 506.41 574.021C502.289 574.021 498.932 570.664 498.932 566.543C498.932 562.346 502.289 558.988 506.41 558.988C510.531 558.988 513.889 562.346 513.889 566.543Z" stroke="#37474F" stroke-width="8" stroke-miterlimit="10"/>
<path d="M552.045 566.543C552.045 570.664 548.687 574.021 544.566 574.021C540.446 574.021 537.088 570.664 537.088 566.543C537.088 562.346 540.446 558.988 544.566 558.988C548.687 558.988 552.045 562.346 552.045 566.543Z" stroke="#37474F" stroke-width="8" stroke-miterlimit="10"/>
<path d="M570.13 309.065C570.13 311.507 569.138 313.72 567.535 315.323C565.932 317.002 563.719 317.917 561.277 317.917H390.872C385.988 317.917 382.02 313.949 382.02 309.065C382.02 306.623 383.012 304.41 384.614 302.808C386.217 301.205 388.43 300.213 390.872 300.213H561.277C566.161 300.213 570.13 304.181 570.13 309.065Z" fill="#3A4C59"/>
<path d="M570.129 309.065C570.129 311.507 569.137 313.72 567.535 315.323C565.932 317.002 563.719 317.917 561.277 317.917H489.696C484.812 317.917 480.844 313.949 480.844 309.065C480.844 306.623 481.836 304.41 483.438 302.808C485.041 301.205 487.254 300.213 489.696 300.213H561.277C566.161 300.213 570.129 304.181 570.129 309.065Z" fill="#2F4250"/>
<path d="M499.618 300.671L407.814 300.061C406.746 299.984 405.83 299.069 405.83 298C405.83 296.856 406.746 296.016 407.891 296.016L499.618 296.627C500.763 296.627 501.602 297.542 501.602 298.687C501.602 299.755 500.686 300.671 499.618 300.671Z" fill="#58A52C"/>
<path d="M499.618 300.671L407.814 300.061C406.746 299.984 405.83 299.069 405.83 298C405.83 296.856 406.746 296.016 407.891 296.016L499.618 296.627C500.763 296.627 501.602 297.542 501.602 298.687C501.602 299.755 500.686 300.671 499.618 300.671Z" fill="#24363F"/>
<path d="M493.741 296.627H492.52L409.111 296.016H408.882C408.348 296.016 407.89 295.94 407.432 295.787C404.532 295.024 402.09 292.506 401.632 289.529L392.933 238.858C392.398 235.653 394.383 232.982 397.359 232.524C397.664 232.473 397.969 232.448 398.274 232.448L481.531 233.058H482.829C486.415 233.058 489.773 235.958 490.384 239.545L499.007 290.216C499.617 293.727 497.252 296.55 493.741 296.627Z" fill="#455A64"/>
<path d="M439.329 266.789C441.39 266.789 443.221 268.467 443.374 270.528C443.45 271.138 443.374 271.673 443.145 272.207C443.501 271.851 443.781 271.444 443.984 270.986C444.366 270.223 444.519 269.383 444.442 268.467C444.213 265.644 441.771 263.354 438.948 263.354C436.2 263.354 434.14 265.644 434.369 268.467C434.445 269.383 434.751 270.223 435.285 270.986C435.692 271.545 436.175 272.054 436.735 272.512C436.684 272.461 436.658 272.41 436.658 272.359C436.277 271.825 436.048 271.138 435.971 270.528C435.819 268.467 437.269 266.789 439.329 266.789Z" fill="white"/>
<path d="M495.727 298.381C495.727 298.483 495.727 298.585 495.727 298.687C495.727 299.755 496.642 300.671 497.711 300.671L549.374 299.984C550.366 299.984 551.206 299.221 551.358 298.229C551.358 298.178 551.358 298.102 551.358 298C551.358 297.084 550.748 296.397 549.985 296.092C549.756 296.016 549.527 296.016 549.298 296.016L497.711 296.626C496.948 296.626 496.261 297.084 495.956 297.695C495.803 297.898 495.727 298.127 495.727 298.381Z" fill="#58A52C"/>
<path d="M495.727 298.381C495.727 298.483 495.727 298.585 495.727 298.687C495.727 299.755 496.642 300.671 497.711 300.671L549.374 299.984C550.366 299.984 551.206 299.221 551.358 298.229C551.358 298.178 551.358 298.102 551.358 298C551.358 297.084 550.748 296.397 549.985 296.092C549.756 296.016 549.527 296.016 549.298 296.016L497.711 296.626C496.948 296.626 496.261 297.084 495.956 297.695C495.803 297.898 495.727 298.127 495.727 298.381Z" fill="#344C57"/>
<path d="M255.571 452.685C255.571 452.685 252.214 563.949 308.38 567.383C308.38 567.383 329.747 571.656 342.339 548.61C344.17 545.252 354.091 531.134 362.79 458.256C368.743 408.195 370.422 331.806 370.422 331.806C372.787 306.165 386.066 299.221 404.304 299.145L424.298 299.221" stroke="#37474F" stroke-width="5" stroke-miterlimit="10"/>
<path d="M268.391 479.928C268.544 482.599 266.407 484.889 263.736 484.889H248.168C245.803 484.889 243.742 482.981 243.59 480.539L241.529 451.159H266.331L268.391 479.928Z" fill="#37474F"/>
<path d="M144.459 46.9321H156.363C144.382 46.9321 135.377 56.6238 136.217 68.6049L161.476 429.486C162.316 441.467 172.694 451.159 184.599 451.159H172.77C160.789 451.159 150.411 441.467 149.571 429.486L124.312 68.6049C123.473 56.6238 132.477 46.9321 144.459 46.9321Z" fill="#58A52C"/>
<path d="M144.46 46.9321H156.364C144.383 46.9321 135.378 56.6238 136.218 68.6049L161.477 429.486C162.317 441.467 172.695 451.159 184.6 451.159H172.772C160.79 451.159 148.733 441.467 147.894 429.486L122.634 68.6049C121.795 56.6238 132.479 46.9321 144.46 46.9321Z" fill="#263238"/>
<path d="M176.282 451.159H321.886C333.867 451.159 342.872 441.467 342.033 429.486L316.773 68.6049C315.934 56.6238 305.555 46.9321 293.574 46.9321H148.046C136.065 46.9321 127.06 56.6238 127.9 68.6049L153.083 429.486C153.922 441.467 164.301 451.159 176.282 451.159Z" fill="#58A52C"/>
<g opacity="0.6">
<path d="M293.192 53.8765C301.51 53.8765 308.76 60.6683 309.294 68.9863L334.553 429.868C334.859 433.76 333.638 437.346 331.119 440.094C328.601 442.765 325.091 444.214 321.199 444.214H175.671C167.353 444.214 160.103 437.499 159.493 429.181L134.31 68.2232C134.004 64.4076 135.225 60.7446 137.744 58.0736C140.262 55.4027 143.772 53.8765 147.664 53.8765H293.192Z" fill="white"/>
</g>
<path d="M324.251 347.374H158.806L142.398 112.866H307.844L324.251 347.374Z" fill="#58A52C"/>
<path opacity="0.8" d="M324.251 347.374H158.806L142.398 112.866H307.844L324.251 347.374Z" fill="white"/>
<path d="M191.391 313.491C191.315 312.041 192.307 310.973 193.833 310.973C194.596 310.973 195.359 311.278 195.817 311.812L195.283 312.346C194.876 311.939 194.418 311.736 193.909 311.736C192.917 311.736 192.23 312.499 192.307 313.491C192.383 314.483 193.146 315.17 194.138 315.17C194.647 315.17 195.079 314.992 195.435 314.636L196.046 315.17C195.664 315.704 194.978 316.009 194.138 316.009C192.688 316.009 191.467 314.941 191.391 313.491Z" fill="#263238"/>
<path d="M201.006 311.049L201.311 315.933H200.396L200.243 313.796H197.725L197.877 315.933H196.961L196.656 311.049H197.572L197.725 313.033H200.243L200.09 311.049H201.006Z" fill="#263238"/>
<path d="M206.271 315.17V315.933H202.608L202.303 311.049H205.889V311.812H203.295L203.371 313.033H205.737V313.796H203.371L203.524 315.17H206.271Z" fill="#263238"/>
<path d="M206.806 313.491C206.653 312.041 207.721 310.973 209.248 310.973C210.011 310.973 210.697 311.278 211.232 311.812L210.697 312.346C210.29 311.939 209.833 311.736 209.324 311.736C208.332 311.736 207.645 312.499 207.721 313.491C207.798 314.483 208.561 315.17 209.553 315.17C210.062 315.17 210.494 314.992 210.85 314.636L211.461 315.17C211.003 315.704 210.392 316.009 209.553 316.009C208.103 316.009 206.882 314.941 206.806 313.491Z" fill="#263238"/>
<path d="M213.904 313.872L213.217 314.712L213.293 315.933H212.378L212.072 311.049H212.912L213.141 313.567L215.354 311.049H216.346L214.514 313.186L216.88 315.933H215.812L213.904 313.872Z" fill="#263238"/>
<path d="M217.107 311.049H218.023L218.405 315.933H217.489L217.107 311.049Z" fill="#263238"/>
<path d="M223.67 311.049L224.052 315.933H223.289L220.389 312.651L220.618 315.933H219.702L219.32 311.049H220.083L223.06 314.33L222.831 311.049H223.67Z" fill="#263238"/>
<path d="M228.556 313.415H229.395L229.548 315.399C229.014 315.78 228.327 316.009 227.64 316.009C226.114 316.009 224.969 314.941 224.816 313.491C224.74 312.041 225.808 310.973 227.335 310.973C228.098 310.973 228.861 311.202 229.319 311.736L228.785 312.346C228.378 311.939 227.92 311.736 227.411 311.736C226.343 311.736 225.656 312.499 225.732 313.491C225.808 314.483 226.572 315.17 227.64 315.17C228.021 315.17 228.327 315.094 228.632 314.941L228.556 313.415Z" fill="#263238"/>
<path d="M233.287 311.812L233.363 313.262H235.729L235.805 314.025H233.44L233.592 315.933H232.676L232.295 311.049H235.882L235.958 311.812H233.287Z" fill="#263238"/>
<path fill-rule="evenodd" clip-rule="evenodd" d="M236.567 313.491C236.415 312.041 237.483 310.973 239.009 310.973C240.535 310.973 241.68 312.041 241.833 313.491C241.909 314.941 240.841 316.009 239.391 316.009C237.865 316.009 236.644 314.941 236.567 313.491ZM240.917 313.491C240.841 312.499 240.078 311.736 239.086 311.736C238.093 311.736 237.407 312.499 237.483 313.491C237.559 314.483 238.322 315.17 239.314 315.17C240.307 315.17 240.993 314.483 240.917 313.491Z" fill="#263238"/>
<path fill-rule="evenodd" clip-rule="evenodd" d="M246.182 315.933L245.038 314.483C244.987 314.483 244.936 314.483 244.885 314.483H243.74L243.893 315.933H242.977L242.596 311.049H244.58C245.877 311.049 246.717 311.659 246.793 312.804C246.869 313.491 246.564 314.025 245.877 314.33L247.098 315.933H246.182ZM244.656 311.812H243.664L243.74 313.72H244.809C245.648 313.72 246.03 313.415 245.953 312.804C245.953 312.194 245.496 311.812 244.656 311.812Z" fill="#263238"/>
<path d="M249.77 313.796L249.617 311.049H250.533L250.686 313.796C250.762 314.788 251.22 315.17 252.059 315.17C252.822 315.17 253.28 314.788 253.204 313.796L252.975 311.049H253.891L254.043 313.796C254.196 315.246 253.433 316.009 252.059 316.009C250.762 316.009 249.922 315.246 249.77 313.796Z" fill="#263238"/>
<path fill-rule="evenodd" clip-rule="evenodd" d="M259.385 312.804C259.461 313.872 258.698 314.483 257.401 314.483H256.332L256.409 315.933H255.493L255.188 311.049H257.172C258.469 311.049 259.308 311.659 259.385 312.804ZM258.469 312.804C258.393 312.194 257.935 311.812 257.172 311.812H256.103L256.256 313.72H257.324C258.087 313.72 258.469 313.415 258.469 312.804Z" fill="#263238"/>
<path fill-rule="evenodd" clip-rule="evenodd" d="M260.148 311.049H262.285C263.888 311.049 265.032 312.041 265.109 313.491C265.261 314.941 264.193 315.933 262.667 315.933H260.53L260.148 311.049ZM262.514 315.17C263.583 315.17 264.269 314.483 264.193 313.491C264.117 312.499 263.354 311.812 262.285 311.812H261.064L261.293 315.17H262.514Z" fill="#263238"/>
<path fill-rule="evenodd" clip-rule="evenodd" d="M269.306 314.788H266.864L266.406 315.933H265.49L267.398 311.049H268.237L270.832 315.933H269.84L269.306 314.788ZM269.001 314.101L267.932 311.965L267.169 314.101H269.001Z" fill="#263238"/>
<path d="M271.9 311.812H270.297L270.221 311.049H274.342L274.418 311.812H272.815L273.044 315.933H272.205L271.9 311.812Z" fill="#263238"/>
<path d="M278.998 315.17L279.074 315.933H275.411L275.029 311.049H278.616L278.692 311.812H276.021L276.098 313.033H278.463L278.54 313.796H276.174L276.25 315.17H278.998Z" fill="#263238"/>
<path d="M279.608 315.399L279.913 314.712C280.295 315.017 280.905 315.246 281.516 315.246C282.279 315.246 282.584 314.941 282.584 314.636C282.508 313.567 279.608 314.254 279.532 312.423C279.455 311.659 280.066 310.973 281.363 310.973C281.974 310.973 282.584 311.125 283.042 311.431L282.813 312.117C282.355 311.812 281.821 311.736 281.44 311.736C280.676 311.736 280.371 312.041 280.448 312.346C280.448 313.415 283.347 312.728 283.5 314.559C283.5 315.322 282.89 316.009 281.592 316.009C280.829 316.009 280.066 315.78 279.608 315.399Z" fill="#263238"/>
<path d="M297.542 313.186C297.771 315.781 296.856 318.146 295.253 319.825C293.65 321.58 291.361 322.649 288.766 322.649H190.781C185.592 322.649 181.013 318.375 180.632 313.186C180.479 310.591 181.395 308.149 182.997 306.47C184.524 304.792 186.813 303.723 189.484 303.723H287.469C292.658 303.723 297.161 307.92 297.542 313.186Z" stroke="#58A52C" stroke-width="2" stroke-miterlimit="10"/>
<path d="M202.38 247.634C202.227 245.497 203.753 243.971 205.966 243.971C207.111 243.971 208.103 244.429 208.866 245.192L208.027 245.955C207.467 245.395 206.831 245.115 206.119 245.115C204.593 245.115 203.601 246.184 203.753 247.634C203.83 249.084 204.974 250.152 206.424 250.152C207.187 250.152 207.798 249.872 208.256 249.313L209.171 250.152C208.561 250.915 207.645 251.297 206.424 251.297C204.287 251.297 202.532 249.77 202.38 247.634Z" fill="#263238"/>
<path d="M216.346 244.124L216.804 251.221H215.506L215.277 248.168H211.614L211.843 251.221H210.546L210.012 244.124H211.309L211.538 247.023H215.201L215.048 244.124H216.346Z" fill="#263238"/>
<path d="M223.977 250.076L224.054 251.221H218.712L218.254 244.124H223.443L223.519 245.192H219.628L219.78 247.023H223.214L223.291 248.168H219.856L220.009 250.076H223.977Z" fill="#263238"/>
<path d="M224.739 247.634C224.586 245.497 226.113 243.971 228.326 243.971C229.47 243.971 230.462 244.429 231.226 245.192L230.386 245.955C229.827 245.395 229.191 245.115 228.478 245.115C226.952 245.115 225.96 246.184 226.113 247.634C226.189 249.084 227.334 250.152 228.784 250.152C229.547 250.152 230.157 249.872 230.615 249.313L231.531 250.152C230.92 250.915 230.005 251.297 228.784 251.297C226.647 251.297 224.892 249.77 224.739 247.634Z" fill="#263238"/>
<path d="M235.118 248.244L234.05 249.389L234.203 251.221H232.905L232.371 244.124H233.745L233.974 247.71L237.255 244.124H238.705L235.958 247.252L239.392 251.221H237.866L235.118 248.244Z" fill="#263238"/>
<path d="M239.773 244.124H241.071L241.605 251.221H240.308L239.773 244.124Z" fill="#263238"/>
<path d="M249.312 244.124L249.846 251.221H248.778L244.505 246.413L244.81 251.221H243.513L243.055 244.124H244.123L248.397 248.931L248.015 244.124H249.312Z" fill="#263238"/>
<path d="M256.333 247.557H257.554L257.783 250.381C257.096 250.991 256.104 251.297 255.036 251.297C252.899 251.297 251.144 249.77 250.991 247.634C250.838 245.497 252.365 243.971 254.578 243.971C255.799 243.971 256.791 244.429 257.478 245.115L256.714 245.955C256.104 245.421 255.493 245.115 254.73 245.115C253.204 245.115 252.212 246.184 252.288 247.634C252.441 249.084 253.586 250.152 255.036 250.152C255.57 250.152 256.028 250.076 256.485 249.77L256.333 247.557Z" fill="#263238"/>
<path d="M259.08 250.457C259.004 249.923 259.385 249.618 259.843 249.618C260.301 249.618 260.683 249.923 260.759 250.457C260.759 250.915 260.454 251.297 259.996 251.297C259.538 251.297 259.08 250.915 259.08 250.457Z" fill="#263238"/>
<path d="M261.521 250.457C261.521 249.923 261.903 249.618 262.361 249.618C262.742 249.618 263.2 249.923 263.2 250.457C263.277 250.915 262.895 251.297 262.437 251.297C261.979 251.297 261.598 250.915 261.521 250.457Z" fill="#263238"/>
<path d="M264.041 250.457C263.965 249.923 264.346 249.618 264.804 249.618C265.262 249.618 265.644 249.923 265.72 250.457C265.72 250.915 265.338 251.297 264.88 251.297C264.499 251.297 264.041 250.915 264.041 250.457Z" fill="#263238"/>
<path d="M291.742 230.082C291.894 232.753 291.055 235.118 289.452 236.797C287.85 238.552 285.56 239.544 282.966 239.544H184.981C179.715 239.544 175.213 235.347 174.831 230.082C174.678 227.487 175.594 225.121 177.12 223.443C178.723 221.687 181.012 220.695 183.607 220.695H281.592C286.858 220.695 291.36 224.892 291.742 230.082Z" fill="#58A52C"/>
<path opacity="0.4" d="M253.508 221.764L254.653 238.247H184.979C180.477 238.247 176.509 234.584 176.203 230.005C175.975 227.716 176.814 225.656 178.188 224.206C179.561 222.679 181.545 221.764 183.835 221.764H253.508Z" fill="black"/>
<path d="M281.442 192.155C281.645 190.985 281.747 189.84 281.747 188.721L287.012 187.347C287.012 186.635 286.987 185.948 286.936 185.287L281.442 183.989C280.984 181.624 280.221 179.334 279.076 177.198L282.739 173.306C282.383 172.746 282.001 172.161 281.594 171.55L276.405 173.153C274.879 171.245 273.124 169.566 271.063 168.193L272.208 162.851C271.597 162.495 270.987 162.164 270.376 161.859L266.79 165.903C265.721 165.445 264.602 165.064 263.432 164.759C262.262 164.453 261.092 164.25 259.922 164.148L258.166 158.73C257.454 158.73 256.767 158.73 256.106 158.73L255.19 164.148C252.825 164.377 250.611 165.064 248.551 165.98L244.43 162.088C243.82 162.393 243.26 162.724 242.751 163.08L244.659 168.422C242.904 169.795 241.301 171.474 240.08 173.382L234.662 171.932C234.357 172.492 234.052 173.077 233.746 173.687L238.02 177.503C237.664 178.571 237.359 179.665 237.104 180.784C236.901 181.954 236.773 183.125 236.723 184.295L231.457 185.668C231.508 186.33 231.559 186.991 231.61 187.652L237.104 189.026C237.562 191.315 238.325 193.605 239.47 195.742L235.731 199.633C236.087 200.244 236.468 200.829 236.875 201.389L242.141 199.786C243.591 201.694 245.422 203.373 247.406 204.746L246.338 210.088C246.948 210.444 247.559 210.775 248.169 211.08L251.68 207.112C252.799 207.57 253.944 207.951 255.114 208.257C256.284 208.511 257.454 208.715 258.624 208.867L260.379 214.209C261.041 214.209 261.702 214.209 262.364 214.209L263.356 208.791C265.645 208.562 267.934 207.951 269.995 206.959L274.116 210.928C274.675 210.572 275.235 210.215 275.795 209.859L273.887 204.594C275.642 203.144 277.168 201.541 278.465 199.557L283.884 201.083C284.189 200.473 284.469 199.888 284.723 199.328L280.45 195.513C280.857 194.444 281.162 193.325 281.365 192.155H281.442Z" fill="#58A52C"/>
<path opacity="0.2" d="M281.442 192.155C281.645 190.985 281.747 189.84 281.747 188.721L287.012 187.347C287.012 186.635 286.987 185.948 286.936 185.287L281.442 183.989C280.984 181.624 280.221 179.334 279.076 177.198L282.739 173.306C282.383 172.746 282.001 172.161 281.594 171.55L276.405 173.153C274.879 171.245 273.124 169.566 271.063 168.193L272.208 162.851C271.597 162.495 270.987 162.164 270.376 161.859L266.79 165.903C265.721 165.445 264.602 165.064 263.432 164.759C262.262 164.453 261.092 164.25 259.922 164.148L258.166 158.73C257.454 158.73 256.767 158.73 256.106 158.73L255.19 164.148C252.825 164.377 250.611 165.064 248.551 165.98L244.43 162.088C243.82 162.393 243.26 162.724 242.751 163.08L244.659 168.422C242.904 169.795 241.301 171.474 240.08 173.382L234.662 171.932C234.357 172.492 234.052 173.077 233.746 173.687L238.02 177.503C237.664 178.571 237.359 179.665 237.104 180.784C236.901 181.954 236.773 183.125 236.723 184.295L231.457 185.668C231.508 186.33 231.559 186.991 231.61 187.652L237.104 189.026C237.562 191.315 238.325 193.605 239.47 195.742L235.731 199.633C236.087 200.244 236.468 200.829 236.875 201.389L242.141 199.786C243.591 201.694 245.422 203.373 247.406 204.746L246.338 210.088C246.948 210.444 247.559 210.775 248.169 211.08L251.68 207.112C252.799 207.57 253.944 207.951 255.114 208.257C256.284 208.511 257.454 208.715 258.624 208.867L260.379 214.209C261.041 214.209 261.702 214.209 262.364 214.209L263.356 208.791C265.645 208.562 267.934 207.951 269.995 206.959L274.116 210.928C274.675 210.572 275.235 210.215 275.795 209.859L273.887 204.594C275.642 203.144 277.168 201.541 278.465 199.557L283.884 201.083C284.189 200.473 284.469 199.888 284.723 199.328L280.45 195.513C280.857 194.444 281.162 193.325 281.365 192.155H281.442Z" fill="white"/>
<path opacity="0.3" d="M273.506 186.508C274.04 194.368 268.088 200.702 260.228 200.702C252.368 200.702 245.576 194.368 245.042 186.508C244.507 178.648 250.383 172.237 258.244 172.237C266.104 172.237 272.972 178.648 273.506 186.508Z" fill="black"/>
<path d="M232.219 160.103L226.801 160.256C226.038 158.781 225.148 157.382 224.13 156.059L226.572 151.404C224.995 149.623 223.291 148.021 221.459 146.596L216.957 149.343C215.583 148.428 214.133 147.614 212.607 146.901L212.302 141.483C210.165 140.669 207.952 140.084 205.662 139.728L203.297 144.459C202.534 144.409 201.745 144.383 200.931 144.383C200.117 144.383 199.303 144.409 198.489 144.459L195.513 139.728C193.274 140.084 191.138 140.669 189.103 141.483L189.561 146.901C188.136 147.614 186.788 148.428 185.516 149.343L180.708 146.596C179.029 148.021 177.529 149.623 176.206 151.404L179.335 156.059C178.47 157.382 177.758 158.781 177.198 160.256L171.78 160.103C171.118 162.24 170.686 164.428 170.482 166.666L175.366 169.337C175.366 170.151 175.392 170.965 175.443 171.779C175.494 172.593 175.595 173.382 175.748 174.145L171.169 176.816C171.678 179.105 172.416 181.293 173.382 183.379L178.8 183.302C179.614 184.778 180.53 186.177 181.548 187.5L179.029 192.155C180.607 193.884 182.336 195.487 184.219 196.962L188.645 194.139C190.018 195.055 191.468 195.869 192.995 196.581L193.3 201.999C195.437 202.813 197.675 203.398 200.015 203.754L202.305 199.023C203.119 199.074 203.933 199.099 204.747 199.099C205.561 199.099 206.349 199.074 207.112 199.023L210.089 203.754C212.378 203.398 214.54 202.813 216.575 201.999L216.117 196.581C217.542 195.869 218.864 195.055 220.085 194.139L224.969 196.962C226.648 195.487 228.124 193.884 229.396 192.155L226.343 187.5C227.157 186.177 227.869 184.778 228.48 183.302L233.898 183.379C234.559 181.293 234.992 179.105 235.195 176.816L230.235 174.145C230.235 173.382 230.21 172.593 230.159 171.779C230.108 170.965 230.032 170.151 229.93 169.337L234.432 166.666C233.923 164.428 233.186 162.24 232.219 160.103Z" fill="#58A52C"/>
<path opacity="0.3" d="M232.219 160.103L226.801 160.256C226.038 158.781 225.148 157.382 224.13 156.059L226.572 151.404C224.995 149.623 223.291 148.021 221.459 146.596L216.957 149.343C215.583 148.428 214.133 147.614 212.607 146.901L212.302 141.483C210.165 140.669 207.952 140.084 205.662 139.728L203.297 144.459C202.534 144.409 201.745 144.383 200.931 144.383C200.117 144.383 199.303 144.409 198.489 144.459L195.513 139.728C193.274 140.084 191.138 140.669 189.103 141.483L189.561 146.901C188.136 147.614 186.788 148.428 185.516 149.343L180.708 146.596C179.029 148.021 177.529 149.623 176.206 151.404L179.335 156.059C178.47 157.382 177.758 158.781 177.198 160.256L171.78 160.103C171.118 162.24 170.686 164.428 170.482 166.666L175.366 169.337C175.366 170.151 175.392 170.965 175.443 171.779C175.494 172.593 175.595 173.382 175.748 174.145L171.169 176.816C171.678 179.105 172.416 181.293 173.382 183.379L178.8 183.302C179.614 184.778 180.53 186.177 181.548 187.5L179.029 192.155C180.607 193.884 182.336 195.487 184.219 196.962L188.645 194.139C190.018 195.055 191.468 195.869 192.995 196.581L193.3 201.999C195.437 202.813 197.675 203.398 200.015 203.754L202.305 199.023C203.119 199.074 203.933 199.099 204.747 199.099C205.561 199.099 206.349 199.074 207.112 199.023L210.089 203.754C212.378 203.398 214.54 202.813 216.575 201.999L216.117 196.581C217.542 195.869 218.864 195.055 220.085 194.139L224.969 196.962C226.648 195.487 228.124 193.884 229.396 192.155L226.343 187.5C227.157 186.177 227.869 184.778 228.48 183.302L233.898 183.379C234.559 181.293 234.992 179.105 235.195 176.816L230.235 174.145C230.235 173.382 230.21 172.593 230.159 171.779C230.108 170.965 230.032 170.151 229.93 169.337L234.432 166.666C233.923 164.428 233.186 162.24 232.219 160.103Z" fill="white"/>
<path opacity="0.4" d="M225.123 171.779C225.962 184.066 216.652 194.063 204.366 194.063C192.079 194.063 181.396 184.066 180.556 171.779C179.641 159.417 188.951 149.496 201.237 149.496C213.6 149.496 224.207 159.417 225.123 171.779Z" fill="black"/>
<path d="M207.19 171.779C207.342 174.221 205.511 176.282 202.992 176.282C200.474 176.282 198.337 174.221 198.185 171.779C197.956 169.261 199.864 167.277 202.382 167.277C204.824 167.277 207.037 169.261 207.19 171.779Z" fill="#263238"/>
<path d="M263.736 186.507C263.965 188.949 262.057 191.01 259.539 191.01C257.097 191.01 254.884 188.949 254.731 186.507C254.579 183.989 256.486 182.005 258.928 182.005C261.447 182.005 263.583 183.989 263.736 186.507Z" fill="#263238"/>
<path opacity="0.2" d="M257.63 444.214H199.557L247.405 53.8765H294.184C298.458 53.8765 302.273 55.708 304.944 58.5315L257.63 444.214Z" fill="white"/>
<path opacity="0.2" d="M183.608 444.214H170.559L218.406 53.8765H231.532L183.608 444.214Z" fill="white"/>
<path d="M288.537 100.045H303.265" stroke="#263238" stroke-width="2" stroke-miterlimit="10"/>
<path d="M288.842 104.396H303.57" stroke="#263238" stroke-width="2" stroke-miterlimit="10"/>
<path d="M289.148 108.745H303.877" stroke="#263238" stroke-width="2" stroke-miterlimit="10"/>
<path d="M297.314 436.812H282.814L281.822 422.313H296.322L297.314 436.812Z" stroke="white" stroke-width="2" stroke-miterlimit="10"/>
<path d="M217.644 437.576L205.357 430.326L216.652 423.076L217.644 437.576Z" stroke="white" stroke-width="2" stroke-miterlimit="10"/>
<path d="M259.539 429.563C259.844 433.607 256.868 436.812 252.824 436.812C248.855 436.812 245.345 433.607 245.04 429.563C244.811 425.594 247.787 422.313 251.832 422.313C255.8 422.313 259.31 425.594 259.539 429.563Z" stroke="white" stroke-width="2" stroke-miterlimit="10"/>
<path d="M123.625 99.2822L127.364 149.877" stroke="#58A52C" stroke-width="2" stroke-linecap="round" stroke-linejoin="round"/>
<path d="M121.947 76.1597L122.939 89.5143" stroke="#58A52C" stroke-width="2" stroke-linecap="round" stroke-linejoin="round"/>
<path d="M166.513 107.295L166.819 106.303C167.429 106.761 168.268 107.066 169.108 107.066C170.176 107.066 170.558 106.685 170.558 106.227C170.405 104.777 166.513 105.693 166.361 103.175C166.284 102.106 167.047 101.19 168.879 101.19C169.718 101.19 170.558 101.419 171.168 101.801L170.863 102.793C170.176 102.411 169.566 102.259 168.955 102.259C167.887 102.259 167.505 102.64 167.582 103.175C167.658 104.548 171.55 103.632 171.779 106.074C171.855 107.219 171.016 108.135 169.184 108.135C168.116 108.135 167.047 107.753 166.513 107.295Z" fill="#263238"/>
<path d="M175.672 105.617L175.901 107.982H174.603L174.451 105.693L171.551 101.343H172.848L175.061 104.548L176.816 101.343H178.037L175.672 105.617Z" fill="#263238"/>
<path d="M178.572 107.295L178.877 106.303C179.488 106.761 180.327 107.066 181.166 107.066C182.235 107.066 182.616 106.685 182.616 106.227C182.464 104.777 178.572 105.693 178.419 103.175C178.343 102.106 179.106 101.19 180.938 101.19C181.777 101.19 182.616 101.419 183.227 101.801L182.922 102.793C182.311 102.411 181.624 102.259 181.014 102.259C180.022 102.259 179.564 102.64 179.64 103.175C179.717 104.548 183.608 103.632 183.837 106.074C183.914 107.219 183.074 108.135 181.243 108.135C180.174 108.135 179.106 107.753 178.572 107.295Z" fill="#263238"/>
<path d="M186.049 102.335H183.836L183.76 101.343H189.483V102.335H187.27L187.728 107.982H186.431L186.049 102.335Z" fill="#263238"/>
<path d="M195.817 106.99L195.893 107.982H190.856L190.398 101.343H195.282L195.359 102.335H191.696L191.848 104.091H195.053L195.13 105.083H191.925L192.001 106.99H195.817Z" fill="#263238"/>
<path d="M203.448 107.982L203.143 103.556L201.158 107.219H200.624L198.182 103.633L198.487 107.982H197.266L196.809 101.343H197.801L200.777 105.769L203.066 101.343H204.135L204.592 107.982H203.448Z" fill="#263238"/>
<path d="M208.789 105.083L208.561 101.343H209.782L210.011 105.006C210.163 106.456 210.774 106.99 211.918 106.99C212.987 106.99 213.521 106.456 213.445 105.006L213.216 101.343H214.437L214.666 105.083C214.818 107.067 213.75 108.135 211.918 108.135C210.087 108.135 208.942 107.067 208.789 105.083Z" fill="#263238"/>
<path fill-rule="evenodd" clip-rule="evenodd" d="M221.917 103.709C222.069 105.159 221.001 106.075 219.246 106.075H217.72L217.872 107.982H216.651L216.193 101.343H218.941C220.696 101.343 221.84 102.183 221.917 103.709ZM220.696 103.709C220.619 102.87 220.009 102.335 218.941 102.335H217.491L217.643 105.006H219.093C220.238 105.006 220.772 104.548 220.696 103.709Z" fill="#263238"/>
<path fill-rule="evenodd" clip-rule="evenodd" d="M222.984 101.343H225.961C228.097 101.343 229.7 102.641 229.852 104.625C230.005 106.685 228.555 107.982 226.418 107.982H223.519L222.984 101.343ZM226.189 106.99C227.716 106.99 228.631 106.075 228.479 104.701C228.403 103.327 227.41 102.412 225.884 102.412H224.282L224.587 106.99H226.189Z" fill="#263238"/>
<path fill-rule="evenodd" clip-rule="evenodd" d="M235.5 106.456H232.218L231.608 107.982H230.387L232.905 101.343H234.126L237.636 107.982H236.339L235.5 106.456ZM234.965 105.54L233.516 102.564L232.447 105.54H234.965Z" fill="#263238"/>
<path d="M239.086 102.335H236.873L236.797 101.343H242.52L242.597 102.335H240.384L240.765 107.982H239.468L239.086 102.335Z" fill="#263238"/>
<path d="M248.854 106.99L248.93 107.982H243.893L243.436 101.343H248.32L248.396 102.335H244.733L244.885 104.091H248.091L248.167 105.083H244.962L245.038 106.99H248.854Z" fill="#263238"/>
<path d="M150.335 109.203L145.527 104.396L150.335 99.5879" stroke="#263238" stroke-width="2" stroke-miterlimit="10"/>
<path d="M145.527 104.396H161.477" stroke="#263238" stroke-width="2" stroke-miterlimit="10"/>
<path d="M262.59 72.7262C262.743 74.634 261.293 76.2366 259.385 76.2366C257.477 76.2366 255.722 74.634 255.57 72.7262C255.417 70.8184 256.867 69.2158 258.775 69.2158C260.683 69.2158 262.361 70.8184 262.59 72.7262Z" fill="white"/>
<path d="M263.964 70.8945C263.583 70.8945 263.277 70.6655 263.277 70.284C263.125 68.6814 261.064 67.4604 258.622 67.4604C256.104 67.4604 254.349 69.2919 254.501 70.284C254.501 70.6655 254.196 70.8945 253.891 70.8945C253.509 70.8945 253.204 70.6655 253.128 70.284C252.975 68.3762 255.417 66.1631 258.47 66.1631C261.675 66.1631 264.346 67.9183 264.575 70.284C264.575 70.6655 264.269 70.8945 263.964 70.8945Z" fill="white"/>
<path d="M265.033 67.9185C264.651 67.9185 264.346 67.6133 264.346 67.2317C264.193 65.7055 261.446 64.4081 258.241 64.4081C254.883 64.4081 252.594 66.3923 252.67 67.2317C252.746 67.6133 252.441 67.9185 252.059 67.9185C251.754 67.9185 251.449 67.6133 251.373 67.2317C251.22 65.4002 254.273 63.1108 258.164 63.1108C262.209 63.1108 265.414 64.866 265.643 67.2317C265.643 67.6133 265.414 67.9185 265.033 67.9185Z" fill="white"/>
<path d="M266.178 64.8658C265.796 64.8658 265.491 64.5605 265.414 64.2553C265.338 62.8817 262.286 61.3554 257.936 61.3554C253.51 61.3554 250.839 63.4922 250.915 64.2553C250.915 64.5605 250.686 64.8658 250.305 64.8658C249.923 64.8658 249.618 64.5605 249.618 64.2553C249.465 62.3475 253.204 60.0581 257.783 60.0581C262.744 60.0581 266.559 61.8133 266.712 64.2553C266.788 64.5605 266.483 64.8658 266.178 64.8658Z" fill="white"/>
<path d="M273.579 76.2365H271.519L270.984 70.2842H273.045L273.579 76.2365Z" fill="white"/>
<path d="M276.404 76.2365H274.343L273.58 67.9185H275.641L276.404 76.2365Z" fill="white"/>
<path d="M279.226 76.2366H277.166L276.25 65.4766H278.31L279.226 76.2366Z" fill="white"/>
<path d="M282.051 76.2366H279.99L278.846 63.1108H280.906L282.051 76.2366Z" fill="white"/>
<path d="M284.874 76.2365H282.813L281.439 60.7451H283.5L284.874 76.2365Z" fill="white"/>
<path d="M300.366 76.2362H292.659L291.438 62.5H299.145L300.366 76.2362Z" fill="white"/>
<path d="M297.695 62.4999H292.887L292.734 61.5078H297.618L297.695 62.4999Z" fill="white"/>
</g>
<defs>
<clipPath id="clip0_432_17418">
<rect width="763.124" height="596" fill="white"/>
</clipPath>
</defs>
</svg>
