<svg width="712" height="443" viewBox="0 0 712 443" fill="none" xmlns="http://www.w3.org/2000/svg">
<g clip-path="url(#clip0_505_10532)">
<path fill-rule="evenodd" clip-rule="evenodd" d="M419.279 337.629V356.107H379.84V337.629C379.84 333.752 382.99 330.602 386.867 330.602H412.252C416.129 330.602 419.279 333.752 419.279 337.629ZM412.918 339.386C412.918 336.842 410.858 334.721 408.253 334.721H390.866C388.261 334.721 386.201 336.842 386.201 339.386V352.048H412.918V339.386Z" fill="#418918"/>
<path fill-rule="evenodd" clip-rule="evenodd" d="M415.826 337.629V356.107H376.387V337.629C376.387 333.752 379.537 330.602 383.414 330.602H408.799C412.676 330.602 415.826 333.752 415.826 337.629ZM409.465 339.386C409.465 336.842 407.405 334.721 404.8 334.721H387.413C384.868 334.721 382.748 336.842 382.748 339.386V352.048H409.465V339.386Z" fill="#58A52C"/>
<path d="M467.383 432.623H349.549C347.61 432.623 346.035 431.048 346.035 429.11V352.714C346.035 350.776 347.61 349.201 349.549 349.201H467.383C469.321 349.201 470.897 350.776 470.897 352.714V429.11C470.897 431.048 469.321 432.623 467.383 432.623Z" fill="#418918"/>
<path d="M455.023 432.623H337.19C335.251 432.623 333.676 431.048 333.676 429.11V352.714C333.676 350.776 335.251 349.201 337.19 349.201H455.023C456.962 349.201 458.537 350.776 458.537 352.714V429.11C458.537 431.048 456.962 432.623 455.023 432.623Z" fill="#58A52C"/>
<path d="M453.569 349.201H338.644C335.917 349.201 333.676 351.442 333.676 354.168L396.137 402.635L458.537 354.168C458.537 351.442 456.296 349.201 453.569 349.201Z" fill="#418918"/>
<path d="M405.891 409.238H386.322V389.609H405.891V409.238Z" fill="#62B434"/>
<path d="M73.5905 323.453L39.6641 169.936H142.716L176.642 323.453H73.5905Z" fill="#7D8488"/>
<path d="M211.963 330.602H67.291V323.453H211.963V330.602Z" fill="#676F73"/>
<path d="M211.961 330.601H116.543V323.453H211.961V330.601Z" fill="#7D8488"/>
<path d="M39.6639 169.936L73.5904 323.453H67.2897L33.3633 169.936H39.6639Z" fill="#676F73"/>
<path d="M117.15 432.623L76.4386 330.602H71.3496L112.001 432.623H117.15Z" fill="#37474F"/>
<path d="M67.291 432.623L108.003 330.602H113.092L72.38 432.623H67.291Z" fill="#37474F"/>
<path d="M201.541 432.623L160.89 330.602H155.801L196.452 432.623H201.541Z" fill="#37474F"/>
<path d="M151.742 432.623L192.454 330.602H197.543L156.831 432.623H151.742Z" fill="#37474F"/>
<path d="M353.06 247.785H317.498V169.936H353.06V247.785Z" fill="#2F4250"/>
<path d="M340.579 247.785H329.977V181.749C329.977 179.084 332.158 176.903 334.884 176.903H335.732C338.398 176.903 340.579 179.084 340.579 181.749V247.785Z" fill="#7D8488"/>
<path d="M329.977 184.415H335.308" stroke="white" stroke-opacity="0.9" stroke-miterlimit="10"/>
<path d="M329.977 190.473H333.43" stroke="white" stroke-opacity="0.9" stroke-miterlimit="10"/>
<path d="M329.977 196.531H335.308" stroke="white" stroke-opacity="0.9" stroke-miterlimit="10"/>
<path d="M329.977 202.589H333.43" stroke="white" stroke-opacity="0.9" stroke-miterlimit="10"/>
<path d="M329.977 208.587H335.308" stroke="white" stroke-opacity="0.9" stroke-miterlimit="10"/>
<path d="M329.977 214.646H333.43" stroke="white" stroke-opacity="0.9" stroke-miterlimit="10"/>
<path d="M329.977 220.704H335.308" stroke="white" stroke-opacity="0.9" stroke-miterlimit="10"/>
<path d="M329.977 226.762H333.43" stroke="white" stroke-opacity="0.9" stroke-miterlimit="10"/>
<path d="M329.977 232.82H335.308" stroke="white" stroke-opacity="0.9" stroke-miterlimit="10"/>
<path d="M329.977 238.878H333.43" stroke="white" stroke-opacity="0.9" stroke-miterlimit="10"/>
<path d="M179.127 114.078C179.127 116.744 176.946 118.925 174.28 118.925C171.554 118.925 169.373 116.744 169.373 114.078C169.373 111.412 171.554 109.231 174.28 109.231C176.946 109.231 179.127 111.412 179.127 114.078Z" fill="#D19688"/>
<path d="M492.644 118.076L500.157 137.947L484.95 147.701L479.68 131.283L492.644 118.076Z" fill="white" fill-opacity="0.9" stroke="black" stroke-width="2" stroke-miterlimit="10"/>
<path d="M351.305 127.345C352.819 120.439 354.152 112.684 350.214 106.868C347.73 103.173 343.489 100.931 339.067 100.265C334.705 99.5984 330.161 100.325 325.92 101.598C305.019 107.777 288.904 127.648 287.147 149.398C286.723 154.971 287.208 160.848 290.176 165.634C293.084 170.359 298.961 173.631 304.353 172.177C310.593 170.541 314.046 162.665 311.744 156.607C309.442 150.488 302.535 146.853 296.114 147.459C289.631 148.004 283.815 152.245 280.362 157.697C276.727 163.513 275.455 170.48 272.971 176.902C268.185 189.382 258.552 199.863 246.496 205.74" stroke="#2F4250" stroke-width="2" stroke-miterlimit="10"/>
<path d="M575.279 247.784V273.229C575.279 286.497 564.495 297.22 551.288 297.22H499.065L541.777 413.418H516.998L454.174 280.499C454.174 280.499 438.664 250.147 486.949 247.784H575.279Z" fill="#34454D"/>
<path d="M516.998 413.418L477.619 432.623H549.652L541.777 413.418H516.998Z" fill="#455A64"/>
<path d="M475.743 144.067C465.262 144.975 455.993 137.221 455.145 126.679L453.691 110.261C452.782 99.72 460.597 90.5114 471.078 89.6026C481.559 88.6939 490.828 96.5091 491.737 106.99L493.131 123.469C494.039 133.949 486.224 143.158 475.743 144.067Z" fill="#EBA899"/>
<path d="M579.036 247.785V273.23C579.036 286.497 568.252 297.22 555.045 297.22H467.018L509.729 413.419H484.951L422.187 280.499C422.187 280.499 406.617 250.147 454.962 247.785H579.036Z" fill="#2C3A40"/>
<g style="mix-blend-mode:multiply" opacity="0.7">
<path d="M524.692 290.92C532.507 281.832 536.506 269.958 537.293 257.963C537.536 254.57 537.536 251.177 537.293 247.785H523.783C527.6 261.84 527.963 276.804 524.692 290.92Z" fill="#40556B"/>
</g>
<path d="M478.468 149.821L419.763 188.049L366.511 150.064L358.09 160.242L413.826 216.947C417.401 220.582 422.914 221.552 427.457 219.31L481.497 193.017L478.468 149.821Z" fill="#58A52C"/>
<path d="M407.646 179.386C411.16 181.567 414.553 183.991 417.946 186.353C421.338 188.777 424.67 191.2 427.942 193.866C424.428 191.624 421.035 189.261 417.582 186.838C414.25 184.415 410.857 181.991 407.646 179.386Z" fill="#212121"/>
<path d="M366.511 205.316L349.063 238.697L347.609 243.907L351.063 239.788L368.571 206.346L366.511 205.316Z" fill="#7D8488"/>
<path d="M378.142 219.553L359.785 211.132L346.941 219.553L353.424 232.821L357.301 231.488L356.332 227.065C356.332 227.065 360.936 237.243 375.839 234.517L378.142 219.553Z" fill="#EBA899"/>
<path d="M399.891 247.785H332.887V245.482H399.891V247.785Z" fill="white" fill-opacity="0.9"/>
<path d="M366.51 150.064L366.389 139.644L358.089 132.737L355.908 135.04C355.908 135.04 339.49 119.288 341.792 128.799C341.792 128.799 333.008 139.28 335.855 144.006C338.763 148.792 351.364 158.97 358.089 160.242L366.51 150.064Z" fill="#EBA899"/>
<g style="mix-blend-mode:multiply" opacity="0.7">
<path d="M337.127 143.158C337.127 143.158 340.399 147.701 343.125 149.458C345.851 151.155 355.241 152.245 355.241 152.245C355.241 152.245 351.667 147.338 359.361 140.552C359.361 140.552 340.096 153.82 355.908 135.039L349.607 130.859C349.607 130.859 344.518 127.769 339.853 134.191C335.128 140.613 337.127 143.158 337.127 143.158Z" fill="#EBA899"/>
</g>
<path d="M352.517 126.982L349.609 126.074L351.063 121.469L353.971 122.378L352.517 126.982Z" fill="#7D8488"/>
<path d="M355.97 138.19C354.091 143.946 349.124 147.581 344.822 146.187C340.521 144.794 338.522 138.978 340.339 133.222C342.217 127.406 347.185 123.771 351.486 125.165C355.788 126.558 357.787 132.374 355.97 138.19Z" fill="#2F4250"/>
<path d="M358.09 132.737L355.909 135.039C355.909 135.039 339.612 153.336 359.362 140.553C359.362 140.553 351.607 146.368 355.424 152.609" fill="#EBA899"/>
<path d="M358.089 132.737L355.908 135.161L353.909 137.705C352.576 139.401 351.304 141.098 350.335 142.976C350.092 143.46 349.85 143.945 349.85 144.369C349.911 144.612 349.911 144.733 350.092 144.733C350.274 144.793 350.516 144.793 350.759 144.733C351.728 144.551 352.697 144.066 353.667 143.582C355.545 142.552 357.362 141.461 359.18 140.31L359.483 140.734C358.634 141.461 357.786 142.249 357.059 143.158C356.332 144.006 355.666 144.975 355.242 146.005C354.757 147.035 354.515 148.186 354.515 149.337C354.515 150.488 354.939 151.579 355.424 152.609C354.878 151.579 354.394 150.488 354.272 149.337C354.212 148.125 354.454 146.974 354.878 145.884C355.302 144.733 355.969 143.763 356.696 142.855C357.423 141.926 358.251 141.078 359.18 140.31L359.483 140.734C357.665 141.946 355.848 143.097 353.909 144.127C352.94 144.551 351.97 145.096 350.819 145.278C350.577 145.339 350.213 145.399 349.911 145.278C349.83 145.238 349.749 145.197 349.668 145.157C349.587 145.076 349.507 144.995 349.426 144.914C349.365 144.733 349.365 144.551 349.305 144.369C349.365 143.763 349.608 143.218 349.85 142.733C350.88 140.795 352.273 139.159 353.606 137.463C354.333 136.615 355.06 135.807 355.787 135.039L358.089 132.737Z" fill="#212121"/>
<path d="M344.096 126.134C344.096 126.134 366.572 138.553 341.794 130.314C341.794 130.314 338.886 129.405 340.158 126.74C341.37 124.013 344.096 126.134 344.096 126.134Z" fill="#EBA899"/>
<path d="M340.701 130.132C340.701 130.132 365.782 143.945 338.156 134.797C338.156 134.797 334.945 133.767 336.339 130.738C337.732 127.77 340.701 130.132 340.701 130.132Z" fill="#EBA899"/>
<path d="M339.491 136.069C339.491 136.069 355.424 152.73 336.401 139.038C336.401 139.038 334.22 137.463 335.977 135.524C337.795 133.525 339.491 136.069 339.491 136.069Z" fill="#EBA899"/>
<path d="M337.491 140.855C337.491 140.855 351.304 150.67 335.674 143.4C335.674 143.4 333.856 142.612 334.886 140.916C335.916 139.28 337.491 140.855 337.491 140.855Z" fill="#EBA899"/>
<path d="M518.997 297.22C531.114 283.952 526.813 247.784 526.813 247.784H514.393C514.393 247.784 511.546 231.669 502.337 229.912C493.431 228.156 489.918 216.766 489.675 216.039L472.167 247.784H436.241L375.84 234.517L378.142 219.613L442.784 227.065L453.75 200.954L472.47 156.607C472.47 156.607 480.103 129.89 502.337 138.735C520.875 146.066 536.264 162.241 549.228 176.902C567.161 197.319 578.369 221.007 587.214 246.452C591.152 257.659 604.904 293.282 608.115 297.22H518.997Z" fill="#58A52C"/>
<path style="mix-blend-mode:overlay" opacity="0.4" d="M498.823 199.5L484.949 224.581L489.675 216.039C489.675 216.039 493.128 228.095 502.337 229.912C511.545 231.669 514.393 247.784 514.393 247.784H526.751C523.056 222.279 498.823 199.5 498.823 199.5Z" fill="url(#paint0_linear_505_10532)"/>
<g style="mix-blend-mode:multiply" opacity="0.5">
<path d="M502.34 229.912C504.279 230.276 505.914 231.245 507.308 232.578C511.427 230.034 514.638 226.156 516.516 221.673C516.234 221.229 515.951 220.764 515.668 220.28C514.154 220.886 512.094 221.613 511.67 221.855C509.792 222.824 508.035 224.036 506.399 225.369C505.611 226.035 503.43 227.974 502.098 229.852C502.178 229.852 502.259 229.872 502.34 229.912Z" fill="#5993CF"/>
</g>
<g style="mix-blend-mode:multiply" opacity="0.5">
<path d="M498.823 199.5L484.949 224.581L489.675 216.039C489.675 216.039 490.341 218.22 491.735 220.825C494.239 216.342 496.763 211.858 499.307 207.375C510.273 217.856 518.876 231.427 523.238 245.967C523.44 246.572 523.621 247.178 523.783 247.784H526.751C523.056 222.279 498.823 199.5 498.823 199.5Z" fill="#5993CF"/>
</g>
<path d="M484.951 413.418L445.572 432.623H517.605L509.73 413.418H484.951Z" fill="#455A64"/>
<path d="M479.5 120.863C475.199 122.438 470.049 121.166 466.959 117.773C463.87 114.381 463.082 109.11 465.081 104.99C461.325 108.141 454.843 106.687 451.389 103.173C447.997 99.659 447.27 93.9642 449.087 89.4205C450.965 84.8162 454.964 81.363 459.508 79.4849C466.293 76.5769 474.472 77.1827 480.833 80.9389C490.647 76.8192 502.643 81.7265 508.398 90.6322C514.153 99.5379 514.214 111.291 510.518 121.227C524.574 121.893 537.538 129.224 544.445 141.522C548.019 147.883 549.655 156.425 544.99 162.12C541.476 166.361 535.479 167.573 529.966 167.451C516.577 167.209 503.551 160.181 495.918 149.216C489.981 148.549 483.983 144.309 480.772 139.341C477.561 134.312 477.622 126.497 479.5 120.863Z" fill="#212121"/>
<path d="M481.496 230.882C483.314 227.247 485.131 223.672 487.07 220.098C488.948 216.584 490.886 213.01 492.825 209.496C494.764 205.982 496.702 202.408 498.762 198.954C500.761 195.441 502.761 191.927 504.881 188.534C503.124 192.109 501.246 195.683 499.368 199.257C497.49 202.832 495.491 206.346 493.613 209.92C491.613 213.434 489.675 216.948 487.676 220.461C485.616 223.975 483.616 227.428 481.496 230.882Z" fill="#212121"/>
<g style="mix-blend-mode:multiply" opacity="0.7">
<path d="M375.84 234.517L376.082 233.123C360.694 234.093 356.817 227.913 356.332 227.125L356.514 227.489C357.604 229.367 362.754 236.879 375.84 234.517Z" fill="#EBA899"/>
</g>
<path d="M616.175 320.06H548.443V304.369H616.175V320.06Z" fill="#515D64"/>
<path d="M570.617 320.06H520.939V304.369H570.617V320.06Z" fill="#5C6E77"/>
<path d="M575.221 413.418H561.832V320.06H575.221V413.418Z" fill="#37474F"/>
<path d="M580.248 413.418H556.863V395.425H580.248V413.418Z" fill="#37474F"/>
<path d="M616.54 423.052H520.516V413.419H616.54V423.052Z" fill="#37474F"/>
<path d="M533.297 427.837C533.297 430.503 531.176 432.623 528.511 432.623C525.845 432.623 523.725 430.503 523.725 427.837C523.725 425.172 525.845 423.051 528.511 423.051C531.176 423.051 533.297 425.172 533.297 427.837Z" fill="#37474F"/>
<path d="M613.328 427.837C613.328 430.503 611.208 432.623 608.542 432.623C605.876 432.623 603.756 430.503 603.756 427.837C603.756 425.172 605.876 423.051 608.542 423.051C611.208 423.051 613.328 425.172 613.328 427.837Z" fill="#37474F"/>
<path d="M642.71 297.22L676.636 143.703H573.585L539.658 297.22H642.71Z" fill="#7D8488"/>
<path d="M539.658 297.22L573.585 143.703H581.521L547.595 297.22H539.658Z" fill="#676F73"/>
<path d="M504.34 304.37H642.711V297.221H504.34V304.37Z" fill="#676F73"/>
<path d="M479.924 304.369H547.595V297.22H479.924V304.369Z" fill="#7D8488"/>
<path d="M141.142 268.201L136.598 303.279C135.205 313.941 143.505 323.453 154.289 323.453H255.765L250.918 413.419H277.333L296.053 284.195C297.264 275.774 290.721 268.201 282.24 268.201H141.142Z" fill="#34454D"/>
<path d="M277.335 413.418L319.683 432.623H246.074L250.921 413.418H277.335Z" fill="#455A64"/>
<path d="M231.714 162.06L257.401 226.036L315.743 233.124V247.785H238.984L215.114 205.316L206.815 268.202H108.186L122.059 161.575C122.968 155.033 127.512 149.641 133.812 147.702L167.678 137.221L181.309 116.865H194.94L189.246 138.675L222.748 152.912C226.868 154.669 230.078 157.94 231.714 162.06Z" fill="#58A52C"/>
<path d="M144.535 178.175C144.535 178.175 177.311 188.414 218.507 179.387L206.815 268.202H108.186L117.394 197.744L144.535 178.175Z" fill="#58A52C"/>
<path d="M163.195 138.615C163.195 138.615 176.281 155.033 188.58 152.609C200.878 150.186 196.879 141.947 196.879 141.947L189.246 138.675L194.941 116.865H181.31L167.678 137.221L163.195 138.615Z" fill="#EBA899"/>
<g style="mix-blend-mode:multiply" opacity="0.7">
<path d="M189.973 146.066C193.063 145.642 195.486 144.855 197.424 143.885C197.303 142.734 196.879 141.947 196.879 141.947L189.246 138.675L194.941 116.865H181.309L170.102 133.707C173.373 138.493 180.825 147.399 189.973 146.066Z" fill="#EBA899"/>
</g>
<path style="mix-blend-mode:overlay" opacity="0.4" d="M315.746 233.124L257.404 226.036L231.717 162.06C230.081 157.941 226.87 154.669 222.751 152.912L222.024 152.609L215.117 205.317L238.987 247.785H315.746V233.124Z" fill="url(#paint1_linear_505_10532)"/>
<path d="M190.881 141.098C180.461 139.523 173.312 129.83 174.887 119.41L177.371 103.052C178.946 92.6319 188.7 85.4832 199.121 87.0583C209.541 88.6335 216.69 98.3873 215.114 108.808L212.631 125.104C211.055 135.525 201.302 142.673 190.881 141.098Z" fill="#EBA899"/>
<path d="M108.186 268.201L103.582 303.279C102.188 313.941 110.549 323.453 121.272 323.453H222.749L217.962 413.419H244.377L263.036 284.195C264.308 275.774 257.765 268.201 249.223 268.201H108.186Z" fill="#2C3A40"/>
<path d="M244.376 413.418L286.724 432.623H213.055L217.962 413.418H244.376Z" fill="#455A64"/>
<path d="M224.264 233.972L252.495 236.335L274.426 243.847V247.785H224.264V233.972Z" fill="#EBA899"/>
<path d="M345.309 247.785C345.309 247.785 401.651 227.914 353.063 239.727L345.309 247.785Z" fill="#BA7C6C"/>
<path d="M315.744 233.124L329.315 230.519C329.315 230.519 357.546 225.914 338.947 233.124L331.738 237.849L345.309 240.152C345.309 240.152 383.961 229.125 345.309 247.785H315.744V233.124Z" fill="#BA7C6C"/>
<path d="M345.309 240.152L331.738 237.849C331.738 237.849 329.133 233.972 315.744 233.124V247.785H345.309C383.961 229.126 345.309 240.152 345.309 240.152Z" fill="#DB9D8F"/>
<path d="M245.953 192.473L251.95 207.437C252.556 208.89 252.011 210.526 250.678 211.374L228.202 225.611C226.627 226.641 224.567 226.096 223.658 224.521L216.873 212.404C216.085 211.011 216.449 209.193 217.781 208.224L241.045 191.079C242.742 189.867 245.165 190.534 245.953 192.473Z" fill="#2E7608"/>
<path style="mix-blend-mode:overlay" opacity="0.4" d="M224.263 233.912V247.785H121.999C116.062 247.785 111.518 242.575 112.306 236.759L122.12 161.576C122.968 155.033 127.512 149.641 133.813 147.702C133.813 147.702 158.228 150.489 152.836 186.536L147.444 222.522L211.601 232.034L224.263 233.912Z" fill="url(#paint2_linear_505_10532)"/>
<path d="M162.225 224.763C160.166 224.642 158.106 224.4 156.046 224.158C154.047 223.976 151.987 223.673 149.988 223.37C147.928 223.067 145.929 222.764 143.869 222.401C141.87 221.977 139.87 221.613 137.871 221.128C139.931 221.25 141.93 221.431 143.99 221.674C146.05 221.916 148.049 222.158 150.109 222.461C152.108 222.764 154.168 223.128 156.167 223.491C158.227 223.855 160.226 224.279 162.225 224.763Z" fill="#212121"/>
<path d="M105.46 432.624H97.9473L167.618 256.751H175.13L105.46 432.624Z" fill="#37474F"/>
<path d="M571.221 432.623H578.673L509.002 256.751H501.551L571.221 432.623Z" fill="#37474F"/>
<path d="M71.8359 256.751H604.845V247.785H71.8359V256.751Z" fill="#2F4250"/>
<path d="M174.888 119.409L185.672 103.9L184.46 96.2668C184.46 96.2668 195.486 102.507 203.483 102.689C211.48 102.87 214.873 102.022 214.873 102.022C214.873 102.022 215.479 106.384 215.115 108.807C214.752 111.17 213.298 120.5 213.298 120.5C213.298 120.5 219.053 113.715 219.053 103.658C219.053 93.6617 211.965 87.0582 211.965 87.0582C211.965 87.0582 204.877 70.6402 182.885 78.6977C160.833 86.6946 171.92 113.412 171.92 113.412L174.888 119.409Z" fill="#212121"/>
<path d="M709.168 440.984H0.832031V432.624H709.168V440.984Z" fill="#D8D8D8"/>
<path d="M312.957 22.5977C312.957 22.5977 288.966 8.11836 272.73 36.5924C256.555 8.11836 232.564 22.5977 232.564 22.5977C222.749 28.4137 218.993 35.8654 217.963 42.5901C215.722 56.6453 226.263 67.1262 235.653 75.9107C245.528 85.1799 255.04 94.8732 264.673 104.445C267.379 107.111 270.085 109.777 272.791 112.442C284.665 100.568 296.842 88.9966 308.656 77.0618C318.289 67.4291 329.981 57.7358 327.558 42.5901C326.467 35.8654 322.711 28.4137 312.957 22.5977Z" fill="#455A64"/>
<mask id="mask0_505_10532" style="mask-type:luminance" maskUnits="userSpaceOnUse" x="217" y="18" width="111" height="95">
<path d="M312.963 22.6218C312.963 22.6218 288.948 8.10009 272.754 36.5801C256.56 8.10009 232.545 22.6218 232.545 22.6218C222.773 28.4378 219.011 35.8774 217.945 42.5779C215.715 56.627 226.251 67.1382 235.641 75.9106C245.546 85.1616 255.027 94.8852 264.66 104.421C267.358 107.099 270.058 109.772 272.76 112.442C284.653 100.574 296.836 89.0026 308.68 77.0859C318.282 67.4169 329.969 57.7478 327.557 42.5779C326.497 35.8774 322.735 28.4378 312.963 22.6218Z" fill="white"/>
</mask>
<g mask="url(#mask0_505_10532)">
<path d="M225.172 69.61H249.042L256.009 46.4673L266.126 84.9375L272.366 54.1613L277.758 77.4252L285.573 46.4673L292.358 69.61H320.651" stroke="white" stroke-opacity="0.9" stroke-width="2" stroke-miterlimit="10"/>
</g>
<path d="M433.335 117.471H366.391V23.2642H433.335V117.471Z" fill="#455A64"/>
<path d="M393.955 41.6209C393.955 46.831 389.714 51.1324 384.443 51.1324C379.233 51.1324 374.992 46.831 374.992 41.6209C374.992 36.3502 379.233 32.1094 384.443 32.1094C389.714 32.1094 393.955 36.3502 393.955 41.6209Z" fill="white" fill-opacity="0.9"/>
<path d="M418.674 39.4396H398.803V36.7739H418.674V39.4396Z" fill="white" fill-opacity="0.9"/>
<path d="M424.732 46.4674H398.803V43.8018H424.732V46.4674Z" fill="white" fill-opacity="0.9"/>
<path d="M424.733 63.188H381.537V60.6436H424.733V63.188Z" fill="white" fill-opacity="0.9"/>
<path d="M424.731 70.7008H374.992V68.0957H424.731V70.7008Z" fill="white" fill-opacity="0.9"/>
<path d="M424.731 78.213H374.992V75.6079H424.731V78.213Z" fill="white" fill-opacity="0.9"/>
<path d="M424.731 85.6646H374.992V83.1201H424.731V85.6646Z" fill="white" fill-opacity="0.9"/>
<path d="M424.731 93.1768H374.992V90.6323H424.731V93.1768Z" fill="white" fill-opacity="0.9"/>
<path d="M414.735 100.689H374.992V98.1445H414.735V100.689Z" fill="white" fill-opacity="0.9"/>
<path d="M662.397 391.972C662.397 391.972 685.964 341.87 660.883 293.525C660.883 293.525 631.682 338.78 662.397 391.972Z" fill="#58A52C"/>
<path d="M661.125 380.158C661.125 380.158 664.821 341.749 632.046 325.149C632.046 325.149 622.655 362.71 661.125 380.158Z" fill="#849682"/>
<path d="M664.457 383.611C664.457 383.611 661.427 336.902 705.411 310.73C705.411 310.73 704.865 362.528 664.457 383.611Z" fill="#849682"/>
<path d="M684.572 432.623H641.376L636.469 367.436H689.479L684.572 432.623Z" fill="#27343A"/>
<path d="M132.901 88.2695L128.357 86.5731L135.082 68.7012L139.686 70.4581L132.901 88.2695Z" fill="#7D8488"/>
<path d="M119.814 117.531L118.845 117.168C115.816 116.016 114.362 112.684 115.452 109.716L125.388 83.4834L137.202 87.9666L127.266 114.199C126.115 117.168 122.783 118.682 119.814 117.531Z" fill="#455A64"/>
<path d="M172.341 61.0677C166.525 76.3952 149.38 84.1498 134.053 78.3338C118.725 72.5784 110.971 55.4334 116.787 40.106C122.603 24.7785 139.748 17.0238 155.075 22.8398C170.403 28.5952 178.157 45.7402 172.341 61.0677Z" fill="#455A64"/>
<path d="M165.859 58.6442C161.437 70.3973 148.29 76.3344 136.477 71.9119C124.723 67.4287 118.786 54.2822 123.269 42.5291C127.692 30.776 140.839 24.8389 152.652 29.2615C164.405 33.7446 170.342 46.8911 165.859 58.6442Z" fill="#7D8488"/>
<path d="M83.8895 121.227H65.0482V102.385H52.2652V121.227H33.3633V134.01H52.2652V152.851H65.0482V134.01H83.8895V121.227Z" fill="#455A64"/>
<path d="M299.446 202.893L295.145 198.591L299.446 194.29L296.538 191.382L292.237 195.683L287.996 191.382L285.088 194.29L289.389 198.591L285.088 202.893L287.996 205.74L292.237 201.499L296.538 205.74L299.446 202.893Z" fill="#7D8488" fill-opacity="0.1"/>
<path d="M387.048 278.561L382.746 274.32L387.048 270.018L384.14 267.11L379.838 271.412L375.597 267.11L372.689 270.018L376.991 274.32L372.689 278.561L375.597 281.468L379.838 277.167L384.14 281.468L387.048 278.561Z" fill="#7D8488" fill-opacity="0.1"/>
<path d="M353.788 78.5161L349.547 74.2147L353.788 69.9739L350.94 67.0659L346.639 71.3673L342.338 67.0659L339.43 69.9739L343.731 74.2147L339.43 78.5161L342.338 81.4241L346.639 77.1227L350.94 81.4241L353.788 78.5161Z" fill="#7D8488" fill-opacity="0.1"/>
<path d="M115.335 145.944L111.094 141.643L115.335 137.342L112.487 134.434L108.186 138.735L103.885 134.434L100.977 137.342L105.278 141.643L100.977 145.944L103.885 148.792L108.186 144.551L112.487 148.792L115.335 145.944Z" fill="#7D8488" fill-opacity="0.1"/>
<path d="M69.4734 384.46L65.172 380.159L69.4734 375.918L66.5654 373.01L62.3246 377.311L58.0232 373.01L55.1152 375.918L59.4166 380.159L55.1152 384.46L58.0232 387.368L62.3246 383.067L66.5654 387.368L69.4734 384.46Z" fill="#7D8488" fill-opacity="0.1"/>
<path d="M615.749 371.737L611.447 367.436L615.749 363.195L612.841 360.287L608.539 364.588L604.238 360.287L601.391 363.195L605.631 367.436L601.391 371.737L604.238 374.645L608.539 370.344L612.841 374.645L615.749 371.737Z" fill="#7D8488" fill-opacity="0.1"/>
<path d="M585.156 26.778H571.707V13.3892H562.68V26.778H549.291V35.8049H562.68V49.1937H571.707V35.8049H585.156V26.778Z" fill="#455A64"/>
<path d="M638.831 72.2755H634.711C632.833 72.2755 631.318 70.8215 631.318 68.9435V62.2188H608.418V68.9435C608.418 70.8215 606.903 72.2755 605.025 72.2755H600.906C599.633 72.2755 598.604 73.3054 598.604 74.5777V124.559C598.604 126.194 599.936 127.527 601.572 127.527H638.164C639.8 127.527 641.133 126.194 641.133 124.559V74.5777C641.133 73.3054 640.103 72.2755 638.831 72.2755Z" fill="#455A64"/>
<path d="M634.529 62.219H605.207V53.6768H634.529V62.219Z" fill="#2D4A57"/>
<path d="M623.624 97.3568C615.991 97.7809 609.205 92.8131 602.057 90.1475V121.408C602.057 123.044 603.389 124.377 605.025 124.377H634.711C636.347 124.377 637.679 123.044 637.679 121.408V93.419C633.014 94.6912 628.471 97.1145 623.624 97.3568Z" fill="white" fill-opacity="0.9"/>
<path d="M492.705 44.8318L475.742 52.0411C473.682 52.8893 471.319 51.92 470.41 49.9207C469.562 47.8609 470.531 45.4376 472.591 44.5894L489.555 37.38C491.614 36.5319 494.038 37.5012 494.886 39.561C495.734 41.6209 494.765 43.9836 492.705 44.8318Z" fill="#455A64"/>
<path d="M489.554 37.38L481.072 41.015L484.223 48.4667L492.704 44.8318C494.764 43.9836 495.733 41.6209 494.885 39.561C494.037 37.5012 491.614 36.5319 489.554 37.38Z" fill="#7D8488"/>
<path d="M516.09 61.0681L497.915 57.6755C495.734 57.2514 494.28 55.131 494.704 52.95C495.129 50.7085 497.249 49.315 499.43 49.6785L517.544 53.1318C519.725 53.5559 521.179 55.6763 520.755 57.8572C520.392 60.0382 518.271 61.4922 516.09 61.0681Z" fill="#455A64"/>
<path d="M517.543 53.1319L508.517 51.4355L507.002 59.3719L516.089 61.0682C518.27 61.4923 520.391 60.0383 520.754 57.8573C521.178 55.6764 519.724 53.556 517.543 53.1319Z" fill="#7D8488"/>
<path d="M504.519 21.9314L517.605 34.9567C519.18 36.5319 519.24 39.0764 517.665 40.6515C516.09 42.2267 513.485 42.2267 511.91 40.6515L498.824 27.6867C497.249 26.1116 497.249 23.5671 498.824 21.9314C500.399 20.3562 502.944 20.3562 504.519 21.9314Z" fill="#455A64"/>
<path d="M498.824 27.6867L505.367 34.1691L511.062 28.4137L504.519 21.9314C502.944 20.3562 500.399 20.3562 498.824 21.9314C497.249 23.5671 497.249 26.1116 498.824 27.6867Z" fill="#7D8488"/>
<path d="M54.0241 39.3796L67.11 52.3444C68.6852 53.9195 68.6852 56.5246 67.11 58.0997C65.5348 59.6749 62.9904 59.6749 61.4152 58.0997L48.3293 45.135C46.7541 43.5598 46.6935 40.9548 48.2687 39.3796C49.8439 37.8045 52.3883 37.8045 54.0241 39.3796Z" fill="#455A64"/>
<path d="M48.3293 45.135L54.8722 51.6174L60.567 45.862L54.0241 39.3796C52.3883 37.8045 49.8439 37.8045 48.2687 39.3796C46.6935 40.9548 46.7541 43.5598 48.3293 45.135Z" fill="#7D8488"/>
<path d="M93.1605 79.909L76.8637 88.5118C74.8645 89.5417 72.4412 88.8147 71.3507 86.8155C70.3208 84.8163 71.1084 82.3929 73.047 81.363L89.4044 72.7603C91.3431 71.7303 93.827 72.4573 94.8569 74.4566C95.8868 76.3952 95.1598 78.8791 93.1605 79.909Z" fill="#455A64"/>
<path d="M89.4033 72.7603L81.2246 77.0616L84.9807 84.2104L93.1594 79.909C95.1587 78.8791 95.8857 76.3952 94.8558 74.4566C93.8259 72.4573 91.342 71.7303 89.4033 72.7603Z" fill="#7D8488"/>
<path d="M101.037 28.959L96.1907 46.831C95.6454 48.9514 93.4039 50.2236 91.2835 49.6784C89.1025 49.0726 87.8302 46.831 88.4361 44.7106L93.2221 26.8992C93.828 24.7182 96.0089 23.446 98.1899 24.0518C100.371 24.597 101.643 26.8386 101.037 28.959Z" fill="#455A64"/>
<path d="M93.2221 26.8992L90.7988 35.8049L98.614 37.9253L101.037 28.959C101.643 26.8386 100.371 24.597 98.19 24.0518C96.009 23.446 93.828 24.7182 93.2221 26.8992Z" fill="#7D8488"/>
<path d="M547.412 73.2449C547.958 76.8193 545.534 80.1513 541.96 80.6966C538.385 81.2418 535.053 78.8185 534.508 75.2441C533.963 71.6697 536.386 68.3376 539.961 67.7924C543.535 67.2472 546.867 69.6705 547.412 73.2449Z" fill="#455A64"/>
<path d="M541.959 80.6968C545.534 80.1516 547.957 76.8195 547.412 73.2451L534.508 75.2444C535.053 78.8188 538.385 81.2421 541.959 80.6968Z" fill="#7D8488"/>
<path d="M552.744 93.1766C555.894 94.9941 557.045 98.9926 555.227 102.082C553.47 105.233 549.472 106.384 546.322 104.566C543.171 102.809 542.081 98.8109 543.838 95.6606C545.655 92.5102 549.654 91.4197 552.744 93.1766Z" fill="#455A64"/>
<path d="M555.228 102.082C557.045 98.9927 555.894 94.9942 552.744 93.1768L546.322 104.566C549.473 106.384 553.471 105.233 555.228 102.082Z" fill="#7D8488"/>
<path d="M569.466 95.6608C572.192 93.2981 576.312 93.601 578.674 96.3272C581.037 99.0534 580.734 103.173 578.008 105.536C575.282 107.899 571.162 107.596 568.799 104.869C566.437 102.143 566.74 98.0235 569.466 95.6608Z" fill="#455A64"/>
<path d="M578.673 96.3272C576.311 93.601 572.191 93.2981 569.465 95.6608L578.007 105.536C580.733 103.173 581.036 99.0534 578.673 96.3272Z" fill="#7D8488"/>
<path d="M29.0634 287.042C29.0634 292.495 24.2168 292.495 24.2168 297.887C24.2168 303.339 29.0634 303.339 29.0634 308.731C29.0634 314.123 24.2168 314.123 24.2168 319.576C24.2168 324.967 29.0634 324.967 29.0634 330.42C29.0634 335.812 24.2168 335.812 24.2168 341.204C24.2168 346.656 29.0634 346.656 29.0634 352.048C29.0634 357.5 24.2168 357.5 24.2168 362.892C24.2168 368.345 29.0634 368.345 29.0634 373.737C29.0634 379.129 24.2168 379.129 24.2168 384.581C24.2168 389.973 29.0634 389.973 29.0634 395.425" stroke="#7D8488" stroke-opacity="0.1" stroke-width="2" stroke-linecap="round" stroke-linejoin="round"/>
<path d="M682.391 298.068C682.391 292.677 687.237 292.677 687.237 287.285C687.237 281.832 682.391 281.832 682.391 276.44C682.391 270.988 687.237 270.988 687.237 265.596C687.237 260.204 682.391 260.204 682.391 254.752C682.391 249.36 687.237 249.36 687.237 243.907C687.237 238.515 682.391 238.515 682.391 233.123C682.391 227.671 687.237 227.671 687.237 222.279C687.237 216.827 682.391 216.827 682.391 211.435C682.391 205.982 687.237 205.982 687.237 200.59C687.237 195.138 682.391 195.138 682.391 189.746" stroke="#7D8488" stroke-opacity="0.1" stroke-width="2" stroke-linecap="round" stroke-linejoin="round"/>
<path d="M387.047 303.218C381.595 303.218 381.595 298.371 376.203 298.371C370.811 298.371 370.811 303.218 365.358 303.218C359.966 303.218 359.966 298.371 354.514 298.371C349.122 298.371 349.122 303.218 343.73 303.218C338.278 303.218 338.278 298.371 332.886 298.371C327.433 298.371 327.433 303.218 322.041 303.218C316.65 303.218 316.65 298.371 311.197 298.371C305.805 298.371 305.805 303.218 300.353 303.218C294.961 303.218 294.961 298.371 289.508 298.371C284.117 298.371 284.117 303.218 278.664 303.218" stroke="#7D8488" stroke-opacity="0.1" stroke-width="2" stroke-linecap="round" stroke-linejoin="round"/>
<path d="M17.1894 237.304C17.1894 241.787 13.5545 245.482 9.01073 245.482C4.52759 245.482 0.832031 241.787 0.832031 237.304C0.832031 232.76 4.52759 229.125 9.01073 229.125C13.5545 229.125 17.1894 232.76 17.1894 237.304Z" fill="#7D8488" fill-opacity="0.1" stroke="#7D8488" stroke-opacity="0.1" stroke-width="2" stroke-linecap="round" stroke-linejoin="round"/>
<path d="M426.852 149.822C426.852 154.305 423.217 158 418.673 158C414.19 158 410.494 154.305 410.494 149.822C410.494 145.278 414.19 141.643 418.673 141.643C423.217 141.643 426.852 145.278 426.852 149.822Z" fill="#7D8488" fill-opacity="0.1" stroke="#7D8488" stroke-opacity="0.1" stroke-width="2" stroke-miterlimit="10"/>
<path d="M315.984 367.436C315.984 371.98 312.349 375.615 307.806 375.615C303.323 375.615 299.627 371.98 299.627 367.436C299.627 362.953 303.323 359.257 307.806 359.257C312.349 359.257 315.984 362.953 315.984 367.436Z" fill="#7D8488" fill-opacity="0.1" stroke="#7D8488" stroke-opacity="0.1" stroke-width="2" stroke-miterlimit="10"/>
<path d="M684.812 94.8735C684.812 99.4172 681.117 103.052 676.634 103.052C672.09 103.052 668.455 99.4172 668.455 94.8735C668.455 90.3904 672.09 86.6948 676.634 86.6948C681.117 86.6948 684.812 90.3904 684.812 94.8735Z" fill="#7D8488" fill-opacity="0.1" stroke="#7D8488" stroke-opacity="0.1" stroke-width="2" stroke-miterlimit="10"/>
<path d="M254.674 136.312C254.674 140.795 251.039 144.491 246.495 144.491C242.012 144.491 238.316 140.795 238.316 136.312C238.316 131.768 242.012 128.133 246.495 128.133C251.039 128.133 254.674 131.768 254.674 136.312Z" fill="#7D8488" fill-opacity="0.1" stroke="#7D8488" stroke-opacity="0.1" stroke-width="2" stroke-miterlimit="10"/>
<path d="M376.082 233.124L444.904 247.724L436.241 247.785L375.84 234.517L376.082 233.124Z" fill="#E0E0E0"/>
</g>
<defs>
<linearGradient id="paint0_linear_505_10532" x1="484.956" y1="199.51" x2="526.764" y2="199.51" gradientUnits="userSpaceOnUse">
<stop stop-opacity="0"/>
<stop offset="1"/>
</linearGradient>
<linearGradient id="paint1_linear_505_10532" x1="215.133" y1="152.63" x2="315.776" y2="152.63" gradientUnits="userSpaceOnUse">
<stop stop-opacity="0"/>
<stop offset="1"/>
</linearGradient>
<linearGradient id="paint2_linear_505_10532" x1="112.235" y1="147.724" x2="224.297" y2="147.724" gradientUnits="userSpaceOnUse">
<stop stop-opacity="0"/>
<stop offset="1"/>
</linearGradient>
<clipPath id="clip0_505_10532">
<rect width="712" height="443" fill="white"/>
</clipPath>
</defs>
</svg>
