<svg width="118" height="118" viewBox="0 0 118 118" fill="none" xmlns="http://www.w3.org/2000/svg">
<g filter="url(#filter0_d_502_858)">
<rect x="5" y="3" width="104" height="104" rx="10" fill="white"/>
</g>
<path fill-rule="evenodd" clip-rule="evenodd" d="M65.4251 22.1562C65.975 22.1562 66.5181 22.185 67.0531 22.2405C67.8684 22.3251 68.4948 22.9584 68.5707 23.7745L68.7811 26.0372C68.8958 27.2714 70.3445 27.8647 71.2919 27.0655L73.0281 25.601C73.6545 25.0726 74.5451 25.0604 75.1855 25.5718C76.0689 26.277 76.8737 27.0752 77.5863 27.9527C78.1029 28.589 78.0981 29.4798 77.5747 30.1107L76.1239 31.8588C75.3324 32.8126 75.9373 34.2565 77.1723 34.3613L79.4373 34.5535C80.2543 34.6227 80.8929 35.2447 80.9836 36.0596C81.1084 37.1825 81.1127 38.3156 80.9964 39.4394C80.9117 40.2546 80.2785 40.8811 79.4623 40.957L77.1996 41.1674C75.9654 41.2821 75.3722 42.7308 76.1714 43.6782L77.6359 45.4144C78.1643 46.0408 78.1764 46.9314 77.6651 47.5718C76.9599 48.4551 76.1617 49.26 75.2842 49.9724C74.6478 50.4891 73.757 50.4843 73.1262 49.9608L71.378 48.5099C70.4241 47.7185 68.9804 48.3233 68.8754 49.5583L68.6832 51.8233C68.614 52.6404 67.992 53.2789 67.1771 53.3696C66.0542 53.4945 64.9211 53.4988 63.7973 53.3824C62.9821 53.2976 62.3556 52.6645 62.2797 51.8484L62.0693 49.5856C61.9547 48.3515 60.5059 47.7582 59.5585 48.5574L57.8223 50.0219C57.196 50.5503 56.3053 50.5624 55.6649 50.051C54.7816 49.3457 53.9767 48.5475 53.2642 47.6701C52.7475 47.0337 52.7523 46.1429 53.2758 45.5121L54.7266 43.7639C55.5181 42.81 54.9133 41.3663 53.6783 41.2614L51.4133 41.0693C50.5962 41 49.9577 40.378 49.867 39.5631C49.7421 38.4403 49.7378 37.3072 49.8542 36.1835C49.939 35.3681 50.5722 34.7417 51.3882 34.6659L53.6509 34.4555C54.8851 34.3408 55.4784 32.8921 54.6792 31.9447L53.2147 30.2085C52.6863 29.5821 52.6742 28.6914 53.1856 28.051C53.8908 27.1677 54.689 26.3629 55.5665 25.6505C56.2029 25.1338 57.0937 25.1386 57.7245 25.662L59.4727 27.1128C60.4266 27.9043 61.8703 27.2994 61.9751 26.0645L62.1673 23.7994C62.2366 22.9824 62.8585 22.3438 63.6735 22.2531C64.2485 22.1891 64.833 22.1562 65.4251 22.1562ZM65.4251 30.7839C61.5439 30.7839 58.3977 33.9303 58.3977 37.8116C58.3977 41.6928 61.544 44.8391 65.4251 44.8391C69.3064 44.8391 72.4528 41.6927 72.4528 37.8116C72.4526 33.9303 69.3064 30.7839 65.4251 30.7839Z" fill="#102694"/>
<path fill-rule="evenodd" clip-rule="evenodd" d="M65.9295 61.8256L80.5292 54.5275C85.6921 51.9466 88.2282 53.6034 89.4453 55.2815C89.6169 55.516 89.7371 55.7841 89.798 56.0682C89.8589 56.3523 89.8591 56.6461 89.7985 56.9303C89.738 57.2146 89.6181 57.4828 89.4468 57.7174C89.2754 57.9521 89.0564 58.1479 88.8041 58.2921L68.0414 70.2793C64.9055 72.0899 61.7991 72.9222 58.1779 72.9222H53.4363C50.72 72.9222 48.388 74.2688 47.0298 76.6211L43.6429 82.4875L28.8335 73.9373L35.0823 63.114C39.3379 55.7431 45.4812 56.4769 50.4588 58.1271H62.2307C64.265 58.1269 65.9295 59.7913 65.9295 61.8256Z" fill="#333333"/>
<path fill-rule="evenodd" clip-rule="evenodd" d="M53.3643 65.5246H62.2303C64.2646 65.5246 65.929 63.8601 65.929 61.8257H49.6655C49.6655 63.8602 51.33 65.5247 53.3643 65.5246Z" fill="#333333"/>
<path fill-rule="evenodd" clip-rule="evenodd" d="M30.9855 70.1902L45.8116 78.7499C47.1171 79.5037 47.5672 81.1833 46.8134 82.4888L45.0886 85.4762C44.3348 86.7818 42.6551 87.2318 41.3496 86.4781L26.5235 77.9184C25.2181 77.1647 24.7679 75.4851 25.5217 74.1795L27.2466 71.1919C28.0003 69.8864 29.6799 69.4364 30.9855 70.1902Z" fill="#102694"/>
<defs>
<filter id="filter0_d_502_858" x="0" y="0" width="118" height="118" filterUnits="userSpaceOnUse" color-interpolation-filters="sRGB">
<feFlood flood-opacity="0" result="BackgroundImageFix"/>
<feColorMatrix in="SourceAlpha" type="matrix" values="0 0 0 0 0 0 0 0 0 0 0 0 0 0 0 0 0 0 127 0" result="hardAlpha"/>
<feOffset dx="2" dy="4"/>
<feGaussianBlur stdDeviation="3.5"/>
<feComposite in2="hardAlpha" operator="out"/>
<feColorMatrix type="matrix" values="0 0 0 0 0 0 0 0 0 0 0 0 0 0 0 0 0 0 0.06 0"/>
<feBlend mode="normal" in2="BackgroundImageFix" result="effect1_dropShadow_502_858"/>
<feBlend mode="normal" in="SourceGraphic" in2="effect1_dropShadow_502_858" result="shape"/>
</filter>
</defs>
</svg>
