<svg width="100" height="100" viewBox="0 0 100 100" fill="none" xmlns="http://www.w3.org/2000/svg">
<path d="M90.5417 54.6668C86.8804 53.7273 83.3318 52.3931 79.9584 50.6876C78.9168 50.1668 77.9584 49.6668 77.0834 49.1876C75.3542 48.2293 73.9793 47.3751 73.0834 46.7918C73.0323 46.7559 72.9762 46.7278 72.9167 46.7085C72.2563 46.3235 71.5027 46.1277 70.7384 46.1424C69.9741 46.1571 69.2286 46.3817 68.5834 46.7918C63.208 50.307 57.318 52.9638 51.1251 54.6668C50.2134 54.8883 49.4021 55.4087 48.8206 56.145C48.2392 56.8813 47.9209 57.7911 47.9168 58.7293V62.2918C47.9146 67.4367 49.1839 72.5025 51.6118 77.0385C54.0397 81.5745 57.551 85.4402 61.8334 88.2918L63.7709 89.5835L68.5209 92.7501C68.8975 92.9982 69.313 93.1813 69.7501 93.2918H69.7709C70.1125 93.4095 70.4722 93.466 70.8334 93.4585C71.6566 93.4514 72.46 93.2053 73.1459 92.7501L79.8334 88.2918C84.1158 85.4402 87.6271 81.5745 90.055 77.0385C92.483 72.5025 93.7523 67.4367 93.7501 62.2918V58.7293C93.7459 57.7911 93.4277 56.8813 92.8462 56.145C92.2647 55.4087 91.4534 54.8883 90.5417 54.6668ZM78.5626 66.0626L70.2292 74.396C69.8343 74.7833 69.3032 75.0003 68.7501 75.0003C68.1969 75.0003 67.6658 74.7833 67.2709 74.396L63.1043 70.2293C62.712 69.837 62.4916 69.3049 62.4916 68.7501C62.4916 68.1954 62.712 67.6633 63.1043 67.271C63.4966 66.8787 64.0286 66.6583 64.5834 66.6583C65.1382 66.6583 65.6703 66.8787 66.0626 67.271L68.7501 69.9793L75.6042 63.1043C75.7985 62.9101 76.0291 62.756 76.2829 62.6509C76.5367 62.5457 76.8087 62.4916 77.0834 62.4916C77.3581 62.4916 77.6301 62.5457 77.8839 62.6509C78.1377 62.756 78.3683 62.9101 78.5626 63.1043C78.7568 63.2986 78.9109 63.5292 79.016 63.783C79.1212 64.0368 79.1753 64.3088 79.1753 64.5835C79.1753 64.8582 79.1212 65.1302 79.016 65.384C78.9109 65.6378 78.7568 65.8684 78.5626 66.0626Z" fill="#4F694D"/>
<path d="M74.125 27.5834L56.3125 9.37503C55.6732 8.72806 54.9517 8.16773 54.1667 7.70836V22.9167C54.1716 24.5728 54.8317 26.1596 56.0027 27.3306C57.1737 28.5017 58.7606 29.1617 60.4167 29.1667H75.3958C75.02 28.6023 74.5947 28.0724 74.125 27.5834ZM76.9583 33.3334H60.4167C57.654 33.3334 55.0045 32.2359 53.051 30.2824C51.0975 28.3289 50 25.6794 50 22.9167V6.33336C49.6279 6.27455 49.2517 6.24667 48.875 6.25003H16.6667C13.904 6.25003 11.2545 7.34749 9.30097 9.301C7.34747 11.2545 6.25 13.904 6.25 16.6667V83.3334C6.25 86.096 7.34747 88.7456 9.30097 90.6991C11.2545 92.6526 13.904 93.75 16.6667 93.75H62.5208L59.5208 91.75C54.6667 88.5212 50.6865 84.1418 47.9348 79.002C45.1832 73.8622 43.7456 68.1217 43.75 62.2917V58.7292C43.7508 57.4408 44.0503 56.1701 44.6251 55.0169C45.1999 53.8638 46.0342 52.8596 47.0625 52.0834H20.8333C20.2808 52.0834 19.7509 51.8639 19.3602 51.4732C18.9695 51.0825 18.75 50.5526 18.75 50C18.75 49.4475 18.9695 48.9176 19.3602 48.5269C19.7509 48.1362 20.2808 47.9167 20.8333 47.9167H57.7917C60.7417 46.5864 63.5897 45.0406 66.3125 43.2917C67.534 42.5157 68.935 42.0677 70.3801 41.9911C71.8253 41.9144 73.2658 42.2117 74.5625 42.8542L74.7083 42.9167L75.3333 43.2917C75.7708 43.5834 76.3542 43.9375 77.0833 44.375V34.875C77.084 34.3586 77.0422 33.843 76.9583 33.3334ZM43.75 75C43.75 75.5526 43.5305 76.0825 43.1398 76.4732C42.7491 76.8639 42.2192 77.0834 41.6667 77.0834H20.8333C20.2808 77.0834 19.7509 76.8639 19.3602 76.4732C18.9695 76.0825 18.75 75.5526 18.75 75C18.75 74.4475 18.9695 73.9176 19.3602 73.5269C19.7509 73.1362 20.2808 72.9167 20.8333 72.9167H41.6667C42.2192 72.9167 42.7491 73.1362 43.1398 73.5269C43.5305 73.9176 43.75 74.4475 43.75 75ZM20.8333 60.4167H37.5C38.0525 60.4167 38.5824 60.6362 38.9731 61.0269C39.3638 61.4176 39.5833 61.9475 39.5833 62.5C39.5833 63.0526 39.3638 63.5825 38.9731 63.9732C38.5824 64.3639 38.0525 64.5834 37.5 64.5834H20.8333C20.2808 64.5834 19.7509 64.3639 19.3602 63.9732C18.9695 63.5825 18.75 63.0526 18.75 62.5C18.75 61.9475 18.9695 61.4176 19.3602 61.0269C19.7509 60.6362 20.2808 60.4167 20.8333 60.4167ZM20.8333 22.9167H37.5C38.0525 22.9167 38.5824 23.1362 38.9731 23.5269C39.3638 23.9176 39.5833 24.4475 39.5833 25C39.5833 25.5526 39.3638 26.0825 38.9731 26.4732C38.5824 26.8639 38.0525 27.0834 37.5 27.0834H20.8333C20.2808 27.0834 19.7509 26.8639 19.3602 26.4732C18.9695 26.0825 18.75 25.5526 18.75 25C18.75 24.4475 18.9695 23.9176 19.3602 23.5269C19.7509 23.1362 20.2808 22.9167 20.8333 22.9167ZM50 39.5834H20.8333C20.2808 39.5834 19.7509 39.3639 19.3602 38.9732C18.9695 38.5825 18.75 38.0526 18.75 37.5C18.75 36.9475 18.9695 36.4176 19.3602 36.0269C19.7509 35.6362 20.2808 35.4167 20.8333 35.4167H50C50.5525 35.4167 51.0824 35.6362 51.4731 36.0269C51.8638 36.4176 52.0833 36.9475 52.0833 37.5C52.0833 38.0526 51.8638 38.5825 51.4731 38.9732C51.0824 39.3639 50.5525 39.5834 50 39.5834Z" fill="#4F694D"/>
</svg>
