<svg width="118" height="118" viewBox="0 0 118 118" fill="none" xmlns="http://www.w3.org/2000/svg">
<g filter="url(#filter0_d_502_935)">
<rect x="5" y="3" width="104" height="104" rx="10" fill="white"/>
</g>
<g clip-path="url(#clip0_502_935)">
<path fill-rule="evenodd" clip-rule="evenodd" d="M76.9586 56.8955H38.0417C33.3939 56.8955 29.6216 53.1073 29.6216 48.4595C29.6216 45.8969 30.7517 43.5093 32.7095 41.9176C32.3434 40.9467 32.1365 39.9121 32.1365 38.8616C32.1365 35.328 34.3171 32.2242 37.5323 30.9827C37.5164 30.7439 37.5005 30.5052 37.5005 30.2664C37.5005 24.6159 42.1164 20 47.7669 20C52.6693 20 56.8077 23.4062 57.8105 28.0858C59.9593 28.1495 61.9171 29.2318 63.1268 30.9509C64.5275 30.155 66.0873 29.7253 67.7268 29.7253C72.8361 29.7253 76.9904 33.8796 76.9904 38.9889C76.9904 39.3391 76.9586 39.6734 76.9268 40.0235H76.9586C81.6064 40.0235 85.3787 43.8118 85.3787 48.4595C85.3787 53.1073 81.6064 56.8955 76.9586 56.8955Z" fill="#333333"/>
<path fill-rule="evenodd" clip-rule="evenodd" d="M47.3533 66.2705H37.3097C36.6571 66.2705 36.1318 65.7453 36.1318 65.0927C36.1318 64.456 36.6571 63.9308 37.3097 63.9308H46.1754V55.7176C46.1754 55.0809 46.7007 54.5557 47.3533 54.5557C48.0059 54.5557 48.5311 55.0809 48.5311 55.7176V65.0927C48.5311 65.7453 48.0059 66.2705 47.3533 66.2705Z" fill="#102694"/>
<path fill-rule="evenodd" clip-rule="evenodd" d="M34.1738 69.4062C31.8022 69.4062 29.8604 67.4802 29.8604 65.0927C29.8604 62.7211 31.8022 60.7951 34.1738 60.7951C36.5455 60.7951 38.4873 62.7211 38.4873 65.0927C38.4873 67.4802 36.5455 69.4062 34.1738 69.4062ZM77.6908 66.2705H67.6472C66.9946 66.2705 66.4694 65.7453 66.4694 65.0927V55.7176C66.4694 55.0809 66.9946 54.5557 67.6472 54.5557C68.2998 54.5557 68.8251 55.0809 68.8251 55.7176V63.9308H77.6908C78.3275 63.9308 78.8527 64.456 78.8527 65.0927C78.8527 65.7453 78.3275 66.2705 77.6908 66.2705Z" fill="#102694"/>
<path fill-rule="evenodd" clip-rule="evenodd" d="M80.8263 69.4062C78.4547 69.4062 76.5128 67.4802 76.5128 65.0927C76.5128 62.7211 78.4547 60.7951 80.8263 60.7951C83.1979 60.7951 85.1239 62.7211 85.1239 65.0927C85.1239 67.4802 83.1979 69.4062 80.8263 69.4062ZM52.4304 77.5397H42.3868C41.7342 77.5397 41.209 77.0145 41.209 76.3778C41.209 75.7252 41.7342 75.2 42.3868 75.2H51.2526V55.7176C51.2526 55.0809 51.7778 54.5557 52.4304 54.5557C53.0671 54.5557 53.5924 55.0809 53.5924 55.7176V76.3778C53.5924 77.0145 53.0671 77.5397 52.4304 77.5397Z" fill="#102694"/>
<path fill-rule="evenodd" clip-rule="evenodd" d="M39.2515 80.6754C36.8799 80.6754 34.938 78.7494 34.938 76.3778C34.938 74.0062 36.8799 72.0643 39.2515 72.0643C41.6231 72.0643 43.5491 74.0062 43.5491 76.3778C43.5491 78.7494 41.6231 80.6754 39.2515 80.6754ZM72.6134 77.5397H62.5698C61.9331 77.5397 61.4079 77.0145 61.4079 76.3778V55.7176C61.4079 55.0809 61.9331 54.5557 62.5698 54.5557C63.2224 54.5557 63.7477 55.0809 63.7477 55.7176V75.2H72.6134C73.266 75.2 73.7913 75.7252 73.7913 76.3778C73.7913 77.0145 73.266 77.5397 72.6134 77.5397Z" fill="#102694"/>
<path fill-rule="evenodd" clip-rule="evenodd" d="M75.7488 80.6754C73.3771 80.6754 71.4353 78.7494 71.4353 76.3778C71.4353 74.0062 73.3771 72.0643 75.7488 72.0643C78.1204 72.0643 80.0623 74.0062 80.0623 76.3778C80.0623 78.7494 78.1204 80.6754 75.7488 80.6754ZM57.492 82.7287C56.8553 82.7287 56.3301 82.2034 56.3301 81.5508V55.7176C56.3301 55.0809 56.8553 54.5557 57.492 54.5557C58.1446 54.5557 58.6699 55.0809 58.6699 55.7176V81.5508C58.6699 82.2034 58.1446 82.7287 57.492 82.7287Z" fill="#102694"/>
<path fill-rule="evenodd" clip-rule="evenodd" d="M57.4924 89C55.1208 89 53.1948 87.0582 53.1948 84.6865C53.1948 82.3149 55.1208 80.373 57.4924 80.373C59.8799 80.373 61.8059 82.3149 61.8059 84.6865C61.8059 87.0582 59.8799 89 57.4924 89Z" fill="#102694"/>
</g>
<defs>
<filter id="filter0_d_502_935" x="0" y="0" width="118" height="118" filterUnits="userSpaceOnUse" color-interpolation-filters="sRGB">
<feFlood flood-opacity="0" result="BackgroundImageFix"/>
<feColorMatrix in="SourceAlpha" type="matrix" values="0 0 0 0 0 0 0 0 0 0 0 0 0 0 0 0 0 0 127 0" result="hardAlpha"/>
<feOffset dx="2" dy="4"/>
<feGaussianBlur stdDeviation="3.5"/>
<feComposite in2="hardAlpha" operator="out"/>
<feColorMatrix type="matrix" values="0 0 0 0 0 0 0 0 0 0 0 0 0 0 0 0 0 0 0.06 0"/>
<feBlend mode="normal" in2="BackgroundImageFix" result="effect1_dropShadow_502_935"/>
<feBlend mode="normal" in="SourceGraphic" in2="effect1_dropShadow_502_935" result="shape"/>
</filter>
<clipPath id="clip0_502_935">
<rect width="69" height="69" fill="white" transform="translate(23 20)"/>
</clipPath>
</defs>
</svg>
