<svg width="100" height="100" viewBox="0 0 100 100" fill="none" xmlns="http://www.w3.org/2000/svg">
<path fill-rule="evenodd" clip-rule="evenodd" d="M37.5737 41.0617C42.67 55.9328 57.3347 55.9328 62.4271 41.0568L62.4317 41.0826C68.3466 41.3928 71.3474 28.5975 64.1517 31.2713C64.0729 33.066 63.8919 34.7453 63.6216 36.3082C56.1276 36.0074 48.1724 30.6582 39.7548 20.2613C38.3237 22.3898 37.0212 26.06 35.8483 31.2713C28.6526 28.5975 31.6532 41.3928 37.5688 41.0826L37.5737 41.0617ZM61.1321 55.2559C61.9487 55.457 62.7672 55.6502 63.5876 55.8354V68.7879C63.2129 68.9682 62.8713 69.2105 62.5772 69.5045L62.5712 69.5113C61.9067 70.1756 61.4952 71.0924 61.4952 72.102C61.4952 73.1125 61.9065 74.0285 62.5712 74.6936L62.5772 74.7002C63.2419 75.3639 64.1587 75.7758 65.1685 75.7758C66.1788 75.7758 67.0952 75.3639 67.7603 74.7002L67.7667 74.6936C68.4308 74.0285 68.8427 73.1125 68.8427 72.102C68.8427 71.0877 68.431 70.1691 67.7661 69.5047H67.7603C67.4657 69.211 67.124 68.9688 66.7493 68.7881V56.5576C71.8722 57.7584 77.3212 59.309 80.6888 62.5037C86.6759 68.1881 88.0417 78.0113 89.6501 86.6205C87.3333 89.6578 83.7792 91.3955 80.0696 91.4504L80.2188 91.4469L78.7776 74.2947C78.7605 74.0879 78.7029 73.8865 78.608 73.702C78.513 73.5175 78.3827 73.3535 78.2244 73.2194C78.0661 73.0852 77.8829 72.9836 77.6853 72.9202C77.4877 72.8569 77.2795 72.8331 77.0728 72.8502C76.8659 72.8672 76.6645 72.9247 76.4799 73.0196C76.2954 73.1144 76.1313 73.2448 75.9972 73.4031C75.863 73.5613 75.7613 73.7445 75.698 73.9421C75.6347 74.1397 75.6109 74.3479 75.628 74.5547L77.0194 91.1109L77.0147 91.1092C74.7866 95.1916 65.0556 98.2424 53.2536 98.7217V86.0453L50.3114 77.7594L61.1321 55.2559ZM49.9999 98.7875C36.7688 98.7875 25.4161 95.5603 22.9858 91.1096L24.3772 74.5541C24.4487 73.6846 23.8021 72.9207 22.9323 72.8496C22.7256 72.8325 22.5175 72.8563 22.32 72.9197C22.1224 72.983 21.9393 73.0847 21.7811 73.2188C21.6228 73.353 21.4926 73.517 21.3978 73.7015C21.3029 73.886 21.2454 74.0874 21.2284 74.2941L19.7866 91.4463L19.9358 91.4498C16.2243 91.3967 12.6683 89.659 10.3501 86.6199C11.9585 78.0109 13.3243 68.1875 19.3112 62.5031C22.6788 59.3053 28.128 57.758 33.2507 56.557V67.859C31.3892 67.9809 29.7069 68.7916 28.4577 70.0385L28.4548 70.0426L28.4515 70.0451C27.0952 71.4041 26.2554 73.273 26.2554 75.3283V80.4627C26.2556 80.8818 26.4222 81.2838 26.7187 81.5801C27.0151 81.8764 27.4171 82.0429 27.8362 82.043C28.2553 82.0429 28.6572 81.8763 28.9536 81.58C29.25 81.2837 29.4165 80.8818 29.4167 80.4627V75.3283C29.4158 74.7611 29.527 74.1993 29.7438 73.6752C29.9606 73.1511 30.2788 72.675 30.6802 72.2742L30.6868 72.2676C31.0877 71.8663 31.5638 71.5481 32.088 71.3312C32.6121 71.1144 33.1739 71.0033 33.7411 71.0041H35.9224C36.4895 71.0034 37.0511 71.1146 37.5752 71.3314C38.0992 71.5482 38.5753 71.8664 38.9761 72.2676V72.2742C39.7599 73.0578 40.246 74.1395 40.246 75.3283V80.3334C40.246 80.7527 40.4125 81.1548 40.7089 81.4513C41.0053 81.7478 41.4074 81.9145 41.8267 81.9146C42.246 81.9145 42.6481 81.7479 42.9445 81.4514C43.241 81.1548 43.4075 80.7527 43.4075 80.3334V75.3283C43.4075 73.2656 42.5671 71.3939 41.2114 70.0385L41.2081 70.0426C39.9585 68.7932 38.2749 67.9807 36.412 67.8588V55.8354C37.2606 55.6424 38.0845 55.4529 38.8687 55.2559L49.9999 86.6059V98.7875ZM48.3501 5.12461C48.3501 4.69317 48.5215 4.27939 48.8266 3.97432C49.1316 3.66924 49.5454 3.49785 49.9769 3.49785C50.4083 3.49785 50.8221 3.66924 51.1271 3.97432C51.4322 4.27939 51.6036 4.69317 51.6036 5.12461V6.50469H52.9841C53.4102 6.51277 53.816 6.68771 54.1145 6.99189C54.413 7.29606 54.5802 7.7052 54.5802 8.13135C54.5802 8.5575 54.413 8.96663 54.1145 9.27081C53.816 9.57499 53.4102 9.74992 52.9841 9.75801H51.6036V11.1387C51.597 11.5657 51.4227 11.9731 51.1183 12.2728C50.814 12.5724 50.404 12.7404 49.9769 12.7404C49.5497 12.7404 49.1397 12.5724 48.8354 12.2728C48.531 11.9731 48.3567 11.5657 48.3501 11.1387V9.75801H46.9702C46.7566 9.75806 46.545 9.71602 46.3476 9.6343C46.1502 9.55258 45.9709 9.43278 45.8198 9.28174C45.6687 9.13069 45.5489 8.95136 45.4671 8.75399C45.3853 8.55663 45.3433 8.34508 45.3433 8.13144C45.3433 7.69998 45.5147 7.28621 45.8199 6.98114C46.125 6.67607 46.5388 6.50469 46.9702 6.50469H48.3501V5.12461ZM31.9544 5.96777C43.1329 -0.37207 56.8204 -0.37207 67.9997 5.96777L61.7308 15.05H38.2229L31.9544 5.96777ZM65.47 52.9324C72.4987 49.5703 76.4362 44.0742 75.4257 36.3496C74.6075 29.2691 71.4798 20.4561 66.5427 13.8064L63.4384 18.3035H36.5159L33.4341 13.8381C28.5108 20.4842 25.3917 29.2809 24.5749 36.3496C23.5597 44.1096 27.6853 49.5389 34.8353 52.8621C35.9214 52.6146 36.9858 52.3707 38.0106 52.1158C38.3005 52.0279 38.9739 51.8203 39.1175 51.6863C39.2567 51.5201 39.344 51.0598 39.3974 50.5775C42.1702 53.5225 45.8296 55.4701 50.0054 55.4693C54.1331 55.4684 57.819 53.5461 60.604 50.5834C60.6575 51.0639 60.7448 51.5209 60.8839 51.6861C61.0272 51.8201 61.7005 52.0279 61.9903 52.1156C63.1106 52.3949 64.2782 52.6603 65.47 52.9324Z" fill="#4F694D"/>
</svg>
