<svg width="100" height="100" viewBox="0 0 100 100" fill="none" xmlns="http://www.w3.org/2000/svg">
<path d="M98.485 40.6061V30.9092H90.7577V9.69703C90.7577 9.24248 90.4547 8.93945 90.0001 8.93945H48.6365C48.1819 8.93945 47.8789 9.24248 47.8789 9.69703V20.3031C41.9698 20.7576 37.1213 25.6061 37.1213 31.6667H60.1516C60.1516 25.6061 55.3032 20.6061 49.3941 20.3031V10.4546H89.3941V30.9092H80.4547V40.6061H87.2729V44.394H80.4547V86.6667H98.485V44.394H91.6668V40.6061H98.485Z" fill="#4F694D"/>
<path d="M73.3333 57.8789C76.0111 57.8789 78.1818 55.7081 78.1818 53.0304C78.1818 50.3526 76.0111 48.1819 73.3333 48.1819C70.6556 48.1819 68.4849 50.3526 68.4849 53.0304C68.4849 55.7081 70.6556 57.8789 73.3333 57.8789Z" fill="#4F694D"/>
<path d="M6.81823 40C5.45459 38.0303 6.21217 35.3031 8.18187 33.9394C10.1516 32.7273 12.8788 33.1819 14.091 35.3031C14.697 36.2122 16.3637 38.3334 19.394 38.4849V36.8182C19.5455 31.9697 15.7576 28.0303 11.0607 27.8788C6.21217 27.7273 2.27278 31.5152 2.12126 36.2122L1.5152 54.697C1.36369 59.091 4.5455 62.8788 8.93944 63.6364C8.93944 64.091 9.09096 64.697 9.09096 65.1516C9.84853 73.0303 9.39399 80 7.87884 85.6061C7.27278 87.8788 8.63641 90.3031 10.9091 90.9091C13.0304 91.5152 15.6061 90.3031 16.2122 87.8788C18.1819 80.7576 18.6364 71.9697 17.4243 62.1213C17.4243 61.5152 17.2728 60.7576 17.1213 60.1516C19.5455 56.8182 18.4849 53.9394 19.091 47.2728C13.4849 46.8182 8.93944 43.3334 6.81823 40ZM10.9091 26.3637C11.3637 26.5152 11.9697 26.5152 12.4243 26.5152H12.5758C16.5152 26.3637 19.5455 23.0304 19.394 19.091C19.2425 15.1516 16.0607 12.1213 11.9697 12.2728C8.03035 12.4243 5.00005 15.7576 5.15156 19.697C5.30308 23.0304 7.72732 25.7576 10.9091 26.3637Z" fill="#4F694D"/>
<path d="M28.7879 43.182C30.1516 42.4244 30.6061 40.6062 29.8485 39.2426C29.091 37.8789 27.2728 37.4244 25.9091 38.182C20.6061 41.2123 15.7576 40.1517 13.0304 36.0608C12.1213 34.8486 10.3031 34.3941 8.93945 35.3032C7.57581 36.0608 7.27278 37.8789 8.03036 39.2426C12.1213 45.4547 20.3031 48.182 28.7879 43.182ZM76.6667 59.0911H62.8788C65.7576 58.788 68.0304 56.3638 68.0304 53.3335C68.0304 50.1517 65.4546 47.5759 62.2728 47.5759H59.394V45.9092H28.6364C25.3031 45.9092 22.5758 48.6365 22.5758 51.9698V59.0911H21.9698C21.2122 59.0911 20.4546 59.6971 20.4546 60.6062C20.4546 61.3638 21.0607 62.1214 21.9698 62.1214H38.1819V81.2123C36.8182 81.5153 35.7576 82.8789 35.7576 84.2426C35.7576 86.0608 37.1213 87.4244 38.9395 87.4244C40.7576 87.4244 42.1213 86.0608 42.1213 84.2426C42.1213 82.7274 41.0607 81.5153 39.697 81.2123V80.3032H59.091V81.2123C57.7273 81.5153 56.6667 82.8789 56.6667 84.2426C56.6667 86.0608 58.0304 87.4244 59.8485 87.4244C61.6667 87.4244 63.0304 86.0608 63.0304 84.2426C63.0304 82.7274 61.9698 81.3638 60.4546 81.0608V61.9698H76.6667C77.4243 61.9698 78.1819 61.3638 78.1819 60.4547C78.1819 59.6971 77.4243 59.0911 76.6667 59.0911ZM23.7879 51.8183C23.7879 49.2426 25.9091 46.9698 28.6364 46.9698H58.3334V59.0911H23.7879V51.8183ZM39.5455 82.5759C40.1516 82.8789 40.6061 83.485 40.6061 84.0911C40.6061 85.0002 39.8485 85.7577 38.9395 85.7577C38.0304 85.7577 37.2728 85.0002 37.2728 84.0911C37.2728 83.3335 37.7273 82.7274 38.3334 82.5759V83.3335C38.3334 83.788 38.6364 84.0911 39.091 84.0911C39.5455 84.0911 39.8485 83.788 39.8485 83.3335L39.5455 82.5759ZM61.6667 84.2426C61.6667 85.1517 60.9091 85.9092 60.0001 85.9092C59.091 85.9092 58.3334 85.1517 58.3334 84.2426C58.3334 83.6365 58.6364 83.0305 59.2425 82.7274V83.3335C59.2425 83.788 59.5455 84.0911 60.0001 84.0911C60.4546 84.0911 60.7576 83.788 60.7576 83.3335V82.5759C61.2122 82.7274 61.6667 83.485 61.6667 84.2426ZM59.091 78.6365H39.5455V61.9698H59.091V78.6365Z" fill="#4F694D"/>
</svg>
