<svg width="118" height="118" viewBox="0 0 118 118" fill="none" xmlns="http://www.w3.org/2000/svg">
<g filter="url(#filter0_d_502_923)">
<rect x="5" y="3" width="104" height="104" rx="10" fill="white"/>
</g>
<g clip-path="url(#clip0_502_923)">
<path d="M33.1074 78.2188V82.9355C33.1074 86.2795 35.8279 89 39.1719 89H43.2148C46.5588 89 49.2793 86.2795 49.2793 82.9355V78.2188H33.1074ZM41.1934 36.4414C31.1615 36.4414 23 44.6029 23 54.6348C23 60.0317 25.3752 65.1166 29.5165 68.5858C31.2641 70.0497 32.4401 72.0197 32.8954 74.1758H39.1719V60.8627L35.0471 56.7381C34.2576 55.9486 34.2576 54.6687 35.0471 53.8793C35.8366 53.0898 37.1164 53.0898 37.9059 53.8793L41.1934 57.1666L44.4808 53.8791C45.2703 53.0897 46.5502 53.0897 47.3396 53.8791C48.1291 54.6686 48.1291 55.9485 47.3396 56.7379L43.2148 60.8627V74.1758H49.4913C49.9467 72.0195 51.1226 70.0497 52.8703 68.5858C57.0115 65.1166 59.3867 60.0317 59.3867 54.6348C59.3867 44.6029 51.2252 36.4414 41.1934 36.4414ZM89.483 73.6944C89.5052 73.3958 89.516 73.1103 89.516 72.8281C89.516 72.5459 89.5052 72.2604 89.483 71.9617L91.3837 70.1238C91.7078 69.8104 91.9178 69.3977 91.9804 68.9513C92.043 68.5048 91.9546 68.0503 91.7291 67.6599L88.36 61.8242C88.1345 61.4339 87.785 61.1301 87.3671 60.9611C86.9492 60.7921 86.4868 60.7676 86.0533 60.8914L83.5075 61.6197C83.0278 61.2993 82.528 61.0102 82.0112 60.7539L81.3696 58.1873C81.2602 57.75 81.0078 57.3618 80.6524 57.0843C80.2971 56.8069 79.8592 56.6562 79.4084 56.6562H72.6702C72.2193 56.6563 71.7815 56.807 71.4261 57.0844C71.0708 57.3618 70.8184 57.7501 70.7091 58.1875L70.0674 60.7541C69.5506 61.0102 69.0508 61.2994 68.5711 61.6198L66.0253 60.8915C65.5918 60.7675 65.1294 60.792 64.7114 60.961C64.2935 61.1301 63.944 61.4339 63.7186 61.8244L60.3495 67.66C60.1241 68.0504 60.0356 68.505 60.0982 68.9514C60.1608 69.3978 60.3708 69.8105 60.6949 70.1239L62.5956 71.9618C62.5734 72.2605 62.5626 72.5461 62.5626 72.8283C62.5626 73.1105 62.5734 73.3959 62.5956 73.6945L60.6949 75.5325C60.3708 75.8458 60.1608 76.2585 60.0982 76.705C60.0356 77.1514 60.1241 77.606 60.3495 77.9964L63.7186 83.832C63.9441 84.2223 64.2936 84.5261 64.7115 84.6952C65.1294 84.8642 65.5918 84.8887 66.0253 84.7649L68.571 84.0366C69.0507 84.357 69.5506 84.6462 70.0674 84.9025L70.7091 87.4691C70.8184 87.9064 71.0708 88.2947 71.4261 88.5722C71.7814 88.8496 72.2193 89.0003 72.6702 89.0003H79.4084C79.8593 89.0003 80.2971 88.8496 80.6525 88.5721C81.0078 88.2947 81.2602 87.9064 81.3696 87.4691L82.0112 84.9025C82.528 84.6462 83.0279 84.357 83.5076 84.0366L86.0533 84.7649C86.4868 84.8889 86.9493 84.8645 87.3672 84.6955C87.7852 84.5264 88.1346 84.2225 88.36 83.832L91.7291 77.9964C91.9545 77.606 92.043 77.1514 91.9804 76.705C91.9178 76.2586 91.7078 75.8458 91.3837 75.5325L89.483 73.6944ZM76.0393 78.8926C72.6954 78.8926 69.9748 76.1721 69.9748 72.8281C69.9748 69.4842 72.6954 66.7637 76.0393 66.7637C79.3832 66.7637 82.1038 69.4842 82.1038 72.8281C82.1038 76.1721 79.3832 78.8926 76.0393 78.8926Z" fill="#333333"/>
<path d="M82.8594 43.5023C82.0699 42.7129 80.7901 42.7129 80.0006 43.5023L78.0608 45.4421V30.1074C78.0608 24.5342 73.5266 20 67.9534 20H49.2793C43.7061 20 39.1719 24.5342 39.1719 30.1074V32.4913C39.8379 32.4309 40.5118 32.3984 41.1934 32.3984C41.8749 32.3984 42.5488 32.4309 43.2148 32.4913V30.1074C43.2148 26.7635 45.9354 24.043 49.2793 24.043H67.9534C71.2973 24.043 74.0178 26.7635 74.0178 30.1074V45.442L72.078 43.5022C71.2885 42.7127 70.0087 42.7127 69.2192 43.5022C68.4298 44.2916 68.4298 45.5715 69.2192 46.361L74.6098 51.7516C75.3993 52.541 76.6792 52.541 77.4686 51.7516L82.8593 46.361C83.6488 45.5716 83.6488 44.2916 82.8594 43.5023Z" fill="#102694"/>
</g>
<defs>
<filter id="filter0_d_502_923" x="0" y="0" width="118" height="118" filterUnits="userSpaceOnUse" color-interpolation-filters="sRGB">
<feFlood flood-opacity="0" result="BackgroundImageFix"/>
<feColorMatrix in="SourceAlpha" type="matrix" values="0 0 0 0 0 0 0 0 0 0 0 0 0 0 0 0 0 0 127 0" result="hardAlpha"/>
<feOffset dx="2" dy="4"/>
<feGaussianBlur stdDeviation="3.5"/>
<feComposite in2="hardAlpha" operator="out"/>
<feColorMatrix type="matrix" values="0 0 0 0 0 0 0 0 0 0 0 0 0 0 0 0 0 0 0.06 0"/>
<feBlend mode="normal" in2="BackgroundImageFix" result="effect1_dropShadow_502_923"/>
<feBlend mode="normal" in="SourceGraphic" in2="effect1_dropShadow_502_923" result="shape"/>
</filter>
<clipPath id="clip0_502_923">
<rect width="69" height="69" fill="white" transform="translate(23 20)"/>
</clipPath>
</defs>
</svg>
