<svg width="118" height="118" viewBox="0 0 118 118" fill="none" xmlns="http://www.w3.org/2000/svg">
<g filter="url(#filter0_d_502_838)">
<rect x="5" y="3" width="104" height="104" rx="10" fill="white"/>
</g>
<path d="M67.5804 82.9008H47.4194L49.1175 73.0898H65.8823L67.5804 82.9008Z" fill="#333333"/>
<path d="M67.5804 82.9008H63.5374L61.8394 73.0898H65.8823L67.5804 82.9008Z" fill="#333333"/>
<path d="M92 28.2842V69.8944C92 72.2137 90.1133 74.1004 87.794 74.1004H27.206C25.1738 74.1004 23.473 72.6517 23.0849 70.7313C23.0283 70.4618 23 70.1814 23 69.8944V28.2842C23 25.9648 24.8867 24.0781 27.206 24.0781H87.794C90.1133 24.0781 92 25.9648 92 28.2842Z" fill="#102694"/>
<path d="M92.0001 28.2842V69.8944C92.0001 72.2137 90.1133 74.1004 87.794 74.1004H27.2061C25.1738 74.1004 23.4731 72.6517 23.085 70.7313H84.4249C86.7482 70.7313 88.6309 68.8486 88.6309 66.5253V28.2842C88.6309 25.9608 86.7482 24.0781 84.4249 24.0781H87.794C90.1133 24.0781 92.0001 25.9648 92.0001 28.2842Z" fill="#102694"/>
<path d="M92 67.6992V69.8946C92 72.2139 90.1133 74.1006 87.794 74.1006H27.206C25.1738 74.1006 23.473 72.6519 23.0849 70.7314C23.0283 70.4619 23 70.1816 23 69.8946V67.6992H92Z" fill="#333333"/>
<path d="M88.4652 67.6992H92.0001V69.8946C92.0001 72.2139 90.1133 74.1006 87.794 74.1006H27.2061C25.1738 74.1006 23.4731 72.6519 23.085 70.7314H84.4249C86.3399 70.7314 87.9571 69.4512 88.4652 67.6992Z" fill="#333333"/>
<path d="M84.9881 55.9566H81.5043L78.5777 50.2042C78.4931 50.038 78.3642 49.8984 78.2052 49.8009C78.0462 49.7035 77.8633 49.6519 77.6768 49.6519C77.4903 49.6519 77.3074 49.7035 77.1484 49.8009C76.9894 49.8984 76.8605 50.038 76.7759 50.2042L72.006 59.5792L67.9808 51.6678C67.8962 51.5016 67.7673 51.362 67.6083 51.2645C67.4493 51.167 67.2664 51.1154 67.0799 51.1154C66.8934 51.1154 66.7105 51.167 66.5515 51.2645C66.3925 51.362 66.2636 51.5016 66.179 51.6678L63.997 55.9564H60.5132C60.2451 55.9564 59.988 56.0629 59.7985 56.2525C59.6089 56.442 59.5024 56.6991 59.5024 56.9672C59.5024 57.2352 59.6089 57.4923 59.7985 57.6819C59.988 57.8714 60.2451 57.9779 60.5132 57.9779H64.6168C64.8033 57.9779 64.9862 57.9263 65.1452 57.8288C65.3042 57.7313 65.4331 57.5917 65.5177 57.4255L67.0799 54.3551L71.1051 62.2665C71.1897 62.4328 71.3186 62.5723 71.4776 62.6698C71.6366 62.7673 71.8195 62.8189 72.006 62.8189C72.1925 62.8189 72.3754 62.7673 72.5344 62.6698C72.6934 62.5723 72.8223 62.4328 72.9069 62.2665L77.6768 52.8916L79.9836 57.4256C80.0682 57.5919 80.1971 57.7314 80.3561 57.8289C80.5151 57.9264 80.698 57.978 80.8845 57.978H84.9881C85.2562 57.978 85.5133 57.8715 85.7028 57.682C85.8924 57.4924 85.9988 57.2354 85.9988 56.9673C85.9988 56.6992 85.8924 56.4421 85.7028 56.2526C85.5133 56.063 85.2562 55.9566 84.9881 55.9566Z" fill="white"/>
<path d="M65.7586 34.333H60.5137C60.335 34.333 60.1636 34.404 60.0372 34.5304C59.9108 34.6567 59.8398 34.8281 59.8398 35.0068V45.6471C59.8398 45.8258 59.9108 45.9972 60.0372 46.1236C60.1636 46.25 60.335 46.321 60.5137 46.321H65.7586C65.9373 46.321 66.1087 46.25 66.2351 46.1236C66.3615 45.9972 66.4324 45.8258 66.4324 45.6471V35.0068C66.4324 34.8281 66.3615 34.6567 66.2351 34.5304C66.1087 34.404 65.9373 34.333 65.7586 34.333Z" fill="white"/>
<path d="M75.409 37.2241H70.1641C69.9854 37.2241 69.814 37.2951 69.6876 37.4215C69.5612 37.5478 69.4902 37.7192 69.4902 37.8979V45.647C69.4902 45.8257 69.5612 45.9971 69.6876 46.1234C69.814 46.2498 69.9854 46.3208 70.1641 46.3208H75.409C75.5877 46.3208 75.7591 46.2498 75.8855 46.1234C76.0118 45.9971 76.0828 45.8257 76.0828 45.647V37.8979C76.0828 37.7192 76.0118 37.5478 75.8855 37.4215C75.7591 37.2951 75.5877 37.2241 75.409 37.2241Z" fill="white"/>
<path d="M84.9881 31.665H79.7432C79.5645 31.665 79.3931 31.736 79.2667 31.8624C79.1403 31.9888 79.0693 32.1602 79.0693 32.3389V45.6468C79.0693 45.8255 79.1403 45.9969 79.2667 46.1233C79.3931 46.2497 79.5645 46.3207 79.7432 46.3207H84.9881C85.1668 46.3207 85.3382 46.2497 85.4646 46.1233C85.5909 45.9969 85.6619 45.8255 85.6619 45.6468V32.3389C85.6619 32.1602 85.5909 31.9888 85.4646 31.8624C85.3382 31.736 85.1668 31.665 84.9881 31.665Z" fill="white"/>
<path d="M69.9257 80.8789H45.0742C43.9578 80.8789 43.0527 81.784 43.0527 82.9004C43.0527 84.0168 43.9578 84.9219 45.0742 84.9219H69.9258C71.0422 84.9219 71.9473 84.0168 71.9473 82.9004C71.9472 81.7839 71.0422 80.8789 69.9257 80.8789Z" fill="#333333"/>
<path d="M52.9043 42.7619H29.9941C29.7261 42.7619 29.469 42.8684 29.2794 43.0579C29.0899 43.2475 28.9834 43.5046 28.9834 43.7727C28.9834 44.0407 29.0899 44.2978 29.2794 44.4874C29.469 44.6769 29.7261 44.7834 29.9941 44.7834H52.9043C53.1724 44.7834 53.4294 44.6769 53.619 44.4874C53.8085 44.2978 53.915 44.0407 53.915 43.7727C53.915 43.5046 53.8085 43.2475 53.619 43.0579C53.4294 42.8684 53.1724 42.7619 52.9043 42.7619ZM29.9941 50.1526H34.094C34.362 50.1526 34.6191 50.0461 34.8087 49.8566C34.9982 49.667 35.1047 49.4099 35.1047 49.1418C35.1047 48.8738 34.9982 48.6167 34.8087 48.4271C34.6191 48.2376 34.362 48.1311 34.094 48.1311H29.9941C29.7261 48.1311 29.469 48.2376 29.2794 48.4271C29.0899 48.6167 28.9834 48.8738 28.9834 49.1418C28.9834 49.4099 29.0899 49.667 29.2794 49.8566C29.469 50.0461 29.7261 50.1526 29.9941 50.1526ZM52.9043 48.1311H38.7252C38.4571 48.1311 38.2001 48.2376 38.0105 48.4271C37.8209 48.6167 37.7145 48.8738 37.7145 49.1418C37.7145 49.4099 37.8209 49.667 38.0105 49.8566C38.2001 50.0461 38.4571 50.1526 38.7252 50.1526H52.9043C53.1724 50.1526 53.4294 50.0461 53.619 49.8566C53.8085 49.667 53.915 49.4099 53.915 49.1418C53.915 48.8738 53.8085 48.6167 53.619 48.4271C53.4294 48.2376 53.1724 48.1311 52.9043 48.1311ZM29.9941 33.3496H52.9043C53.1724 33.3496 53.4294 33.2431 53.619 33.0536C53.8085 32.864 53.915 32.6069 53.915 32.3389C53.915 32.0708 53.8085 31.8137 53.619 31.6242C53.4294 31.4346 53.1724 31.3281 52.9043 31.3281H29.9941C29.7261 31.3281 29.469 31.4346 29.2794 31.6242C29.0899 31.8137 28.9834 32.0708 28.9834 32.3389C28.9834 32.6069 29.0899 32.864 29.2794 33.0536C29.469 33.2431 29.7261 33.3496 29.9941 33.3496ZM29.9941 38.7189H44.2014C44.4695 38.7189 44.7266 38.6125 44.9161 38.4229C45.1057 38.2334 45.2121 37.9763 45.2121 37.7082C45.2121 37.4401 45.1057 37.183 44.9161 36.9935C44.7266 36.8039 44.4695 36.6975 44.2014 36.6975H29.9941C29.7261 36.6975 29.469 36.8039 29.2794 36.9935C29.0899 37.183 28.9834 37.4401 28.9834 37.7082C28.9834 37.9763 29.0899 38.2334 29.2794 38.4229C29.469 38.6125 29.7261 38.7189 29.9941 38.7189ZM52.9043 36.6975H48.8326C48.5646 36.6975 48.3075 36.8039 48.1179 36.9935C47.9284 37.183 47.8219 37.4401 47.8219 37.7082C47.8219 37.9763 47.9284 38.2334 48.1179 38.4229C48.3075 38.6125 48.5646 38.7189 48.8326 38.7189H52.9043C53.1724 38.7189 53.4294 38.6125 53.619 38.4229C53.8085 38.2334 53.915 37.9763 53.915 37.7082C53.915 37.4401 53.8085 37.183 53.619 36.9935C53.4294 36.8039 53.1724 36.6975 52.9043 36.6975ZM52.9043 53.4352H29.9941C29.7261 53.4352 29.469 53.5417 29.2794 53.7313C29.0899 53.9208 28.9834 54.1779 28.9834 54.446C28.9834 54.714 29.0899 54.9711 29.2794 55.1607C29.469 55.3502 29.7261 55.4567 29.9941 55.4567H52.9043C53.1724 55.4567 53.4294 55.3502 53.619 55.1607C53.8085 54.9711 53.915 54.714 53.915 54.446C53.915 54.1779 53.8085 53.9208 53.619 53.7313C53.4294 53.5417 53.1724 53.4352 52.9043 53.4352ZM40.7754 58.776H29.9941C29.7261 58.776 29.469 58.8825 29.2794 59.072C29.0899 59.2616 28.9834 59.5187 28.9834 59.7867C28.9834 60.0548 29.0899 60.3119 29.2794 60.5014C29.469 60.691 29.7261 60.7975 29.9941 60.7975H40.7754C41.0435 60.7975 41.3005 60.691 41.4901 60.5014C41.6796 60.3119 41.7861 60.0548 41.7861 59.7867C41.7861 59.5187 41.6796 59.2616 41.4901 59.072C41.3005 58.8825 41.0435 58.776 40.7754 58.776Z" fill="white"/>
<path d="M71.9473 82.9004C71.9473 84.0162 71.0416 84.9219 69.9258 84.9219H65.8828C66.9987 84.9219 67.9043 84.0162 67.9043 82.9004C67.9043 81.7832 66.9987 80.8789 65.8828 80.8789H69.9258C71.0416 80.8789 71.9473 81.7832 71.9473 82.9004Z" fill="#333333"/>
<defs>
<filter id="filter0_d_502_838" x="0" y="0" width="118" height="118" filterUnits="userSpaceOnUse" color-interpolation-filters="sRGB">
<feFlood flood-opacity="0" result="BackgroundImageFix"/>
<feColorMatrix in="SourceAlpha" type="matrix" values="0 0 0 0 0 0 0 0 0 0 0 0 0 0 0 0 0 0 127 0" result="hardAlpha"/>
<feOffset dx="2" dy="4"/>
<feGaussianBlur stdDeviation="3.5"/>
<feComposite in2="hardAlpha" operator="out"/>
<feColorMatrix type="matrix" values="0 0 0 0 0 0 0 0 0 0 0 0 0 0 0 0 0 0 0.06 0"/>
<feBlend mode="normal" in2="BackgroundImageFix" result="effect1_dropShadow_502_838"/>
<feBlend mode="normal" in="SourceGraphic" in2="effect1_dropShadow_502_838" result="shape"/>
</filter>
</defs>
</svg>
