<svg width="100" height="100" viewBox="0 0 100 100" fill="none" xmlns="http://www.w3.org/2000/svg">
<path d="M39.4603 34.354C39.4603 45.2427 48.2872 54.0696 59.1759 54.0696C70.0646 54.0696 78.8915 45.2427 78.8915 34.354C78.8915 23.4653 70.0646 14.6384 59.1759 14.6384C48.287 14.6382 39.4603 23.4653 39.4603 34.354ZM74.4995 34.354C74.4995 42.8167 67.6386 49.6776 59.1757 49.6776C50.713 49.6776 43.8521 42.8167 43.8521 34.354C43.8521 25.8913 50.713 19.0304 59.1757 19.0304C67.6386 19.0304 74.4995 25.8913 74.4995 34.354ZM46.9771 34.354C46.9771 41.0913 52.4384 46.5526 59.1757 46.5526C65.9132 46.5526 71.3745 41.0913 71.3745 34.354C71.3745 27.6167 65.9132 22.1554 59.1757 22.1554C52.4384 22.1552 46.9771 27.6165 46.9771 34.354ZM60.7382 26.1749V27.1735C61.7772 27.4153 62.7185 28.0354 63.3442 28.9007C63.5772 29.2362 63.6693 29.6496 63.6009 30.0523C63.5324 30.4549 63.3088 30.8147 62.9781 31.0544C62.6474 31.294 62.2359 31.3945 61.8319 31.3342C61.428 31.2738 61.0638 31.0576 60.8175 30.7317C60.5614 30.3778 60.1952 30.1856 59.7577 30.1856H58.8556C58.1423 30.1856 57.5526 30.7753 57.5526 31.4888C57.5526 32.2022 58.1423 32.7919 58.8556 32.7919H59.4962C61.9347 32.7919 63.9241 34.7813 63.9241 37.2198C63.9241 39.1858 62.6163 40.9187 60.7382 41.4698V42.5335C60.7382 42.9479 60.5736 43.3453 60.2805 43.6384C59.9875 43.9314 59.5901 44.096 59.1757 44.096C58.7613 44.096 58.3639 43.9314 58.0708 43.6384C57.7778 43.3453 57.6132 42.9479 57.6132 42.5335V41.5351C56.5644 41.2894 55.6392 40.674 55.0073 39.8017C54.7729 39.4663 54.68 39.0522 54.7486 38.6488C54.8172 38.2455 55.0418 37.8853 55.3738 37.6463C55.7059 37.4073 56.1187 37.3086 56.5229 37.3715C56.9272 37.4345 57.2904 37.654 57.5341 37.9827C57.786 38.3312 58.1647 38.5228 58.5938 38.5228H59.496C60.2095 38.5228 60.7989 37.9331 60.7989 37.2196C60.7989 36.5061 60.2093 35.9167 59.496 35.9167H58.8554C56.4169 35.9167 54.4274 33.9272 54.4274 31.4886C54.4274 29.5226 55.7353 27.7897 57.6132 27.2386V26.1749C57.6132 25.7605 57.7778 25.3631 58.0708 25.07C58.3639 24.777 58.7613 24.6124 59.1757 24.6124C59.5901 24.6124 59.9875 24.777 60.2805 25.07C60.5736 25.3631 60.7382 25.7605 60.7382 26.1749ZM26.0769 29.2073C25.8422 28.8674 25.7521 28.4481 25.8265 28.0418C25.9009 27.6354 26.1336 27.2753 26.4735 27.0405L30.4675 24.2864C31.2526 23.6915 32.3952 23.9626 32.82 24.8632L34.9321 29.3085C35.1086 29.6824 35.1292 30.1112 34.9896 30.5003C34.8499 30.8895 34.5613 31.2073 34.1874 31.3837C33.8135 31.5601 33.3847 31.5808 32.9956 31.4411C32.6064 31.3015 32.2886 31.0129 32.1122 30.639L31.936 30.2681C31.0053 36.4318 32.1987 42.7287 35.32 48.1245C38.1382 52.9956 42.3278 56.8673 47.4206 59.2649C47.7893 59.4446 48.0723 59.7623 48.2084 60.1492C48.3445 60.5361 48.3226 60.961 48.1476 61.3319C47.9726 61.7028 47.6585 61.9898 47.2733 62.1308C46.8882 62.2717 46.463 62.2552 46.0899 62.0849C40.4224 59.4165 35.7579 55.1085 32.6222 49.6872C29.0468 43.5061 27.7395 36.1376 28.9659 29.106L28.2433 29.6042C27.9033 29.8388 27.4841 29.9288 27.0779 29.8543C26.6716 29.7799 26.3116 29.5472 26.0769 29.2073ZM21.814 96.1823C21.987 96.8278 21.6007 97.497 20.9554 97.6698L16.0663 98.9798C15.421 99.1526 14.752 98.7665 14.579 98.121L7.49072 71.6677C7.31787 71.0222 7.7042 70.353 8.34931 70.1804L13.2384 68.8702C13.8835 68.6974 14.5526 69.0837 14.7257 69.7292L21.814 96.1823ZM82.8372 68.5714C84.3534 71.1981 83.4456 74.5874 80.8192 76.1036L51.3862 93.0964C49.0046 94.4714 46.4856 94.7089 43.8058 94.0944L32.036 91.3962C28.9833 90.6964 26.4466 91.1075 24.0378 92.4079L18.177 70.5356L22.6331 67.1231C24.8175 65.4505 27.3659 64.4284 30.0204 65.1509L50.5687 70.7437C53.8013 71.6235 55.7321 74.9989 54.8522 78.2313C54.1962 80.6368 51.6868 82.071 49.2813 81.4163L38.305 78.4288C38.107 78.3751 37.9004 78.3609 37.697 78.3871C37.4935 78.4132 37.2972 78.4792 37.1192 78.5812C36.9413 78.6832 36.7852 78.8193 36.6598 78.9817C36.5344 79.144 36.4423 79.3295 36.3886 79.5274C36.3349 79.7254 36.3207 79.932 36.3468 80.1355C36.373 80.3389 36.439 80.5352 36.541 80.7132C36.643 80.8911 36.7791 81.0472 36.9414 81.1726C37.1038 81.298 37.2892 81.3902 37.4872 81.4438L48.4636 84.4313C52.5286 85.538 56.7614 83.1138 57.8675 79.0491C58.0958 78.2126 58.1788 77.3431 58.113 76.4784L75.3052 66.5528C77.9315 65.0366 81.3214 65.945 82.8372 68.5714ZM86.9065 47.4395C84.4956 52.5606 79.4546 58.2462 74.4179 60.9562C68.1058 64.3524 60.986 65.7946 53.9276 64.5636L54.4259 65.2862C54.6529 65.6263 54.7371 66.0421 54.6603 66.4437C54.5835 66.8454 54.3519 67.2007 54.0154 67.4331C53.6789 67.6654 53.2646 67.7561 52.8618 67.6857C52.4589 67.6152 52.1 67.3892 51.8624 67.0564L49.1083 63.0624C48.5134 62.2772 48.7845 61.1347 49.6849 60.7099L54.1302 58.5978C54.5041 58.4213 54.9328 58.4006 55.322 58.5403C55.7112 58.6799 56.029 58.9684 56.2055 59.3424C56.3819 59.7163 56.4026 60.1451 56.263 60.5342C56.1233 60.9234 55.8348 61.2412 55.4608 61.4177L55.0899 61.5938C61.2394 62.5206 67.5669 61.5138 72.8702 58.2571C78.1685 55.0034 81.3772 51.8647 84.087 46.1093C84.2674 45.7419 84.585 45.4602 84.9713 45.3249C85.3575 45.1897 85.7815 45.2117 86.1517 45.3864C86.5218 45.561 86.8084 45.8742 86.9497 46.2583C87.0909 46.6425 87.0754 47.0667 86.9065 47.4395ZM31.445 21.2683C34.1175 15.5921 38.4173 10.9362 43.8489 7.80049C50.0856 4.19971 57.3327 2.90752 64.4241 4.14443L63.9259 3.42178C63.6988 3.08168 63.6146 2.66594 63.6914 2.26429C63.7682 1.86265 63.9999 1.5073 64.3363 1.27495C64.6728 1.04259 65.0872 0.951863 65.49 1.02234C65.8928 1.09282 66.2517 1.31885 66.4894 1.65166L69.2435 5.64561C69.8384 6.43076 69.5671 7.57334 68.6667 7.99814L64.2214 10.1103C63.8474 10.2867 63.4187 10.3074 63.0295 10.1677C62.6403 10.0281 62.3226 9.73957 62.1461 9.36562C61.9696 8.99168 61.949 8.56295 62.0886 8.17376C62.2282 7.78457 62.5168 7.46679 62.8907 7.29033L63.2616 7.11416C57.0798 6.18252 50.8173 7.37002 45.3991 10.4981C40.5333 13.3073 36.6585 17.5149 34.2647 22.5987C34.1785 22.7857 34.0561 22.9537 33.9046 23.093C33.7531 23.2324 33.5755 23.3404 33.382 23.4107C33.1886 23.4811 32.9831 23.5125 32.7774 23.503C32.5718 23.4935 32.3701 23.4434 32.1839 23.3556C31.9977 23.2677 31.8308 23.1439 31.6927 22.9912C31.5547 22.8385 31.4482 22.6599 31.3795 22.4659C31.3108 22.2718 31.2812 22.0661 31.2925 21.8605C31.3037 21.655 31.3556 21.4537 31.445 21.2683ZM91.878 41.6673L87.8841 44.4214C87.0989 45.0163 85.9563 44.745 85.5315 43.8446L83.4196 39.3993C83.2519 39.0267 83.2373 38.6031 83.3787 38.2197C83.5202 37.8363 83.8066 37.5238 84.1761 37.3494C84.5457 37.175 84.969 37.1527 85.3549 37.2873C85.7407 37.4218 86.0583 37.7025 86.2394 38.0688L86.4155 38.4397C87.3474 32.2567 86.1605 26.0024 83.0315 20.5833C80.2179 15.7097 76.0237 11.8405 70.931 9.44287C70.7458 9.35554 70.5796 9.23257 70.442 9.08101C70.3043 8.92944 70.1979 8.75224 70.1288 8.55952C70.0596 8.36681 70.0291 8.16236 70.039 7.95786C70.0489 7.75336 70.099 7.55281 70.1864 7.36768C70.2738 7.18251 70.3968 7.01637 70.5483 6.87874C70.6999 6.7411 70.8771 6.63467 71.0698 6.56551C71.2625 6.49636 71.4669 6.46584 71.6714 6.47569C71.8759 6.48555 72.0765 6.53558 72.2616 6.62295C77.9292 9.29131 82.5979 13.5968 85.7296 19.0206C89.33 25.2563 90.6222 32.5116 89.3856 39.6019L90.1083 39.1036C90.2765 38.9833 90.4669 38.8976 90.6685 38.8517C90.8702 38.8057 91.0789 38.8003 91.2826 38.8359C91.4863 38.8714 91.6809 38.9472 91.8551 39.0587C92.0292 39.1702 92.1794 39.3153 92.2969 39.4855C92.4143 39.6557 92.4967 39.8475 92.5393 40.0499C92.5819 40.2523 92.5837 40.4611 92.5447 40.6642C92.5057 40.8673 92.4267 41.0605 92.3122 41.2328C92.1978 41.405 92.0502 41.5527 91.878 41.6673Z" fill="#4F694D"/>
</svg>
