<svg width="100" height="100" viewBox="0 0 100 100" fill="none" xmlns="http://www.w3.org/2000/svg">
<path d="M94.4045 76.9124C94.522 76.5611 94.5886 76.1844 94.5886 75.7929V34.6765C94.5884 33.7405 94.2163 32.8429 93.5544 32.1812C92.8924 31.5194 91.9947 31.1476 91.0587 31.1476H71.4121V74.9115C71.4121 75.6141 71.2851 76.286 71.0608 76.9124H68.7561C68.8736 76.5611 68.9403 76.1844 68.9403 75.7929V19.3229C68.94 18.3868 68.568 17.4892 67.906 16.8275C67.244 16.1657 66.3463 15.7939 65.4103 15.7939H34.5876C33.6517 15.7939 32.7541 16.1657 32.0923 16.8275C31.4305 17.4893 31.0587 18.3869 31.0587 19.3229V75.7929C31.0587 76.1844 31.1253 76.5611 31.2428 76.9124H28.9392C28.7077 76.2707 28.5888 75.5937 28.5879 74.9115V31.1476H9.4122C8.47627 31.1476 7.57868 31.5194 6.91688 32.1812C6.25508 32.843 5.88329 33.7406 5.88329 34.6765V75.7929C5.88329 76.1844 5.94995 76.5611 6.06635 76.9124H0V84.2073H100V76.9124H94.4045ZM16.47 62.4984H11.411V57.4404H16.47V62.4984ZM16.47 53.6173H11.411V48.5584H16.47V53.6173ZM16.47 45.0294H11.411V39.9704H16.47V45.0294ZM24.3532 62.4984H19.2942V57.4404H24.3532V62.4984ZM24.3532 53.6173H19.2942V48.5584H24.3532V53.6173ZM24.3532 45.0294H19.2942V39.9704H24.3532V45.0294ZM57.853 76.6764H42.9998V58.1462H57.853V76.6764ZM49.9995 42.2635C43.1289 42.2635 37.5589 36.6934 37.5589 29.8228C37.5589 22.9512 43.13 17.3812 49.9995 17.3812C56.8711 17.3812 62.4411 22.9512 62.4411 29.8228C62.4411 36.6944 56.8711 42.2635 49.9995 42.2635ZM82.1173 62.4984H77.0594V57.4404H82.1173V62.4984ZM82.1173 53.6173H77.0594V48.5584H82.1173V53.6173ZM82.1173 45.0294H77.0594V39.9704H82.1173V45.0294ZM89.9995 62.4984H84.9415V57.4404H89.9995V62.4984ZM89.9995 53.6173H84.9415V48.5584H89.9995V53.6173ZM89.9995 45.0294H84.9415V39.9704H89.9995V45.0294ZM53.0871 26.7352H57.852V32.9105H53.0871V37.6774H46.9118V32.9105H42.147V26.7352H46.9118V21.9703H53.0871V26.7352Z" fill="#4F694D"/>
</svg>
