<svg width="100" height="100" viewBox="0 0 100 100" fill="none" xmlns="http://www.w3.org/2000/svg">
<path d="M17.1875 25C17.6019 25 17.9993 24.8354 18.2924 24.5424C18.5854 24.2493 18.75 23.8519 18.75 23.4375V20.3125C18.75 19.8981 18.9146 19.5007 19.2076 19.2076C19.5007 18.9146 19.8981 18.75 20.3125 18.75C22.0992 18.6738 23.8821 18.9718 25.5469 19.625C26.8597 20.1561 28.2735 20.3909 29.6875 20.3125C31.9739 20.2999 34.2524 20.0432 36.4844 19.5469C37.2969 19.3906 38.1406 19.2188 39.0625 19.0781V14.0625H21.875C20.6329 14.0662 19.4428 14.5613 18.5645 15.4395C17.6863 16.3178 17.1912 17.5079 17.1875 18.75V25ZM6.25 71.875C6.25371 73.1171 6.74876 74.3072 7.62703 75.1855C8.50531 76.0637 9.69544 76.5588 10.9375 76.5625H20.3125V71.875H12.5C12.0856 71.875 11.6882 71.7104 11.3951 71.4174C11.1021 71.1243 10.9375 70.7269 10.9375 70.3125V60.9375H14.0625V68.75H23.4375C23.6406 68.75 23.8281 68.7969 24.0156 68.8125L23.4531 64.25L26.5469 63.875L27.2969 69.8125C28.4932 70.4883 29.4891 71.4689 30.1835 72.6545C30.8779 73.8401 31.2458 75.1885 31.25 76.5625H37.4688V62.5C37.4688 62.0856 37.6334 61.6882 37.9264 61.3951C38.2194 61.1021 38.6168 60.9375 39.0312 60.9375C39.3482 60.9366 39.6584 61.0297 39.9225 61.2048C40.1867 61.38 40.3931 61.6295 40.5156 61.9219L43.8594 70.3125H49.3281L45.2031 58.9688C44.8434 57.9819 44.2886 57.0777 43.5719 56.3099C42.8551 55.5422 41.991 54.9266 41.0312 54.5L32.3906 50.6562C31.9415 51.851 31.1356 52.8786 30.0823 53.5996C29.029 54.3206 27.7794 54.7 26.5031 54.6863C25.2268 54.6727 23.9856 54.2666 22.948 53.5233C21.9104 52.78 21.1266 51.7353 20.7031 50.5312L13.4531 53.1719C11.3431 53.9355 9.51966 55.3306 8.2308 57.1674C6.94194 59.0043 6.2503 61.1936 6.25 63.4375V71.875Z" fill="#4F694D"/>
<path d="M23.4375 46.0469V48.4375C23.4375 49.2663 23.7667 50.0612 24.3528 50.6472C24.9388 51.2333 25.7337 51.5625 26.5625 51.5625C27.3913 51.5625 28.1862 51.2333 28.7722 50.6472C29.3583 50.0612 29.6875 49.2663 29.6875 48.4375V46.7812C29.169 46.8441 28.6472 46.8754 28.125 46.875C26.5263 46.8734 24.94 46.5932 23.4375 46.0469ZM6.25 79.6875H93.75V82.8125H6.25V79.6875ZM10.9375 85.9375H89.0625V93.75H10.9375V85.9375ZM17.1875 32.8125C17.1875 35.7133 18.3398 38.4953 20.391 40.5465C22.4422 42.5977 25.2242 43.75 28.125 43.75C31.0258 43.75 33.8078 42.5977 35.859 40.5465C37.9102 38.4953 39.0625 35.7133 39.0625 32.8125V22.2344C38.375 22.3594 37.7188 22.4844 37.0781 22.6094C34.6511 23.1478 32.1735 23.4255 29.6875 23.4375C27.9008 23.5137 26.1179 23.2157 24.4531 22.5625C23.6336 22.2149 22.7627 22.0038 21.875 21.9375V23.4375C21.8713 24.6796 21.3762 25.8697 20.498 26.748C19.6197 27.6262 18.4296 28.1213 17.1875 28.125V32.8125ZM32.8125 28.125H35.9375V31.25H32.8125V28.125ZM23.4375 28.125H26.5625V31.25H23.4375V28.125Z" fill="#4F694D"/>
<path d="M81.25 65.625C82.1129 65.625 82.8125 64.9254 82.8125 64.0625C82.8125 63.1996 82.1129 62.5 81.25 62.5C80.3871 62.5 79.6875 63.1996 79.6875 64.0625C79.6875 64.9254 80.3871 65.625 81.25 65.625Z" fill="#4F694D"/>
<path d="M89.5469 76.5625C89.917 76.5634 90.2751 76.4313 90.5561 76.1905C90.8371 75.9496 91.0224 75.6159 91.0781 75.25L94.7344 53.375C94.7706 53.1512 94.7578 52.9222 94.6967 52.7039C94.6356 52.4855 94.5277 52.2831 94.3805 52.1107C94.2333 51.9382 94.0504 51.7999 93.8444 51.7052C93.6384 51.6105 93.4142 51.5618 93.1875 51.5625H71.6406L67.4687 76.5625H89.5469ZM81.25 59.375C82.1771 59.375 83.0834 59.6499 83.8542 60.165C84.6251 60.6801 85.2259 61.4121 85.5807 62.2687C85.9355 63.1252 86.0283 64.0677 85.8474 64.977C85.6666 65.8863 85.2201 66.7215 84.5646 67.3771C83.909 68.0326 83.0738 68.4791 82.1645 68.6599C81.2552 68.8408 80.3127 68.748 79.4562 68.3932C78.5996 68.0384 77.8676 67.4376 77.3525 66.6667C76.8374 65.8959 76.5625 64.9896 76.5625 64.0625C76.5625 62.8193 77.0564 61.627 77.9354 60.7479C78.8145 59.8689 80.0068 59.375 81.25 59.375ZM45.3125 75C45.3125 75.4144 45.4771 75.8118 45.7701 76.1049C46.0632 76.3979 46.4606 76.5625 46.875 76.5625H58.0469L58.5781 73.4375H45.3125V75ZM40.5937 70.5469V76.5625H42.4687C42.2868 76.0614 42.1917 75.533 42.1875 75V74.5469L40.5937 70.5469ZM61.2187 76.5625H64.2969L68.4687 51.5625H68.0312C67.2916 51.56 66.5753 51.8214 66.0111 52.2997C65.4469 52.778 65.0717 53.4418 64.9531 54.1719L61.2187 76.5625ZM23.4375 71.875V76.5625H28.125C28.1213 75.3204 27.6262 74.1303 26.748 73.252C25.8697 72.3738 24.6796 71.8787 23.4375 71.875ZM54.6875 34.375H65.625C65.8673 34.3767 66.1059 34.4339 66.3226 34.5422C66.5393 34.6506 66.7283 34.8072 66.875 35L70.3125 39.5781L73.75 35C73.8967 34.8072 74.0857 34.6506 74.3024 34.5422C74.5191 34.4339 74.7577 34.3767 75 34.375H92.1875C92.6019 34.375 92.9993 34.2104 93.2924 33.9174C93.5854 33.6243 93.75 33.2269 93.75 32.8125V7.8125C93.75 7.3981 93.5854 7.00067 93.2924 6.70765C92.9993 6.41462 92.6019 6.25 92.1875 6.25H54.6875C54.2731 6.25 53.8757 6.41462 53.5826 6.70765C53.2896 7.00067 53.125 7.3981 53.125 7.8125V32.8125C53.125 33.2269 53.2896 33.6243 53.5826 33.9174C53.8757 34.2104 54.2731 34.375 54.6875 34.375ZM59.375 12.5H87.5V15.625H59.375V12.5ZM59.375 18.75H87.5V21.875H59.375V18.75ZM59.375 25H87.5V28.125H59.375V25ZM10.9375 31.25C10.9375 32.0788 11.2667 32.8737 11.8528 33.4597C12.4388 34.0458 13.2337 34.375 14.0625 34.375V28.125C13.2337 28.125 12.4388 28.4542 11.8528 29.0403C11.2667 29.6263 10.9375 30.4212 10.9375 31.25Z" fill="#4F694D"/>
</svg>
