<svg width="118" height="118" viewBox="0 0 118 118" fill="none" xmlns="http://www.w3.org/2000/svg">
<g filter="url(#filter0_d_502_910)">
<rect x="5" y="3" width="104" height="104" rx="10" fill="white"/>
</g>
<path d="M66.5065 73.278V74.8863H36.6701V32.0251H66.5065V44.2919C66.8975 44.111 67.3237 44.0188 67.7546 44.022H69.992V26.5122C69.992 24.3743 68.194 22.5366 66.0062 22.5366H37.1602C36.1066 22.5393 35.097 22.959 34.352 23.704C33.607 24.449 33.1872 25.4587 33.1846 26.5122V82.4875C33.1856 83.5415 33.6048 84.5521 34.3502 85.2975C35.0955 86.0428 36.1061 86.462 37.1602 86.4631H66.0062C67.0609 86.461 68.0719 86.0417 68.8187 85.2969C69.5654 84.5521 69.9872 83.5421 69.992 82.4875V73.6778H68.0042C67.4781 73.6818 66.9606 73.5437 66.5065 73.278ZM49.0465 26.2819H54.12C54.6801 26.2819 55.1195 26.7314 55.1195 27.2814C55.1195 27.8314 54.6801 28.2799 54.12 28.2799H49.0465C48.4965 28.2799 48.047 27.8303 48.047 27.2814C48.047 26.7324 48.4965 26.2819 49.0465 26.2819ZM54.8891 82.0481H48.2773C48.1459 82.0488 48.0158 82.0234 47.8943 81.9735C47.7728 81.9236 47.6624 81.8501 47.5694 81.7572C47.4765 81.6644 47.4029 81.5541 47.3528 81.4326C47.3028 81.3112 47.2773 81.181 47.2778 81.0496C47.2778 80.4997 47.7273 80.0502 48.2773 80.0502H54.8891C55.4492 80.0502 55.8886 80.4997 55.8886 81.0496C55.8898 81.1812 55.8648 81.3117 55.815 81.4334C55.7652 81.5552 55.6916 81.6658 55.5985 81.7587C55.5055 81.8517 55.3948 81.9252 55.273 81.9749C55.1512 82.0246 55.0207 82.0495 54.8891 82.0481Z" fill="#333333"/>
<path d="M57.7497 47.7044C57.8429 47.7967 57.9533 47.8698 58.0748 47.9194C58.1962 47.969 58.3262 47.9942 58.4574 47.9935C58.5885 47.9928 58.7183 47.9663 58.8392 47.9155C58.9602 47.8647 59.0699 47.7905 59.1621 47.6973L63.3366 43.4842C63.5222 43.2972 63.6263 43.0445 63.6263 42.781C63.6263 42.5176 63.5222 42.2649 63.3366 42.0778L59.1621 37.8648C58.9734 37.688 58.7236 37.5912 58.465 37.5948C58.2065 37.5983 57.9593 37.7019 57.7756 37.8839C57.5918 38.0658 57.4857 38.3118 57.4796 38.5703C57.4734 38.8289 57.5677 39.0797 57.7426 39.2702L61.221 42.781L57.7426 46.2919C57.6502 46.3851 57.5772 46.4956 57.5276 46.617C57.478 46.7384 57.4528 46.8685 57.4535 46.9996C57.4541 47.1308 57.4806 47.2606 57.5314 47.3815C57.5823 47.5024 57.6564 47.6121 57.7497 47.7044ZM45.421 37.8587C45.328 37.7661 45.2176 37.6927 45.0962 37.6429C44.9748 37.593 44.8447 37.5677 44.7135 37.5682C44.5822 37.5688 44.4524 37.5953 44.3314 37.6462C44.2104 37.6971 44.1007 37.7714 44.0085 37.8648L39.835 42.0778C39.6495 42.2649 39.5454 42.5176 39.5454 42.781C39.5454 43.0445 39.6495 43.2972 39.835 43.4842L44.0085 47.6973C44.1949 47.8855 44.4484 47.992 44.7133 47.9934C44.9782 47.9947 45.2327 47.8908 45.421 47.7044C45.6092 47.518 45.7157 47.2645 45.7171 46.9996C45.7184 46.7347 45.6145 46.4802 45.4281 46.2919L41.9507 42.781L45.4281 39.2702C45.5204 39.177 45.5935 39.0665 45.6431 38.9451C45.6927 38.8236 45.7179 38.6936 45.7172 38.5624C45.7165 38.4313 45.69 38.3015 45.6392 38.1806C45.5884 38.0597 45.5142 37.951 45.421 37.8587ZM53.1957 35.0358L47.3327 49.7896C47.2843 49.9115 47.2604 50.0418 47.2624 50.173C47.2644 50.3041 47.2922 50.4336 47.3442 50.554C47.3962 50.6744 47.4714 50.7834 47.5655 50.8748C47.6597 50.9661 47.7709 51.038 47.8928 51.0864C48.0147 51.1348 48.145 51.1587 48.2762 51.1567C48.4073 51.1547 48.5368 51.1269 48.6572 51.0749C48.7776 51.0229 48.8866 50.9477 48.978 50.8536C49.0693 50.7594 49.1412 50.6482 49.1896 50.5263L55.0526 35.7725C55.1009 35.6505 55.1248 35.5203 55.1229 35.3891C55.1209 35.258 55.0931 35.1285 55.0411 35.0081C54.9891 34.8876 54.9139 34.7786 54.8197 34.6873C54.7256 34.596 54.6144 34.524 54.4925 34.4757C54.3705 34.4273 54.2403 34.4034 54.1091 34.4054C53.978 34.4074 53.8485 34.4351 53.7281 34.4872C53.6076 34.5392 53.4986 34.6144 53.4073 34.7085C53.3159 34.8027 53.244 34.9139 53.1957 35.0358ZM80.886 56.5719L78.6922 56.3243C78.4546 55.3844 78.0766 54.4858 77.5709 53.6587V53.6506L78.8687 51.8211C79.163 51.405 79.1163 50.8358 78.7551 50.4745L77.1833 48.9038C77.0012 48.7215 76.7584 48.6128 76.5011 48.5984C76.2439 48.584 75.9904 48.6649 75.7891 48.8256L74.0682 50.1995C73.2334 49.7051 72.329 49.3391 71.3853 49.1138L71.0119 46.8916C70.971 46.647 70.8447 46.4248 70.6553 46.2646C70.466 46.1044 70.2259 46.0167 69.9779 46.0169H67.7506C67.2169 46.0169 66.7694 46.4177 66.7095 46.9474L66.4609 49.1493C65.5227 49.3909 64.625 49.7687 63.7963 50.2706L61.9597 48.9657C61.7577 48.8221 61.5113 48.7549 61.2644 48.7759C61.0175 48.7969 60.786 48.9047 60.6111 49.0803L59.0465 50.6501C58.671 51.0276 58.6365 51.6262 58.9683 52.0423L60.3453 53.7733C59.8447 54.606 59.4757 55.5109 59.2514 56.4562L57.0363 56.8296C56.532 56.9149 56.1637 57.3512 56.1637 57.8626V60.0828C56.1637 60.6155 56.5635 61.064 57.0921 61.1239L59.2778 61.3715C59.5254 62.3253 59.9049 63.2243 60.4072 64.0452V64.0543L59.1124 65.8737C58.8161 66.2897 58.8638 66.861 59.224 67.2223L60.7968 68.794C61.1723 69.1695 61.773 69.204 62.189 68.8722L63.9201 67.4962C64.7524 67.989 65.6536 68.355 66.5938 68.582L66.9673 70.8042C67.0525 71.3095 67.4888 71.6788 68.0002 71.6788H70.2285C70.7612 71.6788 71.2097 71.278 71.2696 70.7484L71.5172 68.5464C72.4583 68.3127 73.3576 67.9344 74.1828 67.4252L76.0194 68.7301C76.4355 69.0264 77.0068 68.9777 77.368 68.6154L78.9327 67.0447C79.3081 66.6682 79.3426 66.0706 79.0108 65.6535L77.6409 63.9305C78.1338 63.0921 78.4997 62.1853 78.7267 61.2395L80.9418 60.8661C81.4461 60.7809 81.8154 60.3446 81.8154 59.8332V57.613C81.8154 57.0803 81.4156 56.6318 80.886 56.5719ZM68.9936 63.1543C67.8515 63.1543 66.7561 62.7006 65.9485 61.893C65.1409 61.0854 64.6872 59.99 64.6872 58.8479C64.6888 57.7063 65.143 56.6118 65.9503 55.8046C66.7576 54.9973 67.852 54.5431 68.9936 54.5415C70.1343 54.5434 71.2277 54.998 72.0334 55.8054C72.8392 56.6129 73.2914 57.7072 73.2909 58.8479C73.2918 59.4129 73.1814 59.9726 72.9659 60.4949C72.7504 61.0172 72.434 61.4919 72.0349 61.8918C71.6358 62.2918 71.1618 62.6092 70.6399 62.8258C70.1181 63.0424 69.5586 63.154 68.9936 63.1543Z" fill="#102694"/>
<defs>
<filter id="filter0_d_502_910" x="0" y="0" width="118" height="118" filterUnits="userSpaceOnUse" color-interpolation-filters="sRGB">
<feFlood flood-opacity="0" result="BackgroundImageFix"/>
<feColorMatrix in="SourceAlpha" type="matrix" values="0 0 0 0 0 0 0 0 0 0 0 0 0 0 0 0 0 0 127 0" result="hardAlpha"/>
<feOffset dx="2" dy="4"/>
<feGaussianBlur stdDeviation="3.5"/>
<feComposite in2="hardAlpha" operator="out"/>
<feColorMatrix type="matrix" values="0 0 0 0 0 0 0 0 0 0 0 0 0 0 0 0 0 0 0.06 0"/>
<feBlend mode="normal" in2="BackgroundImageFix" result="effect1_dropShadow_502_910"/>
<feBlend mode="normal" in="SourceGraphic" in2="effect1_dropShadow_502_910" result="shape"/>
</filter>
</defs>
</svg>
