<svg width="100" height="100" viewBox="0 0 100 100" fill="none" xmlns="http://www.w3.org/2000/svg">
<path fill-rule="evenodd" clip-rule="evenodd" d="M85.6549 32.392H81.4201L81.465 47.9492H78.7414L78.6926 31.1496C78.6902 30.3465 79.2486 29.6576 80.0541 29.6576H85.6549C86.1461 28.7285 87.1223 28.0951 88.2463 28.0951C89.8643 28.0951 91.176 29.4068 91.176 31.0248C91.176 32.6428 89.8643 33.9545 88.2463 33.9545C87.1221 33.9545 86.1459 33.3213 85.6549 32.392ZM46.4846 12.4736H53.5156C54.0535 12.4736 54.4922 12.9123 54.4922 13.4502V19.5889H60.6309C61.1687 19.5889 61.6074 20.0275 61.6074 20.5654V27.5965C61.6074 28.1344 61.1687 28.573 60.6309 28.573H54.4922V34.7117C54.4922 35.2496 54.0535 35.6883 53.5156 35.6883H46.4846C46.2257 35.6878 45.9776 35.5847 45.7946 35.4017C45.6116 35.2187 45.5085 34.9706 45.508 34.7117V28.573H39.3693C39.1105 28.5725 38.8624 28.4695 38.6794 28.2864C38.4963 28.1034 38.3933 27.8553 38.3928 27.5965V20.5654C38.3928 20.0275 38.8314 19.5889 39.3693 19.5889H45.508V13.4502C45.5085 13.1914 45.6116 12.9433 45.7946 12.7602C45.9776 12.5772 46.2257 12.4741 46.4846 12.4736ZM50.0002 2.44141C38.0494 2.44141 28.3607 12.1301 28.3607 24.0809C28.3607 36.0316 38.0494 45.7203 50.0002 45.7203C61.951 45.7203 71.6396 36.0316 71.6396 24.0809C71.6396 12.1301 61.951 2.44141 50.0002 2.44141ZM93.7961 58.45C84.565 58.45 79.9336 69.6332 86.4604 76.16C87.6627 77.3623 87.6627 79.3125 86.4604 80.5148L79.8312 87.1439C78.6289 88.3463 76.6787 88.3463 75.4764 87.1439C68.9494 80.617 57.7662 85.2486 57.7662 94.4797C57.7662 96.1809 56.3873 97.5588 54.6871 97.5588H45.3125C43.6123 97.5588 42.2334 96.1809 42.2334 94.4797C42.2334 85.2373 31.0586 80.609 24.5234 87.1439C23.3211 88.3463 21.3711 88.3463 20.1688 87.1439L13.5396 80.5148C12.3373 79.3125 12.3373 77.3625 13.5396 76.16C20.0666 69.633 15.435 58.45 6.2041 58.45C4.50293 58.45 3.125 57.0711 3.125 55.3709V51.6602C3.125 51.1223 3.56367 50.6836 4.10156 50.6836H26.1365C26.3887 50.6836 26.6311 50.7812 26.8129 50.9559C26.9947 51.1306 27.1019 51.3689 27.1119 51.6209C27.6037 63.8373 37.6629 73.5906 50.0002 73.5906C62.3373 73.5906 72.3967 63.8375 72.8885 51.6209C72.8986 51.369 73.0058 51.1307 73.1876 50.956C73.3694 50.7813 73.6117 50.6837 73.8639 50.6836H95.8986C96.4365 50.6836 96.8752 51.1223 96.8752 51.6602V55.3709C96.8752 57.0711 95.4973 58.45 93.7961 58.45ZM66.4281 51.7207C66.437 51.5875 66.4183 51.4538 66.3733 51.3281C66.3283 51.2024 66.2579 51.0873 66.1664 50.99C66.075 50.8927 65.9644 50.8153 65.8418 50.7626C65.7191 50.7099 65.5868 50.683 65.4533 50.6836H34.5469C34.4134 50.683 34.2811 50.7099 34.1585 50.7626C34.0358 50.8154 33.9253 50.8928 33.8339 50.9901C33.7424 51.0874 33.672 51.2025 33.6269 51.3282C33.5819 51.4538 33.5632 51.5875 33.5721 51.7207C34.1072 60.3281 41.2576 67.1438 50 67.1438C58.7426 67.1438 65.893 60.3283 66.4281 51.7207ZM93.9455 42.8787C95.5635 42.8787 96.8752 41.567 96.8752 39.949C96.8752 38.3311 95.5635 37.0193 93.9455 37.0193C92.802 37.0193 91.8113 37.6748 91.3289 38.6303L86.8621 38.7047C86.6833 38.7075 86.5067 38.7454 86.3426 38.8165C86.1784 38.8875 86.0298 38.9902 85.9053 39.1186C85.7809 39.247 85.6829 39.3988 85.6171 39.5651C85.5513 39.7314 85.5188 39.909 85.5217 40.0879L85.5398 47.9492H88.2637L88.2486 41.4061L91.3746 41.3539C91.8717 42.2625 92.8365 42.8787 93.9455 42.8787ZM8.67168 38.6303L13.1385 38.7047C13.3173 38.7075 13.4939 38.7454 13.658 38.8165C13.8222 38.8875 13.9708 38.9902 14.0952 39.1186C14.2197 39.247 14.3177 39.3988 14.3835 39.5651C14.4493 39.7314 14.4817 39.909 14.4789 40.0879L14.4607 47.9492H11.7369L11.752 41.4061L8.62598 41.3539C8.12852 42.2625 7.16367 42.8785 6.05469 42.8785C4.43672 42.8785 3.125 41.5668 3.125 39.9488C3.125 38.3309 4.43652 37.0191 6.05469 37.0191C7.19844 37.0193 8.18906 37.6748 8.67168 38.6303ZM14.3455 29.6576C13.8543 28.7285 12.8781 28.0951 11.7539 28.0951C10.1359 28.0951 8.82422 29.4068 8.82422 31.0248C8.82422 32.6428 10.1359 33.9545 11.7539 33.9545C12.8781 33.9545 13.8543 33.3211 14.3455 32.392H18.5803L18.5352 47.9492H21.2588L21.3076 31.1496C21.31 30.3463 20.7523 29.6576 19.9461 29.6576H14.3455Z" fill="#4F694D"/>
</svg>
