<svg width="100" height="100" viewBox="0 0 100 100" fill="none" xmlns="http://www.w3.org/2000/svg">
<g clip-path="url(#clip0_7_11900)">
<path d="M97.46 33.4399H2.54002C2.208 33.4466 1.87801 33.3868 1.56945 33.264C1.26089 33.1413 0.980009 32.958 0.743333 32.7251C0.506657 32.4921 0.318969 32.2142 0.191316 31.9076C0.0636619 31.601 -0.00137854 31.272 2.21512e-05 30.9399V92.1499C0.00132954 93.105 0.191075 94.0505 0.558387 94.9321C0.9257 95.8137 1.46336 96.6142 2.14056 97.2877C2.81776 97.9612 3.6212 98.4944 4.50484 98.8569C5.38847 99.2193 6.33494 99.4039 7.29002 99.3999H92.72C93.6746 99.4039 94.6206 99.2193 95.5037 98.8567C96.3868 98.4941 97.1895 97.9607 97.866 97.2871C98.5424 96.6135 99.0791 95.8129 99.4453 94.9313C99.8115 94.0498 100 93.1046 100 92.1499V30.9399C100.001 31.272 99.9364 31.601 99.8087 31.9076C99.6811 32.2142 99.4934 32.4921 99.2567 32.7251C99.02 32.958 98.7392 33.1413 98.4306 33.264C98.122 33.3868 97.792 33.4466 97.46 33.4399ZM71.14 71.0699C71.14 71.733 70.8766 72.3689 70.4078 72.8377C69.9389 73.3065 69.3031 73.5699 68.64 73.5699H58.8V83.4099C58.8 84.073 58.5366 84.7089 58.0678 85.1777C57.5989 85.6465 56.9631 85.9099 56.3 85.9099H43.7C43.037 85.9099 42.4011 85.6465 41.9323 85.1777C41.4634 84.7089 41.2 84.073 41.2 83.4099V73.5699H31.36C30.697 73.5699 30.0611 73.3065 29.5923 72.8377C29.1234 72.3689 28.86 71.733 28.86 71.0699V58.4699C28.86 57.8069 29.1234 57.171 29.5923 56.7022C30.0611 56.2333 30.697 55.9699 31.36 55.9699H41.2V46.1299C41.2 45.4669 41.4634 44.831 41.9323 44.3622C42.4011 43.8933 43.037 43.6299 43.7 43.6299H56.3C56.9631 43.6299 57.5989 43.8933 58.0678 44.3622C58.5366 44.831 58.8 45.4669 58.8 46.1299V55.9999H68.64C69.3031 55.9999 69.9389 56.2633 70.4078 56.7322C70.8766 57.201 71.14 57.8369 71.14 58.4999V71.0699Z" fill="#4F694D"/>
<path d="M97.46 33.44H2.54002C2.208 33.4467 1.87801 33.3869 1.56945 33.2641C1.26089 33.1413 0.980009 32.9581 0.743333 32.7251C0.506657 32.4922 0.318969 32.2142 0.191316 31.9077C0.0636619 31.6011 -0.00137854 31.2721 2.21512e-05 30.94V14.37C0.00132433 13.4154 0.19114 12.4704 0.558574 11.5893C0.926008 10.7083 1.46383 9.90844 2.14116 9.23575C2.8185 8.56306 3.62201 8.03076 4.50559 7.66939C5.38917 7.30803 6.33542 7.12473 7.29002 7.12999H92.72C93.6738 7.12605 94.619 7.31033 95.5014 7.67228C96.3838 8.03423 97.1861 8.56675 97.8624 9.2393C98.5387 9.91186 99.0756 10.7112 99.4424 11.5917C99.8092 12.4721 99.9987 13.4162 100 14.37V30.94C100.001 31.2721 99.9364 31.6011 99.8087 31.9077C99.6811 32.2142 99.4934 32.4922 99.2567 32.7251C99.02 32.9581 98.7392 33.1413 98.4306 33.2641C98.122 33.3869 97.792 33.4467 97.46 33.44ZM5.00002 28.44H95V14.37C95 13.7759 94.764 13.2062 94.3439 12.7861C93.9239 12.366 93.3541 12.13 92.76 12.13H7.29002C6.99204 12.1247 6.69597 12.1786 6.41901 12.2887C6.14205 12.3988 5.88972 12.5628 5.67667 12.7712C5.46361 12.9796 5.29409 13.2282 5.17793 13.5027C5.06177 13.7772 5.0013 14.072 5.00002 14.37V28.44Z" fill="#4F694D"/>
<path d="M20.1401 18.7901C19.4771 18.7901 18.8412 18.5267 18.3724 18.0579C17.9035 17.589 17.6401 16.9531 17.6401 16.2901V3.1001C17.6401 2.43706 17.9035 1.80117 18.3724 1.33233C18.8412 0.86349 19.4771 0.600098 20.1401 0.600098C20.8032 0.600098 21.4391 0.86349 21.9079 1.33233C22.3767 1.80117 22.6401 2.43706 22.6401 3.1001V16.2901C22.6401 16.9531 22.3767 17.589 21.9079 18.0579C21.4391 18.5267 20.8032 18.7901 20.1401 18.7901ZM40.0501 18.7901C39.3871 18.7901 38.7512 18.5267 38.2824 18.0579C37.8135 17.589 37.5501 16.9531 37.5501 16.2901V3.1001C37.5501 2.43706 37.8135 1.80117 38.2824 1.33233C38.7512 0.86349 39.3871 0.600098 40.0501 0.600098C40.7132 0.600098 41.3491 0.86349 41.8179 1.33233C42.2867 1.80117 42.5501 2.43706 42.5501 3.1001V16.2901C42.5501 16.9531 42.2867 17.589 41.8179 18.0579C41.3491 18.5267 40.7132 18.7901 40.0501 18.7901ZM60.0001 18.7901C59.3371 18.7901 58.7012 18.5267 58.2324 18.0579C57.7635 17.589 57.5001 16.9531 57.5001 16.2901V3.1001C57.5001 2.43706 57.7635 1.80117 58.2324 1.33233C58.7012 0.86349 59.3371 0.600098 60.0001 0.600098C60.6632 0.600098 61.2991 0.86349 61.7679 1.33233C62.2367 1.80117 62.5001 2.43706 62.5001 3.1001V16.2901C62.5001 16.9531 62.2367 17.589 61.7679 18.0579C61.2991 18.5267 60.6632 18.7901 60.0001 18.7901ZM79.8701 18.7901C79.2071 18.7901 78.5712 18.5267 78.1024 18.0579C77.6335 17.589 77.3701 16.9531 77.3701 16.2901V3.1001C77.3701 2.77179 77.4348 2.4467 77.5604 2.14339C77.6861 1.84008 77.8702 1.56448 78.1024 1.33233C78.3345 1.10018 78.6101 0.916036 78.9134 0.790399C79.2167 0.664762 79.5418 0.600098 79.8701 0.600098C80.1984 0.600098 80.5235 0.664762 80.8268 0.790399C81.1302 0.916036 81.4058 1.10018 81.6379 1.33233C81.87 1.56448 82.0542 1.84008 82.1798 2.14339C82.3055 2.4467 82.3701 2.77179 82.3701 3.1001V16.2901C82.3701 16.9531 82.1067 17.589 81.6379 18.0579C81.1691 18.5267 80.5332 18.7901 79.8701 18.7901Z" fill="#4F694D"/>
</g>
<defs>
<clipPath id="clip0_7_11900">
<rect width="100" height="100" fill="white"/>
</clipPath>
</defs>
</svg>
