<svg width="118" height="118" viewBox="0 0 118 118" fill="none" xmlns="http://www.w3.org/2000/svg">
<g filter="url(#filter0_d_502_884)">
<rect x="5" y="3" width="104" height="104" rx="10" fill="white"/>
</g>
<path d="M86.8777 22.4048H28.1232C25.9277 22.4048 24.0459 24.2866 24.0459 26.4821V72.5866C24.0459 74.8866 25.8232 76.6639 28.1232 76.6639H86.8777C89.0732 76.6639 90.955 74.7821 90.955 72.5866V26.4821C90.955 24.2866 89.0732 22.4048 86.8777 22.4048ZM88.8641 67.3593H26.1368V26.4821C26.1368 25.3321 26.9732 24.4957 28.1232 24.4957H86.8777C87.9232 24.4957 88.8641 25.4366 88.8641 26.4821V67.3593ZM71.9277 84.5048H68.5823C66.3868 82.9366 63.5641 80.9502 63.7732 79.6957C63.7732 79.4866 63.8777 79.173 64.2959 78.8593H50.9141C51.4368 79.2775 51.5414 79.5912 51.5414 79.8002C51.7504 81.0548 48.9277 82.9366 46.5232 84.5048H43.0732C42.4459 84.5048 42.0277 85.0275 42.0277 85.5502C42.0277 86.1775 42.4459 86.5957 43.0732 86.5957H71.8232C72.4504 86.5957 72.8686 86.1775 72.8686 85.5502C72.9732 84.923 72.4504 84.5048 71.9277 84.5048Z" fill="#333333"/>
<path d="M65.8639 37.2502H60.5321C60.0094 37.2502 59.4867 37.6683 59.4867 38.2956V60.7729C59.4867 61.4002 60.0094 61.8183 60.5321 61.8183H65.8639C66.3867 61.8183 66.9094 61.4002 66.9094 60.7729V38.2956C66.9094 37.7729 66.3867 37.2502 65.8639 37.2502ZM43.1776 48.6456H37.8457C37.2185 48.6456 36.8003 49.0638 36.8003 49.6911V60.7729C36.8003 61.4002 37.2185 61.8183 37.8457 61.8183H43.1776C43.7003 61.8183 44.223 61.4002 44.223 60.7729V49.6911C44.223 49.0638 43.7003 48.6456 43.1776 48.6456ZM54.4685 43.0002H49.1367C48.5094 43.0002 48.0912 43.4183 48.0912 44.0456V60.7729C48.0912 61.4002 48.5094 61.8183 49.1367 61.8183H54.4685C55.0958 61.8183 55.5139 61.4002 55.5139 60.7729V44.0456C55.5139 43.4183 55.0958 43.0002 54.4685 43.0002ZM77.1548 31.1865H71.823C71.3003 31.1865 70.7776 31.6047 70.7776 32.232V60.7729C70.7776 61.4002 71.3003 61.8183 71.823 61.8183H77.1548C77.7821 61.8183 78.2003 61.4002 78.2003 60.7729V32.232C78.2003 31.7093 77.7821 31.1865 77.1548 31.1865Z" fill="#102694"/>
<defs>
<filter id="filter0_d_502_884" x="0" y="0" width="118" height="118" filterUnits="userSpaceOnUse" color-interpolation-filters="sRGB">
<feFlood flood-opacity="0" result="BackgroundImageFix"/>
<feColorMatrix in="SourceAlpha" type="matrix" values="0 0 0 0 0 0 0 0 0 0 0 0 0 0 0 0 0 0 127 0" result="hardAlpha"/>
<feOffset dx="2" dy="4"/>
<feGaussianBlur stdDeviation="3.5"/>
<feComposite in2="hardAlpha" operator="out"/>
<feColorMatrix type="matrix" values="0 0 0 0 0 0 0 0 0 0 0 0 0 0 0 0 0 0 0.06 0"/>
<feBlend mode="normal" in2="BackgroundImageFix" result="effect1_dropShadow_502_884"/>
<feBlend mode="normal" in="SourceGraphic" in2="effect1_dropShadow_502_884" result="shape"/>
</filter>
</defs>
</svg>
