<svg width="118" height="118" viewBox="0 0 118 118" fill="none" xmlns="http://www.w3.org/2000/svg">
<g filter="url(#filter0_d_502_898)">
<rect x="5" y="3" width="104" height="104" rx="10" fill="white"/>
</g>
<path d="M84.6688 48.9369C84.4372 48.9201 84.2169 48.8309 84.0388 48.6819C83.8608 48.5329 83.7342 48.3317 83.6769 48.1067C83.0317 45.424 81.9694 42.8592 80.5288 40.506C80.4124 40.3064 80.3612 40.0755 80.3825 39.8455C80.4037 39.6154 80.4964 39.3978 80.6474 39.223C81.1824 38.5931 81.4596 37.7843 81.4237 36.9586C81.3877 36.1329 81.0411 35.3513 80.4533 34.7703L77.2297 31.5467C76.6487 30.959 75.8671 30.6124 75.0414 30.5764C74.2158 30.5404 73.407 30.8177 72.7771 31.3527C72.6022 31.5037 72.3846 31.5963 72.1546 31.6176C71.9245 31.6388 71.6936 31.5877 71.4941 31.4713C69.1408 30.0307 66.576 28.9684 63.8933 28.3231C63.6669 28.2649 63.4646 28.1366 63.3155 27.9565C63.1664 27.7764 63.0781 27.5538 63.0631 27.3205C62.9953 26.4988 62.6203 25.7328 62.0129 25.1753C61.4054 24.6178 60.6101 24.3097 59.7856 24.3125H55.2144C54.3883 24.3104 53.5919 24.6202 52.9843 25.1798C52.3766 25.7395 52.0026 26.5078 51.9369 27.3313C51.9201 27.5628 51.8309 27.7832 51.6819 27.9612C51.5329 28.1392 51.3317 28.2658 51.1067 28.3231C48.424 28.9684 45.8592 30.0307 43.506 31.4713C43.3064 31.5877 43.0755 31.6388 42.8455 31.6176C42.6154 31.5963 42.3978 31.5037 42.223 31.3527C41.5931 30.8177 40.7843 30.5404 39.9586 30.5764C39.1329 30.6124 38.3513 30.959 37.7703 31.5467L34.5467 34.7703C33.959 35.3513 33.6124 36.1329 33.5764 36.9586C33.5404 37.7843 33.8177 38.5931 34.3527 39.223C34.5037 39.3978 34.5963 39.6154 34.6176 39.8455C34.6388 40.0755 34.5877 40.3064 34.4713 40.506C33.0307 42.8592 31.9684 45.424 31.3231 48.1067C31.2649 48.3332 31.1366 48.5354 30.9565 48.6845C30.7764 48.8336 30.5538 48.922 30.3205 48.9369C29.4988 49.0047 28.7328 49.3797 28.1753 49.9872C27.6178 50.5946 27.3097 51.3899 27.3125 52.2144V56.7856C27.3104 57.6117 27.6202 58.4082 28.1798 59.0158C28.7395 59.6234 29.5078 59.9974 30.3313 60.0631C30.5628 60.0799 30.7832 60.1692 30.9612 60.3181C31.1392 60.4671 31.2658 60.6684 31.3231 60.8933C31.9684 63.576 33.0307 66.1408 34.4713 68.4941C34.5877 68.6936 34.6388 68.9245 34.6176 69.1546C34.5963 69.3846 34.5037 69.6022 34.3527 69.7771C33.8177 70.407 33.5404 71.2158 33.5764 72.0414C33.6124 72.8671 33.959 73.6487 34.5467 74.2297L37.7703 77.4533C38.3513 78.0411 39.1329 78.3877 39.9586 78.4237C40.7843 78.4596 41.5931 78.1824 42.223 77.6474C42.3978 77.4964 42.6154 77.4037 42.8455 77.3825C43.0755 77.3612 43.3064 77.4124 43.506 77.5288C45.8592 78.9694 48.424 80.0317 51.1067 80.6769C51.3332 80.7351 51.5354 80.8634 51.6845 81.0435C51.8336 81.2236 51.922 81.4462 51.9369 81.6796C52.0047 82.5013 52.3797 83.2672 52.9872 83.8247C53.5946 84.3822 54.3899 84.6903 55.2144 84.6875H59.7856C60.6117 84.6896 61.4082 84.3799 62.0158 83.8202C62.6234 83.2606 62.9974 82.4922 63.0631 81.6688C63.0799 81.4372 63.1692 81.2169 63.3181 81.0388C63.4671 80.8608 63.6684 80.7342 63.8933 80.6769C66.576 80.0317 69.1408 78.9694 71.4941 77.5288C71.6937 77.4127 71.9246 77.3617 72.1545 77.383C72.3845 77.4042 72.6021 77.4967 72.7771 77.6474C73.407 78.1824 74.2158 78.4596 75.0414 78.4237C75.8671 78.3877 76.6487 78.0411 77.2297 77.4533L80.4533 74.2297C81.0411 73.6487 81.3877 72.8671 81.4237 72.0414C81.4596 71.2158 81.1824 70.407 80.6474 69.7771C80.4964 69.6022 80.4037 69.3846 80.3825 69.1546C80.3612 68.9245 80.4124 68.6936 80.5288 68.4941C81.9693 66.1408 83.0316 63.576 83.6769 60.8933C83.7351 60.6669 83.8634 60.4646 84.0435 60.3155C84.2236 60.1664 84.4462 60.0781 84.6796 60.0631C85.5013 59.9953 86.2672 59.6203 86.8247 59.0129C87.3822 58.4054 87.6903 57.6101 87.6875 56.7856V52.2144C87.6896 51.3883 87.3799 50.5919 86.8202 49.9843C86.2606 49.3766 85.4922 49.0026 84.6688 48.9369ZM57.5 71.75C54.0883 71.75 50.7532 70.7383 47.9164 68.8429C45.0797 66.9474 42.8687 64.2533 41.5631 61.1013C40.2575 57.9493 39.9159 54.4809 40.5815 51.1347C41.2471 47.7885 42.89 44.7149 45.3024 42.3024C47.7149 39.89 50.7885 38.2471 54.1347 37.5815C57.4809 36.9159 60.9493 37.2575 64.1013 38.5631C67.2533 39.8687 69.9474 42.0797 71.8429 44.9164C73.7383 47.7532 74.75 51.0883 74.75 54.5C74.7443 59.0732 72.9251 63.4575 69.6913 66.6913C66.4575 69.9251 62.0732 71.7443 57.5 71.75Z" fill="#333333"/>
<path d="M58.0531 48.9951H56.9469C56.0741 48.996 55.2373 49.343 54.62 49.9601C54.0028 50.5771 53.6555 51.4138 53.6543 52.2866V58.9279C53.6543 59.2138 53.7679 59.488 53.9701 59.6902C54.1723 59.8924 54.4465 60.006 54.7325 60.006C55.0184 60.006 55.2926 59.8924 55.4948 59.6902C55.697 59.488 55.8106 59.2138 55.8106 58.9279V55.5781H59.1894V58.9268C59.1894 59.2127 59.303 59.487 59.5052 59.6892C59.7074 59.8913 59.9816 60.0049 60.2675 60.0049C60.5535 60.0049 60.8277 59.8913 61.0299 59.6892C61.2321 59.487 61.3457 59.2127 61.3457 58.9268V52.2856C61.3442 51.4129 60.9968 50.5765 60.3796 49.9597C59.7624 49.3429 58.9257 48.996 58.0531 48.9951ZM59.1894 53.4219H55.8106V52.2866C55.8111 51.9855 55.9311 51.6969 56.1441 51.4841C56.3571 51.2713 56.6458 51.1517 56.9469 51.1514H58.0531C58.3542 51.1517 58.6429 51.2713 58.8559 51.4841C59.0689 51.6969 59.1889 51.9855 59.1894 52.2866V53.4219ZM64.9035 48.9951C64.6175 48.9951 64.3433 49.1087 64.1411 49.3109C63.9389 49.5131 63.8254 49.7873 63.8254 50.0732V58.9268C63.8254 59.2127 63.9389 59.487 64.1411 59.6892C64.3433 59.8913 64.6175 60.0049 64.9035 60.0049C65.1894 60.0049 65.4636 59.8913 65.6658 59.6892C65.868 59.487 65.9816 59.2127 65.9816 58.9268V55.5781H68.2241C69.0971 55.5781 69.9343 55.2314 70.5516 54.6141C71.1688 53.9968 71.5156 53.1596 71.5156 52.2866C71.5156 51.4137 71.1688 50.5765 70.5516 49.9592C69.9343 49.3419 69.0971 48.9951 68.2241 48.9951H64.9035ZM69.3594 52.2866C69.3588 52.5876 69.239 52.876 69.0262 53.0888C68.8135 53.3015 68.525 53.4213 68.2241 53.4219H65.9816V51.1514H68.2241C68.525 51.1519 68.8135 51.2717 69.0262 51.4845C69.239 51.6973 69.3588 51.9857 69.3594 52.2866ZM46.7759 51.1514H50.0965C50.3825 51.1514 50.6567 51.0378 50.8589 50.8356C51.0611 50.6334 51.1746 50.3592 51.1746 50.0732C51.1746 49.7873 51.0611 49.5131 50.8589 49.3109C50.6567 49.1087 50.3825 48.9951 50.0965 48.9951H46.7759C45.9029 48.9951 45.0657 49.3419 44.4484 49.9592C43.8312 50.5765 43.4844 51.4137 43.4844 52.2866C43.4844 53.1596 43.8312 53.9968 44.4484 54.6141C45.0657 55.2314 45.9029 55.5781 46.7759 55.5781H47.8831C48.1842 55.5781 48.473 55.6978 48.6859 55.9107C48.8988 56.1236 49.0184 56.4123 49.0184 56.7134C49.0184 57.0145 48.8988 57.3033 48.6859 57.5162C48.473 57.7291 48.1842 57.8487 47.8831 57.8487H44.5625C44.2766 57.8487 44.0023 57.9623 43.8001 58.1645C43.598 58.3666 43.4844 58.6409 43.4844 58.9268C43.4844 59.2127 43.598 59.487 43.8001 59.6892C44.0023 59.8913 44.2766 60.0049 44.5625 60.0049H47.8831C48.7561 60.0049 49.5933 59.6581 50.2106 59.0409C50.8279 58.4236 51.1746 57.5864 51.1746 56.7134C51.1746 55.8405 50.8279 55.0032 50.2106 54.386C49.5933 53.7687 48.7561 53.4219 47.8831 53.4219H46.7759C46.4748 53.4219 46.186 53.3023 45.9731 53.0894C45.7602 52.8765 45.6406 52.5877 45.6406 52.2866C45.6406 51.9855 45.7602 51.6968 45.9731 51.4839C46.186 51.271 46.4748 51.1514 46.7759 51.1514Z" fill="#102694"/>
<defs>
<filter id="filter0_d_502_898" x="0" y="0" width="118" height="118" filterUnits="userSpaceOnUse" color-interpolation-filters="sRGB">
<feFlood flood-opacity="0" result="BackgroundImageFix"/>
<feColorMatrix in="SourceAlpha" type="matrix" values="0 0 0 0 0 0 0 0 0 0 0 0 0 0 0 0 0 0 127 0" result="hardAlpha"/>
<feOffset dx="2" dy="4"/>
<feGaussianBlur stdDeviation="3.5"/>
<feComposite in2="hardAlpha" operator="out"/>
<feColorMatrix type="matrix" values="0 0 0 0 0 0 0 0 0 0 0 0 0 0 0 0 0 0 0.06 0"/>
<feBlend mode="normal" in2="BackgroundImageFix" result="effect1_dropShadow_502_898"/>
<feBlend mode="normal" in="SourceGraphic" in2="effect1_dropShadow_502_898" result="shape"/>
</filter>
</defs>
</svg>
