<svg width="118" height="118" viewBox="0 0 118 118" fill="none" xmlns="http://www.w3.org/2000/svg">
<g filter="url(#filter0_d_502_872)">
<rect x="5" y="3" width="104" height="104" rx="10" fill="white"/>
</g>
<path d="M57.5 28.0859C59.7329 28.0859 61.543 26.2758 61.543 24.043C61.543 21.8101 59.7329 20 57.5 20C55.2671 20 53.457 21.8101 53.457 24.043C53.457 26.2758 55.2671 28.0859 57.5 28.0859Z" fill="#102694"/>
<path d="M57.5 89C59.7329 89 61.543 87.1899 61.543 84.957C61.543 82.7242 59.7329 80.9141 57.5 80.9141C55.2671 80.9141 53.457 82.7242 53.457 84.957C53.457 87.1899 55.2671 89 57.5 89Z" fill="#102694"/>
<path d="M33.7163 42.3749C35.4306 40.9442 35.6604 38.3946 34.2296 36.6804C32.7988 34.9662 30.2493 34.7364 28.535 36.1672C26.8208 37.5979 26.591 40.1475 28.0218 41.8617C29.4526 43.5759 32.0021 43.8057 33.7163 42.3749Z" fill="#102694"/>
<path d="M85.2243 73.5514C87.3299 72.8082 88.4344 70.4989 87.6912 68.3933C86.9481 66.2877 84.6388 65.1833 82.5332 65.9264C80.4276 66.6695 79.3231 68.9789 80.0663 71.0845C80.8094 73.19 83.1188 74.2945 85.2243 73.5514Z" fill="#102694"/>
<path d="M87.1749 41.675C88.4879 39.869 88.0884 37.3406 86.2824 36.0275C84.4764 34.7144 81.9479 35.114 80.6349 36.9199C79.3218 38.7259 79.7214 41.2544 81.5273 42.5675C83.3333 43.8806 85.8618 43.481 87.1749 41.675Z" fill="#102694"/>
<path d="M34.2442 72.3035C35.675 70.5893 35.4452 68.0397 33.731 66.609C32.0168 65.1782 29.4672 65.408 28.0365 67.1222C26.6057 68.8364 26.8355 71.3859 28.5497 72.8167C30.2639 74.2475 32.8134 74.0177 34.2442 72.3035Z" fill="#102694"/>
<path d="M76.8742 43.3144C76.533 42.7241 76.2674 42.0932 76.0836 41.4366L72.2454 43.6527L71.2346 41.9021C70.6763 40.935 69.4402 40.6037 68.4733 41.1622L65.5327 42.86C64.9084 42.4294 64.2502 42.05 63.5646 41.7257V38.3281C63.5646 37.2117 62.6595 36.3066 61.5431 36.3066H59.5216V31.8723C58.8753 32.0394 58.1981 32.1289 57.5001 32.1289C56.8022 32.1289 56.125 32.0394 55.4786 31.8723V36.3066H53.4572C52.3408 36.3066 51.4357 37.2117 51.4357 38.3281V41.7255C50.7501 42.0498 50.092 42.4292 49.4677 42.8599L46.5271 41.1621C45.5599 40.6036 44.3237 40.935 43.7658 41.9019L42.755 43.6525L38.9168 41.4365C38.733 42.0931 38.4674 42.7241 38.1262 43.3144C37.785 43.905 37.3699 44.4497 36.8911 44.9354L40.7335 47.1538L39.7228 48.9044C39.4549 49.3687 39.3823 49.9204 39.521 50.4382C39.6598 50.956 39.9985 51.3976 40.4627 51.6657L43.3984 53.3607C43.3336 54.1187 43.3336 54.8809 43.3984 55.639L40.4627 57.3339C39.9984 57.6021 39.6596 58.0436 39.5208 58.5614C39.452 58.8178 39.4345 59.0853 39.4692 59.3484C39.5038 59.6116 39.59 59.8654 39.7228 60.0953L40.7335 61.8459L36.8911 64.0643C37.37 64.55 37.785 65.0948 38.1262 65.6854C38.4674 66.2757 38.7329 66.9066 38.9166 67.5632L42.7549 65.3471L43.7656 67.0977C44.3238 68.0647 45.56 68.3963 46.527 67.8376L49.4676 66.1398C50.0918 66.5705 50.75 66.9499 51.4355 67.2741V70.6718C51.4355 71.7882 52.3406 72.6933 53.457 72.6933H55.4785V77.1277C56.1248 76.9605 56.802 76.8711 57.5 76.8711C58.1979 76.8711 58.8751 76.9605 59.5215 77.1277V72.6933H61.543C62.6594 72.6933 63.5644 71.7882 63.5644 70.6718V67.2744C64.2518 66.9492 64.9089 66.5704 65.5326 66.1401L68.4732 67.8379C69.44 68.3961 70.6763 68.0648 71.2345 67.098L72.2452 65.3474L76.0835 67.5635C76.2672 66.9069 76.5328 66.276 76.874 65.6856C77.2153 65.0951 77.6303 64.5503 78.1092 64.0645L74.2667 61.8462L75.2775 60.0956C75.5455 59.6313 75.6181 59.0795 75.4793 58.5617C75.3406 58.0439 75.0018 57.6023 74.5376 57.3342L71.6017 55.6393C71.6665 54.8813 71.6665 54.1192 71.6017 53.3612L74.5376 51.6662C75.0018 51.3982 75.3406 50.9567 75.4795 50.4389C75.6182 49.921 75.5455 49.3692 75.2775 48.9049L74.2667 47.1542L78.1092 44.9358C77.6305 44.4498 77.2155 43.905 76.8742 43.3144ZM57.5001 60.5644C54.1562 60.5644 51.4357 57.8439 51.4357 54.5C51.4357 51.156 54.1562 48.4355 57.5001 48.4355C60.8441 48.4355 63.5646 51.156 63.5646 54.5C63.5646 57.8439 60.8441 60.5644 57.5001 60.5644ZM36.8941 75.3943L49.7104 82.7937C50.0782 81.4747 50.7749 80.2706 51.7353 79.2944L38.9133 71.8917C38.5413 73.2324 37.8459 74.428 36.8941 75.3943ZM51.7351 29.7054C50.7748 28.7292 50.0782 27.5251 49.7104 26.2061L36.8941 33.6055C37.8458 34.5718 38.5413 35.7674 38.9133 37.1081L51.7351 29.7054ZM78.1062 33.6056L65.2899 26.2061C64.9221 27.5251 64.2254 28.7292 63.2651 29.7055L76.0871 37.1083C76.4591 35.7675 77.1545 34.5719 78.1062 33.6056ZM63.2651 79.2945C64.2255 80.2708 64.9221 81.4749 65.2899 82.794L78.1062 75.3944C77.1545 74.4282 76.4591 73.2325 76.087 71.8919L63.2651 79.2945ZM31.1198 61.6419C31.8111 61.6419 32.4909 61.7319 33.145 61.902V47.098C32.4838 47.2702 31.8032 47.3576 31.1199 47.3581C30.4391 47.3575 29.7611 47.2708 29.1021 47.1V61.9001C29.761 61.7291 30.439 61.6423 31.1198 61.6419ZM83.8804 47.3581C83.1971 47.3577 82.5166 47.2703 81.8554 47.098L81.8552 61.902C82.5166 61.7297 83.1971 61.6423 83.8805 61.6419C84.5613 61.6424 85.2392 61.7291 85.8982 61.8999L85.8983 47.0998C85.2394 47.2708 84.5614 47.3575 83.8806 47.3581H83.8804Z" fill="#333333"/>
<defs>
<filter id="filter0_d_502_872" x="0" y="0" width="118" height="118" filterUnits="userSpaceOnUse" color-interpolation-filters="sRGB">
<feFlood flood-opacity="0" result="BackgroundImageFix"/>
<feColorMatrix in="SourceAlpha" type="matrix" values="0 0 0 0 0 0 0 0 0 0 0 0 0 0 0 0 0 0 127 0" result="hardAlpha"/>
<feOffset dx="2" dy="4"/>
<feGaussianBlur stdDeviation="3.5"/>
<feComposite in2="hardAlpha" operator="out"/>
<feColorMatrix type="matrix" values="0 0 0 0 0 0 0 0 0 0 0 0 0 0 0 0 0 0 0.06 0"/>
<feBlend mode="normal" in2="BackgroundImageFix" result="effect1_dropShadow_502_872"/>
<feBlend mode="normal" in="SourceGraphic" in2="effect1_dropShadow_502_872" result="shape"/>
</filter>
</defs>
</svg>
