<svg width="80" height="80" viewBox="0 0 80 80" fill="none" xmlns="http://www.w3.org/2000/svg">
<g clip-path="url(#clip0_629_2573)">
<path d="M28.2812 70.4688V75.3125H21.25C19.9545 75.3125 18.9062 76.3608 18.9062 77.6562C18.9062 78.9517 19.9545 80 21.25 80H58.75C60.0455 80 61.0938 78.9517 61.0938 77.6562C61.0938 76.3608 60.0455 75.3125 58.75 75.3125H51.7188V70.4688H28.2812ZM2.34375 65.7812H77.6562C78.9517 65.7812 80 64.733 80 63.4375V11.875C80 10.5795 78.9517 9.53125 77.6562 9.53125H72.8125V49.375C72.8125 53.2522 69.6584 56.4062 65.7812 56.4062H14.2188C10.3416 56.4062 7.1875 53.2522 7.1875 49.375V9.53125H2.34375C1.04828 9.53125 0 10.5795 0 11.875V63.4375C0 64.733 1.04828 65.7812 2.34375 65.7812Z" fill="#333333"/>
<path d="M54.4105 36.3378L48.3953 34.3306L50.4003 40.348L54.4105 36.3378ZM68.125 2.34375C68.125 1.04828 67.0767 0 65.7812 0H14.2188C12.9233 0 11.875 1.04828 11.875 2.34375V18.9062H68.125V2.34375ZM21.25 11.875C19.9556 11.875 18.9062 10.8256 18.9062 9.53125C18.9062 8.23656 19.9556 7.1875 21.25 7.1875C22.5444 7.1875 23.5938 8.23656 23.5938 9.53125C23.5938 10.8256 22.5444 11.875 21.25 11.875ZM30.625 11.875C29.3306 11.875 28.2812 10.8256 28.2812 9.53125C28.2812 8.23656 29.3306 7.1875 30.625 7.1875C31.9194 7.1875 32.9688 8.23656 32.9688 9.53125C32.9688 10.8256 31.9194 11.875 30.625 11.875ZM40 11.875C38.7056 11.875 37.6562 10.8256 37.6562 9.53125C37.6562 8.23656 38.7056 7.1875 40 7.1875C41.2944 7.1875 42.3438 8.23656 42.3438 9.53125C42.3438 10.8256 41.2944 11.875 40 11.875Z" fill="#102694"/>
<path d="M11.875 49.375C11.875 50.6705 12.9233 51.7188 14.2188 51.7188H65.7812C67.0767 51.7188 68.125 50.6705 68.125 49.375V23.5938H11.875V49.375ZM43.0305 28.968C43.6622 28.3455 44.5914 28.1187 45.4292 28.4027L59.4917 33.0902C60.2608 33.3466 60.8467 33.9828 61.0298 34.7747C61.1226 35.1632 61.1141 35.5691 61.0051 35.9534C60.8961 36.3378 60.6903 36.6877 60.4073 36.9697L57.3767 40L60.4072 43.0305C61.3227 43.9459 61.3227 45.4292 60.4072 46.3447C59.4917 47.2602 58.0084 47.2602 57.093 46.3447L54.0625 43.3142L51.032 46.3447C50.467 46.9097 49.6439 47.1561 48.8348 46.9695C48.0475 46.7819 47.4066 46.2005 47.1503 45.4292L42.4628 31.3667C42.3259 30.9536 42.3064 30.5105 42.4066 30.0869C42.5069 29.6633 42.7229 29.2759 43.0305 28.968ZM21.25 28.2812H35.3125C36.608 28.2812 37.6562 29.3295 37.6562 30.625C37.6562 31.9205 36.608 32.9688 35.3125 32.9688H21.25C19.9545 32.9688 18.9062 31.9205 18.9062 30.625C18.9062 29.3295 19.9545 28.2812 21.25 28.2812ZM21.25 37.6562H35.3125C36.608 37.6562 37.6562 38.7045 37.6562 40C37.6562 41.2955 36.608 42.3438 35.3125 42.3438H21.25C19.9545 42.3438 18.9062 41.2955 18.9062 40C18.9062 38.7045 19.9545 37.6562 21.25 37.6562Z" fill="#102694"/>
</g>
<defs>
<clipPath id="clip0_629_2573">
<rect width="80" height="80" fill="white"/>
</clipPath>
</defs>
</svg>
