<svg width="298" height="200" viewBox="0 0 298 200" fill="none" xmlns="http://www.w3.org/2000/svg">
<rect width="298" height="200" rx="15" fill="#FAFAFA"/>
<path d="M212.986 160.39C209.557 164.001 206.31 166.332 203.749 168.171C173.601 189.802 137.925 183.496 130.344 181.955C119.145 179.685 97.5076 175.284 81.8604 156.887C58.1893 129.053 61.8735 85.1943 80.2338 56.2426C83.5963 50.95 101.337 21.5553 137.39 16.8454C159.216 13.9927 184.654 19.7406 203.075 35.1753C241.744 67.5744 238.988 133.016 212.986 160.39Z" fill="#F2F2F2"/>
<path d="M82.7102 16.014C82.601 15.14 83.6874 14.6484 84.2822 15.2978C90.3153 21.8832 104.53 41.3118 98.23 72.9158C90.3275 112.568 97.5623 127.802 107.267 137.495C107.267 137.495 93.3319 132.227 85.484 116.732C66.2193 78.6879 84.6585 31.5216 82.7102 16.014Z" fill="#E4E4E4"/>
<g style="mix-blend-mode:soft-light">
<path d="M86.7037 28.8814C87.1832 33.4032 87.5656 37.925 87.7901 42.4528C88.0329 46.9868 88.1361 51.5207 88.0997 56.0486C88.0511 60.5825 87.9115 65.1104 87.5838 69.6261C87.2742 74.1479 86.7705 78.6454 86.2485 83.1611C85.7508 87.6768 85.2288 92.2229 85.1681 96.8357C85.1013 101.443 85.5869 106.128 86.9101 110.589C87.2439 111.7 87.5959 112.811 88.0086 113.885C88.4032 114.971 88.8523 116.04 89.3136 117.102C90.2483 119.22 91.3226 121.278 92.5486 123.244C95.0129 127.177 98.0719 130.734 101.501 133.805C101.865 134.127 102.418 134.097 102.739 133.732C103.061 133.38 103.037 132.84 102.691 132.512C101.877 131.742 101.07 130.959 100.305 130.151C99.917 129.751 99.5468 129.332 99.1644 128.925C98.8002 128.5 98.4239 128.088 98.0719 127.657C96.6456 125.945 95.3406 124.136 94.1753 122.237C91.8324 118.455 90.0419 114.31 88.7673 110.049C88.1543 107.913 87.6991 105.734 87.4138 103.53C87.1286 101.321 87.0132 99.0936 87.0254 96.8539C87.0497 92.3746 87.5352 87.865 87.9965 83.3493C88.4578 78.8275 88.8826 74.2814 89.1254 69.7232C89.2509 67.4451 89.3358 65.167 89.3803 62.8889C89.4107 61.7478 89.4168 60.6068 89.4228 59.4657C89.4228 58.3246 89.4147 57.1856 89.3986 56.0486C89.3197 51.4843 89.1011 46.9321 88.737 42.3921C88.3546 37.8521 87.8508 33.3243 87.171 28.8268C87.1528 28.6932 87.0314 28.6083 86.904 28.6265C86.7826 28.6447 86.6915 28.76 86.7037 28.8814Z" fill="white"/>
</g>
<path d="M90.7276 130.018C90.157 131.535 88.2209 131.966 87.0373 130.861C80.5126 124.749 63.6272 105.8 65.794 75.0156C67.6209 49.0199 66.14 34.7504 65.0232 28.3168C64.7864 26.9572 66.4191 26.0832 67.4206 27.0361C78.4368 37.5606 111.576 75.131 90.7276 130.018Z" fill="#E4E4E4"/>
<g style="mix-blend-mode:soft-light">
<path d="M88.5368 130C88.5045 130.02 88.468 130.038 88.4276 130.054C88.1059 130.182 87.7356 130.024 87.6082 129.696C87.4625 129.332 73.0231 92.4659 73.9275 56.2066C73.9396 55.8546 74.231 55.5814 74.5769 55.5875C74.929 55.5996 75.2021 55.8849 75.196 56.2369C74.2917 92.2353 88.64 128.865 88.7857 129.229C88.8949 129.52 88.7857 129.836 88.5368 130Z" fill="white"/>
</g>
<path d="M157.936 31.7643C157.908 31.7643 157.879 31.7582 157.851 31.7461C157.748 31.6975 157.705 31.5761 157.754 31.473C157.871 31.2302 157.993 30.9874 158.118 30.7446C158.167 30.6414 158.288 30.605 158.391 30.6536C158.488 30.7082 158.525 30.8296 158.476 30.9267C158.355 31.1654 158.235 31.4062 158.118 31.649C158.082 31.7218 158.009 31.7643 157.936 31.7643Z" fill="#BDD0FB"/>
<path d="M208.404 33.9493C208.319 33.9493 208.246 33.9007 208.216 33.8158C208.028 33.3181 207.821 32.8204 207.609 32.3409C207.566 32.2377 207.609 32.1163 207.712 32.0738C207.815 32.0252 207.937 32.0738 207.979 32.177C208.198 32.6625 208.404 33.1663 208.592 33.6762C208.635 33.7793 208.58 33.8947 208.477 33.9371C208.453 33.9452 208.428 33.9493 208.404 33.9493ZM206.626 30.1255C206.553 30.1255 206.486 30.0891 206.444 30.0223C206.189 29.561 205.909 29.0997 205.624 28.6506C205.563 28.5596 205.588 28.4321 205.685 28.3714C205.776 28.3107 205.903 28.3411 205.964 28.4321C206.255 28.8873 206.535 29.3547 206.802 29.822C206.856 29.9191 206.82 30.0405 206.723 30.0951C206.69 30.1154 206.658 30.1255 206.626 30.1255ZM159.599 28.772C159.563 28.772 159.526 28.7659 159.49 28.7416C159.399 28.6809 159.368 28.5535 159.429 28.4624C159.72 28.0072 160.03 27.5581 160.346 27.1271C160.412 27.0361 160.54 27.0118 160.631 27.0786C160.716 27.1454 160.74 27.2728 160.673 27.3639C160.358 27.7887 160.06 28.2379 159.769 28.6809C159.733 28.7416 159.666 28.772 159.599 28.772ZM204.277 26.6173C204.216 26.6173 204.155 26.593 204.113 26.5445C203.785 26.1257 203.445 25.7129 203.087 25.3184C203.014 25.2335 203.02 25.106 203.105 25.0332C203.19 24.9543 203.318 24.9664 203.391 25.0514C203.749 25.452 204.101 25.8708 204.435 26.2895C204.501 26.3806 204.489 26.5081 204.398 26.5748C204.362 26.6052 204.319 26.6173 204.277 26.6173ZM162.148 25.4095C162.1 25.4095 162.051 25.3973 162.015 25.3609C161.93 25.2881 161.918 25.1606 161.996 25.0756C162.348 24.6751 162.725 24.2745 163.101 23.8921C163.18 23.8132 163.314 23.8132 163.392 23.8921C163.471 23.971 163.471 24.0985 163.392 24.1774C163.016 24.5537 162.646 24.9482 162.3 25.3427C162.257 25.3852 162.203 25.4095 162.148 25.4095ZM201.418 23.5158C201.369 23.5158 201.321 23.4976 201.278 23.4612C200.89 23.097 200.483 22.7389 200.083 22.4051C199.998 22.3322 199.986 22.2048 200.052 22.1198C200.125 22.0348 200.253 22.0227 200.338 22.0894C200.75 22.4354 201.163 22.7935 201.558 23.1637C201.636 23.2366 201.643 23.3701 201.564 23.449C201.527 23.4915 201.473 23.5158 201.418 23.5158ZM165.177 22.4718C165.116 22.4718 165.062 22.4475 165.019 22.399C164.946 22.314 164.958 22.1866 165.043 22.1137C165.462 21.7678 165.887 21.4339 166.324 21.1122C166.415 21.0455 166.536 21.0698 166.603 21.1547C166.67 21.2458 166.652 21.3732 166.561 21.44C166.136 21.7556 165.711 22.0894 165.304 22.4233C165.268 22.4597 165.219 22.4718 165.177 22.4718ZM198.122 20.8816C198.086 20.8816 198.043 20.8695 198.007 20.8452C197.57 20.5478 197.121 20.2564 196.666 19.9833C196.568 19.9287 196.538 19.8012 196.593 19.7102C196.653 19.6131 196.775 19.5827 196.872 19.6374C197.333 19.9105 197.794 20.2079 198.238 20.5114C198.329 20.5721 198.353 20.6995 198.292 20.7906C198.25 20.8513 198.189 20.8816 198.122 20.8816ZM168.618 20.0319C168.545 20.0319 168.479 19.9955 168.442 19.9348C168.388 19.8377 168.418 19.7102 168.515 19.6556C168.976 19.3764 169.45 19.1093 169.929 18.8605C170.026 18.8119 170.148 18.8483 170.202 18.9515C170.251 19.0486 170.215 19.17 170.111 19.2246C169.644 19.4674 169.177 19.7284 168.721 20.0015C168.691 20.0197 168.655 20.0319 168.618 20.0319ZM194.462 18.7816C194.434 18.7816 194.406 18.7755 194.377 18.7633C193.898 18.5388 193.406 18.3203 192.915 18.126C192.811 18.0836 192.763 17.9622 192.805 17.859C192.848 17.7558 192.963 17.7072 193.066 17.7497C193.564 17.95 194.068 18.1685 194.553 18.3992C194.65 18.4477 194.693 18.5691 194.65 18.6662C194.614 18.7391 194.541 18.7816 194.462 18.7816ZM172.394 18.1503C172.315 18.1503 172.236 18.1018 172.205 18.0229C172.163 17.9197 172.211 17.7983 172.315 17.7558C172.812 17.5555 173.322 17.3674 173.838 17.1913C173.941 17.161 174.057 17.2156 174.093 17.3188C174.129 17.428 174.075 17.5434 173.966 17.5798C173.462 17.7497 172.958 17.9379 172.466 18.1321C172.442 18.1443 172.418 18.1503 172.394 18.1503ZM190.523 17.2763C190.507 17.2763 190.489 17.2743 190.469 17.2702C189.959 17.1185 189.443 16.9789 188.927 16.8575C188.818 16.8332 188.745 16.724 188.775 16.6147C188.799 16.5055 188.909 16.4387 189.018 16.463C189.54 16.5905 190.068 16.7301 190.584 16.8818C190.687 16.9121 190.754 17.0275 190.717 17.1306C190.693 17.2217 190.614 17.2763 190.523 17.2763ZM176.412 16.8697C176.321 16.8697 176.236 16.809 176.217 16.7179C176.193 16.6087 176.26 16.4994 176.369 16.4691C176.891 16.3477 177.425 16.2384 177.953 16.1474C178.062 16.1292 178.172 16.202 178.19 16.3113C178.208 16.4205 178.135 16.5298 178.026 16.548C177.504 16.639 176.976 16.7422 176.46 16.8636C176.444 16.8676 176.428 16.8697 176.412 16.8697ZM186.402 16.3902C186.394 16.3902 186.384 16.3902 186.372 16.3902C185.85 16.3234 185.316 16.2627 184.787 16.2263C184.672 16.2141 184.593 16.117 184.599 16.0078C184.605 15.8925 184.703 15.8075 184.818 15.8196C185.352 15.8621 185.898 15.9167 186.426 15.9896C186.536 16.0017 186.614 16.1049 186.602 16.2202C186.59 16.3173 186.499 16.3902 186.402 16.3902ZM180.581 16.2263C180.478 16.2263 180.387 16.1474 180.381 16.0381C180.369 15.9289 180.454 15.8318 180.569 15.8196C181.103 15.7771 181.643 15.7529 182.184 15.7407C182.299 15.7407 182.39 15.8318 182.39 15.941C182.396 16.0563 182.305 16.1474 182.19 16.1474C181.662 16.1595 181.128 16.1838 180.6 16.2263C180.591 16.2263 180.585 16.2263 180.581 16.2263Z" fill="#E4E4E4"/>
<path d="M209.4 37.2329C209.309 37.2329 209.23 37.1722 209.205 37.0751C209.145 36.8161 209.08 36.5572 209.011 36.2982C208.981 36.189 209.042 36.0797 209.151 36.0494C209.26 36.019 209.369 36.0858 209.4 36.189C209.473 36.452 209.539 36.717 209.6 36.9841C209.624 37.0933 209.557 37.2026 209.448 37.2268C209.432 37.2309 209.416 37.2329 209.4 37.2329Z" fill="#BDD0FB"/>
<path d="M205.971 58.1423C205.934 58.1423 205.892 58.1302 205.862 58.112C205.764 58.0513 205.74 57.9299 205.795 57.8328C205.94 57.6062 206.08 57.3776 206.214 57.1469C206.268 57.0498 206.396 57.0134 206.493 57.0741C206.59 57.1287 206.62 57.2501 206.566 57.3472C206.428 57.5819 206.286 57.8146 206.141 58.0452C206.104 58.112 206.038 58.1423 205.971 58.1423Z" fill="#BDD0FB"/>
<path d="M182.706 71.0221C182.263 71.0221 181.808 71.01 181.364 70.9857C181.249 70.9796 181.164 70.8886 181.17 70.7733C181.176 70.664 181.273 70.579 181.383 70.579C181.905 70.6094 182.433 70.6155 182.955 70.6094C183.064 70.6094 183.155 70.7004 183.155 70.8157C183.161 70.925 183.07 71.016 182.955 71.016C182.874 71.0201 182.791 71.0221 182.706 71.0221ZM185.522 70.8764C185.419 70.8764 185.334 70.7975 185.322 70.6943C185.31 70.579 185.389 70.4819 185.504 70.4698C186.02 70.4152 186.542 70.3484 187.058 70.2634C187.173 70.2452 187.276 70.3241 187.294 70.4334C187.313 70.5426 187.234 70.6458 187.124 70.664C186.602 70.749 186.068 70.8218 185.546 70.8764C185.538 70.8764 185.53 70.8764 185.522 70.8764ZM178.815 70.7429C178.803 70.7429 178.793 70.7429 178.785 70.7429C178.263 70.664 177.729 70.573 177.213 70.4698C177.104 70.4455 177.031 70.3423 177.055 70.2331C177.079 70.1238 177.183 70.051 177.292 70.0753C177.802 70.1784 178.324 70.2634 178.84 70.3423C178.955 70.3545 179.028 70.4576 179.016 70.5669C178.997 70.6701 178.912 70.7429 178.815 70.7429ZM189.607 70.142C189.516 70.142 189.437 70.0813 189.413 69.9903C189.382 69.881 189.449 69.7718 189.558 69.7414C190.062 69.614 190.572 69.4622 191.07 69.3044C191.173 69.2741 191.288 69.3287 191.325 69.438C191.355 69.5411 191.3 69.6565 191.191 69.6929C190.687 69.8507 190.171 70.0024 189.662 70.136C189.641 70.14 189.623 70.142 189.607 70.142ZM174.761 69.8507C174.741 69.8507 174.72 69.8466 174.7 69.8385C174.19 69.6868 173.687 69.5169 173.189 69.3348C173.086 69.2984 173.031 69.183 173.067 69.0738C173.104 68.9706 173.225 68.916 173.328 68.9524C173.814 69.1345 174.318 69.2984 174.815 69.4501C174.925 69.4865 174.985 69.5958 174.955 69.705C174.925 69.79 174.846 69.8507 174.761 69.8507ZM193.54 68.8007C193.461 68.8007 193.382 68.7521 193.352 68.6732C193.309 68.5761 193.352 68.4547 193.455 68.4122C193.934 68.2058 194.414 67.9813 194.881 67.7506C194.984 67.696 195.106 67.7385 195.154 67.8417C195.203 67.9388 195.167 68.0602 195.063 68.1087C194.59 68.3454 194.104 68.5761 193.619 68.7824C193.591 68.7946 193.564 68.8007 193.54 68.8007ZM170.888 68.3515C170.86 68.3515 170.832 68.3454 170.804 68.3333C170.324 68.1027 169.845 67.8599 169.383 67.605C169.286 67.5503 169.25 67.4289 169.304 67.3258C169.359 67.2287 169.48 67.1922 169.577 67.2469C170.033 67.5018 170.506 67.7385 170.973 67.9631C171.077 68.0116 171.119 68.133 171.071 68.2362C171.034 68.309 170.961 68.3515 170.888 68.3515ZM197.218 66.8766C197.151 66.8766 197.085 66.8402 197.042 66.7795C196.987 66.6824 197.012 66.561 197.109 66.5003C197.552 66.2211 197.995 65.9298 198.42 65.6263C198.511 65.5656 198.638 65.5838 198.699 65.6749C198.766 65.772 198.742 65.8934 198.65 65.9601C198.22 66.2636 197.776 66.561 197.321 66.8463C197.291 66.8645 197.254 66.8766 197.218 66.8766ZM167.289 66.2818C167.247 66.2818 167.21 66.2757 167.174 66.2515C166.737 65.9541 166.306 65.6384 165.881 65.3168C165.796 65.2439 165.778 65.1225 165.845 65.0315C165.918 64.9404 166.045 64.9283 166.13 64.9951C166.543 65.3107 166.974 65.6202 167.405 65.9116C167.496 65.9783 167.52 66.1058 167.459 66.1968C167.417 66.2515 167.356 66.2818 167.289 66.2818ZM200.562 64.4124C200.508 64.4124 200.447 64.3881 200.411 64.3456C200.338 64.2607 200.344 64.1332 200.429 64.0604C200.823 63.7205 201.218 63.3624 201.594 62.9982C201.673 62.9254 201.801 62.9254 201.879 63.0043C201.958 63.0892 201.952 63.2167 201.873 63.2956C201.491 63.6598 201.096 64.024 200.696 64.3638C200.653 64.4003 200.611 64.4124 200.562 64.4124ZM164.042 63.6962C163.994 63.6962 163.945 63.678 163.909 63.6416C163.563 63.3199 163.217 62.9861 162.883 62.6462L162.767 62.5248C162.695 62.4459 162.695 62.3123 162.774 62.2395C162.859 62.1606 162.986 62.1606 163.065 62.2456L163.174 62.3609C163.502 62.6947 163.842 63.0285 164.182 63.3442C164.267 63.4231 164.267 63.5505 164.194 63.6294C164.151 63.6719 164.097 63.6962 164.042 63.6962ZM203.5 61.4808C203.458 61.4808 203.409 61.4687 203.366 61.4323C203.282 61.3594 203.275 61.232 203.348 61.147C203.688 60.7525 204.022 60.3398 204.338 59.927C204.41 59.8421 204.538 59.8238 204.623 59.8906C204.714 59.9574 204.732 60.0848 204.659 60.1759C204.344 60.5947 204.004 61.0074 203.658 61.4141C203.615 61.4565 203.561 61.4808 203.5 61.4808ZM161.22 60.6493C161.165 60.6493 161.104 60.625 161.062 60.5765C160.734 60.1577 160.412 59.7328 160.109 59.3019C160.042 59.2048 160.06 59.0834 160.158 59.0166C160.249 58.9498 160.376 58.9741 160.437 59.0651C160.74 59.49 161.056 59.9149 161.384 60.3215C161.45 60.4126 161.438 60.54 161.347 60.6068C161.311 60.6372 161.268 60.6493 161.22 60.6493ZM158.889 57.2139C158.816 57.2139 158.749 57.1775 158.713 57.1168C158.446 56.6556 158.197 56.1821 157.96 55.7087C157.912 55.6055 157.948 55.4841 158.051 55.4356C158.155 55.387 158.276 55.4295 158.325 55.5266C158.555 55.994 158.804 56.4613 159.065 56.9105C159.12 57.0076 159.089 57.135 158.992 57.1897C158.96 57.2059 158.925 57.2139 158.889 57.2139ZM157.105 53.4691C157.026 53.4691 156.947 53.4205 156.916 53.3355C156.722 52.8439 156.546 52.3401 156.382 51.8364C156.352 51.7271 156.407 51.6118 156.516 51.5814C156.625 51.545 156.734 51.6057 156.771 51.7089C156.929 52.2066 157.105 52.7043 157.293 53.1899C157.335 53.2991 157.281 53.4144 157.177 53.4569C157.153 53.465 157.129 53.4691 157.105 53.4691Z" fill="#BDD0FB"/>
<path d="M155.909 49.4814C155.812 49.4814 155.727 49.4146 155.709 49.3236C155.652 49.0565 155.597 48.7895 155.545 48.5224C155.527 48.4131 155.599 48.3039 155.709 48.2857C155.818 48.2675 155.921 48.3342 155.945 48.4496C155.994 48.7126 156.047 48.9736 156.103 49.2325C156.127 49.3418 156.061 49.451 155.951 49.4753C155.935 49.4794 155.921 49.4814 155.909 49.4814Z" fill="#BDD0FB"/>
<path d="M161.669 44.6566C161.663 44.8023 161.742 44.9297 161.875 44.9783L165.602 46.4592C165.942 48.2983 166.579 50.1009 167.52 51.7822L165.602 55.2965C165.535 55.4178 165.553 55.5757 165.644 55.6788L168.885 59.2295C168.983 59.3327 169.128 59.363 169.262 59.3084L172.934 57.7243C174.524 58.8107 176.26 59.6119 178.056 60.1278L179.191 63.9698C179.228 64.1033 179.349 64.2004 179.489 64.2065L184.29 64.425C184.429 64.4372 184.563 64.3522 184.612 64.2187L186.093 60.498C187.932 60.1521 189.734 59.5148 191.416 58.574L194.93 60.492C195.051 60.5587 195.203 60.5405 195.312 60.4495L198.863 57.2084C198.966 57.1173 198.996 56.9656 198.942 56.8381L197.358 53.16C198.444 51.5698 199.245 49.84 199.755 48.0373L203.603 46.9084C203.737 46.8659 203.834 46.7445 203.84 46.6049L204.058 41.8039C204.064 41.6643 203.985 41.5308 203.852 41.4822L200.131 40.0013C199.785 38.1622 199.148 36.3656 198.207 34.6783L200.125 31.164C200.192 31.0427 200.174 30.8909 200.083 30.7877L196.842 27.231C196.751 27.1278 196.599 27.0975 196.471 27.1521L192.793 28.7362C191.203 27.6498 189.473 26.8486 187.671 26.3388L186.542 22.4907C186.499 22.3572 186.378 22.2601 186.238 22.254L181.437 22.0355C181.298 22.0294 181.164 22.1083 181.116 22.2418L179.635 25.9685C177.795 26.3084 175.993 26.9457 174.312 27.8865L170.797 25.9685C170.676 25.9018 170.524 25.92 170.421 26.011L166.864 29.2521C166.761 29.3493 166.731 29.4949 166.785 29.6285L168.37 33.3066C167.283 34.8907 166.482 36.6266 165.972 38.4232L162.124 39.5582C161.99 39.5946 161.893 39.716 161.887 39.8556L161.669 44.6566Z" fill="#E4E4E4"/>
<path fill-rule="evenodd" clip-rule="evenodd" d="M182.858 47.8002C181.99 47.8002 181.116 47.5574 180.339 47.0476C179.325 46.3739 178.627 45.342 178.384 44.1463C178.142 42.9446 178.378 41.7246 179.052 40.711C180.442 38.6049 183.282 38.0222 185.389 39.4182C187.489 40.8081 188.071 43.6486 186.681 45.7548C185.801 47.084 184.345 47.8002 182.858 47.8002ZM182.87 39.2664C181.583 39.2664 180.321 39.8916 179.556 41.0448C178.973 41.9249 178.767 42.9871 178.979 44.025C179.192 45.0628 179.793 45.9551 180.679 46.5377C182.5 47.7456 184.964 47.2418 186.172 45.4149C187.379 43.594 186.876 41.1298 185.049 39.922C184.381 39.4789 183.622 39.2664 182.87 39.2664Z" fill="#D0D0D0"/>
<path d="M182.973 55.1265C179.738 55.1265 176.515 53.8215 174.166 51.2481C174.044 51.1145 173.925 50.9769 173.808 50.8353C173.468 50.4287 173.158 49.9977 172.879 49.5547C172.831 49.4737 172.782 49.3948 172.733 49.3179C172.733 49.3139 172.731 49.3099 172.727 49.3058C172.707 49.2734 172.687 49.239 172.667 49.2026L173.195 48.8991C173.595 49.5911 174.075 50.2405 174.621 50.8353C177.547 54.0461 181.911 55.1811 185.85 54.1493C187.531 53.7062 189.133 52.8686 190.511 51.6304C190.535 51.6142 190.558 51.596 190.578 51.5758C193.018 49.3483 194.256 46.2893 194.256 43.2241C194.256 40.505 193.285 37.7798 191.312 35.613C187.118 31.0123 179.956 30.6845 175.355 34.8786C173.844 36.2624 172.733 38.0226 172.145 39.9709L171.562 39.7949C172.181 37.7373 173.353 35.8861 174.943 34.4294C179.798 30.0047 187.343 30.3568 191.761 35.2063C193.843 37.4824 194.863 40.3593 194.863 43.2241C194.863 46.4531 193.558 49.676 190.984 52.0249C188.708 54.1007 185.838 55.1265 182.973 55.1265Z" fill="#D0D0D0"/>
<path d="M207.275 48.1582L209.424 48.8198C209.697 49.8273 210.134 50.8045 210.729 51.7028L209.818 53.7543C209.782 53.8271 209.8 53.906 209.861 53.9606L211.827 55.8058C211.882 55.8543 211.967 55.8665 212.04 55.8301L214.024 54.78C214.959 55.3202 215.961 55.6905 216.986 55.8968L217.794 57.9908C217.818 58.0697 217.891 58.1122 217.97 58.1122L220.658 58.0212C220.737 58.0212 220.81 57.9665 220.834 57.8937L221.49 55.7451C222.504 55.472 223.481 55.0349 224.379 54.4401L226.431 55.3506C226.497 55.387 226.582 55.3688 226.637 55.3081L228.476 53.3416C228.531 53.2869 228.543 53.202 228.506 53.1291L227.456 51.1505C227.996 50.2097 228.367 49.2082 228.573 48.1825L230.667 47.3813C230.74 47.3509 230.788 47.2781 230.788 47.1992L230.697 44.5104C230.697 44.4315 230.643 44.3587 230.57 44.3405L228.421 43.6789C228.148 42.6653 227.711 41.6881 227.116 40.7898L228.027 38.7383C228.063 38.6715 228.045 38.5865 227.984 38.5319L226.018 36.6929C225.963 36.6382 225.878 36.6261 225.805 36.6625L223.821 37.7125C222.886 37.1723 221.884 36.8021 220.859 36.5957L220.051 34.5018C220.027 34.4289 219.954 34.3804 219.875 34.3804L217.181 34.4714C217.108 34.4714 217.035 34.526 217.011 34.5989L216.355 36.7475C215.342 37.0206 214.364 37.4576 213.466 38.0585L211.415 37.142C211.342 37.1056 211.263 37.1238 211.208 37.1845L209.369 39.151C209.315 39.2056 209.302 39.2906 209.339 39.3634L210.389 41.3482C209.849 42.2829 209.478 43.2844 209.272 44.3101L207.178 45.1173C207.105 45.1416 207.057 45.2145 207.057 45.2934L207.148 47.9882C207.148 48.0671 207.202 48.1339 207.275 48.1582Z" fill="#E4E4E4"/>
<path fill-rule="evenodd" clip-rule="evenodd" d="M218.916 48.941C218.467 48.941 218.024 48.8317 217.617 48.6071C216.986 48.2551 216.531 47.6846 216.331 46.9926C216.13 46.3007 216.215 45.5724 216.561 44.9411C216.913 44.3099 217.484 43.8547 218.176 43.6544C218.868 43.4541 219.596 43.5391 220.227 43.885C220.859 44.2371 221.314 44.8076 221.514 45.4995C221.714 46.1915 221.629 46.9198 221.283 47.551C220.931 48.1823 220.361 48.6375 219.669 48.8378C219.42 48.9106 219.171 48.941 218.916 48.941ZM218.922 44.1582C218.728 44.1582 218.534 44.1824 218.346 44.2431C217.806 44.3949 217.362 44.7469 217.095 45.2385C216.828 45.7241 216.762 46.2886 216.913 46.8227C217.071 47.3629 217.423 47.806 217.915 48.073C218.4 48.3461 218.965 48.4068 219.499 48.2551C220.039 48.0973 220.482 47.7453 220.749 47.2536C221.016 46.7681 221.083 46.2036 220.925 45.6695C220.774 45.1354 220.422 44.6862 219.93 44.4192C219.62 44.2431 219.274 44.1582 218.922 44.1582Z" fill="#D0D0D0"/>
<path d="M204.647 44.2855C204.635 44.2855 204.625 44.2835 204.617 44.2795C204.501 44.2673 204.428 44.1642 204.447 44.0488C204.483 43.7818 204.532 43.5086 204.592 43.2416C204.611 43.1323 204.72 43.0595 204.829 43.0838C204.938 43.1081 205.011 43.2173 204.987 43.3266C204.932 43.5815 204.884 43.8485 204.847 44.1095C204.829 44.2127 204.744 44.2855 204.647 44.2855Z" fill="#BDD0FB"/>
<path d="M205.612 40.8563C205.584 40.8563 205.558 40.8522 205.533 40.8441C205.43 40.7956 205.382 40.6802 205.424 40.5771C205.624 40.0976 205.855 39.6181 206.11 39.1629L206.183 39.0354C206.237 38.9322 206.359 38.9019 206.456 38.9565C206.553 39.0111 206.589 39.1325 206.535 39.2296L206.462 39.3571C206.219 39.8062 205.995 40.2675 205.8 40.7349C205.764 40.8077 205.691 40.8563 205.612 40.8563ZM207.937 37.0749C207.888 37.0749 207.84 37.0628 207.803 37.0264C207.718 36.9536 207.706 36.8261 207.779 36.7411C208.149 36.3102 208.55 35.8914 208.969 35.5029C209.054 35.424 209.181 35.4301 209.26 35.509C209.333 35.594 209.327 35.7214 209.248 35.8003C208.841 36.1767 208.447 36.5833 208.089 37.0082C208.052 37.0507 207.991 37.0749 207.937 37.0749ZM229.235 36.3345C229.186 36.3345 229.132 36.3162 229.089 36.2738C228.701 35.8792 228.282 35.4969 227.851 35.1509C227.766 35.0781 227.748 34.9506 227.821 34.8656C227.893 34.7807 228.021 34.7625 228.106 34.8353C228.549 35.1934 228.98 35.5818 229.38 35.9885C229.459 36.0674 229.459 36.1949 229.38 36.2738C229.338 36.3162 229.289 36.3345 229.235 36.3345ZM211.299 34.1859C211.233 34.1859 211.166 34.1494 211.129 34.0887C211.069 33.9916 211.099 33.8642 211.19 33.8095C211.676 33.5061 212.185 33.2329 212.701 32.9902C212.805 32.9416 212.926 32.9841 212.975 33.0873C213.023 33.1904 212.975 33.3058 212.877 33.3543C212.374 33.591 211.876 33.8581 211.409 34.1555C211.372 34.1737 211.336 34.1859 211.299 34.1859ZM225.678 33.6821C225.646 33.6821 225.613 33.674 225.581 33.6578C225.089 33.3968 224.579 33.1662 224.064 32.9659C223.954 32.9234 223.906 32.8081 223.948 32.7049C223.985 32.5956 224.106 32.5471 224.209 32.5896C224.737 32.7959 225.265 33.0326 225.769 33.2997C225.872 33.3543 225.909 33.4757 225.854 33.5728C225.818 33.6457 225.751 33.6821 225.678 33.6821ZM215.384 32.45C215.293 32.45 215.208 32.3893 215.184 32.2982C215.16 32.189 215.226 32.0797 215.336 32.0494C215.888 31.9098 216.452 31.8005 217.023 31.7277C217.132 31.7095 217.235 31.7884 217.247 31.8976C217.266 32.013 217.187 32.1161 217.078 32.1283C216.525 32.2011 215.973 32.3043 215.433 32.4439C215.417 32.4479 215.4 32.45 215.384 32.45ZM221.484 32.2315C221.472 32.2315 221.46 32.2315 221.448 32.2315C220.901 32.1283 220.343 32.0615 219.791 32.0312C219.675 32.0251 219.59 31.928 219.596 31.8187C219.602 31.7034 219.706 31.6245 219.815 31.6245C220.385 31.6609 220.956 31.7277 221.52 31.8309C221.63 31.8491 221.703 31.9583 221.684 32.0676C221.666 32.1647 221.581 32.2315 221.484 32.2315Z" fill="#E4E4E4"/>
<path d="M231.402 39.169C231.329 39.169 231.262 39.1326 231.226 39.0658C231.092 38.8412 230.946 38.6106 230.801 38.3921C230.74 38.295 230.764 38.1675 230.861 38.1068C230.952 38.0461 231.08 38.0704 231.141 38.1675C231.292 38.3921 231.438 38.6288 231.572 38.8655C231.632 38.9626 231.596 39.084 231.499 39.1447C231.466 39.1609 231.434 39.169 231.402 39.169Z" fill="#BDD0FB"/>
<path d="M232.761 50.5921C232.741 50.5921 232.721 50.59 232.7 50.586C232.597 50.5556 232.537 50.4403 232.567 50.3311C232.64 50.0761 232.713 49.8212 232.773 49.5602C232.804 49.451 232.907 49.3842 233.016 49.4146C233.125 49.4388 233.192 49.5481 233.168 49.6573C233.107 49.9183 233.034 50.1854 232.955 50.4524C232.925 50.5374 232.846 50.5921 232.761 50.5921Z" fill="#BDD0FB"/>
<path d="M219.875 60.8616C219.766 60.8616 219.681 60.7766 219.669 60.6673C219.663 60.5581 219.748 60.461 219.863 60.4549C220.403 60.4185 220.955 60.3517 221.49 60.2485C221.605 60.2303 221.708 60.3032 221.726 60.4124C221.751 60.5217 221.678 60.6309 221.569 60.6491C221.01 60.7523 220.446 60.8191 219.887 60.8555C219.883 60.8595 219.879 60.8616 219.875 60.8616ZM217.168 60.7827C217.16 60.7827 217.152 60.7827 217.144 60.7827C216.585 60.7159 216.021 60.6127 215.475 60.4792C215.365 60.4549 215.299 60.3457 215.329 60.2364C215.353 60.1272 215.463 60.0604 215.572 60.0847C216.1 60.2121 216.646 60.3153 217.192 60.3821C217.302 60.3942 217.381 60.4974 217.368 60.6066C217.356 60.7098 217.265 60.7827 217.168 60.7827ZM224.136 59.9147C224.057 59.9147 223.978 59.8662 223.948 59.7873C223.905 59.6841 223.96 59.5627 224.063 59.5263C224.573 59.326 225.077 59.0953 225.562 58.8404C225.659 58.7919 225.781 58.8283 225.835 58.9315C225.884 59.0286 225.848 59.15 225.75 59.2046C225.253 59.4656 224.731 59.7023 224.209 59.9026C224.184 59.9107 224.16 59.9147 224.136 59.9147ZM212.962 59.5991C212.934 59.5991 212.907 59.593 212.883 59.5809C212.531 59.4231 212.179 59.2471 211.839 59.0589C211.685 58.9739 211.534 58.8869 211.384 58.7979C211.287 58.7372 211.256 58.6158 211.311 58.5187C211.372 58.4216 211.493 58.3913 211.59 58.4459C211.736 58.5349 211.886 58.6219 212.039 58.7069C212.367 58.889 212.707 59.0589 213.047 59.2167C213.15 59.2592 213.193 59.3806 213.15 59.4838C213.114 59.5566 213.041 59.5991 212.962 59.5991ZM227.923 57.7479C227.863 57.7479 227.808 57.7175 227.765 57.669C227.699 57.584 227.711 57.4566 227.796 57.3837C228.227 57.0438 228.64 56.6736 229.022 56.2851C229.101 56.2062 229.228 56.2062 229.313 56.2851C229.392 56.364 229.392 56.4915 229.313 56.5704C228.913 56.971 228.488 57.3534 228.051 57.6993C228.014 57.7297 227.966 57.7479 227.923 57.7479ZM209.302 57.2198C209.253 57.2198 209.205 57.2016 209.168 57.1713C208.75 56.795 208.343 56.3883 207.973 55.9695C207.9 55.8906 207.906 55.7571 207.991 55.6843C208.076 55.6114 208.203 55.6175 208.276 55.7025C208.64 56.1091 209.029 56.5036 209.442 56.8678C209.521 56.9407 209.533 57.0681 209.454 57.1531C209.417 57.1956 209.357 57.2198 209.302 57.2198ZM230.885 54.5371C230.849 54.5371 230.806 54.525 230.776 54.5007C230.679 54.44 230.655 54.3126 230.721 54.2215C230.958 53.8695 231.177 53.5053 231.383 53.1351C231.444 53.0258 231.502 52.9166 231.559 52.8073C231.614 52.7102 231.735 52.6677 231.832 52.7223C231.929 52.7709 231.972 52.8983 231.917 52.9955C231.86 53.1047 231.802 53.216 231.741 53.3293C231.529 53.7117 231.298 54.088 231.055 54.4461C231.019 54.5068 230.952 54.5371 230.885 54.5371Z" fill="#BDD0FB"/>
<path d="M206.523 53.8515C206.456 53.8515 206.389 53.8151 206.347 53.7483C206.207 53.5176 206.074 53.2749 205.946 53.0321C205.898 52.935 205.934 52.8075 206.037 52.759C206.134 52.7043 206.256 52.7468 206.31 52.8439C206.432 53.0806 206.565 53.3174 206.699 53.5419C206.753 53.639 206.723 53.7604 206.626 53.8211C206.596 53.8393 206.559 53.8515 206.523 53.8515Z" fill="#BDD0FB"/>
<path d="M218.977 53.0381C217.308 53.0381 215.638 52.4311 214.327 51.2112C214.036 50.932 213.769 50.6346 213.532 50.319C213.48 50.2502 213.429 50.1814 213.381 50.1126L213.884 49.7666C214.133 50.1247 214.425 50.4646 214.746 50.762C215.147 51.1383 215.578 51.4479 216.039 51.6967C217.544 52.504 219.311 52.6436 220.901 52.1277C220.933 52.1196 220.963 52.1095 220.992 52.0973C220.992 52.0973 220.994 52.0973 220.998 52.0973C221.002 52.0933 221.008 52.0913 221.016 52.0913C221.016 52.0913 221.016 52.0913 221.022 52.0913C221.835 51.806 222.6 51.3508 223.262 50.7195C223.266 50.7115 223.272 50.7054 223.28 50.7013C223.296 50.6852 223.314 50.6669 223.335 50.6467C223.391 50.5901 223.448 50.5314 223.505 50.4707C224.585 49.3175 225.174 47.8244 225.174 46.2463C225.174 46.1735 225.174 46.1027 225.174 46.0339C225.113 44.383 224.421 42.8474 223.213 41.7184C220.719 39.3817 216.792 39.5152 214.455 42.0098C213.69 42.8292 213.156 43.8367 212.925 44.9292L212.331 44.8018C212.585 43.6 213.168 42.4953 214.012 41.591C215.25 40.2618 216.937 39.5031 218.752 39.4424C220.573 39.3817 222.303 40.0311 223.626 41.2693C224.955 42.5136 225.72 44.1948 225.781 46.0157C225.781 46.0925 225.781 46.1694 225.781 46.2463C225.781 47.9761 225.137 49.621 223.948 50.8895C222.612 52.3158 220.798 53.0381 218.977 53.0381Z" fill="#D0D0D0"/>
<path d="M173.899 50.6159L122.126 45.3779L70.2676 50.3125L69.3086 165.093L121.148 162.714L172.934 166.325L224.725 161.979L225.672 48.4066L173.899 50.6159Z" fill="white"/>
<path d="M122.283 160.11L73.0293 162.362L73.9397 53.4809L123.212 48.8013L122.283 160.11Z" fill="#D2E4C8"/>
<path d="M220.694 159.413L171.489 163.534L172.399 53.7668L221.593 51.6729L220.694 159.413Z" fill="#D2E4C8"/>
<path opacity="0.5" d="M121.167 160.128L122.283 160.14L123.212 48.8012L122.095 48.7891L121.167 160.128Z" fill="white"/>
<path d="M158.373 122.492C158.171 124.045 158.009 125.603 157.888 127.165C157.857 127.535 157.93 128.045 158.288 128.082C158.507 128.1 158.683 127.918 158.828 127.754C159.447 127.044 160.115 126.127 159.818 125.223C159.702 124.889 159.466 124.604 159.375 124.264C159.241 123.748 159.453 123.202 159.399 122.668C159.344 122.134 158.701 121.612 158.349 122L158.373 122.492Z" fill="#F8EEEE"/>
<path d="M118.508 71.4044C116.074 70.1177 114.539 69.9417 111.917 70.2269C109.44 70.5001 107.771 71.7382 106.072 73.5105C105.683 73.9172 105.307 74.3542 104.809 74.5848C102.709 75.556 100.045 75.3617 97.9021 76.3207C95.3468 77.4557 94.6306 81.0003 92.2999 82.5663C90.9464 83.4706 89.2469 83.5859 87.766 84.2354C85.5749 85.1944 84.5613 87.1912 83.317 89.1335C82.5462 90.3292 79.7299 92.3746 79.8877 93.7706C79.9181 94.0255 80.0213 94.2622 80.1548 94.4807C80.9317 95.731 82.097 95.8646 83.317 96.2166C84.9376 96.69 85.9087 97.4184 87.3411 98.432C88.8342 99.4881 90.8675 100.411 90.9949 102.274C91.0556 103.142 90.649 103.955 90.4548 104.799C89.5625 108.604 92.8704 112.022 96.0873 114.079C99.3041 116.137 103.104 118.17 104.129 121.939C104.22 122.279 104.299 122.649 104.548 122.898C105.489 123.821 106.193 121.733 106.478 121.065C106.66 120.64 106.497 120.124 106.211 119.76C105.92 119.402 105.531 119.147 105.179 118.85C103.99 117.861 103.219 116.349 103.098 114.777C103.079 114.577 103.079 114.358 103.189 114.195C103.747 113.351 105.137 113.005 105.823 111.979C106.794 110.516 107.018 109.126 107.182 107.391C107.795 101.005 113.61 103.263 117.258 100.435C117.938 99.9069 118.447 99.0754 118.563 98.2256C118.629 97.7583 118.569 97.2848 118.356 96.8478C117.998 96.1195 117.264 95.6521 116.499 95.4397C115.734 95.2333 114.933 95.2455 114.144 95.2637C113.408 95.2799 112.673 95.2961 111.941 95.3123C111.722 95.3183 111.498 95.3244 111.304 95.4094C111.018 95.5368 110.83 95.8099 110.678 96.0891C110.187 96.9753 109.944 98.0071 109.986 99.0268C109.021 99.3667 108.081 98.4441 107.553 97.5398C106.946 96.4958 106.509 95.3426 106.266 94.153C106.169 93.6917 106.114 93.1818 106.345 92.7752C106.472 92.5506 106.673 92.3807 106.879 92.2289C107.698 91.6159 108.645 91.1546 109.653 91.0454C111.376 90.8572 113.046 91.707 114.454 92.7448C115.807 93.7463 118.016 94.942 119.534 93.5035C120.323 92.7631 120.335 91.4156 119.789 90.4748C118.903 88.9393 116.639 88.1381 115.164 87.3673C114.472 87.0031 114.029 86.2626 113.835 85.4857C113.634 84.7149 113.659 83.9016 113.677 83.1004C115.716 82.2628 118.114 82.4267 120.032 83.5313C120.305 83.6891 120.596 83.9076 120.626 84.2232C120.663 84.5571 120.408 84.8302 120.214 85.0912C118.447 87.3976 120.032 89.267 122.107 90.5659C122.162 84.7149 122.174 78.8274 122.174 72.9643C120.918 72.5455 119.686 72.0296 118.508 71.4044Z" fill="#F8EEEE"/>
<path d="M136.966 76.3633C136.68 75.9809 136.116 76.078 135.649 76.078C134.155 76.0902 132.972 74.7913 131.539 74.3664C130.787 74.1418 129.992 74.1661 129.209 74.154C126.823 74.1176 124.45 73.7109 122.174 72.9644C122.174 78.8275 122.162 84.7149 122.107 90.566C123.406 91.3793 124.887 91.9741 125.877 92.3261C126.914 92.6903 127.916 93.2973 129.027 93.0727C130.065 92.8602 130.993 91.6949 132.068 91.3975C132.844 91.179 133.676 91.2943 134.465 91.1304C135.254 90.9666 136.073 90.3535 136.043 89.522C136.013 88.8422 135.442 88.3324 134.866 88.0046C134.866 88.0714 133.876 87.2581 133.779 87.0821C132.917 85.3462 134.174 83.8227 134.653 82.3236C135.351 80.1567 134.319 78.8821 136.462 77.6804C136.923 77.4255 137.281 76.7882 136.966 76.3633Z" fill="#F8EEEE"/>
<path d="M107.983 131.262C108.36 132.051 108.663 132.792 108.748 133.423C109.1 136.172 106.812 139.559 105.841 142.072C105.568 142.77 105.289 143.51 105.416 144.251C105.465 144.566 105.586 144.858 105.707 145.149C106.587 147.304 108.323 149.252 109.865 150.915C110.393 149.489 110.357 146.072 110.211 144.554C110.162 144.057 110.077 143.529 110.26 143.061C110.83 141.562 112.687 139.498 113.968 138.606C115.224 137.726 116.875 137.028 117.203 135.493C117.331 134.904 117.221 134.273 117.409 133.702C117.519 133.362 117.725 133.059 117.889 132.743C118.702 131.177 119.164 128.161 117.537 127.056C115.716 125.812 113.143 127.633 111.583 125.605C111.346 125.302 111.17 124.944 110.903 124.671C110.405 124.161 109.64 123.997 108.955 124.118C104.354 124.913 106.618 128.385 107.983 131.262Z" fill="#F8EEEE"/>
<path d="M136.874 108.544C138.331 109.509 140.838 107.397 141.76 104.933C141.876 104.623 141.979 104.301 142.191 104.052C142.622 103.549 143.363 103.482 144.006 103.579C144.655 103.67 145.299 103.882 145.942 103.798C146.871 103.676 147.635 102.942 148.066 102.086C148.503 101.224 148.655 100.253 148.807 99.3C149.493 99.124 150.233 99.1907 150.877 99.4881C151.374 99.7188 151.872 100.223 151.732 100.763C151.666 101.018 151.484 101.212 151.308 101.394C150.761 101.977 150.258 102.596 149.79 103.245C149.505 103.652 149.226 104.174 149.438 104.623C150.027 105.837 151.101 105.206 150.792 106.948C150.403 109.127 147.538 110.019 149.171 112.623C149.772 113.576 150.864 114.146 151.963 114.201C152.746 114.237 153.717 113.812 153.729 112.999C153.729 112.756 153.644 112.507 153.717 112.277C153.814 111.979 154.142 111.834 154.439 111.785C155.429 111.633 156.376 112.143 157.286 112.562C157.559 112.689 157.887 112.811 158.148 112.653C158.998 112.149 158.597 111.736 159.756 111.627C160.74 111.53 161.893 112.313 162.445 113.09C162.585 113.278 162.706 113.521 162.621 113.733C162.542 113.921 162.342 114.019 162.239 114.189C162.069 114.474 162.239 114.862 162.506 115.044C162.773 115.232 163.107 115.275 163.422 115.342C164.903 115.657 164.934 117.114 165.984 117.842C166.827 118.431 168.988 118.546 168.8 116.847C168.727 116.228 168.126 115.718 168.223 115.099C168.314 114.559 168.903 114.267 169.431 114.201C169.959 114.128 170.524 114.182 170.997 113.928C171.307 113.758 171.549 113.466 171.835 113.254C173.601 111.925 177.783 113.054 179.136 114.541C180.399 115.937 180.538 118.334 182.171 119.238C181.977 117.387 181.079 115.627 179.701 114.425C179.452 114.201 179.173 113.988 179.039 113.673C178.93 113.412 178.936 113.108 178.948 112.823C179.021 111.36 179.3 109.994 179.689 108.629C179.64 108.787 180.72 105.819 179.944 106.377C181.333 105.376 184.368 103.719 186.11 103.828C187.015 103.882 187.907 104.429 188.289 105.278C188.672 106.134 188.441 107.269 187.694 107.797C186.972 108.307 185.977 108.21 185.248 108.702C184.55 109.175 184.247 110.195 184.575 110.99C185.036 110.334 185.722 109.867 186.48 109.685C187.5 109.442 188.659 109.697 189.533 109.114C190.183 108.683 190.523 107.864 190.535 107.063C190.541 106.268 190.256 105.497 189.873 104.805C189.6 104.301 189.266 103.822 189.115 103.269C188.878 102.377 189.163 101.406 189.661 100.635C191.512 97.7826 194.947 96.5505 198.122 97.6005C198.334 97.6734 198.559 97.7644 198.668 97.9647C198.826 98.256 198.674 98.6202 198.741 98.948C198.85 99.4639 199.603 99.6581 199.93 99.2514C200.155 98.9783 200.143 98.5716 200.228 98.2257C200.446 97.3092 201.351 96.7508 202.225 96.4898C203.293 96.1681 206.17 94.6993 206.467 96.6415C206.492 96.8115 206.492 96.9936 206.558 97.1514C206.759 97.5884 207.432 97.5277 207.754 97.1696C208.41 96.4352 208.531 95.2334 209.168 94.414C209.733 93.6917 210.564 93.2608 211.038 92.4475C212.209 90.4446 211.317 87.8286 209.278 86.8575C207.323 85.9288 205.053 86.3416 202.935 86.7361C201.478 87.0092 196.477 88.0471 196.119 85.6011C196.088 85.4069 196.095 85.1883 196.004 85.0123C195.888 84.7938 195.645 84.6785 195.494 84.4782C195.306 84.2233 195.299 83.8773 195.196 83.5799C194.826 82.4813 193.436 82.2811 192.313 82.2628C192.429 81.5831 192.489 80.7576 191.961 80.3327C191.658 80.096 191.257 80.0717 190.881 80.0535C189.898 80.0111 187.537 80.3752 186.723 79.7804C185.649 78.9974 186.389 77.6561 185.922 76.5757C185.424 75.4286 183.573 75.2647 183.367 74.0265C183.324 73.7534 183.373 73.4802 183.336 73.2071C183.264 72.5455 182.742 72.0478 182.256 71.6169C181.376 70.8279 180.374 69.9963 179.215 70.0267C178.997 70.2027 179.191 70.579 179.44 70.7125C179.683 70.8461 179.998 70.9189 180.126 71.1738C180.362 71.6715 179.676 72.0782 179.148 72.1814C179.124 72.9036 179.828 73.3831 180.374 73.8383C181.291 74.6092 181.94 75.7138 182.189 76.9095C180.338 77.2555 178.438 77.3344 176.569 77.1462C174.311 76.9217 172.866 80.6301 170.19 79.5983C169.795 79.4466 169.443 79.1795 169.031 79.0946C167.987 78.8943 167.149 79.9139 166.214 80.4238C164.794 81.2067 163.046 80.8062 161.523 80.266C159.696 79.6226 157.48 78.694 155.641 79.8047C154.955 80.2235 154.409 80.8669 153.681 81.2007C152.151 81.9047 150.421 81.0429 148.758 80.879C144.655 80.4723 142.191 84.6239 140.856 88.0774C140.656 88.6055 140.473 89.1578 140.498 89.7223C140.528 90.2807 140.801 90.8694 141.299 91.1001C142.039 91.446 142.895 90.8998 143.375 90.2261C143.86 89.5523 144.152 88.7269 144.74 88.1563C145.329 87.5797 146.409 87.3977 146.877 88.0835C147.107 88.4173 147.114 88.8604 147.114 89.2731C147.118 90.0541 147.12 90.835 147.12 91.616C147.12 92.0469 147.12 92.4961 146.95 92.8845C146.67 93.5461 145.997 93.9042 145.372 94.2198C144.012 94.8996 142.654 95.5794 141.299 96.2592C140.844 96.4837 140.376 96.7204 139.988 97.0603C138.216 98.6081 139.405 100.751 138.04 102.238C137.487 102.845 136.571 103.021 136.116 103.706C135.782 104.216 135.788 104.872 135.8 105.485C135.836 107.19 136.261 108.143 136.874 108.544Z" fill="#F8EEEE"/>
<path d="M184.199 121.557C183.646 122.583 183.725 123.924 182.481 124.495C181.656 124.871 180.599 124.701 179.926 125.32C179.161 126.037 179.361 127.293 179.507 128.349C179.531 128.537 179.555 128.738 179.483 128.914C179.282 129.375 178.572 129.363 178.329 129.806C178.123 130.182 178.378 130.655 178.694 130.947C179.64 131.833 181.182 131.954 182.244 131.214C182.53 131.02 182.833 130.759 183.167 130.844C183.549 130.941 183.683 131.426 183.786 131.821C184.011 132.664 184.448 133.478 185.145 133.976C187.331 135.535 190.414 133.636 192.842 135.839C193.139 136.112 193.424 136.434 193.509 136.834C193.606 137.271 193.467 137.769 193.704 138.139C193.995 138.607 194.723 138.54 195.118 138.163C195.518 137.793 195.676 137.223 195.84 136.695C196.004 136.167 196.222 135.608 196.678 135.311C197.448 134.813 198.322 135.001 198.747 133.994C199.275 132.701 197.697 131.627 198.195 130.449C198.42 129.927 198.778 129.351 198.553 128.829C198.444 128.561 198.201 128.379 198.001 128.173C197.06 127.208 196.902 126.298 195.652 125.703C194.857 125.326 193.206 125.818 192.878 124.44C192.793 124.082 192.921 123.633 192.653 123.39C192.502 123.251 192.277 123.239 192.077 123.239C190.681 123.245 189.018 123.269 188.223 122.079C187.343 120.768 187.239 119.821 185.455 120.477C184.806 120.714 184.441 121.102 184.199 121.557Z" fill="#D2E4C8"/>
<path d="M142.568 114.334C142.277 114.753 142.113 115.257 141.809 115.663C140.941 116.805 140.565 115.791 139.594 116.179C139.254 116.313 138.957 116.55 138.605 116.629C137.894 116.798 137.19 116.307 136.462 116.307C133.652 116.295 135.127 120.962 136.486 121.86C136.735 122.024 137.051 122.03 137.354 122.024C138.277 122.016 139.201 122.008 140.128 122C140.395 121.994 140.674 122 140.893 122.152C141.566 122.631 140.923 123.809 141.33 124.537C141.603 125.041 142.246 125.132 142.799 125.235C143.958 125.454 144.213 126.759 144.923 127.566C145.833 128.604 146.707 129.022 147.223 130.528C147.527 131.42 147.636 132.385 148.037 133.235C148.868 134.989 151.017 135.93 152.813 135.329C154.604 134.728 155.812 132.658 155.49 130.74C155.302 129.617 154.677 128.634 154.246 127.584C153.366 125.472 153.96 122.892 156.394 122.486C157.007 122.389 157.784 122.352 158.015 121.751C158.343 120.895 157.068 119.888 157.596 119.135C157.79 118.868 158.155 118.771 158.324 118.486C158.549 118.103 158.294 117.606 157.978 117.296C157.669 116.987 157.274 116.72 157.141 116.289C156.419 113.879 154.027 115.384 152.437 115.706C151.017 115.985 150.203 115.803 149.026 115.093C147.193 114 144.419 111.676 142.568 114.334Z" fill="#F8EEEE"/>
<path d="M148.619 76.6489C148.832 76.2483 149.341 76.1512 149.785 76.1209C151.314 76.0116 152.856 76.1148 154.361 76.4243C153.117 77.4379 151.727 78.5001 150.149 78.4455C149.426 78.4212 148.686 78.1663 148.012 78.4273C147.854 77.9417 147.945 77.3712 148.237 76.9585L148.619 76.6489Z" fill="white"/>
<path d="M130.945 95.2577C132.504 96.5323 138.01 94.8329 135.442 93.182C135.029 92.9149 134.532 92.836 134.046 92.7571C133.397 92.6539 132.735 92.5507 132.092 92.6903C131.448 92.8299 130.823 93.2548 130.629 93.9042C130.447 94.5294 130.593 94.9725 130.945 95.2577Z" fill="white"/>
<path d="M198.905 84.0227C199.87 84.8968 201.224 85.1092 202.492 85.2913C203.129 85.3823 203.961 85.358 204.179 84.7329C204.41 84.0774 203.663 83.4704 202.99 83.3915C202.322 83.3187 201.606 83.5008 200.987 83.2276C200.435 82.9849 199.998 82.4022 199.403 82.4083C198.705 82.4143 198.28 83.4704 198.771 83.9863L198.905 84.0227Z" fill="url(#paint0_linear_510_28547)"/>
<path d="M134.738 73.286H86.0604C85.496 73.286 85.0347 72.8247 85.0347 72.2602V60.6796C85.0347 60.109 85.496 59.6538 86.0604 59.6538H134.738C135.302 59.6538 135.764 60.109 135.764 60.6796V72.2602C135.764 72.8247 135.302 73.286 134.738 73.286Z" fill="#414E5C"/>
<path d="M99.3769 66.3484H92.221C92.0267 66.3484 91.875 66.1967 91.875 66.0086C91.875 65.8143 92.0267 65.6626 92.221 65.6626H99.3769C99.5651 65.6626 99.7229 65.8143 99.7229 66.0086C99.7229 66.1967 99.5651 66.3484 99.3769 66.3484Z" fill="white"/>
<path d="M94.4607 70.9672C94.2726 70.9672 94.1147 70.7184 94.1147 70.4028V64.2847C94.1147 63.9751 94.2726 63.7202 94.4607 63.7202C94.6489 63.7202 94.8067 63.9751 94.8067 64.2847V70.4028C94.8067 70.7184 94.6489 70.9672 94.4607 70.9672Z" fill="white"/>
<path d="M97.0769 70.9672C96.8888 70.9672 96.731 70.7184 96.731 70.4028V64.2847C96.731 63.9751 96.8888 63.7202 97.0769 63.7202C97.2651 63.7202 97.4229 63.9751 97.4229 64.2847V70.4028C97.4229 70.7184 97.2651 70.9672 97.0769 70.9672Z" fill="white"/>
<path d="M99.1584 68.7576H92.2574C92.0449 68.7576 91.875 68.6059 91.875 68.4117C91.875 68.2235 92.0449 68.0718 92.2574 68.0718H99.1584C99.3709 68.0718 99.5408 68.2235 99.5408 68.4117C99.5408 68.6059 99.3709 68.7576 99.1584 68.7576Z" fill="white"/>
<path fill-rule="evenodd" clip-rule="evenodd" d="M99.541 71.3435H91.9966C91.6628 71.3435 91.3896 71.0703 91.3896 70.7365V63.9265C91.3896 63.5866 91.6628 63.3135 91.9966 63.3135H99.541C99.8748 63.3135 100.148 63.5866 100.148 63.9265V70.7365C100.148 71.0703 99.8748 71.3435 99.541 71.3435ZM92.6036 70.1295H98.9341V64.5334H92.6036V70.1295Z" fill="white"/>
<path fill-rule="evenodd" clip-rule="evenodd" d="M91.9964 71.3436H88.7674C88.5975 71.3436 88.4336 71.2708 88.3183 71.1433C88.2029 71.0159 88.1483 70.8459 88.1665 70.676L89.0345 61.5839C89.0648 61.2743 89.3258 61.0376 89.6414 61.0376H91.2013C91.5169 61.0376 91.7779 61.2804 91.8082 61.5899L92.6033 70.6821C92.6155 70.852 92.5609 71.022 92.4455 71.1494C92.3302 71.2708 92.1663 71.3436 91.9964 71.3436ZM89.4411 70.1297H91.3348L90.6429 62.2515H90.1937L89.4411 70.1297Z" fill="white"/>
<g opacity="0.8">
<path d="M119.995 64.2242H103.516C103.407 64.2242 103.322 64.1393 103.322 64.03V63.1317C103.322 63.0225 103.407 62.9375 103.516 62.9375H119.995C120.104 62.9375 120.189 63.0225 120.189 63.1317V64.03C120.189 64.1393 120.104 64.2242 119.995 64.2242Z" fill="white"/>
<path d="M119.995 66.9676H103.516C103.407 66.9676 103.322 66.8826 103.322 66.7734V65.869C103.322 65.7658 103.407 65.6748 103.516 65.6748H119.995C120.104 65.6748 120.189 65.7658 120.189 65.869V66.7734C120.189 66.8826 120.104 66.9676 119.995 66.9676Z" fill="white"/>
<path d="M109.998 69.7108H103.516C103.407 69.7108 103.322 69.6197 103.322 69.5166V68.6122C103.322 68.5029 103.407 68.418 103.516 68.418H109.998C110.108 68.418 110.192 68.5029 110.192 68.6122V69.5166C110.192 69.6197 110.108 69.7108 109.998 69.7108Z" fill="white"/>
</g>
<path d="M126.447 70.8705L133.239 66.7432C133.421 66.6339 133.421 66.294 133.239 66.1787L126.411 62.1061C126.253 62.015 126.077 62.1607 126.083 62.3913V63.7206C126.089 63.8905 125.98 64.0301 125.852 64.0301L122.271 64.0544C122.144 64.0544 122.035 64.194 122.035 64.3639L122.053 68.6733C122.053 68.8432 122.162 68.9828 122.29 68.9828L125.871 68.9525C125.998 68.9525 126.107 69.0921 126.107 69.262L126.113 70.5913C126.113 70.8158 126.289 70.9676 126.447 70.8705Z" fill="white"/>
<path d="M229.835 84.9698H181.158C180.593 84.9698 180.132 84.5085 180.132 83.9379V72.3573C180.132 71.7928 180.593 71.3315 181.158 71.3315H229.835C230.4 71.3315 230.861 71.7928 230.861 72.3573V83.9379C230.861 84.5085 230.4 84.9698 229.835 84.9698Z" fill="#414E5C"/>
<path fill-rule="evenodd" clip-rule="evenodd" d="M191.342 80.8304H186.414C186.28 80.8304 186.165 80.7394 186.135 80.6059C186.123 80.5694 186.108 80.533 186.092 80.4966C186.092 80.4926 186.09 80.4885 186.086 80.4845C186.068 80.442 186.044 80.3995 186.019 80.357C185.849 80.1082 185.57 79.9625 185.279 79.9625C184.982 79.9625 184.702 80.1142 184.532 80.357C184.508 80.3995 184.484 80.442 184.466 80.4845C184.462 80.4885 184.46 80.4926 184.46 80.4966C184.439 80.533 184.425 80.5694 184.417 80.6059C184.387 80.7394 184.271 80.8304 184.138 80.8304H183.889C183.634 80.8304 183.428 80.6241 183.428 80.3691V75.993C183.428 75.7381 183.634 75.5317 183.889 75.5317H191.342C191.597 75.5317 191.81 75.7381 191.81 75.993V80.3691C191.81 80.6241 191.597 80.8304 191.342 80.8304ZM186.614 80.2538H191.227V76.1083H184.004V80.1142C184.021 80.0859 184.039 80.0576 184.059 80.0293C184.338 79.6287 184.793 79.3859 185.279 79.3859C185.764 79.3859 186.22 79.6287 186.493 80.0353C186.541 80.1001 186.582 80.1709 186.614 80.2478C186.614 80.2478 186.614 80.2498 186.614 80.2538Z" fill="white"/>
<path fill-rule="evenodd" clip-rule="evenodd" d="M194.978 80.8302H194.766C194.632 80.8302 194.517 80.7391 194.487 80.6056C194.478 80.5692 194.464 80.5328 194.444 80.4963C194.444 80.4923 194.442 80.4883 194.438 80.4842C194.42 80.4417 194.396 80.3992 194.371 80.3567C194.201 80.114 193.922 79.9622 193.625 79.9622C193.333 79.9622 193.054 80.114 192.884 80.3567C192.854 80.3992 192.836 80.4417 192.811 80.4842C192.811 80.4883 192.809 80.4923 192.805 80.4963C192.789 80.5328 192.777 80.5692 192.769 80.6056C192.739 80.7391 192.623 80.8302 192.484 80.8302H192.423C192.168 80.8302 191.956 80.6238 191.956 80.3689V76.9457C191.956 76.6908 192.168 76.4844 192.423 76.4844H193.163C193.352 76.4783 194.213 76.4783 194.863 77.1763C195.506 77.8622 195.464 78.7058 195.439 78.9122V80.3689C195.439 80.6238 195.233 80.8302 194.978 80.8302ZM193.625 79.3856C194.11 79.3856 194.565 79.6284 194.845 80.029C194.853 80.0371 194.859 80.0452 194.863 80.0533V78.9001C194.863 78.8879 194.863 78.8758 194.863 78.8636C194.881 78.7362 194.93 78.0928 194.444 77.5708C193.959 77.0489 193.309 77.0549 193.188 77.061C193.184 77.061 193.18 77.061 193.176 77.061H192.538V79.8712C192.817 79.5616 193.212 79.3856 193.625 79.3856Z" fill="white"/>
<path fill-rule="evenodd" clip-rule="evenodd" d="M185.279 81.9898C184.848 81.9898 184.496 81.6377 184.496 81.2068C184.496 81.0247 184.563 80.8426 184.684 80.703C184.83 80.527 185.042 80.4238 185.279 80.4238C185.51 80.4238 185.722 80.527 185.868 80.703C185.989 80.8426 186.056 81.0247 186.056 81.2068C186.056 81.6377 185.704 81.9898 185.279 81.9898ZM185.279 81.0065C185.218 81.0065 185.164 81.0247 185.133 81.0672C185.129 81.0712 185.125 81.0753 185.121 81.0793C185.103 81.1036 185.073 81.1461 185.073 81.2068C185.073 81.3221 185.164 81.4132 185.279 81.4132C185.388 81.4132 185.479 81.3221 185.479 81.2068C185.479 81.1461 185.449 81.1036 185.425 81.0793C185.425 81.0753 185.423 81.0712 185.419 81.0672C185.388 81.0247 185.334 81.0065 185.279 81.0065Z" fill="white"/>
<path fill-rule="evenodd" clip-rule="evenodd" d="M193.625 81.9898C193.194 81.9898 192.848 81.6377 192.848 81.2068C192.848 81.0247 192.914 80.8426 193.036 80.703C193.181 80.527 193.394 80.4238 193.625 80.4238C193.861 80.4238 194.074 80.527 194.219 80.703C194.341 80.8426 194.408 81.0247 194.408 81.2068C194.408 81.6377 194.055 81.9898 193.625 81.9898ZM193.625 81.0065C193.57 81.0065 193.515 81.0308 193.479 81.0672C193.479 81.0712 193.477 81.0753 193.473 81.0793C193.449 81.1036 193.424 81.1461 193.424 81.2068C193.424 81.316 193.515 81.4132 193.625 81.4132C193.734 81.4132 193.831 81.316 193.831 81.2068C193.831 81.1461 193.801 81.1036 193.782 81.0793C193.778 81.0753 193.774 81.0712 193.77 81.0672C193.74 81.0308 193.685 81.0065 193.625 81.0065Z" fill="white"/>
<g opacity="0.8">
<path d="M214.947 75.908H198.468C198.359 75.908 198.274 75.8231 198.274 75.7138V74.8095C198.274 74.7063 198.359 74.6152 198.468 74.6152H214.947C215.056 74.6152 215.141 74.7063 215.141 74.8095V75.7138C215.141 75.8231 215.056 75.908 214.947 75.908Z" fill="white"/>
<path d="M214.947 78.6512H198.468C198.359 78.6512 198.274 78.5602 198.274 78.457V77.5526C198.274 77.4434 198.359 77.3584 198.468 77.3584H214.947C215.056 77.3584 215.141 77.4434 215.141 77.5526V78.457C215.141 78.5602 215.056 78.6512 214.947 78.6512Z" fill="white"/>
<path d="M204.95 81.3883H198.468C198.359 81.3883 198.274 81.3033 198.274 81.1941V80.2897C198.274 80.1865 198.359 80.1016 198.468 80.1016H204.95C205.06 80.1016 205.145 80.1865 205.145 80.2897V81.1941C205.145 81.3033 205.06 81.3883 204.95 81.3883Z" fill="white"/>
</g>
<path d="M221.399 82.554L228.19 78.4268C228.373 78.3175 228.373 77.9716 228.19 77.8623L221.362 73.7897C221.211 73.6925 221.034 73.8443 221.034 74.0689L221.041 75.3981C221.041 75.568 220.931 75.7076 220.804 75.7076L217.223 75.738C217.095 75.738 216.992 75.8776 216.992 76.0475L217.004 80.3508C217.004 80.5268 217.114 80.6604 217.241 80.6604L220.822 80.6361C220.95 80.6361 221.059 80.7696 221.059 80.9456L221.065 82.2748C221.065 82.4994 221.241 82.6451 221.399 82.554Z" fill="white"/>
<path d="M201.005 161.082H152.334C151.763 161.082 151.308 160.62 151.308 160.05V148.475C151.308 147.905 151.763 147.443 152.334 147.443H201.005C201.576 147.443 202.031 147.905 202.031 148.475V160.05C202.031 160.62 201.576 161.082 201.005 161.082Z" fill="#414E5C"/>
<path fill-rule="evenodd" clip-rule="evenodd" d="M158.974 151.267V149.349C158.974 149.119 159.162 148.931 159.392 148.931H162.458C162.688 148.931 162.876 149.119 162.876 149.349V151.267C162.876 151.498 162.688 151.686 162.458 151.686H159.392C159.162 151.686 158.974 151.498 158.974 151.267ZM162.251 151.061V149.562H159.599V151.061H162.251Z" fill="white"/>
<path fill-rule="evenodd" clip-rule="evenodd" d="M167.38 153.817L165.177 157.422C164.946 157.792 164.552 158.011 164.115 158.011H155.599C155.114 158.011 154.652 157.768 154.373 157.367L152.886 155.201C152.753 155 152.734 154.739 152.85 154.527C152.965 154.308 153.183 154.175 153.426 154.175L157.062 154.145V152.336C157.062 152.105 157.25 151.917 157.481 151.917H160.546C160.776 151.917 160.965 152.105 160.965 152.336V154.114H161.213V152.336C161.213 152.105 161.402 151.917 161.632 151.917H164.697C164.928 151.917 165.116 152.105 165.116 152.336V152.761H166.791C166.791 152.761 166.793 152.761 166.797 152.761C167.046 152.761 167.271 152.9 167.398 153.113C167.52 153.337 167.514 153.604 167.38 153.817ZM162.124 154.108L162.707 153.264C162.925 152.949 163.283 152.761 163.659 152.761H164.485V152.548H161.839V154.108H162.124ZM157.681 154.145H157.742L160.333 154.12V152.548H157.681V154.145ZM166.846 153.428C166.834 153.408 166.816 153.398 166.791 153.398H163.659C163.483 153.398 163.32 153.483 163.216 153.629L162.549 154.6C162.488 154.685 162.391 154.733 162.294 154.739L161.523 154.745H161.025L157.748 154.77L153.426 154.806C153.42 154.806 153.408 154.806 153.402 154.818C153.39 154.836 153.402 154.849 153.402 154.855L154.889 157.015C155.047 157.246 155.314 157.392 155.599 157.392H164.115C164.327 157.392 164.527 157.276 164.643 157.094L166.84 153.495C166.856 153.471 166.858 153.449 166.846 153.428Z" fill="white"/>
<g opacity="0.7">
<path d="M185.571 152.02H169.092C168.983 152.02 168.898 151.935 168.898 151.826V150.921C168.898 150.818 168.983 150.727 169.092 150.727H185.571C185.68 150.727 185.765 150.818 185.765 150.921V151.826C185.765 151.935 185.68 152.02 185.571 152.02Z" fill="white"/>
<path d="M185.571 154.763H169.092C168.983 154.763 168.898 154.672 168.898 154.569V153.664C168.898 153.555 168.983 153.47 169.092 153.47H185.571C185.68 153.47 185.765 153.555 185.765 153.664V154.569C185.765 154.672 185.68 154.763 185.571 154.763Z" fill="white"/>
<path d="M175.574 157.501H169.092C168.983 157.501 168.898 157.416 168.898 157.312V156.408C168.898 156.299 168.983 156.214 169.092 156.214H175.574C175.684 156.214 175.769 156.299 175.769 156.408V157.312C175.769 157.416 175.684 157.501 175.574 157.501Z" fill="white"/>
</g>
<path d="M192.022 158.666L198.814 154.539C198.996 154.429 198.996 154.083 198.814 153.974L191.986 149.901C191.828 149.804 191.652 149.956 191.658 150.181V151.51C191.664 151.686 191.555 151.826 191.428 151.826L187.847 151.85C187.719 151.85 187.61 151.989 187.616 152.159L187.628 156.469C187.628 156.639 187.737 156.778 187.865 156.772L191.446 156.748C191.573 156.748 191.683 156.887 191.683 157.057L191.689 158.387C191.689 158.611 191.865 158.763 192.022 158.666Z" fill="white"/>
<path d="M65.3696 177.555V154.739C65.3696 151.741 67.7792 149.307 70.7776 149.271C79.7726 149.173 98.3211 149.167 113.501 150.448C115.577 150.624 117.185 152.317 117.258 154.399L118.678 176.456C118.787 179.369 116.481 181.809 113.562 181.864L70.5955 182.677C67.7246 182.732 65.3696 180.425 65.3696 177.555Z" fill="#720440"/>
<path d="M70.5771 157.21C70.5407 159.152 70.6014 162.229 70.6439 164.22C70.6681 165.258 71.5786 166.047 72.6104 165.926L80.0091 165.058C80.9985 164.942 81.6904 164.032 81.5447 163.049L80.6343 156.985C80.5068 156.129 79.7663 155.492 78.8984 155.492H72.3372C71.3843 155.492 70.6014 156.251 70.5771 157.21Z" fill="white"/>
<path opacity="0.4" d="M89.9269 168.699L96.0996 169.361C96.9675 169.458 97.7019 168.742 97.6412 167.874L96.2877 149.507C93.7021 149.422 91.1468 149.368 88.6826 149.325V167.309C88.6826 168.025 89.2167 168.62 89.9269 168.699Z" fill="white"/>
<path d="M92.4579 165.513C92.4761 165.84 92.7492 166.095 93.077 166.095C93.0891 166.095 93.1012 166.095 93.1134 166.095C93.4533 166.077 93.7143 165.786 93.696 165.44L92.7674 149.41C92.3506 149.398 91.9339 149.388 91.5171 149.38L92.4579 165.513Z" fill="white"/>
<path d="M74.0069 162.994C73.8976 162.994 73.8066 162.909 73.7944 162.799L73.4788 157.75C73.4728 157.634 73.5577 157.537 73.673 157.531C73.7884 157.525 73.8855 157.61 73.8915 157.725L74.2132 162.775C74.2193 162.89 74.1343 162.988 74.019 162.994C74.015 162.994 74.0109 162.994 74.0069 162.994Z" fill="url(#paint1_linear_510_28547)"/>
<path d="M74.662 162.994C74.5527 162.994 74.4617 162.909 74.4556 162.793L74.2856 157.646C74.2856 157.531 74.3767 157.44 74.4859 157.434C74.6195 157.428 74.6984 157.519 74.7044 157.634L74.8683 162.781C74.8744 162.896 74.7833 162.994 74.668 162.994H74.662Z" fill="url(#paint2_linear_510_28547)"/>
<path fill-rule="evenodd" clip-rule="evenodd" d="M75.5483 162.994C75.439 162.994 75.348 162.909 75.3419 162.8C75.2994 161.95 75.0991 157.725 75.0991 157.64C75.0991 157.525 75.1902 157.434 75.3055 157.434C75.4208 157.434 75.5119 157.525 75.5119 157.64C75.5179 157.75 75.6697 161.052 75.7546 162.781C75.7607 162.891 75.6697 162.988 75.5543 162.994C75.5543 162.994 75.5523 162.994 75.5483 162.994Z" fill="url(#paint3_linear_510_28547)"/>
<path d="M76.9254 163.2C76.7069 163.2 76.5187 163.024 76.5126 162.806C76.3366 157.816 76.367 157.701 76.3912 157.628C76.4459 157.41 76.6765 157.276 76.895 157.337C77.1014 157.392 77.2288 157.592 77.1985 157.792C77.1863 158.096 77.2774 160.997 77.3381 162.775C77.3502 163 77.1681 163.194 76.9436 163.2C76.9355 163.2 76.9294 163.2 76.9254 163.2Z" fill="url(#paint4_linear_510_28547)"/>
<path d="M77.824 162.994C77.7087 162.994 77.6177 162.903 77.6177 162.787V157.738C77.6177 157.622 77.7087 157.531 77.824 157.531C77.9394 157.531 78.0304 157.622 78.0304 157.738V162.787C78.0304 162.903 77.9394 162.994 77.824 162.994Z" fill="url(#paint5_linear_510_28547)"/>
<path d="M78.5465 162.994C78.4372 162.994 78.3462 162.903 78.3401 162.794C78.3037 161.04 78.2126 158.175 78.1277 157.829C78.0913 157.762 78.0913 157.683 78.1337 157.61C78.1944 157.519 78.328 157.489 78.419 157.556C78.5343 157.628 78.6436 157.695 78.7589 162.781C78.7589 162.897 78.6679 162.994 78.5525 162.994H78.5465Z" fill="url(#paint6_linear_510_28547)"/>
<path d="M72.8893 163.455C72.6708 163.455 72.4887 163.285 72.4766 163.061L72.1974 157.762C72.1852 157.531 72.3612 157.337 72.5919 157.325C72.8104 157.307 73.0168 157.489 73.0289 157.72L73.302 163.018C73.3142 163.249 73.1381 163.443 72.9136 163.455C72.9055 163.455 72.8974 163.455 72.8893 163.455Z" fill="url(#paint7_linear_510_28547)"/>
<path d="M72.0698 145.829V125.053C72.0698 122.322 73.9635 120.1 76.3246 120.07C83.4077 119.979 98.0049 119.979 109.956 121.144C111.582 121.302 112.851 122.85 112.912 124.738L114.028 144.828C114.113 147.48 112.299 149.701 109.998 149.75L76.185 150.497C73.9271 150.545 72.0698 148.439 72.0698 145.829Z" fill="#720440"/>
<path d="M76.1734 127.299C76.1431 129.065 76.1856 131.869 76.222 133.684C76.2463 134.625 76.9564 135.347 77.7697 135.238L83.5965 134.443C84.3734 134.339 84.9196 133.514 84.8043 132.616L84.0881 127.099C83.9849 126.316 83.4022 125.733 82.7164 125.733H77.5573C76.8047 125.733 76.1856 126.431 76.1734 127.299Z" fill="white"/>
<path opacity="0.4" d="M91.3956 137.763L96.2573 138.37C96.9371 138.455 97.5198 137.805 97.4712 137.016L96.4091 120.283C94.3697 120.21 92.3607 120.155 90.4185 120.119V136.5C90.4185 137.15 90.8433 137.69 91.3956 137.763Z" fill="white"/>
<path d="M93.3928 134.861C93.405 135.165 93.6235 135.395 93.8784 135.395C93.8865 135.395 93.8966 135.395 93.9087 135.395C94.1758 135.377 94.3822 135.11 94.3639 134.795L93.6356 120.197C93.3079 120.185 92.9801 120.175 92.6523 120.167L93.3928 134.861Z" fill="white"/>
<path d="M78.8679 132.567C78.7829 132.567 78.7101 132.494 78.704 132.391L78.4491 127.796C78.443 127.687 78.5158 127.602 78.6008 127.596C78.6979 127.584 78.7708 127.669 78.7768 127.772L79.0257 132.367C79.0318 132.47 78.965 132.561 78.874 132.567C78.8699 132.567 78.8679 132.567 78.8679 132.567Z" fill="url(#paint8_linear_510_28547)"/>
<path d="M79.3845 132.567C79.2995 132.567 79.2267 132.488 79.2206 132.385L79.0931 127.699C79.0871 127.596 79.1599 127.511 79.2449 127.505C79.3541 127.499 79.4148 127.584 79.4148 127.687L79.5483 132.373C79.5483 132.476 79.4816 132.567 79.3905 132.567H79.3845Z" fill="url(#paint9_linear_510_28547)"/>
<path fill-rule="evenodd" clip-rule="evenodd" d="M80.082 132.567C79.997 132.567 79.9242 132.488 79.9181 132.391C79.8878 131.62 79.73 127.772 79.73 127.693C79.73 127.59 79.8028 127.505 79.8878 127.505C79.9788 127.505 80.0517 127.59 80.0517 127.693C80.0577 127.796 80.1791 130.795 80.2459 132.373C80.2459 132.476 80.1791 132.561 80.0881 132.567C80.084 132.567 80.082 132.567 80.082 132.567Z" fill="url(#paint10_linear_510_28547)"/>
<path d="M81.1685 132.755C80.9924 132.755 80.8468 132.597 80.8407 132.391C80.7011 127.851 80.7254 127.748 80.7436 127.681C80.7921 127.48 80.9742 127.365 81.1442 127.42C81.302 127.468 81.4052 127.644 81.3809 127.833C81.3688 128.106 81.4416 130.746 81.4901 132.366C81.5023 132.573 81.3566 132.749 81.1806 132.755C81.1766 132.755 81.1725 132.755 81.1685 132.755Z" fill="url(#paint11_linear_510_28547)"/>
<path d="M81.8729 132.567C81.7818 132.567 81.709 132.482 81.709 132.379V127.784C81.709 127.675 81.7818 127.59 81.8729 127.59C81.9639 127.59 82.0367 127.675 82.0367 127.784V132.379C82.0367 132.482 81.9639 132.567 81.8729 132.567Z" fill="url(#paint12_linear_510_28547)"/>
<path d="M82.4431 132.567C82.3582 132.567 82.2853 132.488 82.2793 132.385C82.2489 130.789 82.1761 128.179 82.1093 127.863C82.085 127.803 82.085 127.73 82.1154 127.669C82.1639 127.578 82.2671 127.554 82.346 127.614C82.431 127.681 82.516 127.742 82.607 132.379C82.607 132.482 82.5402 132.567 82.4492 132.567H82.4431Z" fill="url(#paint13_linear_510_28547)"/>
<path d="M77.9882 132.985C77.8182 132.985 77.6726 132.834 77.6665 132.627L77.448 127.802C77.4359 127.59 77.5755 127.414 77.7575 127.402C77.9275 127.389 78.0914 127.553 78.0974 127.76L78.3159 132.591C78.322 132.797 78.1885 132.973 78.0064 132.985C78.0024 132.985 77.9963 132.985 77.9882 132.985Z" fill="url(#paint14_linear_510_28547)"/>
<path d="M105.325 182.416C102.807 182.465 100.737 180.431 100.737 177.912V157.883C100.737 155.255 102.855 153.112 105.483 153.082C113.38 152.997 129.67 152.997 142.999 154.12C144.814 154.272 146.228 155.759 146.295 157.586L147.539 176.947C147.636 179.509 145.609 181.651 143.047 181.7L105.325 182.416Z" fill="#414E5C"/>
<path d="M105.313 160.05C105.277 161.755 105.331 164.462 105.374 166.21C105.392 167.115 106.193 167.807 107.092 167.703L113.592 166.945C114.46 166.841 115.067 166.04 114.939 165.178L114.144 159.862C114.029 159.103 113.38 158.544 112.615 158.544H106.855C106.017 158.544 105.331 159.212 105.313 160.05Z" fill="white"/>
<path opacity="0.4" d="M122.295 170.137L127.715 170.726C128.474 170.805 129.123 170.18 129.069 169.421L127.885 153.288C125.609 153.221 123.369 153.167 121.203 153.13V168.923C121.203 169.548 121.676 170.07 122.295 170.137Z" fill="white"/>
<path d="M124.517 167.345C124.535 167.631 124.778 167.855 125.063 167.855C125.076 167.855 125.086 167.855 125.094 167.855C125.397 167.837 125.628 167.582 125.61 167.279L124.79 153.203C124.422 153.195 124.058 153.187 123.698 153.179L124.517 167.345Z" fill="white"/>
<path d="M108.318 165.13C108.22 165.13 108.142 165.057 108.136 164.96L107.856 160.529C107.85 160.432 107.923 160.341 108.026 160.335C108.129 160.329 108.214 160.408 108.22 160.505L108.5 164.942C108.506 165.039 108.433 165.124 108.33 165.13C108.326 165.134 108.322 165.134 108.318 165.13Z" fill="url(#paint15_linear_510_28547)"/>
<path d="M108.894 165.13C108.797 165.13 108.718 165.057 108.712 164.96L108.566 160.438C108.566 160.341 108.645 160.256 108.742 160.25C108.858 160.244 108.931 160.329 108.931 160.426L109.076 164.948C109.082 165.045 109.003 165.13 108.9 165.13H108.894Z" fill="url(#paint16_linear_510_28547)"/>
<path fill-rule="evenodd" clip-rule="evenodd" d="M109.671 165.129C109.574 165.129 109.495 165.057 109.489 164.959C109.459 164.219 109.277 160.504 109.277 160.432C109.277 160.334 109.362 160.25 109.459 160.25C109.562 160.25 109.641 160.328 109.641 160.432C109.647 160.529 109.781 163.424 109.853 164.941C109.86 165.044 109.781 165.129 109.684 165.129C109.679 165.133 109.675 165.133 109.671 165.129Z" fill="url(#paint17_linear_510_28547)"/>
<path d="M110.885 165.312C110.691 165.312 110.527 165.16 110.521 164.966C110.369 160.584 110.393 160.486 110.411 160.42C110.466 160.225 110.666 160.116 110.861 160.165C111.037 160.213 111.146 160.389 111.122 160.565C111.109 160.826 111.194 163.376 111.249 164.935C111.255 165.136 111.097 165.306 110.897 165.312C110.893 165.312 110.889 165.312 110.885 165.312Z" fill="url(#paint18_linear_510_28547)"/>
<path d="M111.674 165.13C111.571 165.13 111.492 165.051 111.492 164.954V160.517C111.492 160.42 111.571 160.335 111.674 160.335C111.771 160.335 111.856 160.42 111.856 160.517V164.954C111.856 165.051 111.771 165.13 111.674 165.13Z" fill="url(#paint19_linear_510_28547)"/>
<path d="M112.311 165.13C112.208 165.13 112.129 165.057 112.129 164.954C112.092 163.412 112.013 160.9 111.941 160.596C111.904 160.542 111.904 160.469 111.947 160.408C112.001 160.323 112.111 160.299 112.196 160.353C112.293 160.42 112.39 160.481 112.493 164.948C112.493 165.045 112.414 165.13 112.311 165.13Z" fill="url(#paint20_linear_510_28547)"/>
<path d="M107.34 165.537C107.146 165.537 106.988 165.385 106.976 165.191L106.733 160.535C106.727 160.335 106.879 160.165 107.079 160.153C107.267 160.141 107.449 160.299 107.461 160.499L107.704 165.154C107.716 165.355 107.559 165.525 107.358 165.537C107.354 165.537 107.348 165.537 107.34 165.537Z" fill="url(#paint21_linear_510_28547)"/>
<path d="M164.224 114.012C163.999 114.012 163.775 113.933 163.599 113.77L162.263 112.513C161.899 112.167 161.881 111.591 162.221 111.226C162.567 110.856 163.143 110.844 163.508 111.184L164.843 112.44C165.213 112.786 165.231 113.363 164.885 113.727C164.709 113.921 164.467 114.012 164.224 114.012Z" fill="white"/>
<path d="M177.516 126.515C177.292 126.515 177.067 126.436 176.891 126.266L173.231 122.825C172.867 122.479 172.849 121.908 173.195 121.538C173.535 121.174 174.111 121.156 174.476 121.502L178.142 124.943C178.506 125.289 178.524 125.866 178.178 126.23C178.002 126.418 177.759 126.515 177.516 126.515ZM170.197 119.632C169.972 119.632 169.747 119.547 169.571 119.384L165.911 115.942C165.541 115.596 165.529 115.02 165.869 114.655C166.215 114.291 166.792 114.273 167.156 114.613L170.816 118.06C171.186 118.4 171.198 118.977 170.858 119.341C170.676 119.535 170.433 119.632 170.197 119.632Z" fill="white"/>
<path d="M181.194 132.233C181.109 132.233 181.022 132.221 180.933 132.196C180.454 132.051 180.18 131.541 180.326 131.061L180.696 129.841L179.768 128.973C179.404 128.628 179.385 128.051 179.725 127.687C180.071 127.323 180.648 127.304 181.012 127.65L182.347 128.907C182.602 129.143 182.699 129.502 182.596 129.829L182.068 131.589C181.947 131.978 181.589 132.233 181.194 132.233Z" fill="white"/>
<path d="M178.73 140.391C178.641 140.391 178.554 140.378 178.469 140.354C177.983 140.209 177.716 139.699 177.862 139.219L179.373 134.218C179.519 133.738 180.023 133.465 180.508 133.611C180.988 133.757 181.255 134.26 181.115 134.74L179.598 139.747C179.483 140.136 179.118 140.391 178.73 140.391Z" fill="white"/>
<path d="M133.815 105.181C133.311 105.181 132.905 104.775 132.905 104.271V102.432C132.905 101.934 133.311 101.527 133.815 101.527C134.313 101.527 134.726 101.934 134.726 102.432V104.271C134.726 104.775 134.313 105.181 133.815 105.181Z" fill="white"/>
<path d="M133.815 100.041C133.311 100.041 132.905 99.6339 132.905 99.1301V93.8921C132.905 93.3944 133.311 92.9877 133.815 92.9877C134.313 92.9877 134.726 93.3944 134.726 93.8921V99.1301C134.726 99.6339 134.313 100.041 133.815 100.041ZM133.815 89.5645C133.311 89.5645 132.905 89.1579 132.905 88.6541V87.5677C132.905 87.0639 133.311 86.6572 133.815 86.6572C134.313 86.6572 134.726 87.0639 134.726 87.5677V88.6541C134.726 89.1579 134.313 89.5645 133.815 89.5645Z" fill="white"/>
<path d="M133.815 86.8269C133.311 86.8269 132.905 86.4203 132.905 85.9165V84.0774C132.905 83.5797 133.311 83.1731 133.815 83.1731L135.648 83.167C136.152 83.167 136.559 83.5737 136.559 84.0774C136.559 84.5812 136.152 84.9878 135.648 84.9878H134.726V85.9165C134.726 86.4203 134.313 86.8269 133.815 86.8269Z" fill="white"/>
<path d="M139.345 84.9819C138.841 84.9819 138.435 84.5752 138.435 84.0775C138.435 83.5737 138.841 83.1671 139.345 83.1671L145.202 83.161C145.706 83.161 146.113 83.5677 146.113 84.0654C146.113 84.5691 145.706 84.9758 145.202 84.9758L139.345 84.9819ZM151.065 84.9697C150.561 84.9697 150.155 84.5631 150.155 84.0654C150.155 83.5616 150.561 83.1549 151.065 83.1549L156.922 83.1489C157.426 83.1489 157.833 83.5555 157.833 84.0532C157.833 84.557 157.426 84.9637 156.922 84.9637L151.065 84.9697ZM162.779 84.9576C162.282 84.9576 161.875 84.5509 161.875 84.0532C161.875 83.5495 162.276 83.1428 162.779 83.1428L168.637 83.1367H168.643C169.14 83.1367 169.547 83.5434 169.547 84.0411C169.553 84.5448 169.146 84.9515 168.643 84.9515L162.785 84.9576C162.781 84.9576 162.779 84.9576 162.779 84.9576Z" fill="white"/>
<path d="M176.302 84.9454C175.798 84.9454 175.392 84.5387 175.392 84.0349C175.392 83.5372 175.798 83.1306 176.302 83.1306L178.135 83.1245C178.639 83.1245 179.045 83.5312 179.045 84.0349C179.045 84.5387 178.639 84.9454 178.141 84.9454H176.302Z" fill="white"/>
<path d="M97.3379 110.917H95.4988C94.995 110.917 94.5884 110.51 94.5884 110.006C94.5884 109.502 94.995 109.096 95.4988 109.096H97.3379C97.8356 109.096 98.2422 109.502 98.2422 110.006C98.2422 110.51 97.8356 110.917 97.3379 110.917Z" fill="#720440"/>
<path d="M111.789 110.917H110.733C110.229 110.917 109.822 110.51 109.822 110.006C109.822 109.502 110.229 109.096 110.733 109.096H111.789C112.293 109.096 112.699 109.502 112.699 110.006C112.699 110.51 112.293 110.917 111.789 110.917ZM105.64 110.917H100.548C100.044 110.917 99.6377 110.51 99.6377 110.006C99.6377 109.502 100.044 109.096 100.548 109.096H105.64C106.138 109.096 106.545 109.502 106.545 110.006C106.545 110.51 106.138 110.917 105.64 110.917Z" fill="#720440"/>
<path d="M116.481 112.258C116.238 112.258 115.995 112.161 115.819 111.967L114.836 110.917H113.397C112.893 110.917 112.487 110.51 112.487 110.006C112.487 109.502 112.893 109.096 113.397 109.096H115.23C115.479 109.096 115.722 109.199 115.898 109.387L117.148 110.728C117.488 111.093 117.47 111.669 117.1 112.015C116.924 112.179 116.705 112.258 116.481 112.258Z" fill="#720440"/>
<path d="M144.741 142.575C144.504 142.575 144.267 142.484 144.091 142.302C143.812 142.017 143.539 141.774 143.272 141.531C142.78 141.088 142.307 140.663 141.924 140.099C141.566 139.625 141.214 139.213 140.838 138.77C140.737 138.652 140.636 138.535 140.534 138.418C140.207 138.035 140.255 137.459 140.638 137.131C141.02 136.809 141.597 136.858 141.918 137.24C142.019 137.358 142.121 137.473 142.222 137.586C142.604 138.035 142.999 138.497 143.393 139.025C143.405 139.041 143.415 139.055 143.424 139.067C143.685 139.456 144.055 139.789 144.492 140.178C144.765 140.427 145.074 140.706 145.39 141.034C145.742 141.392 145.736 141.968 145.372 142.32C145.196 142.49 144.971 142.575 144.741 142.575ZM137.463 134.782C137.227 134.782 136.984 134.685 136.808 134.497C135.636 133.277 134.495 132.026 133.385 130.819L133.075 130.479C132.735 130.102 132.759 129.532 133.13 129.192C133.506 128.852 134.076 128.876 134.416 129.247L134.726 129.586C135.824 130.788 136.966 132.033 138.119 133.24C138.465 133.605 138.453 134.181 138.094 134.527C137.918 134.697 137.688 134.782 137.463 134.782ZM130.01 126.782C129.773 126.782 129.536 126.685 129.36 126.503C128.565 125.696 127.825 124.962 127.09 124.27C127.074 124.253 127.06 124.237 127.048 124.221C126.534 123.667 126.026 123.116 125.524 122.57C125.185 122.206 125.209 121.629 125.579 121.289C125.949 120.95 126.526 120.974 126.866 121.338C127.36 121.876 127.859 122.418 128.365 122.965C129.106 123.669 129.858 124.415 130.659 125.235C131.011 125.593 131.005 126.169 130.647 126.521C130.465 126.691 130.241 126.782 130.01 126.782ZM122.502 118.837C122.253 118.837 122.01 118.734 121.828 118.54C120.572 117.156 119.37 115.827 118.156 114.479C117.822 114.103 117.853 113.533 118.229 113.193C118.599 112.859 119.176 112.889 119.51 113.266C120.717 114.613 121.919 115.936 123.176 117.314C123.509 117.684 123.485 118.261 123.115 118.601C122.939 118.758 122.72 118.837 122.502 118.837Z" fill="#720440"/>
<path fill-rule="evenodd" clip-rule="evenodd" d="M208.58 145.932C208.446 145.932 208.306 145.901 208.179 145.841C208.076 145.822 207.772 145.78 207.002 145.744C206.504 145.713 206.115 145.288 206.146 144.785C206.17 144.287 206.595 143.892 207.099 143.923C208.634 144.008 208.95 144.099 209.235 144.39C209.581 144.748 209.575 145.325 209.217 145.677C209.041 145.847 208.81 145.932 208.58 145.932ZM163.289 145.865C162.785 145.865 162.378 145.464 162.378 144.961C162.378 144.457 162.779 144.05 163.283 144.05C165 144.044 166.839 144.032 168.751 144.02C168.755 144.02 168.757 144.02 168.757 144.02C169.255 144.02 169.662 144.42 169.668 144.924C169.668 145.422 169.267 145.835 168.764 145.835C166.846 145.853 165.006 145.865 163.289 145.865ZM157.814 145.865C155.204 145.853 153.396 145.816 152.297 145.756C151.799 145.725 151.411 145.294 151.441 144.797C151.471 144.293 151.902 143.911 152.4 143.935C153.468 143.995 155.241 144.032 157.82 144.05C158.324 144.05 158.731 144.463 158.725 144.961C158.725 145.464 158.318 145.865 157.814 145.865ZM174.226 145.792C173.728 145.792 173.322 145.391 173.322 144.894C173.316 144.39 173.716 143.977 174.22 143.971L179.689 143.923C179.693 143.923 179.697 143.923 179.701 143.923C180.199 143.923 180.605 144.323 180.611 144.827C180.611 145.325 180.211 145.737 179.707 145.744L174.238 145.792C174.234 145.792 174.23 145.792 174.226 145.792ZM185.169 145.695C184.672 145.695 184.265 145.288 184.259 144.791C184.259 144.287 184.66 143.88 185.163 143.874C187.027 143.856 188.866 143.844 190.632 143.832C190.636 143.832 190.64 143.832 190.644 143.832C191.142 143.832 191.549 144.232 191.549 144.736C191.555 145.234 191.148 145.646 190.65 145.652C188.878 145.665 187.045 145.677 185.176 145.695C185.176 145.695 185.173 145.695 185.169 145.695ZM201.581 145.628C201.581 145.628 201.579 145.628 201.575 145.628C200.531 145.622 199.396 145.622 198.189 145.616C197.517 145.62 196.825 145.622 196.113 145.622C195.609 145.622 195.202 145.215 195.202 144.718C195.202 144.214 195.609 143.807 196.113 143.801C196.878 143.801 197.624 143.801 198.34 143.801C199.5 143.801 200.586 143.801 201.587 143.807C202.091 143.813 202.498 144.22 202.492 144.724C202.486 145.228 202.085 145.628 201.581 145.628Z" fill="#720440"/>
<path d="M98.7698 109.521C98.7698 110.82 97.7137 111.87 96.4148 111.87C95.1159 111.87 94.0659 110.82 94.0659 109.521C94.0659 108.222 95.1159 107.172 96.4148 107.172C97.7137 107.172 98.7698 108.222 98.7698 109.521Z" fill="white"/>
<path d="M136.395 104.932C136.395 106.231 135.345 107.281 134.046 107.281C132.747 107.281 131.691 106.231 131.691 104.932C131.691 103.634 132.747 102.583 134.046 102.583C135.345 102.583 136.395 103.634 136.395 104.932Z" fill="white"/>
<path d="M136.395 84.7451C136.395 86.044 135.345 87.094 134.046 87.094C132.747 87.094 131.691 86.044 131.691 84.7451C131.691 83.4462 132.747 82.3901 134.046 82.3901C135.345 82.3901 136.395 83.4462 136.395 84.7451Z" fill="white"/>
<path d="M165.304 111.815C165.304 113.114 164.248 114.164 162.949 114.164C161.65 114.164 160.6 113.114 160.6 111.815C160.6 110.516 161.65 109.466 162.949 109.466C164.248 109.466 165.304 110.516 165.304 111.815Z" fill="white"/>
<path d="M150.622 145.313C150.622 146.612 149.566 147.662 148.267 147.662C146.968 147.662 145.918 146.612 145.918 145.313C145.918 144.014 146.968 142.958 148.267 142.958C149.566 142.958 150.622 144.014 150.622 145.313Z" fill="white"/>
<path d="M162.245 112.605C162.172 112.605 162.099 112.597 162.026 112.58L156.37 111.221C155.884 111.099 155.581 110.608 155.702 110.122C155.817 109.631 156.309 109.333 156.795 109.448L162.451 110.808C162.943 110.929 163.24 111.415 163.125 111.907C163.028 112.325 162.652 112.605 162.245 112.605ZM150.925 109.885C150.857 109.885 150.786 109.875 150.713 109.855L145.056 108.496C144.564 108.38 144.267 107.889 144.382 107.403C144.498 106.911 144.989 106.614 145.481 106.729L151.138 108.089C151.623 108.21 151.927 108.696 151.811 109.187C151.708 109.606 151.338 109.885 150.925 109.885ZM139.612 107.166C139.539 107.166 139.468 107.156 139.399 107.136L133.736 105.776C133.251 105.661 132.947 105.169 133.069 104.684C133.184 104.192 133.676 103.895 134.161 104.01L139.824 105.37C140.31 105.485 140.613 105.977 140.492 106.468C140.395 106.881 140.018 107.166 139.612 107.166Z" fill="white"/>
<path d="M104.597 86.1106C104.597 90.9237 100.688 94.8325 95.8747 94.8325C91.0555 94.8325 87.1528 90.9237 87.1528 86.1106C87.1528 81.2914 91.0555 77.3887 95.8747 77.3887C100.688 77.3887 104.597 81.2914 104.597 86.1106Z" fill="#720440"/>
<path d="M104.579 85.6436H95.8749H87.153C87.153 85.6436 86.4611 90.481 94.2422 103.743C94.5821 104.319 95.2012 104.665 95.8749 104.665C96.5425 104.665 97.1677 104.326 97.5076 103.749C105.289 90.487 104.579 85.6436 104.579 85.6436Z" fill="#720440"/>
<path opacity="0.8" fill-rule="evenodd" clip-rule="evenodd" d="M95.8685 104.95V104.999C95.1098 104.999 94.4057 104.58 94.0233 103.931C89.4712 96.1798 87.8081 91.2817 87.2073 88.5383C87.0373 87.907 86.9402 87.2879 86.9099 86.6567C86.8552 86.0073 86.8977 85.7341 86.9038 85.7038L86.9281 85.5642C87.2801 80.8785 91.1767 77.2368 95.8745 77.2368C100.633 77.2368 104.566 80.9332 104.833 85.6552C104.839 85.7159 104.851 85.8737 104.845 86.1347L104.851 86.1651C104.851 87.0209 104.73 87.8706 104.487 88.69C103.868 91.4274 102.193 96.283 97.7197 103.9C97.3373 104.556 96.6575 104.95 95.8685 104.95ZM95.8685 104.999C95.8685 104.999 95.8705 104.999 95.8745 104.999H95.8685ZM87.3893 86.0316C87.3893 86.1651 87.3954 86.3532 87.4136 86.6324C87.444 87.2333 87.535 87.8099 87.6989 88.4108L87.705 88.4169C88.2937 91.1239 89.9385 95.9613 94.4603 103.664C94.7517 104.155 95.2919 104.465 95.8685 104.465C96.3904 104.465 96.9913 104.155 97.2827 103.651C101.726 96.0827 103.389 91.2695 103.996 88.5686L104.002 88.5565C104.226 87.7796 104.293 86.9784 104.293 86.1651L104.238 86.1287C104.238 85.8737 104.281 85.7402 104.281 85.7038L104.305 85.6856C104.056 81.2306 100.354 77.7406 95.8624 77.7406C91.377 77.7406 87.6685 81.2791 87.4136 85.7766L87.4076 86.0316H87.3893Z" fill="white"/>
<path d="M100.937 86.0805C100.937 88.8603 98.6847 91.1182 95.9049 91.1182C93.119 91.1182 90.8672 88.8603 90.8672 86.0805C90.8672 83.3006 93.119 81.0488 95.9049 81.0488C98.6847 81.0488 100.937 83.3006 100.937 86.0805Z" fill="white"/>
<path fill-rule="evenodd" clip-rule="evenodd" d="M95.905 91.397C92.9674 91.397 90.582 89.0117 90.582 86.0801C90.582 83.1485 92.9674 80.7632 95.905 80.7632C98.8366 80.7632 101.222 83.1485 101.222 86.0801C101.222 89.0117 98.8366 91.397 95.905 91.397ZM95.905 81.3277C93.283 81.3277 91.1465 83.458 91.1465 86.0801C91.1465 88.7021 93.283 90.8386 95.905 90.8386C98.521 90.8386 100.657 88.7021 100.657 86.0801C100.657 83.458 98.521 81.3277 95.905 81.3277Z" fill="#720440"/>
<path d="M155.957 121.775C155.957 126.595 152.054 130.497 147.235 130.497C142.422 130.497 138.519 126.595 138.519 121.775C138.519 116.962 142.422 113.06 147.235 113.06C152.054 113.06 155.957 116.962 155.957 121.775Z" fill="#720440"/>
<path d="M155.945 121.308H147.235H138.519C138.519 121.308 137.821 126.152 145.608 139.407C145.948 139.99 146.567 140.336 147.235 140.336C147.909 140.336 148.528 139.996 148.868 139.42C156.649 126.158 155.945 121.308 155.945 121.308Z" fill="#720440"/>
<path opacity="0.8" fill-rule="evenodd" clip-rule="evenodd" d="M147.235 140.615V140.664C146.476 140.664 145.766 140.251 145.39 139.602C140.838 131.851 139.169 126.947 138.574 124.209C138.404 123.578 138.307 122.959 138.276 122.322C138.222 121.672 138.264 121.399 138.264 121.375L138.289 121.235C138.641 116.55 142.537 112.902 147.235 112.902C152 112.902 155.933 116.598 156.2 121.32C156.206 121.387 156.218 121.539 156.212 121.806V121.836C156.212 122.692 156.09 123.542 155.854 124.355C155.235 127.098 153.559 131.948 149.086 139.571C148.704 140.221 148.018 140.615 147.235 140.615ZM138.756 121.703C138.75 121.836 138.756 122.018 138.78 122.304C138.811 122.904 138.902 123.481 139.065 124.076V124.088C139.654 126.795 141.305 131.632 145.827 139.329C146.112 139.826 146.652 140.136 147.235 140.136C147.757 140.136 148.358 139.82 148.649 139.322C153.092 131.754 154.749 126.941 155.362 124.24V124.222C155.593 123.451 155.653 122.643 155.653 121.836L155.605 121.8C155.605 121.545 155.647 121.405 155.641 121.375L155.666 121.357C155.417 116.902 151.72 113.412 147.223 113.412C142.738 113.412 139.035 116.95 138.78 121.448L138.768 121.703H138.756ZM147.235 140.136V140.385L147.241 140.136C147.241 140.136 147.239 140.136 147.235 140.136Z" fill="white"/>
<path d="M152.303 121.751C152.303 124.531 150.046 126.789 147.266 126.789C144.486 126.789 142.228 124.531 142.228 121.751C142.228 118.971 144.486 116.713 147.266 116.713C150.046 116.713 152.303 118.971 152.303 121.751Z" fill="white"/>
<path fill-rule="evenodd" clip-rule="evenodd" d="M147.266 127.068C144.334 127.068 141.949 124.683 141.949 121.751C141.949 118.819 144.334 116.434 147.266 116.434C150.197 116.434 152.583 118.819 152.583 121.751C152.583 124.683 150.197 127.068 147.266 127.068ZM147.266 116.999C144.644 116.999 142.513 119.129 142.513 121.751C142.513 124.373 144.644 126.503 147.266 126.503C149.888 126.503 152.018 124.373 152.018 121.751C152.018 119.129 149.888 116.999 147.266 116.999Z" fill="#720440"/>
<path d="M187.057 62.9553C187.057 67.7745 183.154 71.6772 178.335 71.6772C173.516 71.6772 169.613 67.7745 169.613 62.9553C169.613 58.1361 173.516 54.2334 178.335 54.2334C183.154 54.2334 187.057 58.1361 187.057 62.9553Z" fill="#720440"/>
<path d="M187.039 62.4878H178.335H169.613C169.613 62.4878 168.922 67.3313 176.703 80.5871C177.043 81.1637 177.662 81.5097 178.335 81.5097C179.003 81.5097 179.628 81.1698 179.968 80.5932C187.749 67.3313 187.039 62.4878 187.039 62.4878Z" fill="#720440"/>
<path opacity="0.8" fill-rule="evenodd" clip-rule="evenodd" d="M178.329 81.7955V81.844C177.57 81.844 176.866 81.4252 176.484 80.7758C171.938 73.025 170.269 68.1269 169.674 65.3835C169.498 64.7522 169.401 64.1332 169.371 63.5019C169.322 62.8525 169.358 62.5794 169.365 62.549L169.389 62.4094C169.741 57.7237 173.637 54.082 178.335 54.082C183.094 54.082 187.027 57.7784 187.294 62.5005C187.3 62.5611 187.312 62.719 187.312 62.9799V63.0103C187.312 63.8722 187.191 64.7158 186.948 65.5352C186.335 68.2726 184.654 73.1282 180.18 80.7454C179.798 81.4009 179.118 81.7955 178.329 81.7955ZM178.329 81.844C178.333 81.844 178.335 81.844 178.335 81.844H178.329ZM169.85 62.8828C169.85 63.0103 169.856 63.1985 169.874 63.4777H169.88C169.905 64.0785 170.002 64.6551 170.16 65.256L170.166 65.2682C170.754 67.9691 172.405 72.8126 176.921 80.5087C177.212 81.0064 177.753 81.3099 178.329 81.3099C178.857 81.3099 179.452 81.0004 179.743 80.5027C184.192 72.9279 185.849 68.1208 186.456 65.4138L186.462 65.4017C186.687 64.6248 186.754 63.8236 186.754 63.0103L186.699 62.9799V62.9739C186.699 62.719 186.742 62.5854 186.742 62.549L186.766 62.5369C186.517 58.0758 182.815 54.5858 178.323 54.5858C173.838 54.5858 170.129 58.1243 169.874 62.6218L169.868 62.8828H169.85Z" fill="white"/>
<path d="M183.397 62.9252C183.397 65.7111 181.146 67.9629 178.366 67.9629C175.58 67.9629 173.328 65.7111 173.328 62.9252C173.328 60.1453 175.58 57.8936 178.366 57.8936C181.146 57.8936 183.397 60.1453 183.397 62.9252Z" fill="white"/>
<path fill-rule="evenodd" clip-rule="evenodd" d="M178.366 68.2422C175.434 68.2422 173.049 65.8569 173.049 62.9253C173.049 59.9937 175.434 57.6084 178.366 57.6084C181.297 57.6084 183.683 59.9937 183.683 62.9253C183.683 65.8569 181.297 68.2422 178.366 68.2422ZM178.366 58.1729C175.744 58.1729 173.607 60.3033 173.607 62.9253C173.607 65.5473 175.744 67.6838 178.366 67.6838C180.988 67.6838 183.118 65.5473 183.118 62.9253C183.118 60.3033 180.988 58.1729 178.366 58.1729Z" fill="#720440"/>
<path d="M203.263 179.6C205.126 179.758 208.355 180.025 210.904 180.134C212.434 180.201 213.314 180.049 213.824 179.849C213.824 179.906 213.822 179.96 213.818 180.013C213.806 180.28 213.587 180.492 213.32 180.511C208.507 180.778 204.677 180.602 203.311 180.517C203.032 180.498 202.862 180.195 203.008 179.952C203.081 179.837 203.166 179.715 203.263 179.6Z" fill="#455A64"/>
<path d="M210.905 180.133C208.356 180.024 205.127 179.757 203.263 179.599C205.096 177.354 210.905 175.842 210.905 175.842H212.543C213.672 177.469 213.836 179.017 213.824 179.848C213.314 180.048 212.434 180.2 210.905 180.133Z" fill="#455A64"/>
<path d="M212.823 173.16L212.665 176.201C212.653 176.529 212.404 176.808 212.076 176.85C211.749 176.899 211.306 176.905 210.844 176.753C210.559 176.656 210.34 176.413 210.292 176.122L209.758 173.16H212.823Z" fill="url(#paint22_linear_510_28547)"/>
<path d="M231.869 183.108C232.676 182.963 233.04 182.416 233.192 181.84C233.192 181.844 233.194 181.848 233.198 181.852C233.313 182.465 233.04 183.096 232.488 183.4C231.826 183.764 231.098 183.825 230.533 183.794C229.927 183.764 229.368 183.442 229.065 182.92L229.059 182.914C229.666 183.303 230.521 183.351 231.869 183.108Z" fill="#455A64"/>
<path d="M228.057 174.095H229.41C231.474 174.04 232.767 179.661 233.192 181.84C233.04 182.416 232.676 182.963 231.868 183.108C230.521 183.351 229.665 183.303 229.058 182.914C227.941 181.02 227.389 178.247 227.128 176.626C226.825 174.787 228.057 174.095 228.057 174.095Z" fill="#455A64"/>
<path d="M229.241 171.278L229.994 174.265C230.085 174.629 229.909 175.011 229.569 175.187C229.15 175.4 228.555 175.624 228.015 175.563C227.76 175.533 227.548 175.351 227.463 175.108L226.358 171.964L229.241 171.278Z" fill="url(#paint23_linear_510_28547)"/>
<path d="M202.802 131.912C202.802 131.912 209.521 173.889 209.411 174.119C209.411 174.119 211.263 174.963 213.284 174.228C213.284 174.228 212.677 151.789 211.257 143.183C211.257 143.183 222.716 163.243 226.358 173.233C226.358 173.233 228.257 173.008 229.823 171.977C229.823 171.977 217.484 135.875 214.194 131.062L202.802 131.912Z" fill="#2C3A40"/>
<path d="M210.989 142.964C211.026 142.964 211.062 142.952 211.093 142.933C211.184 142.879 211.214 142.751 211.153 142.66L208.647 138.654C208.616 138.606 208.568 138.576 208.519 138.563L206.668 138.193C206.565 138.169 206.456 138.242 206.437 138.345C206.413 138.454 206.486 138.557 206.589 138.582L208.355 138.934L210.819 142.873C210.856 142.933 210.923 142.964 210.989 142.964Z" fill="#3D525A"/>
<path d="M171.987 90.8091C171.987 90.8091 176.521 91.8045 179.276 93.0791C179.822 93.334 180.259 93.771 180.508 94.3173C181.334 96.126 183.798 100.654 188.581 102.815C187.895 103.725 186.784 105.631 186.299 108.823C183.428 106.687 180.945 103.118 179.756 97.261C179.756 97.261 178.851 97.7526 177.716 97.2064C177.122 96.915 176.43 96.5023 175.914 96.1806C175.398 95.8529 175.015 95.3552 174.864 94.7664C174.669 93.9956 174.785 93.3158 174.785 92.5875L172.454 91.8652C172.454 91.8652 171.756 91.5981 171.987 90.8091Z" fill="url(#paint24_linear_510_28547)"/>
<path d="M186.299 108.823C186.784 105.631 187.895 103.725 188.581 102.814C191.555 104.156 195.415 104.587 200.338 102.881C200.793 102.723 201.266 102.626 201.746 102.602C204.368 102.45 212.999 102.165 220.142 104.526C221.648 105.024 222.868 106.134 223.493 107.579C225.423 112.01 228.555 122.109 219.869 127.208C219.202 125.551 218.431 124.221 217.769 123.244C219.171 120.883 219.584 117.66 217.102 113.466C215.293 118.352 214.443 125.484 214.267 128.64C214.206 129.678 214.389 130.716 214.795 131.675L214.844 131.778C214.929 131.984 214.807 132.221 214.589 132.27C209.703 133.368 204.617 133.071 203.093 132.943C202.826 132.925 202.595 132.731 202.535 132.464C200.156 122.449 200.149 115.615 200.732 111.293C198.511 111.791 191.707 112.847 186.299 108.823Z" fill="#C8C8C8"/>
<path d="M200.726 111.56C200.823 111.56 200.908 111.488 200.92 111.391C201.479 107.172 202.62 105.327 202.626 105.309C202.686 105.218 202.662 105.096 202.565 105.036C202.474 104.981 202.353 105.005 202.292 105.096C202.243 105.175 201.102 107.02 200.526 111.336C200.514 111.445 200.592 111.542 200.696 111.56C200.708 111.56 200.718 111.56 200.726 111.56Z" fill="#720440"/>
<path d="M212.792 96.7632C212.792 96.7632 213.29 101.995 213.721 103.543C213.787 103.78 213.684 104.022 213.472 104.144C212.731 104.569 210.959 105.261 208.537 104.071C208.143 103.877 207.906 103.464 207.924 103.033L208.137 97.9771L212.792 96.7632Z" fill="url(#paint25_linear_510_28547)"/>
<path d="M208.034 90.0742C208.034 90.0742 206.45 93.7099 206.346 95.6157C206.237 97.5215 205.824 98.7597 208.034 99.1421C210.237 99.5305 212.094 98.4319 213.102 96.5322C213.102 96.5322 214.68 93.6006 214.328 92.4049C213.976 91.2032 208.034 90.0742 208.034 90.0742Z" fill="url(#paint26_linear_510_28547)"/>
<path d="M212.349 95.1669L212.222 95.1062C212.064 95.0395 211.997 94.8452 212.076 94.6935C212.386 94.0926 212.992 92.7148 212.21 92.3931C211.202 91.9804 207.202 91.161 206.34 89.7468C205.509 88.3812 206.243 86.621 207.348 86.1173C207.421 86.0869 207.512 86.1112 207.548 86.184L207.639 86.3601C207.7 86.4754 207.876 86.4572 207.918 86.3297C207.955 86.2083 208.119 86.184 208.185 86.2933C208.452 86.7181 209.169 87.404 211.081 87.756C213.806 88.2598 215.602 89.3584 215.645 91.2399C215.651 91.3613 215.778 91.4281 215.882 91.3674C216.082 91.246 216.404 91.1853 216.828 91.5495C217.581 92.1747 217.271 93.8073 215.633 95.1487C215.554 95.2094 215.56 95.3308 215.639 95.3854C215.936 95.5796 216.379 96.0409 215.232 96.654C214.049 97.2852 213.162 97.2366 212.823 97.182C212.738 97.1638 212.683 97.0849 212.701 96.9999L213.065 95.349C213.084 95.2519 213.011 95.1669 212.914 95.1669H212.349Z" fill="url(#paint27_linear_510_28547)"/>
<path d="M212.282 95.5127C212.282 95.5127 212.883 93.188 213.927 93.8435C214.965 94.493 213.387 96.4413 212.549 96.5323L212.282 95.5127Z" fill="#720440"/>
<path d="M178.548 96.7202C178.59 96.7202 178.639 96.702 178.675 96.6778C178.76 96.6049 178.772 96.4835 178.699 96.3985C178.529 96.1861 177.012 94.3228 176.423 93.995C176.211 93.8736 176.083 93.7522 176.059 93.6369C176.043 93.5803 176.051 93.5175 176.083 93.4488L177.868 93.8069L178.881 94.6748C178.966 94.7476 179.088 94.7355 179.161 94.6566C179.233 94.5716 179.221 94.4442 179.142 94.3713L178.086 93.473C178.062 93.4488 178.034 93.4346 178.001 93.4306L176.023 93.03C175.944 93.0178 175.859 93.0482 175.816 93.1149C175.671 93.3274 175.622 93.5277 175.671 93.728C175.725 93.9586 175.907 94.1589 176.229 94.341C176.672 94.5898 177.941 96.089 178.396 96.6474C178.432 96.696 178.493 96.7202 178.548 96.7202Z" fill="#720440"/>
<path d="M212.355 129.726L205.363 129.811L207.809 127.505C208.422 126.934 209.35 126.843 210.048 127.299C210.461 127.566 210.91 127.924 211.293 128.403C211.293 128.403 215.657 126.813 217.769 123.244C218.43 124.221 219.201 125.551 219.869 127.208C217.969 128.324 215.517 129.198 212.355 129.726Z" fill="url(#paint28_linear_510_28547)"/>
<path d="M211.602 130.625C211.59 130.625 211.578 130.625 211.566 130.625L193.813 130.607C193.37 130.607 193.018 130.255 193.018 129.824C193.018 129.387 193.376 129.029 193.813 129.035L211.566 129.053C212.003 129.053 212.361 129.405 212.361 129.842C212.361 130.261 212.021 130.607 211.602 130.625Z" fill="#2C3A40"/>
<path d="M177.85 114.68H192.635C193.728 114.68 194.717 115.299 195.185 116.276L202.019 130.619H183.646C182.942 130.619 182.311 130.194 182.056 129.544L176.752 116.276C176.448 115.512 177.019 114.68 177.85 114.68Z" fill="#414E5C"/>
<path d="M188.265 122.03C188.587 123.014 188.35 123.973 187.737 124.167C187.124 124.361 186.371 123.724 186.049 122.735C185.728 121.751 185.964 120.798 186.577 120.598C187.191 120.404 187.949 121.047 188.265 122.03Z" fill="#29394A"/>
<defs>
<linearGradient id="paint0_linear_510_28547" x1="286.118" y1="83.7662" x2="73.7963" y2="87.7161" gradientUnits="userSpaceOnUse">
<stop stop-color="#4F52FF"/>
<stop offset="1" stop-color="#4042E2"/>
</linearGradient>
<linearGradient id="paint1_linear_510_28547" x1="91.7151" y1="166.565" x2="76.8868" y2="188.112" gradientUnits="userSpaceOnUse">
<stop stop-color="#09005D"/>
<stop offset="1" stop-color="#1A0F91"/>
</linearGradient>
<linearGradient id="paint2_linear_510_28547" x1="96.3144" y1="170.004" x2="82.055" y2="190.725" gradientUnits="userSpaceOnUse">
<stop stop-color="#09005D"/>
<stop offset="1" stop-color="#1A0F91"/>
</linearGradient>
<linearGradient id="paint3_linear_510_28547" x1="94.894" y1="168.982" x2="80.3652" y2="190.094" gradientUnits="userSpaceOnUse">
<stop stop-color="#09005D"/>
<stop offset="1" stop-color="#1A0F91"/>
</linearGradient>
<linearGradient id="paint4_linear_510_28547" x1="92.0301" y1="167.097" x2="77.4805" y2="188.24" gradientUnits="userSpaceOnUse">
<stop stop-color="#09005D"/>
<stop offset="1" stop-color="#1A0F91"/>
</linearGradient>
<linearGradient id="paint5_linear_510_28547" x1="104.83" y1="176.134" x2="91.1105" y2="196.071" gradientUnits="userSpaceOnUse">
<stop stop-color="#09005D"/>
<stop offset="1" stop-color="#1A0F91"/>
</linearGradient>
<linearGradient id="paint6_linear_510_28547" x1="96.3551" y1="170.179" x2="81.8063" y2="191.321" gradientUnits="userSpaceOnUse">
<stop stop-color="#09005D"/>
<stop offset="1" stop-color="#1A0F91"/>
</linearGradient>
<linearGradient id="paint7_linear_510_28547" x1="89.0128" y1="164.55" x2="74.0817" y2="186.247" gradientUnits="userSpaceOnUse">
<stop stop-color="#09005D"/>
<stop offset="1" stop-color="#1A0F91"/>
</linearGradient>
<linearGradient id="paint8_linear_510_28547" x1="96.9598" y1="137.221" x2="83.6106" y2="156.619" gradientUnits="userSpaceOnUse">
<stop stop-color="#09005D"/>
<stop offset="1" stop-color="#1A0F91"/>
</linearGradient>
<linearGradient id="paint9_linear_510_28547" x1="101.673" y1="140.756" x2="88.8051" y2="159.455" gradientUnits="userSpaceOnUse">
<stop stop-color="#09005D"/>
<stop offset="1" stop-color="#1A0F91"/>
</linearGradient>
<linearGradient id="paint10_linear_510_28547" x1="99.9854" y1="139.626" x2="86.8885" y2="158.658" gradientUnits="userSpaceOnUse">
<stop stop-color="#09005D"/>
<stop offset="1" stop-color="#1A0F91"/>
</linearGradient>
<linearGradient id="paint11_linear_510_28547" x1="96.6432" y1="137.528" x2="83.5758" y2="156.517" gradientUnits="userSpaceOnUse">
<stop stop-color="#09005D"/>
<stop offset="1" stop-color="#1A0F91"/>
</linearGradient>
<linearGradient id="paint12_linear_510_28547" x1="109.96" y1="146.955" x2="97.5499" y2="164.989" gradientUnits="userSpaceOnUse">
<stop stop-color="#09005D"/>
<stop offset="1" stop-color="#1A0F91"/>
</linearGradient>
<linearGradient id="paint13_linear_510_28547" x1="100.885" y1="140.656" x2="87.7719" y2="159.71" gradientUnits="userSpaceOnUse">
<stop stop-color="#09005D"/>
<stop offset="1" stop-color="#1A0F91"/>
</linearGradient>
<linearGradient id="paint14_linear_510_28547" x1="94.2978" y1="135.187" x2="80.9034" y2="154.651" gradientUnits="userSpaceOnUse">
<stop stop-color="#09005D"/>
<stop offset="1" stop-color="#1A0F91"/>
</linearGradient>
<linearGradient id="paint15_linear_510_28547" x1="123.868" y1="168.267" x2="110.849" y2="187.184" gradientUnits="userSpaceOnUse">
<stop stop-color="#09005D"/>
<stop offset="1" stop-color="#1A0F91"/>
</linearGradient>
<linearGradient id="paint16_linear_510_28547" x1="127.906" y1="171.287" x2="115.387" y2="189.478" gradientUnits="userSpaceOnUse">
<stop stop-color="#09005D"/>
<stop offset="1" stop-color="#1A0F91"/>
</linearGradient>
<linearGradient id="paint17_linear_510_28547" x1="126.659" y1="170.389" x2="113.903" y2="188.924" gradientUnits="userSpaceOnUse">
<stop stop-color="#09005D"/>
<stop offset="1" stop-color="#1A0F91"/>
</linearGradient>
<linearGradient id="paint18_linear_510_28547" x1="124.145" y1="168.734" x2="111.371" y2="187.296" gradientUnits="userSpaceOnUse">
<stop stop-color="#09005D"/>
<stop offset="1" stop-color="#1A0F91"/>
</linearGradient>
<linearGradient id="paint19_linear_510_28547" x1="135.382" y1="176.669" x2="123.337" y2="194.171" gradientUnits="userSpaceOnUse">
<stop stop-color="#09005D"/>
<stop offset="1" stop-color="#1A0F91"/>
</linearGradient>
<linearGradient id="paint20_linear_510_28547" x1="127.941" y1="171.441" x2="115.168" y2="190.001" gradientUnits="userSpaceOnUse">
<stop stop-color="#09005D"/>
<stop offset="1" stop-color="#1A0F91"/>
</linearGradient>
<linearGradient id="paint21_linear_510_28547" x1="121.495" y1="166.498" x2="108.386" y2="185.547" gradientUnits="userSpaceOnUse">
<stop stop-color="#09005D"/>
<stop offset="1" stop-color="#1A0F91"/>
</linearGradient>
<linearGradient id="paint22_linear_510_28547" x1="212.821" y1="173.158" x2="209.757" y2="173.158" gradientUnits="userSpaceOnUse">
<stop stop-color="#FEBBBA"/>
<stop offset="1" stop-color="#FF928E"/>
</linearGradient>
<linearGradient id="paint23_linear_510_28547" x1="230.016" y1="171.276" x2="226.357" y2="171.276" gradientUnits="userSpaceOnUse">
<stop stop-color="#FEBBBA"/>
<stop offset="1" stop-color="#FF928E"/>
</linearGradient>
<linearGradient id="paint24_linear_510_28547" x1="168.218" y1="105.848" x2="183.602" y2="125.862" gradientUnits="userSpaceOnUse">
<stop stop-color="#FEBBBA"/>
<stop offset="1" stop-color="#FF928E"/>
</linearGradient>
<linearGradient id="paint25_linear_510_28547" x1="218.498" y1="108.363" x2="216.642" y2="98.6171" gradientUnits="userSpaceOnUse">
<stop stop-color="#FEBBBA"/>
<stop offset="1" stop-color="#FF928E"/>
</linearGradient>
<linearGradient id="paint26_linear_510_28547" x1="203.429" y1="97.891" x2="216.963" y2="108.247" gradientUnits="userSpaceOnUse">
<stop stop-color="#FEBBBA"/>
<stop offset="1" stop-color="#FF928E"/>
</linearGradient>
<linearGradient id="paint27_linear_510_28547" x1="211.263" y1="79.4733" x2="193.538" y2="102.294" gradientUnits="userSpaceOnUse">
<stop stop-color="#09005D"/>
<stop offset="1" stop-color="#1A0F91"/>
</linearGradient>
<linearGradient id="paint28_linear_510_28547" x1="191.01" y1="99.6315" x2="204.235" y2="119.47" gradientUnits="userSpaceOnUse">
<stop stop-color="#FEBBBA"/>
<stop offset="1" stop-color="#FF928E"/>
</linearGradient>
</defs>
</svg>
