<svg width="80" height="80" viewBox="0 0 80 80" fill="none" xmlns="http://www.w3.org/2000/svg">
<path d="M57.5 1.875H45C43.9645 1.875 43.125 2.71447 43.125 3.75V7.5C43.125 8.53553 43.9645 9.375 45 9.375H57.5C58.5355 9.375 59.375 8.53553 59.375 7.5V3.75C59.375 2.71447 58.5355 1.875 57.5 1.875Z" fill="#102694"/>
<path d="M21.25 29.375H8.75C8.25272 29.375 7.77581 29.5725 7.42417 29.9242C7.07254 30.2758 6.875 30.7527 6.875 31.25C6.875 31.7473 7.07254 32.2242 7.42417 32.5758C7.77581 32.9275 8.25272 33.125 8.75 33.125H21.25C21.7473 33.125 22.2242 32.9275 22.5758 32.5758C22.9275 32.2242 23.125 31.7473 23.125 31.25C23.125 30.7527 22.9275 30.2758 22.5758 29.9242C22.2242 29.5725 21.7473 29.375 21.25 29.375ZM20.625 46.25C20.625 45.7527 20.4275 45.2758 20.0758 44.9242C19.7242 44.5725 19.2473 44.375 18.75 44.375H6.25C5.75272 44.375 5.27581 44.5725 4.92417 44.9242C4.57254 45.2758 4.375 45.7527 4.375 46.25C4.375 46.7473 4.57254 47.2242 4.92417 47.5758C5.27581 47.9275 5.75272 48.125 6.25 48.125H18.75C19.2473 48.125 19.7242 47.9275 20.0758 47.5758C20.4275 47.2242 20.625 46.7473 20.625 46.25ZM20 51.875H11.25C10.7527 51.875 10.2758 52.0725 9.92417 52.4242C9.57254 52.7758 9.375 53.2527 9.375 53.75C9.375 54.2473 9.57254 54.7242 9.92417 55.0758C10.2758 55.4275 10.7527 55.625 11.25 55.625H20C20.4973 55.625 20.9742 55.4275 21.3258 55.0758C21.6775 54.7242 21.875 54.2473 21.875 53.75C21.875 53.2527 21.6775 52.7758 21.3258 52.4242C20.9742 52.0725 20.4973 51.875 20 51.875ZM20.625 38.75C20.625 38.2527 20.4275 37.7758 20.0758 37.4242C19.7242 37.0725 19.2473 36.875 18.75 36.875H2.5C2.00272 36.875 1.52581 37.0725 1.17417 37.4242C0.822544 37.7758 0.625 38.2527 0.625 38.75C0.625 39.2473 0.822544 39.7242 1.17417 40.0758C1.52581 40.4275 2.00272 40.625 2.5 40.625H18.75C19.2473 40.625 19.7242 40.4275 20.0758 40.0758C20.4275 39.7242 20.625 39.2473 20.625 38.75ZM51.25 42.5V21.25C39.5327 21.25 30 30.7827 30 42.5C30 54.2173 39.5327 63.75 51.25 63.75C62.9673 63.75 72.5 54.2173 72.5 42.5H51.25Z" fill="#333333"/>
<path d="M71.8153 23.3364L73.8258 21.3258C74.0022 21.1522 74.1425 20.9454 74.2387 20.7173C74.3348 20.4892 74.3848 20.2443 74.3858 19.9968C74.3868 19.7493 74.3388 19.5041 74.2445 19.2752C74.1503 19.0463 74.0116 18.8384 73.8366 18.6634C73.6616 18.4884 73.4537 18.3497 73.2248 18.2555C72.9959 18.1612 72.7507 18.1132 72.5032 18.1142C72.2557 18.1152 72.0108 18.1652 71.7827 18.2613C71.5546 18.3575 71.3478 18.4978 71.1742 18.6742L69.0817 20.7666C65.052 17.4469 60.1746 15.3197 55 14.625V11.25H47.5V14.625C42.3255 15.3194 37.4481 17.4463 33.4183 20.7656L31.3258 18.6733C31.1522 18.4968 30.9454 18.3565 30.7173 18.2604C30.4892 18.1643 30.2444 18.1143 29.9968 18.1133C29.7493 18.1123 29.5041 18.1603 29.2752 18.2545C29.0463 18.3488 28.8384 18.4874 28.6634 18.6624C28.4884 18.8375 28.3497 19.0454 28.2555 19.2743C28.1612 19.5031 28.1132 19.7484 28.1142 19.9959C28.1152 20.2434 28.1652 20.4883 28.2614 20.7164C28.3575 20.9445 28.4978 21.1513 28.6742 21.3248L30.6847 23.3355C25.8226 28.5319 23.1198 35.3836 23.125 42.5C23.125 58.0081 35.7419 70.625 51.25 70.625C66.7581 70.625 79.375 58.0081 79.375 42.5C79.38 35.3839 76.6772 28.5326 71.8153 23.3364ZM51.25 65.625C46.6763 65.625 42.2053 64.2687 38.4024 61.7277C34.5996 59.1867 31.6356 55.5751 29.8853 51.3496C28.135 47.124 27.6771 42.4743 28.5693 37.9885C29.4616 33.5027 31.6641 29.3822 34.8982 26.1482C38.1322 22.9141 42.2527 20.7116 46.7385 19.8193C51.2243 18.9271 55.874 19.385 60.0996 21.1353C64.3251 22.8856 67.9367 25.8496 70.4777 29.6524C73.0187 33.4553 74.375 37.9263 74.375 42.5C74.375 45.5368 73.7769 48.5439 72.6147 51.3496C71.4526 54.1552 69.7492 56.7045 67.6018 58.8518C65.4545 60.9992 62.9052 62.7026 60.0996 63.8647C57.2939 65.0269 54.2868 65.625 51.25 65.625Z" fill="#102694"/>
</svg>
