<svg width="35" height="35" viewBox="0 0 35 35" fill="none" xmlns="http://www.w3.org/2000/svg">
<circle opacity="0.1" cx="17.5" cy="17.5" r="17.5" fill="#4F694D"/>
<path d="M25.48 13.04C24.88 13.3 24.26 13.48 23.6 13.56C24.28 13.16 24.8 12.52 25.04 11.74C24.4 12.12 23.7 12.38 22.96 12.54C22.36 11.9 21.5 11.5 20.56 11.5C18.74 11.5 17.28 12.98 17.28 14.78C17.28 15.04 17.3 15.28 17.36 15.52C14.64 15.4 12.24 14.08 10.62 12.1C9.45998 14.18 10.76 15.9 11.62 16.48C11.1 16.48 10.58 16.32 10.14 16.08C10.14 17.7 11.28 19.04 12.76 19.34C12.44 19.44 11.72 19.5 11.28 19.4C11.7 20.7 12.92 21.66 14.34 21.68C13.22 22.56 11.58 23.26 9.47998 23.04C10.94 23.98 12.66 24.52 14.52 24.52C20.56 24.52 23.84 19.52 23.84 15.2C23.84 15.06 23.84 14.92 23.82 14.78C24.5 14.28 25.06 13.7 25.48 13.04Z" fill="#333333"/>
</svg>
