<svg width="60" height="60" viewBox="0 0 60 60" fill="none" xmlns="http://www.w3.org/2000/svg">
<path d="M10.7189 41.7544V47.009C12.8553 47.5362 14.4371 49.4635 14.4371 51.7453C14.4371 54.4453 12.2462 56.6362 9.54618 56.6362C6.84618 56.6362 4.65527 54.4453 4.65527 51.7453C4.65527 49.4544 6.23709 47.5362 8.37346 47.009V41.2726C8.37346 40.9544 8.50073 40.6635 8.70982 40.4362L12.8553 36.309L14.5098 37.9635L10.7189 41.7544ZM34.9189 53.2635C34.9189 55.9635 32.728 58.1544 30.028 58.1544C27.328 58.1544 25.128 55.9635 25.128 53.2635C25.128 50.9635 26.728 49.0544 28.8553 48.5271V44.218H31.2007V48.5271C33.328 49.0544 34.9189 50.9635 34.9189 53.2635ZM55.3462 51.7544C55.3462 54.4544 53.1553 56.6453 50.4553 56.6453C47.7553 56.6453 45.5644 54.4544 45.5644 51.7544C45.5644 49.4635 47.1462 47.5453 49.2825 47.0181V41.7635L45.5189 38.009L47.1825 36.3453L51.2916 40.4544C51.5007 40.6817 51.628 40.9726 51.628 41.2908V47.0271C53.7644 47.5362 55.3462 49.4635 55.3462 51.7544ZM37.1371 19.4544V20.6817H38.1189C38.2829 20.6817 38.4401 20.6165 38.556 20.5006C38.672 20.3847 38.7371 20.2274 38.7371 20.0635C38.7371 19.8995 38.672 19.7423 38.556 19.6264C38.4401 19.5104 38.2829 19.4453 38.1189 19.4453H37.1371V19.4544ZM30.028 19.4544H29.0462V20.6817H30.028C30.3644 20.6817 30.6462 20.4089 30.6462 20.0635C30.6426 19.9015 30.5761 19.7473 30.4607 19.6335C30.3452 19.5198 30.19 19.4555 30.028 19.4544Z" fill="#102694"/>
<path d="M30.0279 9.46338C23.1916 9.46338 17.6279 15.027 17.6279 21.8634C17.6279 28.6997 23.1916 34.2634 30.0279 34.2634C36.8643 34.2634 42.4279 28.6997 42.4279 21.8634C42.4279 15.027 36.8643 9.46338 30.0279 9.46338ZM24.037 20.6816C24.6825 20.6816 25.2097 21.2088 25.2097 21.8543C25.2097 22.4997 24.6825 23.027 24.037 23.027H22.0188V24.2543H24.037C24.6825 24.2543 25.2097 24.7816 25.2097 25.427C25.2097 26.0725 24.6825 26.5997 24.037 26.5997H20.8461C20.2007 26.5997 19.6734 26.0725 19.6734 25.427V18.2725C19.6734 17.627 20.2007 17.0997 20.8461 17.0997H24.037C24.6825 17.0997 25.2097 17.627 25.2097 18.2725C25.2097 18.9179 24.6825 19.4452 24.037 19.4452H22.0188V20.6725H24.037V20.6816ZM32.9916 25.4452C32.9825 26.0907 32.4643 26.5997 31.8188 26.5997H31.8007C31.1552 26.5907 30.637 26.0634 30.6461 25.4088C30.6552 24.4179 29.837 23.8088 29.0461 23.4452V25.4179C29.0461 26.0634 28.5188 26.5907 27.8734 26.5907C27.2279 26.5907 26.7007 26.0634 26.7007 25.4179V18.2725C26.7007 17.627 27.2279 17.0997 27.8734 17.0997H30.0279C31.6643 17.0997 32.9916 18.427 32.9916 20.0634C32.9916 21.0543 32.5007 21.9361 31.7461 22.4725C32.4825 23.2088 33.0007 24.1816 32.9916 25.4452ZM41.0825 20.0725C41.0825 21.7088 39.7552 23.0361 38.1188 23.0361H37.137V25.4361C37.137 26.0816 36.6098 26.6088 35.9643 26.6088C35.3188 26.6088 34.7916 26.0816 34.7916 25.4361V18.2907C34.7916 17.6452 35.3188 17.1179 35.9643 17.1179H38.1188C39.7552 17.1088 41.0825 18.4361 41.0825 20.0725Z" fill="#102694"/>
<path d="M45.528 32.3181C45.2734 31.9454 45.2643 31.4545 45.4916 31.0636C46.3825 29.5636 47.0552 27.9545 47.4734 26.2818C47.5825 25.8454 47.937 25.509 48.3825 25.4181L50.037 25.0999V18.6181L48.3825 18.2999C47.937 18.209 47.5825 17.8727 47.4734 17.4363C47.0461 15.7636 46.3825 14.1545 45.4916 12.6545C45.2552 12.2636 45.2734 11.7727 45.528 11.3999L46.4643 9.99994L41.8825 5.41813L40.4825 6.35449C40.1007 6.60904 39.6189 6.61813 39.228 6.39085C37.737 5.49995 36.128 4.82722 34.4461 4.40904C34.0098 4.29995 33.6734 3.9454 33.5825 3.49995L33.2643 1.85449H26.7825L26.4643 3.49995C26.3734 3.9454 26.037 4.29995 25.6007 4.40904C23.9189 4.83631 22.3098 5.49995 20.8189 6.39085C20.4279 6.62722 19.937 6.60904 19.5643 6.35449L18.1643 5.41813L13.5825 9.99994L14.5189 11.3999C14.7734 11.7727 14.7825 12.2636 14.5552 12.6545C13.6643 14.1454 12.9916 15.7545 12.5734 17.4363C12.4643 17.8727 12.1098 18.209 11.6643 18.2999L10.0098 18.6181V25.0999L11.6643 25.4181C12.1098 25.509 12.4643 25.8454 12.5734 26.2818C13.0007 27.9636 13.6643 29.5727 14.5552 31.0636C14.7916 31.4545 14.7734 31.9454 14.5189 32.3181L13.5825 33.7181L18.1643 38.2999L19.5643 37.3636C19.937 37.109 20.4279 37.0999 20.8189 37.3272C22.3098 38.2181 23.9189 38.8908 25.6007 39.309C26.037 39.4181 26.3734 39.7727 26.4643 40.2181L26.7825 41.8636H33.2643L33.5825 40.2181C33.6734 39.7727 34.0098 39.4181 34.4461 39.309C36.128 38.8818 37.737 38.2181 39.228 37.3272C39.6189 37.0908 40.1098 37.109 40.4825 37.3636L41.8825 38.2999L46.4643 33.7181L45.528 32.3181ZM30.028 36.5999C21.9007 36.5999 15.2825 29.9818 15.2825 21.8545C15.2825 13.7272 21.9007 7.10904 30.028 7.10904C38.1552 7.10904 44.7734 13.7272 44.7734 21.8545C44.7734 29.9908 38.1552 36.5999 30.028 36.5999Z" fill="#333333"/>
</svg>
