<svg width="60" height="60" viewBox="0 0 60 60" fill="none" xmlns="http://www.w3.org/2000/svg">
<path d="M39.375 1.875H16.875C14.3886 1.875 12.004 2.86272 10.2459 4.62087C8.48772 6.37903 7.5 8.7636 7.5 11.25V43.125C7.5 45.6114 8.48772 47.996 10.2459 49.7541C12.004 51.5123 14.3886 52.5 16.875 52.5H37.5V46.6669C35.0966 44.221 33.7499 40.9291 33.75 37.5C33.75 30.2625 39.6394 24.375 46.875 24.375C47.5125 24.375 48.135 24.4369 48.75 24.525V11.25C48.75 10.0189 48.5075 8.79977 48.0364 7.66234C47.5652 6.52492 46.8747 5.49142 46.0041 4.62087C45.1336 3.75032 44.1001 3.05977 42.9627 2.58863C41.8252 2.11749 40.6061 1.875 39.375 1.875ZM26.5875 43.125H16.875C16.3777 43.125 15.9008 42.9275 15.5492 42.5758C15.1975 42.2242 15 41.7473 15 41.25C15 40.7527 15.1975 40.2758 15.5492 39.9242C15.9008 39.5725 16.3777 39.375 16.875 39.375H26.5875C27.0848 39.375 27.5617 39.5725 27.9133 39.9242C28.265 40.2758 28.4625 40.7527 28.4625 41.25C28.4625 41.7473 28.265 42.2242 27.9133 42.5758C27.5617 42.9275 27.0848 43.125 26.5875 43.125ZM27.0375 33.75H16.875C16.3777 33.75 15.9008 33.5525 15.5492 33.2008C15.1975 32.8492 15 32.3723 15 31.875C15 31.3777 15.1975 30.9008 15.5492 30.5492C15.9008 30.1975 16.3777 30 16.875 30H27.0375C27.5348 30 28.0117 30.1975 28.3633 30.5492C28.715 30.9008 28.9125 31.3777 28.9125 31.875C28.9125 32.3723 28.715 32.8492 28.3633 33.2008C28.0117 33.5525 27.5348 33.75 27.0375 33.75ZM32.7188 24.375H16.875C16.3777 24.375 15.9008 24.1775 15.5492 23.8258C15.1975 23.4742 15 22.9973 15 22.5C15 22.0027 15.1975 21.5258 15.5492 21.1742C15.9008 20.8225 16.3777 20.625 16.875 20.625H32.7188C33.216 20.625 33.6929 20.8225 34.0446 21.1742C34.3962 21.5258 34.5938 22.0027 34.5938 22.5C34.5938 22.9973 34.3962 23.4742 34.0446 23.8258C33.6929 24.1775 33.216 24.375 32.7188 24.375ZM39.375 15H16.875C16.3777 15 15.9008 14.8025 15.5492 14.4508C15.1975 14.0992 15 13.6223 15 13.125C15 12.6277 15.1975 12.1508 15.5492 11.7992C15.9008 11.4475 16.3777 11.25 16.875 11.25H39.375C39.8723 11.25 40.3492 11.4475 40.7008 11.7992C41.0525 12.1508 41.25 12.6277 41.25 13.125C41.25 13.6223 41.0525 14.0992 40.7008 14.4508C40.3492 14.8025 39.8723 15 39.375 15ZM46.875 50.625C44.8594 50.625 42.9562 50.1562 41.25 49.3444V56.2463C41.25 56.5857 41.3421 56.9188 41.5165 57.21C41.6909 57.5012 41.9411 57.7396 42.2404 57.8998C42.5397 58.0599 42.8769 58.1358 43.216 58.1193C43.555 58.1029 43.8833 57.9946 44.1656 57.8063L46.875 55.9987L49.5844 57.8063C49.8667 57.9946 50.195 58.1029 50.534 58.1193C50.8731 58.1358 51.2103 58.0599 51.5096 57.8998C51.8089 57.7396 52.0591 57.5012 52.2335 57.21C52.4079 56.9188 52.5 56.5857 52.5 56.2463V49.3444C50.744 50.1854 48.822 50.623 46.875 50.625Z" fill="#102694"/>
<path d="M46.875 46.875C52.0527 46.875 56.25 42.6777 56.25 37.5C56.25 32.3223 52.0527 28.125 46.875 28.125C41.6973 28.125 37.5 32.3223 37.5 37.5C37.5 42.6777 41.6973 46.875 46.875 46.875Z" fill="#333333"/>
</svg>
