<svg width="60" height="60" viewBox="0 0 60 60" fill="none" xmlns="http://www.w3.org/2000/svg">
<path d="M32.8125 50.6252H44.0625V56.2502H32.8125V50.6252ZM51.8813 36.1783L55.9594 20.9533C56.006 20.7951 56.0282 20.6307 56.025 20.4658C56.0234 20.0365 55.8745 19.6207 55.6032 19.288C55.3319 18.9553 54.9546 18.7257 54.5344 18.6377C54.042 18.5613 53.5389 18.6732 53.1253 18.9512C52.7118 19.2292 52.4182 19.6529 52.3031 20.1377L49.4062 29.0721L49.4625 29.1565C49.9579 30.0166 50.0927 31.0379 49.8375 31.9971C49.712 32.4745 49.4922 32.9221 49.1911 33.3133C48.8901 33.7045 48.5138 34.0316 48.0844 34.2752L42.7125 37.3783C42.4982 37.4904 42.249 37.5154 42.0167 37.448C41.7845 37.3806 41.5873 37.2261 41.4663 37.0168C41.3453 36.8075 41.3098 36.5594 41.3674 36.3246C41.4249 36.0897 41.5709 35.8862 41.775 35.7565L47.1469 32.6533C47.3611 32.5315 47.5492 32.3685 47.7004 32.1739C47.8517 31.9792 47.963 31.7567 48.0281 31.519C48.1513 31.0375 48.0841 30.5271 47.8406 30.094C47.7173 29.8799 47.553 29.6923 47.357 29.5419C47.161 29.3916 46.9372 29.2815 46.6985 29.2179C46.4598 29.1543 46.2109 29.1385 45.9661 29.1714C45.7212 29.2043 45.4853 29.2852 45.2719 29.4096L36.9937 34.2565C36.0094 34.8391 35.1931 35.6671 34.6245 36.6596C34.056 37.6521 33.7546 38.7751 33.75 39.919V48.7502H43.125V46.6877C43.1269 46.0264 43.2672 45.3728 43.5369 44.7689C43.8065 44.1651 44.1995 43.6243 44.6906 43.1815L51.0375 37.5471C51.4468 37.1833 51.7402 36.7074 51.8813 36.1783Z" fill="#102694"/>
<path d="M47.8882 27.6752L50.5038 19.6033C50.7161 18.7931 51.1872 18.0744 51.8455 17.5566C52.5038 17.0388 53.3132 16.7501 54.1507 16.7346V16.7158C54.149 16.2865 54.0001 15.8707 53.7288 15.538C53.4575 15.2053 53.0802 14.9757 52.66 14.8877C52.1676 14.8113 51.6645 14.9232 51.251 15.2012C50.8374 15.4792 50.5439 15.9029 50.4288 16.3877L46.6319 27.319C47.0676 27.367 47.4922 27.4874 47.8882 27.6752ZM8.11941 36.169C8.25799 36.7018 8.55165 37.1814 8.96316 37.5471L15.3007 43.1815C15.7947 43.6225 16.1903 44.1627 16.4616 44.7668C16.733 45.3709 16.8741 46.0254 16.8757 46.6877V48.7502H26.2507V39.919C26.246 38.7751 25.9447 37.6521 25.3761 36.6596C24.8076 35.6671 23.9912 34.8391 23.0069 34.2565L14.7194 29.4002C14.5058 29.2777 14.2702 29.1985 14.0259 29.167C13.7817 29.1356 13.5337 29.1526 13.296 29.217C13.0584 29.2814 12.8357 29.392 12.6408 29.5425C12.4459 29.693 12.2825 29.8803 12.16 30.094C11.9165 30.5271 11.8494 31.0375 11.9725 31.519C12.0377 31.7567 12.149 31.9792 12.3002 32.1739C12.4514 32.3685 12.6395 32.5315 12.8538 32.6533L18.2257 35.7565C18.4297 35.8862 18.5758 36.0897 18.6333 36.3246C18.6908 36.5594 18.6554 36.8075 18.5344 37.0168C18.4134 37.2261 18.2162 37.3806 17.9839 37.448C17.7517 37.5154 17.5024 37.4904 17.2882 37.3783L11.9163 34.2752C11.4869 34.0316 11.1106 33.7045 10.8095 33.3133C10.5085 32.9221 10.2887 32.4745 10.1632 31.9971C9.90796 31.0379 10.0428 30.0166 10.5382 29.1565L10.5944 29.0721L7.71629 20.1846C7.60487 19.689 7.30991 19.2539 6.89074 18.9669C6.47157 18.6799 5.95929 18.5623 5.45691 18.6377C5.03843 18.7276 4.6633 18.9579 4.39384 19.2905C4.12439 19.6231 3.97682 20.0378 3.97566 20.4658C3.97421 20.63 3.99311 20.7938 4.03191 20.9533L8.11941 36.169ZM15.9382 50.6252H27.1882V56.2502H15.9382V50.6252Z" fill="#102694"/>
<path d="M7.33184 14.8875C6.91336 14.9774 6.53823 15.2077 6.26877 15.5403C5.99931 15.8729 5.85174 16.2876 5.85059 16.7156V16.7344C6.69537 16.7562 7.51007 17.0526 8.17144 17.5786C8.83281 18.1047 9.30487 18.8318 9.51621 19.65L12.1131 27.675C12.5091 27.4872 12.9337 27.3668 13.3693 27.3188L9.60059 16.4531C9.48973 15.9541 9.1943 15.5153 8.77353 15.225C8.35276 14.9346 7.83777 14.8141 7.33184 14.8875ZM30.9381 14.0625V10.3125H29.0631V14.0625H25.3131V15.9375H29.0631V19.6875H30.9381V15.9375H34.6881V14.0625H30.9381Z" fill="#333333"/>
<path d="M36.6285 3.93769C35.6438 3.9342 34.6681 4.1268 33.7586 4.50424C32.849 4.88169 32.0237 5.43643 31.3307 6.13612L30.6632 6.80362C30.4874 6.97938 30.249 7.07811 30.0004 7.07811C29.7518 7.07811 29.5134 6.97938 29.3376 6.80362L28.672 6.138C27.9759 5.44045 27.1491 4.88704 26.2389 4.50945C25.3287 4.13186 24.353 3.9375 23.3676 3.9375C22.3822 3.9375 21.4064 4.13186 20.4962 4.50945C19.586 4.88704 18.7592 5.44045 18.0632 6.138C16.6589 7.54423 15.8701 9.45033 15.8701 11.4377C15.8701 13.425 16.6589 15.3311 18.0632 16.7374L30.0004 28.6746L41.9376 16.7374C42.9856 15.6879 43.6989 14.3514 43.9874 12.8966C44.2759 11.4418 44.1266 9.93414 43.5584 8.56421C42.9902 7.19427 42.0285 6.02355 40.795 5.20006C39.5616 4.37656 38.1116 3.93726 36.6285 3.93769ZM36.5629 16.8752C36.5629 17.1238 36.4641 17.3623 36.2883 17.5381C36.1125 17.7139 35.874 17.8127 35.6254 17.8127H32.8129V20.6252C32.8129 20.8738 32.7141 21.1123 32.5383 21.2881C32.3625 21.4639 32.124 21.5627 31.8754 21.5627H28.1254C27.8768 21.5627 27.6383 21.4639 27.4625 21.2881C27.2867 21.1123 27.1879 20.8738 27.1879 20.6252V17.8127H24.3754C24.1268 17.8127 23.8883 17.7139 23.7125 17.5381C23.5367 17.3623 23.4379 17.1238 23.4379 16.8752V13.1252C23.4379 12.8765 23.5367 12.6381 23.7125 12.4623C23.8883 12.2865 24.1268 12.1877 24.3754 12.1877H27.1879V9.37519C27.1879 9.12654 27.2867 8.88809 27.4625 8.71227C27.6383 8.53646 27.8768 8.43769 28.1254 8.43769H31.8754C32.124 8.43769 32.3625 8.53646 32.5383 8.71227C32.7141 8.88809 32.8129 9.12654 32.8129 9.37519V12.1877H35.6254C35.874 12.1877 36.1125 12.2865 36.2883 12.4623C36.4641 12.6381 36.5629 12.8765 36.5629 13.1252V16.8752Z" fill="#333333"/>
</svg>
