<svg width="60" height="60" viewBox="0 0 60 60" fill="none" xmlns="http://www.w3.org/2000/svg">
<path d="M24.4313 48.5988C22.8394 48.1458 21.4227 47.2199 20.3688 45.9438C20.1717 45.7339 19.9674 45.5308 19.7563 45.335C19.5525 45.2913 19.1663 45.25 18.8975 45.2212C17.2666 45.1654 15.691 44.6162 14.3788 43.6462C13.6857 43.0718 13.1188 42.3602 12.7138 41.5562L7.83878 50C7.60331 50.4079 7.48785 50.874 7.5057 51.3447C7.52356 51.8153 7.674 52.2714 7.9397 52.6602C8.20541 53.0491 8.57556 53.355 9.00752 53.5428C9.43949 53.7305 9.91569 53.7923 10.3813 53.7213L14.7325 53.0587L16.3363 57.1613C16.506 57.6008 16.7974 57.983 17.1764 58.263C17.5554 58.543 18.0062 58.7093 18.4763 58.7425C18.5413 58.7475 18.6059 58.75 18.67 58.75C19.1084 58.7512 19.5393 58.6361 19.9187 58.4165C20.2982 58.1969 20.6126 57.8807 20.83 57.5L25.8863 48.74C25.8488 48.7412 25.8138 48.7487 25.7763 48.7487C25.3237 48.7496 24.8725 48.6993 24.4313 48.5988ZM47.2888 41.555C46.8839 42.3598 46.317 43.0721 45.6238 43.6475C44.3114 44.6172 42.7359 45.1664 41.105 45.2225C40.8338 45.2513 40.4463 45.2938 40.2438 45.335C40.0875 45.4725 39.8188 45.7512 39.6313 45.9475C38.5799 47.2196 37.168 48.1435 35.5813 48.5975C35.1352 48.6999 34.6789 48.751 34.2213 48.75C34.185 48.75 34.1525 48.7425 34.1163 48.7425L39.1725 57.5C39.3899 57.8805 39.7041 58.1966 40.0833 58.4162C40.4625 58.6357 40.8931 58.7509 41.3313 58.75C41.3963 58.75 41.4613 58.7475 41.5263 58.7425C41.9965 58.7094 42.4476 58.5431 42.8268 58.2631C43.2059 57.9831 43.4976 57.6009 43.6675 57.1613L45.27 53.0587L49.62 53.7213C50.0857 53.7926 50.5621 53.731 50.9943 53.5434C51.4264 53.3558 51.7968 53.0499 52.0627 52.6609C52.3285 52.272 52.4791 51.8158 52.497 51.345C52.5149 50.8743 52.3994 50.408 52.1638 50L47.2888 41.555ZM30.0013 11.25C27.529 11.25 25.1123 11.9831 23.0567 13.3566C21.001 14.7301 19.3989 16.6824 18.4528 18.9665C17.5067 21.2505 17.2592 23.7639 17.7415 26.1886C18.2238 28.6134 19.4143 30.8407 21.1624 32.5888C22.9106 34.337 25.1379 35.5275 27.5627 36.0098C29.9874 36.4921 32.5008 36.2446 34.7848 35.2985C37.0689 34.3524 39.0211 32.7502 40.3947 30.6946C41.7682 28.639 42.5013 26.2223 42.5013 23.75C42.4973 20.436 41.1791 17.2589 38.8357 14.9155C36.4924 12.5722 33.3153 11.254 30.0013 11.25ZM36.0413 20.6938L31.0413 28.1938C30.9387 28.3475 30.8033 28.4765 30.6449 28.5716C30.4865 28.6667 30.3089 28.7255 30.125 28.7438C30.0839 28.7479 30.0426 28.75 30.0013 28.75C29.6698 28.7499 29.3519 28.6182 29.1175 28.3838L25.3675 24.6338C25.1398 24.398 25.0138 24.0822 25.0167 23.7545C25.0195 23.4268 25.151 23.1132 25.3828 22.8815C25.6145 22.6497 25.928 22.5183 26.2558 22.5154C26.5835 22.5126 26.8993 22.6386 27.135 22.8662L29.8075 25.5387L33.9613 19.3062C34.0524 19.1697 34.1695 19.0524 34.3059 18.9611C34.4424 18.8698 34.5955 18.8062 34.7564 18.7741C34.9174 18.7419 35.0832 18.7418 35.2442 18.7737C35.4053 18.8056 35.5585 18.8689 35.695 18.96C35.8316 19.0511 35.9489 19.1682 36.0402 19.3047C36.1315 19.4411 36.1951 19.5942 36.2272 19.7552C36.2594 19.9162 36.2595 20.0819 36.2276 20.243C36.1957 20.404 36.1324 20.5572 36.0413 20.6938Z" fill="#333333"/>
<path d="M35.0125 46.1613C36.1223 45.8024 37.1018 45.1246 37.8288 44.2125C38.2015 43.7722 38.6395 43.3915 39.1275 43.0838C39.6738 42.8796 40.2487 42.7624 40.8313 42.7363C41.9788 42.7179 43.0954 42.3613 44.0413 41.7113C44.8724 40.9046 45.4557 39.8772 45.7225 38.75C45.8762 38.1744 46.116 37.6253 46.4338 37.1213C46.8368 36.7004 47.3022 36.3442 47.8138 36.065C48.8459 35.5386 49.7028 34.7235 50.28 33.7188C50.6824 32.6393 50.7712 31.4679 50.5363 30.34C50.4286 29.7401 50.4126 29.1273 50.4887 28.5225C50.6703 27.9718 50.9341 27.4518 51.2712 26.98C51.9811 26.0429 52.4075 24.922 52.5 23.75C52.4069 22.5792 51.981 21.4594 51.2725 20.5225C50.9348 20.0509 50.6706 19.5309 50.4887 18.98C50.4124 18.3753 50.4285 17.7625 50.5363 17.1625C50.771 16.0347 50.6826 14.8636 50.2812 13.7838C49.7038 12.78 48.8475 11.9654 47.8162 11.4388C47.3038 11.1594 46.8375 10.8028 46.4338 10.3813C46.116 9.87641 45.8762 9.32647 45.7225 8.75004C45.4565 7.62224 44.8731 6.5942 44.0413 5.78754C43.0958 5.13773 41.9796 4.78119 40.8325 4.76254C40.25 4.73725 39.6752 4.62084 39.1287 4.41754C38.6408 4.10879 38.2024 3.72779 37.8288 3.28754C37.1017 2.37531 36.1222 1.69716 35.0125 1.33754C33.8892 1.17839 32.7439 1.35269 31.7188 1.83879C31.173 2.07855 30.593 2.23124 30 2.29129C29.4074 2.23175 28.8278 2.07948 28.2825 1.84004C27.2572 1.35298 26.1111 1.17906 24.9875 1.34004C23.8779 1.69857 22.8984 2.37591 22.1712 3.28754C21.7985 3.72791 21.3605 4.10857 20.8725 4.41629C20.3262 4.62045 19.7513 4.7377 19.1687 4.76379C18.0212 4.78219 16.9046 5.13874 15.9587 5.78879C15.1276 6.5955 14.5443 7.62292 14.2775 8.75004C14.1238 9.32568 13.884 9.87479 13.5662 10.3788C13.1632 10.7997 12.6978 11.1559 12.1862 11.435C11.1541 11.9615 10.2972 12.7766 9.72 13.7813C9.31762 14.8608 9.22878 16.0322 9.46375 17.16C9.57143 17.76 9.58744 18.3728 9.51125 18.9775C9.32974 19.5282 9.06591 20.0483 8.72875 20.52C8.01893 21.4572 7.59251 22.5781 7.5 23.75C7.5931 24.9209 8.019 26.0407 8.7275 26.9775C9.06517 27.4492 9.32942 27.9692 9.51125 28.52C9.58756 29.1248 9.57154 29.7376 9.46375 30.3375C9.229 31.4653 9.31739 32.6365 9.71875 33.7163C10.2961 34.7201 11.1524 35.5347 12.1837 36.0613C12.6963 36.341 13.1626 36.6981 13.5662 37.12C13.8838 37.6242 14.1236 38.1732 14.2775 38.7488C14.5435 39.8766 15.1269 40.9046 15.9587 41.7113C16.9042 42.3611 18.0204 42.7176 19.1675 42.7363C19.75 42.762 20.3249 42.8788 20.8713 43.0825C21.3592 43.3909 21.7975 43.7715 22.1712 44.2113C22.8982 45.124 23.8776 45.8026 24.9875 46.1625C26.1108 46.3212 27.256 46.1469 28.2812 45.6613C28.827 45.4215 29.407 45.2689 30 45.2088C30.5926 45.2683 31.1722 45.4206 31.7175 45.66C32.5107 46.0016 33.3577 46.2013 34.22 46.25C34.4867 46.251 34.7526 46.2213 35.0125 46.1613ZM30 38.75C27.0333 38.75 24.1332 37.8703 21.6664 36.2221C19.1997 34.5739 17.2771 32.2312 16.1418 29.4903C15.0065 26.7494 14.7094 23.7334 15.2882 20.8237C15.867 17.914 17.2956 15.2412 19.3934 13.1434C21.4912 11.0457 24.1639 9.61704 27.0736 9.03826C29.9834 8.45949 32.9994 8.75654 35.7403 9.89185C38.4811 11.0272 40.8238 12.9498 42.472 15.4165C44.1203 17.8832 45 20.7833 45 23.75C44.9957 27.727 43.414 31.5398 40.6018 34.3519C37.7897 37.164 33.9769 38.7457 30 38.75Z" fill="#102694"/>
</svg>
