<svg width="60" height="60" viewBox="0 0 60 60" fill="none" xmlns="http://www.w3.org/2000/svg">
<path d="M22.0127 45.8044C20.4809 47.2026 18.4818 47.9778 16.4079 47.9778C14.3339 47.9778 12.3348 47.2026 10.803 45.8044C8.23053 47.2913 4.28178 51.6423 6.39491 54.7866C6.71856 55.2386 7.14516 55.6071 7.63944 55.8616C8.13372 56.1161 8.68147 56.2492 9.23741 56.2501H23.569C24.1248 56.2493 24.6725 56.1163 25.1668 55.862C25.6611 55.6077 26.0877 55.2394 26.4115 54.7876C28.5218 51.6469 24.5721 47.2913 22.0127 45.8044Z" fill="#102694"/>
<path d="M22.8159 39.719C22.5244 31.2131 10.2647 31.2327 9.98438 39.719C10.2666 48.1677 22.5066 48.2427 22.8159 39.719ZM37.185 39.719C37.4916 48.2381 49.7316 48.1734 50.0166 39.719C49.7381 31.2365 37.4784 31.2102 37.185 39.719Z" fill="#102694"/>
<path d="M49.2034 45.8044C47.6731 47.206 45.6732 47.9835 43.598 47.9835C41.5229 47.9835 39.523 47.206 37.9927 45.8044C35.4362 47.2913 31.4687 51.6441 33.5865 54.7866C33.9099 55.2382 34.336 55.6064 34.8298 55.8609C35.3235 56.1153 35.8707 56.2487 36.4262 56.25H50.7587C51.3145 56.2493 51.8622 56.1163 52.3565 55.8619C52.8508 55.6076 53.2774 55.2393 53.6012 54.7875C55.7105 51.6431 51.7693 47.2931 49.2034 45.8044ZM26.904 20.7188H33.7159L39.7543 25.5553C39.8918 25.6621 40.0563 25.7283 40.2293 25.7467C40.4024 25.7651 40.5771 25.7348 40.7339 25.6594C40.8908 25.5839 41.0234 25.4662 41.117 25.3194C41.2106 25.1727 41.2614 25.0028 41.2637 24.8287V20.7188H43.6965C44.3878 20.7168 45.0503 20.4413 45.5392 19.9524C46.028 19.4635 46.3036 18.801 46.3055 18.1097V6.35906C46.305 5.66725 46.03 5.00391 45.5408 4.51473C45.0516 4.02554 44.3883 3.7505 43.6965 3.75H26.904C26.2122 3.7505 25.5488 4.02554 25.0596 4.51473C24.5705 5.00391 24.2954 5.66725 24.2949 6.35906V18.1097C24.2969 18.801 24.5724 19.4635 25.0613 19.9524C25.5502 20.4413 26.2126 20.7168 26.904 20.7188Z" fill="#333333"/>
<path d="M22.4327 18.1095V12.2295H16.0389C15.4164 12.2302 14.8196 12.4779 14.3795 12.9182C13.9394 13.3585 13.6919 13.9554 13.6914 14.5779V24.4648C13.6919 25.0875 13.9395 25.6845 14.3798 26.1249C14.8201 26.5652 15.4172 26.8127 16.0398 26.8132H17.9317V30.1301C17.9353 30.3046 17.9873 30.4747 18.0818 30.6215C18.1764 30.7682 18.3098 30.8858 18.4672 30.9613C18.6246 31.0367 18.7999 31.0669 18.9735 31.0486C19.1471 31.0303 19.3122 30.9642 19.4505 30.8576L24.4914 26.8132H30.1755C30.7982 26.8127 31.3952 26.5652 31.8355 26.1249C32.2758 25.6845 32.5234 25.0875 32.5239 24.4648V22.5823H26.9045C25.7185 22.5818 24.5812 22.1104 23.7427 21.2716C22.9041 20.4329 22.4329 19.2955 22.4327 18.1095Z" fill="#333333"/>
</svg>
