<svg width="60" height="60" viewBox="0 0 60 60" fill="none" xmlns="http://www.w3.org/2000/svg">
<path fill-rule="evenodd" clip-rule="evenodd" d="M11.39 43.23C11.9588 45.7338 14.2 47.605 16.875 47.605C19.55 47.605 21.7913 45.7338 22.36 43.23H35.5563C36.125 45.7338 38.3663 47.605 41.0413 47.605C43.7163 47.605 45.9575 45.7338 46.5275 43.23H51.9525C52.7608 43.23 53.5359 42.9089 54.1074 42.3374C54.6789 41.7659 55 40.9908 55 40.1825V30.3125C55 29.895 54.7913 29.505 54.4438 29.2725L52.2663 27.8213L49.6363 21.245C49.3785 20.6008 48.9336 20.0485 48.359 19.6595C47.7844 19.2705 47.1064 19.0626 46.4125 19.0625H39.1663V16.145C39.1653 15.1508 38.7699 14.1975 38.0668 13.4945C37.3638 12.7914 36.4105 12.396 35.4163 12.395H8.75C7.75544 12.395 6.80161 12.7901 6.09835 13.4934C5.39509 14.1966 5 15.1505 5 16.145V39.855C5 40.7501 5.35558 41.6086 5.98851 42.2415C6.62145 42.8744 7.47989 43.23 8.375 43.23H11.39ZM41.785 21.5625H39.1663V36.675C39.9147 36.4115 40.7103 36.309 41.5011 36.3743C42.2918 36.4397 43.0599 36.6714 43.7549 37.0542C44.4499 37.437 45.0561 37.9624 45.5339 38.5959C46.0117 39.2293 46.3503 39.9566 46.5275 40.73H51.9525C52.0977 40.73 52.237 40.6723 52.3396 40.5697C52.4423 40.467 52.5 40.3277 52.5 40.1825V34.8963H48.75C48.4185 34.8963 48.1005 34.7646 47.8661 34.5302C47.6317 34.2957 47.5 33.9778 47.5 33.6463C47.5 33.3148 47.6317 32.9968 47.8661 32.7624C48.1005 32.528 48.4185 32.3963 48.75 32.3963H52.5V30.9825L50.8713 29.8963H43.75C43.4401 29.8963 43.1413 29.7812 42.9115 29.5733C42.6817 29.3654 42.5372 29.0796 42.5063 28.7713L41.785 21.5625ZM22.3663 19.1963C17.6113 19.1963 13.75 23.0575 13.75 27.8125C13.75 32.5675 17.6113 36.4288 22.3663 36.4288C27.1213 36.4288 30.9825 32.5675 30.9825 27.8125C30.9825 23.0575 27.1213 19.1963 22.3663 19.1963Z" fill="#102694"/>
<path fill-rule="evenodd" clip-rule="evenodd" d="M21.6543 27.594L20.9168 26.8577C20.6824 26.6233 20.3645 26.4916 20.033 26.4916C19.7015 26.4916 19.3837 26.6233 19.1493 26.8577C18.9149 27.0921 18.7832 27.41 18.7832 27.7415C18.7832 28.0729 18.9149 28.3908 19.1493 28.6252L20.7705 30.2452C21.2105 30.7327 22.0468 30.5865 22.538 30.2452L25.5843 27.199C25.812 26.9632 25.938 26.6475 25.9351 26.3197C25.9323 25.992 25.8008 25.6784 25.569 25.4467C25.3373 25.2149 25.0238 25.0835 24.696 25.0806C24.3683 25.0778 24.0525 25.2038 23.8168 25.4315L21.6543 27.594Z" fill="#333333"/>
<path d="M41.041 45.1038C42.7669 45.1038 44.166 43.7046 44.166 41.9788C44.166 40.2529 42.7669 38.8538 41.041 38.8538C39.3151 38.8538 37.916 40.2529 37.916 41.9788C37.916 43.7046 39.3151 45.1038 41.041 45.1038Z" fill="#333333"/>
<path d="M16.875 45.1038C18.6009 45.1038 20 43.7046 20 41.9788C20 40.2529 18.6009 38.8538 16.875 38.8538C15.1491 38.8538 13.75 40.2529 13.75 41.9788C13.75 43.7046 15.1491 45.1038 16.875 45.1038Z" fill="#333333"/>
</svg>
