<svg width="51" height="48" viewBox="0 0 51 48" fill="none" xmlns="http://www.w3.org/2000/svg">
<g clip-path="url(#clip0_339_37866)">
<path d="M41.1059 45.4634C41.5525 45.4632 41.9817 45.6263 42.3029 45.9183C44.4011 47.8252 47.4617 48.4602 50.1825 47.6654C48.4315 44.2321 48.1889 40.2987 49.5458 36.6568C51.2298 32.1255 51.6518 27.5838 49.7353 23.0288C48.0515 19.0274 44.8023 15.7029 40.6901 13.8071C40.9439 15.0832 41.0713 16.3787 41.0706 17.677C41.0707 23.2249 38.804 28.4429 34.6884 32.3698C30.5723 36.2973 25.0547 38.5056 19.1522 38.5882C18.0598 38.604 16.9676 38.5444 15.8845 38.4097C19.1284 43.7614 25.2464 47.2469 31.9693 47.3407C34.9103 47.3835 37.7341 46.8036 40.3639 45.6216C40.5956 45.5173 40.8491 45.4633 41.1059 45.4634Z" fill="#333333"/>
<path d="M19.2002 0.00377097C8.72927 -0.191912 0.0250602 7.7806 -0.000187364 17.6334C-0.00637301 20.0407 0.492897 22.3746 1.48386 24.5707C1.49825 24.6027 1.51163 24.635 1.52375 24.6678C2.88068 28.3097 2.63818 32.243 0.887011 35.6764C3.60806 36.4708 6.66831 35.8362 8.76664 33.9292C9.0192 33.6997 9.34027 33.5482 9.68682 33.4952C10.0334 33.4422 10.3889 33.4902 10.7056 33.6326C13.335 34.8146 16.1592 35.3963 19.1001 35.3518C29.489 35.2067 37.627 27.4429 37.6268 17.6769C37.627 8.12409 29.3607 0.196009 19.2002 0.00377097ZM8.778 20.3169C7.27362 20.3169 6.05404 19.171 6.05404 17.7575C6.05404 16.344 7.27362 15.198 8.778 15.198C10.2824 15.198 11.502 16.344 11.502 17.7575C11.5018 19.171 10.2824 20.3169 8.778 20.3169ZM18.8134 20.3169C17.309 20.3169 16.0894 19.171 16.0894 17.7575C16.0894 16.344 17.309 15.198 18.8134 15.198C20.3178 15.198 21.5373 16.344 21.5373 17.7575C21.5373 19.171 20.3178 20.3169 18.8134 20.3169ZM28.8489 20.3169C27.3445 20.3169 26.1249 19.171 26.1249 17.7575C26.1249 16.344 27.3445 15.198 28.8489 15.198C30.3533 15.198 31.5728 16.344 31.5728 17.7575C31.5728 19.171 30.3533 20.3169 28.8489 20.3169Z" fill="#102694"/>
</g>
<defs>
<clipPath id="clip0_339_37866">
<rect width="51" height="48" fill="white"/>
</clipPath>
</defs>
</svg>
