<svg width="80" height="80" viewBox="0 0 80 80" fill="none" xmlns="http://www.w3.org/2000/svg">
<path d="M63.7352 24.9099C62.4399 24.9099 61.3897 25.9601 61.3897 27.2554V69.2411H75.1128V27.2554C75.1128 25.9601 74.0626 24.9099 72.7673 24.9099H63.7352ZM44.7653 41.0401C43.4699 41.0401 42.4198 42.0902 42.4198 43.3856V69.2411H56.1428V43.3856C56.1428 42.0902 55.0927 41.0401 53.7973 41.0401H44.7653ZM77.67 73.8974H2.3455C1.05016 73.8974 0 74.9476 0 76.2429C0 77.5382 1.05016 78.5884 2.3455 78.5884H77.67C80.7542 78.4846 80.7989 74.0198 77.67 73.8974ZM18.2028 49.3277C18.2028 48.0323 17.1526 46.9822 15.8573 46.9822H6.82525C5.52991 46.9822 4.47975 48.0323 4.47975 49.3277V69.2411H18.2026L18.2028 49.3277ZM25.7953 35.1147C24.5 35.1147 23.4498 36.1649 23.4498 37.4602V69.2411H37.1727V37.4602C37.1727 36.1649 36.1226 35.1147 34.8272 35.1147H25.7953Z" fill="#333333"/>
<path d="M11.551 41.0813C16.6309 41.1592 20.0926 35.5973 17.8704 31.0851L26.3184 22.6371C28.4682 24.0407 31.4896 24.0705 33.668 22.7117L42.7132 27.4329C43.4886 30.4522 46.2335 32.6901 49.4912 32.6901C54.0351 32.76 57.5055 28.1806 56.2348 23.8311L65.3776 14.6885C69.9053 16.9995 75.5259 13.5161 75.4581 8.40931C75.4581 4.55112 72.3192 1.41237 68.461 1.41237C63.4524 1.32622 59.9363 6.8358 62.1041 11.3281L53.4817 19.9503C50.1414 17.5125 45.0978 18.8169 43.2961 22.4457L36.6729 18.9886C38.2547 14.527 34.7941 9.66478 30.052 9.72186C25.3435 9.66447 21.8837 14.4679 23.4069 18.9148L14.5534 27.7683C11.9552 26.5371 8.75003 26.9935 6.60343 29.1399C2.19858 33.5249 5.40597 41.1231 11.551 41.0813Z" fill="#102694"/>
</svg>
