<svg width="35" height="35" viewBox="0 0 35 35" fill="none" xmlns="http://www.w3.org/2000/svg">
<circle opacity="0.1" cx="17.5" cy="17.5" r="17.5" fill="#4F694D"/>
<g clip-path="url(#clip0_1_13387)">
<path d="M25.8637 13.8858C25.6476 13.0825 25.0142 12.4493 24.2111 12.233C22.7439 11.8315 16.8748 11.8315 16.8748 11.8315C16.8748 11.8315 11.0059 11.8315 9.53865 12.2178C8.75095 12.4339 8.1022 13.0826 7.88613 13.8858C7.5 15.3529 7.5 18.3956 7.5 18.3956C7.5 18.3956 7.5 21.4535 7.88613 22.9053C8.1024 23.7085 8.73551 24.3417 9.53877 24.558C11.0213 24.9595 16.875 24.9595 16.875 24.9595C16.875 24.9595 22.7439 24.9595 24.2111 24.5733C25.0144 24.3571 25.6476 23.7239 25.8639 22.9208C26.2499 21.4535 26.2499 18.411 26.2499 18.411C26.2499 18.411 26.2653 15.3528 25.8637 13.8858ZM15.0061 21.2065V15.5846L19.8866 18.3955L15.0061 21.2065Z" fill="#333333"/>
</g>
<defs>
<clipPath id="clip0_1_13387">
<rect width="20" height="20" fill="white" transform="translate(7.5 11)"/>
</clipPath>
</defs>
</svg>
